<?xml version="1.0" encoding="UTF-8" standalone="no" ?>
<!DOCTYPE svg PUBLIC "-//W3C//DTD SVG 1.1//EN" "http://www.w3.org/Graphics/SVG/1.1/DTD/svg11.dtd">
<svg xmlns="http://www.w3.org/2000/svg" xmlns:xlink="http://www.w3.org/1999/xlink" version="1.1" width="400" height="400" viewBox="0 0 400 400" xml:space="preserve">
<desc>Created with Fabric.js 3.6.2</desc>
<defs>
</defs>
<g transform="matrix(4.17 0 0 4.17 167.51 272.56)" id="Layers_2"  >
<path style="stroke: none; stroke-width: 1; stroke-dasharray: none; stroke-linecap: butt; stroke-dashoffset: 0; stroke-linejoin: miter; stroke-miterlimit: 4; fill: #b7be34; fill-rule: nonzero; opacity: 1;"  transform=" translate(-16.2, -41.42)" d="M 14.59 44.16 c -0.6 -0.374 -0.784 -1.164 -0.41 -1.764 c 0.374 -0.6 3.533 -4.267 4.134 -3.893 c 0.6 0.374 -1.586 4.647 -1.96 5.247 C 15.98 44.35 15.19 44.534 14.59 44.16 z" stroke-linecap="round" />
</g>
<g transform="matrix(4.17 0 0 4.17 233.05 122.69)" id="Layers_2"  >
<path style="stroke: none; stroke-width: 1; stroke-dasharray: none; stroke-linecap: butt; stroke-dashoffset: 0; stroke-linejoin: miter; stroke-miterlimit: 4; fill: #b7be34; fill-rule: nonzero; opacity: 1;"  transform=" translate(-31.93, -5.45)" d="M 31.065 7.457 c -1.145 -0.443 -0.371 -4.711 1.537 -3.973 C 34.509 4.222 32.209 7.9 31.065 7.457 z" stroke-linecap="round" />
</g>
<g transform="matrix(4.17 0 0 4.17 276.87 167.52)" id="Layers_2"  >
<path style="stroke: none; stroke-width: 1; stroke-dasharray: none; stroke-linecap: butt; stroke-dashoffset: 0; stroke-linejoin: miter; stroke-miterlimit: 4; fill: #b7be34; fill-rule: nonzero; opacity: 1;"  transform=" translate(-42.45, -16.2)" d="M 41 17 c -0.338 -0.7 2 -3 2.781 -1.391 C 44.675 17.449 41.338 17.7 41 17 z" stroke-linecap="round" />
</g>
<g transform="matrix(4.17 0 0 4.17 232.14 265.1)" id="Layers_2"  >
<path style="stroke: none; stroke-width: 1; stroke-dasharray: none; stroke-linecap: butt; stroke-dashoffset: 0; stroke-linejoin: miter; stroke-miterlimit: 4; fill: #b7be34; fill-rule: nonzero; opacity: 1;"  transform=" translate(-31.71, -39.62)" d="M 30.795 37.652 c 0.783 -0.346 2.989 3.333 1.684 3.91 C 31.175 42.139 30.013 37.998 30.795 37.652 z" stroke-linecap="round" />
</g>
<g transform="matrix(4.17 0 0 4.17 135.89 168.9)" id="Layers_2"  >
<path style="stroke: none; stroke-width: 1; stroke-dasharray: none; stroke-linecap: butt; stroke-dashoffset: 0; stroke-linejoin: miter; stroke-miterlimit: 4; fill: #b7be34; fill-rule: nonzero; opacity: 1;"  transform=" translate(-8.61, -16.54)" d="M 10.544 17.547 c -0.369 0.772 -4.439 -0.585 -3.824 -1.872 S 10.913 16.775 10.544 17.547 z" stroke-linecap="round" />
</g>
<g transform="matrix(4.17 0 0 4.17 200 200)" id="Layers_2"  >
<path style="stroke: none; stroke-width: 1; stroke-dasharray: none; stroke-linecap: butt; stroke-dashoffset: 0; stroke-linejoin: miter; stroke-miterlimit: 4; fill: #b7be34; fill-rule: nonzero; opacity: 1;"  transform=" translate(-24, -24)" d="M 37.01 18.986 c -0.983 -2 2.99 -5.986 2.536 -8.672 c -0.098 -0.581 -0.508 -1.021 -1.064 -1.258 C 37.073 8.459 34 10 30.753 11.558 c -0.885 0.425 -1.475 -0.427 -2.067 -1.582 C 27.474 7.609 26 4 24.284 4 c 0 0 -0.002 0 -0.002 0 c -1.834 0.002 -2.514 1.882 -3.113 3.542 c -0.549 1.519 -1.116 3.089 -2.334 3.564 c -0.827 0.322 -2.46 -0.53 -3.771 -1.216 c -1.897 -0.993 -4.218 -2.967 -5.227 -0.738 C 9 11 14 17 12 19 c -1 1 -8 1.473 -8 3.016 c 0 0.984 2.108 2.381 4.746 3.39 c 1.349 0.516 2.76 1.023 3.77 1.659 C 14 28 14 28 11.042 33.162 c -1.186 2.07 -2.105 3.528 -1.447 4.66 c 1.25 2.148 8.411 -2.136 9.558 -1.955 C 20 36 20.805 38.359 21.401 39.82 C 22.354 42.155 23.108 44 24.61 44 c 1.736 0 2.649 -2.171 4.031 -5.458 c 0.272 -0.648 0.56 -1.331 0.867 -2.028 c 0.362 -0.818 0.915 -1.081 1.646 -0.781 c 0.965 0.396 1.834 0.774 2.618 1.115 c 3.433 1.494 5.7 2.48 7.138 0.654 c 1.041 -1.32 0.244 -3.319 -0.86 -6.085 c -0.811 -2.034 -0.829 -2.369 0.63 -3.659 c 0.395 -0.35 0.815 -0.649 1.222 -0.938 C 42.935 26.087 44 25.329 44 24 C 44 21.803 38 21 37.01 18.986 z" stroke-linecap="round" />
</g>
</svg>