<?xml version="1.0" ?><!DOCTYPE svg  PUBLIC '-//W3C//DTD SVG 1.1//EN'  'http://www.w3.org/Graphics/SVG/1.1/DTD/svg11.dtd'><svg height="100%" style="fill-rule:evenodd;clip-rule:evenodd;stroke-linejoin:round;stroke-miterlimit:2;" version="1.1" viewBox="0 0 32 32" width="100%" xml:space="preserve" xmlns="http://www.w3.org/2000/svg" xmlns:serif="http://www.serif.com/" xmlns:xlink="http://www.w3.org/1999/xlink"><path d="M30,9c0,-0.796 -0.316,-1.559 -0.879,-2.121c-0.562,-0.563 -1.325,-0.879 -2.121,-0.879l-22,-0c-0.796,0 -1.559,0.316 -2.121,0.879c-0.563,0.562 -0.879,1.325 -0.879,2.121c-0,3.463 -0,10.537 -0,14c-0,0.796 0.316,1.559 0.879,2.121c0.562,0.563 1.325,0.879 2.121,0.879l22,-0c0.796,-0 1.559,-0.316 2.121,-0.879c0.563,-0.562 0.879,-1.325 0.879,-2.121l-0,-14Zm-22,11l-2,0l0,2l2,0l0,-2Zm18,0l-2,0l0,2l2,0l0,-2Zm-4.514,-3.127c0.317,-0.177 0.514,-0.511 0.514,-0.875c0,-0.363 -0.197,-0.697 -0.514,-0.874l-9,-5.001c-0.31,-0.172 -0.688,-0.168 -0.993,0.012c-0.305,0.18 -0.493,0.508 -0.493,0.862l-0,10.003c-0,0.354 0.188,0.682 0.493,0.862c0.305,0.18 0.683,0.184 0.993,0.012l9,-5.001Zm-13.486,-1.875l-2,0l0,2l2,0l0,-2Zm18,0l-2,0l0,2l2,0l0,-2Zm-18,-4.998l-2,0l0,2l2,0l0,-2Zm18,0l-2,0l0,2l2,0l0,-2Z"/></svg>