<?xml version="1.0" encoding="UTF-8" standalone="no" ?>
<!DOCTYPE svg PUBLIC "-//W3C//DTD SVG 1.1//EN" "http://www.w3.org/Graphics/SVG/1.1/DTD/svg11.dtd">
<svg xmlns="http://www.w3.org/2000/svg" xmlns:xlink="http://www.w3.org/1999/xlink" version="1.1" width="400" height="400" viewBox="0 0 400 400" xml:space="preserve">
<desc>Created with Fabric.js 3.6.2</desc>
<defs>
</defs>
<g transform="matrix(1.33 0 0 1.33 262.06 187.26)" id="ART"  >
<path style="stroke: rgb(0,0,0); stroke-width: 4; stroke-dasharray: none; stroke-linecap: butt; stroke-dashoffset: 0; stroke-linejoin: miter; stroke-miterlimit: 10; fill: rgb(145,90,49); fill-rule: nonzero; opacity: 1;"  transform=" translate(-121.54, -65.44)" d="M 143.41 87.3 c 2.12 2.75 3.38 14.05 -4.72 14.05 c -6.54 0 -22.6 -6.84 -22.6 -20.37 s -18 -51.44 -18 -51.44 c 22.45 0 43.66 0.88 43.66 28.83 C 141.76 58.37 141.29 84.55 143.41 87.3 Z" stroke-linecap="round" />
</g>
<g transform="matrix(1.33 0 0 1.33 137.94 187.26)" id="ART"  >
<path style="stroke: rgb(0,0,0); stroke-width: 4; stroke-dasharray: none; stroke-linecap: butt; stroke-dashoffset: 0; stroke-linejoin: miter; stroke-miterlimit: 10; fill: rgb(145,90,49); fill-rule: nonzero; opacity: 1;"  transform=" translate(-28.46, -65.44)" d="M 6.59 87.3 c -2.12 2.75 -3.38 14.05 4.72 14.05 c 6.54 0 22.6 -6.84 22.6 -20.37 s 18 -51.44 18 -51.44 c -22.45 0 -43.66 0.88 -43.66 28.83 C 8.24 58.37 8.71 84.55 6.59 87.3 Z" stroke-linecap="round" />
</g>
<g transform="matrix(1.33 0 0 1.33 200 199.97)" id="_Path_"  >
<path style="stroke: rgb(0,0,0); stroke-width: 4; stroke-dasharray: none; stroke-linecap: butt; stroke-dashoffset: 0; stroke-linejoin: miter; stroke-miterlimit: 10; fill: rgb(160,101,56); fill-rule: nonzero; opacity: 1;"  transform=" translate(-75, -74.98)" d="M 119.27 73.22 c 0 47.32 -16.91 61.52 -44.27 61.52 s -44.27 -14.2 -44.27 -61.52 s 24.77 -58 44.27 -58 S 119.27 25.9 119.27 73.22 Z" stroke-linecap="round" />
</g>
<g transform="matrix(1.33 0 0 1.33 200 200.03)" id="ART"  >
<path style="stroke: none; stroke-width: 1; stroke-dasharray: none; stroke-linecap: butt; stroke-dashoffset: 0; stroke-linejoin: miter; stroke-miterlimit: 4; fill: rgb(214,214,214); fill-rule: nonzero; opacity: 1;"  transform=" translate(-75, -75.03)" d="M 104.69 121.79 c -6.7 7.46 -16.2 11 -29.69 11 s -23 -3.49 -29.69 -11 c 2.94 -12.49 8 -26.67 14.06 -35.75 C 67 74.6 69.49 38.94 67.62 17.82 a 48.91 48.91 0 0 1 14.76 0 C 80.51 38.94 83 74.6 90.63 86 C 96.69 95.12 101.75 109.3 104.69 121.79 Z" stroke-linecap="round" />
</g>
<g transform="matrix(1.33 0 0 1.33 201.04 243.21)" id="ART"  >
<path style="stroke: rgb(0,0,0); stroke-width: 2; stroke-dasharray: none; stroke-linecap: butt; stroke-dashoffset: 0; stroke-linejoin: miter; stroke-miterlimit: 10; fill: rgb(51,51,51); fill-rule: nonzero; opacity: 1;"  transform=" translate(-75.78, -107.41)" d="M 75.77 119.33 c -3.18 0 -15.65 -16.29 -14.62 -18.84 s 5.21 -5 14.62 -5 s 13.59 2.42 14.64 5 S 79 119.33 75.77 119.33 Z" stroke-linecap="round" />
</g>
<g transform="matrix(1.33 0 0 1.33 200.37 267.16)" id="ART"  >
<path style="stroke: rgb(0,0,0); stroke-width: 2; stroke-dasharray: none; stroke-linecap: butt; stroke-dashoffset: 0; stroke-linejoin: miter; stroke-miterlimit: 10; fill: none; fill-rule: nonzero; opacity: 1;"  transform=" translate(-75.28, -125.37)" d="M 82.41 122.37 c -0.47 4.17 -4.25 6 -7.14 6 s -6.67 -1.84 -7.13 -6" stroke-linecap="round" />
</g>
<g transform="matrix(1.33 0 0 1.33 170.69 200)" id="ART"  >
<circle style="stroke: rgb(0,0,0); stroke-width: 2; stroke-dasharray: none; stroke-linecap: butt; stroke-dashoffset: 0; stroke-linejoin: miter; stroke-miterlimit: 10; fill: rgb(255,255,255); fill-rule: nonzero; opacity: 1;"  cx="0" cy="0" r="10.57" />
</g>
<g transform="matrix(1.33 0 0 1.33 229.31 200)" id="ART"  >
<circle style="stroke: rgb(0,0,0); stroke-width: 2; stroke-dasharray: none; stroke-linecap: butt; stroke-dashoffset: 0; stroke-linejoin: miter; stroke-miterlimit: 10; fill: rgb(255,255,255); fill-rule: nonzero; opacity: 1;"  cx="0" cy="0" r="10.57" />
</g>
<g transform="matrix(1.33 0 0 1.33 173.79 200)" id="ART"  >
<circle style="stroke: none; stroke-width: 1; stroke-dasharray: none; stroke-linecap: butt; stroke-dashoffset: 0; stroke-linejoin: miter; stroke-miterlimit: 4; fill: rgb(0,0,0); fill-rule: nonzero; opacity: 1;"  cx="0" cy="0" r="5.92" />
</g>
<g transform="matrix(1.33 0 0 1.33 226.21 200)" id="ART"  >
<circle style="stroke: none; stroke-width: 1; stroke-dasharray: none; stroke-linecap: butt; stroke-dashoffset: 0; stroke-linejoin: miter; stroke-miterlimit: 4; fill: rgb(0,0,0); fill-rule: nonzero; opacity: 1;"  cx="0" cy="0" r="5.92" />
</g>
</svg>