<?xml version="1.0" encoding="UTF-8" standalone="no" ?>
<!DOCTYPE svg PUBLIC "-//W3C//DTD SVG 1.1//EN" "http://www.w3.org/Graphics/SVG/1.1/DTD/svg11.dtd">
<svg xmlns="http://www.w3.org/2000/svg" xmlns:xlink="http://www.w3.org/1999/xlink" version="1.1" width="400" height="400" viewBox="0 0 400 400" xml:space="preserve">
<desc>Created with Fabric.js 3.6.2</desc>
<defs>
</defs>
<g transform="matrix(4.17 0 0 4.17 200 200)" id="surface1"  >
<path style="stroke: none; stroke-width: 1; stroke-dasharray: none; stroke-linecap: butt; stroke-dashoffset: 0; stroke-linejoin: miter; stroke-miterlimit: 4; fill: rgb(55,71,79); fill-rule: nonzero; opacity: 1;"  transform=" translate(-24, -24)" d="M 25 29 C 25 29.554688 24.554688 30 24 30 C 23.445313 30 23 29.554688 23 29 L 23 19 C 23 18.445313 23.445313 18 24 18 C 24.554688 18 25 18.445313 25 19 Z" stroke-linecap="round" />
</g>
<g transform="matrix(4.17 0 0 4.17 200 170.83)" id="surface1"  >
<path style="stroke: none; stroke-width: 1; stroke-dasharray: none; stroke-linecap: butt; stroke-dashoffset: 0; stroke-linejoin: miter; stroke-miterlimit: 4; fill: rgb(55,71,79); fill-rule: nonzero; opacity: 1;"  transform=" translate(-24, -17)" d="M 25 17 C 25 17.550781 24.550781 18 24 18 C 23.449219 18 23 17.550781 23 17 C 23 16.449219 23.449219 16 24 16 C 24.550781 16 25 16.449219 25 17 Z" stroke-linecap="round" />
</g>
<g transform="matrix(4.17 0 0 4.17 229.17 213.54)" id="surface1"  >
<path style="stroke: none; stroke-width: 1; stroke-dasharray: none; stroke-linecap: butt; stroke-dashoffset: 0; stroke-linejoin: miter; stroke-miterlimit: 4; fill: rgb(41,98,255); fill-rule: nonzero; opacity: 1;"  transform=" translate(-31, -27.25)" d="M 25 20 L 31 20 C 31 20 37 20 37 25 C 37 30 34 32 34 32 C 34 32 31.296875 35.25 30.75 34.335938 C 28.628906 30.78125 25 22.796875 25 22 Z" stroke-linecap="round" />
</g>
<g transform="matrix(4.17 0 0 4.17 171.18 213.54)" id="surface1"  >
<path style="stroke: none; stroke-width: 1; stroke-dasharray: none; stroke-linecap: butt; stroke-dashoffset: 0; stroke-linejoin: miter; stroke-miterlimit: 4; fill: rgb(41,98,255); fill-rule: nonzero; opacity: 1;"  transform=" translate(-17.08, -27.25)" d="M 23.082031 20 L 17.082031 20 C 17.082031 20 11.082031 20 11.082031 25 C 11.082031 30 14.082031 32 14.082031 32 C 14.082031 32 16.785156 35.25 17.332031 34.335938 C 19.453125 30.78125 23.082031 22.796875 23.082031 22 Z" stroke-linecap="round" />
</g>
<g transform="matrix(4.17 0 0 4.17 233.33 154.17)" id="surface1"  >
<path style="stroke: none; stroke-width: 1; stroke-dasharray: none; stroke-linecap: butt; stroke-dashoffset: 0; stroke-linejoin: miter; stroke-miterlimit: 4; fill: rgb(68,138,255); fill-rule: nonzero; opacity: 1;"  transform=" translate(-32, -13)" d="M 36.792969 6.917969 C 37 6.625 38.609375 6 39 6 C 31 6 25 17 25 19 C 25 19.5 25 19.8125 25 20 C 25 20 32.800781 20 36 20 C 36 19.363281 36 18.636719 36 18 C 36 18 37.5 14.417969 36.792969 6.917969 Z" stroke-linecap="round" />
</g>
<g transform="matrix(4.17 0 0 4.17 167.01 154.17)" id="surface1"  >
<path style="stroke: none; stroke-width: 1; stroke-dasharray: none; stroke-linecap: butt; stroke-dashoffset: 0; stroke-linejoin: miter; stroke-miterlimit: 4; fill: rgb(68,138,255); fill-rule: nonzero; opacity: 1;"  transform=" translate(-16.08, -13)" d="M 11.289063 6.917969 C 11.082031 6.625 9.472656 6 9.082031 6 C 17.082031 6 23.082031 17 23.082031 19 C 23.082031 19.5 23.082031 19.8125 23.082031 20 C 23.082031 20 15.28125 20 12.082031 20 C 12.082031 19.363281 12.082031 18.636719 12.082031 18 C 12.082031 18 10.582031 14.417969 11.289063 6.917969 Z" stroke-linecap="round" />
</g>
<g transform="matrix(4.17 0 0 4.17 264.75 154.17)" id="surface1"  >
<path style="stroke: none; stroke-width: 1; stroke-dasharray: none; stroke-linecap: butt; stroke-dashoffset: 0; stroke-linejoin: miter; stroke-miterlimit: 4; fill: rgb(38,50,56); fill-rule: nonzero; opacity: 1;"  transform=" translate(-39.54, -13)" d="M 39 6 C 38.609375 6 37 6.625 36.792969 6.917969 C 37.5 14.417969 36 18 36 18 C 36 18.636719 36 19.363281 36 20 C 36.421875 20 36.765625 20 37 20 C 40 20 40 18 40 18 C 40 18 40.417969 13.292969 41.417969 11.292969 C 42.582031 8.960938 43 8 43 8 C 43 8 44 6 39 6 Z" stroke-linecap="round" />
</g>
<g transform="matrix(4.17 0 0 4.17 135.59 154.17)" id="surface1"  >
<path style="stroke: none; stroke-width: 1; stroke-dasharray: none; stroke-linecap: butt; stroke-dashoffset: 0; stroke-linejoin: miter; stroke-miterlimit: 4; fill: rgb(38,50,56); fill-rule: nonzero; opacity: 1;"  transform=" translate(-8.54, -13)" d="M 9.082031 6 C 9.472656 6 11.082031 6.625 11.289063 6.917969 C 10.582031 14.417969 12.082031 18 12.082031 18 C 12.082031 18.636719 12.082031 19.363281 12.082031 20 C 11.660156 20 11.316406 20 11.082031 20 C 8.082031 20 8.082031 18 8.082031 18 C 8.082031 18 7.664063 13.292969 6.664063 11.292969 C 5.5 8.960938 5.082031 8 5.082031 8 C 5.082031 8 4.082031 6 9.082031 6 Z" stroke-linecap="round" />
</g>
<g transform="matrix(4.17 0 0 4.17 251.82 180.8)" id="surface1"  >
<path style="stroke: none; stroke-width: 1; stroke-dasharray: none; stroke-linecap: butt; stroke-dashoffset: 0; stroke-linejoin: miter; stroke-miterlimit: 4; fill: rgb(69,90,100); fill-rule: nonzero; opacity: 1;"  transform=" translate(-36.44, -19.39)" d="M 33.25 19.042969 C 33.855469 18.746094 34.394531 18.613281 34.921875 18.515625 C 35.445313 18.421875 35.953125 18.386719 36.453125 18.394531 C 36.957031 18.398438 37.453125 18.449219 37.964844 18.542969 C 38.480469 18.648438 39.003906 18.773438 39.625 19.042969 C 39.214844 19.585938 38.675781 19.894531 38.125 20.105469 C 37.574219 20.3125 36.996094 20.402344 36.425781 20.390625 C 35.855469 20.382813 35.292969 20.277344 34.753906 20.070313 C 34.214844 19.851563 33.6875 19.5625 33.25 19.042969 Z" stroke-linecap="round" />
</g>
<g transform="matrix(4.17 0 0 4.17 252.43 170.41)" id="surface1"  >
<path style="stroke: none; stroke-width: 1; stroke-dasharray: none; stroke-linecap: butt; stroke-dashoffset: 0; stroke-linejoin: miter; stroke-miterlimit: 4; fill: rgb(69,90,100); fill-rule: nonzero; opacity: 1;"  transform=" translate(-36.58, -16.9)" d="M 33.542969 17 C 34.023438 16.355469 34.519531 16.019531 35.023438 15.769531 C 35.527344 15.53125 36.035156 15.414063 36.546875 15.398438 C 37.058594 15.386719 37.574219 15.480469 38.09375 15.695313 C 38.609375 15.921875 39.128906 16.242188 39.625 16.875 C 39.109375 17.492188 38.613281 17.816406 38.113281 18.050781 C 37.617188 18.277344 37.121094 18.390625 36.617188 18.398438 C 36.117188 18.410156 35.609375 18.320313 35.101563 18.117188 C 34.589844 17.902344 34.074219 17.597656 33.542969 17 Z" stroke-linecap="round" />
</g>
<g transform="matrix(4.17 0 0 4.17 253.91 157.68)" id="surface1"  >
<path style="stroke: none; stroke-width: 1; stroke-dasharray: none; stroke-linecap: butt; stroke-dashoffset: 0; stroke-linejoin: miter; stroke-miterlimit: 4; fill: rgb(69,90,100); fill-rule: nonzero; opacity: 1;"  transform=" translate(-36.94, -13.84)" d="M 33.667969 15 C 33.976563 14.214844 34.410156 13.707031 34.878906 13.289063 C 35.351563 12.886719 35.871094 12.597656 36.429688 12.410156 C 36.988281 12.226563 37.585938 12.144531 38.21875 12.195313 C 38.851563 12.257813 39.523438 12.417969 40.210938 12.917969 C 39.773438 13.640625 39.335938 14.089844 38.863281 14.464844 C 38.394531 14.824219 37.898438 15.089844 37.367188 15.261719 C 36.839844 15.433594 36.277344 15.519531 35.675781 15.503906 C 35.066406 15.476563 34.425781 15.367188 33.667969 15 Z" stroke-linecap="round" />
</g>
<g transform="matrix(4.17 0 0 4.17 256.34 144.57)" id="surface1"  >
<path style="stroke: none; stroke-width: 1; stroke-dasharray: none; stroke-linecap: butt; stroke-dashoffset: 0; stroke-linejoin: miter; stroke-miterlimit: 4; fill: rgb(69,90,100); fill-rule: nonzero; opacity: 1;"  transform=" translate(-37.52, -10.7)" d="M 34 12 C 34.355469 11.195313 34.828125 10.671875 35.335938 10.234375 C 35.847656 9.808594 36.402344 9.496094 36.992188 9.28125 C 37.585938 9.066406 38.21875 8.953125 38.886719 8.960938 C 39.558594 8.976563 40.261719 9.085938 41.042969 9.5 C 40.632813 10.277344 40.152344 10.777344 39.644531 11.191406 C 39.132813 11.597656 38.585938 11.898438 38.007813 12.101563 C 37.425781 12.308594 36.8125 12.425781 36.15625 12.433594 C 35.496094 12.4375 34.804688 12.351563 34 12 Z" stroke-linecap="round" />
</g>
<g transform="matrix(4.17 0 0 4.17 256.25 133.25)" id="surface1"  >
<path style="stroke: none; stroke-width: 1; stroke-dasharray: none; stroke-linecap: butt; stroke-dashoffset: 0; stroke-linejoin: miter; stroke-miterlimit: 4; fill: rgb(69,90,100); fill-rule: nonzero; opacity: 1;"  transform=" translate(-37.5, -7.98)" d="M 33 10 C 33.234375 8.996094 33.8125 8.25 34.46875 7.636719 C 35.136719 7.03125 35.921875 6.585938 36.765625 6.300781 C 37.609375 6.015625 38.515625 5.90625 39.410156 5.988281 C 40.308594 6.089844 41.203125 6.359375 42 7 C 41.183594 7.609375 40.464844 7.984375 39.765625 8.320313 C 39.070313 8.652344 38.398438 8.917969 37.714844 9.144531 C 37.027344 9.371094 36.328125 9.558594 35.570313 9.710938 C 34.804688 9.859375 34.007813 9.972656 33 10 Z" stroke-linecap="round" />
</g>
<g transform="matrix(4.17 0 0 4.17 148.52 180.8)" id="surface1"  >
<path style="stroke: none; stroke-width: 1; stroke-dasharray: none; stroke-linecap: butt; stroke-dashoffset: 0; stroke-linejoin: miter; stroke-miterlimit: 4; fill: rgb(69,90,100); fill-rule: nonzero; opacity: 1;"  transform=" translate(-11.64, -19.39)" d="M 14.832031 19.042969 C 14.394531 19.5625 13.867188 19.851563 13.328125 20.070313 C 12.789063 20.277344 12.226563 20.382813 11.65625 20.390625 C 11.085938 20.402344 10.507813 20.3125 9.957031 20.105469 C 9.40625 19.890625 8.867188 19.585938 8.457031 19.042969 C 9.078125 18.773438 9.601563 18.648438 10.117188 18.542969 C 10.628906 18.449219 11.125 18.398438 11.628906 18.394531 C 12.128906 18.386719 12.636719 18.421875 13.160156 18.515625 C 13.6875 18.613281 14.226563 18.746094 14.832031 19.042969 Z" stroke-linecap="round" />
</g>
<g transform="matrix(4.17 0 0 4.17 147.9 170.41)" id="surface1"  >
<path style="stroke: none; stroke-width: 1; stroke-dasharray: none; stroke-linecap: butt; stroke-dashoffset: 0; stroke-linejoin: miter; stroke-miterlimit: 4; fill: rgb(69,90,100); fill-rule: nonzero; opacity: 1;"  transform=" translate(-11.5, -16.9)" d="M 14.539063 17 C 14.007813 17.597656 13.492188 17.902344 12.980469 18.117188 C 12.46875 18.320313 11.964844 18.40625 11.460938 18.398438 C 10.960938 18.386719 10.460938 18.277344 9.964844 18.050781 C 9.464844 17.8125 8.972656 17.488281 8.453125 16.875 C 8.953125 16.242188 9.472656 15.917969 9.988281 15.691406 C 10.503906 15.476563 11.019531 15.382813 11.535156 15.398438 C 12.046875 15.414063 12.554688 15.53125 13.058594 15.765625 C 13.5625 16.019531 14.058594 16.355469 14.539063 17 Z" stroke-linecap="round" />
</g>
<g transform="matrix(4.17 0 0 4.17 146.43 157.68)" id="surface1"  >
<path style="stroke: none; stroke-width: 1; stroke-dasharray: none; stroke-linecap: butt; stroke-dashoffset: 0; stroke-linejoin: miter; stroke-miterlimit: 4; fill: rgb(69,90,100); fill-rule: nonzero; opacity: 1;"  transform=" translate(-11.14, -13.84)" d="M 14.414063 15 C 13.65625 15.367188 13.015625 15.476563 12.40625 15.503906 C 11.804688 15.519531 11.242188 15.433594 10.714844 15.261719 C 10.183594 15.089844 9.6875 14.824219 9.21875 14.464844 C 8.746094 14.089844 8.308594 13.640625 7.871094 12.917969 C 8.5625 12.417969 9.230469 12.257813 9.863281 12.195313 C 10.496094 12.144531 11.09375 12.226563 11.652344 12.410156 C 12.210938 12.597656 12.730469 12.886719 13.203125 13.289063 C 13.671875 13.707031 14.105469 14.214844 14.414063 15 Z" stroke-linecap="round" />
</g>
<g transform="matrix(4.17 0 0 4.17 144 144.58)" id="surface1"  >
<path style="stroke: none; stroke-width: 1; stroke-dasharray: none; stroke-linecap: butt; stroke-dashoffset: 0; stroke-linejoin: miter; stroke-miterlimit: 4; fill: rgb(69,90,100); fill-rule: nonzero; opacity: 1;"  transform=" translate(-10.56, -10.7)" d="M 14.082031 12 C 13.277344 12.351563 12.585938 12.4375 11.925781 12.4375 C 11.269531 12.425781 10.65625 12.3125 10.074219 12.105469 C 9.496094 11.898438 8.949219 11.597656 8.4375 11.195313 C 7.929688 10.777344 7.449219 10.277344 7.039063 9.5 C 7.820313 9.085938 8.523438 8.976563 9.195313 8.960938 C 9.863281 8.953125 10.496094 9.066406 11.089844 9.28125 C 11.679688 9.496094 12.234375 9.808594 12.746094 10.234375 C 13.253906 10.671875 13.726563 11.195313 14.082031 12 Z" stroke-linecap="round" />
</g>
<g transform="matrix(4.17 0 0 4.17 144.09 133.25)" id="surface1"  >
<path style="stroke: none; stroke-width: 1; stroke-dasharray: none; stroke-linecap: butt; stroke-dashoffset: 0; stroke-linejoin: miter; stroke-miterlimit: 4; fill: rgb(69,90,100); fill-rule: nonzero; opacity: 1;"  transform=" translate(-10.58, -7.98)" d="M 15.082031 10 C 14.074219 9.972656 13.277344 9.859375 12.511719 9.714844 C 11.753906 9.5625 11.054688 9.371094 10.367188 9.148438 C 9.683594 8.917969 9.011719 8.652344 8.316406 8.320313 C 7.617188 7.984375 6.898438 7.609375 6.082031 7 C 6.878906 6.359375 7.773438 6.089844 8.671875 5.988281 C 9.566406 5.90625 10.472656 6.015625 11.316406 6.300781 C 12.160156 6.585938 12.945313 7.03125 13.613281 7.636719 C 14.269531 8.25 14.847656 8.996094 15.082031 10 Z" stroke-linecap="round" />
</g>
<g transform="matrix(4.17 0 0 4.17 155.02 217.09)" id="surface1"  >
<path style="stroke: none; stroke-width: 1; stroke-dasharray: none; stroke-linecap: butt; stroke-dashoffset: 0; stroke-linejoin: miter; stroke-miterlimit: 4; fill: rgb(55,71,79); fill-rule: nonzero; opacity: 1;"  transform=" translate(-13.21, -28.1)" d="M 14.082031 32 C 14.082031 32 11.082031 30 11.082031 25 C 11.082031 20 17.082031 20 17.082031 20 L 13.082031 20 C 13.082031 20 9.082031 20 9.082031 25 C 9.082031 30 12.082031 34 12.082031 34 C 12.082031 34 14.082031 37 16.082031 36 C 16.339844 35.871094 16.785156 35.25 17.328125 34.339844 C 16.773438 35.230469 14.082031 32 14.082031 32 Z" stroke-linecap="round" />
</g>
<g transform="matrix(4.17 0 0 4.17 245.32 217.09)" id="surface1"  >
<path style="stroke: none; stroke-width: 1; stroke-dasharray: none; stroke-linecap: butt; stroke-dashoffset: 0; stroke-linejoin: miter; stroke-miterlimit: 4; fill: rgb(55,71,79); fill-rule: nonzero; opacity: 1;"  transform=" translate(-34.88, -28.1)" d="M 35 20 L 31 20 C 31 20 37 20 37 25 C 37 30 34 32 34 32 C 34 32 31.308594 35.230469 30.753906 34.339844 C 31.296875 35.25 31.742188 35.871094 32 36 C 34 37 36 34 36 34 C 36 34 39 30 39 25 C 39 20 35 20 35 20 Z" stroke-linecap="round" />
</g>
<g transform="matrix(4.17 0 0 4.17 268.05 263.45)" id="surface1"  >
<path style="stroke: none; stroke-width: 1; stroke-dasharray: none; stroke-linecap: butt; stroke-dashoffset: 0; stroke-linejoin: miter; stroke-miterlimit: 4; fill: rgb(55,71,79); fill-rule: nonzero; opacity: 1;"  transform=" translate(-40.33, -39.23)" d="M 41.5625 38.4375 C 42.164063 39.007813 42.148438 39.972656 41.5625 40.558594 C 40.976563 41.144531 40.019531 41.152344 39.441406 40.558594 C 38.796875 39.90625 38.65625 37.453125 38.65625 37.453125 C 38.65625 37.453125 40.828125 37.75 41.5625 38.4375 Z" stroke-linecap="round" />
</g>
<g transform="matrix(4.17 0 0 4.17 256.06 247.51)" id="surface1"  >
<path style="stroke: none; stroke-width: 1; stroke-dasharray: none; stroke-linecap: butt; stroke-dashoffset: 0; stroke-linejoin: miter; stroke-miterlimit: 4; fill: rgb(55,71,79); fill-rule: nonzero; opacity: 1;"  transform=" translate(-37.46, -35.4)" d="M 39 39.640625 C 38.421875 37.609375 35.25 35.109375 33.890625 35.9375 C 33.03125 36.171875 37.71875 29.875 37.5 31.390625 C 36.3125 33.546875 39.4375 37.359375 41.125 38.15625 C 40.953125 38.625 39.59375 39.75 39 39.640625 Z" stroke-linecap="round" />
</g>
<g transform="matrix(4.17 0 0 4.17 253.13 210.56)" id="surface1"  >
<path style="stroke: none; stroke-width: 1; stroke-dasharray: none; stroke-linecap: butt; stroke-dashoffset: 0; stroke-linejoin: miter; stroke-miterlimit: 4; fill: rgb(55,71,79); fill-rule: nonzero; opacity: 1;"  transform=" translate(-36.75, -26.54)" d="M 35 26 C 35.421875 25.4375 35.863281 25.214844 36.289063 25.109375 C 36.714844 25.019531 37.140625 25.082031 37.519531 25.289063 C 37.898438 25.496094 38.246094 25.867188 38.414063 26.375 C 38.578125 26.871094 38.542969 27.542969 38 28 C 37.3125 27.839844 36.953125 27.9375 36.683594 27.976563 C 36.421875 28.015625 36.242188 28.015625 36.070313 27.914063 C 35.898438 27.816406 35.730469 27.632813 35.554688 27.34375 C 35.378906 27.042969 35.207031 26.660156 35 26 Z" stroke-linecap="round" />
</g>
<g transform="matrix(4.17 0 0 4.17 249.26 221.82)" id="surface1"  >
<path style="stroke: none; stroke-width: 1; stroke-dasharray: none; stroke-linecap: butt; stroke-dashoffset: 0; stroke-linejoin: miter; stroke-miterlimit: 4; fill: rgb(55,71,79); fill-rule: nonzero; opacity: 1;"  transform=" translate(-35.82, -29.24)" d="M 34 28 C 34.644531 27.675781 35.140625 27.617188 35.582031 27.636719 C 36.019531 27.664063 36.394531 27.796875 36.707031 28.019531 C 37.023438 28.242188 37.277344 28.558594 37.453125 28.972656 C 37.613281 29.398438 37.734375 29.914063 37.5625 30.625 C 36.867188 30.816406 36.414063 30.863281 35.996094 30.828125 C 35.589844 30.789063 35.25 30.667969 34.964844 30.460938 C 34.679688 30.253906 34.441406 29.96875 34.269531 29.582031 C 34.097656 29.1875 33.976563 28.722656 34 28 Z" stroke-linecap="round" />
</g>
<g transform="matrix(4.17 0 0 4.17 243.37 232.68)" id="surface1"  >
<path style="stroke: none; stroke-width: 1; stroke-dasharray: none; stroke-linecap: butt; stroke-dashoffset: 0; stroke-linejoin: miter; stroke-miterlimit: 4; fill: rgb(55,71,79); fill-rule: nonzero; opacity: 1;"  transform=" translate(-34.41, -31.84)" d="M 33 30 C 33.726563 29.929688 34.21875 30.042969 34.636719 30.210938 C 35.046875 30.382813 35.363281 30.628906 35.597656 30.933594 C 35.835938 31.242188 35.988281 31.609375 36.046875 32.050781 C 36.097656 32.496094 36.074219 33 35.8125 33.6875 C 35.082031 33.757813 34.589844 33.648438 34.171875 33.480469 C 33.761719 33.308594 33.445313 33.0625 33.214844 32.753906 C 32.980469 32.445313 32.828125 32.074219 32.769531 31.636719 C 32.71875 31.1875 32.742188 30.683594 33 30 Z" stroke-linecap="round" />
</g>
<g transform="matrix(4.17 0 0 4.17 233.78 238.36)" id="surface1"  >
<path style="stroke: none; stroke-width: 1; stroke-dasharray: none; stroke-linecap: butt; stroke-dashoffset: 0; stroke-linejoin: miter; stroke-miterlimit: 4; fill: rgb(55,71,79); fill-rule: nonzero; opacity: 1;"  transform=" translate(-32.11, -33.21)" d="M 31 31 C 31.664063 31.355469 32.074219 31.613281 32.414063 31.863281 C 32.746094 32.113281 32.976563 32.335938 33.148438 32.574219 C 33.324219 32.816406 33.429688 33.082031 33.546875 33.445313 L 34 35 C 33.382813 35.445313 32.71875 35.488281 32.128906 35.328125 C 31.539063 35.164063 31.03125 34.785156 30.699219 34.308594 C 30.363281 33.832031 30.195313 33.265625 30.214844 32.691406 C 30.246094 32.117188 30.433594 31.519531 31 31 Z" stroke-linecap="round" />
</g>
<g transform="matrix(4.17 0 0 4.17 132.29 263.45)" id="surface1"  >
<path style="stroke: none; stroke-width: 1; stroke-dasharray: none; stroke-linecap: butt; stroke-dashoffset: 0; stroke-linejoin: miter; stroke-miterlimit: 4; fill: rgb(55,71,79); fill-rule: nonzero; opacity: 1;"  transform=" translate(-7.75, -39.23)" d="M 6.519531 38.4375 C 5.917969 39.007813 5.933594 39.972656 6.519531 40.558594 C 7.105469 41.144531 8.0625 41.152344 8.640625 40.558594 C 9.285156 39.90625 9.425781 37.453125 9.425781 37.453125 C 9.425781 37.453125 7.253906 37.75 6.519531 38.4375 Z" stroke-linecap="round" />
</g>
<g transform="matrix(4.17 0 0 4.17 144.28 247.51)" id="surface1"  >
<path style="stroke: none; stroke-width: 1; stroke-dasharray: none; stroke-linecap: butt; stroke-dashoffset: 0; stroke-linejoin: miter; stroke-miterlimit: 4; fill: rgb(55,71,79); fill-rule: nonzero; opacity: 1;"  transform=" translate(-10.63, -35.4)" d="M 9.082031 39.640625 C 9.660156 37.609375 12.832031 35.109375 14.191406 35.9375 C 15.050781 36.171875 10.363281 29.875 10.582031 31.390625 C 11.769531 33.546875 8.644531 37.359375 6.957031 38.15625 C 7.128906 38.625 8.488281 39.75 9.082031 39.640625 Z" stroke-linecap="round" />
</g>
<g transform="matrix(4.17 0 0 4.17 147.21 210.56)" id="surface1"  >
<path style="stroke: none; stroke-width: 1; stroke-dasharray: none; stroke-linecap: butt; stroke-dashoffset: 0; stroke-linejoin: miter; stroke-miterlimit: 4; fill: rgb(55,71,79); fill-rule: nonzero; opacity: 1;"  transform=" translate(-11.33, -26.54)" d="M 13.082031 26 C 12.875 26.660156 12.703125 27.042969 12.527344 27.34375 C 12.351563 27.632813 12.1875 27.816406 12.011719 27.914063 C 11.839844 28.015625 11.660156 28.015625 11.398438 27.976563 C 11.128906 27.941406 10.773438 27.839844 10.082031 28 C 9.539063 27.542969 9.503906 26.871094 9.664063 26.375 C 9.835938 25.867188 10.183594 25.496094 10.5625 25.289063 C 10.941406 25.082031 11.367188 25.019531 11.792969 25.109375 C 12.21875 25.214844 12.660156 25.4375 13.082031 26 Z" stroke-linecap="round" />
</g>
<g transform="matrix(4.17 0 0 4.17 151.08 221.82)" id="surface1"  >
<path style="stroke: none; stroke-width: 1; stroke-dasharray: none; stroke-linecap: butt; stroke-dashoffset: 0; stroke-linejoin: miter; stroke-miterlimit: 4; fill: rgb(55,71,79); fill-rule: nonzero; opacity: 1;"  transform=" translate(-12.26, -29.24)" d="M 14.082031 28 C 14.105469 28.722656 13.984375 29.1875 13.8125 29.582031 C 13.636719 29.96875 13.402344 30.253906 13.117188 30.460938 C 12.832031 30.667969 12.492188 30.789063 12.085938 30.828125 C 11.667969 30.863281 11.214844 30.816406 10.519531 30.625 C 10.347656 29.914063 10.46875 29.394531 10.628906 28.972656 C 10.804688 28.558594 11.058594 28.242188 11.375 28.019531 C 11.6875 27.796875 12.0625 27.664063 12.5 27.636719 C 12.941406 27.617188 13.4375 27.675781 14.082031 28 Z" stroke-linecap="round" />
</g>
<g transform="matrix(4.17 0 0 4.17 156.97 232.68)" id="surface1"  >
<path style="stroke: none; stroke-width: 1; stroke-dasharray: none; stroke-linecap: butt; stroke-dashoffset: 0; stroke-linejoin: miter; stroke-miterlimit: 4; fill: rgb(55,71,79); fill-rule: nonzero; opacity: 1;"  transform=" translate(-13.67, -31.84)" d="M 15.082031 30 C 15.339844 30.683594 15.363281 31.1875 15.3125 31.636719 C 15.253906 32.074219 15.101563 32.445313 14.867188 32.753906 C 14.636719 33.0625 14.320313 33.308594 13.910156 33.480469 C 13.492188 33.648438 13 33.757813 12.269531 33.6875 C 12.007813 33 11.984375 32.5 12.035156 32.050781 C 12.09375 31.609375 12.246094 31.238281 12.484375 30.933594 C 12.71875 30.628906 13.035156 30.382813 13.445313 30.210938 C 13.863281 30.042969 14.355469 29.929688 15.082031 30 Z" stroke-linecap="round" />
</g>
<g transform="matrix(4.17 0 0 4.17 166.56 238.36)" id="surface1"  >
<path style="stroke: none; stroke-width: 1; stroke-dasharray: none; stroke-linecap: butt; stroke-dashoffset: 0; stroke-linejoin: miter; stroke-miterlimit: 4; fill: rgb(55,71,79); fill-rule: nonzero; opacity: 1;"  transform=" translate(-15.98, -33.21)" d="M 17.082031 31 C 17.648438 31.519531 17.835938 32.117188 17.867188 32.691406 C 17.886719 33.261719 17.71875 33.832031 17.382813 34.308594 C 17.050781 34.785156 16.542969 35.164063 15.953125 35.328125 C 15.363281 35.488281 14.703125 35.445313 14.082031 35 L 14.535156 33.445313 C 14.652344 33.082031 14.757813 32.816406 14.933594 32.574219 C 15.105469 32.335938 15.339844 32.113281 15.667969 31.863281 C 16.007813 31.613281 16.417969 31.355469 17.082031 31 Z" stroke-linecap="round" />
</g>
<g transform="matrix(4.17 0 0 4.17 241.41 194.4)" id="surface1"  >
<path style="stroke: none; stroke-width: 1; stroke-dasharray: none; stroke-linecap: butt; stroke-dashoffset: 0; stroke-linejoin: miter; stroke-miterlimit: 4; fill: rgb(55,71,79); fill-rule: nonzero; opacity: 1;"  transform=" translate(-33.94, -22.66)" d="M 34.960938 21.109375 C 34.269531 20.652344 33.507813 20.3125 32.6875 20.097656 C 32.53125 20.058594 32.375 20.03125 32.214844 20 L 30 20 C 30.441406 20.902344 30.964844 21.554688 31.523438 22.140625 C 32.085938 22.714844 32.679688 23.195313 33.316406 23.617188 C 33.949219 24.035156 34.625 24.386719 35.355469 24.675781 C 36.097656 24.960938 36.871094 25.199219 37.875 25.3125 C 37.75 24.308594 37.316406 23.507813 36.804688 22.8125 C 36.28125 22.128906 35.65625 21.5625 34.960938 21.109375 Z" stroke-linecap="round" />
</g>
<g transform="matrix(4.17 0 0 4.17 158.94 194.4)" id="surface1"  >
<path style="stroke: none; stroke-width: 1; stroke-dasharray: none; stroke-linecap: butt; stroke-dashoffset: 0; stroke-linejoin: miter; stroke-miterlimit: 4; fill: rgb(55,71,79); fill-rule: nonzero; opacity: 1;"  transform=" translate(-14.14, -22.66)" d="M 15.394531 20.097656 C 14.574219 20.3125 13.8125 20.65625 13.121094 21.109375 C 12.425781 21.5625 11.800781 22.128906 11.277344 22.816406 C 10.765625 23.507813 10.332031 24.308594 10.207031 25.3125 C 11.210938 25.199219 11.984375 24.960938 12.726563 24.675781 C 13.457031 24.386719 14.132813 24.035156 14.765625 23.617188 C 15.402344 23.199219 15.996094 22.714844 16.558594 22.140625 C 17.117188 21.554688 17.644531 20.90625 18.082031 20 L 15.867188 20 C 15.707031 20.03125 15.550781 20.058594 15.394531 20.097656 Z" stroke-linecap="round" />
</g>
</svg>