<?xml version="1.0" encoding="UTF-8" standalone="no" ?>
<!DOCTYPE svg PUBLIC "-//W3C//DTD SVG 1.1//EN" "http://www.w3.org/Graphics/SVG/1.1/DTD/svg11.dtd">
<svg xmlns="http://www.w3.org/2000/svg" xmlns:xlink="http://www.w3.org/1999/xlink" version="1.1" width="400" height="400" viewBox="0 0 400 400" xml:space="preserve">
<desc>Created with Fabric.js 3.6.2</desc>
<defs>
</defs>
<g transform="matrix(3.13 0 0 3.13 200 171.88)" id="cooker_x5F_hood"  >
<rect style="stroke: none; stroke-width: 1; stroke-dasharray: none; stroke-linecap: butt; stroke-dashoffset: 0; stroke-linejoin: miter; stroke-miterlimit: 4; fill: rgb(144,164,174); fill-rule: nonzero; opacity: 1;"  x="-13" y="-21" rx="0" ry="0" width="26" height="42" />
</g>
<g transform="matrix(3.13 0 0 3.13 200 231.25)" id="cooker_x5F_hood"  >
<path style="stroke: none; stroke-width: 1; stroke-dasharray: none; stroke-linecap: butt; stroke-dashoffset: 0; stroke-linejoin: miter; stroke-miterlimit: 4; fill: rgb(176,190,197); fill-rule: nonzero; opacity: 1;"  transform=" translate(-32, -42)" d="M 60 49.9 L 45 33 H 19 L 4 49.9 c -0.3 0.3 -0.5 0.7 -0.7 1.1 h 57.4 C 60.5 50.6 60.3 50.2 60 49.9 z" stroke-linecap="round" />
</g>
<g transform="matrix(3.13 0 0 3.13 200 271.88)" id="cooker_x5F_hood"  >
<path style="stroke: none; stroke-width: 1; stroke-dasharray: none; stroke-linecap: butt; stroke-dashoffset: 0; stroke-linejoin: miter; stroke-miterlimit: 4; fill: rgb(120,144,156); fill-rule: nonzero; opacity: 1;"  transform=" translate(-32, -55)" d="M 3.3 51 C 3.1 51.5 3 52 3 52.5 V 58 c 0 0.6 0.4 1 1 1 h 56 c 0.6 0 1 -0.4 1 -1 v -5.5 c 0 -0.5 -0.1 -1 -0.3 -1.5 H 3.3 z" stroke-linecap="round" />
</g>
<g transform="matrix(3.13 0 0 3.13 200 271.88)" id="cooker_x5F_hood"  >
<rect style="stroke: none; stroke-width: 1; stroke-dasharray: none; stroke-linecap: butt; stroke-dashoffset: 0; stroke-linejoin: miter; stroke-miterlimit: 4; fill: rgb(175,180,43); fill-rule: nonzero; opacity: 1;"  x="-9" y="-2" rx="0" ry="0" width="18" height="4" />
</g>
<g transform="matrix(3.13 0 0 3.13 240.63 271.88)" id="cooker_x5F_hood"  >
<circle style="stroke: none; stroke-width: 1; stroke-dasharray: none; stroke-linecap: butt; stroke-dashoffset: 0; stroke-linejoin: miter; stroke-miterlimit: 4; fill: rgb(236,239,241); fill-rule: nonzero; opacity: 1;"  cx="0" cy="0" r="1" />
</g>
<g transform="matrix(3.13 0 0 3.13 253.13 271.88)" id="cooker_x5F_hood"  >
<circle style="stroke: none; stroke-width: 1; stroke-dasharray: none; stroke-linecap: butt; stroke-dashoffset: 0; stroke-linejoin: miter; stroke-miterlimit: 4; fill: rgb(236,239,241); fill-rule: nonzero; opacity: 1;"  cx="0" cy="0" r="1" />
</g>
</svg>