<?xml version="1.0" encoding="UTF-8" standalone="no" ?>
<!DOCTYPE svg PUBLIC "-//W3C//DTD SVG 1.1//EN" "http://www.w3.org/Graphics/SVG/1.1/DTD/svg11.dtd">
<svg xmlns="http://www.w3.org/2000/svg" xmlns:xlink="http://www.w3.org/1999/xlink" version="1.1" width="400" height="400" viewBox="0 0 400 400" xml:space="preserve">
<desc>Created with Fabric.js 3.6.2</desc>
<defs>
</defs>
<g transform="matrix(3.13 0 0 3.13 200 218.75)" id="floor_x5F_lamp"  >
<rect style="stroke: none; stroke-width: 1; stroke-dasharray: none; stroke-linecap: butt; stroke-dashoffset: 0; stroke-linejoin: miter; stroke-miterlimit: 4; fill: rgb(62,39,35); fill-rule: nonzero; opacity: 1;"  x="-1" y="-22" rx="0" ry="0" width="2" height="44" />
</g>
<g transform="matrix(3.13 0 0 3.13 200 242.97)" id="floor_x5F_lamp"  >
<rect style="stroke: none; stroke-width: 1; stroke-dasharray: none; stroke-linecap: butt; stroke-dashoffset: 0; stroke-linejoin: miter; stroke-miterlimit: 4; fill: rgb(62,39,35); fill-rule: nonzero; opacity: 1;"  x="-2" y="-1.25" rx="0" ry="0" width="4" height="2.5" />
</g>
<g transform="matrix(3.13 0 0 3.13 200 189.06)" id="floor_x5F_lamp"  >
<rect style="stroke: none; stroke-width: 1; stroke-dasharray: none; stroke-linecap: butt; stroke-dashoffset: 0; stroke-linejoin: miter; stroke-miterlimit: 4; fill: rgb(93,64,55); fill-rule: nonzero; opacity: 1;"  x="-2" y="-0.5" rx="0" ry="0" width="4" height="1" />
</g>
<g transform="matrix(3.13 0 0 3.13 200 273.44)" id="floor_x5F_lamp"  >
<rect style="stroke: none; stroke-width: 1; stroke-dasharray: none; stroke-linecap: butt; stroke-dashoffset: 0; stroke-linejoin: miter; stroke-miterlimit: 4; fill: rgb(93,64,55); fill-rule: nonzero; opacity: 1;"  x="-2" y="-0.5" rx="0" ry="0" width="4" height="1" />
</g>
<g transform="matrix(3.13 0 0 3.13 200 237.5)" id="floor_x5F_lamp"  >
<rect style="stroke: none; stroke-width: 1; stroke-dasharray: none; stroke-linecap: butt; stroke-dashoffset: 0; stroke-linejoin: miter; stroke-miterlimit: 4; fill: rgb(93,64,55); fill-rule: nonzero; opacity: 1;"  x="-3" y="-0.5" rx="0" ry="0" width="6" height="1" />
</g>
<g transform="matrix(3.13 0 0 3.13 200 176.56)" id="floor_x5F_lamp"  >
<path style="stroke: none; stroke-width: 1; stroke-dasharray: none; stroke-linecap: butt; stroke-dashoffset: 0; stroke-linejoin: miter; stroke-miterlimit: 4; fill: rgb(109,76,65); fill-rule: nonzero; opacity: 1;"  transform=" translate(-32, -24.5)" d="M 34.9 23.3 C 34.2 22.5 33.1 22 32 22 s -2.2 0.5 -2.9 1.3 C 29 23.5 29 23.7 29 24 c 0 1.7 1.3 3 3 3 s 3 -1.3 3 -3 C 35 23.7 35 23.5 34.9 23.3 z" stroke-linecap="round" />
</g>
<g transform="matrix(3.13 0 0 3.13 200 259.38)" id="floor_x5F_lamp"  >
<path style="stroke: none; stroke-width: 1; stroke-dasharray: none; stroke-linecap: butt; stroke-dashoffset: 0; stroke-linejoin: miter; stroke-miterlimit: 4; fill: rgb(109,76,65); fill-rule: nonzero; opacity: 1;"  transform=" translate(-32, -51)" d="M 26 48.6 c 0 0.1 0 0.3 0 0.4 c 0 3.3 2.7 6 6 6 s 6 -2.7 6 -6 c 0 -0.1 0 -0.3 0 -0.4 c -1.8 -1 -3.8 -1.6 -6 -1.6 S 27.8 47.6 26 48.6 z" stroke-linecap="round" />
</g>
<g transform="matrix(3.13 0 0 3.13 200 287.5)" id="floor_x5F_lamp"  >
<path style="stroke: none; stroke-width: 1; stroke-dasharray: none; stroke-linecap: butt; stroke-dashoffset: 0; stroke-linejoin: miter; stroke-miterlimit: 4; fill: rgb(78,52,46); fill-rule: nonzero; opacity: 1;"  transform=" translate(-32, -60)" d="M 32 60 c 1.4 0 2.7 0.2 3.9 0.6 c 0.9 0.3 1.9 0.4 2.9 0.4 H 41 v -1 c 0 -0.6 -0.4 -1 -1 -1 H 24 c -0.6 0 -1 0.4 -1 1 v 1 h 2.2 c 1 0 1.9 -0.1 2.9 -0.4 C 29.3 60.2 30.6 60 32 60 z" stroke-linecap="round" />
</g>
<g transform="matrix(3.13 0 0 3.13 192.03 139.21)" id="floor_x5F_lamp"  >
<path style="stroke: none; stroke-width: 1; stroke-dasharray: none; stroke-linecap: butt; stroke-dashoffset: 0; stroke-linejoin: miter; stroke-miterlimit: 4; fill: rgb(255,171,145); fill-rule: nonzero; opacity: 1;"  transform=" translate(-29.45, -12.55)" d="M 27 5 c 0 5.5 -1.9 10.6 -5 14.6 c 4 0.5 9.9 0.6 14.9 0.4 C 35.7 15.2 35 10.2 35 5 H 27 z" stroke-linecap="round" />
</g>
<g transform="matrix(3.13 0 0 3.13 168.75 138.59)" id="floor_x5F_lamp"  >
<path style="stroke: none; stroke-width: 1; stroke-dasharray: none; stroke-linecap: butt; stroke-dashoffset: 0; stroke-linejoin: miter; stroke-miterlimit: 4; fill: rgb(255,204,188); fill-rule: nonzero; opacity: 1;"  transform=" translate(-22, -12.35)" d="M 26 5 c 0 6 -3.7 11.1 -9 13.1 c 0 0.7 2 1.2 5 1.6 c 3.1 -4.1 5 -9.1 5 -14.6 H 26 z" stroke-linecap="round" />
</g>
<g transform="matrix(3.13 0 0 3.13 228.13 139.06)" id="floor_x5F_lamp"  >
<path style="stroke: none; stroke-width: 1; stroke-dasharray: none; stroke-linecap: butt; stroke-dashoffset: 0; stroke-linejoin: miter; stroke-miterlimit: 4; fill: rgb(255,204,188); fill-rule: nonzero; opacity: 1;"  transform=" translate(-41, -12.5)" d="M 47 18.1 C 41.7 16 38 11 38 5 h -3 c 0 5.2 0.7 10.2 1.9 15 C 42.4 19.8 47 19.1 47 18.1 z" stroke-linecap="round" />
</g>
<g transform="matrix(3.13 0 0 3.13 200 137.5)" id="floor_x5F_lamp"  >
<path style="stroke: none; stroke-width: 1; stroke-dasharray: none; stroke-linecap: butt; stroke-dashoffset: 0; stroke-linejoin: miter; stroke-miterlimit: 4; fill: rgb(255,138,101); fill-rule: nonzero; opacity: 1;"  transform=" translate(-32, -12)" d="M 38 5 H 26 V 3 h 12 V 5 z M 47 18 c 0 0.6 -6.7 1 -15 1 s -15 -0.4 -15 -1 v 2 c 0 0.6 6.7 1 15 1 s 15 -0.4 15 -1 V 18 z" stroke-linecap="round" />
</g>
</svg>