<?xml version="1.0" encoding="UTF-8" standalone="no" ?>
<!DOCTYPE svg PUBLIC "-//W3C//DTD SVG 1.1//EN" "http://www.w3.org/Graphics/SVG/1.1/DTD/svg11.dtd">
<svg xmlns="http://www.w3.org/2000/svg" xmlns:xlink="http://www.w3.org/1999/xlink" version="1.1" width="400" height="400" viewBox="0 0 400 400" xml:space="preserve">
<desc>Created with Fabric.js 3.6.2</desc>
<defs>
</defs>
<g transform="matrix(3.13 0 0 3.13 280.16 203.88)" id="umbrella"  >
<path style="stroke: none; stroke-width: 1; stroke-dasharray: none; stroke-linecap: butt; stroke-dashoffset: 0; stroke-linejoin: miter; stroke-miterlimit: 4; fill: rgb(69,90,100); fill-rule: nonzero; opacity: 1;"  transform=" translate(-57.65, -33.24)" d="M 57.8 35.3 c -0.5 0 -0.9 -0.4 -1 -0.9 c -0.1 -0.7 -0.2 -1.4 -0.3 -2.1 c -0.1 -0.5 0.3 -1.1 0.9 -1.1 c 0.5 -0.1 1.1 0.3 1.1 0.9 c 0.1 0.7 0.2 1.4 0.3 2.2 C 58.9 34.8 58.5 35.3 57.8 35.3 C 57.9 35.3 57.8 35.3 57.8 35.3 z" stroke-linecap="round" />
</g>
<g transform="matrix(3.13 0 0 3.13 119.84 203.75)" id="umbrella"  >
<path style="stroke: none; stroke-width: 1; stroke-dasharray: none; stroke-linecap: butt; stroke-dashoffset: 0; stroke-linejoin: miter; stroke-miterlimit: 4; fill: rgb(69,90,100); fill-rule: nonzero; opacity: 1;"  transform=" translate(-6.35, -33.2)" d="M 6.2 35.3 C 6.2 35.3 6.1 35.3 6.2 35.3 c -0.6 -0.1 -1 -0.5 -1 -1.1 c 0.1 -0.7 0.2 -1.5 0.3 -2.2 c 0.1 -0.5 0.6 -0.9 1.1 -0.9 c 0.5 0.1 0.9 0.6 0.9 1.1 c -0.1 0.7 -0.2 1.4 -0.3 2.1 C 7.1 34.9 6.7 35.3 6.2 35.3 z" stroke-linecap="round" />
</g>
<g transform="matrix(3.13 0 0 3.13 162.5 208.13)" id="umbrella"  >
<path style="stroke: none; stroke-width: 1; stroke-dasharray: none; stroke-linecap: butt; stroke-dashoffset: 0; stroke-linejoin: miter; stroke-miterlimit: 4; fill: rgb(69,90,100); fill-rule: nonzero; opacity: 1;"  transform=" translate(-20, -34.6)" d="M 20 36.6 C 20 36.6 20 36.6 20 36.6 c -0.6 0 -1 -0.5 -1 -1 c 0 -0.6 0 -1.1 0 -1.7 l 0 -0.3 c 0 -0.6 0.4 -1 1 -1 c 0.6 0 1 0.5 1 1 l 0 0.3 c 0 0.5 0 1.1 0 1.6 C 21 36.2 20.6 36.6 20 36.6 z" stroke-linecap="round" />
</g>
<g transform="matrix(3.13 0 0 3.13 237.5 208.28)" id="umbrella"  >
<path style="stroke: none; stroke-width: 1; stroke-dasharray: none; stroke-linecap: butt; stroke-dashoffset: 0; stroke-linejoin: miter; stroke-miterlimit: 4; fill: rgb(69,90,100); fill-rule: nonzero; opacity: 1;"  transform=" translate(-44, -34.65)" d="M 44 36.6 c -0.5 0 -1 -0.4 -1 -1 c 0 -0.5 0 -1.1 0 -1.6 l 0 -0.3 c 0 -0.6 0.4 -1 1 -1 c 0.6 0 1 0.4 1 1 l 0 0.2 c 0 0.6 0 1.1 0 1.7 C 45 36.2 44.5 36.6 44 36.6 C 44 36.6 44 36.6 44 36.6 z" stroke-linecap="round" />
</g>
<g transform="matrix(3.13 0 0 3.13 200 228.13)" id="umbrella"  >
<rect style="stroke: none; stroke-width: 1; stroke-dasharray: none; stroke-linecap: butt; stroke-dashoffset: 0; stroke-linejoin: miter; stroke-miterlimit: 4; fill: rgb(176,190,197); fill-rule: nonzero; opacity: 1;"  x="-1" y="-11" rx="0" ry="0" width="2" height="22" />
</g>
<g transform="matrix(3.13 0 0 3.13 190.72 273.91)" id="umbrella"  >
<path style="stroke: none; stroke-width: 1; stroke-dasharray: none; stroke-linecap: butt; stroke-dashoffset: 0; stroke-linejoin: miter; stroke-miterlimit: 4; fill: rgb(33,150,243); fill-rule: nonzero; opacity: 1;"  transform=" translate(-29.03, -55.65)" d="M 27.6 54.6 c 0.3 0.3 0.5 0.8 0.4 1.3 c 0 0.3 0 0.6 0.3 0.9 c 0.4 0.4 1 0.4 1.4 0 c 0.2 -0.2 0.3 -0.4 0.3 -0.7 c 0 -1.1 0 -3.6 0 -5 c 0 -0.6 0.4 -1 1 -1 h 2 c 0.6 0 1 0.4 1 1 v 5 c 0 1.3 -0.5 2.6 -1.5 3.6 c -1 1 -2.3 1.5 -3.5 1.5 s -2.6 -0.5 -3.5 -1.5 c -1.4 -1.4 -1.8 -3.5 -1.1 -5.3 c 0.4 -1 1.7 -1.3 2.5 -0.5 L 27.6 54.6 z" stroke-linecap="round" />
</g>
<g transform="matrix(3.13 0 0 3.13 241.41 161.41)" id="umbrella"  >
<path style="stroke: none; stroke-width: 1; stroke-dasharray: none; stroke-linecap: butt; stroke-dashoffset: 0; stroke-linejoin: miter; stroke-miterlimit: 4; fill: rgb(3,155,229); fill-rule: nonzero; opacity: 1;"  transform=" translate(-45.25, -19.65)" d="M 32 5.6 c 3.6 0.3 7.1 1 10.4 2.1 c 4.1 1.4 7.7 4.1 10 7.8 c 3.1 4.9 5.2 10.5 6.1 16.6 c -4.9 0.2 -9.8 0.7 -14.6 1.6 c -0.2 -6.9 -1.4 -13.7 -3.5 -20.3 c -0.8 -2.4 -2.4 -4.4 -4.5 -5.6 C 34.6 7 33.3 6.3 32 5.6 z" stroke-linecap="round" />
</g>
<g transform="matrix(3.13 0 0 3.13 158.28 161.41)" id="umbrella"  >
<path style="stroke: none; stroke-width: 1; stroke-dasharray: none; stroke-linecap: butt; stroke-dashoffset: 0; stroke-linejoin: miter; stroke-miterlimit: 4; fill: rgb(79,195,247); fill-rule: nonzero; opacity: 1;"  transform=" translate(-18.65, -19.65)" d="M 31.9 5.6 c -3.6 0.3 -7.1 1 -10.4 2.1 c -4.1 1.4 -7.7 4.1 -10 7.8 C 8.4 20.4 6.3 26 5.4 32.1 c 4.9 0.2 9.8 0.7 14.6 1.6 c 0.2 -6.9 1.4 -13.7 3.5 -20.4 c 0.8 -2.4 2.4 -4.4 4.5 -5.6 C 29.3 6.9 30.6 6.3 31.9 5.6 z" stroke-linecap="round" />
</g>
<g transform="matrix(3.13 0 0 3.13 199.84 161.25)" id="umbrella"  >
<path style="stroke: none; stroke-width: 1; stroke-dasharray: none; stroke-linecap: butt; stroke-dashoffset: 0; stroke-linejoin: miter; stroke-miterlimit: 4; fill: rgb(41,182,246); fill-rule: nonzero; opacity: 1;"  transform=" translate(-31.95, -19.6)" d="M 43.9 33.6 c -0.2 -6.9 -1.4 -13.7 -3.5 -20.3 c -0.8 -2.4 -2.4 -4.4 -4.5 -5.6 c -1.3 -0.7 -2.7 -1.4 -4 -2.1 c -1.3 0.6 -2.6 1.3 -3.9 2 c -2.2 1.2 -3.8 3.2 -4.5 5.6 c -2.1 6.6 -3.2 13.5 -3.5 20.4 C 27.8 32.7 36.2 32.7 43.9 33.6 z" stroke-linecap="round" />
</g>
<g transform="matrix(3.13 0 0 3.13 200 113.52)" id="umbrella"  >
<path style="stroke: none; stroke-width: 1; stroke-dasharray: none; stroke-linecap: butt; stroke-dashoffset: 0; stroke-linejoin: miter; stroke-miterlimit: 4; fill: rgb(120,144,156); fill-rule: nonzero; opacity: 1;"  transform=" translate(-32, -4.33)" d="M 33.5 5.7 c 0 0.6 -3 0.6 -3 0 l 0.4 -2.4 c 0.1 -0.5 0.5 -0.8 1 -0.8 h 0.3 c 0.5 0 0.9 0.4 1 0.8 L 33.5 5.7 z" stroke-linecap="round" />
</g>
</svg>