<?xml version="1.0" encoding="UTF-8" standalone="no" ?>
<!DOCTYPE svg PUBLIC "-//W3C//DTD SVG 1.1//EN" "http://www.w3.org/Graphics/SVG/1.1/DTD/svg11.dtd">
<svg xmlns="http://www.w3.org/2000/svg" xmlns:xlink="http://www.w3.org/1999/xlink" version="1.1" width="400" height="400" viewBox="0 0 400 400" xml:space="preserve">
<desc>Created with Fabric.js 3.6.2</desc>
<defs>
</defs>
<g transform="matrix(3.13 0 0 3.13 221.88 115.63)" id="hanger_floor"  >
<circle style="stroke: none; stroke-width: 1; stroke-dasharray: none; stroke-linecap: butt; stroke-dashoffset: 0; stroke-linejoin: miter; stroke-miterlimit: 4; fill: rgb(38,50,56); fill-rule: nonzero; opacity: 1;"  cx="0" cy="0" r="2" />
</g>
<g transform="matrix(3.13 0 0 3.13 209.38 171.88)" id="hanger_floor"  >
<circle style="stroke: none; stroke-width: 1; stroke-dasharray: none; stroke-linecap: butt; stroke-dashoffset: 0; stroke-linejoin: miter; stroke-miterlimit: 4; fill: rgb(38,50,56); fill-rule: nonzero; opacity: 1;"  cx="0" cy="0" r="1.5" />
</g>
<g transform="matrix(3.13 0 0 3.13 212.17 148.59)" id="hanger_floor"  >
<path style="stroke: none; stroke-width: 1; stroke-dasharray: none; stroke-linecap: butt; stroke-dashoffset: 0; stroke-linejoin: miter; stroke-miterlimit: 4; fill: rgb(55,71,79); fill-rule: nonzero; opacity: 1;"  transform=" translate(-35.9, -15.55)" d="M 33.4 25.7 c 0.3 0 0.5 -0.1 0.7 -0.3 l 1.1 -1.1 c 0.8 -0.8 -0.1 -2.7 -0.8 -1.9 l 0 -4.5 c 0 -0.8 0.2 -1.5 0.5 -2.2 l 4.4 -8.9 c 0.5 -1.1 -1.2 -2 -1.8 -0.9 l -4.4 8.9 c -0.5 1 -0.7 2 -0.7 3.1 v 6.9 c 0 0.4 0.2 0.8 0.6 0.9 C 33.1 25.7 33.2 25.7 33.4 25.7 z" stroke-linecap="round" />
</g>
<g transform="matrix(3.13 0 0 3.13 200 121.88)" id="hanger_floor"  >
<path style="stroke: none; stroke-width: 1; stroke-dasharray: none; stroke-linecap: butt; stroke-dashoffset: 0; stroke-linejoin: miter; stroke-miterlimit: 4; fill: rgb(189,189,189); fill-rule: nonzero; opacity: 1;"  transform=" translate(-32, -7)" d="M 35 9 c 0 1.7 -1.3 3 -3 3 c -1.7 0 -3 -1.3 -3 -3 s 1.3 -7 3 -7 C 33.7 2 35 7.3 35 9 z" stroke-linecap="round" />
</g>
<g transform="matrix(3.13 0 0 3.13 200 206.25)" id="hanger_floor"  >
<rect style="stroke: none; stroke-width: 1; stroke-dasharray: none; stroke-linecap: butt; stroke-dashoffset: 0; stroke-linejoin: miter; stroke-miterlimit: 4; fill: rgb(109,76,65); fill-rule: nonzero; opacity: 1;"  x="-2" y="-23" rx="0" ry="0" width="4" height="46" />
</g>
<g transform="matrix(3.13 0 0 3.13 200 287.5)" id="hanger_floor"  >
<path style="stroke: none; stroke-width: 1; stroke-dasharray: none; stroke-linecap: butt; stroke-dashoffset: 0; stroke-linejoin: miter; stroke-miterlimit: 4; fill: rgb(78,52,46); fill-rule: nonzero; opacity: 1;"  transform=" translate(-32, -60)" d="M 46 59 H 18 c -0.6 0 -1 0.4 -1 1 v 1 h 30 v -1 C 47 59.4 46.6 59 46 59 z" stroke-linecap="round" />
</g>
<g transform="matrix(3.13 0 0 3.13 200 281.25)" id="hanger_floor"  >
<path style="stroke: none; stroke-width: 1; stroke-dasharray: none; stroke-linecap: butt; stroke-dashoffset: 0; stroke-linejoin: miter; stroke-miterlimit: 4; fill: rgb(93,64,55); fill-rule: nonzero; opacity: 1;"  transform=" translate(-32, -58)" d="M 39 57 H 25 c -1.1 0 -2 0.9 -2 2 v 0 h 18 v 0 C 41 57.9 40.1 57 39 57 z" stroke-linecap="round" />
</g>
<g transform="matrix(3.13 0 0 3.13 200 275)" id="hanger_floor"  >
<path style="stroke: none; stroke-width: 1; stroke-dasharray: none; stroke-linecap: butt; stroke-dashoffset: 0; stroke-linejoin: miter; stroke-miterlimit: 4; fill: rgb(189,189,189); fill-rule: nonzero; opacity: 1;"  transform=" translate(-32, -56)" d="M 34 55 h -4 c -0.6 0 -1 0.4 -1 1 v 1 h 6 v -1 C 35 55.4 34.6 55 34 55 z" stroke-linecap="round" />
</g>
<g transform="matrix(3.13 0 0 3.13 169.53 146.72)" id="hanger_floor"  >
<path style="stroke: none; stroke-width: 1; stroke-dasharray: none; stroke-linecap: butt; stroke-dashoffset: 0; stroke-linejoin: miter; stroke-miterlimit: 4; fill: rgb(69,90,100); fill-rule: nonzero; opacity: 1;"  transform=" translate(-22.25, -14.95)" d="M 27 25.7 c -0.4 0 -0.8 -0.1 -1.1 -0.2 l -3.7 -1.5 l 0.8 -1.8 l 3.7 1.5 c 0.3 0.1 0.7 0.1 0.9 -0.1 c 0.3 -0.2 0.4 -0.5 0.4 -0.8 v -5.4 c 0 -0.3 -0.1 -0.6 -0.4 -0.8 L 14.4 5.8 l 1.3 -1.6 l 13.3 10.7 c 0.7 0.6 1.1 1.4 1.1 2.3 v 5.4 c 0 1 -0.5 1.9 -1.3 2.5 C 28.2 25.5 27.6 25.7 27 25.7 z" stroke-linecap="round" />
</g>
<g transform="matrix(3.13 0 0 3.13 146.88 115.63)" id="hanger_floor"  >
<circle style="stroke: none; stroke-width: 1; stroke-dasharray: none; stroke-linecap: butt; stroke-dashoffset: 0; stroke-linejoin: miter; stroke-miterlimit: 4; fill: rgb(55,71,79); fill-rule: nonzero; opacity: 1;"  cx="0" cy="0" r="2" />
</g>
<g transform="matrix(3.13 0 0 3.13 170.31 171.88)" id="hanger_floor"  >
<circle style="stroke: none; stroke-width: 1; stroke-dasharray: none; stroke-linecap: butt; stroke-dashoffset: 0; stroke-linejoin: miter; stroke-miterlimit: 4; fill: rgb(55,71,79); fill-rule: nonzero; opacity: 1;"  cx="0" cy="0" r="1.5" />
</g>
<g transform="matrix(3.13 0 0 3.13 230.63 146.72)" id="hanger_floor"  >
<path style="stroke: none; stroke-width: 1; stroke-dasharray: none; stroke-linecap: butt; stroke-dashoffset: 0; stroke-linejoin: miter; stroke-miterlimit: 4; fill: rgb(69,90,100); fill-rule: nonzero; opacity: 1;"  transform=" translate(-41.8, -14.95)" d="M 37 25.7 c 0.4 0 0.8 -0.1 1.1 -0.2 l 3.7 -1.5 l -0.8 -1.8 l -3.7 1.5 c -0.3 0.1 -0.7 0.1 -0.9 -0.1 C 36.2 23.3 36 23 36 22.7 v -5.4 c 0 -0.3 0.1 -0.6 0.4 -0.8 L 49.6 5.8 l -1.3 -1.6 L 35.1 14.9 c -0.7 0.6 -1.1 1.4 -1.1 2.3 v 5.4 c 0 1 0.5 1.9 1.3 2.5 C 35.8 25.5 36.4 25.7 37 25.7 z" stroke-linecap="round" />
</g>
<g transform="matrix(3.13 0 0 3.13 253.13 115.63)" id="hanger_floor"  >
<circle style="stroke: none; stroke-width: 1; stroke-dasharray: none; stroke-linecap: butt; stroke-dashoffset: 0; stroke-linejoin: miter; stroke-miterlimit: 4; fill: rgb(55,71,79); fill-rule: nonzero; opacity: 1;"  cx="0" cy="0" r="2" />
</g>
<g transform="matrix(3.13 0 0 3.13 229.69 171.88)" id="hanger_floor"  >
<circle style="stroke: none; stroke-width: 1; stroke-dasharray: none; stroke-linecap: butt; stroke-dashoffset: 0; stroke-linejoin: miter; stroke-miterlimit: 4; fill: rgb(55,71,79); fill-rule: nonzero; opacity: 1;"  cx="0" cy="0" r="1.5" />
</g>
<g transform="matrix(3.13 0 0 3.13 187.34 147.5)" id="hanger_floor"  >
<path style="stroke: none; stroke-width: 1; stroke-dasharray: none; stroke-linecap: butt; stroke-dashoffset: 0; stroke-linejoin: miter; stroke-miterlimit: 4; fill: rgb(84,110,122); fill-rule: nonzero; opacity: 1;"  transform=" translate(-27.95, -15.2)" d="M 30.7 25.7 c -0.3 0 -0.5 -0.1 -0.7 -0.3 l -1.7 -1.7 l 1.4 -1.3 v -4.5 c 0 -0.8 -0.2 -1.5 -0.5 -2.2 l -5 -10.1 l 1.8 -0.9 l 5 10.1 c 0.5 1 0.7 2 0.7 3.1 v 6.9 c 0 0.4 -0.2 0.8 -0.6 0.9 C 30.9 25.7 30.8 25.7 30.7 25.7 z" stroke-linecap="round" />
</g>
<g transform="matrix(3.13 0 0 3.13 178.13 115.63)" id="hanger_floor"  >
<circle style="stroke: none; stroke-width: 1; stroke-dasharray: none; stroke-linecap: butt; stroke-dashoffset: 0; stroke-linejoin: miter; stroke-miterlimit: 4; fill: rgb(69,90,100); fill-rule: nonzero; opacity: 1;"  cx="0" cy="0" r="2" />
</g>
<g transform="matrix(3.13 0 0 3.13 190.63 171.88)" id="hanger_floor"  >
<circle style="stroke: none; stroke-width: 1; stroke-dasharray: none; stroke-linecap: butt; stroke-dashoffset: 0; stroke-linejoin: miter; stroke-miterlimit: 4; fill: rgb(69,90,100); fill-rule: nonzero; opacity: 1;"  cx="0" cy="0" r="1.5" />
</g>
</svg>