<?xml version="1.0" encoding="UTF-8" standalone="no" ?>
<!DOCTYPE svg PUBLIC "-//W3C//DTD SVG 1.1//EN" "http://www.w3.org/Graphics/SVG/1.1/DTD/svg11.dtd">
<svg xmlns="http://www.w3.org/2000/svg" xmlns:xlink="http://www.w3.org/1999/xlink" version="1.1" width="400" height="400" viewBox="0 0 400 400" xml:space="preserve">
<desc>Created with Fabric.js 3.6.2</desc>
<defs>
</defs>
<g transform="matrix(1.86 -3.73 3.73 1.86 144.66 176.62)" id="surface1"  >
<rect style="stroke: none; stroke-width: 1; stroke-dasharray: none; stroke-linecap: butt; stroke-dashoffset: 0; stroke-linejoin: miter; stroke-miterlimit: 4; fill: rgb(255,117,76); fill-rule: nonzero; opacity: 1;"  x="-6" y="-1" rx="0" ry="0" width="12" height="2" />
</g>
<g transform="matrix(4.17 0 0 4.17 131.25 193.75)" id="surface1"  >
<path style="stroke: none; stroke-width: 1; stroke-dasharray: none; stroke-linecap: butt; stroke-dashoffset: 0; stroke-linejoin: miter; stroke-miterlimit: 4; fill: rgb(255,183,77); fill-rule: nonzero; opacity: 1;"  transform=" translate(-7.5, -22.5)" d="M 11 22.5 c 0 1.9 -1.6 3.5 -3.5 3.5 S 4 24.4 4 22.5 S 5.6 19 7.5 19 S 11 20.6 11 22.5 z" stroke-linecap="round" />
</g>
<g transform="matrix(4.17 0 0 4.17 147.34 227.45)" id="surface1"  >
<path style="stroke: none; stroke-width: 1; stroke-dasharray: none; stroke-linecap: butt; stroke-dashoffset: 0; stroke-linejoin: miter; stroke-miterlimit: 4; fill: rgb(255,183,77); fill-rule: nonzero; opacity: 1;"  transform=" translate(-11.36, -30.59)" d="M 14.1 35 l -5.8 3.8 c -0.7 0.5 -1.6 0.3 -2.1 -0.4 c -0.5 -0.7 -0.3 -1.6 0.4 -2.1 l 5.1 -3.4 c 0.1 -0.1 0.2 -0.2 0.2 -0.4 v -7.9 c 0 -0.8 0.3 -1.7 1.6 -2.5 l 3.3 1.4 L 15 33.4 C 14.9 33.9 14.7 34.6 14.1 35 z" stroke-linecap="round" />
</g>
<g transform="matrix(4.17 0 0 4.17 231.39 169.38)" id="surface1"  >
<path style="stroke: none; stroke-width: 1; stroke-dasharray: none; stroke-linecap: butt; stroke-dashoffset: 0; stroke-linejoin: miter; stroke-miterlimit: 4; fill: rgb(249,168,37); fill-rule: nonzero; opacity: 1;"  transform=" translate(-31.53, -16.65)" d="M 35.9 20 l -7.5 5 c -0.9 0.6 -2.2 0.4 -2.8 -0.6 c -0.6 -0.9 -0.9 -3 0 -3.6 l 7.4 -3.7 l 1 -7.5 c 0.2 -1.1 1.3 -1.8 2.4 -1.6 c 1.1 0.2 1.8 1.3 1.6 2.4 l -1.1 8.3 C 36.7 19.2 36.4 19.7 35.9 20 z" stroke-linecap="round" />
</g>
<g transform="matrix(4.17 0 0 4.17 218.68 197.1)" id="surface1"  >
<path style="stroke: none; stroke-width: 1; stroke-dasharray: none; stroke-linecap: butt; stroke-dashoffset: 0; stroke-linejoin: miter; stroke-miterlimit: 4; fill: rgb(255,183,77); fill-rule: nonzero; opacity: 1;"  transform=" translate(-28.48, -23.3)" d="M 41.9 18.3 L 36 22 l -7 -1 c -0.5 -1.8 -2.9 -2.3 -4.8 -1.8 l -9.7 2.6 c -2.1 0.5 -2.9 2.5 -2.4 4.3 l 0 0 c 0.5 1.8 2.5 2.9 4.3 2.4 L 26 26 l 9.7 0 c 0.4 0 0.9 -0.1 1.3 -0.3 l 7.1 -4 c 0.9 -0.6 1.2 -1.9 0.6 -2.8 C 44.1 18 42.8 17.7 41.9 18.3 z" stroke-linecap="round" />
</g>
<g transform="matrix(4.17 0 0 4.17 187.08 209.58)" id="surface1"  >
<path style="stroke: none; stroke-width: 1; stroke-dasharray: none; stroke-linecap: butt; stroke-dashoffset: 0; stroke-linejoin: miter; stroke-miterlimit: 4; fill: rgb(249,168,37); fill-rule: nonzero; opacity: 1;"  transform=" translate(-20.9, -26.3)" d="M 25 24 l -8.7 2.3 l -0.5 2.3 c 0.2 0 0.4 -0.1 0.7 -0.1 l 9.4 -2.5 l 0.1 0 L 25 24 z" stroke-linecap="round" />
</g>
<g transform="matrix(4.17 0 0 4.17 207.29 193.79)" id="surface1"  >
<path style="stroke: none; stroke-width: 1; stroke-dasharray: none; stroke-linecap: butt; stroke-dashoffset: 0; stroke-linejoin: miter; stroke-miterlimit: 4; fill: rgb(95,111,196); fill-rule: nonzero; opacity: 1;"  transform=" translate(-25.75, -22.51)" d="M 26 26 h 3 v -5 c -0.5 -1.8 -2.9 -2.3 -4.8 -1.8 l -1.7 0.5 L 26 26 z" stroke-linecap="round" />
</g>
<g transform="matrix(4.17 0 0 4.17 131.33 197.92)" id="surface1"  >
<path style="stroke: none; stroke-width: 1; stroke-dasharray: none; stroke-linecap: butt; stroke-dashoffset: 0; stroke-linejoin: miter; stroke-miterlimit: 4; fill: rgb(95,111,196); fill-rule: nonzero; opacity: 1;"  transform=" translate(-7.52, -23.5)" d="M 6 24 h 4.6 c 0.3 -0.6 0.4 -1.3 0.3 -2 H 4.1 c 0 0.2 0 0.4 0 0.6 c 0 0 0 0 0 0 c 0 0.2 0 0.4 0.1 0.6 c 0 0.1 0 0.1 0 0.2 c 0 0.1 0.1 0.3 0.1 0.4 c 0.1 0.2 0.2 0.4 0.3 0.6 C 4.7 24.6 4.9 24.8 5 25 C 5 24.4 5.5 24 6 24 z" stroke-linecap="round" />
</g>
<g transform="matrix(4.17 0 0 4.17 122.92 199.38)" id="surface1"  >
<path style="stroke: none; stroke-width: 1; stroke-dasharray: none; stroke-linecap: butt; stroke-dashoffset: 0; stroke-linejoin: miter; stroke-miterlimit: 4; fill: rgb(95,111,196); fill-rule: nonzero; opacity: 1;"  transform=" translate(-5.5, -23.85)" d="M 5 22 c -0.4 0 -0.7 0.1 -1 0.3 C 4 23 4.1 23.8 4.6 24.4 c 0.4 0.6 0.9 1 1.5 1.3 C 6.6 25.3 7 24.7 7 24 C 7 22.9 6.1 22 5 22 z" stroke-linecap="round" />
</g>
</svg>