<?xml version="1.0" encoding="UTF-8" standalone="no" ?>
<!DOCTYPE svg PUBLIC "-//W3C//DTD SVG 1.1//EN" "http://www.w3.org/Graphics/SVG/1.1/DTD/svg11.dtd">
<svg xmlns="http://www.w3.org/2000/svg" xmlns:xlink="http://www.w3.org/1999/xlink" version="1.1" width="400" height="400" viewBox="0 0 400 400" xml:space="preserve">
<desc>Created with Fabric.js 3.6.2</desc>
<defs>
</defs>
<g transform="matrix(4.17 0 0 4.17 200 200)" id="surface1"  >
<path style="stroke: none; stroke-width: 1; stroke-dasharray: none; stroke-linecap: butt; stroke-dashoffset: 0; stroke-linejoin: miter; stroke-miterlimit: 4; fill: rgb(156,39,176); fill-rule: nonzero; opacity: 1;"  transform=" translate(-24, -24)" d="M 24 6 C 11.851563 6 2 14.058594 2 24 C 2 33.941406 11.851563 42 24 42 C 36.148438 42 46 33.941406 46 24 C 46 14.058594 36.148438 6 24 6 Z M 24 29 C 17.925781 29 13 25.640625 13 21.5 C 13 17.359375 17.925781 14 24 14 C 30.074219 14 35 17.359375 35 21.5 C 35 25.640625 30.074219 29 24 29 Z" stroke-linecap="round" />
</g>
<g transform="matrix(4.17 0 0 4.17 200 235.87)" id="surface1"  >
<path style="stroke: none; stroke-width: 1; stroke-dasharray: none; stroke-linecap: butt; stroke-dashoffset: 0; stroke-linejoin: miter; stroke-miterlimit: 4; fill: rgb(123,31,162); fill-rule: nonzero; opacity: 1;"  transform=" translate(-24, -32.61)" d="M 24 38 C 12.171875 38 2.523438 31.996094 2.023438 23.21875 C 2.011719 23.476563 2 23.738281 2 24 C 2 33.941406 11.851563 42 24 42 C 36.148438 42 46 33.941406 46 24 C 46 23.738281 45.988281 23.476563 45.976563 23.21875 C 45.476563 31.996094 35.828125 38 24 38 Z" stroke-linecap="round" />
</g>
<g transform="matrix(4.17 0 0 4.17 158.71 151.11)" id="surface1"  >
<path style="stroke: none; stroke-width: 1; stroke-dasharray: none; stroke-linecap: butt; stroke-dashoffset: 0; stroke-linejoin: miter; stroke-miterlimit: 4; fill: rgb(255,193,7); fill-rule: nonzero; opacity: 1;"  transform=" translate(-14.09, -12.27)" d="M 13.898438 18.53125 C 13.605469 17.476563 12.441406 14 8 14 C 6.402344 14 5.023438 14.851563 4.179688 16.183594 C 7.734375 10.15625 15.273438 6 24 6 L 24 14 C 19.472656 14 15.589844 15.867188 13.898438 18.53125 Z" stroke-linecap="round" />
</g>
<g transform="matrix(4.17 0 0 4.17 241.29 151.11)" id="surface1"  >
<path style="stroke: none; stroke-width: 1; stroke-dasharray: none; stroke-linecap: butt; stroke-dashoffset: 0; stroke-linejoin: miter; stroke-miterlimit: 4; fill: rgb(67,160,71); fill-rule: nonzero; opacity: 1;"  transform=" translate(-33.91, -12.27)" d="M 34.101563 18.53125 C 34.394531 17.476563 35.558594 14 40 14 C 41.597656 14 42.976563 14.851563 43.820313 16.183594 C 40.265625 10.15625 32.726563 6 24 6 L 24 14 C 28.527344 14 32.410156 15.867188 34.101563 18.53125 Z" stroke-linecap="round" />
</g>
<g transform="matrix(4.17 0 0 4.17 257.57 210.53)" id="surface1"  >
<path style="stroke: none; stroke-width: 1; stroke-dasharray: none; stroke-linecap: butt; stroke-dashoffset: 0; stroke-linejoin: miter; stroke-miterlimit: 4; fill: rgb(33,150,243); fill-rule: nonzero; opacity: 1;"  transform=" translate(-37.82, -26.53)" d="M 43.730469 16.054688 C 42.878906 14.800781 41.546875 14 40 14 C 35.558594 14 34.394531 17.476563 34.101563 18.53125 C 34.089844 18.515625 34.078125 18.503906 34.070313 18.488281 C 34.664063 19.410156 35 20.429688 35 21.5 C 35 24.238281 32.84375 26.625 29.632813 27.933594 C 31.183594 27.832031 35.203125 27.984375 37 32 C 38.371094 35.0625 37.457031 37.40625 36.054688 39.054688 C 42.042969 35.839844 46 30.300781 46 24 C 46 21.144531 45.175781 18.453125 43.730469 16.054688 Z" stroke-linecap="round" />
</g>
<g transform="matrix(4.17 0 0 4.17 270.95 229.79)" id="surface1"  >
<path style="stroke: none; stroke-width: 1; stroke-dasharray: none; stroke-linecap: butt; stroke-dashoffset: 0; stroke-linejoin: miter; stroke-miterlimit: 4; fill: rgb(25,118,210); fill-rule: nonzero; opacity: 1;"  transform=" translate(-41.03, -31.15)" d="M 37.660156 34.839844 C 37.683594 36.554688 36.984375 37.960938 36.054688 39.054688 C 36.800781 38.652344 37.519531 38.214844 38.199219 37.742188 C 38.199219 37.742188 38.199219 37.742188 38.203125 37.742188 C 38.527344 37.515625 38.84375 37.28125 39.152344 37.042969 C 39.179688 37.023438 39.207031 37 39.234375 36.980469 C 40.171875 36.242188 41.027344 35.4375 41.796875 34.578125 C 41.828125 34.539063 41.859375 34.503906 41.890625 34.46875 C 42.105469 34.222656 42.3125 33.972656 42.515625 33.71875 C 42.554688 33.664063 42.597656 33.613281 42.636719 33.5625 C 42.847656 33.285156 43.050781 33.007813 43.242188 32.722656 C 43.253906 32.707031 43.269531 32.6875 43.28125 32.671875 C 43.492188 32.359375 43.691406 32.039063 43.878906 31.71875 C 43.894531 31.691406 43.910156 31.660156 43.925781 31.632813 C 44.085938 31.355469 44.234375 31.070313 44.378906 30.785156 C 44.417969 30.703125 44.457031 30.621094 44.496094 30.535156 C 44.613281 30.292969 44.722656 30.046875 44.824219 29.800781 C 44.863281 29.710938 44.898438 29.625 44.933594 29.535156 C 45.050781 29.242188 45.160156 28.945313 45.257813 28.644531 C 45.269531 28.609375 45.28125 28.574219 45.292969 28.539063 C 45.398438 28.203125 45.492188 27.863281 45.574219 27.523438 C 45.597656 27.433594 45.613281 27.34375 45.632813 27.257813 C 45.691406 27.003906 45.742188 26.746094 45.785156 26.488281 C 45.804688 26.371094 45.824219 26.257813 45.839844 26.140625 C 45.875 25.894531 45.90625 25.644531 45.929688 25.394531 C 45.9375 25.285156 45.949219 25.179688 45.957031 25.070313 C 45.984375 24.714844 46 24.359375 46 24 C 46 23.746094 45.984375 23.492188 45.972656 23.242188 C 45.679688 28.179688 42.496094 32.234375 37.660156 34.839844 Z" stroke-linecap="round" />
</g>
<g transform="matrix(4.17 0 0 4.17 221.62 163.61)" id="surface1"  >
<path style="stroke: none; stroke-width: 1; stroke-dasharray: none; stroke-linecap: butt; stroke-dashoffset: 0; stroke-linejoin: miter; stroke-miterlimit: 4; fill: rgb(46,125,50); fill-rule: nonzero; opacity: 1;"  transform=" translate(-29.19, -15.27)" d="M 25.820313 14.109375 C 26.296875 14.164063 26.761719 14.234375 27.210938 14.328125 C 27.265625 14.339844 27.320313 14.355469 27.378906 14.367188 C 27.78125 14.457031 28.171875 14.5625 28.554688 14.683594 C 28.65625 14.714844 28.761719 14.742188 28.859375 14.777344 C 29.265625 14.914063 29.65625 15.066406 30.03125 15.234375 C 30.121094 15.273438 30.199219 15.316406 30.285156 15.359375 C 30.59375 15.503906 30.886719 15.660156 31.164063 15.824219 C 31.257813 15.878906 31.351563 15.933594 31.441406 15.988281 C 31.757813 16.1875 32.054688 16.398438 32.335938 16.621094 C 32.429688 16.695313 32.519531 16.773438 32.609375 16.855469 C 32.8125 17.03125 33.003906 17.210938 33.1875 17.402344 C 33.265625 17.480469 33.347656 17.5625 33.421875 17.644531 C 33.632813 17.882813 33.816406 18.132813 33.988281 18.386719 C 34.023438 18.4375 34.066406 18.480469 34.097656 18.53125 C 34.15625 18.332031 34.242188 18.042969 34.378906 17.707031 C 32.882813 14.386719 28.808594 12 24 12 L 24 14 C 24.503906 14 24.996094 14.03125 25.484375 14.074219 C 25.597656 14.085938 25.710938 14.097656 25.820313 14.109375 Z" stroke-linecap="round" />
</g>
<g transform="matrix(4.17 0 0 4.17 178.38 163.61)" id="surface1"  >
<path style="stroke: none; stroke-width: 1; stroke-dasharray: none; stroke-linecap: butt; stroke-dashoffset: 0; stroke-linejoin: miter; stroke-miterlimit: 4; fill: rgb(255,160,0); fill-rule: nonzero; opacity: 1;"  transform=" translate(-18.81, -15.27)" d="M 13.621094 17.707031 C 13.753906 18.042969 13.84375 18.328125 13.898438 18.53125 C 13.933594 18.480469 13.976563 18.433594 14.011719 18.386719 C 14.179688 18.132813 14.367188 17.882813 14.578125 17.644531 C 14.652344 17.558594 14.734375 17.480469 14.8125 17.398438 C 14.992188 17.210938 15.1875 17.027344 15.390625 16.851563 C 15.480469 16.773438 15.570313 16.695313 15.664063 16.617188 C 15.945313 16.398438 16.242188 16.1875 16.554688 15.988281 C 16.644531 15.933594 16.742188 15.878906 16.832031 15.824219 C 17.113281 15.660156 17.40625 15.503906 17.714844 15.355469 C 17.800781 15.316406 17.878906 15.273438 17.964844 15.234375 C 18.339844 15.066406 18.734375 14.914063 19.140625 14.777344 C 19.238281 14.742188 19.34375 14.714844 19.445313 14.679688 C 19.828125 14.5625 20.21875 14.453125 20.621094 14.367188 C 20.679688 14.355469 20.734375 14.339844 20.789063 14.324219 C 21.238281 14.230469 21.703125 14.164063 22.179688 14.109375 C 22.289063 14.097656 22.402344 14.085938 22.515625 14.074219 C 23.003906 14.03125 23.496094 14 24 14 L 24 12 C 19.191406 12 15.117188 14.386719 13.621094 17.707031 Z" stroke-linecap="round" />
</g>
<g transform="matrix(4.17 0 0 4.17 142.43 210.53)" id="surface1"  >
<path style="stroke: none; stroke-width: 1; stroke-dasharray: none; stroke-linecap: butt; stroke-dashoffset: 0; stroke-linejoin: miter; stroke-miterlimit: 4; fill: rgb(255,61,0); fill-rule: nonzero; opacity: 1;"  transform=" translate(-10.18, -26.53)" d="M 4.269531 16.054688 C 5.121094 14.800781 6.453125 14 8 14 C 12.441406 14 13.605469 17.476563 13.898438 18.53125 C 13.910156 18.515625 13.921875 18.503906 13.929688 18.488281 C 13.335938 19.410156 13 20.429688 13 21.5 C 13 24.238281 15.15625 26.625 18.367188 27.933594 C 16.816406 27.832031 12.796875 27.984375 11 32 C 9.628906 35.0625 10.542969 37.40625 11.945313 39.054688 C 5.957031 35.839844 2 30.300781 2 24 C 2 21.144531 2.824219 18.453125 4.269531 16.054688 Z" stroke-linecap="round" />
</g>
<g transform="matrix(4.17 0 0 4.17 156.1 180.7)" id="surface1"  >
<path style="stroke: none; stroke-width: 1; stroke-dasharray: none; stroke-linecap: butt; stroke-dashoffset: 0; stroke-linejoin: miter; stroke-miterlimit: 4; fill: rgb(221,44,0); fill-rule: nonzero; opacity: 1;"  transform=" translate(-13.46, -19.37)" d="M 13.035156 21.03125 C 13.035156 21.023438 13.039063 21.015625 13.039063 21.011719 C 13.058594 20.789063 13.09375 20.570313 13.144531 20.351563 C 13.152344 20.320313 13.160156 20.289063 13.167969 20.257813 C 13.214844 20.058594 13.277344 19.863281 13.347656 19.671875 C 13.367188 19.617188 13.390625 19.5625 13.410156 19.507813 C 13.480469 19.339844 13.554688 19.171875 13.640625 19.007813 C 13.683594 18.925781 13.726563 18.851563 13.773438 18.769531 C 13.828125 18.675781 13.871094 18.582031 13.929688 18.488281 C 13.921875 18.503906 13.910156 18.515625 13.898438 18.53125 C 13.84375 18.328125 13.757813 18.042969 13.621094 17.707031 C 13.226563 18.582031 13 19.519531 13 20.5 C 13 20.679688 13.019531 20.855469 13.035156 21.03125 Z" stroke-linecap="round" />
</g>
<g transform="matrix(4.17 0 0 4.17 243.9 180.7)" id="surface1"  >
<path style="stroke: none; stroke-width: 1; stroke-dasharray: none; stroke-linecap: butt; stroke-dashoffset: 0; stroke-linejoin: miter; stroke-miterlimit: 4; fill: rgb(25,118,210); fill-rule: nonzero; opacity: 1;"  transform=" translate(-34.54, -19.37)" d="M 34.070313 18.488281 C 34.128906 18.582031 34.171875 18.679688 34.226563 18.773438 C 34.273438 18.851563 34.316406 18.929688 34.359375 19.007813 C 34.445313 19.171875 34.519531 19.339844 34.589844 19.511719 C 34.609375 19.5625 34.632813 19.617188 34.652344 19.671875 C 34.722656 19.863281 34.785156 20.058594 34.832031 20.257813 C 34.839844 20.289063 34.847656 20.320313 34.855469 20.355469 C 34.902344 20.570313 34.941406 20.789063 34.960938 21.011719 C 34.964844 21.019531 34.964844 21.023438 34.964844 21.03125 C 34.980469 20.855469 35 20.679688 35 20.5 C 35 19.519531 34.773438 18.582031 34.378906 17.707031 C 34.246094 18.042969 34.15625 18.328125 34.101563 18.53125 C 34.089844 18.515625 34.078125 18.503906 34.070313 18.488281 Z" stroke-linecap="round" />
</g>
<g transform="matrix(4.17 0 0 4.17 129.05 229.79)" id="surface1"  >
<path style="stroke: none; stroke-width: 1; stroke-dasharray: none; stroke-linecap: butt; stroke-dashoffset: 0; stroke-linejoin: miter; stroke-miterlimit: 4; fill: rgb(221,44,0); fill-rule: nonzero; opacity: 1;"  transform=" translate(-6.97, -31.15)" d="M 2.070313 25.394531 C 2.09375 25.644531 2.125 25.890625 2.160156 26.140625 C 2.175781 26.257813 2.195313 26.371094 2.214844 26.484375 C 2.257813 26.742188 2.308594 27 2.367188 27.253906 C 2.386719 27.34375 2.402344 27.433594 2.425781 27.523438 C 2.507813 27.863281 2.601563 28.203125 2.707031 28.539063 C 2.71875 28.574219 2.730469 28.609375 2.742188 28.644531 C 2.839844 28.945313 2.949219 29.242188 3.066406 29.535156 C 3.101563 29.621094 3.136719 29.710938 3.175781 29.796875 C 3.277344 30.046875 3.386719 30.292969 3.503906 30.535156 C 3.542969 30.617188 3.582031 30.703125 3.621094 30.785156 C 3.765625 31.070313 3.914063 31.351563 4.074219 31.632813 C 4.089844 31.660156 4.105469 31.6875 4.121094 31.71875 C 4.308594 32.039063 4.511719 32.359375 4.71875 32.671875 C 4.730469 32.6875 4.746094 32.707031 4.757813 32.722656 C 4.949219 33.007813 5.152344 33.285156 5.363281 33.5625 C 5.402344 33.613281 5.445313 33.664063 5.484375 33.71875 C 5.6875 33.972656 5.894531 34.222656 6.109375 34.464844 C 6.140625 34.503906 6.171875 34.539063 6.203125 34.574219 C 6.972656 35.4375 7.828125 36.242188 8.765625 36.976563 C 8.792969 37 8.820313 37.019531 8.847656 37.042969 C 9.15625 37.28125 9.472656 37.515625 9.796875 37.742188 C 9.800781 37.742188 9.800781 37.742188 9.800781 37.742188 C 10.480469 38.214844 11.199219 38.652344 11.945313 39.054688 C 11.015625 37.960938 10.316406 36.550781 10.339844 34.835938 C 5.503906 32.234375 2.320313 28.179688 2.027344 23.242188 C 2.015625 23.492188 2 23.746094 2 24 C 2 24.359375 2.015625 24.714844 2.042969 25.070313 C 2.050781 25.175781 2.0625 25.285156 2.070313 25.394531 Z" stroke-linecap="round" />
</g>
</svg>