<?xml version="1.0" encoding="UTF-8" standalone="no" ?>
<!DOCTYPE svg PUBLIC "-//W3C//DTD SVG 1.1//EN" "http://www.w3.org/Graphics/SVG/1.1/DTD/svg11.dtd">
<svg xmlns="http://www.w3.org/2000/svg" xmlns:xlink="http://www.w3.org/1999/xlink" version="1.1" width="400" height="400" viewBox="0 0 400 400" xml:space="preserve">
<desc>Created with Fabric.js 3.6.2</desc>
<defs>
</defs>
<g transform="matrix(4.17 0 0 4.17 241.86 143.75)" id="surface1"  >
<path style="stroke: none; stroke-width: 1; stroke-dasharray: none; stroke-linecap: butt; stroke-dashoffset: 0; stroke-linejoin: miter; stroke-miterlimit: 4; fill: rgb(191,54,12); fill-rule: nonzero; opacity: 1;"  transform=" translate(-34.05, -10.5)" d="M 38.046875 15 C 38.046875 15 37.046875 14 34.046875 14 C 31.046875 14 30.046875 15 30.046875 15 L 30.046875 6 L 38.046875 6 Z" stroke-linecap="round" />
</g>
<g transform="matrix(4.17 0 0 4.17 158.53 229.17)" id="surface1"  >
<path style="stroke: none; stroke-width: 1; stroke-dasharray: none; stroke-linecap: butt; stroke-dashoffset: 0; stroke-linejoin: miter; stroke-miterlimit: 4; fill: rgb(84,110,122); fill-rule: nonzero; opacity: 1;"  transform=" translate(-14.05, -31)" d="M 6.046875 23 L 6.046875 31 L 9.046875 33 L 10.046875 47 L 18.046875 47 L 19.046875 33 L 22.046875 31 L 22.046875 23 C 22.046875 18.582031 18.464844 15 14.046875 15 C 9.628906 15 6.046875 18.582031 6.046875 23" stroke-linecap="round" />
</g>
<g transform="matrix(4.17 0 0 4.17 241.86 160.42)" id="surface1"  >
<path style="stroke: none; stroke-width: 1; stroke-dasharray: none; stroke-linecap: butt; stroke-dashoffset: 0; stroke-linejoin: miter; stroke-miterlimit: 4; fill: rgb(255,152,0); fill-rule: nonzero; opacity: 1;"  transform=" translate(-34.05, -14.5)" d="M 36.046875 12 L 32.046875 12 L 32.046875 15 C 32.046875 15 31.921875 17 34.003906 17 C 36.085938 17 36.046875 15 36.046875 15 Z" stroke-linecap="round" />
</g>
<g transform="matrix(4.17 0 0 4.17 158.53 160.42)" id="surface1"  >
<path style="stroke: none; stroke-width: 1; stroke-dasharray: none; stroke-linecap: butt; stroke-dashoffset: 0; stroke-linejoin: miter; stroke-miterlimit: 4; fill: rgb(255,152,0); fill-rule: nonzero; opacity: 1;"  transform=" translate(-14.05, -14.5)" d="M 16.046875 12 L 12.046875 12 L 12.046875 15 C 12.046875 15 11.921875 17 14.003906 17 C 16.089844 17 16.046875 15 16.046875 15 Z" stroke-linecap="round" />
</g>
<g transform="matrix(4.17 0 0 4.17 241.86 137.5)" id="surface1"  >
<path style="stroke: none; stroke-width: 1; stroke-dasharray: none; stroke-linecap: butt; stroke-dashoffset: 0; stroke-linejoin: miter; stroke-miterlimit: 4; fill: rgb(255,183,77); fill-rule: nonzero; opacity: 1;"  transform=" translate(-34.05, -9)" d="M 34.046875 14 C 31.285156 14 29.046875 11.757813 29.046875 9 C 29.046875 6.242188 31.285156 4 34.046875 4 C 36.804688 4 39.046875 6.242188 39.046875 9 C 39.046875 11.757813 36.804688 14 34.046875 14" stroke-linecap="round" />
</g>
<g transform="matrix(4.17 0 0 4.17 158.53 137.5)" id="surface1"  >
<path style="stroke: none; stroke-width: 1; stroke-dasharray: none; stroke-linecap: butt; stroke-dashoffset: 0; stroke-linejoin: miter; stroke-miterlimit: 4; fill: rgb(255,183,77); fill-rule: nonzero; opacity: 1;"  transform=" translate(-14.05, -9)" d="M 14.046875 14 C 11.285156 14 9.046875 11.757813 9.046875 9 C 9.046875 6.242188 11.285156 4 14.046875 4 C 16.804688 4 19.046875 6.242188 19.046875 9 C 19.046875 11.757813 16.804688 14 14.046875 14" stroke-linecap="round" />
</g>
<g transform="matrix(4.17 0 0 4.17 241.86 229.7)" id="surface1"  >
<path style="stroke: none; stroke-width: 1; stroke-dasharray: none; stroke-linecap: butt; stroke-dashoffset: 0; stroke-linejoin: miter; stroke-miterlimit: 4; fill: rgb(255,183,77); fill-rule: nonzero; opacity: 1;"  transform=" translate(-34.05, -31.13)" d="M 36.023438 15.257813 C 35.957031 15.792969 35.628906 17 34.003906 17 C 32.382813 17 32.101563 15.796875 32.054688 15.261719 C 28.601563 16.144531 26.046875 19.269531 26.046875 23 L 26.046875 31 L 29.046875 33 L 30.046875 47 L 38.046875 47 L 39.046875 33 L 42.046875 31 L 42.046875 23 C 42.046875 19.265625 39.484375 16.140625 36.023438 15.257813 Z" stroke-linecap="round" />
</g>
<g transform="matrix(4.17 0 0 4.17 158.53 125)" id="surface1"  >
<path style="stroke: none; stroke-width: 1; stroke-dasharray: none; stroke-linecap: butt; stroke-dashoffset: 0; stroke-linejoin: miter; stroke-miterlimit: 4; fill: rgb(66,66,66); fill-rule: nonzero; opacity: 1;"  transform=" translate(-14.05, -6)" d="M 13.824219 2 C 11.386719 2.21875 9.046875 3.929688 9.046875 7.574219 L 9.046875 9 L 10.046875 10 L 10.046875 7 L 16.355469 4.800781 L 18.046875 7 L 18.046875 10 L 19.046875 9 L 19.046875 7.796875 C 19.046875 5.382813 18.910156 3.59375 16.046875 3 L 15.558594 2 Z" stroke-linecap="round" />
</g>
<g transform="matrix(4.17 0 0 4.17 241.86 135.42)" id="surface1"  >
<path style="stroke: none; stroke-width: 1; stroke-dasharray: none; stroke-linecap: butt; stroke-dashoffset: 0; stroke-linejoin: miter; stroke-miterlimit: 4; fill: rgb(255,87,34); fill-rule: nonzero; opacity: 1;"  transform=" translate(-34.05, -8.5)" d="M 34.046875 2 C 31.007813 2 27.046875 3 27.046875 12 L 30.046875 15 L 30.046875 8.5 L 36.046875 5 L 38.046875 7.5 L 38.046875 15 L 41.046875 12 C 41.046875 9.988281 41.046875 3 36.046875 3 L 35.546875 2 Z" stroke-linecap="round" />
</g>
<g transform="matrix(4.17 0 0 4.17 241.67 215.12)" id="surface1"  >
<path style="stroke: none; stroke-width: 1; stroke-dasharray: none; stroke-linecap: butt; stroke-dashoffset: 0; stroke-linejoin: miter; stroke-miterlimit: 4; fill: rgb(233,30,99); fill-rule: nonzero; opacity: 1;"  transform=" translate(-34, -27.63)" d="M 38.671875 23 L 42.046875 23 C 42.046875 19.265625 39.484375 16.140625 36.023438 15.257813 C 35.957031 15.792969 35.628906 17 34.003906 17 C 32.382813 17 32.101563 15.796875 32.054688 15.261719 C 28.601563 16.144531 26.046875 19.269531 26.046875 23 L 29.460938 23 L 25 38 C 25 38 27.628906 40 34.128906 40 C 40.628906 40 43 38 43 38 Z" stroke-linecap="round" />
</g>
</svg>