<?xml version="1.0" encoding="UTF-8" standalone="no" ?>
<!DOCTYPE svg PUBLIC "-//W3C//DTD SVG 1.1//EN" "http://www.w3.org/Graphics/SVG/1.1/DTD/svg11.dtd">
<svg xmlns="http://www.w3.org/2000/svg" xmlns:xlink="http://www.w3.org/1999/xlink" version="1.1" width="400" height="400" viewBox="0 0 400 400" xml:space="preserve">
<desc>Created with Fabric.js 3.6.2</desc>
<defs>
</defs>
<g transform="matrix(3.13 0 0 3.13 214.48 185.31)" id="creation"  >
<path style="stroke: none; stroke-width: 1; stroke-dasharray: none; stroke-linecap: butt; stroke-dashoffset: 0; stroke-linejoin: miter; stroke-miterlimit: 4; fill: rgb(255,183,77); fill-rule: nonzero; opacity: 1;"  transform=" translate(-36.63, -27.3)" d="M 28.4 52.6 L 28.4 52.6 c -3.4 0 -5.9 -2.6 -8.6 -5.3 c -0.5 -0.5 -1 -1 -1.5 -1.6 c -0.5 -0.5 -1.1 -1 -1.6 -1.5 c -3.4 -3.3 -6.6 -6.3 -4.9 -11.2 c 1.2 -3.2 1.9 -6.6 2.3 -9.9 C 15 16.7 18.2 11 23.3 7 c 4.1 -3.2 9.3 -5 14.7 -5 c 5.4 0 10.8 1.8 14.9 5.2 c 5.4 4.4 8.6 10.6 9 17.5 c 0.4 6.8 -2.2 13.5 -7 18.3 c -3.9 3.9 -8.8 6.3 -14.3 6.9 c -3.1 0.3 -6.3 1.1 -9.7 2.3 C 30.1 52.5 29.2 52.6 28.4 52.6 z" stroke-linecap="round" />
</g>
<g transform="matrix(3.13 0 0 3.13 214.79 185.47)" id="creation"  >
<path style="stroke: none; stroke-width: 1; stroke-dasharray: none; stroke-linecap: butt; stroke-dashoffset: 0; stroke-linejoin: miter; stroke-miterlimit: 4; fill: rgb(255,224,130); fill-rule: nonzero; opacity: 1;"  transform=" translate(-36.73, -27.35)" d="M 38 4 c -4.9 0 -9.6 1.6 -13.4 4.6 c -4.7 3.7 -7.7 8.9 -8.4 14.8 c -0.4 3.5 -1.2 6.9 -2.4 10.3 c -1.2 3.5 0.7 5.6 4.4 9.1 c 0.5 0.5 1.1 1 1.6 1.6 c 0.5 0.5 1 1.1 1.5 1.6 c 2.4 2.5 4.5 4.7 7.1 4.7 h 0 c 0.6 0 1.3 -0.1 2 -0.4 c 3.5 -1.3 6.9 -2 10.1 -2.4 c 5 -0.6 9.5 -2.7 13.1 -6.3 C 58 37.1 60.3 31 60 24.8 c -0.3 -6.3 -3.3 -12 -8.3 -16 C 47.8 5.7 43 4 38 4 z" stroke-linecap="round" />
</g>
<g transform="matrix(3.13 0 0 3.13 205.94 193.91)" id="creation"  >
<path style="stroke: none; stroke-width: 1; stroke-dasharray: none; stroke-linecap: butt; stroke-dashoffset: 0; stroke-linejoin: miter; stroke-miterlimit: 4; fill: rgb(255,249,196); fill-rule: nonzero; opacity: 1;"  transform=" translate(-33.9, -30.05)" d="M 25.6 49.4 c -0.9 0 -2.7 -1.9 -4.2 -3.5 c -0.5 -0.5 -1.1 -1.1 -1.6 -1.7 c -0.6 -0.6 -1.1 -1.1 -1.7 -1.6 c -3.8 -3.6 -3.7 -4.1 -3.4 -4.9 c 1.3 -3.7 2.2 -7.4 2.6 -11.2 c 0.6 -4.8 3 -9.1 6.9 -12.1 c 3.1 -2.4 7 -3.7 11 -3.7 c 4.1 0 8.1 1.4 11.2 3.9 c 4.1 3.3 6.5 7.9 6.8 13.1 c 0.3 5.1 -1.6 10.1 -5.2 13.7 c -2.9 2.9 -6.6 4.7 -10.7 5.1 c -3.6 0.4 -7.2 1.3 -11 2.6 C 26 49.3 25.8 49.4 25.6 49.4 z" stroke-linecap="round" />
</g>
<g transform="matrix(3.13 0 0 3.13 206.25 196.88)" id="creation"  >
<circle style="stroke: none; stroke-width: 1; stroke-dasharray: none; stroke-linecap: butt; stroke-dashoffset: 0; stroke-linejoin: miter; stroke-miterlimit: 4; fill: rgb(255,255,255); fill-rule: nonzero; opacity: 1;"  cx="0" cy="0" r="15" />
</g>
<g transform="matrix(3.13 0 0 3.13 116.41 282.81)" id="creation"  >
<path style="stroke: none; stroke-width: 1; stroke-dasharray: none; stroke-linecap: butt; stroke-dashoffset: 0; stroke-linejoin: miter; stroke-miterlimit: 4; fill: rgb(38,50,56); fill-rule: nonzero; opacity: 1;"  transform=" translate(-5.25, -58.5)" d="M 1 54.1 l 0 3.2 c 0 1.5 0.6 2.9 1.6 4 c 1.1 1.1 2.5 1.6 4 1.6 c 0 0 0 0 0 0 l 2.9 0 C 6.6 60.2 3.7 57.2 1 54.1 z" stroke-linecap="round" />
</g>
<g transform="matrix(3.13 0 0 3.13 138.13 262.81)" id="creation"  >
<path style="stroke: none; stroke-width: 1; stroke-dasharray: none; stroke-linecap: butt; stroke-dashoffset: 0; stroke-linejoin: miter; stroke-miterlimit: 4; fill: rgb(207,216,220); fill-rule: nonzero; opacity: 1;"  transform=" translate(-12.2, -52.1)" d="M 15.2 61.5 l 8.2 -8.2 L 10 41.3 l -7.5 7.5 C 1.6 49.7 1.1 51 1 52.3 l 0 1.8 c 2.7 3.1 5.5 6.1 8.6 8.8 l 2.1 0 C 13 62.9 14.3 62.4 15.2 61.5 z" stroke-linecap="round" />
</g>
<g transform="matrix(3.13 0 0 3.13 128.91 271.85)" id="creation"  >
<path style="stroke: none; stroke-width: 1; stroke-dasharray: none; stroke-linecap: butt; stroke-dashoffset: 0; stroke-linejoin: miter; stroke-miterlimit: 4; fill: rgb(207,216,220); fill-rule: nonzero; opacity: 1;"  transform=" translate(-9.25, -54.99)" d="M 3.5 49.3 c -0.4 -0.4 -1 -0.4 -1.4 -0.1 c -0.2 0.2 -0.3 0.5 -0.3 0.8 c 4.4 4.3 9.4 8 14.9 11 C 11.9 57.7 7.4 53.7 3.5 49.3 z" stroke-linecap="round" />
</g>
<g transform="matrix(3.13 0 0 3.13 129.64 276.72)" id="creation"  >
<path style="stroke: none; stroke-width: 1; stroke-dasharray: none; stroke-linecap: butt; stroke-dashoffset: 0; stroke-linejoin: miter; stroke-miterlimit: 4; fill: rgb(84,110,122); fill-rule: nonzero; opacity: 1;"  transform=" translate(-9.48, -56.55)" d="M 16.7 61.1 c -5.5 -3 -10.5 -6.7 -14.9 -11 c 0 0.2 0.1 0.4 0.2 0.6 c 4 4.5 8.6 8.6 13.6 12.1 c 0.2 0.1 0.4 0.2 0.6 0.2 c 0.3 0 0.6 -0.1 0.8 -0.4 C 17.3 62.1 17.2 61.5 16.7 61.1 C 16.7 61.1 16.7 61.1 16.7 61.1 z" stroke-linecap="round" />
</g>
<g transform="matrix(3.13 0 0 3.13 135.91 265.94)" id="creation"  >
<path style="stroke: none; stroke-width: 1; stroke-dasharray: none; stroke-linecap: butt; stroke-dashoffset: 0; stroke-linejoin: miter; stroke-miterlimit: 4; fill: rgb(84,110,122); fill-rule: nonzero; opacity: 1;"  transform=" translate(-11.49, -53.1)" d="M 3.1 45.9 c 0 0.2 0.1 0.4 0.2 0.6 c 4.4 5.1 9.5 9.7 15 13.6 c 0.2 0.1 0.4 0.2 0.6 0.2 c 0.3 0 0.6 -0.1 0.8 -0.4 c 0.3 -0.4 0.2 -0.9 -0.1 -1.3 C 13.4 55.2 7.9 50.9 3.1 45.9 z" stroke-linecap="round" />
</g>
<g transform="matrix(3.13 0 0 3.13 135.47 261.48)" id="creation"  >
<path style="stroke: none; stroke-width: 1; stroke-dasharray: none; stroke-linecap: butt; stroke-dashoffset: 0; stroke-linejoin: miter; stroke-miterlimit: 4; fill: rgb(207,216,220); fill-rule: nonzero; opacity: 1;"  transform=" translate(-11.35, -51.67)" d="M 19.6 58.5 c 0 0 -0.1 -0.1 -0.1 -0.1 c -5.4 -3.8 -10.3 -8.2 -14.7 -13.2 c -0.4 -0.4 -1 -0.5 -1.4 -0.1 c -0.2 0.2 -0.3 0.5 -0.3 0.8 C 7.9 50.9 13.4 55.2 19.6 58.5 z" stroke-linecap="round" />
</g>
<g transform="matrix(3.13 0 0 3.13 144.14 257.03)" id="creation"  >
<path style="stroke: none; stroke-width: 1; stroke-dasharray: none; stroke-linecap: butt; stroke-dashoffset: 0; stroke-linejoin: miter; stroke-miterlimit: 4; fill: rgb(84,110,122); fill-rule: nonzero; opacity: 1;"  transform=" translate(-14.13, -50.25)" d="M 5.7 43 c 0 0.3 0 0.6 0.2 0.8 c 4.5 5.1 9.6 9.7 15.1 13.5 c 0.2 0.1 0.4 0.2 0.6 0.2 c 0.3 0 0.6 -0.2 0.8 -0.4 c 0.2 -0.3 0.2 -0.8 0 -1.1 C 16.2 52.6 10.6 48.2 5.7 43 z" stroke-linecap="round" />
</g>
<g transform="matrix(3.13 0 0 3.13 144.22 253.35)" id="creation"  >
<path style="stroke: none; stroke-width: 1; stroke-dasharray: none; stroke-linecap: butt; stroke-dashoffset: 0; stroke-linejoin: miter; stroke-miterlimit: 4; fill: rgb(207,216,220); fill-rule: nonzero; opacity: 1;"  transform=" translate(-14.15, -49.07)" d="M 22.5 56 c -0.1 -0.1 -0.2 -0.2 -0.3 -0.3 c -5.4 -3.7 -10.4 -8.2 -14.7 -13.2 c -0.4 -0.4 -1 -0.5 -1.4 -0.1 c -0.2 0.2 -0.3 0.4 -0.3 0.6 C 10.6 48.2 16.2 52.6 22.5 56 z" stroke-linecap="round" />
</g>
<g transform="matrix(3.13 0 0 3.13 156.13 242.97)" id="creation"  >
<path style="stroke: none; stroke-width: 1; stroke-dasharray: none; stroke-linecap: butt; stroke-dashoffset: 0; stroke-linejoin: miter; stroke-miterlimit: 4; fill: rgb(84,110,122); fill-rule: nonzero; opacity: 1;"  transform=" translate(-17.96, -45.75)" d="M 24.1 54.2 c -0.6 0 -1.2 -0.2 -1.7 -0.6 c -4.5 -3.2 -8.7 -6.9 -12.5 -11 c -1.1 -1.2 -1 -3 0.1 -4.1 l 1.2 -1.2 l 15.6 15.6 l -0.5 0.5 C 25.7 53.9 24.9 54.2 24.1 54.2 z" stroke-linecap="round" />
</g>
<g transform="matrix(3.13 0 0 3.13 159.38 240.63)" id="creation"  >
<path style="stroke: none; stroke-width: 1; stroke-dasharray: none; stroke-linecap: butt; stroke-dashoffset: 0; stroke-linejoin: miter; stroke-miterlimit: 4; fill: rgb(207,216,220); fill-rule: nonzero; opacity: 1;"  transform=" translate(-19, -45)" d="M 27 54 c -0.3 0 -0.5 -0.1 -0.7 -0.3 l -16 -16 c -0.4 -0.4 -0.4 -1 0 -1.4 s 1 -0.4 1.4 0 l 16 16 c 0.4 0.4 0.4 1 0 1.4 C 27.5 53.9 27.3 54 27 54 z" stroke-linecap="round" />
</g>
</svg>