<?xml version="1.0" encoding="UTF-8" standalone="no" ?>
<!DOCTYPE svg PUBLIC "-//W3C//DTD SVG 1.1//EN" "http://www.w3.org/Graphics/SVG/1.1/DTD/svg11.dtd">
<svg xmlns="http://www.w3.org/2000/svg" xmlns:xlink="http://www.w3.org/1999/xlink" version="1.1" width="400" height="400" viewBox="0 0 400 400" xml:space="preserve">
<desc>Created with Fabric.js 3.6.2</desc>
<defs>
</defs>
<g transform="matrix(4.17 0 0 4.17 262.42 156.04)" id="surface1"  >
<path style="stroke: none; stroke-width: 1; stroke-dasharray: none; stroke-linecap: butt; stroke-dashoffset: 0; stroke-linejoin: miter; stroke-miterlimit: 4; fill: rgb(64,196,255); fill-rule: nonzero; opacity: 1;"  transform=" translate(-38.98, -13.45)" d="M 46 20.800781 C 45.898438 20 45.699219 19.199219 44.800781 18.101563 C 44.601563 17.800781 44.300781 17.5 44 17.300781 C 43.699219 17.101563 43.398438 16.800781 43.101563 16.601563 C 42.5 16.101563 41.800781 15.601563 41.101563 15.199219 C 40.398438 14.800781 39.601563 14.300781 38.800781 14 C 38.101563 13.601563 36 12.699219 36 11 C 36 9.898438 36.800781 10 37 10 C 37 10.101563 37 10.101563 37 10.101563 C 36.898438 11.800781 38 12.898438 39.699219 13 C 41.398438 13.101563 42.800781 11.898438 43 10.199219 C 43 10.199219 43 10.199219 43 10.101563 C 43 10.101563 43 10 43 9.898438 C 43 9.699219 43 9.5 43 9.398438 C 43 8.898438 42.898438 5 37.398438 5 C 36.300781 5 35.199219 5.398438 34.101563 6.199219 C 33.601563 6.601563 33.101563 7.101563 32.800781 7.601563 C 32.398438 8.199219 32.199219 8.800781 32.101563 9.398438 C 31.800781 10.601563 32 12 32.601563 13.101563 C 32.800781 13.398438 32.898438 13.699219 33.199219 13.898438 C 33.300781 14 33.601563 14.398438 33.898438 14.5 C 34.398438 14.898438 34.898438 15.199219 35.398438 15.398438 C 36.398438 15.800781 37.300781 16 38.101563 16.199219 C 38.898438 16.398438 39.601563 16.601563 40.398438 16.800781 C 41.101563 17.101563 41.800781 17.398438 42.5 17.699219 C 42.800781 17.898438 43.101563 18 43.398438 18.199219 C 43.699219 18.398438 43.898438 18.5 44.199219 18.699219 C 45.101563 19.5 45.601563 20.101563 45.800781 20.800781 C 45.898438 21.101563 46 21.398438 46 21.601563 C 46 21.800781 46 21.898438 46 21.898438 C 46 21.898438 46 21.800781 46 21.601563 C 46 21.5 46 21.199219 46 20.800781 Z" stroke-linecap="round" />
</g>
<g transform="matrix(4.17 0 0 4.17 179.17 229.17)" id="surface1"  >
<path style="stroke: none; stroke-width: 1; stroke-dasharray: none; stroke-linecap: butt; stroke-dashoffset: 0; stroke-linejoin: miter; stroke-miterlimit: 4; fill: rgb(255,152,0); fill-rule: nonzero; opacity: 1;"  transform=" translate(-19, -31)" d="M 19 28 C 15.101563 28 11 24 11 24 C 11 24 15.101563 20 19 20 C 22.898438 20 27 24 27 24 C 27 24 22.898438 28 19 28 Z M 21 39.199219 C 21 39.101563 21 39.101563 21 39 C 21 37.898438 20.101563 37 19 37 C 17.898438 37 17 37.898438 17 39 C 17 39.101563 17 39.101563 17 39.199219 C 15.300781 39.601563 12 40.5 12 42 L 26 42 C 26 40.601563 22.699219 39.601563 21 39.199219 Z" stroke-linecap="round" />
</g>
<g transform="matrix(4.17 0 0 4.17 199.91 210.42)" id="surface1"  >
<path style="stroke: none; stroke-width: 1; stroke-dasharray: none; stroke-linecap: butt; stroke-dashoffset: 0; stroke-linejoin: miter; stroke-miterlimit: 4; fill: rgb(255,193,7); fill-rule: nonzero; opacity: 1;"  transform=" translate(-23.98, -26.5)" d="M 21 18 C 21 19.101563 20.101563 20 19 20 C 17.898438 20 17 19.101563 17 18 C 17 16.898438 17.898438 16 19 16 C 20.101563 16 21 16.898438 21 18 Z M 48 21 C 48 21 34 37 19 37 C 16 37 13.699219 36.101563 12 34.898438 C 9 34.398438 0 32.199219 0 22 C 0 21.300781 -0.101563 20.601563 0 20 C 0 19.398438 0.398438 19 1 19 C 1.300781 19 1.5 19.101563 1.699219 19.300781 C 3.800781 21.300781 7.5 24 9 24 L 33 24 C 36.398438 24 44 21 44 21 Z M 8.101563 29.699219 C 7.5 28.300781 7.199219 27 7 25.898438 C 7 25.800781 7 25.601563 7 25.5 C 5.300781 24.800781 3.398438 23.300781 2 22.199219 C 2.101563 26.800781 5 28.800781 8.101563 29.699219 Z" stroke-linecap="round" />
</g>
</svg>