<?xml version="1.0" encoding="UTF-8" standalone="no" ?>
<!DOCTYPE svg PUBLIC "-//W3C//DTD SVG 1.1//EN" "http://www.w3.org/Graphics/SVG/1.1/DTD/svg11.dtd">
<svg xmlns="http://www.w3.org/2000/svg" xmlns:xlink="http://www.w3.org/1999/xlink" version="1.1" width="400" height="400" viewBox="0 0 400 400" xml:space="preserve">
<desc>Created with Fabric.js 3.6.2</desc>
<defs>
</defs>
<g transform="matrix(2.67 0 0 2.67 200 267.76)" id="Layer_1"  >
<path style="stroke: none; stroke-width: 1; stroke-dasharray: none; stroke-linecap: butt; stroke-dashoffset: 0; stroke-linejoin: miter; stroke-miterlimit: 4; fill: rgb(12,175,175); fill-rule: nonzero; opacity: 1;"  transform=" translate(-37.5, -62.91)" d="M 18.129 57.144 c 3.73 6.867 11.006 11.529 19.371 11.529 c 8.363 0 15.641 -4.662 19.371 -11.529 H 18.129 z" stroke-linecap="round" />
</g>
<g transform="matrix(2.67 0 0 2.67 200 267.76)" id="Layer_1"  >
<path style="stroke: none; stroke-width: 1; stroke-dasharray: none; stroke-linecap: butt; stroke-dashoffset: 0; stroke-linejoin: miter; stroke-miterlimit: 4; fill: rgb(16,155,173); fill-rule: nonzero; opacity: 1;"  transform=" translate(-37.5, -62.91)" d="M 25.611 57.144 C 27.9 64.011 32.365 68.673 37.5 68.673 c 5.133 0 9.6 -4.662 11.889 -11.529 H 25.611 z" stroke-linecap="round" />
</g>
<g transform="matrix(2.67 0 0 2.67 200 210.61)" id="Layer_1"  >
<polygon style="stroke: none; stroke-width: 1; stroke-dasharray: none; stroke-linecap: butt; stroke-dashoffset: 0; stroke-linejoin: miter; stroke-miterlimit: 4; fill: rgb(188,42,84); fill-rule: nonzero; opacity: 1;"  points="7.91,15.67 -7.91,15.67 -7.91,-8.45 7.91,-15.67 " />
</g>
<g transform="matrix(2.67 0 0 2.67 200 194.83)" id="Layer_1"  >
<polygon style="stroke: none; stroke-width: 1; stroke-dasharray: none; stroke-linecap: butt; stroke-dashoffset: 0; stroke-linejoin: miter; stroke-miterlimit: 4; fill: rgb(240,250,255); fill-rule: nonzero; opacity: 1;"  points="-7.91,9.75 7.91,-6.06 7.91,-9.75 2.85,-7.45 -7.91,3.31 " />
</g>
<g transform="matrix(2.67 0 0 2.67 200 219.45)" id="Layer_1"  >
<polygon style="stroke: none; stroke-width: 1; stroke-dasharray: none; stroke-linecap: butt; stroke-dashoffset: 0; stroke-linejoin: miter; stroke-miterlimit: 4; fill: rgb(240,250,255); fill-rule: nonzero; opacity: 1;"  points="-7.91,11.13 7.91,-4.69 7.91,-11.13 -7.91,4.69 " />
</g>
<g transform="matrix(2.67 0 0 2.67 203.93 235.22)" id="Layer_1"  >
<polygon style="stroke: none; stroke-width: 1; stroke-dasharray: none; stroke-linecap: butt; stroke-dashoffset: 0; stroke-linejoin: miter; stroke-miterlimit: 4; fill: rgb(240,250,255); fill-rule: nonzero; opacity: 1;"  points="0.01,6.44 6.44,0.01 6.44,-6.44 -6.44,6.44 " />
</g>
<g transform="matrix(2.67 0 0 2.67 200 141.24)" id="Layer_1"  >
<path style="stroke: none; stroke-width: 1; stroke-dasharray: none; stroke-linecap: butt; stroke-dashoffset: 0; stroke-linejoin: miter; stroke-miterlimit: 4; fill: rgb(234,184,24); fill-rule: nonzero; opacity: 1;"  transform=" translate(-37.5, -15.46)" d="M 37.5 6.327 c -3.631 1.449 -6.199 4.99 -6.199 9.137 s 2.568 7.688 6.199 9.137 c 3.629 -1.449 6.199 -4.99 6.199 -9.137 S 41.129 7.776 37.5 6.327 z" stroke-linecap="round" />
</g>
<g transform="matrix(2.67 0 0 2.67 200 151.81)" id="Layer_1"  >
<path style="stroke: none; stroke-width: 1; stroke-dasharray: none; stroke-linecap: butt; stroke-dashoffset: 0; stroke-linejoin: miter; stroke-miterlimit: 4; fill: rgb(237,144,21); fill-rule: nonzero; opacity: 1;"  transform=" translate(-37.5, -19.43)" d="M 37.5 14.255 c -2.057 0.82 -3.51 2.824 -3.51 5.174 c 0 2.348 1.453 4.352 3.51 5.172 c 2.055 -0.82 3.51 -2.824 3.51 -5.172 C 41.01 17.079 39.555 15.075 37.5 14.255 z" stroke-linecap="round" />
</g>
</svg>