<?xml version="1.0" encoding="UTF-8" standalone="no" ?>
<!DOCTYPE svg PUBLIC "-//W3C//DTD SVG 1.1//EN" "http://www.w3.org/Graphics/SVG/1.1/DTD/svg11.dtd">
<svg xmlns="http://www.w3.org/2000/svg" xmlns:xlink="http://www.w3.org/1999/xlink" version="1.1" width="400" height="400" viewBox="0 0 400 400" xml:space="preserve">
<desc>Created with Fabric.js 3.6.2</desc>
<defs>
</defs>
<g transform="matrix(0.39 0 0 0.39 147.96 148.68)" id="_x36_35_x2C__candle_x2C__light_x2C__wedding_x2C__love"  >
<path style="stroke: none; stroke-width: 1; stroke-dasharray: none; stroke-linecap: butt; stroke-dashoffset: 0; stroke-linejoin: miter; stroke-miterlimit: 4; fill: rgb(243,78,45); fill-rule: nonzero; opacity: 1;"  transform=" translate(-122.77, -124.61)" d="M 136.647 124.61 c 0 7.36 -6.229 13.59 -14.16 13.59 c -7.359 0 -13.59 -6.23 -13.59 -13.59 s 6.23 -13.59 13.59 -13.59 C 130.418 111.02 136.647 117.25 136.647 124.61 z" stroke-linecap="round" />
</g>
<g transform="matrix(0.39 0 0 0.39 147.94 148.07)" id="_x36_35_x2C__candle_x2C__light_x2C__wedding_x2C__love"  >
<path style="stroke: none; stroke-width: 1; stroke-dasharray: none; stroke-linecap: butt; stroke-dashoffset: 0; stroke-linejoin: miter; stroke-miterlimit: 4; fill: rgb(224,61,34); fill-rule: nonzero; opacity: 1;"  transform=" translate(-122.74, -123.06)" d="M 113.897 133.67 c 0 -7.36 6.23 -13.59 13.59 -13.59 c 3.487 0 6.645 1.207 9.09 3.183 c -0.705 -6.757 -6.648 -12.243 -14.09 -12.243 c -7.359 0 -13.59 6.23 -13.59 13.59 c 0 4.174 2.007 7.981 5.083 10.498 C 113.929 134.634 113.897 134.155 113.897 133.67 z" stroke-linecap="round" />
</g>
<g transform="matrix(0.39 0 0 0.39 203 161.96)" id="_x36_35_x2C__candle_x2C__light_x2C__wedding_x2C__love"  >
<path style="stroke: none; stroke-width: 1; stroke-dasharray: none; stroke-linecap: butt; stroke-dashoffset: 0; stroke-linejoin: miter; stroke-miterlimit: 4; fill: rgb(251,177,79); fill-rule: nonzero; opacity: 1;"  transform=" translate(-263.69, -158.61)" d="M 308.998 173.53 c 0 33.07 -20.32 59.85 -45.3 59.85 c -25.07 0 -45.311 -26.78 -45.311 -59.85 c 0 -36.98 29.5 -55.6 47.721 -89.69 C 281.448 116.31 308.998 140.97 308.998 173.53 z" stroke-linecap="round" />
</g>
<g transform="matrix(0.39 0 0 0.39 196.07 159.66)" id="_x36_35_x2C__candle_x2C__light_x2C__wedding_x2C__love"  >
<path style="stroke: none; stroke-width: 1; stroke-dasharray: none; stroke-linecap: butt; stroke-dashoffset: 0; stroke-linejoin: miter; stroke-miterlimit: 4; fill: rgb(224,151,63); fill-rule: nonzero; opacity: 1;"  transform=" translate(-245.95, -152.74)" d="M 227.162 184.863 c 0 -36.071 28.063 -54.681 46.353 -87.211 c -2.646 -4.47 -5.159 -9.055 -7.406 -13.812 c -18.221 34.09 -47.721 52.71 -47.721 89.69 c 0 19.723 7.201 37.204 18.331 48.106 C 230.733 211.49 227.162 198.735 227.162 184.863 z" stroke-linecap="round" />
</g>
<g transform="matrix(0.39 0 0 0.39 202.71 246.78)" id="_x36_35_x2C__candle_x2C__light_x2C__wedding_x2C__love"  >
<path style="stroke: none; stroke-width: 1; stroke-dasharray: none; stroke-linecap: butt; stroke-dashoffset: 0; stroke-linejoin: miter; stroke-miterlimit: 4; fill: rgb(239,62,92); fill-rule: nonzero; opacity: 1;"  transform=" translate(-262.94, -375.75)" d="M 331.138 298.76 h 10.49 c 2.36 0 4.63 -0.391 6.75 -1.1 v 153.6 c 0 12.27 -10.07 22.211 -22.49 22.211 h -125.9 c -0.14 0 -0.29 0 -0.43 -0.012 c -12.22 -0.219 -22.05 -10.068 -22.05 -22.199 V 328.75 c 2.11 0.709 4.38 1.1 6.74 1.1 c 11.59 0 20.979 -9.279 20.979 -20.73 v 41.461 c 0 11.449 9.4 20.73 20.99 20.73 h 10.49 c 11.59 0 20.99 -9.281 20.99 -20.73 v -20.73 c 0 11.451 9.39 20.73 20.979 20.73 h 10.49 c 11.59 0 20.99 -9.279 20.99 -20.73 v -51.82 C 310.158 289.48 319.548 298.76 331.138 298.76 z" stroke-linecap="round" />
</g>
<g transform="matrix(0.39 0 0 0.39 174.75 252.55)" id="_x36_35_x2C__candle_x2C__light_x2C__wedding_x2C__love"  >
<path style="stroke: none; stroke-width: 1; stroke-dasharray: none; stroke-linecap: butt; stroke-dashoffset: 0; stroke-linejoin: miter; stroke-miterlimit: 4; fill: rgb(228,42,83); fill-rule: nonzero; opacity: 1;"  transform=" translate(-191.37, -390.53)" d="M 187.008 458.26 V 335.75 c 2.11 0.709 4.38 1.1 6.74 1.1 c 4.24 0 8.181 -1.252 11.479 -3.389 v -24.342 c 0 11.451 -9.39 20.73 -20.979 20.73 c -2.36 0 -4.63 -0.391 -6.74 -1.1 v 122.51 c 0 9.408 5.915 17.441 14.271 20.678 C 188.792 468.168 187.008 463.422 187.008 458.26 z" stroke-linecap="round" />
</g>
<g transform="matrix(0.39 0 0 0.39 202.71 220.75)" id="_x36_35_x2C__candle_x2C__light_x2C__wedding_x2C__love"  >
<path style="stroke: none; stroke-width: 1; stroke-dasharray: none; stroke-linecap: butt; stroke-dashoffset: 0; stroke-linejoin: miter; stroke-miterlimit: 4; fill: rgb(211,0,69); fill-rule: nonzero; opacity: 1;"  transform=" translate(-262.94, -309.13)" d="M 362.608 246.94 v 31.089 c 0 9.121 -5.95 16.85 -14.23 19.631 c -2.12 0.709 -4.39 1.1 -6.75 1.1 h -10.49 c -11.59 0 -20.979 -9.279 -20.979 -20.73 v 51.82 c 0 11.451 -9.4 20.73 -20.99 20.73 h -10.49 c -11.59 0 -20.979 -9.279 -20.979 -20.73 v 20.73 c 0 11.449 -9.4 20.73 -20.99 20.73 h -10.49 c -11.59 0 -20.99 -9.281 -20.99 -20.73 v -41.461 c 0 11.451 -9.39 20.73 -20.979 20.73 c -2.36 0 -4.63 -0.391 -6.74 -1.1 c -8.28 -2.77 -14.24 -10.51 -14.24 -19.631 V 246.94 h 14.24 h 27.72 h 52.471 h 52.46 h 38.22 H 362.608 z" stroke-linecap="round" />
</g>
<g transform="matrix(0.39 0 0 0.39 202.71 212.18)" id="_x36_35_x2C__candle_x2C__light_x2C__wedding_x2C__love"  >
<path style="stroke: none; stroke-width: 1; stroke-dasharray: none; stroke-linecap: butt; stroke-dashoffset: 0; stroke-linejoin: miter; stroke-miterlimit: 4; fill: rgb(175,9,69); fill-rule: nonzero; opacity: 1;"  transform=" translate(-262.94, -287.17)" d="M 172.328 318.5 v -62.18 h 14.239 h 27.721 h 52.471 h 52.459 h 38.221 h 5.17 v -9.38 h -14.23 h -38.22 h -52.46 h -52.471 h -27.72 h -14.24 v 62.179 c 0 7.922 4.499 14.797 11.105 18.283 C 173.07 324.703 172.328 321.689 172.328 318.5 z" stroke-linecap="round" />
</g>
<g transform="matrix(0.39 0 0 0.39 204.48 118.59)" id="_x36_35_x2C__candle_x2C__light_x2C__wedding_x2C__love"  >
<path style="stroke: none; stroke-width: 1; stroke-dasharray: none; stroke-linecap: butt; stroke-dashoffset: 0; stroke-linejoin: miter; stroke-miterlimit: 4; fill: rgb(251,177,79); fill-rule: nonzero; opacity: 1;"  transform=" translate(-267.47, -47.59)" d="M 267.468 61.65 c -2.762 0 -5 -2.239 -5 -5 V 38.53 c 0 -2.761 2.238 -5 5 -5 s 5 2.239 5 5 v 18.12 C 272.468 59.411 270.229 61.65 267.468 61.65 z" stroke-linecap="round" />
</g>
<g transform="matrix(0.39 0 0 0.39 231.11 140.69)" id="_x36_35_x2C__candle_x2C__light_x2C__wedding_x2C__love"  >
<path style="stroke: none; stroke-width: 1; stroke-dasharray: none; stroke-linecap: butt; stroke-dashoffset: 0; stroke-linejoin: miter; stroke-miterlimit: 4; fill: rgb(251,177,79); fill-rule: nonzero; opacity: 1;"  transform=" translate(-335.64, -104.17)" d="M 326.792 116.02 c -1.494 0 -2.972 -0.666 -3.957 -1.938 c -1.69 -2.184 -1.292 -5.324 0.892 -7.015 l 17.7 -13.71 c 2.182 -1.69 5.324 -1.291 7.015 0.891 c 1.69 2.184 1.292 5.324 -0.892 7.015 l -17.7 13.71 C 328.939 115.678 327.861 116.02 326.792 116.02 z" stroke-linecap="round" />
</g>
<g transform="matrix(0.39 0 0 0.39 177.85 140.69)" id="_x36_35_x2C__candle_x2C__light_x2C__wedding_x2C__love"  >
<path style="stroke: none; stroke-width: 1; stroke-dasharray: none; stroke-linecap: butt; stroke-dashoffset: 0; stroke-linejoin: miter; stroke-miterlimit: 4; fill: rgb(251,177,79); fill-rule: nonzero; opacity: 1;"  transform=" translate(-199.3, -104.17)" d="M 208.154 116.02 c -1.069 0 -2.146 -0.341 -3.058 -1.046 l -17.71 -13.71 c -2.184 -1.69 -2.583 -4.831 -0.893 -7.014 c 1.689 -2.184 4.831 -2.583 7.014 -0.893 l 17.71 13.71 c 2.184 1.69 2.584 4.831 0.894 7.014 C 211.126 115.354 209.647 116.02 208.154 116.02 z" stroke-linecap="round" />
</g>
<g transform="matrix(0.39 0 0 0.39 218.37 128.98)" id="_x36_35_x2C__candle_x2C__light_x2C__wedding_x2C__love"  >
<path style="stroke: none; stroke-width: 1; stroke-dasharray: none; stroke-linecap: butt; stroke-dashoffset: 0; stroke-linejoin: miter; stroke-miterlimit: 4; fill: rgb(251,177,79); fill-rule: nonzero; opacity: 1;"  transform=" translate(-303.03, -74.18)" d="M 299.925 86.241 c -0.672 0 -1.354 -0.136 -2.009 -0.424 c -2.528 -1.111 -3.677 -4.061 -2.565 -6.589 l 6.2 -14.11 c 1.111 -2.527 4.058 -3.677 6.589 -2.566 c 2.528 1.111 3.677 4.061 2.565 6.589 l -6.2 14.11 C 303.682 85.125 301.849 86.241 299.925 86.241 z" stroke-linecap="round" />
</g>
<g transform="matrix(0.39 0 0 0.39 190.48 128.98)" id="_x36_35_x2C__candle_x2C__light_x2C__wedding_x2C__love"  >
<path style="stroke: none; stroke-width: 1; stroke-dasharray: none; stroke-linecap: butt; stroke-dashoffset: 0; stroke-linejoin: miter; stroke-miterlimit: 4; fill: rgb(251,177,79); fill-rule: nonzero; opacity: 1;"  transform=" translate(-231.62, -74.18)" d="M 234.72 86.241 c -1.923 0 -3.757 -1.116 -4.58 -2.99 l -6.199 -14.11 c -1.111 -2.528 0.038 -5.478 2.566 -6.589 c 2.525 -1.112 5.478 0.038 6.589 2.566 l 6.199 14.11 c 1.111 2.528 -0.038 5.478 -2.566 6.589 C 236.074 86.105 235.392 86.241 234.72 86.241 z" stroke-linecap="round" />
</g>
<g transform="matrix(0.39 0 0 0.39 140.58 194.51)" id="_x36_35_x2C__candle_x2C__light_x2C__wedding_x2C__love"  >
<path style="stroke: none; stroke-width: 1; stroke-dasharray: none; stroke-linecap: butt; stroke-dashoffset: 0; stroke-linejoin: miter; stroke-miterlimit: 4; fill: rgb(243,78,45); fill-rule: nonzero; opacity: 1;"  transform=" translate(-103.9, -241.94)" d="M 117.772 241.94 c 0 7.36 -6.229 13.59 -14.16 13.59 c -7.359 0 -13.59 -6.23 -13.59 -13.59 s 6.23 -13.59 13.59 -13.59 C 111.543 228.35 117.772 234.58 117.772 241.94 z" stroke-linecap="round" />
</g>
<g transform="matrix(0.39 0 0 0.39 140.57 193.9)" id="_x36_35_x2C__candle_x2C__light_x2C__wedding_x2C__love"  >
<path style="stroke: none; stroke-width: 1; stroke-dasharray: none; stroke-linecap: butt; stroke-dashoffset: 0; stroke-linejoin: miter; stroke-miterlimit: 4; fill: rgb(224,61,34); fill-rule: nonzero; opacity: 1;"  transform=" translate(-103.86, -240.39)" d="M 95.022 251 c 0 -7.36 6.23 -13.59 13.59 -13.59 c 3.487 0 6.645 1.207 9.09 3.183 c -0.705 -6.757 -6.648 -12.243 -14.09 -12.243 c -7.359 0 -13.59 6.23 -13.59 13.59 c 0 4.174 2.007 7.981 5.083 10.498 C 95.054 251.964 95.022 251.485 95.022 251 z" stroke-linecap="round" />
</g>
<g transform="matrix(0.39 0 0 0.39 250.97 182.88)" id="_x36_35_x2C__candle_x2C__light_x2C__wedding_x2C__love"  >
<path style="stroke: none; stroke-width: 1; stroke-dasharray: none; stroke-linecap: butt; stroke-dashoffset: 0; stroke-linejoin: miter; stroke-miterlimit: 4; fill: rgb(243,78,45); fill-rule: nonzero; opacity: 1;"  transform=" translate(-386.48, -212.16)" d="M 400.358 212.16 c 0 7.36 -6.23 13.59 -14.16 13.59 c -7.359 0 -13.59 -6.23 -13.59 -13.59 s 6.23 -13.59 13.59 -13.59 C 394.128 198.57 400.358 204.8 400.358 212.16 z" stroke-linecap="round" />
</g>
<g transform="matrix(0.39 0 0 0.39 250.96 182.27)" id="_x36_35_x2C__candle_x2C__light_x2C__wedding_x2C__love"  >
<path style="stroke: none; stroke-width: 1; stroke-dasharray: none; stroke-linecap: butt; stroke-dashoffset: 0; stroke-linejoin: miter; stroke-miterlimit: 4; fill: rgb(224,61,34); fill-rule: nonzero; opacity: 1;"  transform=" translate(-386.45, -210.61)" d="M 377.608 221.22 c 0 -7.36 6.23 -13.59 13.59 -13.59 c 3.487 0 6.645 1.207 9.09 3.183 c -0.705 -6.757 -6.648 -12.243 -14.09 -12.243 c -7.359 0 -13.59 6.23 -13.59 13.59 c 0 4.174 2.006 7.981 5.083 10.498 C 377.64 222.184 377.608 221.705 377.608 221.22 z" stroke-linecap="round" />
</g>
<g transform="matrix(0.39 0 0 0.39 199.18 252.55)" id="_x36_35_x2C__candle_x2C__light_x2C__wedding_x2C__love"  >
<path style="stroke: none; stroke-width: 1; stroke-dasharray: none; stroke-linecap: butt; stroke-dashoffset: 0; stroke-linejoin: miter; stroke-miterlimit: 4; fill: rgb(228,42,83); fill-rule: nonzero; opacity: 1;"  transform=" translate(-253.89, -390.53)" d="M 185.926 413.65 c -2.21 0 -4.231 -1.477 -4.827 -3.713 c -0.712 -2.668 0.874 -5.408 3.543 -6.119 l 135.92 -36.24 c 2.671 -0.713 5.407 0.875 6.119 3.543 s -0.875 5.408 -3.543 6.119 l -135.92 36.24 C 186.786 413.596 186.353 413.65 185.926 413.65 z" stroke-linecap="round" />
</g>
<g transform="matrix(0.39 0 0 0.39 202.71 265.48)" id="_x36_35_x2C__candle_x2C__light_x2C__wedding_x2C__love"  >
<path style="stroke: none; stroke-width: 1; stroke-dasharray: none; stroke-linecap: butt; stroke-dashoffset: 0; stroke-linejoin: miter; stroke-miterlimit: 4; fill: rgb(228,42,83); fill-rule: nonzero; opacity: 1;"  transform=" translate(-262.94, -423.63)" d="M 183.377 450.615 c -2.137 0 -4.097 -1.414 -4.696 -3.574 c -0.722 -2.596 0.798 -5.283 3.394 -6.004 l 159.116 -44.203 c 2.589 -0.725 5.284 0.797 6.005 3.395 c 0.721 2.596 -0.799 5.283 -3.395 6.004 l -159.115 44.203 C 184.249 450.557 183.81 450.615 183.377 450.615 z" stroke-linecap="round" />
</g>
<g transform="matrix(0.39 0 0 0.39 199.18 279.64)" id="_x36_35_x2C__candle_x2C__light_x2C__wedding_x2C__love"  >
<path style="stroke: none; stroke-width: 1; stroke-dasharray: none; stroke-linecap: butt; stroke-dashoffset: 0; stroke-linejoin: miter; stroke-miterlimit: 4; fill: rgb(228,42,83); fill-rule: nonzero; opacity: 1;"  transform=" translate(-253.89, -459.87)" d="M 199.55 478.461 c -2.313 0 -4.405 -1.604 -4.907 -3.951 c -0.573 -2.688 1.104 -5.328 3.782 -5.922 l 108.61 -27.148 c 2.679 -0.672 5.395 0.959 6.063 3.637 c 0.67 2.68 -0.959 5.395 -3.638 6.064 l -108.69 27.17 c -0.056 0.014 -0.112 0.027 -0.168 0.039 C 200.25 478.424 199.896 478.461 199.55 478.461 z" stroke-linecap="round" />
</g>
<g transform="matrix(0.39 0 0 0.39 204.48 284.95)" id="_x36_35_x2C__candle_x2C__light_x2C__wedding_x2C__love"  >
<path style="stroke: none; stroke-width: 1; stroke-dasharray: none; stroke-linecap: butt; stroke-dashoffset: 0; stroke-linejoin: miter; stroke-miterlimit: 4; fill: rgb(239,62,92); fill-rule: nonzero; opacity: 1;"  transform=" translate(-267.47, -473.47)" d="M 416.978 478.471 h -299.02 c -2.762 0 -5 -2.238 -5 -5 s 2.238 -5 5 -5 h 299.02 c 2.762 0 5 2.238 5 5 S 419.739 478.471 416.978 478.471 z" stroke-linecap="round" />
</g>
</svg>