<?xml version="1.0" encoding="UTF-8" standalone="no" ?>
<!DOCTYPE svg PUBLIC "-//W3C//DTD SVG 1.1//EN" "http://www.w3.org/Graphics/SVG/1.1/DTD/svg11.dtd">
<svg xmlns="http://www.w3.org/2000/svg" xmlns:xlink="http://www.w3.org/1999/xlink" version="1.1" width="400" height="400" viewBox="0 0 400 400" xml:space="preserve">
<desc>Created with Fabric.js 3.6.2</desc>
<defs>
</defs>
<g transform="matrix(0.39 0 0 0.39 153.67 159.29)" id="_x36_04_x2C__Candle_x2C__dark_x2C__light_x2C__lighter_x2C__shine"  >
<path style="stroke: none; stroke-width: 1; stroke-dasharray: none; stroke-linecap: butt; stroke-dashoffset: 0; stroke-linejoin: miter; stroke-miterlimit: 4; fill: rgb(239,62,92); fill-rule: nonzero; opacity: 1;"  transform=" translate(-137.41, -151.79)" d="M 137.12 138.2 c 7.93 0 14.16 6.23 14.16 13.6 c 0 7.36 -6.23 13.59 -14.16 13.59 c -7.36 0 -13.59 -6.23 -13.59 -13.59 C 123.53 144.43 129.76 138.2 137.12 138.2 z" stroke-linecap="round" />
</g>
<g transform="matrix(0.39 0 0 0.39 153.67 158.68)" id="_x36_04_x2C__Candle_x2C__dark_x2C__light_x2C__lighter_x2C__shine"  >
<path style="stroke: none; stroke-width: 1; stroke-dasharray: none; stroke-linecap: butt; stroke-dashoffset: 0; stroke-linejoin: miter; stroke-miterlimit: 4; fill: rgb(228,42,83); fill-rule: nonzero; opacity: 1;"  transform=" translate(-137.41, -150.23)" d="M 142.12 149.2 c 3.506 0 6.677 1.221 9.127 3.217 c 0.01 -0.206 0.033 -0.409 0.033 -0.617 c 0 -7.37 -6.23 -13.6 -14.16 -13.6 c -7.36 0 -13.59 6.23 -13.59 13.6 c 0 4.15 1.981 7.939 5.028 10.457 C 128.857 155.127 134.942 149.2 142.12 149.2 z" stroke-linecap="round" />
</g>
<g transform="matrix(0.39 0 0 0.39 247.67 180.53)" id="_x36_04_x2C__Candle_x2C__dark_x2C__light_x2C__lighter_x2C__shine"  >
<path style="stroke: none; stroke-width: 1; stroke-dasharray: none; stroke-linecap: butt; stroke-dashoffset: 0; stroke-linejoin: miter; stroke-miterlimit: 4; fill: rgb(239,62,92); fill-rule: nonzero; opacity: 1;"  transform=" translate(-378.05, -206.16)" d="M 377.76 192.57 c 7.931 0 14.16 6.23 14.16 13.59 c 0 7.36 -6.229 13.59 -14.16 13.59 c -7.359 0 -13.59 -6.23 -13.59 -13.59 C 364.17 198.8 370.4 192.57 377.76 192.57 z" stroke-linecap="round" />
</g>
<g transform="matrix(0.39 0 0 0.39 247.67 179.92)" id="_x36_04_x2C__Candle_x2C__dark_x2C__light_x2C__lighter_x2C__shine"  >
<path style="stroke: none; stroke-width: 1; stroke-dasharray: none; stroke-linecap: butt; stroke-dashoffset: 0; stroke-linejoin: miter; stroke-miterlimit: 4; fill: rgb(228,42,83); fill-rule: nonzero; opacity: 1;"  transform=" translate(-378.05, -204.59)" d="M 382.76 203.57 c 3.507 0 6.678 1.221 9.127 3.216 c 0.011 -0.209 0.033 -0.415 0.033 -0.626 c 0 -7.36 -6.229 -13.59 -14.16 -13.59 c -7.359 0 -13.59 6.23 -13.59 13.59 c 0 4.15 1.981 7.939 5.028 10.457 C 369.497 209.498 375.583 203.57 382.76 203.57 z" stroke-linecap="round" />
</g>
<g transform="matrix(0.39 0 0 0.39 171.68 231.84)" id="_x36_04_x2C__Candle_x2C__dark_x2C__light_x2C__lighter_x2C__shine"  >
<path style="stroke: none; stroke-width: 1; stroke-dasharray: none; stroke-linecap: butt; stroke-dashoffset: 0; stroke-linejoin: miter; stroke-miterlimit: 4; fill: rgb(239,62,92); fill-rule: nonzero; opacity: 1;"  transform=" translate(-183.51, -337.51)" d="M 256 256 v 72.49 h -53.57 c -5.45 0 -9.86 4.41 -9.86 9.85 v 26.391 v 44.52 c 0 5.01 3.74 9.15 8.59 9.77 c -50.12 -1.99 -90.14 -43.24 -90.14 -93.85 V 256 H 256 z" stroke-linecap="round" />
</g>
<g transform="matrix(0.39 0 0 0.39 171.68 226.77)" id="_x36_04_x2C__Candle_x2C__dark_x2C__light_x2C__lighter_x2C__shine"  >
<path style="stroke: none; stroke-width: 1; stroke-dasharray: none; stroke-linecap: butt; stroke-dashoffset: 0; stroke-linejoin: miter; stroke-miterlimit: 4; fill: rgb(228,42,83); fill-rule: nonzero; opacity: 1;"  transform=" translate(-183.51, -324.53)" d="M 120.08 335.17 V 266 H 256 v -10 H 111.02 v 69.17 c 0 26.695 11.139 50.785 29.018 67.883 C 127.537 377.102 120.08 357.01 120.08 335.17 z" stroke-linecap="round" />
</g>
<g transform="matrix(0.39 0 0 0.39 228.32 231.84)" id="_x36_04_x2C__Candle_x2C__dark_x2C__light_x2C__lighter_x2C__shine"  >
<path style="stroke: none; stroke-width: 1; stroke-dasharray: none; stroke-linecap: butt; stroke-dashoffset: 0; stroke-linejoin: miter; stroke-miterlimit: 4; fill: rgb(239,62,92); fill-rule: nonzero; opacity: 1;"  transform=" translate(-328.49, -337.51)" d="M 400.98 256 v 69.17 c 0 50.609 -40.021 91.859 -90.141 93.85 c 4.851 -0.619 8.59 -4.76 8.59 -9.77 v -70.91 c 0 -5.439 -4.41 -9.85 -9.859 -9.85 H 256 V 256 H 400.98 z" stroke-linecap="round" />
</g>
<g transform="matrix(0.39 0 0 0.39 228.32 214.16)" id="_x36_04_x2C__Candle_x2C__dark_x2C__light_x2C__lighter_x2C__shine"  >
<polygon style="stroke: none; stroke-width: 1; stroke-dasharray: none; stroke-linecap: butt; stroke-dashoffset: 0; stroke-linejoin: miter; stroke-miterlimit: 4; fill: rgb(221,58,94); fill-rule: nonzero; opacity: 1;"  points="-64.26,-26.25 72.49,-26.25 72.49,-36.25 -72.49,-36.25 -72.49,36.25 -64.26,36.25 " />
</g>
<g transform="matrix(0.39 0 0 0.39 200 214.16)" id="_x36_04_x2C__Candle_x2C__dark_x2C__light_x2C__lighter_x2C__shine"  >
<path style="stroke: none; stroke-width: 1; stroke-dasharray: none; stroke-linecap: butt; stroke-dashoffset: 0; stroke-linejoin: miter; stroke-miterlimit: 4; fill: rgb(255,255,255); fill-rule: nonzero; opacity: 1;"  transform=" translate(-256, -292.25)" d="M 256 333.49 c -2.761 0 -5 -2.238 -5 -5 V 256 c 0 -2.761 2.239 -5 5 -5 c 2.762 0 5 2.239 5 5 v 72.49 C 261 331.252 258.762 333.49 256 333.49 z" stroke-linecap="round" />
</g>
<g transform="matrix(0.39 0 0 0.39 217.7 148.68)" id="_x36_04_x2C__Candle_x2C__dark_x2C__light_x2C__lighter_x2C__shine"  >
<path style="stroke: none; stroke-width: 1; stroke-dasharray: none; stroke-linecap: butt; stroke-dashoffset: 0; stroke-linejoin: miter; stroke-miterlimit: 4; fill: rgb(255,209,92); fill-rule: nonzero; opacity: 1;"  transform=" translate(-301.31, -124.61)" d="M 301.31 143.2 c -2.762 0 -5 -2.239 -5 -5 v -27.18 c 0 -2.761 2.238 -5 5 -5 s 5 2.239 5 5 v 27.18 C 306.31 140.961 304.071 143.2 301.31 143.2 z" stroke-linecap="round" />
</g>
<g transform="matrix(0.39 0 0 0.39 182.3 145.14)" id="_x36_04_x2C__Candle_x2C__dark_x2C__light_x2C__lighter_x2C__shine"  >
<path style="stroke: none; stroke-width: 1; stroke-dasharray: none; stroke-linecap: butt; stroke-dashoffset: 0; stroke-linejoin: miter; stroke-miterlimit: 4; fill: rgb(255,209,92); fill-rule: nonzero; opacity: 1;"  transform=" translate(-210.69, -115.55)" d="M 210.69 143.2 c -2.761 0 -5 -2.239 -5 -5 V 92.9 c 0 -2.761 2.239 -5 5 -5 s 5 2.239 5 5 v 45.3 C 215.69 140.961 213.451 143.2 210.69 143.2 z" stroke-linecap="round" />
</g>
<g transform="matrix(0.39 0 0 0.39 171.68 161.06)" id="_x36_04_x2C__Candle_x2C__dark_x2C__light_x2C__lighter_x2C__shine"  >
<path style="stroke: none; stroke-width: 1; stroke-dasharray: none; stroke-linecap: butt; stroke-dashoffset: 0; stroke-linejoin: miter; stroke-miterlimit: 4; fill: rgb(255,209,92); fill-rule: nonzero; opacity: 1;"  transform=" translate(-183.51, -156.32)" d="M 183.51 179.45 c -2.761 0 -5 -2.239 -5 -5 V 138.2 c 0 -2.761 2.239 -5 5 -5 s 5 2.239 5 5 v 36.25 C 188.51 177.211 186.271 179.45 183.51 179.45 z" stroke-linecap="round" />
</g>
<g transform="matrix(0.39 0 0 0.39 200 176.63)" id="_x36_04_x2C__Candle_x2C__dark_x2C__light_x2C__lighter_x2C__shine"  >
<path style="stroke: none; stroke-width: 1; stroke-dasharray: none; stroke-linecap: butt; stroke-dashoffset: 0; stroke-linejoin: miter; stroke-miterlimit: 4; fill: rgb(255,209,92); fill-rule: nonzero; opacity: 1;"  transform=" translate(-256, -196.19)" d="M 292.25 208.12 c 0 26.46 -16.26 47.88 -36.25 47.88 c -20.05 0 -36.25 -21.42 -36.25 -47.88 c 0 -29.59 23.61 -44.48 38.18 -71.75 C 270.2 162.35 292.25 182.07 292.25 208.12 z" stroke-linecap="round" />
</g>
<g transform="matrix(0.39 0 0 0.39 194.53 175.99)" id="_x36_04_x2C__Candle_x2C__dark_x2C__light_x2C__lighter_x2C__shine"  >
<path style="stroke: none; stroke-width: 1; stroke-dasharray: none; stroke-linecap: butt; stroke-dashoffset: 0; stroke-linejoin: miter; stroke-miterlimit: 4; fill: rgb(226,179,75); fill-rule: nonzero; opacity: 1;"  transform=" translate(-241.99, -194.53)" d="M 228.81 214.95 c 0 -27.785 20.816 -42.61 35.419 -66.894 c -2.256 -3.776 -4.396 -7.656 -6.299 -11.687 c -14.57 27.27 -38.18 42.16 -38.18 71.75 c 0 20.285 9.526 37.596 23.004 44.576 C 234.265 243.936 228.81 230.295 228.81 214.95 z" stroke-linecap="round" />
</g>
<g transform="matrix(0.39 0 0 0.39 200 246.01)" id="_x36_04_x2C__Candle_x2C__dark_x2C__light_x2C__lighter_x2C__shine"  >
<path style="stroke: none; stroke-width: 1; stroke-dasharray: none; stroke-linecap: butt; stroke-dashoffset: 0; stroke-linejoin: miter; stroke-miterlimit: 4; fill: rgb(116,54,41); fill-rule: nonzero; opacity: 1;"  transform=" translate(-256, -373.79)" d="M 192.57 364.73 V 338.34 c 0 -5.439 4.41 -9.85 9.86 -9.85 H 256 h 53.57 c 5.449 0 9.859 4.41 9.859 9.85 v 70.91 c 0 5.01 -3.739 9.15 -8.59 9.77 c -1.26 0.051 -2.53 0.08 -3.8 0.08 H 204.96 c -1.27 0 -2.54 -0.029 -3.8 -0.08 c -4.85 -0.619 -8.59 -4.76 -8.59 -9.77 V 364.73 z" stroke-linecap="round" />
</g>
<g transform="matrix(0.39 0 0 0.39 199.99 246)" id="_x36_04_x2C__Candle_x2C__dark_x2C__light_x2C__lighter_x2C__shine"  >
<path style="stroke: none; stroke-width: 1; stroke-dasharray: none; stroke-linecap: butt; stroke-dashoffset: 0; stroke-linejoin: miter; stroke-miterlimit: 4; fill: rgb(99,44,35); fill-rule: nonzero; opacity: 1;"  transform=" translate(-255.98, -373.76)" d="M 201.631 418.311 v -44.52 V 347.4 c 0 -5.439 4.41 -9.85 9.86 -9.85 h 53.569 h 53.57 c 0.257 0 0.509 0.02 0.761 0.037 c -0.385 -5.086 -4.626 -9.098 -9.821 -9.098 H 256 h -53.57 c -5.45 0 -9.86 4.41 -9.86 9.85 v 26.391 v 44.52 c 0 5.01 3.74 9.15 8.59 9.77 c 0.167 0.008 0.337 0.006 0.504 0.012 C 201.647 418.793 201.631 418.553 201.631 418.311 z" stroke-linecap="round" />
</g>
<g transform="matrix(0.39 0 0 0.39 193.1 242.47)" id="_x36_04_x2C__Candle_x2C__dark_x2C__light_x2C__lighter_x2C__shine"  >
<path style="stroke: none; stroke-width: 1; stroke-dasharray: none; stroke-linecap: butt; stroke-dashoffset: 0; stroke-linejoin: miter; stroke-miterlimit: 4; fill: rgb(99,44,35); fill-rule: nonzero; opacity: 1;"  transform=" translate(-238.34, -364.73)" d="M 279.12 369.73 h -81.55 c -2.761 0 -5 -2.238 -5 -5 s 2.239 -5 5 -5 h 81.55 c 2.762 0 5 2.238 5 5 S 281.882 369.73 279.12 369.73 z" stroke-linecap="round" />
</g>
<g transform="matrix(0.39 0 0 0.39 200 263.71)" id="_x36_04_x2C__Candle_x2C__dark_x2C__light_x2C__lighter_x2C__shine"  >
<path style="stroke: none; stroke-width: 1; stroke-dasharray: none; stroke-linecap: butt; stroke-dashoffset: 0; stroke-linejoin: miter; stroke-miterlimit: 4; fill: rgb(255,209,92); fill-rule: nonzero; opacity: 1;"  transform=" translate(-256, -419.1)" d="M 410.04 424.1 H 101.96 c -2.761 0 -5 -2.238 -5 -5 s 2.239 -5 5 -5 h 308.08 c 2.762 0 5 2.238 5 5 S 412.802 424.1 410.04 424.1 z" stroke-linecap="round" />
</g>
</svg>