<?xml version="1.0" encoding="UTF-8" standalone="no" ?>
<!DOCTYPE svg PUBLIC "-//W3C//DTD SVG 1.1//EN" "http://www.w3.org/Graphics/SVG/1.1/DTD/svg11.dtd">
<svg xmlns="http://www.w3.org/2000/svg" xmlns:xlink="http://www.w3.org/1999/xlink" version="1.1" width="400" height="400" viewBox="0 0 400 400" xml:space="preserve">
<desc>Created with Fabric.js 3.6.2</desc>
<defs>
</defs>
<g transform="matrix(4.17 0 0 4.17 191.97 203.72)" id="surface1"  >
<path style="stroke: none; stroke-width: 1; stroke-dasharray: none; stroke-linecap: butt; stroke-dashoffset: 0; stroke-linejoin: miter; stroke-miterlimit: 4; fill: rgb(121,85,72); fill-rule: nonzero; opacity: 1;"  transform=" translate(-22.07, -24.89)" d="M 15 36.003906 C 28 30.003906 27 10 27 10 L 29 10 C 29 10 31 32.003906 20.109375 39.785156 Z" stroke-linecap="round" />
</g>
<g transform="matrix(4.17 0 0 4.17 183.33 137.5)" id="surface1"  >
<path style="stroke: none; stroke-width: 1; stroke-dasharray: none; stroke-linecap: butt; stroke-dashoffset: 0; stroke-linejoin: miter; stroke-miterlimit: 4; fill: rgb(56,142,60); fill-rule: nonzero; opacity: 1;"  transform=" translate(-20, -9)" d="M 12 13 C 11.976563 11.191406 12.703125 9.375 13.875 7.949219 C 15.046875 6.53125 16.832031 5.425781 18.8125 5.109375 C 20.792969 4.773438 22.789063 5.234375 24.359375 6.121094 C 25.941406 7.019531 27.203125 8.28125 28 9.890625 C 26.226563 9.628906 24.714844 9.265625 23.296875 9.082031 C 21.886719 8.886719 20.632813 8.867188 19.464844 9.054688 C 18.292969 9.246094 17.144531 9.65625 15.921875 10.324219 C 14.691406 10.984375 13.441406 11.964844 12 13 Z" stroke-linecap="round" />
</g>
<g transform="matrix(4.17 0 0 4.17 243.76 139.6)" id="surface1"  >
<path style="stroke: none; stroke-width: 1; stroke-dasharray: none; stroke-linecap: butt; stroke-dashoffset: 0; stroke-linejoin: miter; stroke-miterlimit: 4; fill: rgb(56,142,60); fill-rule: nonzero; opacity: 1;"  transform=" translate(-34.5, -9.5)" d="M 41 13 L 37.511719 11.230469 C 36.484375 10.726563 35.558594 10.347656 34.675781 10.109375 C 33.792969 9.871094 32.914063 9.738281 31.835938 9.742188 C 30.753906 9.730469 29.527344 9.898438 28 10 C 28.527344 8.566406 29.574219 7.4375 30.96875 6.71875 C 32.351563 6 34.144531 5.792969 35.734375 6.257813 C 37.339844 6.695313 38.667969 7.691406 39.570313 8.867188 C 40.464844 10.0625 41.046875 11.457031 41 13 Z" stroke-linecap="round" />
</g>
<g transform="matrix(4.17 0 0 4.17 187.99 167.39)" id="surface1"  >
<path style="stroke: none; stroke-width: 1; stroke-dasharray: none; stroke-linecap: butt; stroke-dashoffset: 0; stroke-linejoin: miter; stroke-miterlimit: 4; fill: rgb(76,175,80); fill-rule: nonzero; opacity: 1;"  transform=" translate(-21.12, -16.17)" d="M 28 10 C 26.121094 11.023438 24.734375 11.925781 23.636719 12.84375 C 22.542969 13.753906 21.792969 14.632813 21.054688 15.640625 C 20.324219 16.644531 19.609375 17.835938 18.835938 19.242188 C 18.042969 20.644531 17.253906 22.230469 16 24 C 14.753906 22.226563 14.242188 20.253906 14.234375 18.195313 C 14.25 16.152344 14.839844 13.964844 16.207031 12.101563 C 17.539063 10.230469 19.703125 8.839844 21.914063 8.46875 C 24.117188 8.101563 26.359375 8.546875 28 10 Z" stroke-linecap="round" />
</g>
<g transform="matrix(4.17 0 0 4.17 241.47 171.44)" id="surface1"  >
<path style="stroke: none; stroke-width: 1; stroke-dasharray: none; stroke-linecap: butt; stroke-dashoffset: 0; stroke-linejoin: miter; stroke-miterlimit: 4; fill: rgb(76,175,80); fill-rule: nonzero; opacity: 1;"  transform=" translate(-33.95, -17.15)" d="M 38 25 C 36.839844 23.3125 36.042969 21.886719 35.300781 20.550781 C 34.574219 19.21875 33.929688 18.03125 33.296875 16.945313 C 32.65625 15.855469 32.050781 14.851563 31.242188 13.765625 C 30.445313 12.660156 29.398438 11.527344 28 10 C 29.847656 9.0625 31.972656 9.097656 33.902344 9.867188 C 35.835938 10.636719 37.484375 12.164063 38.488281 13.9375 C 39.511719 15.710938 39.957031 17.691406 39.902344 19.59375 C 39.820313 21.492188 39.324219 23.386719 38 25 Z" stroke-linecap="round" />
</g>
<g transform="matrix(4.17 0 0 4.17 204.17 266.67)" id="surface1"  >
<path style="stroke: none; stroke-width: 1; stroke-dasharray: none; stroke-linecap: butt; stroke-dashoffset: 0; stroke-linejoin: miter; stroke-miterlimit: 4; fill: rgb(33,150,243); fill-rule: nonzero; opacity: 1;"  transform=" translate(-25, -40)" d="M 43 37 C 43 37 42 39 39 39 C 36 39 35 37 35 37 C 35 37 34 39 31 39 C 28 39 27 37 27 37 C 27 37 26 39 23 39 C 20 39 19 37 19 37 C 19 37 18 39 15 39 C 12 39 11 37 11 37 C 11 37 10 39 7 39 L 7 43 L 43 43 Z" stroke-linecap="round" />
</g>
<g transform="matrix(4.17 0 0 4.17 177.08 260.42)" id="surface1"  >
<path style="stroke: none; stroke-width: 1; stroke-dasharray: none; stroke-linecap: butt; stroke-dashoffset: 0; stroke-linejoin: miter; stroke-miterlimit: 4; fill: rgb(255,193,7); fill-rule: nonzero; opacity: 1;"  transform=" translate(-18.5, -38.5)" d="M 5 43 L 32 43 C 32 43 23 35 5 34 Z" stroke-linecap="round" />
</g>
<g transform="matrix(4.17 0 0 4.17 206.25 175)" id="surface1"  >
<path style="stroke: none; stroke-width: 1; stroke-dasharray: none; stroke-linecap: butt; stroke-dashoffset: 0; stroke-linejoin: miter; stroke-miterlimit: 4; fill: rgb(139,195,74); fill-rule: nonzero; opacity: 1;"  transform=" translate(-25.5, -18)" d="M 28 10 C 24 15 23 26 23 26" stroke-linecap="round" />
</g>
<g transform="matrix(4.17 0 0 4.17 202.78 175)" id="surface1"  >
<path style="stroke: none; stroke-width: 1; stroke-dasharray: none; stroke-linecap: butt; stroke-dashoffset: 0; stroke-linejoin: miter; stroke-miterlimit: 4; fill: rgb(139,195,74); fill-rule: nonzero; opacity: 1;"  transform=" translate(-24.67, -18)" d="M 28 10 C 28.113281 11.863281 28.15625 13.222656 28.070313 14.585938 C 27.980469 15.929688 27.78125 17.203125 27.4375 18.472656 C 27.09375 19.738281 26.605469 20.984375 25.925781 22.234375 C 25.230469 23.488281 24.386719 24.730469 23 26 C 21.898438 24.460938 21.480469 22.90625 21.289063 21.382813 C 21.121094 19.855469 21.246094 18.34375 21.648438 16.882813 C 22.050781 15.425781 22.734375 14.011719 23.742188 12.753906 C 24.761719 11.523438 26.128906 10.351563 28 10 Z" stroke-linecap="round" />
</g>
</svg>