<?xml version="1.0" encoding="UTF-8" standalone="no" ?>
<!DOCTYPE svg PUBLIC "-//W3C//DTD SVG 1.1//EN" "http://www.w3.org/Graphics/SVG/1.1/DTD/svg11.dtd">
<svg xmlns="http://www.w3.org/2000/svg" xmlns:xlink="http://www.w3.org/1999/xlink" version="1.1" width="400" height="400" viewBox="0 0 400 400" xml:space="preserve">
<desc>Created with Fabric.js 3.6.2</desc>
<defs>
</defs>
<g transform="matrix(4.17 0 0 4.17 200 212.5)" id="Layer_1"  >
<path style="stroke: none; stroke-width: 1; stroke-dasharray: none; stroke-linecap: butt; stroke-dashoffset: 0; stroke-linejoin: miter; stroke-miterlimit: 4; fill: rgb(216,67,21); fill-rule: nonzero; opacity: 1;"  transform=" translate(-24, -27)" d="M 42.92 36.32 L 42 43 h -4 l -2 -3 H 12 l -2 3 H 6 l -0.92 -6.68 c -0.19 -1.53 -0.03 -3.08 0.48 -4.53 l 3.61 -10.25 L 12.88 11 h 22.24 l 3.71 10.54 l 3.61 10.25 C 42.95 33.24 43.11 34.79 42.92 36.32 z" stroke-linecap="round" />
</g>
<g transform="matrix(4.17 0 0 4.17 200 165.71)" id="Layer_1"  >
<path style="stroke: none; stroke-width: 1; stroke-dasharray: none; stroke-linecap: butt; stroke-dashoffset: 0; stroke-linejoin: miter; stroke-miterlimit: 4; fill: rgb(191,54,12); fill-rule: nonzero; opacity: 1;"  transform=" translate(-24, -15.77)" d="M 35.12 11 c 0 0 -3.12 -1 -11.12 -1 s -11.12 1 -11.12 1 L 9.17 21.54 l 0.88 -0.23 c 1.51 -0.39 2.77 -1.48 3.37 -2.93 l 2 -4.82 C 18.76 13.06 21.87 13 24 13 s 5.24 0.06 8.58 0.56 l 2 4.82 c 0.6 1.45 1.86 2.54 3.37 2.93 l 0.88 0.23 L 35.12 11 z" stroke-linecap="round" />
</g>
<g transform="matrix(4.17 0 0 4.17 200 154.17)" id="Layer_1"  >
<path style="stroke: none; stroke-width: 1; stroke-dasharray: none; stroke-linecap: butt; stroke-dashoffset: 0; stroke-linejoin: miter; stroke-miterlimit: 4; fill: rgb(244,81,30); fill-rule: nonzero; opacity: 1;"  transform=" translate(-24, -13)" d="M 45.381 9.288 C 38.121 5.49 29.853 5 24 5 S 9.879 5.49 2.619 9.288 C 1.625 9.807 1 10.838 1 11.959 v 7.04 C 1 20.137 1.932 21.002 3 21 c 0.189 0 0.382 -0.028 0.575 -0.086 l 5.976 -1.541 c 0.912 -0.235 1.661 -0.886 2.022 -1.756 L 14 11.764 C 17.616 11.127 21.127 11 24 11 s 6.384 0.127 10 0.764 l 2.427 5.853 c 0.361 0.87 1.11 1.521 2.022 1.756 l 5.976 1.541 C 44.618 20.972 44.811 21 45 21 c 1.068 0.002 2 -0.863 2 -2.001 v -7.04 C 47 10.838 46.375 9.807 45.381 9.288 z" stroke-linecap="round" />
</g>
<g transform="matrix(4.17 0 0 4.17 225 191.67)" id="Layer_1"  >
<rect style="stroke: none; stroke-width: 1; stroke-dasharray: none; stroke-linecap: butt; stroke-dashoffset: 0; stroke-linejoin: miter; stroke-miterlimit: 4; fill: rgb(255,138,101); fill-rule: nonzero; opacity: 1;"  x="-2" y="-1" rx="0" ry="0" width="4" height="2" />
</g>
<g transform="matrix(4.17 0 0 4.17 225 208.33)" id="Layer_1"  >
<rect style="stroke: none; stroke-width: 1; stroke-dasharray: none; stroke-linecap: butt; stroke-dashoffset: 0; stroke-linejoin: miter; stroke-miterlimit: 4; fill: rgb(255,138,101); fill-rule: nonzero; opacity: 1;"  x="-2" y="-1" rx="0" ry="0" width="4" height="2" />
</g>
<g transform="matrix(4.17 0 0 4.17 225 225)" id="Layer_1"  >
<rect style="stroke: none; stroke-width: 1; stroke-dasharray: none; stroke-linecap: butt; stroke-dashoffset: 0; stroke-linejoin: miter; stroke-miterlimit: 4; fill: rgb(255,138,101); fill-rule: nonzero; opacity: 1;"  x="-2" y="-1" rx="0" ry="0" width="4" height="2" />
</g>
<g transform="matrix(4.17 0 0 4.17 200 191.67)" id="Layer_1"  >
<rect style="stroke: none; stroke-width: 1; stroke-dasharray: none; stroke-linecap: butt; stroke-dashoffset: 0; stroke-linejoin: miter; stroke-miterlimit: 4; fill: rgb(255,138,101); fill-rule: nonzero; opacity: 1;"  x="-2" y="-1" rx="0" ry="0" width="4" height="2" />
</g>
<g transform="matrix(4.17 0 0 4.17 200 208.33)" id="Layer_1"  >
<rect style="stroke: none; stroke-width: 1; stroke-dasharray: none; stroke-linecap: butt; stroke-dashoffset: 0; stroke-linejoin: miter; stroke-miterlimit: 4; fill: rgb(255,138,101); fill-rule: nonzero; opacity: 1;"  x="-2" y="-1" rx="0" ry="0" width="4" height="2" />
</g>
<g transform="matrix(4.17 0 0 4.17 200 225)" id="Layer_1"  >
<rect style="stroke: none; stroke-width: 1; stroke-dasharray: none; stroke-linecap: butt; stroke-dashoffset: 0; stroke-linejoin: miter; stroke-miterlimit: 4; fill: rgb(255,138,101); fill-rule: nonzero; opacity: 1;"  x="-2" y="-1" rx="0" ry="0" width="4" height="2" />
</g>
<g transform="matrix(4.17 0 0 4.17 175 191.67)" id="Layer_1"  >
<rect style="stroke: none; stroke-width: 1; stroke-dasharray: none; stroke-linecap: butt; stroke-dashoffset: 0; stroke-linejoin: miter; stroke-miterlimit: 4; fill: rgb(255,138,101); fill-rule: nonzero; opacity: 1;"  x="-2" y="-1" rx="0" ry="0" width="4" height="2" />
</g>
<g transform="matrix(4.17 0 0 4.17 175 208.33)" id="Layer_1"  >
<rect style="stroke: none; stroke-width: 1; stroke-dasharray: none; stroke-linecap: butt; stroke-dashoffset: 0; stroke-linejoin: miter; stroke-miterlimit: 4; fill: rgb(255,138,101); fill-rule: nonzero; opacity: 1;"  x="-2" y="-1" rx="0" ry="0" width="4" height="2" />
</g>
<g transform="matrix(4.17 0 0 4.17 175 225)" id="Layer_1"  >
<rect style="stroke: none; stroke-width: 1; stroke-dasharray: none; stroke-linecap: butt; stroke-dashoffset: 0; stroke-linejoin: miter; stroke-miterlimit: 4; fill: rgb(255,138,101); fill-rule: nonzero; opacity: 1;"  x="-2" y="-1" rx="0" ry="0" width="4" height="2" />
</g>
</svg>