<?xml version="1.0" encoding="UTF-8" standalone="no" ?>
<!DOCTYPE svg PUBLIC "-//W3C//DTD SVG 1.1//EN" "http://www.w3.org/Graphics/SVG/1.1/DTD/svg11.dtd">
<svg xmlns="http://www.w3.org/2000/svg" xmlns:xlink="http://www.w3.org/1999/xlink" version="1.1" width="400" height="400" viewBox="0 0 400 400" xml:space="preserve">
<desc>Created with Fabric.js 3.6.2</desc>
<defs>
</defs>
<g transform="matrix(3.13 0 0 3.13 125.9 129.08)" id="hangers"  >
<path style="stroke: none; stroke-width: 1; stroke-dasharray: none; stroke-linecap: butt; stroke-dashoffset: 0; stroke-linejoin: miter; stroke-miterlimit: 4; fill: rgb(117,117,117); fill-rule: nonzero; opacity: 1;"  transform=" translate(-8.29, -9.3)" d="M 14 14.5 c -0.1 0 -0.3 0 -0.4 -0.1 l -2.8 -2.8 c -0.7 -0.7 -1 -1.6 -0.9 -2.5 c 0.2 -1.6 -0.7 -3.2 -2.2 -3.8 c -1.4 -0.5 -3.1 -0.1 -4 1.1 C 3 7.3 2.8 8.4 3.1 9.5 c 0.3 0.9 0.2 2 -0.1 2.9 c -0.1 0.3 -0.4 0.4 -0.6 0.3 C 2.1 12.6 2 12.3 2.1 12 c 0.3 -0.7 0.3 -1.5 0.1 -2.2 c -0.4 -1.4 -0.1 -2.9 0.8 -4 c 1.2 -1.5 3.4 -2.1 5.2 -1.4 c 2 0.8 3.1 2.8 2.8 4.8 c -0.1 0.6 0.1 1.2 0.6 1.7 l 2.8 2.8 c 0.2 0.2 0.2 0.5 0 0.7 C 14.3 14.5 14.1 14.5 14 14.5 z" stroke-linecap="round" />
</g>
<g transform="matrix(2.21 2.21 -2.21 2.21 206.36 206.14)" id="hangers"  >
<rect style="stroke: none; stroke-width: 1; stroke-dasharray: none; stroke-linecap: butt; stroke-dashoffset: 0; stroke-linejoin: miter; stroke-miterlimit: 4; fill: rgb(255,204,128); fill-rule: nonzero; opacity: 1;"  x="-1" y="-35.35" rx="0" ry="0" width="2" height="70.7" />
</g>
<g transform="matrix(3.13 0 0 3.13 137.17 218.51)" id="hangers"  >
<path style="stroke: none; stroke-width: 1; stroke-dasharray: none; stroke-linecap: butt; stroke-dashoffset: 0; stroke-linejoin: miter; stroke-miterlimit: 4; fill: rgb(255,224,130); fill-rule: nonzero; opacity: 1;"  transform=" translate(-11.89, -37.92)" d="M 11.7 22.3 c 1 2.1 1 4.5 0.3 6.7 L 5.8 49.6 c -0.1 0.4 0 0.8 0.3 1 c 0.4 0.4 0.6 1 0.5 1.5 c -0.1 0.6 -0.6 1 -1.1 1.1 c -0.4 0.1 -0.7 0.5 -0.7 0.9 c -0.1 2.2 0.5 4.5 1.8 6.3 C 7 61.1 7.5 61.6 8 62.2 c 0.5 0.6 1.6 0.4 1.7 -0.4 L 19 19 l -5.7 -5.7 C 10.9 15.8 10.4 19.4 11.7 22.3 z" stroke-linecap="round" />
</g>
<g transform="matrix(3.13 0 0 3.13 218.51 137.17)" id="hangers"  >
<path style="stroke: none; stroke-width: 1; stroke-dasharray: none; stroke-linecap: butt; stroke-dashoffset: 0; stroke-linejoin: miter; stroke-miterlimit: 4; fill: rgb(255,224,178); fill-rule: nonzero; opacity: 1;"  transform=" translate(-37.92, -11.89)" d="M 62.2 8 c -0.6 -0.5 -1.3 -1 -1.9 -1.5 c -1.8 -1.3 -4 -1.8 -6.1 -1.7 c -0.5 0 -0.8 0.3 -0.9 0.8 c -0.1 0.5 -0.5 0.9 -1.1 1.1 c -0.6 0.1 -1.2 -0.1 -1.5 -0.5 c -0.3 -0.3 -0.7 -0.4 -1 -0.3 L 29 12 c -2.2 0.7 -4.6 0.6 -6.7 -0.3 c -3 -1.3 -6.6 -0.8 -9 1.6 L 19 19 l 42.8 -9.3 C 62.6 9.5 62.8 8.5 62.2 8 z" stroke-linecap="round" />
</g>
</svg>