<?xml version="1.0" encoding="UTF-8" standalone="no" ?>
<!DOCTYPE svg PUBLIC "-//W3C//DTD SVG 1.1//EN" "http://www.w3.org/Graphics/SVG/1.1/DTD/svg11.dtd">
<svg xmlns="http://www.w3.org/2000/svg" xmlns:xlink="http://www.w3.org/1999/xlink" version="1.1" width="400" height="400" viewBox="0 0 400 400" xml:space="preserve">
<desc>Created with Fabric.js 3.6.2</desc>
<defs>
</defs>
<g transform="matrix(3.13 0 0 3.13 200 176.88)" id="armchair"  >
<path style="stroke: none; stroke-width: 1; stroke-dasharray: none; stroke-linecap: butt; stroke-dashoffset: 0; stroke-linejoin: miter; stroke-miterlimit: 4; fill: rgb(239,83,80); fill-rule: nonzero; opacity: 1;"  transform=" translate(-32, -24.6)" d="M 49 10 c 0 -0.9 0 -1.7 -0.1 -2.5 c 0 -0.8 -0.6 -1.5 -1.3 -1.8 C 42.7 3.9 37.5 3 32 3 S 21.3 3.9 16.4 5.7 c -0.8 0.3 -1.3 1 -1.3 1.8 C 15 8.3 15 9.1 15 10 c 0 14.6 6.6 27.6 17 36.2 C 42.4 37.6 49 24.6 49 10 z" stroke-linecap="round" />
</g>
<g transform="matrix(3.13 0 0 3.13 199.91 161.56)" id="armchair"  >
<path style="stroke: none; stroke-width: 1; stroke-dasharray: none; stroke-linecap: butt; stroke-dashoffset: 0; stroke-linejoin: miter; stroke-miterlimit: 4; fill: rgb(229,57,53); fill-rule: nonzero; opacity: 1;"  transform=" translate(-31.97, -19.7)" d="M 46.5 6.7 L 46.5 6.7 c -1.9 0 -3.5 1.2 -4.1 3 C 40.9 13.9 36.8 17 32 17 s -8.9 -3.1 -10.4 -7.4 c -0.6 -1.8 -2.3 -3 -4.1 -3 h 0 c -3.4 0 -5.8 3.3 -4.8 6.5 l 5.9 19.7 h 26.7 l 5.9 -19.7 C 52.3 9.9 49.9 6.7 46.5 6.7 z" stroke-linecap="round" />
</g>
<g transform="matrix(3.13 0 0 3.13 200 192.31)" id="armchair"  >
<path style="stroke: none; stroke-width: 1; stroke-dasharray: none; stroke-linecap: butt; stroke-dashoffset: 0; stroke-linejoin: miter; stroke-miterlimit: 4; fill: rgb(229,115,115); fill-rule: nonzero; opacity: 1;"  transform=" translate(-32, -29.54)" d="M 21 29.3 l 0 6.1 c -0.3 0.7 -0.7 1.3 -1.2 1.9 c -1.9 0.8 -3.8 0.9 -5.7 0.6 c 0 -3.2 -2.8 -11.7 -5.3 -10.2 c -0.1 0.1 -0.2 0.1 -0.4 0.2 c -1.1 0.6 -2.4 -0.3 -2.2 -1.5 c 0.1 -0.8 0.3 -1.5 0.6 -2.2 c 0.7 -1.7 2.2 -2.9 4 -3.1 c 0.9 -0.1 1.8 -0.1 2.7 0 c 1.7 0.3 3.2 0.9 4.5 1.9 C 20 24.5 21 26.8 21 29.3 z M 43 29.3 l 0 6.1 c 0.3 0.7 0.7 1.3 1.2 1.9 c 1.9 0.8 3.8 0.9 5.7 0.6 c 0 -3.2 2.8 -11.7 5.3 -10.2 c 0.1 0.1 0.2 0.1 0.4 0.2 c 1.1 0.6 2.4 -0.3 2.2 -1.5 c -0.1 -0.8 -0.3 -1.5 -0.6 -2.2 c -0.7 -1.7 -2.2 -2.9 -4 -3.1 c -0.9 -0.1 -1.8 -0.1 -2.7 0 C 48.8 21.4 47.3 22 46 23 C 44 24.5 43 26.8 43 29.3 z" stroke-linecap="round" />
</g>
<g transform="matrix(3.13 0 0 3.13 200.17 239.14)" id="armchair"  >
<path style="stroke: none; stroke-width: 1; stroke-dasharray: none; stroke-linecap: butt; stroke-dashoffset: 0; stroke-linejoin: miter; stroke-miterlimit: 4; fill: rgb(78,52,46); fill-rule: nonzero; opacity: 1;"  transform=" translate(-32.06, -44.52)" d="M 55.4 27.8 c -0.6 -0.6 -1.5 -0.6 -2.1 0 c -2.9 2.8 -4.7 6.4 -5.1 10.3 H 15.9 c -0.5 -3.9 -2.2 -7.5 -5.1 -10.3 c -0.6 -0.6 -1.5 -0.5 -2.1 0 c -0.6 0.6 -0.5 1.5 0 2.1 C 11.5 32.5 13 36.1 13 40 c 0 1.3 -1.4 12.1 -1.4 12.1 c -0.2 1.7 0.2 3.4 1.2 4.8 c -0.3 1 -0.7 2 -1.4 2.9 c -0.3 0.4 -0.2 1.1 0.2 1.4 c 0.2 0.1 0.4 0.2 0.6 0.2 c 0.3 0 0.6 -0.1 0.8 -0.4 c 0.7 -0.9 1.2 -1.9 1.5 -2.9 c 1.2 0 2.6 -1.2 4.1 -1.2 h 26.9 c 1 0 2 0.6 3 0.9 c 0.4 1.3 1.1 2.6 2 3.6 c 0.2 0.2 0.5 0.3 0.8 0.3 c 0.2 0 0.5 -0.1 0.7 -0.2 c 0.4 -0.4 0.5 -1 0.1 -1.4 c -0.6 -0.7 -1.1 -1.5 -1.4 -2.4 c 0.1 -0.1 0.1 -0.1 0.2 -0.2 c 1.3 -1.5 1.9 -3.5 1.7 -5.5 c 0 0 -1.4 -10.8 -1.4 -12.1 c 0 -3.9 1.5 -7.5 4.3 -10.1 C 55.9 29.3 56 28.4 55.4 27.8 z" stroke-linecap="round" />
</g>
<g transform="matrix(3.13 0 0 3.13 199.85 253.13)" id="armchair"  >
<path style="stroke: none; stroke-width: 1; stroke-dasharray: none; stroke-linecap: butt; stroke-dashoffset: 0; stroke-linejoin: miter; stroke-miterlimit: 4; fill: rgb(229,57,53); fill-rule: nonzero; opacity: 1;"  transform=" translate(-31.95, -49)" d="M 45.5 57 H 18.5 c -2.4 0 -4.3 -2.1 -4 -4.5 L 16 41 h 32 l 1.4 11.5 C 49.7 54.9 47.9 57 45.5 57 z" stroke-linecap="round" />
</g>
<g transform="matrix(3.13 0 0 3.13 200 217.11)" id="armchair"  >
<path style="stroke: none; stroke-width: 1; stroke-dasharray: none; stroke-linecap: butt; stroke-dashoffset: 0; stroke-linejoin: miter; stroke-miterlimit: 4; fill: rgb(239,83,80); fill-rule: nonzero; opacity: 1;"  transform=" translate(-32, -37.48)" d="M 46 33.7 c -8.8 -5 -19.2 -5 -28 0 c -1.3 0.7 -2 2 -2 3.5 c 0 1.4 0 3.3 0 4.8 c 0 1.7 1.3 3 3 3 h 26 c 1.7 0 3 -1.3 3 -3 c 0 -1.5 0 -3.4 0 -4.8 C 48 35.8 47.2 34.4 46 33.7 z" stroke-linecap="round" />
</g>
</svg>