<?xml version="1.0" encoding="UTF-8" standalone="no" ?>
<!DOCTYPE svg PUBLIC "-//W3C//DTD SVG 1.1//EN" "http://www.w3.org/Graphics/SVG/1.1/DTD/svg11.dtd">
<svg xmlns="http://www.w3.org/2000/svg" xmlns:xlink="http://www.w3.org/1999/xlink" version="1.1" width="400" height="400" viewBox="0 0 400 400" xml:space="preserve">
<desc>Created with Fabric.js 3.6.2</desc>
<defs>
</defs>
<g transform="matrix(4.17 0 0 4.17 162.5 200)" id="surface1"  >
<path style="stroke: none; stroke-width: 1; stroke-dasharray: none; stroke-linecap: butt; stroke-dashoffset: 0; stroke-linejoin: miter; stroke-miterlimit: 4; fill: rgb(69,90,100); fill-rule: nonzero; opacity: 1;"  transform=" translate(-15, -24)" d="M 7.191406 18.382813 C 7.808594 22.632813 9.132813 24.210938 9.910156 29.488281 C 10.148438 31.351563 11.164063 36.023438 11.164063 36.023438 C 11.511719 38.425781 12.671875 42.601563 18.160156 41.925781 C 22.777344 41.355469 23.179688 36.910156 22.851563 34.128906 L 22.480469 30.824219 C 22.386719 23.882813 23.007813 23.261719 23 13.453125 C 22.992188 8.742188 19.351563 5.554688 15.34375 6.050781 C 8.183594 6.945313 6.34375 12.636719 7.191406 18.382813 Z" stroke-linecap="round" />
</g>
<g transform="matrix(4.17 0 0 4.17 245 199.18)" id="surface1"  >
<path style="stroke: none; stroke-width: 1; stroke-dasharray: none; stroke-linecap: butt; stroke-dashoffset: 0; stroke-linejoin: miter; stroke-miterlimit: 4; fill: rgb(69,90,100); fill-rule: nonzero; opacity: 1;"  transform=" translate(-34.8, -23.8)" d="M 34.457031 5.851563 C 30.445313 5.355469 26.808594 8.546875 26.800781 13.257813 C 26.796875 23.066406 27.414063 23.6875 27.320313 30.625 L 26.949219 33.929688 C 26.625 36.714844 27.019531 41.160156 31.640625 41.730469 C 37.128906 42.40625 38.289063 38.226563 38.636719 35.828125 C 38.636719 35.828125 39.648438 31.15625 39.890625 29.289063 C 40.667969 24.015625 41.992188 22.433594 42.609375 18.183594 C 43.457031 12.4375 41.617188 6.746094 34.457031 5.851563 Z" stroke-linecap="round" />
</g>
<g transform="matrix(4.17 0 0 4.17 162.49 199.97)" id="surface1"  >
<path style="stroke: none; stroke-width: 1; stroke-dasharray: none; stroke-linecap: butt; stroke-dashoffset: 0; stroke-linejoin: miter; stroke-miterlimit: 4; fill: rgb(84,110,122); fill-rule: nonzero; opacity: 1;"  transform=" translate(-15, -23.99)" d="M 22.851563 34.128906 L 22.703125 32.816406 L 22.5625 32.960938 L 21.101563 31.5 L 22.4375 30.164063 L 22.476563 30.199219 C 22.46875 29.085938 22.476563 28.128906 22.5 27.273438 L 22.4375 27.335938 L 21.039063 25.9375 L 22.46875 24.507813 L 22.617188 24.65625 C 22.679688 23.605469 22.753906 22.566406 22.820313 21.328125 L 22.46875 21.679688 L 21.132813 20.34375 L 22.53125 18.945313 L 22.90625 19.324219 C 22.945313 18.285156 22.972656 17.074219 22.988281 15.660156 L 22.53125 16.117188 L 21.226563 14.8125 L 22.5625 13.476563 L 22.996094 13.914063 C 22.996094 13.757813 22.996094 13.617188 22.996094 13.457031 C 22.996094 12.410156 22.808594 11.441406 22.480469 10.570313 L 21.160156 9.25 L 21.574219 8.839844 C 21.175781 8.285156 20.710938 7.800781 20.1875 7.394531 L 19.75 7.835938 L 18.414063 6.5 L 18.480469 6.4375 C 17.503906 6.066406 16.441406 5.914063 15.34375 6.050781 C 15.28125 6.058594 15.226563 6.074219 15.167969 6.082031 L 15.585938 6.5 L 14.25 7.835938 L 12.992188 6.578125 C 12.273438 6.816406 11.636719 7.117188 11.058594 7.472656 L 12.835938 9.25 L 11.4375 10.648438 L 9.511719 8.722656 C 9.035156 9.214844 8.632813 9.753906 8.300781 10.339844 L 10.023438 12.0625 L 8.59375 13.492188 L 7.464844 12.367188 C 7.246094 13.132813 7.113281 13.941406 7.050781 14.777344 L 7.179688 14.90625 L 7.023438 15.0625 C 6.964844 16.144531 7.023438 17.261719 7.191406 18.382813 C 7.417969 19.949219 7.742188 21.152344 8.101563 22.3125 L 8.59375 21.820313 L 9.992188 23.21875 L 8.769531 24.441406 C 9.125 25.609375 9.476563 26.910156 9.769531 28.625 L 9.898438 28.75 L 9.804688 28.84375 C 9.839844 29.054688 9.875 29.265625 9.910156 29.488281 C 9.96875 29.949219 10.074219 30.582031 10.203125 31.273438 L 11.3125 30.164063 L 12.648438 31.5 L 11.1875 32.960938 L 10.363281 32.144531 C 10.667969 33.714844 11.011719 35.335938 11.125 35.851563 L 11.1875 35.789063 L 12.585938 37.1875 L 11.652344 38.117188 C 11.875 38.761719 12.1875 39.402344 12.621094 39.976563 L 14 38.601563 L 15.460938 40.0625 L 14.179688 41.34375 C 14.785156 41.675781 15.511719 41.894531 16.382813 41.96875 L 16.875 41.476563 L 17.382813 41.984375 C 17.632813 41.972656 17.886719 41.964844 18.160156 41.925781 C 18.757813 41.855469 19.285156 41.710938 19.746094 41.523438 L 18.289063 40.0625 L 19.75 38.601563 L 21.457031 40.308594 C 21.925781 39.785156 22.257813 39.164063 22.484375 38.511719 L 21.164063 37.1875 L 22.5625 35.789063 L 22.917969 36.148438 C 22.957031 35.433594 22.921875 34.738281 22.851563 34.128906 Z M 8.59375 18.992188 L 7.257813 17.65625 L 8.59375 16.320313 L 9.929688 17.65625 Z M 19.625 24.523438 L 18.289063 23.1875 L 19.71875 21.757813 L 21.054688 23.09375 Z M 21.023438 28.75 L 19.6875 30.085938 L 18.289063 28.6875 L 19.625 27.351563 Z M 19.75 10.664063 L 21.148438 12.0625 L 19.8125 13.398438 L 18.414063 12 Z M 19.8125 16.226563 L 21.117188 17.53125 L 19.71875 18.929688 L 18.414063 17.625 Z M 17 7.914063 L 18.335938 9.25 L 17 10.585938 L 15.664063 9.25 Z M 17 13.414063 L 18.398438 14.8125 L 17 16.210938 L 15.601563 14.8125 Z M 17 19.039063 L 18.304688 20.34375 L 16.875 21.773438 L 15.570313 20.46875 Z M 16.875 30.101563 L 18.273438 31.5 L 16.875 32.898438 L 15.476563 31.5 Z M 15.539063 25.9375 L 16.875 24.601563 L 18.210938 25.9375 L 16.875 27.273438 Z M 14.25 10.664063 L 15.585938 12 L 14.1875 13.398438 L 12.851563 12.0625 Z M 14.1875 16.226563 L 15.585938 17.625 L 14.15625 19.054688 L 12.757813 17.65625 Z M 14.125 24.523438 L 12.820313 23.21875 L 14.15625 21.882813 L 15.460938 23.1875 Z M 15.460938 28.6875 L 14.0625 30.085938 L 12.726563 28.75 L 14.125 27.351563 Z M 11.4375 13.476563 L 12.773438 14.8125 L 11.34375 16.242188 L 10.007813 14.90625 Z M 11.34375 19.070313 L 12.742188 20.46875 L 11.40625 21.804688 L 10.007813 20.40625 Z M 11.3125 27.335938 L 10.007813 26.03125 L 11.40625 24.632813 L 12.710938 25.9375 Z M 12.601563 34.375 L 14.0625 32.914063 L 15.460938 34.3125 L 14 35.773438 Z M 16.875 38.648438 L 15.414063 37.1875 L 16.875 35.726563 L 18.335938 37.1875 Z M 19.75 35.773438 L 18.289063 34.3125 L 19.6875 32.914063 L 21.148438 34.375 Z" stroke-linecap="round" />
</g>
<g transform="matrix(4.17 0 0 4.17 244.98 199.14)" id="surface1"  >
<path style="stroke: none; stroke-width: 1; stroke-dasharray: none; stroke-linecap: butt; stroke-dashoffset: 0; stroke-linejoin: miter; stroke-miterlimit: 4; fill: rgb(84,110,122); fill-rule: nonzero; opacity: 1;"  transform=" translate(-34.8, -23.79)" d="M 26.882813 35.945313 L 27.238281 35.589844 L 28.636719 36.988281 L 27.3125 38.308594 C 27.542969 38.964844 27.875 39.582031 28.34375 40.109375 L 30.050781 38.402344 L 31.511719 39.863281 L 30.054688 41.320313 C 30.515625 41.511719 31.039063 41.652344 31.640625 41.726563 C 31.910156 41.761719 32.164063 41.773438 32.414063 41.785156 L 32.925781 41.277344 L 33.414063 41.769531 C 34.285156 41.695313 35.015625 41.472656 35.617188 41.144531 L 34.339844 39.863281 L 35.800781 38.402344 L 37.175781 39.777344 C 37.609375 39.203125 37.921875 38.558594 38.144531 37.917969 L 37.214844 36.988281 L 38.609375 35.589844 L 38.671875 35.652344 C 38.78125 35.136719 39.128906 33.515625 39.433594 31.941406 L 38.613281 32.761719 L 37.152344 31.300781 L 38.488281 29.964844 L 39.597656 31.074219 C 39.722656 30.382813 39.828125 29.75 39.890625 29.289063 C 39.921875 29.0625 39.957031 28.851563 39.992188 28.644531 L 39.902344 28.550781 L 40.027344 28.425781 C 40.324219 26.710938 40.675781 25.410156 41.03125 24.242188 L 39.808594 23.019531 L 41.203125 21.621094 L 41.699219 22.113281 C 42.054688 20.953125 42.378906 19.75 42.609375 18.179688 C 42.773438 17.058594 42.832031 15.941406 42.773438 14.859375 L 42.617188 14.707031 L 42.75 14.574219 C 42.6875 13.742188 42.554688 12.933594 42.332031 12.164063 L 41.203125 13.292969 L 39.773438 11.863281 L 41.496094 10.140625 C 41.164063 9.554688 40.761719 9.011719 40.289063 8.519531 L 38.359375 10.449219 L 36.964844 9.050781 L 38.738281 7.277344 C 38.164063 6.921875 37.523438 6.617188 36.808594 6.378906 L 35.546875 7.636719 L 34.210938 6.300781 L 34.628906 5.882813 C 34.566406 5.875 34.515625 5.859375 34.453125 5.851563 C 33.355469 5.71875 32.292969 5.867188 31.316406 6.238281 L 31.382813 6.300781 L 30.046875 7.636719 L 29.605469 7.195313 C 29.085938 7.601563 28.617188 8.089844 28.222656 8.640625 L 28.632813 9.050781 L 27.3125 10.371094 C 26.988281 11.242188 26.796875 12.210938 26.796875 13.257813 C 26.796875 13.417969 26.796875 13.558594 26.796875 13.714844 L 27.234375 13.277344 L 28.570313 14.613281 L 27.265625 15.917969 L 26.808594 15.460938 C 26.820313 16.875 26.847656 18.085938 26.886719 19.125 L 27.265625 18.746094 L 28.660156 20.144531 L 27.324219 21.480469 L 26.976563 21.132813 C 27.039063 22.367188 27.113281 23.40625 27.175781 24.457031 L 27.324219 24.308594 L 28.753906 25.738281 L 27.355469 27.136719 L 27.292969 27.074219 C 27.316406 27.925781 27.324219 28.886719 27.316406 30 L 27.355469 29.964844 L 28.691406 31.300781 L 27.230469 32.761719 L 27.089844 32.617188 L 26.941406 33.929688 C 26.878906 34.539063 26.847656 35.234375 26.882813 35.945313 Z M 39.871094 17.457031 L 41.207031 16.121094 L 42.542969 17.457031 L 41.207031 18.792969 Z M 28.746094 22.894531 L 30.082031 21.558594 L 31.511719 22.988281 L 30.175781 24.324219 Z M 30.175781 27.152344 L 31.511719 28.488281 L 30.113281 29.886719 L 28.777344 28.550781 Z M 31.386719 11.800781 L 29.988281 13.199219 L 28.652344 11.863281 L 30.050781 10.464844 Z M 31.386719 17.425781 L 30.082031 18.730469 L 28.683594 17.332031 L 29.988281 16.027344 Z M 34.136719 9.050781 L 32.800781 10.386719 L 31.464844 9.050781 L 32.800781 7.714844 Z M 34.199219 14.613281 L 32.800781 16.011719 L 31.402344 14.613281 L 32.800781 13.214844 Z M 34.230469 20.269531 L 32.925781 21.574219 L 31.492188 20.144531 L 32.800781 18.839844 Z M 34.324219 31.300781 L 32.925781 32.699219 L 31.527344 31.300781 L 32.925781 29.902344 Z M 32.925781 27.074219 L 31.589844 25.738281 L 32.925781 24.402344 L 34.261719 25.738281 Z M 36.949219 11.863281 L 35.613281 13.199219 L 34.214844 11.800781 L 35.550781 10.464844 Z M 37.042969 17.457031 L 35.644531 18.855469 L 34.214844 17.425781 L 35.613281 16.027344 Z M 34.339844 22.988281 L 35.644531 21.683594 L 36.980469 23.019531 L 35.675781 24.324219 Z M 35.675781 27.152344 L 37.074219 28.550781 L 35.738281 29.886719 L 34.339844 28.488281 Z M 39.792969 14.707031 L 38.457031 16.042969 L 37.027344 14.613281 L 38.363281 13.277344 Z M 39.792969 20.207031 L 38.394531 21.605469 L 37.058594 20.269531 L 38.457031 18.871094 Z M 37.089844 25.738281 L 38.394531 24.433594 L 39.792969 25.832031 L 38.488281 27.136719 Z M 35.800781 35.574219 L 34.339844 34.113281 L 35.738281 32.714844 L 37.199219 34.175781 Z M 31.464844 36.988281 L 32.925781 35.527344 L 34.386719 36.988281 L 32.925781 38.449219 Z M 28.652344 34.175781 L 30.113281 32.714844 L 31.511719 34.113281 L 30.050781 35.574219 Z" stroke-linecap="round" />
</g>
<g transform="matrix(4.17 0 0 4.17 162.5 200)" id="surface1"  >
<path style="stroke: none; stroke-width: 1; stroke-dasharray: none; stroke-linecap: butt; stroke-dashoffset: 0; stroke-linejoin: miter; stroke-miterlimit: 4; fill: rgb(55,71,79); fill-rule: nonzero; opacity: 1;"  transform=" translate(-15, -24)" d="M 16.164063 8 C 18.914063 8 20.996094 10.347656 21 13.457031 C 21.003906 18.5 20.839844 21.085938 20.695313 23.367188 C 20.554688 25.554688 20.433594 27.449219 20.480469 30.851563 L 20.480469 30.949219 L 20.492188 31.050781 L 20.863281 34.363281 C 21.140625 36.710938 20.851563 39.582031 17.914063 39.941406 C 17.601563 39.980469 17.300781 40 17.019531 40 C 15.410156 40 13.6875 39.492188 13.144531 35.734375 L 13.132813 35.667969 L 13.117188 35.601563 C 13.109375 35.554688 12.121094 30.992188 11.890625 29.199219 C 11.457031 26.261719 10.851563 24.367188 10.320313 22.699219 C 9.847656 21.222656 9.441406 19.945313 9.171875 18.09375 C 8.714844 15 9.1875 12.347656 10.5 10.621094 C 11.585938 9.191406 13.300781 8.320313 15.589844 8.035156 C 15.78125 8.011719 15.972656 8 16.164063 8 M 16.164063 6 C 15.890625 6 15.621094 6.015625 15.34375 6.050781 C 8.183594 6.945313 6.34375 12.636719 7.191406 18.382813 C 7.8125 22.632813 9.132813 24.210938 9.910156 29.488281 C 10.152344 31.351563 11.164063 36.023438 11.164063 36.023438 C 11.484375 38.25 12.507813 42 17.019531 42 C 17.378906 42 17.757813 41.976563 18.160156 41.925781 C 22.78125 41.359375 23.179688 36.910156 22.851563 34.128906 L 22.480469 30.824219 C 22.386719 23.886719 23.007813 23.265625 23 13.457031 C 22.992188 9.066406 19.835938 6 16.164063 6 Z" stroke-linecap="round" />
</g>
<g transform="matrix(4.17 0 0 4.17 245 199.17)" id="surface1"  >
<path style="stroke: none; stroke-width: 1; stroke-dasharray: none; stroke-linecap: butt; stroke-dashoffset: 0; stroke-linejoin: miter; stroke-miterlimit: 4; fill: rgb(55,71,79); fill-rule: nonzero; opacity: 1;"  transform=" translate(-34.8, -23.8)" d="M 33.640625 7.800781 C 33.828125 7.800781 34.023438 7.8125 34.210938 7.835938 C 36.5 8.121094 38.214844 8.992188 39.300781 10.421875 C 40.613281 12.148438 41.085938 14.800781 40.632813 17.890625 C 40.359375 19.746094 39.953125 21.023438 39.484375 22.496094 C 38.949219 24.167969 38.347656 26.0625 37.914063 28.996094 C 37.683594 30.792969 36.695313 35.355469 36.683594 35.398438 L 36.667969 35.46875 L 36.660156 35.535156 C 36.113281 39.292969 34.394531 39.800781 32.78125 39.800781 C 32.5 39.800781 32.199219 39.777344 31.886719 39.738281 C 28.949219 39.378906 28.660156 36.507813 28.9375 34.160156 L 29.308594 30.847656 L 29.320313 30.75 L 29.320313 30.648438 C 29.367188 27.246094 29.246094 25.355469 29.109375 23.164063 C 28.964844 20.886719 28.796875 18.300781 28.800781 13.257813 C 28.808594 10.148438 30.886719 7.800781 33.640625 7.800781 M 33.640625 5.800781 C 29.964844 5.800781 26.808594 8.867188 26.800781 13.257813 C 26.796875 23.066406 27.414063 23.6875 27.320313 30.625 L 26.949219 33.929688 C 26.625 36.714844 27.019531 41.160156 31.640625 41.730469 C 32.042969 41.777344 32.421875 41.800781 32.78125 41.800781 C 37.296875 41.800781 38.3125 38.050781 38.636719 35.824219 C 38.636719 35.824219 39.648438 31.152344 39.890625 29.289063 C 40.667969 24.011719 41.992188 22.433594 42.609375 18.183594 C 43.457031 12.4375 41.617188 6.746094 34.457031 5.851563 C 34.183594 5.816406 33.90625 5.800781 33.640625 5.800781 Z" stroke-linecap="round" />
</g>
<g transform="matrix(4.17 0 0 4.17 166.19 181.8)" id="surface1"  >
<path style="stroke: none; stroke-width: 1; stroke-dasharray: none; stroke-linecap: butt; stroke-dashoffset: 0; stroke-linejoin: miter; stroke-miterlimit: 4; fill: rgb(253,216,53); fill-rule: nonzero; opacity: 1;"  transform=" translate(-15.89, -19.63)" d="M 15 13 C 17.738281 15.671875 19.910156 19.289063 19.960938 22.992188 C 20 26 21.289063 27.082031 21.289063 27.082031 C 21.441406 26.789063 21.5625 26.425781 21.625 25.96875 C 21.773438 24.878906 22.1875 24.035156 21.878906 21.070313 C 21.628906 18.625 20.375 13.460938 15 10 C 9.625 14.210938 9.480469 23.199219 9.957031 24.917969 C 10.296875 26.351563 10.460938 27.257813 11.375 28.585938 C 11.59375 28.867188 11.78125 29.078125 12 29.261719 C 12 29.261719 11.921875 27.007813 12 24 C 12.097656 20.222656 13.652344 15.019531 15 13 Z" stroke-linecap="round" />
</g>
<g transform="matrix(4.17 0 0 4.17 241.31 180.98)" id="surface1"  >
<path style="stroke: none; stroke-width: 1; stroke-dasharray: none; stroke-linecap: butt; stroke-dashoffset: 0; stroke-linejoin: miter; stroke-miterlimit: 4; fill: rgb(253,216,53); fill-rule: nonzero; opacity: 1;"  transform=" translate(-33.92, -19.44)" d="M 34.800781 12.800781 C 32.0625 15.472656 29.894531 19.089844 29.84375 22.792969 C 29.800781 25.800781 28.511719 26.882813 28.511719 26.882813 C 28.359375 26.589844 28.242188 26.226563 28.175781 25.769531 C 28.027344 24.679688 27.613281 23.835938 27.925781 20.871094 C 28.171875 18.425781 29.425781 13.261719 34.800781 9.804688 C 40.175781 14.011719 40.320313 23.003906 39.84375 24.71875 C 39.503906 26.152344 39.339844 27.058594 38.425781 28.386719 C 38.207031 28.667969 38.019531 28.882813 37.800781 29.066406 C 37.800781 29.066406 37.878906 26.808594 37.800781 23.804688 C 37.699219 20.023438 36.148438 14.820313 34.800781 12.800781 Z" stroke-linecap="round" />
</g>
</svg>