<?xml version="1.0" encoding="UTF-8" standalone="no" ?>
<!DOCTYPE svg PUBLIC "-//W3C//DTD SVG 1.1//EN" "http://www.w3.org/Graphics/SVG/1.1/DTD/svg11.dtd">
<svg xmlns="http://www.w3.org/2000/svg" xmlns:xlink="http://www.w3.org/1999/xlink" version="1.1" width="400" height="400" viewBox="0 0 400 400" xml:space="preserve">
<desc>Created with Fabric.js 3.6.2</desc>
<defs>
</defs>
<g transform="matrix(4.17 0 0 4.17 200 197.92)" id="Layer_1"  >
<path style="stroke: none; stroke-width: 1; stroke-dasharray: none; stroke-linecap: butt; stroke-dashoffset: 0; stroke-linejoin: miter; stroke-miterlimit: 4; fill: rgb(156,204,101); fill-rule: nonzero; opacity: 1;"  transform=" translate(-24, -23.5)" d="M 39 42 c 0 0 -3 -15 -8 -20 c -0.141 -2.109 1 -7 1 -7 c 0.301 1.108 1 4 1 4 l 4 -1 c -2 -8 -2.641 -10.543 -3.655 -12.382 c -0.22 -0.4 -0.572 -0.711 -0.995 -0.883 L 28 3 c 0 0 -3 7 -4 7 s -4 -7 -4 -7 l -4.35 1.735 c -0.423 0.172 -0.776 0.484 -0.996 0.884 C 13.64 7.459 13 10 11 18 l 4 1 c 0 0 0.701 -2.896 1 -4 c 0 0 1.143 4.891 1 7 c -5 5 -8 20 -8 20 s 5.994 2 15 2 C 32.994 44 39 42 39 42 z" stroke-linecap="round" />
</g>
<g transform="matrix(4.17 0 0 4.17 200 127.08)" id="Layer_1"  >
<path style="stroke: none; stroke-width: 1; stroke-dasharray: none; stroke-linecap: butt; stroke-dashoffset: 0; stroke-linejoin: miter; stroke-miterlimit: 4; fill: rgb(124,179,66); fill-rule: nonzero; opacity: 1;"  transform=" translate(-24, -6.5)" d="M 28 3 c 0 0 -1.791 1 -4 1 s -4 -1 -4 -1 s 3 7 4 7 S 28 3 28 3 z" stroke-linecap="round" />
</g>
<g transform="matrix(4.17 0 0 4.17 200 237.4)" id="Layer_1"  >
<path style="stroke: none; stroke-width: 1; stroke-dasharray: none; stroke-linecap: butt; stroke-dashoffset: 0; stroke-linejoin: miter; stroke-miterlimit: 4; fill: rgb(124,179,66); fill-rule: nonzero; opacity: 1;"  transform=" translate(-24, -32.98)" d="M 12.66 42.91 c 1.08 0.22 2.38 0.44 3.87 0.63 C 17.34 37.38 19 27 21 22 C 17 27 14.36 36.61 12.66 42.91 z M 27 22 c 2 5 3.67 15.36 4.46 21.54 h 0.01 l 3.87 -0.63 C 33.65 36.61 31 27 27 22 z M 24 21.95 c 0 0 -1.39 11.42 -1.95 22.02 C 22.67 43.99 23.32 44 24 44 s 1.33 -0.01 1.95 -0.03 C 25.39 33.37 24 21.95 24 21.95 z" stroke-linecap="round" />
</g>
</svg>