<?xml version="1.0" encoding="UTF-8" standalone="no" ?>
<!DOCTYPE svg PUBLIC "-//W3C//DTD SVG 1.1//EN" "http://www.w3.org/Graphics/SVG/1.1/DTD/svg11.dtd">
<svg xmlns="http://www.w3.org/2000/svg" xmlns:xlink="http://www.w3.org/1999/xlink" version="1.1" width="400" height="400" viewBox="0 0 400 400" xml:space="preserve">
<desc>Created with Fabric.js 3.6.2</desc>
<defs>
</defs>
<g transform="matrix(4.17 0 0 4.17 200 202.91)" id="surface1"  >
<path style="stroke: none; stroke-width: 1; stroke-dasharray: none; stroke-linecap: butt; stroke-dashoffset: 0; stroke-linejoin: miter; stroke-miterlimit: 4; fill: rgb(144,202,249); fill-rule: nonzero; opacity: 1;"  transform=" translate(-24, -24.7)" d="M 42 37 C 42 15.757813 37.574219 11.332031 36.121094 9.878906 L 35.835938 9.59375 L 31.453125 7.089844 L 30 6 L 29.546875 6 L 28.488281 5.394531 L 28.144531 6 L 19.855469 6 L 19.511719 5.394531 L 18.453125 6 L 18 6 L 16.546875 7.089844 L 12.160156 9.59375 L 11.878906 9.878906 C 10.425781 11.332031 6 15.757813 6 37 L 12 37 C 12 27.261719 12.953125 21.570313 14 18.253906 L 14 44 L 34 44 L 34 18.253906 C 35.046875 21.570313 36 27.261719 36 37 Z" stroke-linecap="round" />
</g>
<g transform="matrix(4.17 0 0 4.17 200 145.83)" id="surface1"  >
<path style="stroke: none; stroke-width: 1; stroke-dasharray: none; stroke-linecap: butt; stroke-dashoffset: 0; stroke-linejoin: miter; stroke-miterlimit: 4; fill: rgb(13,71,161); fill-rule: nonzero; opacity: 1;"  transform=" translate(-24, -11)" d="M 20 4 C 20 4 22 3 24 3 C 26 3 28 4 28 4 L 24 19 Z" stroke-linecap="round" />
</g>
<g transform="matrix(4.17 0 0 4.17 208.33 220.83)" id="surface1"  >
<path style="stroke: none; stroke-width: 1; stroke-dasharray: none; stroke-linecap: butt; stroke-dashoffset: 0; stroke-linejoin: miter; stroke-miterlimit: 4; fill: rgb(227,242,253); fill-rule: nonzero; opacity: 1;"  transform=" translate(-26, -29)" d="M 27 24 C 27 24.554688 26.550781 25 26 25 C 25.445313 25 25 24.554688 25 24 C 25 23.445313 25.445313 23 26 23 C 26.550781 23 27 23.445313 27 24 Z M 26 28 C 25.445313 28 25 28.445313 25 29 C 25 29.554688 25.445313 30 26 30 C 26.550781 30 27 29.554688 27 29 C 27 28.445313 26.550781 28 26 28 Z M 26 33 C 25.445313 33 25 33.445313 25 34 C 25 34.554688 25.445313 35 26 35 C 26.550781 35 27 34.554688 27 34 C 27 33.445313 26.550781 33 26 33 Z" stroke-linecap="round" />
</g>
<g transform="matrix(4.17 0 0 4.17 200 189.58)" id="surface1"  >
<path style="stroke: none; stroke-width: 1; stroke-dasharray: none; stroke-linecap: butt; stroke-dashoffset: 0; stroke-linejoin: miter; stroke-miterlimit: 4; fill: rgb(33,150,243); fill-rule: nonzero; opacity: 1;"  transform=" translate(-24, -21.5)" d="M 34 39 L 31.792969 39 C 30.800781 39 30 38.199219 30 37.207031 L 30 32 L 34 32 Z M 14 39 L 16.207031 39 C 17.199219 39 18 38.199219 18 37.207031 L 18 32 L 14 32 Z M 34 20 L 30 20 L 30 24.207031 C 30 25.199219 30.800781 26 31.792969 26 L 34 26 Z M 25 20 L 20 4 L 15.75 7.5625 L 18 11 L 16 13 Z M 23 22 L 32 13 L 30 11 L 32.25 7.5 L 28 4 Z" stroke-linecap="round" />
</g>
<g transform="matrix(4.17 0 0 4.17 196.54 168.98)" id="surface1"  >
<path style="stroke: none; stroke-width: 1; stroke-dasharray: none; stroke-linecap: butt; stroke-dashoffset: 0; stroke-linejoin: miter; stroke-miterlimit: 4; fill: rgb(25,118,210); fill-rule: nonzero; opacity: 1;"  transform=" translate(-23.17, -16.55)" d="M 24.234375 17.554688 L 23.136719 14.035156 L 22.105469 17.75 L 23.8125 19.074219 Z" stroke-linecap="round" />
</g>
<g transform="matrix(4.17 0 0 4.17 193.36 228.65)" id="surface1"  >
<path style="stroke: none; stroke-width: 1; stroke-dasharray: none; stroke-linecap: butt; stroke-dashoffset: 0; stroke-linejoin: miter; stroke-miterlimit: 4; fill: rgb(100,181,246); fill-rule: nonzero; opacity: 1;"  transform=" translate(-22.41, -30.88)" d="M 22.105469 17.75 L 21.074219 21.464844 L 21 21.726563 L 21 44 L 23 44 L 23 22 L 23.8125 19.074219 Z" stroke-linecap="round" />
</g>
</svg>