<?xml version="1.0" encoding="UTF-8" standalone="no" ?>
<!DOCTYPE svg PUBLIC "-//W3C//DTD SVG 1.1//EN" "http://www.w3.org/Graphics/SVG/1.1/DTD/svg11.dtd">
<svg xmlns="http://www.w3.org/2000/svg" xmlns:xlink="http://www.w3.org/1999/xlink" version="1.1" width="400" height="400" viewBox="0 0 400 400" xml:space="preserve">
<desc>Created with Fabric.js 3.6.2</desc>
<defs>
</defs>
<g transform="matrix(4.17 0 0 4.17 220.84 181.25)" id="surface1"  >
<path style="stroke: none; stroke-width: 1; stroke-dasharray: none; stroke-linecap: butt; stroke-dashoffset: 0; stroke-linejoin: miter; stroke-miterlimit: 4; fill: rgb(77,208,225); fill-rule: nonzero; opacity: 1;"  transform=" translate(-29, -19.5)" d="M 28.6875 2 C 22.054688 2 17 7.367188 17 14 L 17 27.929688 C 17 29.519531 18.410156 37 20 37 L 36.851563 37 C 42.613281 33.15625 40.695313 14.007813 40.695313 14.007813 C 40.691406 7.375 35.316406 2 28.6875 2 Z" stroke-linecap="round" />
</g>
<g transform="matrix(4.17 0 0 4.17 181.5 212.97)" id="surface1"  >
<path style="stroke: none; stroke-width: 1; stroke-dasharray: none; stroke-linecap: butt; stroke-dashoffset: 0; stroke-linejoin: miter; stroke-miterlimit: 4; fill: rgb(77,208,225); fill-rule: nonzero; opacity: 1;"  transform=" translate(-19.56, -27.11)" d="M 20 36 L 31.4375 36 L 14.605469 19.167969 C 13.019531 17.582031 10.453125 17.582031 8.867188 19.167969 C 7.285156 20.75 7.285156 23.320313 8.867188 24.90625 L 17.597656 35.109375 C 17.996094 35.507813 18.496094 35.90625 19.054688 36.246094 C 19.335938 36.09375 19.65625 36 20 36 Z" stroke-linecap="round" />
</g>
<g transform="matrix(4.17 0 0 4.17 195.83 175)" id="surface1"  >
<path style="stroke: none; stroke-width: 1; stroke-dasharray: none; stroke-linecap: butt; stroke-dashoffset: 0; stroke-linejoin: miter; stroke-miterlimit: 4; fill: rgb(255,255,255); fill-rule: nonzero; opacity: 1;"  transform=" translate(-23, -18)" d="M 23 16 L 19 16 L 23 20 L 27 20 Z" stroke-linecap="round" />
</g>
<g transform="matrix(4.17 0 0 4.17 208.33 162.5)" id="surface1"  >
<path style="stroke: none; stroke-width: 1; stroke-dasharray: none; stroke-linecap: butt; stroke-dashoffset: 0; stroke-linejoin: miter; stroke-miterlimit: 4; fill: rgb(255,255,255); fill-rule: nonzero; opacity: 1;"  transform=" translate(-26, -15)" d="M 28 15 L 28 19 L 24 15 L 24 11 Z" stroke-linecap="round" />
</g>
<g transform="matrix(4.17 0 0 4.17 245.83 175)" id="surface1"  >
<path style="stroke: none; stroke-width: 1; stroke-dasharray: none; stroke-linecap: butt; stroke-dashoffset: 0; stroke-linejoin: miter; stroke-miterlimit: 4; fill: rgb(255,255,255); fill-rule: nonzero; opacity: 1;"  transform=" translate(-35, -18)" d="M 35 16 L 39 16 L 35 20 L 31 20 Z" stroke-linecap="round" />
</g>
<g transform="matrix(4.17 0 0 4.17 233.33 162.5)" id="surface1"  >
<path style="stroke: none; stroke-width: 1; stroke-dasharray: none; stroke-linecap: butt; stroke-dashoffset: 0; stroke-linejoin: miter; stroke-miterlimit: 4; fill: rgb(255,255,255); fill-rule: nonzero; opacity: 1;"  transform=" translate(-32, -15)" d="M 30 15 L 30 19 L 34 15 L 34 11 Z" stroke-linecap="round" />
</g>
<g transform="matrix(4.17 0 0 4.17 245.83 200)" id="surface1"  >
<path style="stroke: none; stroke-width: 1; stroke-dasharray: none; stroke-linecap: butt; stroke-dashoffset: 0; stroke-linejoin: miter; stroke-miterlimit: 4; fill: rgb(255,255,255); fill-rule: nonzero; opacity: 1;"  transform=" translate(-35, -24)" d="M 35 26 L 39 26 L 35 22 L 31 22 Z" stroke-linecap="round" />
</g>
<g transform="matrix(4.17 0 0 4.17 233.33 212.5)" id="surface1"  >
<path style="stroke: none; stroke-width: 1; stroke-dasharray: none; stroke-linecap: butt; stroke-dashoffset: 0; stroke-linejoin: miter; stroke-miterlimit: 4; fill: rgb(255,255,255); fill-rule: nonzero; opacity: 1;"  transform=" translate(-32, -27)" d="M 30 27 L 30 23 L 34 27 L 34 31 Z" stroke-linecap="round" />
</g>
<g transform="matrix(4.17 0 0 4.17 195.83 200)" id="surface1"  >
<path style="stroke: none; stroke-width: 1; stroke-dasharray: none; stroke-linecap: butt; stroke-dashoffset: 0; stroke-linejoin: miter; stroke-miterlimit: 4; fill: rgb(255,255,255); fill-rule: nonzero; opacity: 1;"  transform=" translate(-23, -24)" d="M 23 26 L 19 26 L 23 22 L 27 22 Z" stroke-linecap="round" />
</g>
<g transform="matrix(4.17 0 0 4.17 208.33 212.5)" id="surface1"  >
<path style="stroke: none; stroke-width: 1; stroke-dasharray: none; stroke-linecap: butt; stroke-dashoffset: 0; stroke-linejoin: miter; stroke-miterlimit: 4; fill: rgb(255,255,255); fill-rule: nonzero; opacity: 1;"  transform=" translate(-26, -27)" d="M 28 27 L 28 23 L 24 27 L 24 31 Z" stroke-linecap="round" />
</g>
<g transform="matrix(4.17 0 0 4.17 216.67 268.75)" id="surface1"  >
<path style="stroke: none; stroke-width: 1; stroke-dasharray: none; stroke-linecap: butt; stroke-dashoffset: 0; stroke-linejoin: miter; stroke-miterlimit: 4; fill: rgb(0,172,193); fill-rule: nonzero; opacity: 1;"  transform=" translate(-28, -40.5)" d="M 38 43 C 38 44.105469 37.105469 45 36 45 L 20 45 C 18.894531 45 18 44.105469 18 43 L 18 38 C 18 36.894531 18.894531 36 20 36 L 36 36 C 37.105469 36 38 36.894531 38 38 Z" stroke-linecap="round" />
</g>
<g transform="matrix(4.17 0 0 4.17 200 268.75)" id="surface1"  >
<path style="stroke: none; stroke-width: 1; stroke-dasharray: none; stroke-linecap: butt; stroke-dashoffset: 0; stroke-linejoin: miter; stroke-miterlimit: 4; fill: rgb(0,131,143); fill-rule: nonzero; opacity: 1;"  transform=" translate(-24, -40.5)" d="M 22 36 L 26 36 L 26 45 L 22 45 Z" stroke-linecap="round" />
</g>
<g transform="matrix(4.17 0 0 4.17 233.33 268.75)" id="surface1"  >
<path style="stroke: none; stroke-width: 1; stroke-dasharray: none; stroke-linecap: butt; stroke-dashoffset: 0; stroke-linejoin: miter; stroke-miterlimit: 4; fill: rgb(0,131,143); fill-rule: nonzero; opacity: 1;"  transform=" translate(-32, -40.5)" d="M 30 36 L 34 36 L 34 45 L 30 45 Z" stroke-linecap="round" />
</g>
<g transform="matrix(4.17 0 0 4.17 220.83 187.5)" id="surface1"  >
<path style="stroke: none; stroke-width: 1; stroke-dasharray: none; stroke-linecap: butt; stroke-dashoffset: 0; stroke-linejoin: miter; stroke-miterlimit: 4; fill: rgb(0,131,143); fill-rule: nonzero; opacity: 1;"  transform=" translate(-29, -21)" d="M 31 21 C 31 22.105469 30.105469 23 29 23 C 27.894531 23 27 22.105469 27 21 C 27 19.894531 27.894531 19 29 19 C 30.105469 19 31 19.894531 31 21 Z" stroke-linecap="round" />
</g>
</svg>