<?xml version="1.0" encoding="UTF-8" standalone="no" ?>
<!DOCTYPE svg PUBLIC "-//W3C//DTD SVG 1.1//EN" "http://www.w3.org/Graphics/SVG/1.1/DTD/svg11.dtd">
<svg xmlns="http://www.w3.org/2000/svg" xmlns:xlink="http://www.w3.org/1999/xlink" version="1.1" width="400" height="400" viewBox="0 0 400 400" xml:space="preserve">
<desc>Created with Fabric.js 3.6.2</desc>
<defs>
</defs>
<g transform="matrix(2.67 -3.2 3.2 2.67 260.41 137.5)" id="surface1"  >
<rect style="stroke: none; stroke-width: 1; stroke-dasharray: none; stroke-linecap: butt; stroke-dashoffset: 0; stroke-linejoin: miter; stroke-miterlimit: 4; fill: rgb(121,85,72); fill-rule: nonzero; opacity: 1;"  x="-3.9" y="-1" rx="0" ry="0" width="7.8" height="2" />
</g>
<g transform="matrix(3.39 -2.42 2.42 3.39 227.07 139.59)" id="surface1"  >
<rect style="stroke: none; stroke-width: 1; stroke-dasharray: none; stroke-linecap: butt; stroke-dashoffset: 0; stroke-linejoin: miter; stroke-miterlimit: 4; fill: rgb(121,85,72); fill-rule: nonzero; opacity: 1;"  x="-1" y="-4.3" rx="0" ry="0" width="2" height="8.6" />
</g>
<g transform="matrix(4.17 0 0 4.17 195.83 208.33)" id="surface1"  >
<path style="stroke: none; stroke-width: 1; stroke-dasharray: none; stroke-linecap: butt; stroke-dashoffset: 0; stroke-linejoin: miter; stroke-miterlimit: 4; fill: rgb(121,85,72); fill-rule: nonzero; opacity: 1;"  transform=" translate(-23, -26)" d="M 38 13.9 L 38 13.9 c -0.3 -1.6 -1.7 -2.9 -3.5 -2.9 c -1.9 0 -3.5 1.6 -3.5 3.5 c 0 0.2 0 0.4 0.1 0.6 v 0 c 0 0 0 0.1 0 0.1 C 34 30.1 27 31 19 32 C 7.9 33.4 6 39 6 39 s 0 2 2 2 s 20 0 20 0 s 12 0 12 -12 C 40 22 39 20.9 38 13.9 z" stroke-linecap="round" />
</g>
<g transform="matrix(4.17 0 0 4.17 197.92 212.54)" id="surface1"  >
<path style="stroke: none; stroke-width: 1; stroke-dasharray: none; stroke-linecap: butt; stroke-dashoffset: 0; stroke-linejoin: miter; stroke-miterlimit: 4; fill: rgb(188,170,164); fill-rule: nonzero; opacity: 1;"  transform=" translate(-23.5, -27.01)" d="M 38 14.3 c -0.3 -0.7 -1 -1.3 -2 -1.3 c -1.1 0 -2 0.9 -2 2 c 0 0.3 2.5 13 0 18 c -3 6 -7 6 -9 6 c -1.5 0 -13.3 0 -19 0 v 0 c 0 0 0 2 2 2 s 20 0 20 0 s 13 1 13 -11 C 41 23.1 39 22 38 14.3 z" stroke-linecap="round" />
</g>
<g transform="matrix(4.17 0 0 4.17 266.67 129.17)" id="surface1"  >
<path style="stroke: none; stroke-width: 1; stroke-dasharray: none; stroke-linecap: butt; stroke-dashoffset: 0; stroke-linejoin: miter; stroke-miterlimit: 4; fill: rgb(93,64,55); fill-rule: nonzero; opacity: 1;"  transform=" translate(-40, -7)" d="M 42 7 c 0 1.1 -0.9 2 -2 2 s -2 -0.9 -2 -2 c 0 -1.1 0.9 -2 2 -2 S 42 5.9 42 7 z" stroke-linecap="round" />
</g>
<g transform="matrix(4.17 0 0 4.17 220.83 129.17)" id="surface1"  >
<path style="stroke: none; stroke-width: 1; stroke-dasharray: none; stroke-linecap: butt; stroke-dashoffset: 0; stroke-linejoin: miter; stroke-miterlimit: 4; fill: rgb(93,64,55); fill-rule: nonzero; opacity: 1;"  transform=" translate(-29, -7)" d="M 31 7 c 0 1.1 -0.9 2 -2 2 s -2 -0.9 -2 -2 c 0 -1.1 0.9 -2 2 -2 S 31 5.9 31 7 z" stroke-linecap="round" />
</g>
</svg>