<?xml version="1.0" encoding="UTF-8" standalone="no" ?>
<!DOCTYPE svg PUBLIC "-//W3C//DTD SVG 1.1//EN" "http://www.w3.org/Graphics/SVG/1.1/DTD/svg11.dtd">
<svg xmlns="http://www.w3.org/2000/svg" xmlns:xlink="http://www.w3.org/1999/xlink" version="1.1" width="400" height="400" viewBox="0 0 400 400" xml:space="preserve">
<desc>Created with Fabric.js 3.6.2</desc>
<defs>
</defs>
<g transform="matrix(4.17 0 0 4.17 212.29 157.5)" id="surface1"  >
<path style="stroke: none; stroke-width: 1; stroke-dasharray: none; stroke-linecap: butt; stroke-dashoffset: 0; stroke-linejoin: miter; stroke-miterlimit: 4; fill: rgb(84,110,122); fill-rule: nonzero; opacity: 1;"  transform=" translate(-26.95, -13.8)" d="M 24.4 22.7 L 18 16.4 L 29.5 4.9 l 6.4 6.4 L 24.4 22.7 z" stroke-linecap="round" />
</g>
<g transform="matrix(4.17 0 0 4.17 197.5 177.92)" id="surface1"  >
<path style="stroke: none; stroke-width: 1; stroke-dasharray: none; stroke-linecap: butt; stroke-dashoffset: 0; stroke-linejoin: miter; stroke-miterlimit: 4; fill: rgb(84,110,122); fill-rule: nonzero; opacity: 1;"  transform=" translate(-23.4, -18.7)" d="M 27.3 23.6 c -0.3 0 -0.5 -0.1 -0.7 -0.3 l -7.8 -7.8 c -0.4 -0.4 -0.4 -1 0 -1.4 s 1 -0.4 1.4 0 l 7.8 7.8 c 0.4 0.4 0.4 1 0 1.4 C 27.9 23.5 27.6 23.6 27.3 23.6 z" stroke-linecap="round" />
</g>
<g transform="matrix(4.17 0 0 4.17 209.58 166.25)" id="surface1"  >
<path style="stroke: none; stroke-width: 1; stroke-dasharray: none; stroke-linecap: butt; stroke-dashoffset: 0; stroke-linejoin: miter; stroke-miterlimit: 4; fill: rgb(84,110,122); fill-rule: nonzero; opacity: 1;"  transform=" translate(-26.3, -15.9)" d="M 30.2 20.8 c -0.3 0 -0.5 -0.1 -0.7 -0.3 l -7.8 -7.8 c -0.4 -0.4 -0.4 -1 0 -1.4 s 1 -0.4 1.4 0 l 7.8 7.8 c 0.4 0.4 0.4 1 0 1.4 C 30.7 20.7 30.4 20.8 30.2 20.8 z" stroke-linecap="round" />
</g>
<g transform="matrix(4.17 0 0 4.17 232.92 142.5)" id="surface1"  >
<path style="stroke: none; stroke-width: 1; stroke-dasharray: none; stroke-linecap: butt; stroke-dashoffset: 0; stroke-linejoin: miter; stroke-miterlimit: 4; fill: rgb(84,110,122); fill-rule: nonzero; opacity: 1;"  transform=" translate(-31.9, -10.2)" d="M 35.8 15.1 c -0.3 0 -0.5 -0.1 -0.7 -0.3 L 27.3 7 c -0.4 -0.4 -0.4 -1 0 -1.4 c 0.4 -0.4 1 -0.4 1.4 0 l 7.8 7.8 c 0.4 0.4 0.4 1 0 1.4 C 36.3 15 36.1 15.1 35.8 15.1 z" stroke-linecap="round" />
</g>
<g transform="matrix(4.17 0 0 4.17 221.25 154.17)" id="surface1"  >
<path style="stroke: none; stroke-width: 1; stroke-dasharray: none; stroke-linecap: butt; stroke-dashoffset: 0; stroke-linejoin: miter; stroke-miterlimit: 4; fill: rgb(84,110,122); fill-rule: nonzero; opacity: 1;"  transform=" translate(-29.1, -13)" d="M 33 17.9 c -0.3 0 -0.5 -0.1 -0.7 -0.3 l -7.8 -7.8 c -0.4 -0.4 -0.4 -1 0 -1.4 c 0.4 -0.4 1 -0.4 1.4 0 l 7.8 7.8 c 0.4 0.4 0.4 1 0 1.4 C 33.5 17.8 33.3 17.9 33 17.9 z" stroke-linecap="round" />
</g>
<g transform="matrix(4.17 0 0 4.17 238.75 136.67)" id="surface1"  >
<path style="stroke: none; stroke-width: 1; stroke-dasharray: none; stroke-linecap: butt; stroke-dashoffset: 0; stroke-linejoin: miter; stroke-miterlimit: 4; fill: rgb(55,71,79); fill-rule: nonzero; opacity: 1;"  transform=" translate(-33.3, -8.8)" d="M 37.2 13.7 c -0.3 0 -0.5 -0.1 -0.7 -0.3 l -7.8 -7.8 c -0.4 -0.4 -0.4 -1 0 -1.4 c 0.4 -0.4 1 -0.4 1.4 0 l 7.8 7.8 c 0.4 0.4 0.4 1 0 1.4 C 37.8 13.6 37.5 13.7 37.2 13.7 z" stroke-linecap="round" />
</g>
<g transform="matrix(4.17 0 0 4.17 227.08 148.33)" id="surface1"  >
<path style="stroke: none; stroke-width: 1; stroke-dasharray: none; stroke-linecap: butt; stroke-dashoffset: 0; stroke-linejoin: miter; stroke-miterlimit: 4; fill: rgb(55,71,79); fill-rule: nonzero; opacity: 1;"  transform=" translate(-30.5, -11.6)" d="M 34.4 16.5 c -0.3 0 -0.5 -0.1 -0.7 -0.3 l -7.8 -7.8 c -0.4 -0.4 -0.4 -1 0 -1.4 c 0.4 -0.4 1 -0.4 1.4 0 l 7.8 7.8 c 0.4 0.4 0.4 1 0 1.4 C 34.9 16.4 34.7 16.5 34.4 16.5 z" stroke-linecap="round" />
</g>
<g transform="matrix(4.17 0 0 4.17 191.67 183.75)" id="surface1"  >
<path style="stroke: none; stroke-width: 1; stroke-dasharray: none; stroke-linecap: butt; stroke-dashoffset: 0; stroke-linejoin: miter; stroke-miterlimit: 4; fill: rgb(55,71,79); fill-rule: nonzero; opacity: 1;"  transform=" translate(-22, -20.1)" d="M 25.9 25 c -0.3 0 -0.5 -0.1 -0.7 -0.3 l -7.8 -7.8 c -0.4 -0.4 -0.4 -1 0 -1.4 s 1 -0.4 1.4 0 l 7.8 7.8 c 0.4 0.4 0.4 1 0 1.4 C 26.4 24.9 26.2 25 25.9 25 z" stroke-linecap="round" />
</g>
<g transform="matrix(4.17 0 0 4.17 203.75 172.08)" id="surface1"  >
<path style="stroke: none; stroke-width: 1; stroke-dasharray: none; stroke-linecap: butt; stroke-dashoffset: 0; stroke-linejoin: miter; stroke-miterlimit: 4; fill: rgb(55,71,79); fill-rule: nonzero; opacity: 1;"  transform=" translate(-24.9, -17.3)" d="M 28.8 22.2 c -0.3 0 -0.5 -0.1 -0.7 -0.3 l -7.8 -7.8 c -0.4 -0.4 -0.4 -1 0 -1.4 s 1 -0.4 1.4 0 l 7.8 7.8 c 0.4 0.4 0.4 1 0 1.4 C 29.3 22.1 29 22.2 28.8 22.2 z" stroke-linecap="round" />
</g>
<g transform="matrix(4.17 0 0 4.17 215.42 160)" id="surface1"  >
<path style="stroke: none; stroke-width: 1; stroke-dasharray: none; stroke-linecap: butt; stroke-dashoffset: 0; stroke-linejoin: miter; stroke-miterlimit: 4; fill: rgb(55,71,79); fill-rule: nonzero; opacity: 1;"  transform=" translate(-27.7, -14.4)" d="M 31.6 19.3 c -0.3 0 -0.5 -0.1 -0.7 -0.3 l -7.8 -7.8 c -0.4 -0.4 -0.4 -1 0 -1.4 c 0.4 -0.4 1 -0.4 1.4 0 l 7.8 7.8 c 0.4 0.4 0.4 1 0 1.4 C 32.1 19.2 31.8 19.3 31.6 19.3 z" stroke-linecap="round" />
</g>
<g transform="matrix(4.17 0 0 4.17 200.51 211.46)" id="surface1"  >
<path style="stroke: none; stroke-width: 1; stroke-dasharray: none; stroke-linecap: butt; stroke-dashoffset: 0; stroke-linejoin: miter; stroke-miterlimit: 4; fill: rgb(245,124,0); fill-rule: nonzero; opacity: 1;"  transform=" translate(-24.12, -26.75)" d="M 7.3 39.5 c -0.4 0.4 -0.4 1 0 1.4 l 2.8 2.8 c 0.4 0.4 1 0.4 1.4 0 c 0 0 29.6 -29.1 29.7 -29.7 c 0.1 -0.6 0 -1.4 0 -1.4 l -2.8 -2.8 c -0.4 -0.4 -1 -0.4 -1.4 0 L 7.3 39.5 z" stroke-linecap="round" />
</g>
<g transform="matrix(4.17 0 0 4.17 232.93 178.5)" id="surface1"  >
<path style="stroke: none; stroke-width: 1; stroke-dasharray: none; stroke-linecap: butt; stroke-dashoffset: 0; stroke-linejoin: miter; stroke-miterlimit: 4; fill: rgb(245,124,0); fill-rule: nonzero; opacity: 1;"  transform=" translate(-31.9, -18.84)" d="M 22.9 23.9 c -0.4 0.4 -0.4 1 0 1.4 l 2.8 2.8 c 0.4 0.4 1.4 0 1.4 0 s 4.7 0.1 9.6 -4.8 c 4.9 -4.9 4.5 -9.4 4.5 -9.4 v -1.4 l -2.8 -2.8 c -0.4 -0.4 -1 -0.4 -1.4 0 L 22.9 23.9 z" stroke-linecap="round" />
</g>
</svg>