<?xml version="1.0" encoding="UTF-8" standalone="no" ?>
<!DOCTYPE svg PUBLIC "-//W3C//DTD SVG 1.1//EN" "http://www.w3.org/Graphics/SVG/1.1/DTD/svg11.dtd">
<svg xmlns="http://www.w3.org/2000/svg" xmlns:xlink="http://www.w3.org/1999/xlink" version="1.1" width="400" height="400" viewBox="0 0 400 400" xml:space="preserve">
<desc>Created with Fabric.js 3.6.2</desc>
<defs>
</defs>
<g transform="matrix(4.17 0 0 4.17 189.79 185.42)" id="surface1"  >
<path style="stroke: none; stroke-width: 1; stroke-dasharray: none; stroke-linecap: butt; stroke-dashoffset: 0; stroke-linejoin: miter; stroke-miterlimit: 4; fill: rgb(84,110,122); fill-rule: nonzero; opacity: 1;"  transform=" translate(-21.55, -20.5)" d="M 31.1 4.6 l 6.4 6.4 L 12 36.4 l -6.4 -6.4 L 31.1 4.6 z" stroke-linecap="round" />
</g>
<g transform="matrix(4.17 0 0 4.17 180.83 200.42)" id="surface1"  >
<path style="stroke: none; stroke-width: 1; stroke-dasharray: none; stroke-linecap: butt; stroke-dashoffset: 0; stroke-linejoin: miter; stroke-miterlimit: 4; fill: rgb(84,110,122); fill-rule: nonzero; opacity: 1;"  transform=" translate(-19.4, -24.1)" d="M 15.5 20.2 l 7.8 7.8" stroke-linecap="round" />
</g>
<g transform="matrix(4.17 0 0 4.17 180.83 200)" id="surface1"  >
<path style="stroke: none; stroke-width: 1; stroke-dasharray: none; stroke-linecap: butt; stroke-dashoffset: 0; stroke-linejoin: miter; stroke-miterlimit: 4; fill: rgb(84,110,122); fill-rule: nonzero; opacity: 1;"  transform=" translate(-19.4, -24)" d="M 23.3 28.9 c -0.3 0 -0.5 -0.1 -0.7 -0.3 l -7.8 -7.8 c -0.4 -0.4 -0.4 -1 0 -1.4 s 1 -0.4 1.4 0 l 7.8 7.8 c 0.4 0.4 0.4 1 0 1.4 C 23.8 28.9 23.5 28.9 23.3 28.9 z" stroke-linecap="round" />
</g>
<g transform="matrix(4.17 0 0 4.17 169.17 212.08)" id="surface1"  >
<path style="stroke: none; stroke-width: 1; stroke-dasharray: none; stroke-linecap: butt; stroke-dashoffset: 0; stroke-linejoin: miter; stroke-miterlimit: 4; fill: rgb(84,110,122); fill-rule: nonzero; opacity: 1;"  transform=" translate(-16.6, -26.9)" d="M 12.7 23 l 7.8 7.8" stroke-linecap="round" />
</g>
<g transform="matrix(4.17 0 0 4.17 169.17 212.08)" id="surface1"  >
<path style="stroke: none; stroke-width: 1; stroke-dasharray: none; stroke-linecap: butt; stroke-dashoffset: 0; stroke-linejoin: miter; stroke-miterlimit: 4; fill: rgb(84,110,122); fill-rule: nonzero; opacity: 1;"  transform=" translate(-16.6, -26.9)" d="M 20.5 31.8 c -0.3 0 -0.5 -0.1 -0.7 -0.3 L 12 23.7 c -0.4 -0.4 -0.4 -1 0 -1.4 s 1 -0.4 1.4 0 l 7.8 7.8 c 0.4 0.4 0.4 1 0 1.4 C 21 31.7 20.7 31.8 20.5 31.8 z" stroke-linecap="round" />
</g>
<g transform="matrix(4.17 0 0 4.17 145.42 235.83)" id="surface1"  >
<path style="stroke: none; stroke-width: 1; stroke-dasharray: none; stroke-linecap: butt; stroke-dashoffset: 0; stroke-linejoin: miter; stroke-miterlimit: 4; fill: rgb(84,110,122); fill-rule: nonzero; opacity: 1;"  transform=" translate(-10.9, -32.6)" d="M 7 28.7 l 7.8 7.8" stroke-linecap="round" />
</g>
<g transform="matrix(4.17 0 0 4.17 145.42 235.42)" id="surface1"  >
<path style="stroke: none; stroke-width: 1; stroke-dasharray: none; stroke-linecap: butt; stroke-dashoffset: 0; stroke-linejoin: miter; stroke-miterlimit: 4; fill: rgb(84,110,122); fill-rule: nonzero; opacity: 1;"  transform=" translate(-10.9, -32.5)" d="M 14.8 37.4 c -0.3 0 -0.5 -0.1 -0.7 -0.3 l -7.8 -7.8 c -0.4 -0.4 -0.4 -1 0 -1.4 s 1 -0.4 1.4 0 l 7.8 7.8 c 0.4 0.4 0.4 1 0 1.4 C 15.3 37.3 15.1 37.4 14.8 37.4 z" stroke-linecap="round" />
</g>
<g transform="matrix(4.17 0 0 4.17 192.5 188.33)" id="surface1"  >
<path style="stroke: none; stroke-width: 1; stroke-dasharray: none; stroke-linecap: butt; stroke-dashoffset: 0; stroke-linejoin: miter; stroke-miterlimit: 4; fill: rgb(84,110,122); fill-rule: nonzero; opacity: 1;"  transform=" translate(-22.2, -21.2)" d="M 18.3 17.3 l 7.8 7.8" stroke-linecap="round" />
</g>
<g transform="matrix(4.17 0 0 4.17 192.5 188.33)" id="surface1"  >
<path style="stroke: none; stroke-width: 1; stroke-dasharray: none; stroke-linecap: butt; stroke-dashoffset: 0; stroke-linejoin: miter; stroke-miterlimit: 4; fill: rgb(84,110,122); fill-rule: nonzero; opacity: 1;"  transform=" translate(-22.2, -21.2)" d="M 26.1 26.1 c -0.3 0 -0.5 -0.1 -0.7 -0.3 l -7.8 -7.8 c -0.4 -0.4 -0.4 -1 0 -1.4 s 1 -0.4 1.4 0 l 7.8 7.8 c 0.4 0.4 0.4 1 0 1.4 C 26.6 26 26.4 26.1 26.1 26.1 z" stroke-linecap="round" />
</g>
<g transform="matrix(4.17 0 0 4.17 204.58 176.67)" id="surface1"  >
<path style="stroke: none; stroke-width: 1; stroke-dasharray: none; stroke-linecap: butt; stroke-dashoffset: 0; stroke-linejoin: miter; stroke-miterlimit: 4; fill: rgb(84,110,122); fill-rule: nonzero; opacity: 1;"  transform=" translate(-25.1, -18.4)" d="M 21.2 14.5 l 7.8 7.8" stroke-linecap="round" />
</g>
<g transform="matrix(4.17 0 0 4.17 204.17 176.67)" id="surface1"  >
<path style="stroke: none; stroke-width: 1; stroke-dasharray: none; stroke-linecap: butt; stroke-dashoffset: 0; stroke-linejoin: miter; stroke-miterlimit: 4; fill: rgb(84,110,122); fill-rule: nonzero; opacity: 1;"  transform=" translate(-25, -18.4)" d="M 28.9 23.3 c -0.3 0 -0.5 -0.1 -0.7 -0.3 l -7.8 -7.8 c -0.4 -0.4 -0.4 -1 0 -1.4 s 1 -0.4 1.4 0 l 7.8 7.8 c 0.4 0.4 0.4 1 0 1.4 C 29.5 23.2 29.2 23.3 28.9 23.3 z" stroke-linecap="round" />
</g>
<g transform="matrix(4.17 0 0 4.17 216.25 165)" id="surface1"  >
<path style="stroke: none; stroke-width: 1; stroke-dasharray: none; stroke-linecap: butt; stroke-dashoffset: 0; stroke-linejoin: miter; stroke-miterlimit: 4; fill: rgb(84,110,122); fill-rule: nonzero; opacity: 1;"  transform=" translate(-27.9, -15.6)" d="M 24 11.7 l 7.8 7.8" stroke-linecap="round" />
</g>
<g transform="matrix(4.17 0 0 4.17 216.25 165)" id="surface1"  >
<path style="stroke: none; stroke-width: 1; stroke-dasharray: none; stroke-linecap: butt; stroke-dashoffset: 0; stroke-linejoin: miter; stroke-miterlimit: 4; fill: rgb(84,110,122); fill-rule: nonzero; opacity: 1;"  transform=" translate(-27.9, -15.6)" d="M 31.8 20.5 c -0.3 0 -0.5 -0.1 -0.7 -0.3 l -7.8 -7.8 c -0.4 -0.4 -0.4 -1 0 -1.4 s 1 -0.4 1.4 0 l 7.8 7.8 c 0.4 0.4 0.4 1 0 1.4 C 32.3 20.4 32 20.5 31.8 20.5 z" stroke-linecap="round" />
</g>
<g transform="matrix(4.17 0 0 4.17 240 141.25)" id="surface1"  >
<path style="stroke: none; stroke-width: 1; stroke-dasharray: none; stroke-linecap: butt; stroke-dashoffset: 0; stroke-linejoin: miter; stroke-miterlimit: 4; fill: rgb(84,110,122); fill-rule: nonzero; opacity: 1;"  transform=" translate(-33.6, -9.9)" d="M 29.7 6 l 7.8 7.8" stroke-linecap="round" />
</g>
<g transform="matrix(4.17 0 0 4.17 239.58 141.25)" id="surface1"  >
<path style="stroke: none; stroke-width: 1; stroke-dasharray: none; stroke-linecap: butt; stroke-dashoffset: 0; stroke-linejoin: miter; stroke-miterlimit: 4; fill: rgb(84,110,122); fill-rule: nonzero; opacity: 1;"  transform=" translate(-33.5, -9.9)" d="M 37.4 14.8 c -0.3 0 -0.5 -0.1 -0.7 -0.3 l -7.8 -7.8 c -0.4 -0.4 -0.4 -1 0 -1.4 s 1 -0.4 1.4 0 l 7.8 7.8 c 0.4 0.4 0.4 1 0 1.4 C 37.9 14.7 37.7 14.8 37.4 14.8 z" stroke-linecap="round" />
</g>
<g transform="matrix(4.17 0 0 4.17 227.92 153.33)" id="surface1"  >
<path style="stroke: none; stroke-width: 1; stroke-dasharray: none; stroke-linecap: butt; stroke-dashoffset: 0; stroke-linejoin: miter; stroke-miterlimit: 4; fill: rgb(84,110,122); fill-rule: nonzero; opacity: 1;"  transform=" translate(-30.7, -12.8)" d="M 26.8 8.9 l 7.8 7.8" stroke-linecap="round" />
</g>
<g transform="matrix(4.17 0 0 4.17 227.92 152.92)" id="surface1"  >
<path style="stroke: none; stroke-width: 1; stroke-dasharray: none; stroke-linecap: butt; stroke-dashoffset: 0; stroke-linejoin: miter; stroke-miterlimit: 4; fill: rgb(84,110,122); fill-rule: nonzero; opacity: 1;"  transform=" translate(-30.7, -12.7)" d="M 34.6 17.6 c -0.3 0 -0.5 -0.1 -0.7 -0.3 l -7.8 -7.8 c -0.4 -0.4 -0.4 -1 0 -1.4 c 0.4 -0.4 1 -0.4 1.4 0 l 7.8 7.8 c 0.4 0.4 0.4 1 0 1.4 C 35.1 17.5 34.9 17.6 34.6 17.6 z" stroke-linecap="round" />
</g>
<g transform="matrix(4.17 0 0 4.17 157.5 223.75)" id="surface1"  >
<path style="stroke: none; stroke-width: 1; stroke-dasharray: none; stroke-linecap: butt; stroke-dashoffset: 0; stroke-linejoin: miter; stroke-miterlimit: 4; fill: rgb(84,110,122); fill-rule: nonzero; opacity: 1;"  transform=" translate(-13.8, -29.7)" d="M 9.9 25.8 l 7.8 7.8" stroke-linecap="round" />
</g>
<g transform="matrix(4.17 0 0 4.17 157.08 223.75)" id="surface1"  >
<path style="stroke: none; stroke-width: 1; stroke-dasharray: none; stroke-linecap: butt; stroke-dashoffset: 0; stroke-linejoin: miter; stroke-miterlimit: 4; fill: rgb(84,110,122); fill-rule: nonzero; opacity: 1;"  transform=" translate(-13.7, -29.7)" d="M 17.6 34.6 c -0.3 0 -0.5 -0.1 -0.7 -0.3 l -7.8 -7.8 c -0.4 -0.4 -0.4 -1 0 -1.4 s 1 -0.4 1.4 0 l 7.8 7.8 c 0.4 0.4 0.4 1 0 1.4 C 18.1 34.5 17.9 34.6 17.6 34.6 z" stroke-linecap="round" />
</g>
<g transform="matrix(4.17 0 0 4.17 245.83 135.42)" id="surface1"  >
<path style="stroke: none; stroke-width: 1; stroke-dasharray: none; stroke-linecap: butt; stroke-dashoffset: 0; stroke-linejoin: miter; stroke-miterlimit: 4; fill: rgb(55,71,79); fill-rule: nonzero; opacity: 1;"  transform=" translate(-35, -8.5)" d="M 38.9 13.4 c -0.3 0 -0.5 -0.1 -0.7 -0.3 l -7.8 -7.8 c -0.4 -0.4 -0.4 -1 0 -1.4 s 1 -0.4 1.4 0 l 7.8 7.8 c 0.4 0.4 0.4 1 0 1.4 C 39.4 13.3 39.1 13.4 38.9 13.4 z" stroke-linecap="round" />
</g>
<g transform="matrix(4.17 0 0 4.17 233.75 147.08)" id="surface1"  >
<path style="stroke: none; stroke-width: 1; stroke-dasharray: none; stroke-linecap: butt; stroke-dashoffset: 0; stroke-linejoin: miter; stroke-miterlimit: 4; fill: rgb(55,71,79); fill-rule: nonzero; opacity: 1;"  transform=" translate(-32.1, -11.3)" d="M 36 16.2 c -0.3 0 -0.5 -0.1 -0.7 -0.3 l -7.8 -7.8 c -0.4 -0.4 -0.4 -1 0 -1.4 c 0.4 -0.4 1 -0.4 1.4 0 l 7.8 7.8 c 0.4 0.4 0.4 1 0 1.4 C 36.5 16.1 36.3 16.2 36 16.2 z" stroke-linecap="round" />
</g>
<g transform="matrix(4.17 0 0 4.17 198.33 182.5)" id="surface1"  >
<path style="stroke: none; stroke-width: 1; stroke-dasharray: none; stroke-linecap: butt; stroke-dashoffset: 0; stroke-linejoin: miter; stroke-miterlimit: 4; fill: rgb(55,71,79); fill-rule: nonzero; opacity: 1;"  transform=" translate(-23.6, -19.8)" d="M 27.5 24.7 c -0.3 0 -0.5 -0.1 -0.7 -0.3 l -7.8 -7.8 c -0.4 -0.4 -0.4 -1 0 -1.4 s 1 -0.4 1.4 0 l 7.8 7.8 c 0.4 0.4 0.4 1 0 1.4 C 28 24.6 27.8 24.7 27.5 24.7 z" stroke-linecap="round" />
</g>
<g transform="matrix(4.17 0 0 4.17 210.42 170.83)" id="surface1"  >
<path style="stroke: none; stroke-width: 1; stroke-dasharray: none; stroke-linecap: butt; stroke-dashoffset: 0; stroke-linejoin: miter; stroke-miterlimit: 4; fill: rgb(55,71,79); fill-rule: nonzero; opacity: 1;"  transform=" translate(-26.5, -17)" d="M 30.4 21.9 c -0.3 0 -0.5 -0.1 -0.7 -0.3 l -7.8 -7.8 c -0.4 -0.4 -0.4 -1 0 -1.4 s 1 -0.4 1.4 0 l 7.8 7.8 c 0.4 0.4 0.4 1 0 1.4 C 30.9 21.8 30.6 21.9 30.4 21.9 z" stroke-linecap="round" />
</g>
<g transform="matrix(4.17 0 0 4.17 222.08 159.17)" id="surface1"  >
<path style="stroke: none; stroke-width: 1; stroke-dasharray: none; stroke-linecap: butt; stroke-dashoffset: 0; stroke-linejoin: miter; stroke-miterlimit: 4; fill: rgb(55,71,79); fill-rule: nonzero; opacity: 1;"  transform=" translate(-29.3, -14.2)" d="M 33.2 19.1 c -0.3 0 -0.5 -0.1 -0.7 -0.3 L 24.7 11 c -0.4 -0.4 -0.4 -1 0 -1.4 c 0.4 -0.4 1 -0.4 1.4 0 l 7.8 7.8 c 0.4 0.4 0.4 1 0 1.4 C 33.7 19 33.4 19.1 33.2 19.1 z" stroke-linecap="round" />
</g>
<g transform="matrix(4.17 0 0 4.17 186.67 194.17)" id="surface1"  >
<path style="stroke: none; stroke-width: 1; stroke-dasharray: none; stroke-linecap: butt; stroke-dashoffset: 0; stroke-linejoin: miter; stroke-miterlimit: 4; fill: rgb(55,71,79); fill-rule: nonzero; opacity: 1;"  transform=" translate(-20.8, -22.6)" d="M 24.7 27.5 c -0.3 0 -0.5 -0.1 -0.7 -0.3 l -7.8 -7.8 c -0.4 -0.4 -0.4 -1 0 -1.4 s 1 -0.4 1.4 0 l 7.8 7.8 c 0.4 0.4 0.4 1 0 1.4 C 25.2 27.4 25 27.5 24.7 27.5 z" stroke-linecap="round" />
</g>
<g transform="matrix(4.17 0 0 4.17 139.58 241.67)" id="surface1"  >
<path style="stroke: none; stroke-width: 1; stroke-dasharray: none; stroke-linecap: butt; stroke-dashoffset: 0; stroke-linejoin: miter; stroke-miterlimit: 4; fill: rgb(55,71,79); fill-rule: nonzero; opacity: 1;"  transform=" translate(-9.5, -34)" d="M 13.4 38.9 c -0.3 0 -0.5 -0.1 -0.7 -0.3 l -7.8 -7.8 c -0.4 -0.4 -0.4 -1 0 -1.4 s 1 -0.4 1.4 0 l 7.8 7.8 c 0.4 0.4 0.4 1 0 1.4 C 13.9 38.8 13.7 38.9 13.4 38.9 z" stroke-linecap="round" />
</g>
<g transform="matrix(4.17 0 0 4.17 151.25 229.58)" id="surface1"  >
<path style="stroke: none; stroke-width: 1; stroke-dasharray: none; stroke-linecap: butt; stroke-dashoffset: 0; stroke-linejoin: miter; stroke-miterlimit: 4; fill: rgb(55,71,79); fill-rule: nonzero; opacity: 1;"  transform=" translate(-12.3, -31.1)" d="M 16.2 36 c -0.3 0 -0.5 -0.1 -0.7 -0.3 l -7.8 -7.8 c -0.4 -0.4 -0.4 -1 0 -1.4 s 1 -0.4 1.4 0 l 7.8 7.8 c 0.4 0.4 0.4 1 0 1.4 C 16.7 35.9 16.5 36 16.2 36 z" stroke-linecap="round" />
</g>
<g transform="matrix(4.17 0 0 4.17 163.33 217.92)" id="surface1"  >
<path style="stroke: none; stroke-width: 1; stroke-dasharray: none; stroke-linecap: butt; stroke-dashoffset: 0; stroke-linejoin: miter; stroke-miterlimit: 4; fill: rgb(55,71,79); fill-rule: nonzero; opacity: 1;"  transform=" translate(-15.2, -28.3)" d="M 19.1 33.2 c -0.3 0 -0.5 -0.1 -0.7 -0.3 l -7.8 -7.8 c -0.4 -0.4 -0.4 -1 0 -1.4 s 1 -0.4 1.4 0 l 7.8 7.8 c 0.4 0.4 0.4 1 0 1.4 C 19.6 33.1 19.3 33.2 19.1 33.2 z" stroke-linecap="round" />
</g>
<g transform="matrix(4.17 0 0 4.17 175 206.25)" id="surface1"  >
<path style="stroke: none; stroke-width: 1; stroke-dasharray: none; stroke-linecap: butt; stroke-dashoffset: 0; stroke-linejoin: miter; stroke-miterlimit: 4; fill: rgb(55,71,79); fill-rule: nonzero; opacity: 1;"  transform=" translate(-18, -25.5)" d="M 21.9 30.4 c -0.3 0 -0.5 -0.1 -0.7 -0.3 l -7.8 -7.8 c -0.4 -0.4 -0.4 -1 0 -1.4 s 1 -0.4 1.4 0 l 7.8 7.8 c 0.4 0.4 0.4 1 0 1.4 C 22.4 30.3 22.1 30.4 21.9 30.4 z" stroke-linecap="round" />
</g>
<g transform="matrix(4.17 0 0 4.17 211.88 207.71)" id="surface1"  >
<path style="stroke: none; stroke-width: 1; stroke-dasharray: none; stroke-linecap: butt; stroke-dashoffset: 0; stroke-linejoin: miter; stroke-miterlimit: 4; fill: rgb(245,124,0); fill-rule: nonzero; opacity: 1;"  transform=" translate(-26.85, -25.85)" d="M 9.9 38.6 c -0.4 0.4 -0.4 1 0 1.4 l 2.8 2.8 c 0.4 0.4 1 0.4 1.4 0 c 0 0 7.8 -4.9 16.3 -13.4 c 8.5 -8.5 13.4 -16.3 13.4 -16.3 c 0.4 -0.4 0.4 -1 0 -1.4 L 41 8.9 c -0.4 -0.4 -1 -0.4 -1.4 0 L 9.9 38.6 z" stroke-linecap="round" />
</g>
</svg>