<?xml version="1.0" encoding="UTF-8" standalone="no" ?>
<!DOCTYPE svg PUBLIC "-//W3C//DTD SVG 1.1//EN" "http://www.w3.org/Graphics/SVG/1.1/DTD/svg11.dtd">
<svg xmlns="http://www.w3.org/2000/svg" xmlns:xlink="http://www.w3.org/1999/xlink" version="1.1" width="400" height="400" viewBox="0 0 400 400" xml:space="preserve">
<desc>Created with Fabric.js 3.6.2</desc>
<defs>
</defs>
<g transform="matrix(4.17 0 0 4.17 200 175)" id="Layer_1"  >
<path style="stroke: none; stroke-width: 1; stroke-dasharray: none; stroke-linecap: butt; stroke-dashoffset: 0; stroke-linejoin: miter; stroke-miterlimit: 4; fill: rgb(244,143,177); fill-rule: nonzero; opacity: 1;"  transform=" translate(-24, -18)" d="M 37.224 10.014 C 36.681 8.979 35 6 28.01 4 C 28 4 28 4 28 4 h -8 l -1.95 0.603 c -5.333 1.947 -6.787 4.482 -7.274 5.41 C 8.171 14.98 3 27 3 27 l 5 2 l 6 -12 c 0 0 1 2 1 6 s -1 9 -1 9 h 20 c 0 0 -1 -5 -1 -9 s 1 -6 1 -6 l 6 12 l 5 -2 C 45 27 39.829 14.98 37.224 10.014 z" stroke-linecap="round" />
</g>
<g transform="matrix(4.17 0 0 4.17 200 137.5)" id="Layer_1"  >
<path style="stroke: none; stroke-width: 1; stroke-dasharray: none; stroke-linecap: butt; stroke-dashoffset: 0; stroke-linejoin: miter; stroke-miterlimit: 4; fill: rgb(173,20,87); fill-rule: nonzero; opacity: 1;"  transform=" translate(-24, -9)" d="M 20 4 h 8 l -4 10 L 20 4 z" stroke-linecap="round" />
</g>
<g transform="matrix(4.17 0 0 4.17 191.67 175)" id="Layer_1"  >
<circle style="stroke: none; stroke-width: 1; stroke-dasharray: none; stroke-linecap: butt; stroke-dashoffset: 0; stroke-linejoin: miter; stroke-miterlimit: 4; fill: rgb(252,228,236); fill-rule: nonzero; opacity: 1;"  cx="0" cy="0" r="1" />
</g>
<g transform="matrix(4.17 0 0 4.17 191.67 195.83)" id="Layer_1"  >
<circle style="stroke: none; stroke-width: 1; stroke-dasharray: none; stroke-linecap: butt; stroke-dashoffset: 0; stroke-linejoin: miter; stroke-miterlimit: 4; fill: rgb(252,228,236); fill-rule: nonzero; opacity: 1;"  cx="0" cy="0" r="1" />
</g>
<g transform="matrix(4.17 0 0 4.17 191.67 216.67)" id="Layer_1"  >
<circle style="stroke: none; stroke-width: 1; stroke-dasharray: none; stroke-linecap: butt; stroke-dashoffset: 0; stroke-linejoin: miter; stroke-miterlimit: 4; fill: rgb(252,228,236); fill-rule: nonzero; opacity: 1;"  cx="0" cy="0" r="1" />
</g>
<g transform="matrix(4.17 0 0 4.17 200 258.33)" id="Layer_1"  >
<path style="stroke: none; stroke-width: 1; stroke-dasharray: none; stroke-linecap: butt; stroke-dashoffset: 0; stroke-linejoin: miter; stroke-miterlimit: 4; fill: rgb(236,64,122); fill-rule: nonzero; opacity: 1;"  transform=" translate(-24, -38)" d="M 36 41 l -11 3 l -1 -6 l -1 6 l -11 -3 c 0 0 0.5 -4 2 -9 h 20 C 35.5 37 36 41 36 41 z" stroke-linecap="round" />
</g>
<g transform="matrix(4.17 0 0 4.17 187.5 139.58)" id="Layer_1"  >
<path style="stroke: none; stroke-width: 1; stroke-dasharray: none; stroke-linecap: butt; stroke-dashoffset: 0; stroke-linejoin: miter; stroke-miterlimit: 4; fill: rgb(248,187,208); fill-rule: nonzero; opacity: 1;"  transform=" translate(-21, -9.5)" d="M 17.28 6.92 l 1.11 1.43 l -0.18 0.38 C 18.07 9.02 18 9.32 18 9.62 c 0 0.67 0.34 1.32 0.93 1.7 l 4.5 2.73 L 24 14.39 L 25 15 l -0.43 -0.95 L 24 12.78 L 20.04 4 c 0 0 -0.92 0.27 -1.99 0.61 C 17.39 4.81 17 5.42 17 6.05 C 17 6.35 17.09 6.65 17.28 6.92 z" stroke-linecap="round" />
</g>
<g transform="matrix(4.17 0 0 4.17 213.4 138.31)" id="Layer_1"  >
<path style="stroke: none; stroke-width: 1; stroke-dasharray: none; stroke-linecap: butt; stroke-dashoffset: 0; stroke-linejoin: miter; stroke-miterlimit: 4; fill: rgb(248,187,208); fill-rule: nonzero; opacity: 1;"  transform=" translate(-27.21, -9.2)" d="M 23.43 14.05 L 24 14.39 l 5.07 -3.07 c 0.59 -0.38 0.93 -1.03 0.93 -1.7 c 0 -0.3 -0.07 -0.6 -0.21 -0.89 l -0.18 -0.38 l 1.11 -1.43 C 30.91 6.65 31 6.35 31 6.05 c 0 -0.63 -0.39 -1.24 -1.05 -1.44 C 28.88 4.27 27.96 4 27.96 4 L 23.43 14.05 z" stroke-linecap="round" />
</g>
<g transform="matrix(4.17 0 0 4.17 206.25 188.23)" id="Layer_1"  >
<polygon style="stroke: none; stroke-width: 1; stroke-dasharray: none; stroke-linecap: butt; stroke-dashoffset: 0; stroke-linejoin: miter; stroke-miterlimit: 4; fill: rgb(240,98,146); fill-rule: nonzero; opacity: 1;"  points="-0.4,-10.83 1.5,-6.6 1.5,10.83 -0.5,10.83 -0.5,-6.17 -1.5,-8.39 " />
</g>
<g transform="matrix(4.17 0 0 4.17 204.78 150.82)" id="Layer_1"  >
<polygon style="stroke: none; stroke-width: 1; stroke-dasharray: none; stroke-linecap: butt; stroke-dashoffset: 0; stroke-linejoin: miter; stroke-miterlimit: 4; fill: rgb(244,143,177); fill-rule: nonzero; opacity: 1;"  points="-0.58,1.85 -1.15,0.59 -0.05,-1.85 1.15,0.81 " />
</g>
</svg>