<?xml version="1.0" encoding="UTF-8" standalone="no" ?>
<!DOCTYPE svg PUBLIC "-//W3C//DTD SVG 1.1//EN" "http://www.w3.org/Graphics/SVG/1.1/DTD/svg11.dtd">
<svg xmlns="http://www.w3.org/2000/svg" xmlns:xlink="http://www.w3.org/1999/xlink" version="1.1" width="400" height="400" viewBox="0 0 400 400" xml:space="preserve">
<desc>Created with Fabric.js 3.6.2</desc>
<defs>
</defs>
<g transform="matrix(4.17 0 0 4.17 200 210.42)" id="surface1"  >
<path style="stroke: none; stroke-width: 1; stroke-dasharray: none; stroke-linecap: butt; stroke-dashoffset: 0; stroke-linejoin: miter; stroke-miterlimit: 4; fill: rgb(191,54,12); fill-rule: nonzero; opacity: 1;"  transform=" translate(-24, -26.5)" d="M 39 30 c 0 -12.9 -3 -21 -3 -21 H 12 c 0 0 -3 8.1 -3 21 c 0 6.5 -2 12 -2 12 s 4.4 2 9 2 c 1.5 -10.1 6.4 -22 8 -22 s 6.3 11.2 8 22 c 4.6 0 9 -2 9 -2 S 39 36.5 39 30 z" stroke-linecap="round" />
</g>
<g transform="matrix(4.17 0 0 4.17 154.38 153.96)" id="surface1"  >
<path style="stroke: none; stroke-width: 1; stroke-dasharray: none; stroke-linecap: butt; stroke-dashoffset: 0; stroke-linejoin: miter; stroke-miterlimit: 4; fill: rgb(147,32,13); fill-rule: nonzero; opacity: 1;"  transform=" translate(-13.05, -12.95)" d="M 16 10 V 9 h -4 c 0 0 -1.1 2.9 -1.9 7.9 C 16 16.2 16 10 16 10 z" stroke-linecap="round" />
</g>
<g transform="matrix(4.17 0 0 4.17 245.63 153.96)" id="surface1"  >
<path style="stroke: none; stroke-width: 1; stroke-dasharray: none; stroke-linecap: butt; stroke-dashoffset: 0; stroke-linejoin: miter; stroke-miterlimit: 4; fill: rgb(147,32,13); fill-rule: nonzero; opacity: 1;"  transform=" translate(-34.95, -12.95)" d="M 37.9 16.9 C 37.1 11.9 36 9 36 9 h -4 v 1 C 32 10 32 16.2 37.9 16.9 z" stroke-linecap="round" />
</g>
<g transform="matrix(4.17 0 0 4.17 200 139.58)" id="surface1"  >
<path style="stroke: none; stroke-width: 1; stroke-dasharray: none; stroke-linecap: butt; stroke-dashoffset: 0; stroke-linejoin: miter; stroke-miterlimit: 4; fill: rgb(230,81,0); fill-rule: nonzero; opacity: 1;"  transform=" translate(-24, -9.5)" d="M 12 5 h 24 v 4 l -12 5 L 12 9 V 5 z" stroke-linecap="round" />
</g>
<g transform="matrix(4.17 0 0 4.17 200 158.33)" id="surface1"  >
<path style="stroke: none; stroke-width: 1; stroke-dasharray: none; stroke-linecap: butt; stroke-dashoffset: 0; stroke-linejoin: miter; stroke-miterlimit: 4; fill: rgb(239,108,0); fill-rule: nonzero; opacity: 1;"  transform=" translate(-24, -14)" d="M 30 11 V 7 c 0 -1.1 -0.9 -2 -2 -2 h -8 c -1.1 0 -2 0.9 -2 2 v 4 c -0.1 3.9 -2 10 -2 10 l 2 2 l 3 -2 l 1 -7.8 l 2 0.8 l 2 -0.8 l 1 7.8 l 3 2 l 2 -2 C 32 21 30.1 14.9 30 11 z" stroke-linecap="round" />
</g>
<g transform="matrix(4.17 0 0 4.17 175 134.38)" id="surface1"  >
<path style="stroke: none; stroke-width: 1; stroke-dasharray: none; stroke-linecap: butt; stroke-dashoffset: 0; stroke-linejoin: miter; stroke-miterlimit: 4; fill: rgb(216,67,21); fill-rule: nonzero; opacity: 1;"  transform=" translate(-18, -8.25)" d="M 18 11.5 c 0 -0.2 0 -0.3 0 -0.5 V 7 c 0 -1.1 0.9 -2 2 -2 h -3.4 C 16.2 5.6 16 6.3 16 7 v 3.7 L 18 11.5 z" stroke-linecap="round" />
</g>
<g transform="matrix(4.17 0 0 4.17 225 134.38)" id="surface1"  >
<path style="stroke: none; stroke-width: 1; stroke-dasharray: none; stroke-linecap: butt; stroke-dashoffset: 0; stroke-linejoin: miter; stroke-miterlimit: 4; fill: rgb(216,67,21); fill-rule: nonzero; opacity: 1;"  transform=" translate(-30, -8.25)" d="M 30 7 v 4 c 0 0.2 0 0.3 0 0.5 l 2 -0.8 V 7 c 0 -0.7 -0.2 -1.4 -0.6 -2 H 28 C 29.1 5 30 5.9 30 7 z" stroke-linecap="round" />
</g>
<g transform="matrix(4.17 0 0 4.17 212.5 133.33)" id="surface1"  >
<path style="stroke: none; stroke-width: 1; stroke-dasharray: none; stroke-linecap: butt; stroke-dashoffset: 0; stroke-linejoin: miter; stroke-miterlimit: 4; fill: rgb(255,214,0); fill-rule: nonzero; opacity: 1;"  transform=" translate(-27, -8)" d="M 28 8 c 0 0.6 -0.4 1 -1 1 s -1 -0.4 -1 -1 s 0.4 -1 1 -1 S 28 7.4 28 8 z" stroke-linecap="round" />
</g>
<g transform="matrix(4.17 0 0 4.17 187.5 133.33)" id="surface1"  >
<path style="stroke: none; stroke-width: 1; stroke-dasharray: none; stroke-linecap: butt; stroke-dashoffset: 0; stroke-linejoin: miter; stroke-miterlimit: 4; fill: rgb(255,214,0); fill-rule: nonzero; opacity: 1;"  transform=" translate(-21, -8)" d="M 22 8 c 0 0.6 -0.4 1 -1 1 s -1 -0.4 -1 -1 s 0.4 -1 1 -1 S 22 7.4 22 8 z" stroke-linecap="round" />
</g>
<g transform="matrix(4.17 0 0 4.17 275.34 268.83)" id="surface1"  >
<path style="stroke: none; stroke-width: 1; stroke-dasharray: none; stroke-linecap: butt; stroke-dashoffset: 0; stroke-linejoin: miter; stroke-miterlimit: 4; fill: rgb(147,32,13); fill-rule: nonzero; opacity: 1;"  transform=" translate(-42.08, -40.52)" d="M 44.3 44 c -4 -1.7 -5.1 -5.5 -5.2 -5.7 c -0.1 -0.4 0 -0.8 0.3 -1 c 0.3 -0.3 0.7 -0.3 1 -0.2 c 0 0 2.5 0.9 4.6 0.9 v 2 c -1.1 0 -2.1 -0.2 -3 -0.4 c 0.6 0.9 1.6 1.9 3.1 2.5 L 44.3 44 z" stroke-linecap="round" />
</g>
<g transform="matrix(4.17 0 0 4.17 249.17 262.55)" id="surface1"  >
<path style="stroke: none; stroke-width: 1; stroke-dasharray: none; stroke-linecap: butt; stroke-dashoffset: 0; stroke-linejoin: miter; stroke-miterlimit: 4; fill: rgb(147,32,13); fill-rule: nonzero; opacity: 1;"  transform=" translate(-35.8, -39.01)" d="M 31.5 41 c 1.3 -0.1 5.4 -0.4 9 -2 c 0 0 0.1 0 0.1 -0.1 c -0.1 -0.6 -0.2 -1.1 -0.3 -1.8 c -0.2 -0.1 -0.4 -0.1 -0.7 0 C 35.8 38.9 31.2 39 31 39 C 31.2 39.6 31.3 40.3 31.5 41 z" stroke-linecap="round" />
</g>
<g transform="matrix(4.17 0 0 4.17 125.08 269.04)" id="surface1"  >
<path style="stroke: none; stroke-width: 1; stroke-dasharray: none; stroke-linecap: butt; stroke-dashoffset: 0; stroke-linejoin: miter; stroke-miterlimit: 4; fill: rgb(147,32,13); fill-rule: nonzero; opacity: 1;"  transform=" translate(-6.02, -40.57)" d="M 3.7 44 L 3 42.2 c 1.5 -0.6 2.5 -1.6 3.1 -2.5 c -0.9 0.2 -2 0.4 -3 0.4 v -2 c 2.2 0 4.6 -0.9 4.6 -0.9 c 0.4 -0.1 0.7 -0.1 1 0.2 c 0.3 0.3 0.4 0.6 0.3 1 C 8.9 38.5 7.8 42.3 3.7 44 z" stroke-linecap="round" />
</g>
<g transform="matrix(4.17 0 0 4.17 150.83 262.55)" id="surface1"  >
<path style="stroke: none; stroke-width: 1; stroke-dasharray: none; stroke-linecap: butt; stroke-dashoffset: 0; stroke-linejoin: miter; stroke-miterlimit: 4; fill: rgb(147,32,13); fill-rule: nonzero; opacity: 1;"  transform=" translate(-12.2, -39.01)" d="M 16.5 41 c -1.3 -0.1 -5.4 -0.4 -9 -2 c 0 0 -0.1 0 -0.1 -0.1 c 0.1 -0.6 0.2 -1.1 0.3 -1.8 c 0.2 -0.1 0.4 -0.1 0.7 0 c 3.8 1.8 8.4 1.9 8.6 1.9 C 16.8 39.6 16.7 40.3 16.5 41 z" stroke-linecap="round" />
</g>
</svg>