<?xml version="1.0" encoding="UTF-8" standalone="no" ?>
<!DOCTYPE svg PUBLIC "-//W3C//DTD SVG 1.1//EN" "http://www.w3.org/Graphics/SVG/1.1/DTD/svg11.dtd">
<svg xmlns="http://www.w3.org/2000/svg" xmlns:xlink="http://www.w3.org/1999/xlink" version="1.1" width="400" height="400" viewBox="0 0 400 400" xml:space="preserve">
<desc>Created with Fabric.js 3.6.2</desc>
<defs>
</defs>
<g transform="matrix(4.17 0 0 4.17 200 162.5)" id="surface1"  >
<path style="stroke: none; stroke-width: 1; stroke-dasharray: none; stroke-linecap: butt; stroke-dashoffset: 0; stroke-linejoin: miter; stroke-miterlimit: 4; fill: rgb(141,110,99); fill-rule: nonzero; opacity: 1;"  transform=" translate(-24, -15)" d="M 38 23 c 0 0 -6 -2 -13 -2 s -15 2 -15 2 v -8 c 0 -4.4 3.6 -8 8 -8 h 12 c 4.4 0 8 3.6 8 8 V 23 z" stroke-linecap="round" />
</g>
<g transform="matrix(4.17 0 0 4.17 200 214.58)" id="surface1"  >
<path style="stroke: none; stroke-width: 1; stroke-dasharray: none; stroke-linecap: butt; stroke-dashoffset: 0; stroke-linejoin: miter; stroke-miterlimit: 4; fill: rgb(121,85,72); fill-rule: nonzero; opacity: 1;"  transform=" translate(-24, -27.5)" d="M 38 35 c 0 0 -6 -2 -13 -2 s -15 2 -15 2 V 20 h 28 V 35 z" stroke-linecap="round" />
</g>
<g transform="matrix(4.17 0 0 4.17 133.31 231.25)" id="surface1"  >
<path style="stroke: none; stroke-width: 1; stroke-dasharray: none; stroke-linecap: butt; stroke-dashoffset: 0; stroke-linejoin: miter; stroke-miterlimit: 4; fill: rgb(161,136,127); fill-rule: nonzero; opacity: 1;"  transform=" translate(-7.99, -31.5)" d="M 4 42 c -1.2 0 -2.3 -0.7 -2.8 -1.9 c -0.6 -1.5 0.1 -3.3 1.7 -3.9 c 2.7 -1.1 4.7 -3.3 5.3 -6.1 C 8.7 28 9 25.9 9 24 c 0 -1.7 1.3 -3 3 -3 s 3 1.3 3 3 c 0 2.4 -0.3 5 -1 7.6 c -1.1 4.6 -4.5 8.4 -8.9 10.2 C 4.7 41.9 4.4 42 4 42 z" stroke-linecap="round" />
</g>
<g transform="matrix(4.17 0 0 4.17 266.67 231.25)" id="surface1"  >
<path style="stroke: none; stroke-width: 1; stroke-dasharray: none; stroke-linecap: butt; stroke-dashoffset: 0; stroke-linejoin: miter; stroke-miterlimit: 4; fill: rgb(161,136,127); fill-rule: nonzero; opacity: 1;"  transform=" translate(-40, -31.5)" d="M 44 42 c -0.4 0 -0.7 -0.1 -1.1 -0.2 c -4.5 -1.8 -7.8 -5.6 -8.9 -10.2 c -0.6 -2.6 -1 -5.1 -1 -7.6 c 0 -1.7 1.3 -3 3 -3 s 3 1.3 3 3 c 0 1.9 0.3 4 0.8 6.1 c 0.7 2.7 2.7 5 5.3 6.1 c 1.5 0.6 2.3 2.4 1.7 3.9 C 46.3 41.3 45.2 42 44 42 z" stroke-linecap="round" />
</g>
<g transform="matrix(4.17 0 0 4.17 200 183.33)" id="surface1"  >
<path style="stroke: none; stroke-width: 1; stroke-dasharray: none; stroke-linecap: butt; stroke-dashoffset: 0; stroke-linejoin: miter; stroke-miterlimit: 4; fill: rgb(188,170,164); fill-rule: nonzero; opacity: 1;"  transform=" translate(-24, -20)" d="M 36 27 H 12 c -1.7 0 -3 -1.3 -3 -3 v -4 c 0 -3.9 3.1 -7 7 -7 h 16 c 3.9 0 7 3.1 7 7 v 4 C 39 25.7 37.7 27 36 27 z" stroke-linecap="round" />
</g>
<g transform="matrix(4.17 0 0 4.17 200 181.88)" id="surface1"  >
<path style="stroke: none; stroke-width: 1; stroke-dasharray: none; stroke-linecap: butt; stroke-dashoffset: 0; stroke-linejoin: miter; stroke-miterlimit: 4; fill: rgb(244,67,54); fill-rule: nonzero; opacity: 1;"  transform=" translate(-24, -19.65)" d="M 24 15.8 l 1.2 2.5 l 2.8 0.4 l -2 2 l 0.5 2.8 L 24 22.1 l -2.5 1.3 l 0.5 -2.8 l -2 -2 l 2.8 -0.4 L 24 15.8 z" stroke-linecap="round" />
</g>
</svg>