<?xml version="1.0" encoding="UTF-8" standalone="no" ?>
<!DOCTYPE svg PUBLIC "-//W3C//DTD SVG 1.1//EN" "http://www.w3.org/Graphics/SVG/1.1/DTD/svg11.dtd">
<svg xmlns="http://www.w3.org/2000/svg" xmlns:xlink="http://www.w3.org/1999/xlink" version="1.1" width="400" height="400" viewBox="0 0 400 400" xml:space="preserve">
<desc>Created with Fabric.js 3.6.2</desc>
<defs>
</defs>
<g transform="matrix(4.17 0 0 4.17 200 129.17)" id="surface1"  >
<path style="stroke: none; stroke-width: 1; stroke-dasharray: none; stroke-linecap: butt; stroke-dashoffset: 0; stroke-linejoin: miter; stroke-miterlimit: 4; fill: rgb(153,21,4); fill-rule: nonzero; opacity: 1;"  transform=" translate(-24, -7)" d="M 30 10 L 18 10 L 18 6 C 18 6 21 4 24 4 C 27 4 30 6 30 6 Z" stroke-linecap="round" />
</g>
<g transform="matrix(4.17 0 0 4.17 137.5 272.92)" id="surface1"  >
<path style="stroke: none; stroke-width: 1; stroke-dasharray: none; stroke-linecap: butt; stroke-dashoffset: 0; stroke-linejoin: miter; stroke-miterlimit: 4; fill: rgb(93,64,55); fill-rule: nonzero; opacity: 1;"  transform=" translate(-9, -41.5)" d="M 7 40 L 11 40 L 11 43 L 7 43 Z" stroke-linecap="round" />
</g>
<g transform="matrix(4.17 0 0 4.17 262.5 272.92)" id="surface1"  >
<path style="stroke: none; stroke-width: 1; stroke-dasharray: none; stroke-linecap: butt; stroke-dashoffset: 0; stroke-linejoin: miter; stroke-miterlimit: 4; fill: rgb(93,64,55); fill-rule: nonzero; opacity: 1;"  transform=" translate(-39, -41.5)" d="M 37 40 L 41 40 L 41 43 L 37 43 Z" stroke-linecap="round" />
</g>
<g transform="matrix(4.17 0 0 4.17 158.95 204.51)" id="surface1"  >
<path style="stroke: none; stroke-width: 1; stroke-dasharray: none; stroke-linecap: butt; stroke-dashoffset: 0; stroke-linejoin: miter; stroke-miterlimit: 4; fill: rgb(255,61,0); fill-rule: nonzero; opacity: 1;"  transform=" translate(-14.15, -25.08)" d="M 11 41 L 7 41 C 6 41 6.003906 39.625 6.011719 38.957031 C 6.152344 25.222656 7.746094 17.011719 10.878906 13.878906 L 11.195313 13.5625 L 19.46875 9.164063 L 22.285156 14.460938 L 14.914063 18.378906 C 14.214844 19.402344 12.171875 23.683594 12.011719 39.023438 C 12.003906 39.660156 12 41 11 41 Z" stroke-linecap="round" />
</g>
<g transform="matrix(4.17 0 0 4.17 240.57 204.36)" id="surface1"  >
<path style="stroke: none; stroke-width: 1; stroke-dasharray: none; stroke-linecap: butt; stroke-dashoffset: 0; stroke-linejoin: miter; stroke-miterlimit: 4; fill: rgb(255,61,0); fill-rule: nonzero; opacity: 1;"  transform=" translate(-33.74, -25.05)" d="M 41 41 L 37 41 C 36 41 35.996094 39.644531 35.988281 39 C 35.824219 23.714844 33.796875 19.421875 33.089844 18.386719 L 25.484375 14.40625 L 28.265625 9.09375 L 36.796875 13.554688 L 37.121094 13.878906 C 40.253906 17.011719 41.851563 25.238281 41.988281 39 C 41.996094 39.652344 42 41 41 41 Z" stroke-linecap="round" />
</g>
<g transform="matrix(4.17 0 0 4.17 200 210.42)" id="surface1"  >
<path style="stroke: none; stroke-width: 1; stroke-dasharray: none; stroke-linecap: butt; stroke-dashoffset: 0; stroke-linejoin: miter; stroke-miterlimit: 4; fill: rgb(255,61,0); fill-rule: nonzero; opacity: 1;"  transform=" translate(-24, -26.5)" d="M 34 13 L 28 9 L 20 9 L 14 13 L 14 44 L 34 44 Z" stroke-linecap="round" />
</g>
<g transform="matrix(4.17 0 0 4.17 200 137.5)" id="surface1"  >
<path style="stroke: none; stroke-width: 1; stroke-dasharray: none; stroke-linecap: butt; stroke-dashoffset: 0; stroke-linejoin: miter; stroke-miterlimit: 4; fill: rgb(221,44,0); fill-rule: nonzero; opacity: 1;"  transform=" translate(-24, -9)" d="M 24 8 C 21 8 18 6 18 6 L 18 10 C 18 10 21 12 24 12 C 27 12 30 10 30 10 L 30 6 C 30 6 27 8 24 8 Z" stroke-linecap="round" />
</g>
<g transform="matrix(4.17 0 0 4.17 175 237.5)" id="surface1"  >
<path style="stroke: none; stroke-width: 1; stroke-dasharray: none; stroke-linecap: butt; stroke-dashoffset: 0; stroke-linejoin: miter; stroke-miterlimit: 4; fill: rgb(186,33,2); fill-rule: nonzero; opacity: 1;"  transform=" translate(-18, -33)" d="M 17 29 L 19 29 L 19 37 L 17 37 Z" stroke-linecap="round" />
</g>
<g transform="matrix(4.17 0 0 4.17 225 237.5)" id="surface1"  >
<path style="stroke: none; stroke-width: 1; stroke-dasharray: none; stroke-linecap: butt; stroke-dashoffset: 0; stroke-linejoin: miter; stroke-miterlimit: 4; fill: rgb(186,33,2); fill-rule: nonzero; opacity: 1;"  transform=" translate(-30, -33)" d="M 29 29 L 31 29 L 31 37 L 29 37 Z" stroke-linecap="round" />
</g>
<g transform="matrix(4.17 0 0 4.17 200 208.19)" id="surface1"  >
<path style="stroke: none; stroke-width: 1; stroke-dasharray: none; stroke-linecap: butt; stroke-dashoffset: 0; stroke-linejoin: miter; stroke-miterlimit: 4; fill: rgb(186,33,2); fill-rule: nonzero; opacity: 1;"  transform=" translate(-24, -25.96)" d="M 24 8 C 23.664063 8 23.332031 7.972656 23 7.929688 L 23 44 L 25 44 L 25 7.929688 C 24.667969 7.972656 24.335938 8 24 8 Z" stroke-linecap="round" />
</g>
</svg>