<?xml version="1.0" encoding="UTF-8" standalone="no" ?>
<!DOCTYPE svg PUBLIC "-//W3C//DTD SVG 1.1//EN" "http://www.w3.org/Graphics/SVG/1.1/DTD/svg11.dtd">
<svg xmlns="http://www.w3.org/2000/svg" xmlns:xlink="http://www.w3.org/1999/xlink" version="1.1" width="400" height="400" viewBox="0 0 400 400" xml:space="preserve">
<desc>Created with Fabric.js 3.6.2</desc>
<defs>
</defs>
<g transform="matrix(4.17 0 0 4.17 200 141.67)" id="surface1"  >
<path style="stroke: none; stroke-width: 1; stroke-dasharray: none; stroke-linecap: butt; stroke-dashoffset: 0; stroke-linejoin: miter; stroke-miterlimit: 4; fill: rgb(198,40,40); fill-rule: nonzero; opacity: 1;"  transform=" translate(-24, -10)" d="M 33 14 h -2 c 0 -3.3 -3.1 -6 -7 -6 c -3.9 0 -7 2.7 -7 6 h -2 c 0 -4.4 4 -8 9 -8 C 29 6 33 9.6 33 14 z" stroke-linecap="round" />
</g>
<g transform="matrix(4.17 0 0 4.17 252.08 216.67)" id="surface1"  >
<path style="stroke: none; stroke-width: 1; stroke-dasharray: none; stroke-linecap: butt; stroke-dashoffset: 0; stroke-linejoin: miter; stroke-miterlimit: 4; fill: rgb(198,40,40); fill-rule: nonzero; opacity: 1;"  transform=" translate(-36.5, -28)" d="M 37 14 c 0 0 5 5 5 15 c 0 4 -0.5 9.9 -1.3 11.8 c -0.3 0.7 -1 1.2 -1.8 1.2 H 31 L 37 14 z" stroke-linecap="round" />
</g>
<g transform="matrix(4.17 0 0 4.17 147.92 216.67)" id="surface1"  >
<path style="stroke: none; stroke-width: 1; stroke-dasharray: none; stroke-linecap: butt; stroke-dashoffset: 0; stroke-linejoin: miter; stroke-miterlimit: 4; fill: rgb(198,40,40); fill-rule: nonzero; opacity: 1;"  transform=" translate(-11.5, -28)" d="M 11 14 c 0 0 -5 5 -5 15 c 0 4 0.5 9.9 1.3 11.8 c 0.3 0.7 1 1.2 1.8 1.2 H 17 L 11 14 z" stroke-linecap="round" />
</g>
<g transform="matrix(4.17 0 0 4.17 200 229.17)" id="surface1"  >
<path style="stroke: none; stroke-width: 1; stroke-dasharray: none; stroke-linecap: butt; stroke-dashoffset: 0; stroke-linejoin: miter; stroke-miterlimit: 4; fill: rgb(255,61,0); fill-rule: nonzero; opacity: 1;"  transform=" translate(-24, -31)" d="M 37 20 H 11 c 0 0 -2 9.9 -2 20 v 1 c 0 0.6 0.4 1 1 1 h 28 c 0.6 0 1 -0.4 1 -1 v -1 C 39 29.9 37 20 37 20 z" stroke-linecap="round" />
</g>
<g transform="matrix(4.17 0 0 4.17 200 193.75)" id="surface1"  >
<path style="stroke: none; stroke-width: 1; stroke-dasharray: none; stroke-linecap: butt; stroke-dashoffset: 0; stroke-linejoin: miter; stroke-miterlimit: 4; fill: rgb(198,40,40); fill-rule: nonzero; opacity: 1;"  transform=" translate(-24, -22.5)" d="M 11 14 h 26 c 0.6 0 1 0.4 1 1 v 5.8 c 0 0.7 -0.4 1.4 -1.1 1.8 L 24 31 l -12.9 -8.4 c -0.7 -0.3 -1.1 -1 -1.1 -1.8 V 15 C 10 14.4 10.4 14 11 14 z" stroke-linecap="round" />
</g>
<g transform="matrix(4.17 0 0 4.17 200 187.5)" id="surface1"  >
<path style="stroke: none; stroke-width: 1; stroke-dasharray: none; stroke-linecap: butt; stroke-dashoffset: 0; stroke-linejoin: miter; stroke-miterlimit: 4; fill: rgb(255,61,0); fill-rule: nonzero; opacity: 1;"  transform=" translate(-24, -21)" d="M 37 14 H 11 c -0.6 0 -1 0.4 -1 1 v 3.8 c 0 0.7 0.4 1.4 1.1 1.8 L 24 28 l 12.9 -7.4 c 0.7 -0.3 1.1 -1 1.1 -1.8 V 15 C 38 14.4 37.6 14 37 14 z" stroke-linecap="round" />
</g>
<g transform="matrix(4.17 0 0 4.17 200 216.67)" id="surface1"  >
<path style="stroke: none; stroke-width: 1; stroke-dasharray: none; stroke-linecap: butt; stroke-dashoffset: 0; stroke-linejoin: miter; stroke-miterlimit: 4; fill: rgb(253,216,53); fill-rule: nonzero; opacity: 1;"  transform=" translate(-24, -28)" d="M 21 25 h 6 v 6 h -6 V 25 z" stroke-linecap="round" />
</g>
<g transform="matrix(4.17 0 0 4.17 200 216.67)" id="surface1"  >
<path style="stroke: none; stroke-width: 1; stroke-dasharray: none; stroke-linecap: butt; stroke-dashoffset: 0; stroke-linejoin: miter; stroke-miterlimit: 4; fill: rgb(255,179,0); fill-rule: nonzero; opacity: 1;"  transform=" translate(-24, -28)" d="M 27 32 h -6 c -0.6 0 -1 -0.4 -1 -1 v -6 c 0 -0.6 0.4 -1 1 -1 h 6 c 0.6 0 1 0.4 1 1 v 6 C 28 31.6 27.6 32 27 32 z M 22 30 h 4 v -4 h -4 V 30 z" stroke-linecap="round" />
</g>
<g transform="matrix(4.17 0 0 4.17 166.67 154.17)" id="surface1"  >
<path style="stroke: none; stroke-width: 1; stroke-dasharray: none; stroke-linecap: butt; stroke-dashoffset: 0; stroke-linejoin: miter; stroke-miterlimit: 4; fill: rgb(255,179,0); fill-rule: nonzero; opacity: 1;"  transform=" translate(-16, -13)" d="M 19 14 h -6 v -1 c 0 -0.6 0.4 -1 1 -1 h 4 c 0.6 0 1 0.4 1 1 V 14 z" stroke-linecap="round" />
</g>
<g transform="matrix(4.17 0 0 4.17 233.33 154.17)" id="surface1"  >
<path style="stroke: none; stroke-width: 1; stroke-dasharray: none; stroke-linecap: butt; stroke-dashoffset: 0; stroke-linejoin: miter; stroke-miterlimit: 4; fill: rgb(255,179,0); fill-rule: nonzero; opacity: 1;"  transform=" translate(-32, -13)" d="M 35 14 h -6 v -1 c 0 -0.6 0.4 -1 1 -1 h 4 c 0.6 0 1 0.4 1 1 V 14 z" stroke-linecap="round" />
</g>
</svg>