<?xml version="1.0" encoding="UTF-8" standalone="no" ?>
<!DOCTYPE svg PUBLIC "-//W3C//DTD SVG 1.1//EN" "http://www.w3.org/Graphics/SVG/1.1/DTD/svg11.dtd">
<svg xmlns="http://www.w3.org/2000/svg" xmlns:xlink="http://www.w3.org/1999/xlink" version="1.1" width="400" height="400" viewBox="0 0 400 400" xml:space="preserve">
<desc>Created with Fabric.js 3.6.2</desc>
<defs>
</defs>
<g transform="matrix(4.17 0 0 4.17 200 189.58)" id="Layer_1"  >
<path style="stroke: none; stroke-width: 1; stroke-dasharray: none; stroke-linecap: butt; stroke-dashoffset: 0; stroke-linejoin: miter; stroke-miterlimit: 4; fill: rgb(251,140,0); fill-rule: nonzero; opacity: 1;"  transform=" translate(-24, -21.5)" d="M 39 22.375 C 40.519 19.717 42 18 42 8 c 0 -3 -1 -4 -3.125 -4 C 33.125 4 29 13 29 13 s -2 1 -5 1 s -5 -1 -5 -1 s -4.125 -9 -9.875 -9 c -1.97 0 -2.973 0.859 -3.109 3.375 C 6.005 7.573 6 7.781 6 8 c 0 10 1.481 11.717 3 14.375 c 0 0 -2.684 3.243 -3.821 6.978 C 5.114 29.568 5.054 29.783 5 30 c 1 0 3.875 2 3.875 4 L 16 39 h 16 l 7.125 -5 c 0 -2 2.875 -4 3.875 -4 C 42 26 39 22.375 39 22.375 z" stroke-linecap="round" />
</g>
<g transform="matrix(4.17 0 0 4.17 254.17 156.25)" id="Layer_1"  >
<path style="stroke: none; stroke-width: 1; stroke-dasharray: none; stroke-linecap: butt; stroke-dashoffset: 0; stroke-linejoin: miter; stroke-miterlimit: 4; fill: rgb(215,204,200); fill-rule: nonzero; opacity: 1;"  transform=" translate(-37, -13.5)" d="M 38.202 6.082 C 38.222 6.077 38.604 6 38.625 6 c 0.125 -0.001 0.214 0 0.25 0 C 39.716 6 40 6 40 8 c 0 10.5 -3 13 -3 13 s 0 -3 -1 -4 c -0.75 1 -2 1 -2 1 s 0.774 -5.088 0.25 -6.5 C 34.25 11.5 35.16 6.781 38.202 6.082 z" stroke-linecap="round" />
</g>
<g transform="matrix(4.17 0 0 4.17 247.92 150)" id="Layer_1"  >
<path style="stroke: none; stroke-width: 1; stroke-dasharray: none; stroke-linecap: butt; stroke-dashoffset: 0; stroke-linejoin: miter; stroke-miterlimit: 4; fill: rgb(188,170,164); fill-rule: nonzero; opacity: 1;"  transform=" translate(-35.5, -12)" d="M 38.75 5.999 c -3.75 0 -6.75 8 -6.75 8 s 1 -1 2 -1 C 34 15 34 16.75 34 18 c 0 0 2 -3 2 -7 c 0 -3.375 3 -5 3 -5 L 38.75 5.999 z" stroke-linecap="round" />
</g>
<g transform="matrix(4.17 0 0 4.17 145.83 156.25)" id="Layer_1"  >
<path style="stroke: none; stroke-width: 1; stroke-dasharray: none; stroke-linecap: butt; stroke-dashoffset: 0; stroke-linejoin: miter; stroke-miterlimit: 4; fill: rgb(215,204,200); fill-rule: nonzero; opacity: 1;"  transform=" translate(-11, -13.5)" d="M 9.798 6.082 C 9.778 6.077 9.396 6 9.375 6 C 9.25 5.999 9.161 6 9.125 6 C 8.284 6 8 6 8 8 c 0 10.5 3 13 3 13 s 0 -3 1 -4 c 0.75 1 2 1 2 1 s -0.774 -5.088 -0.25 -6.5 C 13.75 11.5 12.84 6.781 9.798 6.082 z" stroke-linecap="round" />
</g>
<g transform="matrix(4.17 0 0 4.17 152.08 150)" id="Layer_1"  >
<path style="stroke: none; stroke-width: 1; stroke-dasharray: none; stroke-linecap: butt; stroke-dashoffset: 0; stroke-linejoin: miter; stroke-miterlimit: 4; fill: rgb(188,170,164); fill-rule: nonzero; opacity: 1;"  transform=" translate(-12.5, -12)" d="M 9.25 5.999 c 3.75 0 6.75 8 6.75 8 s -1 -1 -2 -1 C 14 15 14 16.75 14 18 c 0 0 -2 -3 -2 -7 c 0 -3.375 -3 -5 -3 -5 L 9.25 5.999 z" stroke-linecap="round" />
</g>
<g transform="matrix(4.17 0 0 4.17 229.16 210.42)" id="Layer_1"  >
<path style="stroke: none; stroke-width: 1; stroke-dasharray: none; stroke-linecap: butt; stroke-dashoffset: 0; stroke-linejoin: miter; stroke-miterlimit: 4; fill: rgb(255,152,0); fill-rule: nonzero; opacity: 1;"  transform=" translate(-31, -26.5)" d="M 27.875 25 C 29 23 33 22 33 22 v 1 c 1.25 0 2 -1 2 -1 s 0 3 -1 4 c -2.379 2.379 -6.6 3.238 -7 5 C 27 29.323 26.882 26.765 27.875 25 z" stroke-linecap="round" />
</g>
<g transform="matrix(4.17 0 0 4.17 231.25 229.17)" id="Layer_1"  >
<path style="stroke: none; stroke-width: 1; stroke-dasharray: none; stroke-linecap: butt; stroke-dashoffset: 0; stroke-linejoin: miter; stroke-miterlimit: 4; fill: rgb(245,124,0); fill-rule: nonzero; opacity: 1;"  transform=" translate(-31.5, -31)" d="M 27 31.976 C 27 34.425 29.57 37 29.57 37 S 36 34.057 36 25.122 c 0 0 -1 -0.122 -4 -0.122 C 28 25 27 27.815 27 31.976 z" stroke-linecap="round" />
</g>
<g transform="matrix(4.17 0 0 4.17 170.84 210.42)" id="Layer_1"  >
<path style="stroke: none; stroke-width: 1; stroke-dasharray: none; stroke-linecap: butt; stroke-dashoffset: 0; stroke-linejoin: miter; stroke-miterlimit: 4; fill: rgb(255,152,0); fill-rule: nonzero; opacity: 1;"  transform=" translate(-17, -26.5)" d="M 20.125 25 C 19 23 15 22 15 22 v 1 c -1.25 0 -2 -1 -2 -1 s 0 3 1 4 c 2.379 2.379 6.6 3.238 7 5 C 21 29.323 21.118 26.765 20.125 25 z" stroke-linecap="round" />
</g>
<g transform="matrix(4.17 0 0 4.17 168.75 229.17)" id="Layer_1"  >
<path style="stroke: none; stroke-width: 1; stroke-dasharray: none; stroke-linecap: butt; stroke-dashoffset: 0; stroke-linejoin: miter; stroke-miterlimit: 4; fill: rgb(245,124,0); fill-rule: nonzero; opacity: 1;"  transform=" translate(-16.5, -31)" d="M 16 25 c -3 0 -4 0 -4 0 c 0 9.027 6.43 12 6.43 12 S 21 34.398 21 31.925 C 21 27.721 20 25 16 25 z" stroke-linecap="round" />
</g>
<g transform="matrix(4.17 0 0 4.17 200 162.5)" id="Layer_1"  >
<path style="stroke: none; stroke-width: 1; stroke-dasharray: none; stroke-linecap: butt; stroke-dashoffset: 0; stroke-linejoin: miter; stroke-miterlimit: 4; fill: rgb(245,124,0); fill-rule: nonzero; opacity: 1;"  transform=" translate(-24, -15)" d="M 24 12 c -3 0 -5 1 -5 1 s 1 2.75 1 4 c 0 0 1.625 -0.125 2 -1 c 0 1.125 2 2 2 2 s 2 -0.875 2 -2 c 0.375 0.875 2 1 2 1 c 0 -1.25 1 -4 1 -4 S 27 12 24 12 z" stroke-linecap="round" />
</g>
<g transform="matrix(4.17 0 0 4.17 248.28 256.17)" id="Layer_1"  >
<path style="stroke: none; stroke-width: 1; stroke-dasharray: none; stroke-linecap: butt; stroke-dashoffset: 0; stroke-linejoin: miter; stroke-miterlimit: 4; fill: rgb(215,204,200); fill-rule: nonzero; opacity: 1;"  transform=" translate(-35.59, -37.48)" d="M 43 33 c 0 0 -2 -1 -7 -1 s -6.5 5 -6.5 5 l -1.327 5.962 c 0 0 11.827 -3.087 13.827 -5.962 c -2 0 -3 -1 -3 -1 C 42 35.5 43 33 43 33 z" stroke-linecap="round" />
</g>
<g transform="matrix(4.17 0 0 4.17 151.72 256.17)" id="Layer_1"  >
<path style="stroke: none; stroke-width: 1; stroke-dasharray: none; stroke-linecap: butt; stroke-dashoffset: 0; stroke-linejoin: miter; stroke-miterlimit: 4; fill: rgb(215,204,200); fill-rule: nonzero; opacity: 1;"  transform=" translate(-12.41, -37.48)" d="M 12 32 c -5 0 -7 1 -7 1 s 1 2.5 4 3 c 0 0 -1 1 -3 1 c 2 2.875 13.827 5.962 13.827 5.962 L 18.5 37 C 18.5 37 17 32 12 32 z" stroke-linecap="round" />
</g>
<g transform="matrix(4.17 0 0 4.17 200 266.67)" id="Layer_1"  >
<path style="stroke: none; stroke-width: 1; stroke-dasharray: none; stroke-linecap: butt; stroke-dashoffset: 0; stroke-linejoin: miter; stroke-miterlimit: 4; fill: rgb(188,170,164); fill-rule: nonzero; opacity: 1;"  transform=" translate(-24, -40)" d="M 26 36 h -1.992 H 24 h -0.008 H 22 c -3.038 0 -4 0.791 -4 3 c 0 3 1.962 5 5 5 h 0.992 H 24 h 0.008 H 25 c 3.038 0 5 -2 5 -5 C 30 36.791 29.038 36 26 36 z" stroke-linecap="round" />
</g>
<g transform="matrix(4.17 0 0 4.17 200 274.74)" id="Layer_1"  >
<path style="stroke: none; stroke-width: 1; stroke-dasharray: none; stroke-linecap: butt; stroke-dashoffset: 0; stroke-linejoin: miter; stroke-miterlimit: 4; fill: rgb(161,136,127); fill-rule: nonzero; opacity: 1;"  transform=" translate(-24, -41.94)" d="M 21.438 43.778 L 21.438 43.778 c 0.028 0.008 0.056 0.016 0.084 0.023 c 0.228 0.058 0.464 0.104 0.71 0.134 C 22.483 43.966 22.732 44 23 44 h 0.992 H 24 h 0.008 H 25 c 0.235 0 0.451 -0.033 0.673 -0.057 c 0.018 -0.011 0.036 -0.003 0.054 -0.005 c 0.016 -0.002 0.033 -0.002 0.049 -0.004 h 0 c 0.244 -0.03 0.477 -0.076 0.703 -0.134 c 0.029 -0.007 0.058 -0.016 0.086 -0.024 c 0.003 -0.001 0.005 -0.001 0.008 -0.002 l 0 0 c 0.651 -0.179 1.222 -0.468 1.704 -0.857 c -2.278 -0.042 -4.153 -2.171 -4.147 -3.042 h -0.255 c 0 0.872 -1.875 3 -4.153 3.042 C 20.207 43.309 20.782 43.6 21.438 43.778 z" stroke-linecap="round" />
</g>
<g transform="matrix(4.17 0 0 4.17 200 258.33)" id="Layer_1"  >
<path style="stroke: none; stroke-width: 1; stroke-dasharray: none; stroke-linecap: butt; stroke-dashoffset: 0; stroke-linejoin: miter; stroke-miterlimit: 4; fill: rgb(62,39,35); fill-rule: nonzero; opacity: 1;"  transform=" translate(-24, -38)" d="M 24.008 36.003 c -0.003 0 -0.005 0 -0.008 0 s -0.005 0 -0.008 0 c -1.653 0 -2.992 -0.105 -2.992 0.999 C 21 38.106 23.016 40 24.008 40 S 27 38.106 27 37.002 C 27 35.898 25.66 36.003 24.008 36.003 z" stroke-linecap="round" />
</g>
<g transform="matrix(4.17 0 0 4.17 227.08 222.92)" id="Layer_1"  >
<path style="stroke: none; stroke-width: 1; stroke-dasharray: none; stroke-linecap: butt; stroke-dashoffset: 0; stroke-linejoin: miter; stroke-miterlimit: 4; fill: rgb(121,85,72); fill-rule: nonzero; opacity: 1;"  transform=" translate(-30.5, -29.5)" d="M 31.25 27 c 2.129 0 2.75 0 2.75 0 s -1.026 0.804 -1 1.75 c 0.038 1.354 -0.855 3.25 -3 3.25 c -1.125 0 -3 -0.001 -3 -0.001 S 26.993 27 31.25 27 z" stroke-linecap="round" />
</g>
<g transform="matrix(4.17 0 0 4.17 225.63 222.92)" id="Layer_1"  >
<path style="stroke: none; stroke-width: 1; stroke-dasharray: none; stroke-linecap: butt; stroke-dashoffset: 0; stroke-linejoin: miter; stroke-miterlimit: 4; fill: rgb(255,179,0); fill-rule: nonzero; opacity: 1;"  transform=" translate(-30.15, -29.5)" d="M 30.5 28 c 0.514 0 0.928 0.053 1.289 0.123 C 31.92 28.388 32 28.684 32 29 c 0 1.105 -0.895 2 -2 2 c -0.722 0 -1.349 -0.386 -1.7 -0.959 C 28.607 29.027 29.23 28 30.5 28 z" stroke-linecap="round" />
</g>
<g transform="matrix(4.17 0 0 4.17 225 220.9)" id="Layer_1"  >
<path style="stroke: none; stroke-width: 1; stroke-dasharray: none; stroke-linecap: butt; stroke-dashoffset: 0; stroke-linejoin: miter; stroke-miterlimit: 4; fill: rgb(33,33,33); fill-rule: nonzero; opacity: 1;"  transform=" translate(-30, -29.02)" d="M 30.169 28.034 C 30.638 28.117 31 28.508 31 29 c 0 0.552 -0.448 1 -1 1 s -1 -0.448 -1 -1 c 0 -0.145 0.034 -0.282 0.09 -0.406 C 29.37 28.307 29.725 28.104 30.169 28.034 z" stroke-linecap="round" />
</g>
<g transform="matrix(4.17 0 0 4.17 172.92 222.92)" id="Layer_1"  >
<path style="stroke: none; stroke-width: 1; stroke-dasharray: none; stroke-linecap: butt; stroke-dashoffset: 0; stroke-linejoin: miter; stroke-miterlimit: 4; fill: rgb(121,85,72); fill-rule: nonzero; opacity: 1;"  transform=" translate(-17.5, -29.5)" d="M 16.743 27 C 14.614 27 14 27 14 27 s 1.026 0.804 1 1.75 C 14.962 30.104 15.855 32 18 32 c 1.125 0 3 -0.001 3 -0.001 S 21 27 16.743 27 z" stroke-linecap="round" />
</g>
<g transform="matrix(4.17 0 0 4.17 174.38 222.92)" id="Layer_1"  >
<path style="stroke: none; stroke-width: 1; stroke-dasharray: none; stroke-linecap: butt; stroke-dashoffset: 0; stroke-linejoin: miter; stroke-miterlimit: 4; fill: rgb(255,179,0); fill-rule: nonzero; opacity: 1;"  transform=" translate(-17.85, -29.5)" d="M 17.5 28 c -0.514 0 -0.928 0.053 -1.289 0.123 C 16.08 28.388 16 28.684 16 29 c 0 1.105 0.895 2 2 2 c 0.722 0 1.349 -0.386 1.7 -0.959 C 19.393 29.027 18.77 28 17.5 28 z" stroke-linecap="round" />
</g>
<g transform="matrix(4.17 0 0 4.17 175 220.9)" id="Layer_1"  >
<path style="stroke: none; stroke-width: 1; stroke-dasharray: none; stroke-linecap: butt; stroke-dashoffset: 0; stroke-linejoin: miter; stroke-miterlimit: 4; fill: rgb(33,33,33); fill-rule: nonzero; opacity: 1;"  transform=" translate(-18, -29.02)" d="M 17.831 28.034 C 17.362 28.117 17 28.508 17 29 c 0 0.552 0.448 1 1 1 s 1 -0.448 1 -1 c 0 -0.145 -0.034 -0.282 -0.09 -0.406 C 18.63 28.307 18.275 28.104 17.831 28.034 z" stroke-linecap="round" />
</g>
</svg>