<?xml version="1.0" encoding="UTF-8" standalone="no" ?>
<!DOCTYPE svg PUBLIC "-//W3C//DTD SVG 1.1//EN" "http://www.w3.org/Graphics/SVG/1.1/DTD/svg11.dtd">
<svg xmlns="http://www.w3.org/2000/svg" xmlns:xlink="http://www.w3.org/1999/xlink" version="1.1" width="400" height="400" viewBox="0 0 400 400" xml:space="preserve">
<desc>Created with Fabric.js 3.6.2</desc>
<defs>
</defs>
<g transform="matrix(4.17 0 0 4.17 200.14 116.67)" id="surface1"  >
<path style="stroke: none; stroke-width: 1; stroke-dasharray: none; stroke-linecap: butt; stroke-dashoffset: 0; stroke-linejoin: miter; stroke-miterlimit: 4; fill: rgb(21,101,192); fill-rule: nonzero; opacity: 1;"  transform=" translate(-24.03, -4)" d="M 15.015625 3 L 32.984375 3 L 33.714844 5 L 14.351563 5 Z" stroke-linecap="round" />
</g>
<g transform="matrix(4.17 0 0 4.17 170.83 116.67)" id="surface1"  >
<path style="stroke: none; stroke-width: 1; stroke-dasharray: none; stroke-linecap: butt; stroke-dashoffset: 0; stroke-linejoin: miter; stroke-miterlimit: 4; fill: rgb(100,181,246); fill-rule: nonzero; opacity: 1;"  transform=" translate(-17, -4)" d="M 16 3 L 18 3 L 18 5 L 16 5 Z" stroke-linecap="round" />
</g>
<g transform="matrix(4.17 0 0 4.17 229.17 116.67)" id="surface1"  >
<path style="stroke: none; stroke-width: 1; stroke-dasharray: none; stroke-linecap: butt; stroke-dashoffset: 0; stroke-linejoin: miter; stroke-miterlimit: 4; fill: rgb(100,181,246); fill-rule: nonzero; opacity: 1;"  transform=" translate(-31, -4)" d="M 30 3 L 32 3 L 32 5 L 30 5 Z" stroke-linecap="round" />
</g>
<g transform="matrix(4.17 0 0 4.17 199.99 204.17)" id="surface1"  >
<path style="stroke: none; stroke-width: 1; stroke-dasharray: none; stroke-linecap: butt; stroke-dashoffset: 0; stroke-linejoin: miter; stroke-miterlimit: 4; fill: rgb(100,181,246); fill-rule: nonzero; opacity: 1;"  transform=" translate(-24, -25)" d="M 14.34375 5 C 10.53125 12.96875 16 45 16 45 L 21 45 L 24 14 L 27 45 L 32 45 C 32 45 37.484375 11.890625 33.625 5 C 32.785156 5 16.097656 5 14.34375 5 Z" stroke-linecap="round" />
</g>
<g transform="matrix(4.17 0 0 4.17 200 116.67)" id="surface1"  >
<path style="stroke: none; stroke-width: 1; stroke-dasharray: none; stroke-linecap: butt; stroke-dashoffset: 0; stroke-linejoin: miter; stroke-miterlimit: 4; fill: rgb(255,193,7); fill-rule: nonzero; opacity: 1;"  transform=" translate(-24, -4)" d="M 25 4 C 25 4.550781 24.550781 5 24 5 C 23.449219 5 23 4.550781 23 4 C 23 3.449219 23.449219 3 24 3 C 24.550781 3 25 3.449219 25 4 Z" stroke-linecap="round" />
</g>
<g transform="matrix(4.17 0 0 4.17 200 133.33)" id="surface1"  >
<path style="stroke: none; stroke-width: 1; stroke-dasharray: none; stroke-linecap: butt; stroke-dashoffset: 0; stroke-linejoin: miter; stroke-miterlimit: 4; fill: rgb(30,136,229); fill-rule: nonzero; opacity: 1;"  transform=" translate(-24, -8)" d="M 23 11 L 23 5 L 25 5 L 25 9.667969 C 25 9.667969 25 11 23 11 Z" stroke-linecap="round" />
</g>
<g transform="matrix(4.17 0 0 4.17 168.88 135.42)" id="surface1"  >
<path style="stroke: none; stroke-width: 1; stroke-dasharray: none; stroke-linecap: butt; stroke-dashoffset: 0; stroke-linejoin: miter; stroke-miterlimit: 4; fill: rgb(30,136,229); fill-rule: nonzero; opacity: 1;"  transform=" translate(-16.53, -8.5)" d="M 20 5 L 14.34375 5 C 14.34375 5 13.0625 8 13.0625 12 C 18.039063 12 20 5 20 5 Z" stroke-linecap="round" />
</g>
<g transform="matrix(4.17 0 0 4.17 231.14 135.42)" id="surface1"  >
<path style="stroke: none; stroke-width: 1; stroke-dasharray: none; stroke-linecap: butt; stroke-dashoffset: 0; stroke-linejoin: miter; stroke-miterlimit: 4; fill: rgb(30,136,229); fill-rule: nonzero; opacity: 1;"  transform=" translate(-31.47, -8.5)" d="M 28 5 L 33.726563 5 C 33.726563 5 34.8125 7.203125 34.945313 12 C 29.972656 12 28 5 28 5 Z" stroke-linecap="round" />
</g>
</svg>