<?xml version="1.0" encoding="UTF-8" standalone="no" ?>
<!DOCTYPE svg PUBLIC "-//W3C//DTD SVG 1.1//EN" "http://www.w3.org/Graphics/SVG/1.1/DTD/svg11.dtd">
<svg xmlns="http://www.w3.org/2000/svg" xmlns:xlink="http://www.w3.org/1999/xlink" version="1.1" width="400" height="400" viewBox="0 0 400 400" xml:space="preserve">
<desc>Created with Fabric.js 3.6.2</desc>
<defs>
</defs>
<g transform="matrix(4.17 0 0 4.17 164.58 168.76)" id="surface1"  >
<path style="stroke: none; stroke-width: 1; stroke-dasharray: none; stroke-linecap: butt; stroke-dashoffset: 0; stroke-linejoin: miter; stroke-miterlimit: 4; fill: rgb(26,35,126); fill-rule: nonzero; opacity: 1;"  transform=" translate(-15.5, -16.5)" d="M 19 14 h -7 c 0 0 0.5 3.4 3.2 4.8 S 19 14 19 14 z" stroke-linecap="round" />
</g>
<g transform="matrix(4.17 0 0 4.17 199.15 191.2)" id="surface1"  >
<path style="stroke: none; stroke-width: 1; stroke-dasharray: none; stroke-linecap: butt; stroke-dashoffset: 0; stroke-linejoin: miter; stroke-miterlimit: 4; fill: rgb(63,81,181); fill-rule: nonzero; opacity: 1;"  transform=" translate(-23.8, -21.89)" d="M 11.8 37.6 c 0 0 -1.6 0.1 -3.5 -3.4 c -1.9 -3.5 -3.2 -6.3 -3.2 -6.3 s -0.4 -2.6 0.5 -3.5 c 1.4 -1.4 4.2 2.8 7.6 -0.7 c 0 0 2.8 -2.8 2.1 -6.2 c -0.3 -1.4 -0.7 -2.1 0.7 -3.5 c 1.4 -1.4 9 -0.7 14.6 -3.5 c 0 0 3.5 -2.1 4.2 -2.8 c 0.7 -0.7 3.5 -3.5 6.9 0 c 2.9 2.9 -2.1 9 -4.2 11.1 c -2.1 2.1 -14.6 14.6 -14.6 14.6 S 15.9 38.9 11.8 37.6 z" stroke-linecap="round" />
</g>
<g transform="matrix(4.17 0 0 4.17 185.42 202.29)" id="surface1"  >
<path style="stroke: none; stroke-width: 1; stroke-dasharray: none; stroke-linecap: butt; stroke-dashoffset: 0; stroke-linejoin: miter; stroke-miterlimit: 4; fill: rgb(38,50,56); fill-rule: nonzero; opacity: 1;"  transform=" translate(-20.5, -24.55)" d="M 12.6 37.7 c 0.1 0 0.3 0 0.4 0 l 9.1 -7.8 L 20.8 16 l 7.6 -2.1 l -0.4 -2.5 c -4 1.3 -8.4 1.4 -10.7 1.9 C 17.8 22.3 13.4 35.1 12.6 37.7 z" stroke-linecap="round" />
</g>
<g transform="matrix(4.17 0 0 4.17 213.96 203.75)" id="surface1"  >
<path style="stroke: none; stroke-width: 1; stroke-dasharray: none; stroke-linecap: butt; stroke-dashoffset: 0; stroke-linejoin: miter; stroke-miterlimit: 4; fill: rgb(176,190,197); fill-rule: nonzero; opacity: 1;"  transform=" translate(-27.35, -24.9)" d="M 43 7.7 v 1.4 c 0 0 -0.7 7.6 -5.6 12.5 c -6.3 6.3 -13.8 13.8 -14.6 14.6 c -2.8 2.8 -6.9 5.6 -6.9 5.6 c -0.4 0.4 -1 0.4 -1.4 0 l -2.8 -4.2 c 2.1 -0.7 4.2 -2.8 9 -7.6 c 0 0 12.5 -9.7 14.6 -11.8 c 0 0 6.2 -6.2 6.2 -10.4 H 43 z" stroke-linecap="round" />
</g>
<g transform="matrix(4.17 0 0 4.17 233.87 149.45)" id="surface1"  >
<path style="stroke: none; stroke-width: 1; stroke-dasharray: none; stroke-linecap: butt; stroke-dashoffset: 0; stroke-linejoin: miter; stroke-miterlimit: 4; fill: rgb(33,150,243); fill-rule: nonzero; opacity: 1;"  transform=" translate(-32.13, -11.87)" d="M 27.4 16.9 c 0.4 0.9 2 0.8 2.8 0 c 0 0 8.3 -7.5 6.9 -10.7 c 0 0 0 0 0 0 c -0.3 0.1 -0.6 0.2 -0.8 0.3 c 0 0 0 0 0 0 c -0.3 0.1 -0.5 0.3 -0.7 0.4 c 0 0 0 0 0 0 c -0.4 0.3 -0.7 0.6 -0.9 0.8 c -0.7 0.7 -4.2 2.8 -4.2 2.8 c -1.1 0.6 -2.3 1 -3.5 1.3 C 27 13.7 27.1 16.1 27.4 16.9 z" stroke-linecap="round" />
</g>
<g transform="matrix(4.17 0 0 4.17 143.96 237.51)" id="surface1"  >
<path style="stroke: none; stroke-width: 1; stroke-dasharray: none; stroke-linecap: butt; stroke-dashoffset: 0; stroke-linejoin: miter; stroke-miterlimit: 4; fill: rgb(33,150,243); fill-rule: nonzero; opacity: 1;"  transform=" translate(-10.55, -33)" d="M 14.9 30 c -2.2 0.3 -6 -2.1 -8 -1.5 c -0.6 0.2 -0.7 1.1 -0.7 1.7 c 0.5 1.1 1.2 2.4 2 4 c 1.9 3.5 3.5 3.4 3.5 3.4 c 0.3 -0.1 0.7 -0.3 1 -0.5 C 13.3 35.7 14.1 33.1 14.9 30 z" stroke-linecap="round" />
</g>
<g transform="matrix(4.17 0 0 4.17 183.33 155.42)" id="surface1"  >
<path style="stroke: none; stroke-width: 1; stroke-dasharray: none; stroke-linecap: butt; stroke-dashoffset: 0; stroke-linejoin: miter; stroke-miterlimit: 4; fill: rgb(33,150,243); fill-rule: nonzero; opacity: 1;"  transform=" translate(-20, -13.3)" d="M 20 15 c -0.6 0 -1 -0.4 -1 -1 v -1.4 c 0 -0.6 0.4 -1 1 -1 s 1 0.4 1 1 V 14 C 21 14.6 20.6 15 20 15 z" stroke-linecap="round" />
</g>
<g transform="matrix(4.17 0 0 4.17 200 152.92)" id="surface1"  >
<path style="stroke: none; stroke-width: 1; stroke-dasharray: none; stroke-linecap: butt; stroke-dashoffset: 0; stroke-linejoin: miter; stroke-miterlimit: 4; fill: rgb(33,150,243); fill-rule: nonzero; opacity: 1;"  transform=" translate(-24, -12.7)" d="M 24 14.4 c -0.6 0 -1 -0.4 -1 -1 V 12 c 0 -0.6 0.4 -1 1 -1 s 1 0.4 1 1 v 1.4 C 25 13.9 24.6 14.4 24 14.4 z" stroke-linecap="round" />
</g>
<g transform="matrix(4.17 0 0 4.17 196.67 231.82)" id="surface1"  >
<path style="stroke: none; stroke-width: 1; stroke-dasharray: none; stroke-linecap: butt; stroke-dashoffset: 0; stroke-linejoin: miter; stroke-miterlimit: 4; fill: rgb(96,125,139); fill-rule: nonzero; opacity: 1;"  transform=" translate(-23.2, -31.64)" d="M 27.7 27.1 c 0.4 0.4 0.4 1 0 1.4 l -7.6 7.6 c -0.4 0.4 -1 0.4 -1.4 0 c -0.4 -0.4 -0.4 -1 0 -1.4 l 7.6 -7.6 C 26.7 26.8 27.4 26.8 27.7 27.1 z" stroke-linecap="round" />
</g>
</svg>