<?xml version="1.0" encoding="UTF-8" standalone="no" ?>
<!DOCTYPE svg PUBLIC "-//W3C//DTD SVG 1.1//EN" "http://www.w3.org/Graphics/SVG/1.1/DTD/svg11.dtd">
<svg xmlns="http://www.w3.org/2000/svg" xmlns:xlink="http://www.w3.org/1999/xlink" version="1.1" width="400" height="400" viewBox="0 0 400 400" xml:space="preserve">
<desc>Created with Fabric.js 3.6.2</desc>
<defs>
</defs>
<g transform="matrix(4.17 0 0 4.17 200 202.08)" id="surface1"  >
<path style="stroke: none; stroke-width: 1; stroke-dasharray: none; stroke-linecap: butt; stroke-dashoffset: 0; stroke-linejoin: miter; stroke-miterlimit: 4; fill: rgb(207,216,220); fill-rule: nonzero; opacity: 1;"  transform=" translate(-24, -24.5)" d="M 19 4 L 18 6 L 12 9 L 4 26 L 11 29 L 14 22 L 14 45 L 34 45 L 34 22 L 37 29 L 44 26 L 36 9 L 30 6 L 29 4" stroke-linecap="round" />
</g>
<g transform="matrix(4.17 0 0 4.17 200 131.25)" id="surface1"  >
<path style="stroke: none; stroke-width: 1; stroke-dasharray: none; stroke-linecap: butt; stroke-dashoffset: 0; stroke-linejoin: miter; stroke-miterlimit: 4; fill: rgb(96,125,139); fill-rule: nonzero; opacity: 1;"  transform=" translate(-24, -7.5)" d="M 19 4 L 24 12 L 29 4 C 29 4 27.101563 3 24 3 C 20.898438 3 19 4 19 4 Z" stroke-linecap="round" />
</g>
<g transform="matrix(4.17 0 0 4.17 193.75 179.17)" id="surface1"  >
<path style="stroke: none; stroke-width: 1; stroke-dasharray: none; stroke-linecap: butt; stroke-dashoffset: 0; stroke-linejoin: miter; stroke-miterlimit: 4; fill: rgb(176,190,197); fill-rule: nonzero; opacity: 1;"  transform=" translate(-22.5, -19)" d="M 29 4 L 24 12.101563 L 19 4 L 17 6.5 L 22.199219 15 L 14 28.300781 L 14 34 L 31 6.5 Z" stroke-linecap="round" />
</g>
<g transform="matrix(4.17 0 0 4.17 193.96 152.5)" id="surface1"  >
<path style="stroke: none; stroke-width: 1; stroke-dasharray: none; stroke-linecap: butt; stroke-dashoffset: 0; stroke-linejoin: miter; stroke-miterlimit: 4; fill: rgb(144,164,174); fill-rule: nonzero; opacity: 1;"  transform=" translate(-22.55, -12.6)" d="M 21.101563 13 L 22.199219 15 L 24 12.101563 L 22.800781 10.199219 Z" stroke-linecap="round" />
</g>
<g transform="matrix(4.17 0 0 4.17 200 216.67)" id="surface1"  >
<path style="stroke: none; stroke-width: 1; stroke-dasharray: none; stroke-linecap: butt; stroke-dashoffset: 0; stroke-linejoin: miter; stroke-miterlimit: 4; fill: rgb(33,33,33); fill-rule: nonzero; opacity: 1;"  transform=" translate(-24, -28)" d="M 14 27 L 34 27 L 34 29 L 14 29 Z" stroke-linecap="round" />
</g>
<g transform="matrix(4.17 0 0 4.17 200 216.67)" id="surface1"  >
<path style="stroke: none; stroke-width: 1; stroke-dasharray: none; stroke-linecap: butt; stroke-dashoffset: 0; stroke-linejoin: miter; stroke-miterlimit: 4; fill: rgb(33,33,33); fill-rule: nonzero; opacity: 1;"  transform=" translate(-24, -28)" d="M 25 30 L 23 30 C 22.5 30 22 29.5 22 29 L 22 27 C 22 26.5 22.5 26 23 26 L 25 26 C 25.5 26 26 26.5 26 27 L 26 29 C 26 29.5 25.5 30 25 30 Z" stroke-linecap="round" />
</g>
<g transform="matrix(4.17 0 0 4.17 195.83 242.5)" id="surface1"  >
<path style="stroke: none; stroke-width: 1; stroke-dasharray: none; stroke-linecap: butt; stroke-dashoffset: 0; stroke-linejoin: miter; stroke-miterlimit: 4; fill: rgb(33,33,33); fill-rule: nonzero; opacity: 1;"  transform=" translate(-23, -34.2)" d="M 23.015625 28.214844 L 24.988281 28.554688 L 22.984375 40.183594 L 21.011719 39.84375 Z" stroke-linecap="round" />
</g>
<g transform="matrix(4.17 0 0 4.17 204.17 239.58)" id="surface1"  >
<path style="stroke: none; stroke-width: 1; stroke-dasharray: none; stroke-linecap: butt; stroke-dashoffset: 0; stroke-linejoin: miter; stroke-miterlimit: 4; fill: rgb(33,33,33); fill-rule: nonzero; opacity: 1;"  transform=" translate(-25, -33.5)" d="M 24.980469 28.792969 L 26.972656 37.773438 L 25.023438 38.207031 L 23.027344 29.226563 Z" stroke-linecap="round" />
</g>
</svg>