<?xml version="1.0" encoding="UTF-8" standalone="no" ?>
<!DOCTYPE svg PUBLIC "-//W3C//DTD SVG 1.1//EN" "http://www.w3.org/Graphics/SVG/1.1/DTD/svg11.dtd">
<svg xmlns="http://www.w3.org/2000/svg" xmlns:xlink="http://www.w3.org/1999/xlink" version="1.1" width="400" height="400" viewBox="0 0 400 400" xml:space="preserve">
<desc>Created with Fabric.js 3.6.2</desc>
<defs>
</defs>
<g transform="matrix(4.17 0 0 4.17 200 131.25)" id="surface1"  >
<path style="stroke: none; stroke-width: 1; stroke-dasharray: none; stroke-linecap: butt; stroke-dashoffset: 0; stroke-linejoin: miter; stroke-miterlimit: 4; fill: rgb(40,53,147); fill-rule: nonzero; opacity: 1;"  transform=" translate(-24, -7.5)" d="M 11 5 L 37 5 L 37 10 L 11 10 Z" stroke-linecap="round" />
</g>
<g transform="matrix(4.17 0 0 4.17 200 208.33)" id="surface1"  >
<path style="stroke: none; stroke-width: 1; stroke-dasharray: none; stroke-linecap: butt; stroke-dashoffset: 0; stroke-linejoin: miter; stroke-miterlimit: 4; fill: rgb(57,73,171); fill-rule: nonzero; opacity: 1;"  transform=" translate(-24, -26)" d="M 23 43 L 24 25 L 25 43 L 39 43 C 39 43 38.675781 15.40625 37 9 C 34.007813 9 11 9 11 9 C 9.332031 15.328125 9 43 9 43 Z" stroke-linecap="round" />
</g>
<g transform="matrix(4.17 0 0 4.17 166.67 133.33)" id="surface1"  >
<path style="stroke: none; stroke-width: 1; stroke-dasharray: none; stroke-linecap: butt; stroke-dashoffset: 0; stroke-linejoin: miter; stroke-miterlimit: 4; fill: rgb(92,107,192); fill-rule: nonzero; opacity: 1;"  transform=" translate(-16, -8)" d="M 15 5 L 17 5 L 17 11 L 15 11 Z" stroke-linecap="round" />
</g>
<g transform="matrix(4.17 0 0 4.17 233.33 133.33)" id="surface1"  >
<path style="stroke: none; stroke-width: 1; stroke-dasharray: none; stroke-linecap: butt; stroke-dashoffset: 0; stroke-linejoin: miter; stroke-miterlimit: 4; fill: rgb(92,107,192); fill-rule: nonzero; opacity: 1;"  transform=" translate(-32, -8)" d="M 31 5 L 33 5 L 33 11 L 31 11 Z" stroke-linecap="round" />
</g>
<g transform="matrix(4.17 0 0 4.17 204.17 162.5)" id="surface1"  >
<path style="stroke: none; stroke-width: 1; stroke-dasharray: none; stroke-linecap: butt; stroke-dashoffset: 0; stroke-linejoin: miter; stroke-miterlimit: 4; fill: rgb(40,53,147); fill-rule: nonzero; opacity: 1;"  transform=" translate(-25, -15)" d="M 23 21 L 23 9 L 27 9 L 27 17 C 27 17 27 21 23 21 Z" stroke-linecap="round" />
</g>
<g transform="matrix(4.17 0 0 4.17 183.33 129.17)" id="surface1"  >
<path style="stroke: none; stroke-width: 1; stroke-dasharray: none; stroke-linecap: butt; stroke-dashoffset: 0; stroke-linejoin: miter; stroke-miterlimit: 4; fill: rgb(26,35,126); fill-rule: nonzero; opacity: 1;"  transform=" translate(-20, -7)" d="M 19 5 L 21 5 L 21 9 L 19 9 Z" stroke-linecap="round" />
</g>
<g transform="matrix(4.17 0 0 4.17 164.58 266.67)" id="surface1"  >
<path style="stroke: none; stroke-width: 1; stroke-dasharray: none; stroke-linecap: butt; stroke-dashoffset: 0; stroke-linejoin: miter; stroke-miterlimit: 4; fill: rgb(92,107,192); fill-rule: nonzero; opacity: 1;"  transform=" translate(-15.5, -40)" d="M 14 39 L 17 39 L 17 41 L 14 41 Z" stroke-linecap="round" />
</g>
<g transform="matrix(4.17 0 0 4.17 185.42 266.67)" id="surface1"  >
<path style="stroke: none; stroke-width: 1; stroke-dasharray: none; stroke-linecap: butt; stroke-dashoffset: 0; stroke-linejoin: miter; stroke-miterlimit: 4; fill: rgb(92,107,192); fill-rule: nonzero; opacity: 1;"  transform=" translate(-20.5, -40)" d="M 19 39 L 22 39 L 22 41 L 19 41 Z" stroke-linecap="round" />
</g>
<g transform="matrix(4.17 0 0 4.17 214.58 266.67)" id="surface1"  >
<path style="stroke: none; stroke-width: 1; stroke-dasharray: none; stroke-linecap: butt; stroke-dashoffset: 0; stroke-linejoin: miter; stroke-miterlimit: 4; fill: rgb(92,107,192); fill-rule: nonzero; opacity: 1;"  transform=" translate(-27.5, -40)" d="M 26 39 L 29 39 L 29 41 L 26 41 Z" stroke-linecap="round" />
</g>
<g transform="matrix(4.17 0 0 4.17 235.42 266.67)" id="surface1"  >
<path style="stroke: none; stroke-width: 1; stroke-dasharray: none; stroke-linecap: butt; stroke-dashoffset: 0; stroke-linejoin: miter; stroke-miterlimit: 4; fill: rgb(92,107,192); fill-rule: nonzero; opacity: 1;"  transform=" translate(-32.5, -40)" d="M 31 39 L 34 39 L 34 41 L 31 41 Z" stroke-linecap="round" />
</g>
<g transform="matrix(4.17 0 0 4.17 143.82 266.67)" id="surface1"  >
<path style="stroke: none; stroke-width: 1; stroke-dasharray: none; stroke-linecap: butt; stroke-dashoffset: 0; stroke-linejoin: miter; stroke-miterlimit: 4; fill: rgb(92,107,192); fill-rule: nonzero; opacity: 1;"  transform=" translate(-10.52, -40)" d="M 9.03125 41 L 12 41 L 12 39 L 9.070313 39 C 9.054688 39.761719 9.039063 40.433594 9.03125 41 Z" stroke-linecap="round" />
</g>
<g transform="matrix(4.17 0 0 4.17 256.18 266.67)" id="surface1"  >
<path style="stroke: none; stroke-width: 1; stroke-dasharray: none; stroke-linecap: butt; stroke-dashoffset: 0; stroke-linejoin: miter; stroke-miterlimit: 4; fill: rgb(92,107,192); fill-rule: nonzero; opacity: 1;"  transform=" translate(-37.48, -40)" d="M 38.929688 39 L 36 39 L 36 41 L 38.96875 41 C 38.960938 40.433594 38.945313 39.761719 38.929688 39 Z" stroke-linecap="round" />
</g>
</svg>