<?xml version="1.0" encoding="UTF-8" standalone="no" ?>
<!DOCTYPE svg PUBLIC "-//W3C//DTD SVG 1.1//EN" "http://www.w3.org/Graphics/SVG/1.1/DTD/svg11.dtd">
<svg xmlns="http://www.w3.org/2000/svg" xmlns:xlink="http://www.w3.org/1999/xlink" version="1.1" width="400" height="400" viewBox="0 0 400 400" xml:space="preserve">
<desc>Created with Fabric.js 3.6.2</desc>
<defs>
</defs>
<g transform="matrix(4.17 0 0 4.17 200 139.58)" id="surface1"  >
<path style="stroke: none; stroke-width: 1; stroke-dasharray: none; stroke-linecap: butt; stroke-dashoffset: 0; stroke-linejoin: miter; stroke-miterlimit: 4; fill: rgb(76,175,80); fill-rule: nonzero; opacity: 1;"  transform=" translate(-24, -9.5)" d="M 6 6 L 42 6 L 42 13 L 6 13 Z" stroke-linecap="round" />
</g>
<g transform="matrix(4.17 0 0 4.17 200 212.5)" id="surface1"  >
<path style="stroke: none; stroke-width: 1; stroke-dasharray: none; stroke-linecap: butt; stroke-dashoffset: 0; stroke-linejoin: miter; stroke-miterlimit: 4; fill: rgb(76,175,80); fill-rule: nonzero; opacity: 1;"  transform=" translate(-24, -27)" d="M 22 41 L 23.996094 29.332031 L 26 41 L 44 41 C 44 41 44.5 21 42 13 C 39 13 6 13 6 13 C 3.5 20.9375 4 41 4 41 Z" stroke-linecap="round" />
</g>
<g transform="matrix(4.17 0 0 4.17 257.72 179.14)" id="surface1"  >
<path style="stroke: none; stroke-width: 1; stroke-dasharray: none; stroke-linecap: butt; stroke-dashoffset: 0; stroke-linejoin: miter; stroke-miterlimit: 4; fill: rgb(56,142,60); fill-rule: nonzero; opacity: 1;"  transform=" translate(-37.85, -18.99)" d="M 43.707031 24.988281 C 43.425781 20.433594 42.910156 15.917969 42 13 C 41.042969 13 37.023438 13 32 13 C 32 13 32.007813 24.792969 43.707031 24.988281 Z" stroke-linecap="round" />
</g>
<g transform="matrix(4.17 0 0 4.17 202.08 185.41)" id="surface1"  >
<path style="stroke: none; stroke-width: 1; stroke-dasharray: none; stroke-linecap: butt; stroke-dashoffset: 0; stroke-linejoin: miter; stroke-miterlimit: 4; fill: rgb(56,142,60); fill-rule: nonzero; opacity: 1;"  transform=" translate(-24.5, -20.5)" d="M 22 27.996094 L 22 13 L 27 13 L 27 24 C 27 24 27 27.996094 22 27.996094 Z" stroke-linecap="round" />
</g>
<g transform="matrix(4.17 0 0 4.17 142.28 179.14)" id="surface1"  >
<path style="stroke: none; stroke-width: 1; stroke-dasharray: none; stroke-linecap: butt; stroke-dashoffset: 0; stroke-linejoin: miter; stroke-miterlimit: 4; fill: rgb(56,142,60); fill-rule: nonzero; opacity: 1;"  transform=" translate(-10.15, -18.99)" d="M 4.292969 24.988281 C 4.574219 20.433594 5.089844 15.917969 6 13 C 6.957031 13 10.976563 13 16 13 C 16 13 15.992188 24.792969 4.292969 24.988281 Z" stroke-linecap="round" />
</g>
<g transform="matrix(4.17 0 0 4.17 125 254.17)" id="surface1"  >
<path style="stroke: none; stroke-width: 1; stroke-dasharray: none; stroke-linecap: butt; stroke-dashoffset: 0; stroke-linejoin: miter; stroke-miterlimit: 4; fill: rgb(165,214,167); fill-rule: nonzero; opacity: 1;"  transform=" translate(-6, -37)" d="M 4 36 L 8 36 L 8 38 L 4 38 Z" stroke-linecap="round" />
</g>
<g transform="matrix(4.17 0 0 4.17 154.17 254.17)" id="surface1"  >
<path style="stroke: none; stroke-width: 1; stroke-dasharray: none; stroke-linecap: butt; stroke-dashoffset: 0; stroke-linejoin: miter; stroke-miterlimit: 4; fill: rgb(165,214,167); fill-rule: nonzero; opacity: 1;"  transform=" translate(-13, -37)" d="M 11 36 L 15 36 L 15 38 L 11 38 Z" stroke-linecap="round" />
</g>
<g transform="matrix(4.17 0 0 4.17 183.33 254.17)" id="surface1"  >
<path style="stroke: none; stroke-width: 1; stroke-dasharray: none; stroke-linecap: butt; stroke-dashoffset: 0; stroke-linejoin: miter; stroke-miterlimit: 4; fill: rgb(165,214,167); fill-rule: nonzero; opacity: 1;"  transform=" translate(-20, -37)" d="M 18 36 L 22 36 L 22 38 L 18 38 Z" stroke-linecap="round" />
</g>
<g transform="matrix(4.17 0 0 4.17 216.67 254.17)" id="surface1"  >
<path style="stroke: none; stroke-width: 1; stroke-dasharray: none; stroke-linecap: butt; stroke-dashoffset: 0; stroke-linejoin: miter; stroke-miterlimit: 4; fill: rgb(165,214,167); fill-rule: nonzero; opacity: 1;"  transform=" translate(-28, -37)" d="M 26 36 L 30 36 L 30 38 L 26 38 Z" stroke-linecap="round" />
</g>
<g transform="matrix(4.17 0 0 4.17 245.83 254.17)" id="surface1"  >
<path style="stroke: none; stroke-width: 1; stroke-dasharray: none; stroke-linecap: butt; stroke-dashoffset: 0; stroke-linejoin: miter; stroke-miterlimit: 4; fill: rgb(165,214,167); fill-rule: nonzero; opacity: 1;"  transform=" translate(-35, -37)" d="M 33 36 L 37 36 L 37 38 L 33 38 Z" stroke-linecap="round" />
</g>
<g transform="matrix(4.17 0 0 4.17 275 254.17)" id="surface1"  >
<path style="stroke: none; stroke-width: 1; stroke-dasharray: none; stroke-linecap: butt; stroke-dashoffset: 0; stroke-linejoin: miter; stroke-miterlimit: 4; fill: rgb(165,214,167); fill-rule: nonzero; opacity: 1;"  transform=" translate(-42, -37)" d="M 40 36 L 44 36 L 44 38 L 40 38 Z" stroke-linecap="round" />
</g>
<g transform="matrix(4.17 0 0 4.17 264.94 139.58)" id="surface1"  >
<path style="stroke: none; stroke-width: 1; stroke-dasharray: none; stroke-linecap: butt; stroke-dashoffset: 0; stroke-linejoin: miter; stroke-miterlimit: 4; fill: rgb(46,125,50); fill-rule: nonzero; opacity: 1;"  transform=" translate(-39.59, -9.5)" d="M 37.171875 6 L 42 6 L 42 13 L 37.171875 13 Z" stroke-linecap="round" />
</g>
<g transform="matrix(4.17 0 0 4.17 200.57 139.58)" id="surface1"  >
<path style="stroke: none; stroke-width: 1; stroke-dasharray: none; stroke-linecap: butt; stroke-dashoffset: 0; stroke-linejoin: miter; stroke-miterlimit: 4; fill: rgb(46,125,50); fill-rule: nonzero; opacity: 1;"  transform=" translate(-24.14, -9.5)" d="M 14 6 L 34.273438 6 L 34.273438 13 L 14 13 Z" stroke-linecap="round" />
</g>
<g transform="matrix(4.17 0 0 4.17 135.42 139.58)" id="surface1"  >
<path style="stroke: none; stroke-width: 1; stroke-dasharray: none; stroke-linecap: butt; stroke-dashoffset: 0; stroke-linejoin: miter; stroke-miterlimit: 4; fill: rgb(46,125,50); fill-rule: nonzero; opacity: 1;"  transform=" translate(-8.5, -9.5)" d="M 6 6 L 11 6 L 11 13 L 6 13 Z" stroke-linecap="round" />
</g>
<g transform="matrix(4.17 0 0 4.17 257.72 179.14)" id="surface1"  >
<path style="stroke: none; stroke-width: 1; stroke-dasharray: none; stroke-linecap: butt; stroke-dashoffset: 0; stroke-linejoin: miter; stroke-miterlimit: 4; fill: rgb(46,125,50); fill-rule: nonzero; opacity: 1;"  transform=" translate(-37.85, -18.99)" d="M 34 13 C 33.355469 13 32.6875 13 32 13 C 32 13 32.007813 24.792969 43.707031 24.988281 C 43.664063 24.316406 43.617188 23.644531 43.5625 22.976563 C 34.355469 22.703125 34.007813 13.992188 34 13 Z" stroke-linecap="round" />
</g>
<g transform="matrix(4.17 0 0 4.17 142.28 179.14)" id="surface1"  >
<path style="stroke: none; stroke-width: 1; stroke-dasharray: none; stroke-linecap: butt; stroke-dashoffset: 0; stroke-linejoin: miter; stroke-miterlimit: 4; fill: rgb(46,125,50); fill-rule: nonzero; opacity: 1;"  transform=" translate(-10.15, -18.99)" d="M 14 13 C 14.644531 13 15.3125 13 16 13 C 16 13 15.992188 24.792969 4.292969 24.988281 C 4.335938 24.316406 4.382813 23.644531 4.4375 22.976563 C 13.644531 22.703125 13.992188 13.992188 14 13 Z" stroke-linecap="round" />
</g>
<g transform="matrix(4.17 0 0 4.17 206.25 139.58)" id="surface1"  >
<path style="stroke: none; stroke-width: 1; stroke-dasharray: none; stroke-linecap: butt; stroke-dashoffset: 0; stroke-linejoin: miter; stroke-miterlimit: 4; fill: rgb(255,235,59); fill-rule: nonzero; opacity: 1;"  transform=" translate(-25.5, -9.5)" d="M 27 9.5 C 27 10.328125 26.328125 11 25.5 11 C 24.671875 11 24 10.328125 24 9.5 C 24 8.671875 24.671875 8 25.5 8 C 26.328125 8 27 8.671875 27 9.5 Z" stroke-linecap="round" />
</g>
<g transform="matrix(4.17 0 0 4.17 185.42 139.58)" id="surface1"  >
<path style="stroke: none; stroke-width: 1; stroke-dasharray: none; stroke-linecap: butt; stroke-dashoffset: 0; stroke-linejoin: miter; stroke-miterlimit: 4; fill: rgb(27,94,32); fill-rule: nonzero; opacity: 1;"  transform=" translate(-20.5, -9.5)" d="M 19 6 L 22 6 L 22 13 L 19 13 Z" stroke-linecap="round" />
</g>
</svg>