<?xml version="1.0" encoding="UTF-8" standalone="no" ?>
<!DOCTYPE svg PUBLIC "-//W3C//DTD SVG 1.1//EN" "http://www.w3.org/Graphics/SVG/1.1/DTD/svg11.dtd">
<svg xmlns="http://www.w3.org/2000/svg" xmlns:xlink="http://www.w3.org/1999/xlink" version="1.1" width="400" height="400" viewBox="0 0 400 400" xml:space="preserve">
<desc>Created with Fabric.js 3.6.2</desc>
<defs>
</defs>
<g transform="matrix(4.17 0 0 4.17 200 177.08)" id="Layer_1"  >
<path style="stroke: none; stroke-width: 1; stroke-dasharray: none; stroke-linecap: butt; stroke-dashoffset: 0; stroke-linejoin: miter; stroke-miterlimit: 4; fill: rgb(179,157,219); fill-rule: nonzero; opacity: 1;"  transform=" translate(-24, -18.5)" d="M 45 27 l -5 2 l -6 -12 v 16 H 14 V 17 L 8 29 l -5 -2 c 0 0 7.55 -18.55 9 -20 c 0.48 -0.48 2.25 -1.17 4 -1.76 h 0.01 c 1.51 -0.51 3.78 -1.18 3.98 -1.24 C 20 4 20 4 20 4 h 8 c 0 0 2.41 0.71 3.99 1.24 C 33.74 5.83 35.52 6.52 36 7 C 37.45 8.45 45 27 45 27 z" stroke-linecap="round" />
</g>
<g transform="matrix(4.17 0 0 4.17 200 137.5)" id="Layer_1"  >
<path style="stroke: none; stroke-width: 1; stroke-dasharray: none; stroke-linecap: butt; stroke-dashoffset: 0; stroke-linejoin: miter; stroke-miterlimit: 4; fill: rgb(81,45,168); fill-rule: nonzero; opacity: 1;"  transform=" translate(-24, -9)" d="M 20 4 h 8 l -4 10 L 20 4 z" stroke-linecap="round" />
</g>
<g transform="matrix(4.17 0 0 4.17 208.33 175)" id="Layer_1"  >
<circle style="stroke: none; stroke-width: 1; stroke-dasharray: none; stroke-linecap: butt; stroke-dashoffset: 0; stroke-linejoin: miter; stroke-miterlimit: 4; fill: rgb(237,231,246); fill-rule: nonzero; opacity: 1;"  cx="0" cy="0" r="1" />
</g>
<g transform="matrix(4.17 0 0 4.17 208.33 195.83)" id="Layer_1"  >
<circle style="stroke: none; stroke-width: 1; stroke-dasharray: none; stroke-linecap: butt; stroke-dashoffset: 0; stroke-linejoin: miter; stroke-miterlimit: 4; fill: rgb(237,231,246); fill-rule: nonzero; opacity: 1;"  cx="0" cy="0" r="1" />
</g>
<g transform="matrix(4.17 0 0 4.17 208.33 216.67)" id="Layer_1"  >
<circle style="stroke: none; stroke-width: 1; stroke-dasharray: none; stroke-linecap: butt; stroke-dashoffset: 0; stroke-linejoin: miter; stroke-miterlimit: 4; fill: rgb(237,231,246); fill-rule: nonzero; opacity: 1;"  cx="0" cy="0" r="1" />
</g>
<g transform="matrix(4.17 0 0 4.17 184.33 138.02)" id="Layer_1"  >
<path style="stroke: none; stroke-width: 1; stroke-dasharray: none; stroke-linecap: butt; stroke-dashoffset: 0; stroke-linejoin: miter; stroke-miterlimit: 4; fill: rgb(209,196,233); fill-rule: nonzero; opacity: 1;"  transform=" translate(-20.24, -9.13)" d="M 24.48 13.89 L 24 14.25 l -0.49 -0.36 L 16.99 9 l 2 -1 L 16 5.24 c 1.58 -0.53 3.13 -0.99 3.7 -1.16 c 0.09 -0.03 0.16 -0.04 0.21 -0.06 L 19.99 4 L 24 12.81 L 24.48 13.89 z" stroke-linecap="round" />
</g>
<g transform="matrix(4.17 0 0 4.17 200 260.42)" id="Layer_1"  >
<polygon style="stroke: none; stroke-width: 1; stroke-dasharray: none; stroke-linecap: butt; stroke-dashoffset: 0; stroke-linejoin: miter; stroke-miterlimit: 4; fill: rgb(126,87,194); fill-rule: nonzero; opacity: 1;"  points="10,5.5 1,5.5 0,-0.5 -1,5.5 -10,5.5 -10,-5.5 10,-5.5 " />
</g>
<g transform="matrix(4.17 0 0 4.17 192.74 195.1)" id="Layer_1"  >
<polygon style="stroke: none; stroke-width: 1; stroke-dasharray: none; stroke-linecap: butt; stroke-dashoffset: 0; stroke-linejoin: miter; stroke-miterlimit: 4; fill: rgb(149,117,205); fill-rule: nonzero; opacity: 1;"  points="1.26,-8.94 -0.4,-10.18 -1.26,-8.3 -1.26,10.18 0.74,10.18 0.74,-7.82 0.74,-7.82 " />
</g>
<g transform="matrix(4.17 0 0 4.17 196.53 151.3)" id="Layer_1"  >
<polygon style="stroke: none; stroke-width: 1; stroke-dasharray: none; stroke-linecap: butt; stroke-dashoffset: 0; stroke-linejoin: miter; stroke-miterlimit: 4; fill: rgb(179,157,219); fill-rule: nonzero; opacity: 1;"  points="0.83,1.94 1.31,1.58 0.83,0.5 -0.28,-1.94 -1.31,0.34 0.34,1.58 " />
</g>
<g transform="matrix(4.17 0 0 4.17 214.56 139.58)" id="Layer_1"  >
<path style="stroke: none; stroke-width: 1; stroke-dasharray: none; stroke-linecap: butt; stroke-dashoffset: 0; stroke-linejoin: miter; stroke-miterlimit: 4; fill: rgb(209,196,233); fill-rule: nonzero; opacity: 1;"  transform=" translate(-27.5, -9.5)" d="M 29 8 l 2 1 l -8 6 l 0.51 -1.11 L 24 12.81 L 28 4 c 0 0 2.41 0.71 3.99 1.24 L 29 8 z" stroke-linecap="round" />
</g>
</svg>