<?xml version="1.0" encoding="UTF-8" standalone="no" ?>
<!DOCTYPE svg PUBLIC "-//W3C//DTD SVG 1.1//EN" "http://www.w3.org/Graphics/SVG/1.1/DTD/svg11.dtd">
<svg xmlns="http://www.w3.org/2000/svg" xmlns:xlink="http://www.w3.org/1999/xlink" version="1.1" width="400" height="400" viewBox="0 0 400 400" xml:space="preserve">
<desc>Created with Fabric.js 3.6.2</desc>
<defs>
</defs>
<g transform="matrix(2.67 0 0 2.67 185.67 228.78)" id="Layer_1"  >
<path style="stroke: none; stroke-width: 1; stroke-dasharray: none; stroke-linecap: butt; stroke-dashoffset: 0; stroke-linejoin: miter; stroke-miterlimit: 4; fill: rgb(170,31,77); fill-rule: nonzero; opacity: 1;"  transform=" translate(-32.13, -48.29)" d="M 6.313 52.6 c 0 -4.754 11.559 -8.615 25.816 -8.615 c 14.254 0 25.811 3.861 25.811 8.615" stroke-linecap="round" />
</g>
<g transform="matrix(2.67 0 0 2.67 185.67 217.29)" id="Layer_1"  >
<path style="stroke: none; stroke-width: 1; stroke-dasharray: none; stroke-linecap: butt; stroke-dashoffset: 0; stroke-linejoin: miter; stroke-miterlimit: 4; fill: rgb(247,245,220); fill-rule: nonzero; opacity: 1;"  transform=" translate(-32.13, -43.98)" d="M 6.313 52.371 v -8.162 c 0 -4.758 11.559 -8.615 25.816 -8.615 c 14.254 0 25.811 3.857 25.811 8.615 v 8.162" stroke-linecap="round" />
</g>
<g transform="matrix(2.67 0 0 2.67 185.67 221.26)" id="Layer_1"  >
<path style="stroke: none; stroke-width: 1; stroke-dasharray: none; stroke-linecap: butt; stroke-dashoffset: 0; stroke-linejoin: miter; stroke-miterlimit: 4; fill: rgb(234,232,195); fill-rule: nonzero; opacity: 1;"  transform=" translate(-32.13, -45.47)" d="M 32.13 38.344 c -14.258 0 -25.816 3.857 -25.816 8.615 v 5.639 c 0 -4.758 11.559 -8.615 25.816 -8.615 c 14.254 0 25.811 3.857 25.811 8.615 v -5.639 C 57.94 42.201 46.384 38.344 32.13 38.344 z" stroke-linecap="round" />
</g>
<g transform="matrix(2.67 0 0 2.67 185.67 228.78)" id="Layer_1"  >
<path style="stroke: none; stroke-width: 1; stroke-dasharray: none; stroke-linecap: butt; stroke-dashoffset: 0; stroke-linejoin: miter; stroke-miterlimit: 4; fill: rgb(147,145,131); fill-rule: nonzero; opacity: 1;"  transform=" translate(-32.13, -48.29)" d="M 6.313 52.6 c 0 -4.754 11.559 -8.615 25.816 -8.615 c 14.254 0 25.811 3.861 25.811 8.615" stroke-linecap="round" />
</g>
<g transform="matrix(2.67 0 0 2.67 185.67 251.15)" id="Layer_1"  >
<path style="stroke: none; stroke-width: 1; stroke-dasharray: none; stroke-linecap: butt; stroke-dashoffset: 0; stroke-linejoin: miter; stroke-miterlimit: 4; fill: rgb(198,196,167); fill-rule: nonzero; opacity: 1;"  transform=" translate(-32.13, -56.68)" d="M 57.94 52.371 c 0 4.75 -11.557 8.617 -25.811 8.617 c -14.258 0 -25.816 -3.867 -25.816 -8.617" stroke-linecap="round" />
</g>
<g transform="matrix(2.67 0 0 2.67 185.68 230.75)" id="Layer_1"  >
<path style="stroke: none; stroke-width: 1; stroke-dasharray: none; stroke-linecap: butt; stroke-dashoffset: 0; stroke-linejoin: miter; stroke-miterlimit: 4; fill: rgb(102,101,95); fill-rule: nonzero; opacity: 1;"  transform=" translate(-32.13, -49.03)" d="M 14.923 46.182 c -0.59 0.57 -0.936 1.18 -0.986 1.812 h -0.023 c 0 0.027 0.01 0.053 0.012 0.082 c -0.002 0.025 -0.012 0.053 -0.012 0.08 h 0.023 c 0.26 3.277 8.295 5.918 18.193 5.918 c 9.893 0 17.93 -2.641 18.188 -5.918 h 0.025 c 0 -0.027 -0.012 -0.055 -0.014 -0.08 c 0.002 -0.029 0.014 -0.055 0.014 -0.082 h -0.025 c -0.049 -0.633 -0.396 -1.242 -0.984 -1.812 c -4.566 -1.365 -10.592 -2.197 -17.203 -2.197 C 25.517 43.984 19.487 44.816 14.923 46.182 z" stroke-linecap="round" />
</g>
<g transform="matrix(2.67 0 0 2.67 185.67 236.49)" id="Layer_1"  >
<path style="stroke: none; stroke-width: 1; stroke-dasharray: none; stroke-linecap: butt; stroke-dashoffset: 0; stroke-linejoin: miter; stroke-miterlimit: 4; fill: rgb(114,113,106); fill-rule: nonzero; opacity: 1;"  transform=" translate(-32.13, -51.18)" d="M 15.382 50.363 c 2.766 2.178 9.211 3.711 16.748 3.711 c 7.533 0 13.979 -1.533 16.744 -3.711 c -4.51 -1.287 -10.346 -2.07 -16.744 -2.07 C 25.729 48.293 19.89 49.076 15.382 50.363 z" stroke-linecap="round" />
</g>
<g transform="matrix(2.67 0 0 2.67 187.63 173.41)" id="Layer_1"  >
<path style="stroke: none; stroke-width: 1; stroke-dasharray: none; stroke-linecap: butt; stroke-dashoffset: 0; stroke-linejoin: miter; stroke-miterlimit: 4; fill: rgb(232,56,98); fill-rule: nonzero; opacity: 1;"  transform=" translate(-32.86, -27.53)" d="M 32.13 35.594 c 10.496 0 19.514 2.1 23.553 5.1 c -0.559 -2.008 -0.859 -4.092 -0.859 -6.256 c 0 -4.025 1.035 -7.816 2.826 -11.209 c -5.148 -5.629 -12.869 -9.217 -21.512 -9.217 c -15.502 0 -28.064 11.518 -28.064 25.727 c 0 0.432 0.047 0.867 0.068 1.303 C 11.935 37.852 21.224 35.594 32.13 35.594 z" stroke-linecap="round" />
</g>
<g transform="matrix(2.67 0 0 2.67 186.05 179.81)" id="Layer_1"  >
<path style="stroke: none; stroke-width: 1; stroke-dasharray: none; stroke-linecap: butt; stroke-dashoffset: 0; stroke-linejoin: miter; stroke-miterlimit: 4; fill: rgb(188,42,84); fill-rule: nonzero; opacity: 1;"  transform=" translate(-32.27, -29.93)" d="M 36.138 19.002 c -14.064 0 -25.709 9.48 -27.748 21.852 c 3.932 -3.088 13.053 -5.26 23.74 -5.26 c 9.826 0 18.355 1.84 22.717 4.535 c -0.006 -0.234 -0.023 -0.465 -0.023 -0.701 c 0 -0.852 0.057 -1.689 0.146 -2.518 c -0.088 -0.814 -0.146 -1.635 -0.146 -2.473 c 0 -2.699 0.475 -5.289 1.32 -7.727 C 51.054 21.961 43.978 19.002 36.138 19.002 z" stroke-linecap="round" />
</g>
<g transform="matrix(2.67 0 0 2.67 193.99 192.61)" id="Layer_1"  >
<path style="stroke: none; stroke-width: 1; stroke-dasharray: none; stroke-linecap: butt; stroke-dashoffset: 0; stroke-linejoin: miter; stroke-miterlimit: 4; fill: rgb(170,31,77); fill-rule: nonzero; opacity: 1;"  transform=" translate(-35.25, -34.73)" d="M 15.522 37.631 c 4.482 -1.268 10.264 -2.037 16.607 -2.037 c 9.826 0 18.355 1.84 22.717 4.535 c -0.006 -0.234 -0.023 -0.465 -0.023 -0.701 c 0 -0.852 0.057 -1.689 0.146 -2.518 c -0.035 -0.32 -0.061 -0.643 -0.084 -0.965 c -4.969 -4.102 -11.533 -6.613 -18.748 -6.613 C 27.979 29.332 20.649 32.535 15.522 37.631 z" stroke-linecap="round" />
</g>
<g transform="matrix(2.67 0 0 2.67 267.23 170.47)" id="Layer_1"  >
<path style="stroke: none; stroke-width: 1; stroke-dasharray: none; stroke-linecap: butt; stroke-dashoffset: 0; stroke-linejoin: miter; stroke-miterlimit: 4; fill: rgb(247,245,220); fill-rule: nonzero; opacity: 1;"  transform=" translate(-62.71, -26.43)" d="M 56.735 26.432 c 0 3.295 2.68 5.973 5.979 5.973 c 3.301 0 5.973 -2.678 5.973 -5.973 c 0 -3.305 -2.672 -5.984 -5.973 -5.984 C 59.415 20.447 56.735 23.127 56.735 26.432 z" stroke-linecap="round" />
</g>
<g transform="matrix(2.67 0 0 2.67 255.23 171.94)" id="Layer_1"  >
<path style="stroke: none; stroke-width: 1; stroke-dasharray: none; stroke-linecap: butt; stroke-dashoffset: 0; stroke-linejoin: miter; stroke-miterlimit: 4; fill: rgb(234,232,195); fill-rule: nonzero; opacity: 1;"  transform=" translate(-58.21, -26.98)" d="M 57.737 23.117 c -0.633 0.949 -1.002 2.088 -1.002 3.314 c 0 1.744 0.756 3.312 1.953 4.404 c 0.629 -0.947 0.998 -2.082 0.998 -3.303 C 59.687 25.781 58.933 24.213 57.737 23.117 z" stroke-linecap="round" />
</g>
</svg>