<?xml version="1.0" encoding="UTF-8" standalone="no" ?>
<!DOCTYPE svg PUBLIC "-//W3C//DTD SVG 1.1//EN" "http://www.w3.org/Graphics/SVG/1.1/DTD/svg11.dtd">
<svg xmlns="http://www.w3.org/2000/svg" xmlns:xlink="http://www.w3.org/1999/xlink" version="1.1" width="400" height="400" viewBox="0 0 400 400" xml:space="preserve">
<desc>Created with Fabric.js 3.6.2</desc>
<defs>
</defs>
<g transform="matrix(4.17 0 0 4.17 241.47 169.5)" id="surface1"  >
<path style="stroke: none; stroke-width: 1; stroke-dasharray: none; stroke-linecap: butt; stroke-dashoffset: 0; stroke-linejoin: miter; stroke-miterlimit: 4; fill: rgb(255,193,7); fill-rule: nonzero; opacity: 1;"  transform=" translate(-33.95, -16.68)" d="M 34.628906 19 C 34.460938 18.605469 34.300781 18.21875 34.09375 17.859375 C 33.90625 17.503906 33.703125 17.160156 33.5 16.839844 C 33.289063 16.515625 32.90625 16.3125 32.863281 15.941406 C 32.800781 15.566406 32.78125 15.171875 32.925781 14.5 L 33.074219 14.367188 C 33.765625 14.316406 34.238281 14.59375 34.59375 14.9375 C 34.964844 15.285156 34.929688 15.839844 35.003906 16.292969 C 35.082031 16.753906 35.105469 17.214844 35.074219 17.667969 C 35.027344 18.125 34.976563 18.566406 34.824219 19 Z" stroke-linecap="round" />
</g>
<g transform="matrix(4.17 0 0 4.17 233.13 182)" id="surface1"  >
<path style="stroke: none; stroke-width: 1; stroke-dasharray: none; stroke-linecap: butt; stroke-dashoffset: 0; stroke-linejoin: miter; stroke-miterlimit: 4; fill: rgb(255,193,7); fill-rule: nonzero; opacity: 1;"  transform=" translate(-31.95, -19.68)" d="M 32.628906 22 C 32.460938 21.605469 32.300781 21.21875 32.09375 20.863281 C 31.90625 20.503906 31.703125 20.160156 31.5 19.839844 C 31.289063 19.515625 30.90625 19.3125 30.863281 18.945313 C 30.800781 18.570313 30.78125 18.171875 30.925781 17.503906 L 31.074219 17.367188 C 31.765625 17.316406 32.238281 17.597656 32.59375 17.9375 C 32.964844 18.285156 32.929688 18.839844 33.003906 19.292969 C 33.082031 19.753906 33.105469 20.214844 33.074219 20.667969 C 33.027344 21.125 32.976563 21.566406 32.828125 22 Z" stroke-linecap="round" />
</g>
<g transform="matrix(4.17 0 0 4.17 220.63 190.34)" id="surface1"  >
<path style="stroke: none; stroke-width: 1; stroke-dasharray: none; stroke-linecap: butt; stroke-dashoffset: 0; stroke-linejoin: miter; stroke-miterlimit: 4; fill: rgb(255,193,7); fill-rule: nonzero; opacity: 1;"  transform=" translate(-28.95, -21.68)" d="M 29.628906 24 C 29.460938 23.605469 29.300781 23.21875 29.09375 22.863281 C 28.90625 22.503906 28.703125 22.160156 28.5 21.839844 C 28.289063 21.515625 27.90625 21.3125 27.863281 20.945313 C 27.800781 20.570313 27.78125 20.171875 27.925781 19.503906 L 28.074219 19.367188 C 28.765625 19.316406 29.238281 19.597656 29.59375 19.9375 C 29.964844 20.285156 29.929688 20.839844 30.003906 21.292969 C 30.082031 21.753906 30.105469 22.214844 30.074219 22.667969 C 30.027344 23.125 29.976563 23.566406 29.824219 24 Z" stroke-linecap="round" />
</g>
<g transform="matrix(4.17 0 0 4.17 208.13 198.67)" id="surface1"  >
<path style="stroke: none; stroke-width: 1; stroke-dasharray: none; stroke-linecap: butt; stroke-dashoffset: 0; stroke-linejoin: miter; stroke-miterlimit: 4; fill: rgb(255,193,7); fill-rule: nonzero; opacity: 1;"  transform=" translate(-25.95, -23.68)" d="M 26.628906 26 C 26.460938 25.605469 26.300781 25.21875 26.09375 24.863281 C 25.90625 24.503906 25.703125 24.160156 25.5 23.839844 C 25.289063 23.515625 24.90625 23.3125 24.863281 22.941406 C 24.800781 22.566406 24.78125 22.171875 24.925781 21.503906 L 25.074219 21.367188 C 25.765625 21.316406 26.238281 21.597656 26.59375 21.9375 C 26.964844 22.285156 26.929688 22.839844 27.003906 23.292969 C 27.082031 23.753906 27.105469 24.214844 27.074219 24.667969 C 27.027344 25.125 26.976563 25.566406 26.828125 26 Z" stroke-linecap="round" />
</g>
<g transform="matrix(4.17 0 0 4.17 195.63 205.2)" id="surface1"  >
<path style="stroke: none; stroke-width: 1; stroke-dasharray: none; stroke-linecap: butt; stroke-dashoffset: 0; stroke-linejoin: miter; stroke-miterlimit: 4; fill: rgb(255,193,7); fill-rule: nonzero; opacity: 1;"  transform=" translate(-22.95, -25.25)" d="M 23.625 27.566406 C 23.457031 27.167969 23.300781 26.785156 23.09375 26.425781 C 22.902344 26.066406 22.703125 25.726563 22.5 25.40625 C 22.289063 25.078125 21.90625 24.878906 21.863281 24.507813 C 21.800781 24.132813 21.78125 23.738281 21.925781 23.066406 L 22.074219 22.933594 C 22.769531 22.882813 23.242188 23.160156 23.59375 23.503906 C 23.964844 23.851563 23.929688 24.40625 24.003906 24.859375 C 24.082031 25.316406 24.105469 25.777344 24.074219 26.234375 C 24.027344 26.6875 23.976563 27.128906 23.824219 27.5625 L 23.625 27.5625 Z" stroke-linecap="round" />
</g>
<g transform="matrix(4.17 0 0 4.17 250.94 161.17)" id="surface1"  >
<path style="stroke: none; stroke-width: 1; stroke-dasharray: none; stroke-linecap: butt; stroke-dashoffset: 0; stroke-linejoin: miter; stroke-miterlimit: 4; fill: rgb(255,193,7); fill-rule: nonzero; opacity: 1;"  transform=" translate(-36.23, -14.68)" d="M 36.898438 17 C 36.730469 16.605469 36.574219 16.21875 36.367188 15.859375 C 36.179688 15.503906 35.976563 15.160156 35.773438 14.839844 C 35.5625 14.515625 35.179688 14.3125 35.136719 13.941406 C 35.074219 13.566406 35.054688 13.171875 35.199219 12.5 L 35.347656 12.367188 C 36.039063 12.316406 36.511719 12.59375 36.863281 12.9375 C 37.238281 13.285156 37.203125 13.839844 37.277344 14.292969 C 37.355469 14.753906 37.378906 15.214844 37.347656 15.667969 C 37.300781 16.125 37.25 16.566406 37.101563 17 Z" stroke-linecap="round" />
</g>
<g transform="matrix(4.17 0 0 4.17 259.27 148.67)" id="surface1"  >
<path style="stroke: none; stroke-width: 1; stroke-dasharray: none; stroke-linecap: butt; stroke-dashoffset: 0; stroke-linejoin: miter; stroke-miterlimit: 4; fill: rgb(255,193,7); fill-rule: nonzero; opacity: 1;"  transform=" translate(-38.23, -11.68)" d="M 38.898438 14 C 38.730469 13.605469 38.574219 13.21875 38.367188 12.859375 C 38.179688 12.503906 37.976563 12.160156 37.773438 11.839844 C 37.5625 11.515625 37.179688 11.3125 37.136719 10.941406 C 37.074219 10.566406 37.054688 10.171875 37.199219 9.5 L 37.347656 9.367188 C 38.039063 9.316406 38.511719 9.59375 38.863281 9.9375 C 39.238281 10.285156 39.203125 10.839844 39.277344 11.292969 C 39.355469 11.753906 39.378906 12.214844 39.347656 12.667969 C 39.300781 13.125 39.25 13.566406 39.101563 14 Z" stroke-linecap="round" />
</g>
<g transform="matrix(4.17 0 0 4.17 252.39 199.17)" id="surface1"  >
<path style="stroke: none; stroke-width: 1; stroke-dasharray: none; stroke-linecap: butt; stroke-dashoffset: 0; stroke-linejoin: miter; stroke-miterlimit: 4; fill: rgb(255,193,7); fill-rule: nonzero; opacity: 1;"  transform=" translate(-36.57, -23.8)" d="M 35.542969 21.414063 C 35.921875 21.675781 36.222656 22.003906 36.527344 22.34375 C 36.820313 22.695313 37.074219 23.078125 37.28125 23.496094 C 37.488281 23.90625 37.84375 24.335938 37.746094 24.835938 C 37.664063 25.320313 37.445313 25.820313 36.855469 26.1875 L 36.65625 26.167969 C 36.144531 25.710938 35.929688 25.378906 35.757813 25.039063 C 35.574219 24.714844 35.765625 24.328125 35.742188 23.941406 C 35.722656 23.558594 35.679688 23.167969 35.621094 22.765625 C 35.578125 22.355469 35.480469 21.953125 35.382813 21.53125 Z" stroke-linecap="round" />
</g>
<g transform="matrix(4.17 0 0 4.17 265.15 198.47)" id="surface1"  >
<path style="stroke: none; stroke-width: 1; stroke-dasharray: none; stroke-linecap: butt; stroke-dashoffset: 0; stroke-linejoin: miter; stroke-miterlimit: 4; fill: rgb(255,193,7); fill-rule: nonzero; opacity: 1;"  transform=" translate(-39.64, -23.63)" d="M 38.605469 21.246094 C 38.980469 21.507813 39.28125 21.835938 39.589844 22.175781 C 39.882813 22.527344 40.136719 22.910156 40.34375 23.328125 C 40.550781 23.738281 40.90625 24.164063 40.808594 24.664063 C 40.726563 25.152344 40.507813 25.652344 39.917969 26.019531 L 39.71875 26 C 39.207031 25.542969 38.992188 25.210938 38.820313 24.871094 C 38.636719 24.546875 38.828125 24.160156 38.804688 23.773438 C 38.78125 23.390625 38.742188 23 38.683594 22.597656 C 38.640625 22.1875 38.542969 21.785156 38.445313 21.363281 Z" stroke-linecap="round" />
</g>
<g transform="matrix(4.17 0 0 4.17 242.3 204.77)" id="surface1"  >
<path style="stroke: none; stroke-width: 1; stroke-dasharray: none; stroke-linecap: butt; stroke-dashoffset: 0; stroke-linejoin: miter; stroke-miterlimit: 4; fill: rgb(255,193,7); fill-rule: nonzero; opacity: 1;"  transform=" translate(-34.15, -25.14)" d="M 33.121094 22.757813 C 33.5 23.019531 33.800781 23.347656 34.109375 23.6875 C 34.398438 24.039063 34.652344 24.421875 34.859375 24.839844 C 35.066406 25.25 35.425781 25.679688 35.328125 26.179688 C 35.246094 26.660156 35.027344 27.164063 34.4375 27.53125 L 34.238281 27.511719 C 33.726563 27.054688 33.511719 26.722656 33.339844 26.382813 C 33.15625 26.058594 33.347656 25.671875 33.324219 25.28125 C 33.300781 24.902344 33.261719 24.511719 33.203125 24.109375 C 33.15625 23.695313 33.058594 23.292969 32.960938 22.875 Z" stroke-linecap="round" />
</g>
<g transform="matrix(4.17 0 0 4.17 233.29 213.43)" id="surface1"  >
<path style="stroke: none; stroke-width: 1; stroke-dasharray: none; stroke-linecap: butt; stroke-dashoffset: 0; stroke-linejoin: miter; stroke-miterlimit: 4; fill: rgb(255,193,7); fill-rule: nonzero; opacity: 1;"  transform=" translate(-31.99, -27.22)" d="M 30.960938 24.835938 C 31.335938 25.097656 31.636719 25.425781 31.945313 25.765625 C 32.234375 26.113281 32.488281 26.5 32.695313 26.917969 C 32.902344 27.328125 33.261719 27.757813 33.164063 28.257813 C 33.082031 28.738281 32.863281 29.242188 32.273438 29.609375 L 32.074219 29.589844 C 31.5625 29.132813 31.347656 28.800781 31.175781 28.460938 C 30.992188 28.136719 31.183594 27.75 31.160156 27.359375 C 31.136719 26.980469 31.097656 26.589844 31.039063 26.1875 C 30.992188 25.773438 30.894531 25.371094 30.796875 24.953125 Z" stroke-linecap="round" />
</g>
<g transform="matrix(4.17 0 0 4.17 225.46 219.25)" id="surface1"  >
<path style="stroke: none; stroke-width: 1; stroke-dasharray: none; stroke-linecap: butt; stroke-dashoffset: 0; stroke-linejoin: miter; stroke-miterlimit: 4; fill: rgb(255,193,7); fill-rule: nonzero; opacity: 1;"  transform=" translate(-30.11, -28.62)" d="M 29.082031 26.234375 C 29.457031 26.496094 29.757813 26.824219 30.066406 27.164063 C 30.355469 27.515625 30.609375 27.898438 30.816406 28.316406 C 31.023438 28.726563 31.382813 29.152344 31.285156 29.652344 C 31.203125 30.140625 30.984375 30.640625 30.394531 31.007813 L 30.195313 30.988281 C 29.683594 30.53125 29.464844 30.199219 29.296875 29.859375 C 29.113281 29.535156 29.304688 29.148438 29.28125 28.761719 C 29.257813 28.378906 29.21875 27.988281 29.160156 27.585938 C 29.113281 27.175781 29.015625 26.773438 28.917969 26.351563 Z" stroke-linecap="round" />
</g>
<g transform="matrix(4.17 0 0 4.17 217.78 216.85)" id="surface1"  >
<path style="stroke: none; stroke-width: 1; stroke-dasharray: none; stroke-linecap: butt; stroke-dashoffset: 0; stroke-linejoin: miter; stroke-miterlimit: 4; fill: rgb(255,23,68); fill-rule: nonzero; opacity: 1;"  transform=" translate(-28.27, -28.04)" d="M 24 31 C 24 31 32.125 28.125 35 27 C 37.144531 26.160156 39.980469 24.144531 41.285156 23.167969 C 40.761719 22.574219 39.363281 23.042969 39.363281 23.042969 C 31.621094 26.660156 27.394531 28.121094 25.28125 28.851563 C 23.167969 29.582031 22.46875 30.296875 21.726563 26.769531 C 21.710938 26.707031 21.695313 26.65625 21.679688 26.601563 C 21.660156 26.609375 21.640625 26.621094 21.625 26.625 C 21.625 26.625 19.542969 29.644531 15.25 32.375 C 15.25 32.375 19 35 24 31 Z" stroke-linecap="round" />
</g>
<g transform="matrix(4.17 0 0 4.17 178.43 224.53)" id="surface1"  >
<path style="stroke: none; stroke-width: 1; stroke-dasharray: none; stroke-linecap: butt; stroke-dashoffset: 0; stroke-linejoin: miter; stroke-miterlimit: 4; fill: rgb(213,0,0); fill-rule: nonzero; opacity: 1;"  transform=" translate(-18.82, -29.89)" d="M 22.398438 28.859375 C 22.152344 28.449219 21.941406 27.789063 21.726563 26.765625 C 21.714844 26.703125 21.695313 26.65625 21.679688 26.601563 C 21.664063 26.605469 21.644531 26.617188 21.625 26.625 C 21.625 26.625 19.546875 29.640625 15.25 32.375 C 15.25 32.375 16.144531 32.992188 17.636719 33.171875 C 19.929688 31.527344 21.507813 29.898438 22.398438 28.859375 Z" stroke-linecap="round" />
</g>
<g transform="matrix(4.17 0 0 4.17 204.49 234.64)" id="surface1"  >
<path style="stroke: none; stroke-width: 1; stroke-dasharray: none; stroke-linecap: butt; stroke-dashoffset: 0; stroke-linejoin: miter; stroke-miterlimit: 4; fill: rgb(38,166,154); fill-rule: nonzero; opacity: 1;"  transform=" translate(-25.08, -32.31)" d="M 7 42 C 7 42 10 34 15.25 32.375 C 15.25 32.375 19 35 24 31 C 24 31 32.125 28.125 35 27 C 37.875 25.875 42 22.625 42 22.625 C 42 22.625 43.375 23.125 43.125 25.625 C 42.875 28.125 36.882813 31.398438 31.375 33.625 C 25.5 36 25.875 42 17.375 42 C 8.875 42 7 42 7 42 Z" stroke-linecap="round" />
</g>
<g transform="matrix(4.17 0 0 4.17 194.27 199.99)" id="surface1"  >
<path style="stroke: none; stroke-width: 1; stroke-dasharray: none; stroke-linecap: butt; stroke-dashoffset: 0; stroke-linejoin: miter; stroke-miterlimit: 4; fill: rgb(0,121,107); fill-rule: nonzero; opacity: 1;"  transform=" translate(-22.62, -24)" d="M 15.25 32.375 C 19.542969 29.644531 21.625 26.625 21.625 26.625 C 25.75 25.125 33.5 16.75 33.5 16.75 C 39.375 11.375 39.25 8 39.25 8 C 39.25 8 36.25 5.875 34.75 6 C 33.25 6.125 32 7.375 30 10 C 28 12.625 15.890625 18.816406 10 22.375 C 6.953125 24.214844 5.976563 29.246094 6 33.757813 C 6.023438 38.125 7 42 7 42 C 7 42 10 34 15.25 32.375 Z" stroke-linecap="round" />
</g>
<g transform="matrix(4.17 0 0 4.17 162.76 190.06)" id="surface1"  >
<path style="stroke: none; stroke-width: 1; stroke-dasharray: none; stroke-linecap: butt; stroke-dashoffset: 0; stroke-linejoin: miter; stroke-miterlimit: 4; fill: rgb(0,121,107); fill-rule: nonzero; opacity: 1;"  transform=" translate(-15.06, -21.61)" d="M 16.066406 15 C 14.074219 15 12.332031 15.46875 10.890625 16.394531 C 8.894531 17.671875 8.257813 19.265625 8.070313 20.375 C 7.835938 21.796875 8.183594 23.289063 9.074219 24.683594 C 10.125 26.320313 12.285156 28.226563 14.929688 28.226563 C 15.984375 28.226563 16.984375 27.929688 17.90625 27.339844 C 23.195313 23.949219 22.035156 17.5625 21.984375 17.289063 L 21.773438 16.1875 L 20.71875 15.792969 C 20.5 15.714844 18.519531 15 16.066406 15 Z" stroke-linecap="round" />
</g>
<g transform="matrix(4.17 0 0 4.17 152.9 254)" id="surface1"  >
<path style="stroke: none; stroke-width: 1; stroke-dasharray: none; stroke-linecap: butt; stroke-dashoffset: 0; stroke-linejoin: miter; stroke-miterlimit: 4; fill: rgb(0,121,107); fill-rule: nonzero; opacity: 1;"  transform=" translate(-12.7, -36.96)" d="M 12.722656 42 L 7 42 L 7 37.695313 L 9.84375 33.429688 L 13.269531 36.855469 L 15.21875 36.207031 L 15.875 34.339844 L 12.601563 32.917969 C 12.601563 32.917969 12.96875 31.101563 15.25 32.375 C 16.875 33.28125 18.390625 33.203125 18.390625 33.203125 L 16.78125 37.792969 L 13.789063 38.789063 Z M 9 40 L 11.277344 40 L 11.855469 38.269531 L 10.15625 36.570313 L 9 38.304688 Z" stroke-linecap="round" />
</g>
<g transform="matrix(4.17 0 0 4.17 163.09 264.08)" id="surface1"  >
<path style="stroke: none; stroke-width: 1; stroke-dasharray: none; stroke-linecap: butt; stroke-dashoffset: 0; stroke-linejoin: miter; stroke-miterlimit: 4; fill: rgb(0,121,107); fill-rule: nonzero; opacity: 1;"  transform=" translate(-15.14, -39.38)" d="M 18.28125 42 L 12 42 L 12 40 L 15.71875 40 L 15.03125 37.242188 L 16.96875 36.757813 Z" stroke-linecap="round" />
</g>
<g transform="matrix(4.17 0 0 4.17 162.76 190.06)" id="surface1"  >
<path style="stroke: none; stroke-width: 1; stroke-dasharray: none; stroke-linecap: butt; stroke-dashoffset: 0; stroke-linejoin: miter; stroke-miterlimit: 4; fill: rgb(0,77,64); fill-rule: nonzero; opacity: 1;"  transform=" translate(-15.06, -21.61)" d="M 10.757813 23.605469 C 9.566406 21.746094 9.640625 19.570313 11.96875 18.078125 C 15.335938 15.921875 20.019531 17.667969 20.019531 17.667969 C 20.019531 17.667969 21.035156 22.957031 16.824219 25.65625 C 14.5 27.144531 11.953125 25.464844 10.757813 23.605469 Z" stroke-linecap="round" />
</g>
<g transform="matrix(4.17 0 0 4.17 161.65 188.77)" id="surface1"  >
<path style="stroke: none; stroke-width: 1; stroke-dasharray: none; stroke-linecap: butt; stroke-dashoffset: 0; stroke-linejoin: miter; stroke-miterlimit: 4; fill: rgb(255,235,59); fill-rule: nonzero; opacity: 1;"  transform=" translate(-14.8, -21.3)" d="M 17.492188 19.285156 C 17.492188 19.285156 16.890625 22.050781 15.207031 23.128906 C 13.523438 24.210938 12.441406 22.523438 12.441406 22.523438 C 12.441406 22.523438 11.363281 20.839844 13.046875 19.761719 C 14.730469 18.683594 17.492188 19.285156 17.492188 19.285156 Z" stroke-linecap="round" />
</g>
<g transform="matrix(4.17 0 0 4.17 160.62 188.23)" id="surface1"  >
<path style="stroke: none; stroke-width: 1; stroke-dasharray: none; stroke-linecap: butt; stroke-dashoffset: 0; stroke-linejoin: miter; stroke-miterlimit: 4; fill: rgb(38,50,56); fill-rule: nonzero; opacity: 1;"  transform=" translate(-14.55, -21.18)" d="M 14.96875 20.90625 C 15.566406 21.835938 15.628906 22.859375 15.628906 22.859375 C 15.628906 22.859375 14.722656 22.375 14.128906 21.445313 C 13.53125 20.515625 13.46875 19.492188 13.46875 19.492188 C 13.46875 19.492188 14.371094 19.976563 14.96875 20.90625 Z" stroke-linecap="round" />
</g>
<g transform="matrix(4.17 0 0 4.17 247.92 137.5)" id="surface1"  >
<path style="stroke: none; stroke-width: 1; stroke-dasharray: none; stroke-linecap: butt; stroke-dashoffset: 0; stroke-linejoin: miter; stroke-miterlimit: 4; fill: rgb(40,35,2); fill-rule: nonzero; opacity: 1;"  transform=" translate(-35.5, -9)" d="M 37 9 C 37 9 35.554688 10 35 10 C 34.445313 10 34 9.554688 34 9 C 34 8.445313 34.445313 8 35 8 C 35.554688 8 37 9 37 9 Z" stroke-linecap="round" />
</g>
</svg>