<?xml version="1.0" encoding="UTF-8" standalone="no" ?>
<!DOCTYPE svg PUBLIC "-//W3C//DTD SVG 1.1//EN" "http://www.w3.org/Graphics/SVG/1.1/DTD/svg11.dtd">
<svg xmlns="http://www.w3.org/2000/svg" xmlns:xlink="http://www.w3.org/1999/xlink" version="1.1" width="400" height="400" viewBox="0 0 400 400" xml:space="preserve">
<desc>Created with Fabric.js 3.6.2</desc>
<defs>
</defs>
<g transform="matrix(4.17 0 0 4.17 207.74 168.94)" id="surface1"  >
<path style="stroke: none; stroke-width: 1; stroke-dasharray: none; stroke-linecap: butt; stroke-dashoffset: 0; stroke-linejoin: miter; stroke-miterlimit: 4; fill: rgb(93,64,55); fill-rule: nonzero; opacity: 1;"  transform=" translate(-25.86, -16.54)" d="M 20 17 C 21.300781 17.601563 22.898438 18 25.800781 18.300781 C 26.601563 18.398438 28.5 18.199219 30.800781 18.101563 C 32.699219 18 34.601563 18.300781 34.699219 17.601563 C 34.800781 17.300781 34.398438 16.898438 34.199219 16.800781 C 33.800781 16.5 33.300781 16.601563 32.699219 16.699219 C 31 17 30.101563 17.199219 29.601563 17 C 28.800781 16.800781 28.800781 16.800781 27.898438 16.601563 C 27.101563 16.398438 26.898438 16.898438 25.300781 17 C 24 17 23 16.300781 22.300781 16 C 21.5 15.601563 21 15.199219 20.300781 14.898438 C 19 14.398438 17.101563 15.398438 17 16 C 17 16.5 19.101563 16.601563 20 17 Z" stroke-linecap="round" />
</g>
<g transform="matrix(4.17 0 0 4.17 187.08 197.94)" id="surface1"  >
<path style="stroke: none; stroke-width: 1; stroke-dasharray: none; stroke-linecap: butt; stroke-dashoffset: 0; stroke-linejoin: miter; stroke-miterlimit: 4; fill: rgb(93,64,55); fill-rule: nonzero; opacity: 1;"  transform=" translate(-20.9, -23.5)" d="M 2 12.800781 C 2.800781 14 3.699219 14.898438 4.199219 15.398438 C 5.398438 16.398438 6.101563 16.601563 7.398438 17.800781 C 7.800781 18.199219 8.101563 18.5 8.699219 19.300781 C 10.101563 20.898438 10.300781 21.398438 11.101563 21.898438 C 11.300781 22 12.101563 22.601563 13.199219 22.898438 C 14.800781 23.300781 15.300781 22.699219 17.398438 23 C 18.300781 23.199219 19 23.300781 19.398438 23.800781 C 19.601563 24.101563 19.601563 24.800781 19.5 26 C 19.398438 27.699219 19.398438 28.5 19.199219 28.800781 C 19.101563 29 18.800781 29.398438 16.898438 30.101563 C 14.5 31.101563 13.199219 31 13.101563 31.699219 C 13 32.199219 13.398438 32.699219 13.800781 32.898438 C 14.199219 33.101563 14.601563 32.800781 15.699219 32.300781 C 16.898438 31.800781 16.699219 32.101563 18.601563 31.300781 C 19.699219 30.898438 20 30.699219 20.398438 30.898438 C 20.800781 31 21.101563 31.300781 21.699219 32.199219 C 22.601563 33.5 23 34.199219 23 34.199219 C 24.800781 37.601563 25.101563 38.300781 25.398438 38.199219 C 25.601563 38.101563 25.601563 37.101563 25.5 36.601563 C 25.300781 35.199219 24.800781 34.398438 23.699219 32.199219 C 23.101563 31.101563 22.800781 30.5 22.5 29.699219 C 21.300781 27 21.5 26.300781 21.699219 25.800781 C 22 25.300781 22.398438 25 22.898438 24.898438 C 24 24.601563 25.101563 25.5 25.699219 26.101563 C 26.898438 27.101563 26.601563 27.5 27.601563 28.199219 C 28.5 28.800781 29.398438 28.898438 30.699219 29.101563 C 32 29.300781 32 29.101563 32.601563 29.300781 C 33.699219 29.601563 34.199219 30.398438 35.398438 31.898438 C 37.101563 33.898438 38.398438 35.5 39.199219 35.199219 C 39.699219 35 39.800781 34.199219 39.800781 33.699219 C 39.800781 32.101563 38.398438 31 36.300781 29.300781 C 35.699219 28.800781 34.898438 28.199219 33.699219 27.601563 C 32.5 26.898438 32.199219 27 30.199219 26.199219 C 28.199219 25.398438 26.898438 24.800781 25.398438 23.800781 C 24.199219 22.898438 24.199219 22.699219 23.199219 22.300781 C 21.898438 21.699219 21.300781 21.800781 19.398438 21.5 C 18.398438 21.398438 16.199219 20.898438 13.898438 19.800781 C 12.898438 19.300781 11 18.398438 11.101563 17.601563 C 11.199219 17 12 16.699219 12.398438 16.601563 C 13.199219 16.300781 13.800781 16.398438 15.5 16.5 C 16.699219 16.5 17.199219 16.601563 17.800781 16.5 C 19.101563 16.300781 20.101563 15.898438 21.101563 15.300781 C 23 14.300781 23 13.800781 24.898438 12.699219 C 26.601563 11.699219 27.699219 11.601563 27.699219 11.300781 C 27.601563 11 26 10.898438 24.601563 11.101563 C 24.101563 11.199219 22.601563 11.5 21 12.5 C 20.199219 13 20.199219 13.300781 19.398438 13.699219 C 18.199219 14.300781 17.199219 14.398438 16.898438 14.398438 C 15.800781 14.5 14.898438 14.199219 14.398438 14.101563 C 13.601563 13.898438 13.601563 13.699219 13.101563 13.699219 C 12.199219 13.699219 11.5 14 11 14.300781 C 10.101563 14.800781 10.101563 15.101563 9.5 15.101563 C 8.800781 15.199219 8.101563 14.699219 7.699219 14.398438 C 5.699219 12.601563 2.5 9.199219 2 8.800781 Z" stroke-linecap="round" />
</g>
<g transform="matrix(4.17 0 0 4.17 251.04 172.5)" id="surface1"  >
<path style="stroke: none; stroke-width: 1; stroke-dasharray: none; stroke-linecap: butt; stroke-dashoffset: 0; stroke-linejoin: miter; stroke-miterlimit: 4; fill: rgb(194,24,91); fill-rule: nonzero; opacity: 1;"  transform=" translate(-36.25, -17.4)" d="M 37.101563 19.800781 L 35.800781 18.699219 L 34.199219 19.199219 L 34.800781 17.601563 L 33.898438 16.199219 L 35.5 16.300781 L 36.601563 15 L 37 16.601563 L 38.601563 17.199219 L 37.199219 18.101563 Z" stroke-linecap="round" />
</g>
<g transform="matrix(4.17 0 0 4.17 205.41 260.62)" id="surface1"  >
<path style="stroke: none; stroke-width: 1; stroke-dasharray: none; stroke-linecap: butt; stroke-dashoffset: 0; stroke-linejoin: miter; stroke-miterlimit: 4; fill: rgb(236,64,122); fill-rule: nonzero; opacity: 1;"  transform=" translate(-25.3, -38.55)" d="M 27.101563 40.601563 L 25.5 40 L 24.101563 40.898438 L 24.199219 39.300781 L 22.898438 38.199219 L 24.5 37.800781 L 25.101563 36.199219 L 26 37.601563 L 27.699219 37.699219 L 26.601563 39 Z" stroke-linecap="round" />
</g>
<g transform="matrix(4.17 0 0 4.17 264.17 244.79)" id="surface1"  >
<path style="stroke: none; stroke-width: 1; stroke-dasharray: none; stroke-linecap: butt; stroke-dashoffset: 0; stroke-linejoin: miter; stroke-miterlimit: 4; fill: rgb(236,64,122); fill-rule: nonzero; opacity: 1;"  transform=" translate(-39.4, -34.75)" d="M 41.300781 38.800781 L 38.898438 37.101563 L 36.199219 38.101563 L 37.101563 35.398438 L 35.300781 33.101563 L 38.199219 33.101563 L 39.800781 30.699219 L 40.699219 33.398438 L 43.5 34.199219 L 41.199219 35.898438 Z" stroke-linecap="round" />
</g>
<g transform="matrix(4.17 0 0 4.17 150.42 239.37)" id="surface1"  >
<path style="stroke: none; stroke-width: 1; stroke-dasharray: none; stroke-linecap: butt; stroke-dashoffset: 0; stroke-linejoin: miter; stroke-miterlimit: 4; fill: rgb(194,24,91); fill-rule: nonzero; opacity: 1;"  transform=" translate(-12.1, -33.45)" d="M 12 35.898438 L 11.300781 34.300781 L 9.601563 33.898438 L 10.898438 32.800781 L 10.800781 31 L 12.300781 32 L 13.898438 31.300781 L 13.5 33 L 14.601563 34.300781 L 12.898438 34.398438 Z" stroke-linecap="round" />
</g>
<g transform="matrix(4.17 0 0 4.17 254.21 229.79)" id="surface1"  >
<path style="stroke: none; stroke-width: 1; stroke-dasharray: none; stroke-linecap: butt; stroke-dashoffset: 0; stroke-linejoin: miter; stroke-miterlimit: 4; fill: rgb(244,143,177); fill-rule: nonzero; opacity: 1;"  transform=" translate(-37.01, -31.15)" d="M 36.601563 27.898438 L 36.5 29.300781 L 35.398438 28.398438 C 34.699219 29.101563 34.699219 30.5 35.101563 31.398438 C 35.898438 33.300781 38.601563 34.398438 38.601563 34.398438 C 38.601563 34.398438 39.699219 31.699219 38.898438 29.800781 C 38.5 28.800781 37.601563 27.898438 36.601563 27.898438 Z" stroke-linecap="round" />
</g>
<g transform="matrix(4.17 0 0 4.17 276.83 231.89)" id="surface1"  >
<path style="stroke: none; stroke-width: 1; stroke-dasharray: none; stroke-linecap: butt; stroke-dashoffset: 0; stroke-linejoin: miter; stroke-miterlimit: 4; fill: rgb(244,143,177); fill-rule: nonzero; opacity: 1;"  transform=" translate(-42.44, -31.65)" d="M 45.101563 30.300781 L 43.800781 30.601563 L 44.300781 29.300781 C 43.398438 28.800781 42.101563 29.300781 41.398438 29.898438 C 39.898438 31.300781 39.699219 34.199219 39.699219 34.199219 C 39.699219 34.199219 42.601563 34.398438 44.199219 33 C 44.800781 32.5 45.398438 31.300781 45.101563 30.300781 Z" stroke-linecap="round" />
</g>
<g transform="matrix(4.17 0 0 4.17 278.34 254.24)" id="surface1"  >
<path style="stroke: none; stroke-width: 1; stroke-dasharray: none; stroke-linecap: butt; stroke-dashoffset: 0; stroke-linejoin: miter; stroke-miterlimit: 4; fill: rgb(244,143,177); fill-rule: nonzero; opacity: 1;"  transform=" translate(-42.8, -37.02)" d="M 45.5 38.699219 L 44.601563 37.601563 L 46 37.601563 C 46 36.601563 45.101563 35.601563 44.199219 35.199219 C 42.300781 34.300781 39.601563 35.300781 39.601563 35.300781 C 39.601563 35.300781 40.601563 38 42.5 38.898438 C 43.398438 39.300781 44.699219 39.398438 45.5 38.699219 Z" stroke-linecap="round" />
</g>
<g transform="matrix(4.17 0 0 4.17 245.42 247.1)" id="surface1"  >
<path style="stroke: none; stroke-width: 1; stroke-dasharray: none; stroke-linecap: butt; stroke-dashoffset: 0; stroke-linejoin: miter; stroke-miterlimit: 4; fill: rgb(244,143,177); fill-rule: nonzero; opacity: 1;"  transform=" translate(-34.9, -35.3)" d="M 31.5 35 L 32.800781 35.5 L 31.601563 36.199219 C 32.101563 37.101563 33.398438 37.5 34.300781 37.398438 C 36.398438 37.199219 38.300781 35 38.300781 35 C 38.300781 35 36.101563 33.101563 34 33.199219 C 33.101563 33.398438 31.898438 34 31.5 35 Z" stroke-linecap="round" />
</g>
<g transform="matrix(4.17 0 0 4.17 260.21 261.66)" id="surface1"  >
<path style="stroke: none; stroke-width: 1; stroke-dasharray: none; stroke-linecap: butt; stroke-dashoffset: 0; stroke-linejoin: miter; stroke-miterlimit: 4; fill: rgb(244,143,177); fill-rule: nonzero; opacity: 1;"  transform=" translate(-38.45, -38.8)" d="M 37.601563 42.101563 L 38.300781 40.898438 L 38.800781 42.199219 C 39.800781 41.898438 40.398438 40.699219 40.5 39.699219 C 40.699219 37.601563 38.800781 35.398438 38.800781 35.398438 C 38.800781 35.398438 36.601563 37.300781 36.398438 39.300781 C 36.300781 40.300781 36.699219 41.601563 37.601563 42.101563 Z" stroke-linecap="round" />
</g>
<g transform="matrix(4.17 0 0 4.17 244.2 161.04)" id="surface1"  >
<path style="stroke: none; stroke-width: 1; stroke-dasharray: none; stroke-linecap: butt; stroke-dashoffset: 0; stroke-linejoin: miter; stroke-miterlimit: 4; fill: rgb(240,98,146); fill-rule: nonzero; opacity: 1;"  transform=" translate(-34.61, -14.65)" d="M 34.300781 12.300781 L 34.199219 13.300781 L 33.398438 12.601563 C 32.898438 13.101563 32.898438 14.101563 33.199219 14.800781 C 33.800781 16.199219 35.800781 17 35.800781 17 C 35.800781 17 36.601563 15 36 13.601563 C 35.699219 13 35.101563 12.300781 34.300781 12.300781 Z" stroke-linecap="round" />
</g>
<g transform="matrix(4.17 0 0 4.17 260.61 163.51)" id="surface1"  >
<path style="stroke: none; stroke-width: 1; stroke-dasharray: none; stroke-linecap: butt; stroke-dashoffset: 0; stroke-linejoin: miter; stroke-miterlimit: 4; fill: rgb(240,98,146); fill-rule: nonzero; opacity: 1;"  transform=" translate(-38.55, -15.24)" d="M 40.5 14.101563 L 39.5 14.398438 L 39.898438 13.5 C 39.199219 13.199219 38.300781 13.5 37.800781 14 C 36.699219 15 36.5 17.101563 36.5 17.101563 C 36.5 17.101563 38.601563 17.199219 39.800781 16.199219 C 40.300781 15.699219 40.800781 14.898438 40.5 14.101563 Z" stroke-linecap="round" />
</g>
<g transform="matrix(4.17 0 0 4.17 261.46 179.09)" id="surface1"  >
<path style="stroke: none; stroke-width: 1; stroke-dasharray: none; stroke-linecap: butt; stroke-dashoffset: 0; stroke-linejoin: miter; stroke-miterlimit: 4; fill: rgb(240,98,146); fill-rule: nonzero; opacity: 1;"  transform=" translate(-38.75, -18.98)" d="M 40.699219 20.199219 L 40.101563 19.398438 L 41.101563 19.398438 C 41.101563 18.601563 40.398438 17.898438 39.800781 17.601563 C 38.398438 17 36.398438 17.699219 36.398438 17.699219 C 36.398438 17.699219 37.101563 19.699219 38.5 20.398438 C 39.101563 20.699219 40.101563 20.699219 40.699219 20.199219 Z" stroke-linecap="round" />
</g>
<g transform="matrix(4.17 0 0 4.17 237.71 174.2)" id="surface1"  >
<path style="stroke: none; stroke-width: 1; stroke-dasharray: none; stroke-linecap: butt; stroke-dashoffset: 0; stroke-linejoin: miter; stroke-miterlimit: 4; fill: rgb(240,98,146); fill-rule: nonzero; opacity: 1;"  transform=" translate(-33.05, -17.81)" d="M 30.601563 17.5 L 31.5 17.898438 L 30.601563 18.398438 C 30.898438 19.101563 31.898438 19.398438 32.601563 19.300781 C 34.101563 19.199219 35.5 17.601563 35.5 17.601563 C 35.5 17.601563 33.898438 16.199219 32.398438 16.300781 C 31.699219 16.398438 30.898438 16.800781 30.601563 17.5 Z" stroke-linecap="round" />
</g>
<g transform="matrix(4.17 0 0 4.17 247.49 185.21)" id="surface1"  >
<path style="stroke: none; stroke-width: 1; stroke-dasharray: none; stroke-linecap: butt; stroke-dashoffset: 0; stroke-linejoin: miter; stroke-miterlimit: 4; fill: rgb(240,98,146); fill-rule: nonzero; opacity: 1;"  transform=" translate(-35.4, -20.45)" d="M 34.601563 22.699219 L 35.199219 21.898438 L 35.5 22.898438 C 36.199219 22.699219 36.699219 21.898438 36.898438 21.199219 C 37.101563 19.699219 35.898438 18 35.898438 18 C 35.898438 18 34.199219 19.199219 33.898438 20.699219 C 33.800781 21.300781 34 22.300781 34.601563 22.699219 Z" stroke-linecap="round" />
</g>
<g transform="matrix(4.17 0 0 4.17 198.35 251.84)" id="surface1"  >
<path style="stroke: none; stroke-width: 1; stroke-dasharray: none; stroke-linecap: butt; stroke-dashoffset: 0; stroke-linejoin: miter; stroke-miterlimit: 4; fill: rgb(244,143,177); fill-rule: nonzero; opacity: 1;"  transform=" translate(-23.6, -36.44)" d="M 22.898438 34.699219 L 23 35.5 L 22.300781 35.101563 C 22 35.601563 22.199219 36.398438 22.5 36.898438 C 23.199219 37.898438 25 38.199219 25 38.199219 C 25 38.199219 25.300781 36.398438 24.5 35.398438 C 24.199219 35 23.5 34.601563 22.898438 34.699219 Z" stroke-linecap="round" />
</g>
<g transform="matrix(4.17 0 0 4.17 212.27 252.05)" id="surface1"  >
<path style="stroke: none; stroke-width: 1; stroke-dasharray: none; stroke-linecap: butt; stroke-dashoffset: 0; stroke-linejoin: miter; stroke-miterlimit: 4; fill: rgb(244,143,177); fill-rule: nonzero; opacity: 1;"  transform=" translate(-26.95, -36.49)" d="M 28.199219 35.101563 L 27.5 35.5 L 27.601563 34.699219 C 27 34.601563 26.300781 35 26 35.5 C 25.300781 36.5 25.5 38.300781 25.5 38.300781 C 25.5 38.300781 27.199219 38 28 37 C 28.398438 36.398438 28.601563 35.601563 28.199219 35.101563 Z" stroke-linecap="round" />
</g>
<g transform="matrix(4.17 0 0 4.17 215.21 263.5)" id="surface1"  >
<path style="stroke: none; stroke-width: 1; stroke-dasharray: none; stroke-linecap: butt; stroke-dashoffset: 0; stroke-linejoin: miter; stroke-miterlimit: 4; fill: rgb(244,143,177); fill-rule: nonzero; opacity: 1;"  transform=" translate(-27.65, -39.24)" d="M 29.601563 39.898438 L 28.898438 39.398438 L 29.699219 39.199219 C 29.601563 38.601563 28.898438 38.101563 28.300781 38 C 27.101563 37.699219 25.601563 38.699219 25.601563 38.699219 C 25.601563 38.699219 26.601563 40.199219 27.800781 40.5 C 28.398438 40.601563 29.199219 40.5 29.601563 39.898438 Z" stroke-linecap="round" />
</g>
<g transform="matrix(4.17 0 0 4.17 195 264.55)" id="surface1"  >
<path style="stroke: none; stroke-width: 1; stroke-dasharray: none; stroke-linecap: butt; stroke-dashoffset: 0; stroke-linejoin: miter; stroke-miterlimit: 4; fill: rgb(244,143,177); fill-rule: nonzero; opacity: 1;"  transform=" translate(-22.8, -39.49)" d="M 20.800781 39.601563 L 21.601563 39.699219 L 21 40.300781 C 21.398438 40.800781 22.199219 40.800781 22.800781 40.699219 C 24 40.300781 24.800781 38.800781 24.800781 38.800781 C 24.800781 38.800781 23.199219 38 22 38.300781 C 21.601563 38.5 20.898438 39 20.800781 39.601563 Z" stroke-linecap="round" />
</g>
<g transform="matrix(4.17 0 0 4.17 207.03 270.62)" id="surface1"  >
<path style="stroke: none; stroke-width: 1; stroke-dasharray: none; stroke-linecap: butt; stroke-dashoffset: 0; stroke-linejoin: miter; stroke-miterlimit: 4; fill: rgb(244,143,177); fill-rule: nonzero; opacity: 1;"  transform=" translate(-25.69, -40.95)" d="M 25.398438 43 L 25.699219 42.199219 L 26.199219 42.898438 C 26.699219 42.601563 26.898438 41.800781 26.898438 41.199219 C 26.699219 40 25.398438 38.898438 25.398438 38.898438 C 25.398438 38.898438 24.300781 40.300781 24.5 41.5 C 24.398438 42.101563 24.800781 42.800781 25.398438 43 Z" stroke-linecap="round" />
</g>
<g transform="matrix(4.17 0 0 4.17 139.38 233.37)" id="surface1"  >
<path style="stroke: none; stroke-width: 1; stroke-dasharray: none; stroke-linecap: butt; stroke-dashoffset: 0; stroke-linejoin: miter; stroke-miterlimit: 4; fill: rgb(240,98,146); fill-rule: nonzero; opacity: 1;"  transform=" translate(-9.45, -32.01)" d="M 7.601563 30.898438 L 8.199219 31.601563 L 7.300781 31.699219 C 7.300781 32.398438 7.898438 33 8.5 33.300781 C 9.800781 33.898438 11.601563 33.101563 11.601563 33.101563 C 11.601563 33.101563 10.898438 31.300781 9.601563 30.699219 C 9.101563 30.398438 8.101563 30.398438 7.601563 30.898438 Z" stroke-linecap="round" />
</g>
<g transform="matrix(4.17 0 0 4.17 151.66 226.25)" id="surface1"  >
<path style="stroke: none; stroke-width: 1; stroke-dasharray: none; stroke-linecap: butt; stroke-dashoffset: 0; stroke-linejoin: miter; stroke-miterlimit: 4; fill: rgb(240,98,146); fill-rule: nonzero; opacity: 1;"  transform=" translate(-12.4, -30.3)" d="M 13 28.101563 L 12.5 28.898438 L 12.101563 28 C 11.398438 28.199219 11 29 11 29.699219 C 10.898438 31.101563 12.101563 32.601563 12.101563 32.601563 C 12.101563 32.601563 13.601563 31.300781 13.800781 29.898438 C 13.800781 29.300781 13.601563 28.398438 13 28.101563 Z" stroke-linecap="round" />
</g>
<g transform="matrix(4.17 0 0 4.17 161.67 233.86)" id="surface1"  >
<path style="stroke: none; stroke-width: 1; stroke-dasharray: none; stroke-linecap: butt; stroke-dashoffset: 0; stroke-linejoin: miter; stroke-miterlimit: 4; fill: rgb(240,98,146); fill-rule: nonzero; opacity: 1;"  transform=" translate(-14.8, -32.13)" d="M 17 32 L 16.101563 31.898438 L 16.800781 31.199219 C 16.300781 30.699219 15.398438 30.601563 14.800781 30.800781 C 13.5 31.199219 12.601563 33 12.601563 33 C 12.601563 33 14.398438 33.898438 15.699219 33.398438 C 16.300781 33.300781 17 32.699219 17 32 Z" stroke-linecap="round" />
</g>
<g transform="matrix(4.17 0 0 4.17 141.87 248.03)" id="surface1"  >
<path style="stroke: none; stroke-width: 1; stroke-dasharray: none; stroke-linecap: butt; stroke-dashoffset: 0; stroke-linejoin: miter; stroke-miterlimit: 4; fill: rgb(240,98,146); fill-rule: nonzero; opacity: 1;"  transform=" translate(-10.05, -35.53)" d="M 8.398438 36.699219 L 9.300781 36.398438 L 9 37.300781 C 9.699219 37.5 10.5 37.101563 10.898438 36.699219 C 11.800781 35.699219 11.800781 33.699219 11.800781 33.699219 C 11.800781 33.699219 9.800781 33.800781 8.898438 34.800781 C 8.5 35.199219 8.101563 36.101563 8.398438 36.699219 Z" stroke-linecap="round" />
</g>
<g transform="matrix(4.17 0 0 4.17 157.49 247.8)" id="surface1"  >
<path style="stroke: none; stroke-width: 1; stroke-dasharray: none; stroke-linecap: butt; stroke-dashoffset: 0; stroke-linejoin: miter; stroke-miterlimit: 4; fill: rgb(240,98,146); fill-rule: nonzero; opacity: 1;"  transform=" translate(-13.8, -35.47)" d="M 14.699219 37.398438 L 14.5 36.5 L 15.300781 36.898438 C 15.601563 36.300781 15.398438 35.398438 15 34.898438 C 14.101563 33.800781 12.199219 33.5 12.199219 33.5 C 12.199219 33.5 11.898438 35.5 12.800781 36.601563 C 13.300781 37.101563 14 37.601563 14.699219 37.398438 Z" stroke-linecap="round" />
</g>
<g transform="matrix(4.17 0 0 4.17 222.29 142.5)" id="surface1"  >
<path style="stroke: none; stroke-width: 1; stroke-dasharray: none; stroke-linecap: butt; stroke-dashoffset: 0; stroke-linejoin: miter; stroke-miterlimit: 4; fill: rgb(236,64,122); fill-rule: nonzero; opacity: 1;"  transform=" translate(-29.35, -10.2)" d="M 29.800781 12.300781 L 28.800781 11.199219 L 27.300781 11.398438 L 28.101563 10.101563 L 27.398438 8.800781 L 28.898438 9.101563 L 30 8.101563 L 30.101563 9.601563 L 31.398438 10.300781 L 30.101563 10.898438 Z" stroke-linecap="round" />
</g>
<g transform="matrix(4.17 0 0 4.17 211.66 141.83)" id="surface1"  >
<path style="stroke: none; stroke-width: 1; stroke-dasharray: none; stroke-linecap: butt; stroke-dashoffset: 0; stroke-linejoin: miter; stroke-miterlimit: 4; fill: rgb(244,143,177); fill-rule: nonzero; opacity: 1;"  transform=" translate(-26.8, -10.04)" d="M 24.898438 9.601563 L 25.601563 10 L 24.898438 10.300781 C 25.101563 10.898438 25.800781 11.199219 26.300781 11.199219 C 27.5 11.300781 28.699219 10.199219 28.699219 10.199219 C 28.699219 10.199219 27.601563 9 26.398438 8.898438 C 25.898438 8.800781 25.199219 9 24.898438 9.601563 Z" stroke-linecap="round" />
</g>
<g transform="matrix(4.17 0 0 4.17 217.85 132.5)" id="surface1"  >
<path style="stroke: none; stroke-width: 1; stroke-dasharray: none; stroke-linecap: butt; stroke-dashoffset: 0; stroke-linejoin: miter; stroke-miterlimit: 4; fill: rgb(244,143,177); fill-rule: nonzero; opacity: 1;"  transform=" translate(-28.28, -7.8)" d="M 28.300781 5.898438 L 28.101563 6.699219 L 27.601563 6 C 27.101563 6.398438 27 7.101563 27.199219 7.699219 C 27.5 8.800781 28.898438 9.699219 28.898438 9.699219 C 28.898438 9.699219 29.699219 8.300781 29.398438 7.101563 C 29.398438 6.601563 28.898438 5.898438 28.300781 5.898438 Z" stroke-linecap="round" />
</g>
<g transform="matrix(4.17 0 0 4.17 229.4 135.8)" id="surface1"  >
<path style="stroke: none; stroke-width: 1; stroke-dasharray: none; stroke-linecap: butt; stroke-dashoffset: 0; stroke-linejoin: miter; stroke-miterlimit: 4; fill: rgb(244,143,177); fill-rule: nonzero; opacity: 1;"  transform=" translate(-31.06, -8.59)" d="M 32.699219 7.800781 L 31.898438 8 L 32.199219 7.300781 C 31.699219 7 30.898438 7.199219 30.5 7.601563 C 29.601563 8.300781 29.398438 10 29.398438 10 C 29.398438 10 31.101563 10.199219 32 9.5 C 32.398438 9 32.800781 8.300781 32.699219 7.800781 Z" stroke-linecap="round" />
</g>
<g transform="matrix(4.17 0 0 4.17 217.1 151.88)" id="surface1"  >
<path style="stroke: none; stroke-width: 1; stroke-dasharray: none; stroke-linecap: butt; stroke-dashoffset: 0; stroke-linejoin: miter; stroke-miterlimit: 4; fill: rgb(244,143,177); fill-rule: nonzero; opacity: 1;"  transform=" translate(-28.1, -12.45)" d="M 27.199219 14 L 27.800781 13.5 L 27.898438 14.300781 C 28.5 14.300781 29 13.699219 29.199219 13.199219 C 29.601563 12.101563 29 10.601563 29 10.601563 C 29 10.601563 27.5 11.199219 27 12.300781 C 26.800781 12.800781 26.800781 13.5 27.199219 14 Z" stroke-linecap="round" />
</g>
<g transform="matrix(4.17 0 0 4.17 229.61 148.14)" id="surface1"  >
<path style="stroke: none; stroke-width: 1; stroke-dasharray: none; stroke-linecap: butt; stroke-dashoffset: 0; stroke-linejoin: miter; stroke-miterlimit: 4; fill: rgb(244,143,177); fill-rule: nonzero; opacity: 1;"  transform=" translate(-31.11, -11.55)" d="M 32.398438 12.699219 L 32 12 L 32.800781 12.101563 C 32.898438 11.5 32.398438 10.898438 32 10.601563 C 31 10 29.398438 10.300781 29.398438 10.300781 C 29.398438 10.300781 29.800781 11.898438 30.800781 12.601563 C 31.199219 12.898438 31.898438 13 32.398438 12.699219 Z" stroke-linecap="round" />
</g>
</svg>