<?xml version="1.0" encoding="UTF-8" standalone="no" ?>
<!DOCTYPE svg PUBLIC "-//W3C//DTD SVG 1.1//EN" "http://www.w3.org/Graphics/SVG/1.1/DTD/svg11.dtd">
<svg xmlns="http://www.w3.org/2000/svg" xmlns:xlink="http://www.w3.org/1999/xlink" version="1.1" width="400" height="400" viewBox="0 0 400 400" xml:space="preserve">
<desc>Created with Fabric.js 3.6.2</desc>
<defs>
</defs>
<g transform="matrix(4.17 0 0 4.17 149.8 215.33)" id="Layer_1"  >
<path style="stroke: none; stroke-width: 1; stroke-dasharray: none; stroke-linecap: butt; stroke-dashoffset: 0; stroke-linejoin: miter; stroke-miterlimit: 4; fill: rgb(27,94,32); fill-rule: nonzero; opacity: 1;"  transform=" translate(-11.95, -27.68)" d="M 17.7 26 C 16 24.3 7.9 21.5 5 22.3 c 1.4 3.9 3.3 4.5 7 9.4 c 1.5 2 4.4 1.9 6 0.3 S 18.8 27.1 17.7 26 z" stroke-linecap="round" />
</g>
<g transform="matrix(4.17 0 0 4.17 185.53 191.55)" id="Layer_1"  >
<path style="stroke: none; stroke-width: 1; stroke-dasharray: none; stroke-linecap: butt; stroke-dashoffset: 0; stroke-linejoin: miter; stroke-miterlimit: 4; fill: rgb(46,125,50); fill-rule: nonzero; opacity: 1;"  transform=" translate(-20.53, -21.97)" d="M 18 33 c -0.6 0 -1 -0.4 -1 -1 v -8 c 0 -5.2 2 -9.9 5.4 -12.8 c 0.4 -0.4 1.1 -0.3 1.4 0.1 c 0.4 0.4 0.3 1.1 -0.1 1.4 c -3 2.5 -4.6 6.6 -4.6 11.3 v 8 C 19 32.6 18.6 33 18 33 z" stroke-linecap="round" />
</g>
<g transform="matrix(4.17 0 0 4.17 254.17 160.42)" id="Layer_1"  >
<path style="stroke: none; stroke-width: 1; stroke-dasharray: none; stroke-linecap: butt; stroke-dashoffset: 0; stroke-linejoin: miter; stroke-miterlimit: 4; fill: rgb(229,115,115); fill-rule: nonzero; opacity: 1;"  transform=" translate(-37, -14.5)" d="M 33 16 c 0 0 1 3 4.8 3 H 40 c 1.1 0 2 -0.9 2 -2.1 c -0.1 -1.6 -0.8 -3.8 -4.2 -4.9 C 32 10 32 10 32 10 L 33 16 z" stroke-linecap="round" />
</g>
<g transform="matrix(4.17 0 0 4.17 214.58 160.42)" id="Layer_1"  >
<path style="stroke: none; stroke-width: 1; stroke-dasharray: none; stroke-linecap: butt; stroke-dashoffset: 0; stroke-linejoin: miter; stroke-miterlimit: 4; fill: rgb(229,115,115); fill-rule: nonzero; opacity: 1;"  transform=" translate(-27.5, -14.5)" d="M 31.1 16 c 0 0 -0.9 3 -4.4 3 H 25 c -1.1 0 -2 -0.9 -2 -2.1 c 0 -1.6 0.7 -3.8 3.8 -4.9 c 5.2 -2 5.2 -2 5.2 -2 L 31.1 16 z" stroke-linecap="round" />
</g>
<g transform="matrix(4.17 0 0 4.17 233.33 122.92)" id="Layer_1"  >
<path style="stroke: none; stroke-width: 1; stroke-dasharray: none; stroke-linecap: butt; stroke-dashoffset: 0; stroke-linejoin: miter; stroke-miterlimit: 4; fill: rgb(229,115,115); fill-rule: nonzero; opacity: 1;"  transform=" translate(-32, -5.5)" d="M 28 8.8 V 5.5 C 28 3.7 31 0 32 0 s 4 3.7 4 5.5 v 3.3 L 32 11 L 28 8.8 z" stroke-linecap="round" />
</g>
<g transform="matrix(4.17 0 0 4.17 233.54 137.53)" id="Layer_1"  >
<path style="stroke: none; stroke-width: 1; stroke-dasharray: none; stroke-linecap: butt; stroke-dashoffset: 0; stroke-linejoin: miter; stroke-miterlimit: 4; fill: rgb(239,154,154); fill-rule: nonzero; opacity: 1;"  transform=" translate(-32.05, -9.01)" d="M 30 12.1 c -5.1 2.3 -5.1 2.3 -7.1 1.2 c -1.4 -0.8 -2.3 -3.7 -2.8 -5.5 c -0.2 -0.9 0.2 -1.8 1 -2.2 C 22.2 4.8 24 4 25.9 4 c 3.1 0 5.1 6 5.1 6 s 1 1.3 2 0 c 0 0 2 -6 5.1 -6 C 40 4 41.8 4.8 43 5.5 c 0.8 0.4 1.2 1.3 1 2.2 c -0.4 1.8 -1.4 4.7 -2.8 5.5 c -2 1.2 -2 1.2 -7.1 -1.2 c 0 0 -1 -0.3 -2 -0.3 S 30 12.1 30 12.1 z" stroke-linecap="round" />
</g>
<g transform="matrix(4.17 0 0 4.17 233.33 145.78)" id="Layer_1"  >
<path style="stroke: none; stroke-width: 1; stroke-dasharray: none; stroke-linecap: butt; stroke-dashoffset: 0; stroke-linejoin: miter; stroke-miterlimit: 4; fill: rgb(183,28,28); fill-rule: nonzero; opacity: 1;"  transform=" translate(-32, -10.99)" d="M 34.2 11.4 c 0.3 -0.3 1.3 0.1 1.3 0.1 c 2 -2.8 -2.3 -4.3 -2.3 -4.3 s -1.7 -0.7 -0.3 0.6 c 1.5 1.5 -0.9 2.3 -0.9 2.3 s -2.4 -0.8 -0.9 -2.3 c 1.4 -1.4 -0.3 -0.6 -0.3 -0.6 s -4.3 1.4 -2.3 4.3 c 0 0 1 -0.4 1.3 -0.1 c 0.3 0.3 -1.4 0.7 -1.4 0.7 S 30 14 32 15 c 2 -1 3.6 -2.9 3.6 -2.9 S 33.9 11.7 34.2 11.4 z" stroke-linecap="round" />
</g>
<g transform="matrix(4.17 0 0 4.17 233.33 143.75)" id="Layer_1"  >
<ellipse style="stroke: none; stroke-width: 1; stroke-dasharray: none; stroke-linecap: butt; stroke-dashoffset: 0; stroke-linejoin: miter; stroke-miterlimit: 4; fill: rgb(255,248,225); fill-rule: nonzero; opacity: 1;"  cx="0" cy="0" rx="1" ry="1.5" />
</g>
<g transform="matrix(4.17 0 0 4.17 175 266.67)" id="Layer_1"  >
<polygon style="stroke: none; stroke-width: 1; stroke-dasharray: none; stroke-linecap: butt; stroke-dashoffset: 0; stroke-linejoin: miter; stroke-miterlimit: 4; fill: rgb(141,110,99); fill-rule: nonzero; opacity: 1;"  points="6.8,8 -6.7,8 -9,-8 9,-8 " />
</g>
<g transform="matrix(4.17 0 0 4.17 175 239.58)" id="Layer_1"  >
<polygon style="stroke: none; stroke-width: 1; stroke-dasharray: none; stroke-linecap: butt; stroke-dashoffset: 0; stroke-linejoin: miter; stroke-miterlimit: 4; fill: rgb(109,76,65); fill-rule: nonzero; opacity: 1;"  points="10,1.5 -10,1.5 -9,-1.5 9,-1.5 " />
</g>
</svg>