<?xml version="1.0" encoding="UTF-8" standalone="no" ?>
<!DOCTYPE svg PUBLIC "-//W3C//DTD SVG 1.1//EN" "http://www.w3.org/Graphics/SVG/1.1/DTD/svg11.dtd">
<svg xmlns="http://www.w3.org/2000/svg" xmlns:xlink="http://www.w3.org/1999/xlink" version="1.1" width="400" height="400" viewBox="0 0 400 400" xml:space="preserve">
<desc>Created with Fabric.js 3.6.2</desc>
<defs>
</defs>
<g transform="matrix(4.17 0 0 4.17 163.33 208.33)" id="surface1"  >
<path style="stroke: none; stroke-width: 1; stroke-dasharray: none; stroke-linecap: butt; stroke-dashoffset: 0; stroke-linejoin: miter; stroke-miterlimit: 4; fill: rgb(46,125,50); fill-rule: nonzero; opacity: 1;"  transform=" translate(-15.2, -26)" d="M 26 43 C 26 31.199219 11.699219 12.398438 4.398438 9 C 18.800781 9 26 21 26 43 Z" stroke-linecap="round" />
</g>
<g transform="matrix(4.17 0 0 4.17 194.79 220.21)" id="surface1"  >
<path style="stroke: none; stroke-width: 1; stroke-dasharray: none; stroke-linecap: butt; stroke-dashoffset: 0; stroke-linejoin: miter; stroke-miterlimit: 4; fill: rgb(46,125,50); fill-rule: nonzero; opacity: 1;"  transform=" translate(-22.75, -28.85)" d="M 28 18.800781 C 27.898438 19.101563 26.898438 24 26.300781 33.800781 C 25.199219 21.898438 22.898438 13.800781 22.898438 13.699219 L 21 14.300781 C 21 14.398438 23.300781 22.5 24.398438 34.398438 C 21.800781 25 16.898438 21.398438 16.601563 21.300781 L 15.5 22.898438 C 15.5 22.898438 24 26.101563 24 44 L 28 44 C 28 25.601563 30 19.300781 30 19.199219 Z" stroke-linecap="round" />
</g>
<g transform="matrix(4.17 0 0 4.17 177.33 137.54)" id="surface1"  >
<path style="stroke: none; stroke-width: 1; stroke-dasharray: none; stroke-linecap: butt; stroke-dashoffset: 0; stroke-linejoin: miter; stroke-miterlimit: 4; fill: rgb(216,67,21); fill-rule: nonzero; opacity: 1;"  transform=" translate(-18.56, -9.01)" d="M 17 5.300781 C 18.398438 4.5 20.300781 5 21.101563 6.398438 C 21.898438 7.800781 21.5 13.101563 21.5 13.101563 C 21.5 13.101563 16.699219 10.800781 15.898438 9.398438 C 15.101563 8 15.601563 6.199219 17 5.300781 Z" stroke-linecap="round" />
</g>
<g transform="matrix(4.17 0 0 4.17 206 179.13)" id="surface1"  >
<path style="stroke: none; stroke-width: 1; stroke-dasharray: none; stroke-linecap: butt; stroke-dashoffset: 0; stroke-linejoin: miter; stroke-miterlimit: 4; fill: rgb(216,67,21); fill-rule: nonzero; opacity: 1;"  transform=" translate(-25.44, -18.99)" d="M 27 22.699219 C 25.601563 23.5 23.699219 23 22.898438 21.601563 C 22.101563 20.199219 22.5 14.898438 22.5 14.898438 C 22.5 14.898438 27.300781 17.199219 28.101563 18.601563 C 28.898438 20 28.398438 21.800781 27 22.699219 Z" stroke-linecap="round" />
</g>
<g transform="matrix(4.17 0 0 4.17 168.75 158.33)" id="surface1"  >
<path style="stroke: none; stroke-width: 1; stroke-dasharray: none; stroke-linecap: butt; stroke-dashoffset: 0; stroke-linejoin: miter; stroke-miterlimit: 4; fill: rgb(216,67,21); fill-rule: nonzero; opacity: 1;"  transform=" translate(-16.5, -14)" d="M 12 14 C 12 12.300781 13.300781 11 15 11 C 16.699219 11 21 14 21 14 C 21 14 16.699219 17 15 17 C 13.300781 17 12 15.699219 12 14 Z" stroke-linecap="round" />
</g>
<g transform="matrix(4.17 0 0 4.17 214.58 158.33)" id="surface1"  >
<path style="stroke: none; stroke-width: 1; stroke-dasharray: none; stroke-linecap: butt; stroke-dashoffset: 0; stroke-linejoin: miter; stroke-miterlimit: 4; fill: rgb(216,67,21); fill-rule: nonzero; opacity: 1;"  transform=" translate(-27.5, -14)" d="M 32 14 C 32 15.699219 30.699219 17 29 17 C 27.300781 17 23 14 23 14 C 23 14 27.300781 11 29 11 C 30.699219 11 32 12.300781 32 14 Z" stroke-linecap="round" />
</g>
<g transform="matrix(4.17 0 0 4.17 177.33 179.13)" id="surface1"  >
<path style="stroke: none; stroke-width: 1; stroke-dasharray: none; stroke-linecap: butt; stroke-dashoffset: 0; stroke-linejoin: miter; stroke-miterlimit: 4; fill: rgb(216,67,21); fill-rule: nonzero; opacity: 1;"  transform=" translate(-18.56, -18.99)" d="M 17 22.699219 C 15.601563 21.898438 15.101563 20 15.898438 18.601563 C 16.699219 17.199219 21.5 14.898438 21.5 14.898438 C 21.5 14.898438 21.898438 20.199219 21.101563 21.601563 C 20.300781 23 18.398438 23.5 17 22.699219 Z" stroke-linecap="round" />
</g>
<g transform="matrix(4.17 0 0 4.17 206 137.54)" id="surface1"  >
<path style="stroke: none; stroke-width: 1; stroke-dasharray: none; stroke-linecap: butt; stroke-dashoffset: 0; stroke-linejoin: miter; stroke-miterlimit: 4; fill: rgb(216,67,21); fill-rule: nonzero; opacity: 1;"  transform=" translate(-25.44, -9.01)" d="M 27 5.300781 C 28.398438 6.101563 28.898438 8 28.101563 9.398438 C 27.300781 10.800781 22.5 13.101563 22.5 13.101563 C 22.5 13.101563 22.101563 7.800781 22.898438 6.398438 C 23.699219 5 25.601563 4.5 27 5.300781 Z" stroke-linecap="round" />
</g>
<g transform="matrix(4.17 0 0 4.17 191.67 135.42)" id="surface1"  >
<path style="stroke: none; stroke-width: 1; stroke-dasharray: none; stroke-linecap: butt; stroke-dashoffset: 0; stroke-linejoin: miter; stroke-miterlimit: 4; fill: rgb(255,87,34); fill-rule: nonzero; opacity: 1;"  transform=" translate(-22, -8.5)" d="M 22 4 C 23.699219 4 25 5.300781 25 7 C 25 8.699219 22 13 22 13 C 22 13 19 8.699219 19 7 C 19 5.300781 20.300781 4 22 4 Z" stroke-linecap="round" />
</g>
<g transform="matrix(4.17 0 0 4.17 191.67 181.25)" id="surface1"  >
<path style="stroke: none; stroke-width: 1; stroke-dasharray: none; stroke-linecap: butt; stroke-dashoffset: 0; stroke-linejoin: miter; stroke-miterlimit: 4; fill: rgb(255,87,34); fill-rule: nonzero; opacity: 1;"  transform=" translate(-22, -19.5)" d="M 22 24 C 20.300781 24 19 22.699219 19 21 C 19 19.300781 22 15 22 15 C 22 15 25 19.300781 25 21 C 25 22.699219 23.699219 24 22 24 Z" stroke-linecap="round" />
</g>
<g transform="matrix(4.17 0 0 4.17 170.87 144)" id="surface1"  >
<path style="stroke: none; stroke-width: 1; stroke-dasharray: none; stroke-linecap: butt; stroke-dashoffset: 0; stroke-linejoin: miter; stroke-miterlimit: 4; fill: rgb(255,87,34); fill-rule: nonzero; opacity: 1;"  transform=" translate(-17.01, -10.56)" d="M 13.300781 9 C 14.101563 7.601563 16 7.101563 17.398438 7.898438 C 18.800781 8.699219 21.101563 13.5 21.101563 13.5 C 21.101563 13.5 15.800781 13.898438 14.398438 13.101563 C 13 12.300781 12.5 10.398438 13.300781 9 Z" stroke-linecap="round" />
</g>
<g transform="matrix(4.17 0 0 4.17 212.46 172.67)" id="surface1"  >
<path style="stroke: none; stroke-width: 1; stroke-dasharray: none; stroke-linecap: butt; stroke-dashoffset: 0; stroke-linejoin: miter; stroke-miterlimit: 4; fill: rgb(255,87,34); fill-rule: nonzero; opacity: 1;"  transform=" translate(-26.99, -17.44)" d="M 30.699219 19 C 29.898438 20.398438 28 20.898438 26.601563 20.101563 C 25.199219 19.300781 22.898438 14.5 22.898438 14.5 C 22.898438 14.5 28.199219 14.101563 29.601563 14.898438 C 31 15.699219 31.5 17.601563 30.699219 19 Z" stroke-linecap="round" />
</g>
<g transform="matrix(4.17 0 0 4.17 170.87 172.67)" id="surface1"  >
<path style="stroke: none; stroke-width: 1; stroke-dasharray: none; stroke-linecap: butt; stroke-dashoffset: 0; stroke-linejoin: miter; stroke-miterlimit: 4; fill: rgb(255,87,34); fill-rule: nonzero; opacity: 1;"  transform=" translate(-17.01, -17.44)" d="M 13.300781 19 C 12.5 17.601563 13 15.699219 14.398438 14.898438 C 15.800781 14.101563 21.101563 14.5 21.101563 14.5 C 21.101563 14.5 18.800781 19.300781 17.398438 20.101563 C 16 20.898438 14.199219 20.398438 13.300781 19 Z" stroke-linecap="round" />
</g>
<g transform="matrix(4.17 0 0 4.17 212.46 144)" id="surface1"  >
<path style="stroke: none; stroke-width: 1; stroke-dasharray: none; stroke-linecap: butt; stroke-dashoffset: 0; stroke-linejoin: miter; stroke-miterlimit: 4; fill: rgb(255,87,34); fill-rule: nonzero; opacity: 1;"  transform=" translate(-26.99, -10.56)" d="M 30.699219 9 C 31.5 10.398438 31 12.300781 29.601563 13.101563 C 28.199219 13.898438 22.898438 13.5 22.898438 13.5 C 22.898438 13.5 25.199219 8.699219 26.601563 7.898438 C 28 7.101563 29.800781 7.601563 30.699219 9 Z" stroke-linecap="round" />
</g>
<g transform="matrix(4.17 0 0 4.17 191.67 158.33)" id="surface1"  >
<path style="stroke: none; stroke-width: 1; stroke-dasharray: none; stroke-linecap: butt; stroke-dashoffset: 0; stroke-linejoin: miter; stroke-miterlimit: 4; fill: rgb(255,193,7); fill-rule: nonzero; opacity: 1;"  transform=" translate(-22, -14)" d="M 26 14 C 26 16.210938 24.210938 18 22 18 C 19.789063 18 18 16.210938 18 14 C 18 11.789063 19.789063 10 22 10 C 24.210938 10 26 11.789063 26 14 Z" stroke-linecap="round" />
</g>
<g transform="matrix(4.17 0 0 4.17 191.67 158.33)" id="surface1"  >
<path style="stroke: none; stroke-width: 1; stroke-dasharray: none; stroke-linecap: butt; stroke-dashoffset: 0; stroke-linejoin: miter; stroke-miterlimit: 4; fill: rgb(255,235,59); fill-rule: nonzero; opacity: 1;"  transform=" translate(-22, -14)" d="M 24.5 14 C 24.5 15.378906 23.378906 16.5 22 16.5 C 20.621094 16.5 19.5 15.378906 19.5 14 C 19.5 12.621094 20.621094 11.5 22 11.5 C 23.378906 11.5 24.5 12.621094 24.5 14 Z" stroke-linecap="round" />
</g>
<g transform="matrix(4.17 0 0 4.17 251.25 218.75)" id="surface1"  >
<path style="stroke: none; stroke-width: 1; stroke-dasharray: none; stroke-linecap: butt; stroke-dashoffset: 0; stroke-linejoin: miter; stroke-miterlimit: 4; fill: rgb(67,160,71); fill-rule: nonzero; opacity: 1;"  transform=" translate(-36.3, -28.5)" d="M 44.601563 16 C 37.300781 19.398438 28 30.5 28 41 C 28 23.5 30.199219 16 44.601563 16 Z" stroke-linecap="round" />
</g>
<g transform="matrix(4.17 0 0 4.17 226.74 220.83)" id="surface1"  >
<path style="stroke: none; stroke-width: 1; stroke-dasharray: none; stroke-linecap: butt; stroke-dashoffset: 0; stroke-linejoin: miter; stroke-miterlimit: 4; fill: rgb(76,175,80); fill-rule: nonzero; opacity: 1;"  transform=" translate(-30.42, -29)" d="M 35.601563 16 C 28.300781 19.398438 26 39.300781 26 42 C 26 38.601563 21.199219 16 35.601563 16 Z" stroke-linecap="round" />
</g>
<g transform="matrix(4.17 0 0 4.17 168.4 243.75)" id="surface1"  >
<path style="stroke: none; stroke-width: 1; stroke-dasharray: none; stroke-linecap: butt; stroke-dashoffset: 0; stroke-linejoin: miter; stroke-miterlimit: 4; fill: rgb(67,160,71); fill-rule: nonzero; opacity: 1;"  transform=" translate(-16.42, -34.5)" d="M 24 42 C 24 31.5 15.699219 30.398438 8.398438 27 C 22.800781 27 25.699219 30.5 24 42 Z" stroke-linecap="round" />
</g>
<g transform="matrix(4.17 0 0 4.17 152.33 170.87)" id="surface1"  >
<path style="stroke: none; stroke-width: 1; stroke-dasharray: none; stroke-linecap: butt; stroke-dashoffset: 0; stroke-linejoin: miter; stroke-miterlimit: 4; fill: rgb(198,40,40); fill-rule: nonzero; opacity: 1;"  transform=" translate(-12.56, -17.01)" d="M 11 13.300781 C 12.398438 12.5 14.300781 13 15.101563 14.398438 C 15.898438 15.800781 15.5 21.101563 15.5 21.101563 C 15.5 21.101563 10.699219 18.800781 9.898438 17.398438 C 9.101563 16 9.601563 14.199219 11 13.300781 Z" stroke-linecap="round" />
</g>
<g transform="matrix(4.17 0 0 4.17 181 212.46)" id="surface1"  >
<path style="stroke: none; stroke-width: 1; stroke-dasharray: none; stroke-linecap: butt; stroke-dashoffset: 0; stroke-linejoin: miter; stroke-miterlimit: 4; fill: rgb(198,40,40); fill-rule: nonzero; opacity: 1;"  transform=" translate(-19.44, -26.99)" d="M 21 30.699219 C 19.601563 31.5 17.699219 31 16.898438 29.601563 C 16.101563 28.199219 16.5 22.898438 16.5 22.898438 C 16.5 22.898438 21.300781 25.199219 22.101563 26.601563 C 22.898438 28 22.398438 29.800781 21 30.699219 Z" stroke-linecap="round" />
</g>
<g transform="matrix(4.17 0 0 4.17 143.75 191.67)" id="surface1"  >
<path style="stroke: none; stroke-width: 1; stroke-dasharray: none; stroke-linecap: butt; stroke-dashoffset: 0; stroke-linejoin: miter; stroke-miterlimit: 4; fill: rgb(198,40,40); fill-rule: nonzero; opacity: 1;"  transform=" translate(-10.5, -22)" d="M 6 22 C 6 20.300781 7.300781 19 9 19 C 10.699219 19 15 22 15 22 C 15 22 10.699219 25 9 25 C 7.300781 25 6 23.699219 6 22 Z" stroke-linecap="round" />
</g>
<g transform="matrix(4.17 0 0 4.17 189.58 191.67)" id="surface1"  >
<path style="stroke: none; stroke-width: 1; stroke-dasharray: none; stroke-linecap: butt; stroke-dashoffset: 0; stroke-linejoin: miter; stroke-miterlimit: 4; fill: rgb(198,40,40); fill-rule: nonzero; opacity: 1;"  transform=" translate(-21.5, -22)" d="M 26 22 C 26 23.699219 24.699219 25 23 25 C 21.300781 25 17 22 17 22 C 17 22 21.300781 19 23 19 C 24.699219 19 26 20.300781 26 22 Z" stroke-linecap="round" />
</g>
<g transform="matrix(4.17 0 0 4.17 152.33 212.46)" id="surface1"  >
<path style="stroke: none; stroke-width: 1; stroke-dasharray: none; stroke-linecap: butt; stroke-dashoffset: 0; stroke-linejoin: miter; stroke-miterlimit: 4; fill: rgb(198,40,40); fill-rule: nonzero; opacity: 1;"  transform=" translate(-12.56, -26.99)" d="M 11 30.699219 C 9.601563 29.898438 9.101563 28 9.898438 26.601563 C 10.699219 25.199219 15.5 22.898438 15.5 22.898438 C 15.5 22.898438 15.898438 28.199219 15.101563 29.601563 C 14.300781 31 12.398438 31.5 11 30.699219 Z" stroke-linecap="round" />
</g>
<g transform="matrix(4.17 0 0 4.17 181 170.87)" id="surface1"  >
<path style="stroke: none; stroke-width: 1; stroke-dasharray: none; stroke-linecap: butt; stroke-dashoffset: 0; stroke-linejoin: miter; stroke-miterlimit: 4; fill: rgb(198,40,40); fill-rule: nonzero; opacity: 1;"  transform=" translate(-19.44, -17.01)" d="M 21 13.300781 C 22.398438 14.101563 22.898438 16 22.101563 17.398438 C 21.300781 18.800781 16.5 21.101563 16.5 21.101563 C 16.5 21.101563 16.101563 15.800781 16.898438 14.398438 C 17.699219 13 19.601563 12.5 21 13.300781 Z" stroke-linecap="round" />
</g>
<g transform="matrix(4.17 0 0 4.17 166.67 168.75)" id="surface1"  >
<path style="stroke: none; stroke-width: 1; stroke-dasharray: none; stroke-linecap: butt; stroke-dashoffset: 0; stroke-linejoin: miter; stroke-miterlimit: 4; fill: rgb(244,67,54); fill-rule: nonzero; opacity: 1;"  transform=" translate(-16, -16.5)" d="M 16 12 C 17.699219 12 19 13.300781 19 15 C 19 16.699219 16 21 16 21 C 16 21 13 16.699219 13 15 C 13 13.300781 14.300781 12 16 12 Z" stroke-linecap="round" />
</g>
<g transform="matrix(4.17 0 0 4.17 166.67 214.58)" id="surface1"  >
<path style="stroke: none; stroke-width: 1; stroke-dasharray: none; stroke-linecap: butt; stroke-dashoffset: 0; stroke-linejoin: miter; stroke-miterlimit: 4; fill: rgb(244,67,54); fill-rule: nonzero; opacity: 1;"  transform=" translate(-16, -27.5)" d="M 16 32 C 14.300781 32 13 30.699219 13 29 C 13 27.300781 16 23 16 23 C 16 23 19 27.300781 19 29 C 19 30.699219 17.699219 32 16 32 Z" stroke-linecap="round" />
</g>
<g transform="matrix(4.17 0 0 4.17 145.87 177.33)" id="surface1"  >
<path style="stroke: none; stroke-width: 1; stroke-dasharray: none; stroke-linecap: butt; stroke-dashoffset: 0; stroke-linejoin: miter; stroke-miterlimit: 4; fill: rgb(244,67,54); fill-rule: nonzero; opacity: 1;"  transform=" translate(-11.01, -18.56)" d="M 7.300781 17 C 8.101563 15.601563 10 15.101563 11.398438 15.898438 C 12.800781 16.699219 15.101563 21.5 15.101563 21.5 C 15.101563 21.5 9.800781 21.898438 8.398438 21.101563 C 7 20.300781 6.5 18.398438 7.300781 17 Z" stroke-linecap="round" />
</g>
<g transform="matrix(4.17 0 0 4.17 187.46 206)" id="surface1"  >
<path style="stroke: none; stroke-width: 1; stroke-dasharray: none; stroke-linecap: butt; stroke-dashoffset: 0; stroke-linejoin: miter; stroke-miterlimit: 4; fill: rgb(244,67,54); fill-rule: nonzero; opacity: 1;"  transform=" translate(-20.99, -25.44)" d="M 24.699219 27 C 23.898438 28.398438 22 28.898438 20.601563 28.101563 C 19.199219 27.300781 16.898438 22.5 16.898438 22.5 C 16.898438 22.5 22.199219 22.101563 23.601563 22.898438 C 25 23.699219 25.5 25.601563 24.699219 27 Z" stroke-linecap="round" />
</g>
<g transform="matrix(4.17 0 0 4.17 145.87 206)" id="surface1"  >
<path style="stroke: none; stroke-width: 1; stroke-dasharray: none; stroke-linecap: butt; stroke-dashoffset: 0; stroke-linejoin: miter; stroke-miterlimit: 4; fill: rgb(244,67,54); fill-rule: nonzero; opacity: 1;"  transform=" translate(-11.01, -25.44)" d="M 7.300781 27 C 6.5 25.601563 7 23.699219 8.398438 22.898438 C 9.800781 22.101563 15.101563 22.5 15.101563 22.5 C 15.101563 22.5 12.800781 27.300781 11.398438 28.101563 C 10 28.898438 8.199219 28.398438 7.300781 27 Z" stroke-linecap="round" />
</g>
<g transform="matrix(4.17 0 0 4.17 187.46 177.33)" id="surface1"  >
<path style="stroke: none; stroke-width: 1; stroke-dasharray: none; stroke-linecap: butt; stroke-dashoffset: 0; stroke-linejoin: miter; stroke-miterlimit: 4; fill: rgb(244,67,54); fill-rule: nonzero; opacity: 1;"  transform=" translate(-20.99, -18.56)" d="M 24.699219 17 C 25.5 18.398438 25 20.300781 23.601563 21.101563 C 22.199219 21.898438 16.898438 21.5 16.898438 21.5 C 16.898438 21.5 19.199219 16.699219 20.601563 15.898438 C 22 15.101563 23.800781 15.601563 24.699219 17 Z" stroke-linecap="round" />
</g>
<g transform="matrix(4.17 0 0 4.17 166.67 191.67)" id="surface1"  >
<path style="stroke: none; stroke-width: 1; stroke-dasharray: none; stroke-linecap: butt; stroke-dashoffset: 0; stroke-linejoin: miter; stroke-miterlimit: 4; fill: rgb(255,152,0); fill-rule: nonzero; opacity: 1;"  transform=" translate(-16, -22)" d="M 20 22 C 20 24.210938 18.210938 26 16 26 C 13.789063 26 12 24.210938 12 22 C 12 19.789063 13.789063 18 16 18 C 18.210938 18 20 19.789063 20 22 Z" stroke-linecap="round" />
</g>
<g transform="matrix(4.17 0 0 4.17 166.67 191.67)" id="surface1"  >
<path style="stroke: none; stroke-width: 1; stroke-dasharray: none; stroke-linecap: butt; stroke-dashoffset: 0; stroke-linejoin: miter; stroke-miterlimit: 4; fill: rgb(255,235,59); fill-rule: nonzero; opacity: 1;"  transform=" translate(-16, -22)" d="M 18.5 22 C 18.5 23.378906 17.378906 24.5 16 24.5 C 14.621094 24.5 13.5 23.378906 13.5 22 C 13.5 20.621094 14.621094 19.5 16 19.5 C 17.378906 19.5 18.5 20.621094 18.5 22 Z" stroke-linecap="round" />
</g>
<g transform="matrix(4.17 0 0 4.17 206.5 158.37)" id="surface1"  >
<path style="stroke: none; stroke-width: 1; stroke-dasharray: none; stroke-linecap: butt; stroke-dashoffset: 0; stroke-linejoin: miter; stroke-miterlimit: 4; fill: rgb(179,0,209); fill-rule: nonzero; opacity: 1;"  transform=" translate(-25.56, -14.01)" d="M 24 10.300781 C 25.398438 9.5 27.300781 10 28.101563 11.398438 C 28.898438 12.800781 28.5 18.101563 28.5 18.101563 C 28.5 18.101563 23.699219 15.800781 22.898438 14.398438 C 22.101563 13 22.601563 11.199219 24 10.300781 Z" stroke-linecap="round" />
</g>
<g transform="matrix(4.17 0 0 4.17 235.17 199.96)" id="surface1"  >
<path style="stroke: none; stroke-width: 1; stroke-dasharray: none; stroke-linecap: butt; stroke-dashoffset: 0; stroke-linejoin: miter; stroke-miterlimit: 4; fill: rgb(179,0,209); fill-rule: nonzero; opacity: 1;"  transform=" translate(-32.44, -23.99)" d="M 34 27.699219 C 32.601563 28.5 30.699219 28 29.898438 26.601563 C 29.101563 25.199219 29.5 19.898438 29.5 19.898438 C 29.5 19.898438 34.300781 22.199219 35.101563 23.601563 C 35.898438 25 35.398438 26.800781 34 27.699219 Z" stroke-linecap="round" />
</g>
<g transform="matrix(4.17 0 0 4.17 197.92 179.17)" id="surface1"  >
<path style="stroke: none; stroke-width: 1; stroke-dasharray: none; stroke-linecap: butt; stroke-dashoffset: 0; stroke-linejoin: miter; stroke-miterlimit: 4; fill: rgb(179,0,209); fill-rule: nonzero; opacity: 1;"  transform=" translate(-23.5, -19)" d="M 19 19 C 19 17.300781 20.300781 16 22 16 C 23.699219 16 28 19 28 19 C 28 19 23.699219 22 22 22 C 20.300781 22 19 20.699219 19 19 Z" stroke-linecap="round" />
</g>
<g transform="matrix(4.17 0 0 4.17 243.75 179.17)" id="surface1"  >
<path style="stroke: none; stroke-width: 1; stroke-dasharray: none; stroke-linecap: butt; stroke-dashoffset: 0; stroke-linejoin: miter; stroke-miterlimit: 4; fill: rgb(179,0,209); fill-rule: nonzero; opacity: 1;"  transform=" translate(-34.5, -19)" d="M 39 19 C 39 20.699219 37.699219 22 36 22 C 34.300781 22 30 19 30 19 C 30 19 34.300781 16 36 16 C 37.699219 16 39 17.300781 39 19 Z" stroke-linecap="round" />
</g>
<g transform="matrix(4.17 0 0 4.17 206.5 199.96)" id="surface1"  >
<path style="stroke: none; stroke-width: 1; stroke-dasharray: none; stroke-linecap: butt; stroke-dashoffset: 0; stroke-linejoin: miter; stroke-miterlimit: 4; fill: rgb(179,0,209); fill-rule: nonzero; opacity: 1;"  transform=" translate(-25.56, -23.99)" d="M 24 27.699219 C 22.601563 26.898438 22.101563 25 22.898438 23.601563 C 23.699219 22.199219 28.5 19.898438 28.5 19.898438 C 28.5 19.898438 28.898438 25.199219 28.101563 26.601563 C 27.300781 28 25.398438 28.5 24 27.699219 Z" stroke-linecap="round" />
</g>
<g transform="matrix(4.17 0 0 4.17 235.17 158.37)" id="surface1"  >
<path style="stroke: none; stroke-width: 1; stroke-dasharray: none; stroke-linecap: butt; stroke-dashoffset: 0; stroke-linejoin: miter; stroke-miterlimit: 4; fill: rgb(179,0,209); fill-rule: nonzero; opacity: 1;"  transform=" translate(-32.44, -14.01)" d="M 34 10.300781 C 35.398438 11.101563 35.898438 13 35.101563 14.398438 C 34.300781 15.800781 29.5 18.101563 29.5 18.101563 C 29.5 18.101563 29.101563 12.800781 29.898438 11.398438 C 30.699219 10 32.601563 9.5 34 10.300781 Z" stroke-linecap="round" />
</g>
<g transform="matrix(4.17 0 0 4.17 220.83 156.25)" id="surface1"  >
<path style="stroke: none; stroke-width: 1; stroke-dasharray: none; stroke-linecap: butt; stroke-dashoffset: 0; stroke-linejoin: miter; stroke-miterlimit: 4; fill: rgb(224,64,251); fill-rule: nonzero; opacity: 1;"  transform=" translate(-29, -13.5)" d="M 29 9 C 30.699219 9 32 10.300781 32 12 C 32 13.699219 29 18 29 18 C 29 18 26 13.699219 26 12 C 26 10.300781 27.300781 9 29 9 Z" stroke-linecap="round" />
</g>
<g transform="matrix(4.17 0 0 4.17 220.83 202.08)" id="surface1"  >
<path style="stroke: none; stroke-width: 1; stroke-dasharray: none; stroke-linecap: butt; stroke-dashoffset: 0; stroke-linejoin: miter; stroke-miterlimit: 4; fill: rgb(224,64,251); fill-rule: nonzero; opacity: 1;"  transform=" translate(-29, -24.5)" d="M 29 29 C 27.300781 29 26 27.699219 26 26 C 26 24.300781 29 20 29 20 C 29 20 32 24.300781 32 26 C 32 27.699219 30.699219 29 29 29 Z" stroke-linecap="round" />
</g>
<g transform="matrix(4.17 0 0 4.17 200.04 164.83)" id="surface1"  >
<path style="stroke: none; stroke-width: 1; stroke-dasharray: none; stroke-linecap: butt; stroke-dashoffset: 0; stroke-linejoin: miter; stroke-miterlimit: 4; fill: rgb(224,64,251); fill-rule: nonzero; opacity: 1;"  transform=" translate(-24.01, -15.56)" d="M 20.300781 14 C 21.101563 12.601563 23 12.101563 24.398438 12.898438 C 25.800781 13.699219 28.101563 18.5 28.101563 18.5 C 28.101563 18.5 22.800781 18.898438 21.398438 18.101563 C 20 17.300781 19.5 15.398438 20.300781 14 Z" stroke-linecap="round" />
</g>
<g transform="matrix(4.17 0 0 4.17 241.63 193.5)" id="surface1"  >
<path style="stroke: none; stroke-width: 1; stroke-dasharray: none; stroke-linecap: butt; stroke-dashoffset: 0; stroke-linejoin: miter; stroke-miterlimit: 4; fill: rgb(224,64,251); fill-rule: nonzero; opacity: 1;"  transform=" translate(-33.99, -22.44)" d="M 37.699219 24 C 36.898438 25.398438 35 25.898438 33.601563 25.101563 C 32.199219 24.300781 29.898438 19.5 29.898438 19.5 C 29.898438 19.5 35.199219 19.101563 36.601563 19.898438 C 38 20.699219 38.5 22.601563 37.699219 24 Z" stroke-linecap="round" />
</g>
<g transform="matrix(4.17 0 0 4.17 200.04 193.5)" id="surface1"  >
<path style="stroke: none; stroke-width: 1; stroke-dasharray: none; stroke-linecap: butt; stroke-dashoffset: 0; stroke-linejoin: miter; stroke-miterlimit: 4; fill: rgb(224,64,251); fill-rule: nonzero; opacity: 1;"  transform=" translate(-24.01, -22.44)" d="M 20.300781 24 C 19.5 22.601563 20 20.699219 21.398438 19.898438 C 22.800781 19.101563 28.101563 19.5 28.101563 19.5 C 28.101563 19.5 25.800781 24.300781 24.398438 25.101563 C 23 25.898438 21.199219 25.398438 20.300781 24 Z" stroke-linecap="round" />
</g>
<g transform="matrix(4.17 0 0 4.17 241.63 164.83)" id="surface1"  >
<path style="stroke: none; stroke-width: 1; stroke-dasharray: none; stroke-linecap: butt; stroke-dashoffset: 0; stroke-linejoin: miter; stroke-miterlimit: 4; fill: rgb(224,64,251); fill-rule: nonzero; opacity: 1;"  transform=" translate(-33.99, -15.56)" d="M 37.699219 14 C 38.5 15.398438 38 17.300781 36.601563 18.101563 C 35.199219 18.898438 29.898438 18.5 29.898438 18.5 C 29.898438 18.5 32.199219 13.699219 33.601563 12.898438 C 35 12.101563 36.800781 12.601563 37.699219 14 Z" stroke-linecap="round" />
</g>
<g transform="matrix(4.17 0 0 4.17 220.83 179.17)" id="surface1"  >
<path style="stroke: none; stroke-width: 1; stroke-dasharray: none; stroke-linecap: butt; stroke-dashoffset: 0; stroke-linejoin: miter; stroke-miterlimit: 4; fill: rgb(255,152,0); fill-rule: nonzero; opacity: 1;"  transform=" translate(-29, -19)" d="M 33 19 C 33 21.210938 31.210938 23 29 23 C 26.789063 23 25 21.210938 25 19 C 25 16.789063 26.789063 15 29 15 C 31.210938 15 33 16.789063 33 19 Z" stroke-linecap="round" />
</g>
<g transform="matrix(4.17 0 0 4.17 220.83 179.17)" id="surface1"  >
<path style="stroke: none; stroke-width: 1; stroke-dasharray: none; stroke-linecap: butt; stroke-dashoffset: 0; stroke-linejoin: miter; stroke-miterlimit: 4; fill: rgb(255,235,59); fill-rule: nonzero; opacity: 1;"  transform=" translate(-29, -19)" d="M 31.5 19 C 31.5 20.378906 30.378906 21.5 29 21.5 C 27.621094 21.5 26.5 20.378906 26.5 19 C 26.5 17.621094 27.621094 16.5 29 16.5 C 30.378906 16.5 31.5 17.621094 31.5 19 Z" stroke-linecap="round" />
</g>
<g transform="matrix(4.17 0 0 4.17 208.33 260.42)" id="surface1"  >
<path style="stroke: none; stroke-width: 1; stroke-dasharray: none; stroke-linecap: butt; stroke-dashoffset: 0; stroke-linejoin: miter; stroke-miterlimit: 4; fill: rgb(244,67,54); fill-rule: nonzero; opacity: 1;"  transform=" translate(-26, -38.5)" d="M 28.199219 39 L 23.800781 39.898438 L 23.5 37.898438 L 28.5 37.101563 Z" stroke-linecap="round" />
</g>
<g transform="matrix(4.17 0 0 4.17 208.33 272.92)" id="surface1"  >
<path style="stroke: none; stroke-width: 1; stroke-dasharray: none; stroke-linecap: butt; stroke-dashoffset: 0; stroke-linejoin: miter; stroke-miterlimit: 4; fill: rgb(244,67,54); fill-rule: nonzero; opacity: 1;"  transform=" translate(-26, -41.5)" d="M 28 42 L 24 43 L 23.898438 41 L 28.101563 40 Z" stroke-linecap="round" />
</g>
</svg>