<?xml version="1.0" encoding="UTF-8" standalone="no" ?>
<!DOCTYPE svg PUBLIC "-//W3C//DTD SVG 1.1//EN" "http://www.w3.org/Graphics/SVG/1.1/DTD/svg11.dtd">
<svg xmlns="http://www.w3.org/2000/svg" xmlns:xlink="http://www.w3.org/1999/xlink" version="1.1" width="400" height="400" viewBox="0 0 400 400" xml:space="preserve">
<desc>Created with Fabric.js 3.6.2</desc>
<defs>
</defs>
<g transform="matrix(4.17 0 0 4.17 187.5 214.79)" id="surface1"  >
<path style="stroke: none; stroke-width: 1; stroke-dasharray: none; stroke-linecap: butt; stroke-dashoffset: 0; stroke-linejoin: miter; stroke-miterlimit: 4; fill: rgb(104,159,56); fill-rule: nonzero; opacity: 1;"  transform=" translate(-21, -27.55)" d="M 13 20.1 L 29 35 c -7 -2 -14 0 -14 0 l -2 -2 C 13 33 15 26 13 20.1 z" stroke-linecap="round" />
</g>
<g transform="matrix(4.17 0 0 4.17 146.74 212.29)" id="surface1"  >
<path style="stroke: none; stroke-width: 1; stroke-dasharray: none; stroke-linecap: butt; stroke-dashoffset: 0; stroke-linejoin: miter; stroke-miterlimit: 4; fill: rgb(104,159,56); fill-rule: nonzero; opacity: 1;"  transform=" translate(-11.22, -26.95)" d="M 9 22 c 0 0 0.5 8.1 4.2 9.9 C 14.5 26.4 10 23 9 22 z" stroke-linecap="round" />
</g>
<g transform="matrix(4.17 0 0 4.17 179.38 251.83)" id="surface1"  >
<path style="stroke: none; stroke-width: 1; stroke-dasharray: none; stroke-linecap: butt; stroke-dashoffset: 0; stroke-linejoin: miter; stroke-miterlimit: 4; fill: rgb(104,159,56); fill-rule: nonzero; opacity: 1;"  transform=" translate(-19.05, -36.44)" d="M 16.1 34.8 c 0 0 4.2 -0.5 5.9 3.3 C 18.4 38.1 16.5 37.1 16.1 34.8 z" stroke-linecap="round" />
</g>
<g transform="matrix(4.17 0 0 4.17 164.17 213.75)" id="surface1"  >
<path style="stroke: none; stroke-width: 1; stroke-dasharray: none; stroke-linecap: butt; stroke-dashoffset: 0; stroke-linejoin: miter; stroke-miterlimit: 4; fill: rgb(51,105,30); fill-rule: nonzero; opacity: 1;"  transform=" translate(-15.4, -27.3)" d="M 13.8 35.7 l -1.5 -1.3 c 0.1 -0.1 5.6 -6.8 3.8 -15.1 l 2 -0.4 C 20.1 28.2 14 35.4 13.8 35.7 z" stroke-linecap="round" />
</g>
<g transform="matrix(4.17 0 0 4.17 191.88 238.09)" id="surface1"  >
<path style="stroke: none; stroke-width: 1; stroke-dasharray: none; stroke-linecap: butt; stroke-dashoffset: 0; stroke-linejoin: miter; stroke-miterlimit: 4; fill: rgb(51,105,30); fill-rule: nonzero; opacity: 1;"  transform=" translate(-22.05, -33.14)" d="M 13.6 35.9 l -1.1 -1.6 c 10.4 -7.3 18.8 -2.2 19.1 -2 l -1.1 1.7 C 30.2 33.7 22.9 29.3 13.6 35.9 z" stroke-linecap="round" />
</g>
<g transform="matrix(4.17 0 0 4.17 212.52 185.65)" id="surface1"  >
<path style="stroke: none; stroke-width: 1; stroke-dasharray: none; stroke-linecap: butt; stroke-dashoffset: 0; stroke-linejoin: miter; stroke-miterlimit: 4; fill: rgb(248,187,208); fill-rule: nonzero; opacity: 1;"  transform=" translate(-27, -20.56)" d="M 15.5 10.7 c 0.4 -0.4 0.9 -0.8 1.4 -1.2 c 1.2 -2.8 3.7 -3.6 6.8 -3 c 1.3 -0.2 2.5 -0.3 3.8 -0.2 c 3.3 -0.8 7.1 0.2 8.8 3.7 c 0.2 0.2 0.5 0.4 0.7 0.7 c 1.1 1.1 2 2.3 2.7 3.6 c 2.4 1.9 2.9 4.9 1.7 7.8 c -0.1 2 -0.6 3.9 -1.4 5.7 c 0 1.7 -0.6 6.5 -7.9 7 c -2 0.3 -3.5 0.8 -5.9 -1.4 c -3.6 0.8 -7.1 -1.9 -6.6 -5.5 C 18 26.2 17.2 24.6 16 23 c -4 -1 -4.9 -6 -3.2 -8.2 C 13.2 13.4 14.1 12.1 15.5 10.7 z" stroke-linecap="round" />
</g>
<g transform="matrix(4.17 0 0 4.17 143.75 256.25)" id="surface1"  >
<path style="stroke: none; stroke-width: 1; stroke-dasharray: none; stroke-linecap: butt; stroke-dashoffset: 0; stroke-linejoin: miter; stroke-miterlimit: 4; fill: rgb(255,224,178); fill-rule: nonzero; opacity: 1;"  transform=" translate(-10.5, -37.5)" d="M 8.1 42.7 c -0.4 0.4 -1 0.4 -1.4 0 l -1.4 -1.4 c -0.4 -0.4 -0.4 -1 0 -1.4 l 7.9 -7.9 l 2.8 2.8 L 8.1 42.7 z" stroke-linecap="round" />
</g>
<g transform="matrix(4.17 0 0 4.17 158.33 241.67)" id="surface1"  >
<path style="stroke: none; stroke-width: 1; stroke-dasharray: none; stroke-linecap: butt; stroke-dashoffset: 0; stroke-linejoin: miter; stroke-miterlimit: 4; fill: rgb(255,183,77); fill-rule: nonzero; opacity: 1;"  transform=" translate(-14, -34)" d="M 11.9 33.3 l 1.4 -1.4 l 2.8 2.8 l -1.4 1.4 L 11.9 33.3 z" stroke-linecap="round" />
</g>
<g transform="matrix(4.17 0 0 4.17 145.83 254.17)" id="surface1"  >
<path style="stroke: none; stroke-width: 1; stroke-dasharray: none; stroke-linecap: butt; stroke-dashoffset: 0; stroke-linejoin: miter; stroke-miterlimit: 4; fill: rgb(255,183,77); fill-rule: nonzero; opacity: 1;"  transform=" translate(-11, -37)" d="M 13.1 37.7 l -1.4 1.4 l -2.8 -2.8 l 1.4 -1.4 L 13.1 37.7 z" stroke-linecap="round" />
</g>
<g transform="matrix(4.17 0 0 4.17 168.1 155.4)" id="surface1"  >
<path style="stroke: none; stroke-width: 1; stroke-dasharray: none; stroke-linecap: butt; stroke-dashoffset: 0; stroke-linejoin: miter; stroke-miterlimit: 4; fill: rgb(255,128,171); fill-rule: nonzero; opacity: 1;"  transform=" translate(-16.34, -13.3)" d="M 20 13.4 c 0.4 1.2 -0.1 2.7 -1.2 3.5 c -1.1 0.9 -2.9 1 -4.1 0.2 c -0.2 -0.1 -0.3 -0.2 -0.5 -0.3 c -0.1 -0.1 -0.1 -0.1 -0.2 -0.2 l -0.2 -0.2 c -0.1 -0.1 -0.3 -0.3 -0.4 -0.4 c -0.1 -0.2 -0.2 -0.3 -0.3 -0.5 c -0.4 -0.7 -0.6 -1.4 -0.6 -2.2 c 0 -0.8 0.2 -1.5 0.6 -2.2 c 0.2 -0.3 0.4 -0.6 0.7 -0.9 c 0.2 -0.2 0.2 -0.2 0.4 -0.4 c 0.2 -0.1 0.4 -0.3 0.5 -0.4 c 1.4 -0.8 3.4 -0.5 4.5 0.6 c 1.3 1.2 1.3 3.4 0.1 4.5 c -0.6 0.6 -1.5 0.9 -2.3 0.8 c -0.4 -0.1 -0.8 -0.3 -1.1 -0.5 c -0.1 -0.1 -0.2 -0.1 -0.2 -0.2 l -0.1 -0.1 l -0.1 -0.1 c -0.1 -0.2 -0.2 -0.4 -0.3 -0.6 c -0.3 -0.8 0 -1.7 0.6 -2.1 c 0.6 -0.5 1.5 -0.3 1.9 0.3 c -0.5 -0.4 -1.2 -0.2 -1.5 0.2 c -0.3 0.4 -0.3 0.9 -0.1 1.3 c 0.1 0.1 0.1 0.2 0.2 0.2 l 0.1 0.1 c 0 0 0 0 0.1 0 c 0 0 0.1 0.1 0.1 0.1 c 0.2 0.1 0.4 0.1 0.6 0.1 c 0.4 0 0.7 -0.2 1 -0.5 c 0.5 -0.7 0.4 -1.6 -0.2 -2.1 c -0.6 -0.6 -1.6 -0.7 -2.3 -0.3 c -0.1 0.1 -0.2 0.1 -0.2 0.1 c 0 0 -0.3 0.2 -0.3 0.2 c -0.2 0.2 -0.3 0.3 -0.4 0.5 c -0.2 0.4 -0.4 0.8 -0.4 1.3 c -0.1 0.5 0 0.9 0.2 1.3 c 0.2 0.4 0.5 0.8 0.9 1.1 c 0.8 0.6 1.8 0.8 2.8 0.3 C 19.2 15.7 19.9 14.7 20 13.4 z" stroke-linecap="round" />
</g>
<g transform="matrix(4.17 0 0 4.17 247.91 157.85)" id="surface1"  >
<path style="stroke: none; stroke-width: 1; stroke-dasharray: none; stroke-linecap: butt; stroke-dashoffset: 0; stroke-linejoin: miter; stroke-miterlimit: 4; fill: rgb(255,128,171); fill-rule: nonzero; opacity: 1;"  transform=" translate(-35.5, -13.88)" d="M 33.2 11.4 c 0.6 -1.1 2 -1.8 3.4 -1.6 c 1.4 0.2 2.7 1.3 3 2.8 c 0 0.2 0.1 0.4 0.1 0.5 l 0 0.3 c 0 0.1 0 0.1 0 0.2 c 0 0.4 0 0.8 -0.1 1.1 c -0.2 0.7 -0.6 1.4 -1.2 2 c -0.5 0.5 -1.2 0.9 -2 1.1 c -0.4 0.1 -0.8 0.2 -1.1 0.2 c -0.3 0 -0.3 0 -0.6 0 c -0.2 0 -0.4 -0.1 -0.6 -0.1 c -1.6 -0.4 -2.8 -2 -2.8 -3.6 c -0.1 -1.7 1.5 -3.3 3.1 -3.3 c 0.8 0 1.7 0.4 2.2 1.1 c 0.2 0.3 0.4 0.7 0.4 1.1 c 0 0.1 0 0.2 0 0.3 l 0 0.2 l 0 0.1 c 0 0.2 -0.1 0.4 -0.2 0.6 c -0.4 0.7 -1.2 1.1 -1.9 1 c -0.8 -0.1 -1.3 -0.9 -1.1 -1.5 c 0.1 0.6 0.7 1 1.2 0.9 c 0.5 -0.1 0.9 -0.4 1 -0.8 c 0 -0.1 0 -0.2 0 -0.3 l 0 -0.1 c 0 0 0 0 0 -0.1 c 0 -0.1 0 -0.1 0 -0.2 c -0.1 -0.2 -0.2 -0.4 -0.3 -0.5 c -0.3 -0.3 -0.6 -0.4 -1 -0.3 c -0.8 0.1 -1.4 0.9 -1.3 1.6 c 0 0.8 0.6 1.6 1.4 1.8 C 34.9 16 35 16 35 16 c 0 0 0.3 0 0.3 0 c 0.2 0 0.4 0 0.7 -0.1 c 0.4 -0.1 0.9 -0.3 1.2 -0.6 c 0.4 -0.3 0.6 -0.7 0.8 -1.1 c 0.1 -0.2 0.1 -0.5 0.2 -0.6 c 0 0 0 -0.1 0 -0.2 v -0.2 c 0 -0.1 0 -0.3 0 -0.4 c -0.1 -1 -0.7 -1.9 -1.8 -2.2 C 35.4 10.3 34.2 10.5 33.2 11.4 z" stroke-linecap="round" />
</g>
<g transform="matrix(4.17 0 0 4.17 208.33 140.54)" id="surface1"  >
<path style="stroke: none; stroke-width: 1; stroke-dasharray: none; stroke-linecap: butt; stroke-dashoffset: 0; stroke-linejoin: miter; stroke-miterlimit: 4; fill: rgb(255,128,171); fill-rule: nonzero; opacity: 1;"  transform=" translate(-26, -9.73)" d="M 29.6 9.6 c -0.1 -1.2 -0.8 -2.3 -1.8 -2.7 c -1 -0.5 -2 -0.3 -2.8 0.4 c -0.4 0.3 -0.7 0.7 -0.9 1.1 c -0.2 0.4 -0.3 0.9 -0.2 1.3 c 0.1 0.5 0.2 0.9 0.4 1.3 c 0.1 0.2 0.3 0.4 0.4 0.5 c 0 0 0.2 0.2 0.3 0.2 c 0.1 0 0.1 0.1 0.2 0.1 c 0.7 0.4 1.7 0.3 2.3 -0.3 c 0.6 -0.5 0.7 -1.4 0.2 -2.1 c -0.2 -0.3 -0.6 -0.5 -1 -0.5 c -0.2 0 -0.4 0 -0.6 0.1 c 0 0 -0.1 0.1 -0.1 0.1 c 0 0 -0.1 0.1 -0.1 0 l -0.1 0.1 c -0.1 0.1 -0.1 0.1 -0.2 0.2 c -0.2 0.4 -0.2 0.9 0.1 1.3 c 0.3 0.4 1 0.5 1.5 0.1 c -0.3 0.5 -1.2 0.7 -1.8 0.3 c -0.6 -0.4 -0.9 -1.3 -0.7 -2.1 C 24.9 9 25 8.8 25.1 8.6 l 0.1 -0.1 l 0.1 -0.1 c 0.1 -0.1 0.1 -0.1 0.2 -0.2 c 0.3 -0.3 0.7 -0.4 1.1 -0.5 c 0.8 -0.2 1.8 0.1 2.3 0.7 c 1.2 1.1 1.2 3.3 0 4.5 c -1.1 1.2 -3.1 1.5 -4.5 0.7 c -0.2 -0.1 -0.4 -0.2 -0.5 -0.4 c -0.2 -0.2 -0.2 -0.2 -0.4 -0.4 c -0.3 -0.3 -0.5 -0.6 -0.7 -0.9 c -0.4 -0.7 -0.6 -1.4 -0.6 -2.2 c 0 -0.8 0.2 -1.5 0.5 -2.2 c 0.1 -0.2 0.2 -0.3 0.3 -0.5 c 0.1 -0.2 0.3 -0.3 0.4 -0.4 l 0.2 -0.2 c 0.1 -0.1 0.2 -0.1 0.2 -0.2 C 23.9 6.2 24 6.1 24.2 6 c 1.2 -0.8 3 -0.8 4.1 0.1 C 29.4 6.9 29.9 8.4 29.6 9.6 z" stroke-linecap="round" />
</g>
<g transform="matrix(4.17 0 0 4.17 224.17 231.39)" id="surface1"  >
<path style="stroke: none; stroke-width: 1; stroke-dasharray: none; stroke-linecap: butt; stroke-dashoffset: 0; stroke-linejoin: miter; stroke-miterlimit: 4; fill: rgb(255,128,171); fill-rule: nonzero; opacity: 1;"  transform=" translate(-29.8, -31.53)" d="M 29.2 35 c -1.2 0.2 -2.6 -0.5 -3.3 -1.7 c -0.7 -1.2 -0.6 -3 0.4 -4.1 c 0.1 -0.1 0.2 -0.3 0.4 -0.4 c 0.1 -0.1 0.1 -0.1 0.2 -0.2 l 0.2 -0.1 c 0.1 -0.1 0.3 -0.2 0.5 -0.3 c 0.2 -0.1 0.3 -0.2 0.5 -0.3 c 0.7 -0.3 1.5 -0.4 2.3 -0.3 c 0.8 0.1 1.5 0.4 2.1 0.9 c 0.3 0.2 0.6 0.5 0.8 0.8 c 0.2 0.2 0.2 0.2 0.3 0.5 c 0.1 0.2 0.2 0.4 0.3 0.6 c 0.6 1.5 0.1 3.4 -1.2 4.4 c -1.3 1.1 -3.5 0.9 -4.5 -0.5 c -0.5 -0.6 -0.7 -1.6 -0.5 -2.4 c 0.1 -0.4 0.4 -0.8 0.7 -1 c 0.1 -0.1 0.1 -0.1 0.2 -0.2 l 0.1 -0.1 l 0.1 -0.1 c 0.2 -0.1 0.4 -0.2 0.6 -0.2 c 0.8 -0.2 1.6 0.3 2 0.9 c 0.4 0.7 0.1 1.5 -0.5 1.8 c 0.4 -0.5 0.4 -1.2 0 -1.5 c -0.3 -0.4 -0.9 -0.4 -1.3 -0.3 c -0.1 0 -0.2 0.1 -0.2 0.1 l -0.1 0.1 c 0 0 0 0 0 0 c 0 0 -0.1 0.1 -0.1 0.1 c -0.1 0.2 -0.2 0.4 -0.2 0.6 c 0 0.4 0.1 0.8 0.4 1 c 0.6 0.6 1.5 0.6 2.1 0.1 c 0.6 -0.5 0.9 -1.5 0.6 -2.2 c 0 -0.1 -0.1 -0.2 -0.1 -0.2 c 0 0 -0.2 -0.3 -0.2 -0.3 c -0.1 -0.2 -0.3 -0.3 -0.5 -0.5 c -0.4 -0.3 -0.8 -0.5 -1.2 -0.6 c -0.4 -0.1 -0.9 -0.1 -1.4 0.1 c -0.4 0.1 -0.8 0.4 -1.2 0.7 c -0.7 0.7 -1 1.7 -0.7 2.7 C 27 34 27.9 34.8 29.2 35 z" stroke-linecap="round" />
</g>
<g transform="matrix(4.17 0 0 4.17 260.15 199.23)" id="surface1"  >
<path style="stroke: none; stroke-width: 1; stroke-dasharray: none; stroke-linecap: butt; stroke-dashoffset: 0; stroke-linejoin: miter; stroke-miterlimit: 4; fill: rgb(255,128,171); fill-rule: nonzero; opacity: 1;"  transform=" translate(-38.44, -23.81)" d="M 35 22.9 c -0.1 -1.2 0.8 -2.6 2.1 -3.1 c 1.3 -0.6 3 -0.2 4 0.8 c 0.1 0.1 0.3 0.3 0.4 0.4 l 0.2 0.2 c 0 0.1 0.1 0.1 0.1 0.2 c 0.2 0.4 0.4 0.7 0.5 1.1 c 0.2 0.7 0.2 1.5 0 2.3 c -0.2 0.7 -0.6 1.4 -1.1 2 c -0.3 0.3 -0.6 0.5 -0.9 0.7 c -0.3 0.2 -0.3 0.2 -0.5 0.3 c -0.2 0.1 -0.4 0.2 -0.6 0.2 c -1.6 0.4 -3.4 -0.3 -4.3 -1.7 c -0.9 -1.4 -0.5 -3.6 1 -4.4 c 0.7 -0.4 1.7 -0.5 2.4 -0.2 c 0.4 0.2 0.7 0.4 0.9 0.8 c 0.1 0.1 0.1 0.2 0.2 0.3 l 0.1 0.2 l 0 0.1 c 0.1 0.2 0.1 0.4 0.2 0.6 c 0.1 0.8 -0.4 1.6 -1.1 1.9 c -0.7 0.3 -1.5 -0.1 -1.7 -0.7 c 0.4 0.5 1.1 0.5 1.5 0.2 c 0.4 -0.3 0.5 -0.8 0.4 -1.2 c 0 -0.1 -0.1 -0.2 -0.1 -0.3 l -0.1 -0.1 c 0 0 0 0 0 0 c 0 0 -0.1 -0.1 -0.1 -0.1 c -0.2 -0.1 -0.3 -0.2 -0.5 -0.3 c -0.4 -0.1 -0.8 0 -1.1 0.2 c -0.6 0.5 -0.8 1.5 -0.3 2.1 c 0.5 0.7 1.4 1 2.1 0.8 c 0.1 0 0.2 -0.1 0.3 -0.1 c 0 0 0.3 -0.2 0.3 -0.2 c 0.2 -0.1 0.4 -0.3 0.5 -0.4 c 0.3 -0.3 0.6 -0.7 0.7 -1.2 c 0.2 -0.4 0.2 -0.9 0.1 -1.4 c 0 -0.2 -0.1 -0.5 -0.2 -0.6 c 0 0 -0.1 -0.1 -0.1 -0.2 l -0.1 -0.1 c -0.1 -0.1 -0.1 -0.2 -0.2 -0.3 c -0.6 -0.8 -1.6 -1.2 -2.7 -1 C 36.3 20.8 35.4 21.7 35 22.9 z" stroke-linecap="round" />
</g>
<g transform="matrix(4.17 0 0 4.17 220 185.56)" id="surface1"  >
<path style="stroke: none; stroke-width: 1; stroke-dasharray: none; stroke-linecap: butt; stroke-dashoffset: 0; stroke-linejoin: miter; stroke-miterlimit: 4; fill: rgb(255,128,171); fill-rule: nonzero; opacity: 1;"  transform=" translate(-28.8, -20.53)" d="M 28.2 24 c -1.2 0.2 -2.6 -0.5 -3.3 -1.7 c -0.7 -1.2 -0.6 -3 0.4 -4.1 c 0.1 -0.1 0.2 -0.3 0.4 -0.4 c 0.1 -0.1 0.1 -0.1 0.2 -0.2 l 0.2 -0.1 c 0.1 -0.1 0.3 -0.2 0.5 -0.3 c 0.2 -0.1 0.3 -0.2 0.5 -0.3 c 0.7 -0.3 1.5 -0.4 2.3 -0.3 c 0.8 0.1 1.5 0.4 2.1 0.9 c 0.3 0.2 0.6 0.5 0.8 0.8 c 0.2 0.2 0.2 0.2 0.3 0.5 c 0.1 0.2 0.2 0.4 0.3 0.6 c 0.6 1.5 0.1 3.4 -1.2 4.4 c -1.3 1.1 -3.5 0.9 -4.5 -0.5 c -0.5 -0.6 -0.7 -1.6 -0.4 -2.4 c 0.1 -0.4 0.4 -0.8 0.6 -1 c 0.1 -0.1 0.1 -0.1 0.2 -0.2 l 0.1 -0.1 l 0.1 -0.1 c 0.2 -0.1 0.4 -0.2 0.6 -0.2 c 0.8 -0.2 1.6 0.3 2 0.9 c 0.4 0.7 0.1 1.5 -0.5 1.8 c 0.4 -0.5 0.4 -1.2 0 -1.5 c -0.3 -0.4 -0.9 -0.4 -1.3 -0.3 c -0.1 0 -0.2 0.1 -0.2 0.1 l -0.1 0.1 c 0 0 0 0 0 0 c 0 0 -0.1 0.1 -0.1 0.1 C 28 20.8 28 21 27.9 21.2 c 0 0.4 0.1 0.8 0.4 1 c 0.6 0.6 1.5 0.6 2.1 0.1 c 0.6 -0.5 0.9 -1.5 0.6 -2.2 c 0 -0.1 -0.1 -0.2 -0.1 -0.2 c 0 0 -0.2 -0.3 -0.2 -0.3 c -0.1 -0.2 -0.3 -0.3 -0.5 -0.5 c -0.4 -0.3 -0.8 -0.5 -1.2 -0.6 c -0.4 -0.1 -0.9 -0.1 -1.4 0.1 c -0.4 0.1 -0.8 0.4 -1.2 0.7 c -0.7 0.7 -1 1.7 -0.7 2.7 C 26 23 27 23.8 28.2 24 z" stroke-linecap="round" />
</g>
<g transform="matrix(4.17 0 0 4.17 184.39 199.01)" id="surface1"  >
<path style="stroke: none; stroke-width: 1; stroke-dasharray: none; stroke-linecap: butt; stroke-dashoffset: 0; stroke-linejoin: miter; stroke-miterlimit: 4; fill: rgb(255,128,171); fill-rule: nonzero; opacity: 1;"  transform=" translate(-20.25, -23.76)" d="M 22.3 20.9 c 1.2 0.4 2.1 1.6 2.2 3 c 0.1 1.4 -0.9 2.9 -2.2 3.5 c -0.2 0.1 -0.3 0.1 -0.5 0.2 l -0.3 0.1 c -0.1 0 -0.1 0 -0.2 0.1 c -0.4 0.1 -0.8 0.1 -1.2 0.1 c -0.8 -0.1 -1.5 -0.4 -2.1 -0.8 c -0.6 -0.4 -1.1 -1 -1.5 -1.7 c -0.2 -0.3 -0.3 -0.7 -0.4 -1.1 C 16 23.9 16 23.9 16 23.7 c 0 -0.2 0 -0.4 0 -0.6 c 0.2 -1.6 1.5 -3.1 3.1 -3.4 c 1.7 -0.4 3.5 0.9 3.8 2.5 c 0.2 0.8 -0.1 1.8 -0.7 2.3 c -0.3 0.3 -0.7 0.5 -1.1 0.6 c -0.1 0 -0.2 0.1 -0.3 0.1 l -0.2 0 l -0.1 0 c -0.2 0 -0.4 0 -0.6 -0.1 c -0.8 -0.2 -1.3 -1 -1.3 -1.7 c 0 -0.8 0.6 -1.4 1.3 -1.4 c -0.6 0.2 -0.9 0.9 -0.7 1.3 c 0.1 0.5 0.6 0.8 1 0.8 c 0.1 0 0.2 0 0.3 0 l 0.1 0 c 0 0 0 0 0.1 0 c 0.1 0 0.1 0 0.1 -0.1 c 0.2 -0.1 0.3 -0.2 0.5 -0.4 c 0.2 -0.3 0.3 -0.7 0.2 -1.1 c -0.3 -0.8 -1.1 -1.2 -1.8 -1 c -0.8 0.2 -1.4 0.9 -1.5 1.7 c 0 0.1 0 0.2 0 0.3 c 0 0 0 0.3 0 0.3 c 0 0.2 0.1 0.4 0.2 0.6 c 0.2 0.4 0.5 0.8 0.8 1.1 c 0.4 0.3 0.8 0.5 1.2 0.6 c 0.2 0 0.5 0.1 0.7 0 c 0 0 0.1 0 0.2 0 l 0.2 0 c 0.1 0 0.2 -0.1 0.4 -0.1 c 0.9 -0.3 1.7 -1.1 1.9 -2.1 C 23.7 22.9 23.3 21.7 22.3 20.9 z" stroke-linecap="round" />
</g>
<g transform="matrix(4.17 0 0 4.17 233.33 129.17)" id="surface1"  >
<path style="stroke: none; stroke-width: 1; stroke-dasharray: none; stroke-linecap: butt; stroke-dashoffset: 0; stroke-linejoin: miter; stroke-miterlimit: 4; fill: rgb(245,0,87); fill-rule: nonzero; opacity: 1;"  transform=" translate(-32, -7)" d="M 33 7 c 0 0.6 -0.4 1 -1 1 s -1 -0.4 -1 -1 s 0.4 -1 1 -1 S 33 6.4 33 7 z" stroke-linecap="round" />
</g>
<g transform="matrix(4.17 0 0 4.17 200 166.67)" id="surface1"  >
<path style="stroke: none; stroke-width: 1; stroke-dasharray: none; stroke-linecap: butt; stroke-dashoffset: 0; stroke-linejoin: miter; stroke-miterlimit: 4; fill: rgb(245,0,87); fill-rule: nonzero; opacity: 1;"  transform=" translate(-24, -16)" d="M 25 16 c 0 0.6 -0.4 1 -1 1 s -1 -0.4 -1 -1 s 0.4 -1 1 -1 S 25 15.4 25 16 z" stroke-linecap="round" />
</g>
<g transform="matrix(4.17 0 0 4.17 270.83 170.83)" id="surface1"  >
<path style="stroke: none; stroke-width: 1; stroke-dasharray: none; stroke-linecap: butt; stroke-dashoffset: 0; stroke-linejoin: miter; stroke-miterlimit: 4; fill: rgb(245,0,87); fill-rule: nonzero; opacity: 1;"  transform=" translate(-41, -17)" d="M 42 17 c 0 0.6 -0.4 1 -1 1 c -0.6 0 -1 -0.4 -1 -1 c 0 -0.6 0.4 -1 1 -1 C 41.6 16 42 16.5 42 17 z" stroke-linecap="round" />
</g>
<g transform="matrix(4.17 0 0 4.17 233.33 141.67)" id="surface1"  >
<path style="stroke: none; stroke-width: 1; stroke-dasharray: none; stroke-linecap: butt; stroke-dashoffset: 0; stroke-linejoin: miter; stroke-miterlimit: 4; fill: rgb(245,0,87); fill-rule: nonzero; opacity: 1;"  transform=" translate(-32, -10)" d="M 33 10 c 0 0.6 -0.4 1 -1 1 s -1 -0.4 -1 -1 s 0.4 -1 1 -1 S 33 9.4 33 10 z" stroke-linecap="round" />
</g>
<g transform="matrix(4.17 0 0 4.17 208.33 212.5)" id="surface1"  >
<path style="stroke: none; stroke-width: 1; stroke-dasharray: none; stroke-linecap: butt; stroke-dashoffset: 0; stroke-linejoin: miter; stroke-miterlimit: 4; fill: rgb(245,0,87); fill-rule: nonzero; opacity: 1;"  transform=" translate(-26, -27)" d="M 27 27 c 0 0.6 -0.4 1 -1 1 s -1 -0.4 -1 -1 s 0.4 -1 1 -1 S 27 26.4 27 27 z" stroke-linecap="round" />
</g>
<g transform="matrix(4.17 0 0 4.17 254.17 233.33)" id="surface1"  >
<path style="stroke: none; stroke-width: 1; stroke-dasharray: none; stroke-linecap: butt; stroke-dashoffset: 0; stroke-linejoin: miter; stroke-miterlimit: 4; fill: rgb(245,0,87); fill-rule: nonzero; opacity: 1;"  transform=" translate(-37, -32)" d="M 38 32 c 0 0.6 -0.4 1 -1 1 s -1 -0.4 -1 -1 s 0.4 -1 1 -1 S 38 31.4 38 32 z" stroke-linecap="round" />
</g>
<g transform="matrix(4.17 0 0 4.17 220.83 208.33)" id="surface1"  >
<path style="stroke: none; stroke-width: 1; stroke-dasharray: none; stroke-linecap: butt; stroke-dashoffset: 0; stroke-linejoin: miter; stroke-miterlimit: 4; fill: rgb(245,0,87); fill-rule: nonzero; opacity: 1;"  transform=" translate(-29, -26)" d="M 30 26 c 0 0.6 -0.4 1 -1 1 s -1 -0.4 -1 -1 s 0.4 -1 1 -1 S 30 25.4 30 26 z" stroke-linecap="round" />
</g>
<g transform="matrix(4.17 0 0 4.17 162.5 179.17)" id="surface1"  >
<path style="stroke: none; stroke-width: 1; stroke-dasharray: none; stroke-linecap: butt; stroke-dashoffset: 0; stroke-linejoin: miter; stroke-miterlimit: 4; fill: rgb(245,0,87); fill-rule: nonzero; opacity: 1;"  transform=" translate(-15, -19)" d="M 16 19 c 0 0.6 -0.4 1 -1 1 s -1 -0.4 -1 -1 s 0.4 -1 1 -1 S 16 18.4 16 19 z" stroke-linecap="round" />
</g>
</svg>