<?xml version="1.0" encoding="UTF-8" standalone="no" ?>
<!DOCTYPE svg PUBLIC "-//W3C//DTD SVG 1.1//EN" "http://www.w3.org/Graphics/SVG/1.1/DTD/svg11.dtd">
<svg xmlns="http://www.w3.org/2000/svg" xmlns:xlink="http://www.w3.org/1999/xlink" version="1.1" width="400" height="400" viewBox="0 0 400 400" xml:space="preserve">
<desc>Created with Fabric.js 3.6.2</desc>
<defs>
</defs>
<g transform="matrix(4.17 0 0 4.17 202.08 208.37)" id="surface1"  >
<path style="stroke: none; stroke-width: 1; stroke-dasharray: none; stroke-linecap: butt; stroke-dashoffset: 0; stroke-linejoin: miter; stroke-miterlimit: 4; fill: rgb(56,142,60); fill-rule: nonzero; opacity: 1;"  transform=" translate(-24.5, -26.01)" d="M 20 42.984375 C 20 26.007813 27.265625 11.929688 29 9 C 28.148438 11.773438 26 17 26 43.015625 Z" stroke-linecap="round" />
</g>
<g transform="matrix(4.17 0 0 4.17 229.17 212.55)" id="surface1"  >
<path style="stroke: none; stroke-width: 1; stroke-dasharray: none; stroke-linecap: butt; stroke-dashoffset: 0; stroke-linejoin: miter; stroke-miterlimit: 4; fill: rgb(56,142,60); fill-rule: nonzero; opacity: 1;"  transform=" translate(-31, -27.01)" d="M 24 42.976563 C 24 29.269531 34.964844 13.554688 38 11 C 36.316406 13.34375 30 23.289063 30 43.023438 Z" stroke-linecap="round" />
</g>
<g transform="matrix(4.17 0 0 4.17 177.08 220.83)" id="surface1"  >
<path style="stroke: none; stroke-width: 1; stroke-dasharray: none; stroke-linecap: butt; stroke-dashoffset: 0; stroke-linejoin: miter; stroke-miterlimit: 4; fill: rgb(56,142,60); fill-rule: nonzero; opacity: 1;"  transform=" translate(-18.5, -29)" d="M 19 43 C 19 26 13.367188 17.128906 12 15 C 13.765625 16.824219 25 31.015625 25 43 Z" stroke-linecap="round" />
</g>
<g transform="matrix(4.17 0 0 4.17 247.92 225)" id="surface1"  >
<path style="stroke: none; stroke-width: 1; stroke-dasharray: none; stroke-linecap: butt; stroke-dashoffset: 0; stroke-linejoin: miter; stroke-miterlimit: 4; fill: rgb(139,195,74); fill-rule: nonzero; opacity: 1;"  transform=" translate(-35.5, -30)" d="M 29 43 C 29 29.363281 40.21875 18.359375 42 17 C 40.570313 18.71875 35 28 35 43 Z" stroke-linecap="round" />
</g>
<g transform="matrix(4.17 0 0 4.17 154.17 225)" id="surface1"  >
<path style="stroke: none; stroke-width: 1; stroke-dasharray: none; stroke-linecap: butt; stroke-dashoffset: 0; stroke-linejoin: miter; stroke-miterlimit: 4; fill: rgb(139,195,74); fill-rule: nonzero; opacity: 1;"  transform=" translate(-13, -30)" d="M 14 43 C 14 27.964844 7.542969 18.671875 6 17 C 7.878906 18.300781 20 29.746094 20 43 Z" stroke-linecap="round" />
</g>
<g transform="matrix(4.17 0 0 4.17 177.08 199.98)" id="surface1"  >
<path style="stroke: none; stroke-width: 1; stroke-dasharray: none; stroke-linecap: butt; stroke-dashoffset: 0; stroke-linejoin: miter; stroke-miterlimit: 4; fill: rgb(76,175,80); fill-rule: nonzero; opacity: 1;"  transform=" translate(-18.5, -24)" d="M 19.429688 22.988281 C 19.800781 24.429688 20.097656 25.882813 20.34375 27.34375 C 22.882813 32.183594 24.996094 37.792969 25 42.992188 L 27 42.976563 C 26.75 39.421875 26.253906 35.800781 25.484375 32.292969 C 24.707031 28.777344 23.652344 25.328125 22.269531 22.027344 C 20.894531 18.726563 19.195313 15.574219 17.164063 12.675781 C 15.125 9.792969 12.796875 7.089844 10 5 C 12.457031 7.460938 14.324219 10.410156 15.878906 13.445313 C 17.421875 16.5 18.585938 19.714844 19.429688 22.988281 Z" stroke-linecap="round" />
</g>
<g transform="matrix(4.17 0 0 4.17 193.75 279.22)" id="surface1"  >
<path style="stroke: none; stroke-width: 1; stroke-dasharray: none; stroke-linecap: butt; stroke-dashoffset: 0; stroke-linejoin: miter; stroke-miterlimit: 4; fill: rgb(76,175,80); fill-rule: nonzero; opacity: 1;"  transform=" translate(-22.5, -43.01)" d="M 21 43 C 21 43.007813 21 43.015625 21 43.023438 L 24 43 Z" stroke-linecap="round" />
</g>
</svg>