<?xml version="1.0" encoding="UTF-8" standalone="no" ?>
<!DOCTYPE svg PUBLIC "-//W3C//DTD SVG 1.1//EN" "http://www.w3.org/Graphics/SVG/1.1/DTD/svg11.dtd">
<svg xmlns="http://www.w3.org/2000/svg" xmlns:xlink="http://www.w3.org/1999/xlink" version="1.1" width="400" height="400" viewBox="0 0 400 400" xml:space="preserve">
<desc>Created with Fabric.js 3.6.2</desc>
<defs>
</defs>
<g transform="matrix(4.17 0 0 4.17 250 182.29)" id="surface1"  >
<path style="stroke: none; stroke-width: 1; stroke-dasharray: none; stroke-linecap: butt; stroke-dashoffset: 0; stroke-linejoin: miter; stroke-miterlimit: 4; fill: rgb(192,202,51); fill-rule: nonzero; opacity: 1;"  transform=" translate(-36, -19.75)" d="M 37 14 l -5 3.1 c 0.4 1.1 3 8.9 4 8.9 c 1 0 2 -1 2 -1 c 2 -2 2 -9 2 -9 C 40 12 37 14 37 14 z" stroke-linecap="round" />
</g>
<g transform="matrix(4.17 0 0 4.17 185.06 211.09)" id="surface1"  >
<path style="stroke: none; stroke-width: 1; stroke-dasharray: none; stroke-linecap: butt; stroke-dashoffset: 0; stroke-linejoin: miter; stroke-miterlimit: 4; fill: rgb(205,220,57); fill-rule: nonzero; opacity: 1;"  transform=" translate(-20.42, -26.66)" d="M 8 37 c 0 0 14 1 24 -10 c 0 0 2.9 -4.5 1.4 -10.7 L 7 33 L 8 37 z" stroke-linecap="round" />
</g>
<g transform="matrix(4.17 0 0 4.17 160 235.21)" id="surface1"  >
<path style="stroke: none; stroke-width: 1; stroke-dasharray: none; stroke-linecap: butt; stroke-dashoffset: 0; stroke-linejoin: miter; stroke-miterlimit: 4; fill: rgb(175,180,43); fill-rule: nonzero; opacity: 1;"  transform=" translate(-14.4, -32.45)" d="M 14.3 28.4 l -1.8 1.1 l 1.8 7 c 0.6 -0.1 1.3 -0.2 2 -0.4 L 14.3 28.4 z" stroke-linecap="round" />
</g>
<g transform="matrix(4.17 0 0 4.17 143.96 240.83)" id="surface1"  >
<path style="stroke: none; stroke-width: 1; stroke-dasharray: none; stroke-linecap: butt; stroke-dashoffset: 0; stroke-linejoin: miter; stroke-miterlimit: 4; fill: rgb(175,180,43); fill-rule: nonzero; opacity: 1;"  transform=" translate(-10.55, -33.8)" d="M 10.2 37 c 0.6 0 1.3 -0.1 2 -0.2 l -1.5 -6.2 l -1.8 1.1 L 10.2 37 z" stroke-linecap="round" />
</g>
<g transform="matrix(4.17 0 0 4.17 205.42 212.29)" id="surface1"  >
<path style="stroke: none; stroke-width: 1; stroke-dasharray: none; stroke-linecap: butt; stroke-dashoffset: 0; stroke-linejoin: miter; stroke-miterlimit: 4; fill: rgb(175,180,43); fill-rule: nonzero; opacity: 1;"  transform=" translate(-25.3, -26.95)" d="M 25 21.6 l -1.8 1.1 l 2.4 9.6 c 0.6 -0.4 1.2 -0.8 1.8 -1.2 L 25 21.6 z" stroke-linecap="round" />
</g>
<g transform="matrix(4.17 0 0 4.17 190.63 221.04)" id="surface1"  >
<path style="stroke: none; stroke-width: 1; stroke-dasharray: none; stroke-linecap: butt; stroke-dashoffset: 0; stroke-linejoin: miter; stroke-miterlimit: 4; fill: rgb(175,180,43); fill-rule: nonzero; opacity: 1;"  transform=" translate(-21.75, -29.05)" d="M 21.4 23.9 L 19.7 25 l 2.3 9.2 c 0.6 -0.3 1.2 -0.6 1.8 -0.9 L 21.4 23.9 z" stroke-linecap="round" />
</g>
<g transform="matrix(4.17 0 0 4.17 175.42 228.54)" id="surface1"  >
<path style="stroke: none; stroke-width: 1; stroke-dasharray: none; stroke-linecap: butt; stroke-dashoffset: 0; stroke-linejoin: miter; stroke-miterlimit: 4; fill: rgb(175,180,43); fill-rule: nonzero; opacity: 1;"  transform=" translate(-18.1, -30.85)" d="M 17.9 26.1 l -1.8 1.1 l 2.1 8.4 c 0.6 -0.2 1.3 -0.4 1.9 -0.6 L 17.9 26.1 z" stroke-linecap="round" />
</g>
<g transform="matrix(4.17 0 0 4.17 254.17 175)" id="surface1"  >
<path style="stroke: none; stroke-width: 1; stroke-dasharray: none; stroke-linecap: butt; stroke-dashoffset: 0; stroke-linejoin: miter; stroke-miterlimit: 4; fill: rgb(109,76,65); fill-rule: nonzero; opacity: 1;"  transform=" translate(-37, -18)" d="M 38 18 c 0 0.6 -0.4 1 -1 1 s -1 -0.4 -1 -1 s 0.4 -1 1 -1 S 38 17.4 38 18 z" stroke-linecap="round" />
</g>
<g transform="matrix(4.17 0 0 4.17 276.5 155.49)" id="surface1"  >
<path style="stroke: none; stroke-width: 1; stroke-dasharray: none; stroke-linecap: butt; stroke-dashoffset: 0; stroke-linejoin: miter; stroke-miterlimit: 4; fill: rgb(158,157,36); fill-rule: nonzero; opacity: 1;"  transform=" translate(-42.36, -13.32)" d="M 44.3 10.1 c -0.5 -0.2 -1.1 0.1 -1.3 0.6 c -0.5 1.6 -2.2 2.9 -3.3 3.7 c 0.2 0.4 0.3 0.9 0.3 1.6 c 0 0 0 0.2 0 0.6 c 1.2 -0.7 4.1 -2.6 5 -5.3 C 45.1 10.8 44.8 10.2 44.3 10.1 z" stroke-linecap="round" />
</g>
<g transform="matrix(4.17 0 0 4.17 226.52 195.83)" id="surface1"  >
<path style="stroke: none; stroke-width: 1; stroke-dasharray: none; stroke-linecap: butt; stroke-dashoffset: 0; stroke-linejoin: miter; stroke-miterlimit: 4; fill: rgb(158,157,36); fill-rule: nonzero; opacity: 1;"  transform=" translate(-30.37, -23)" d="M 33.4 16.3 l -6.5 4.1 l 2.3 9.3 c 1 -0.8 1.9 -1.7 2.9 -2.7 C 32 27 34.9 22.5 33.4 16.3 z" stroke-linecap="round" />
</g>
<g transform="matrix(4.17 0 0 4.17 208.33 221.25)" id="surface1"  >
<path style="stroke: none; stroke-width: 1; stroke-dasharray: none; stroke-linecap: butt; stroke-dashoffset: 0; stroke-linejoin: miter; stroke-miterlimit: 4; fill: rgb(158,157,36); fill-rule: nonzero; opacity: 1;"  transform=" translate(-26, -29.1)" d="M 22 34.2 c 2.7 -1.2 5.4 -2.8 8 -5.2 v -5 l -8 6 V 34.2 z" stroke-linecap="round" />
</g>
<g transform="matrix(4.17 0 0 4.17 266.32 145.83)" id="surface1"  >
<path style="stroke: none; stroke-width: 1; stroke-dasharray: none; stroke-linecap: butt; stroke-dashoffset: 0; stroke-linejoin: miter; stroke-miterlimit: 4; fill: rgb(158,157,36); fill-rule: nonzero; opacity: 1;"  transform=" translate(-39.92, -11)" d="M 39 15 c -0.2 0 -0.4 -0.1 -0.6 -0.2 c -0.5 -0.3 -0.6 -0.9 -0.3 -1.4 c 0 0 1.8 -2.8 1.8 -5.4 c 0 -0.6 0.4 -1 1 -1 s 1 0.4 1 1 c 0 3.3 -2.1 6.4 -2.2 6.6 C 39.6 14.8 39.3 15 39 15 z" stroke-linecap="round" />
</g>
<g transform="matrix(4.17 0 0 4.17 125 247.71)" id="surface1"  >
<path style="stroke: none; stroke-width: 1; stroke-dasharray: none; stroke-linecap: butt; stroke-dashoffset: 0; stroke-linejoin: miter; stroke-miterlimit: 4; fill: rgb(130,119,23); fill-rule: nonzero; opacity: 1;"  transform=" translate(-6, -35.45)" d="M 4 36 c 0 0 1 1 4 1 l -0.8 -3.1 L 4 36 z" stroke-linecap="round" />
</g>
<g transform="matrix(4.17 0 0 4.17 254.79 198.13)" id="surface1"  >
<path style="stroke: none; stroke-width: 1; stroke-dasharray: none; stroke-linecap: butt; stroke-dashoffset: 0; stroke-linejoin: miter; stroke-miterlimit: 4; fill: rgb(130,119,23); fill-rule: nonzero; opacity: 1;"  transform=" translate(-37.15, -23.55)" d="M 34.8 24.2 c 0.5 1 0.9 1.8 1.2 1.8 c 1 0 2 -1 2 -1 c 0.8 -0.8 1.5 -3.9 1.5 -3.9 C 36.8 24.1 34.8 24.2 34.8 24.2 z" stroke-linecap="round" />
</g>
<g transform="matrix(4.17 0 0 4.17 169.65 205.18)" id="surface1"  >
<path style="stroke: none; stroke-width: 1; stroke-dasharray: none; stroke-linecap: butt; stroke-dashoffset: 0; stroke-linejoin: miter; stroke-miterlimit: 4; fill: rgb(130,119,23); fill-rule: nonzero; opacity: 1;"  transform=" translate(-16.71, -25.24)" d="M 23.4 30 L 10.7 16.3 c -0.4 -0.4 -1 -0.4 -1.4 0 c -0.4 0.4 -0.4 1 0 1.4 L 20 33.6 c 0.1 0.1 0.2 0.3 0.4 0.4 c 1.1 0.8 2.7 0.6 3.5 -0.5 C 24.8 32.4 24.5 30.8 23.4 30 z" stroke-linecap="round" />
</g>
<g transform="matrix(4.17 0 0 4.17 239.64 239.64)" id="surface1"  >
<path style="stroke: none; stroke-width: 1; stroke-dasharray: none; stroke-linecap: butt; stroke-dashoffset: 0; stroke-linejoin: miter; stroke-miterlimit: 4; fill: rgb(130,119,23); fill-rule: nonzero; opacity: 1;"  transform=" translate(-33.51, -33.51)" d="M 37 39 h -2 c -0.5 0 -0.9 -0.4 -1 -0.8 l -0.9 -5.6 l -3.7 -2.8 c -0.4 -0.3 -0.5 -1 -0.2 -1.4 c 0.3 -0.4 1 -0.5 1.4 -0.2 l 4 3 c 0.2 0.2 0.3 0.4 0.4 0.6 l 0.9 5.2 H 37 c 0.6 0 1 0.4 1 1 S 37.6 39 37 39 z" stroke-linecap="round" />
</g>
<g transform="matrix(4.17 0 0 4.17 206.47 243.61)" id="surface1"  >
<path style="stroke: none; stroke-width: 1; stroke-dasharray: none; stroke-linecap: butt; stroke-dashoffset: 0; stroke-linejoin: miter; stroke-miterlimit: 4; fill: rgb(130,119,23); fill-rule: nonzero; opacity: 1;"  transform=" translate(-25.55, -34.47)" d="M 23 40 c -0.4 0 -0.8 -0.3 -0.9 -0.7 c -0.2 -0.5 0.1 -1.1 0.6 -1.3 l 2.3 -0.8 V 33 c 0 -0.2 0.1 -0.4 0.2 -0.6 l 2 -3 c 0.3 -0.5 0.9 -0.6 1.4 -0.3 c 0.5 0.3 0.6 0.9 0.3 1.4 L 27 33.3 V 38 c 0 0.4 -0.3 0.8 -0.7 0.9 l -3 1 C 23.2 40 23.1 40 23 40 z" stroke-linecap="round" />
</g>
<g transform="matrix(4.17 0 0 4.17 154 216.84)" id="surface1"  >
<path style="stroke: none; stroke-width: 1; stroke-dasharray: none; stroke-linecap: butt; stroke-dashoffset: 0; stroke-linejoin: miter; stroke-miterlimit: 4; fill: rgb(130,119,23); fill-rule: nonzero; opacity: 1;"  transform=" translate(-12.96, -28.04)" d="M 16 40 h -3 c -0.6 0 -1 -0.4 -1 -1 s 0.4 -1 1 -1 h 1.7 L 9 17.3 c -0.1 -0.5 0.2 -1.1 0.7 -1.2 c 0.5 -0.1 1.1 0.2 1.2 0.7 l 6 22 c 0.1 0.3 0 0.6 -0.2 0.9 C 16.6 39.9 16.3 40 16 40 z" stroke-linecap="round" />
</g>
</svg>