<?xml version="1.0" encoding="UTF-8" standalone="no" ?>
<!DOCTYPE svg PUBLIC "-//W3C//DTD SVG 1.1//EN" "http://www.w3.org/Graphics/SVG/1.1/DTD/svg11.dtd">
<svg xmlns="http://www.w3.org/2000/svg" xmlns:xlink="http://www.w3.org/1999/xlink" version="1.1" width="400" height="400" viewBox="0 0 400 400" xml:space="preserve">
<desc>Created with Fabric.js 3.6.2</desc>
<defs>
</defs>
<g transform="matrix(2.97 -5.97 5.97 2.97 280.76 236.28)" id="Layer_1"  >
<ellipse style="stroke: none; stroke-width: 1; stroke-dasharray: none; stroke-linecap: butt; stroke-dashoffset: 0; stroke-linejoin: miter; stroke-miterlimit: 4; fill: rgb(151,194,247); fill-rule: nonzero; opacity: 1;"  cx="0" cy="0" rx="2.601" ry="1.504" />
</g>
<g transform="matrix(6.67 0 0 6.67 131.18 180.26)" id="Layer_1"  >
<path style="stroke: none; stroke-width: 1; stroke-dasharray: none; stroke-linecap: butt; stroke-dashoffset: 0; stroke-linejoin: miter; stroke-miterlimit: 4; fill: rgb(161,79,76); fill-rule: nonzero; opacity: 1;"  transform=" translate(-4.68, -12.04)" d="M 8.003 9.16 c 0 0 -2.313 -4.042 -3.938 3.583 c 0 0 -0.125 5.458 -2.667 4.708 c 0 0 -1.667 -1.417 0.167 -2.833 l 0.5 0.833 l 0.167 0.667 l 0.333 -0.25 l 0.292 -1.625 L 3.733 9.41 c 0 0 0.375 -2.292 1.792 -2.792 c 0 0 2.917 -0.5 3.125 1.375 L 8.003 9.16 z" stroke-linecap="round" />
</g>
<g transform="matrix(6.67 0 0 6.67 153.35 252.23)" id="Layer_1"  >
<path style="stroke: none; stroke-width: 1; stroke-dasharray: none; stroke-linecap: butt; stroke-dashoffset: 0; stroke-linejoin: miter; stroke-miterlimit: 4; fill: rgb(223,77,96); fill-rule: nonzero; opacity: 1;"  transform=" translate(-8, -22.83)" d="M 1.774 19.484 c 0 0 4.875 5.003 13.208 5.215 l -0.09 1.337 c 0 0 -6.66 1.535 -13.869 -5.233 L 1.774 19.484 z" stroke-linecap="round" />
</g>
<g transform="matrix(6.67 0 0 6.67 178.5 188.7)" id="Layer_1"  >
<path style="stroke: none; stroke-width: 1; stroke-dasharray: none; stroke-linecap: butt; stroke-dashoffset: 0; stroke-linejoin: miter; stroke-miterlimit: 4; fill: rgb(247,138,104); fill-rule: nonzero; opacity: 1;"  transform=" translate(-11.77, -13.31)" d="M 7.483 10.493 c 0 0 4.167 3.333 9.417 3.75 l -0.292 1.875 c 0 0 -7.75 -2.083 -9.958 -4.167 L 7.483 10.493 z" stroke-linecap="round" />
</g>
<g transform="matrix(6.67 0 0 6.67 189.65 132.82)" id="Layer_1"  >
<path style="stroke: none; stroke-width: 1; stroke-dasharray: none; stroke-linecap: butt; stroke-dashoffset: 0; stroke-linejoin: miter; stroke-miterlimit: 4; fill: rgb(163,135,94); fill-rule: nonzero; opacity: 1;"  transform=" translate(-13.45, -4.92)" d="M 12.844 8.296 l -0.361 -4.844 c 0 0 0.594 -1.625 1.906 0 l -0.25 4.125 l 1.219 -1.063 V 2.858 c 0 0 -1.344 -3.625 -3.375 -1.031 c 0 0 -0.582 0.438 -0.416 4.063 l 0.197 2.719 l 0.719 0.344 L 12.844 8.296 z" stroke-linecap="round" />
</g>
<g transform="matrix(6.67 0 0 6.67 183.21 171.62)" id="Layer_1"  >
<path style="stroke: none; stroke-width: 1; stroke-dasharray: none; stroke-linecap: butt; stroke-dashoffset: 0; stroke-linejoin: miter; stroke-miterlimit: 4; fill: rgb(163,135,94); fill-rule: nonzero; opacity: 1;"  transform=" translate(-12.48, -10.74)" d="M 9.524 7.243 l 7.958 3.046 l -0.583 3.954 c 0 0 -8.25 -2.125 -9.417 -3.75 L 9.524 7.243 z" stroke-linecap="round" />
</g>
<g transform="matrix(6.67 0 0 6.67 162.24 222.17)" id="Layer_1"  >
<path style="stroke: none; stroke-width: 1; stroke-dasharray: none; stroke-linecap: butt; stroke-dashoffset: 0; stroke-linejoin: miter; stroke-miterlimit: 4; fill: rgb(151,194,247); fill-rule: nonzero; opacity: 1;"  transform=" translate(-9.34, -18.33)" d="M 6.649 11.952 c 0 0 6.25 4.125 9.958 3.917 l -0.458 3.676 l -0.64 0.641 l -1.217 2.075 l 0.69 1.643 v 0.795 c 0 0 -9.125 0.025 -12.917 -5.215 L 6.649 11.952 z" stroke-linecap="round" />
</g>
<g transform="matrix(6.67 0 0 6.67 222.84 238.68)" id="Layer_1"  >
<path style="stroke: none; stroke-width: 1; stroke-dasharray: none; stroke-linecap: butt; stroke-dashoffset: 0; stroke-linejoin: miter; stroke-miterlimit: 4; fill: rgb(119,196,211); fill-rule: nonzero; opacity: 1;"  transform=" translate(-18.43, -20.8)" d="M 14.983 20.37 l 7.577 -2.668 l -0.326 2.557 l -7.001 3.644 C 15.233 23.903 13.295 21.726 14.983 20.37 z" stroke-linecap="round" />
</g>
<g transform="matrix(6.67 0 0 6.67 204.22 154.54)" id="Layer_1"  >
<path style="stroke: none; stroke-width: 1; stroke-dasharray: none; stroke-linecap: butt; stroke-dashoffset: 0; stroke-linejoin: miter; stroke-miterlimit: 4; fill: rgb(119,196,211); fill-rule: nonzero; opacity: 1;"  transform=" translate(-15.63, -8.18)" d="M 13.274 8.368 l 2.958 -2.083 c 0 0 3.292 2.625 0.875 3.792 L 13.274 8.368 z" stroke-linecap="round" />
</g>
<g transform="matrix(6.67 0 0 6.67 268.24 229.89)" id="Layer_1"  >
<path style="stroke: none; stroke-width: 1; stroke-dasharray: none; stroke-linecap: butt; stroke-dashoffset: 0; stroke-linejoin: miter; stroke-miterlimit: 4; fill: rgb(119,196,211); fill-rule: nonzero; opacity: 1;"  transform=" translate(-25.24, -19.48)" d="M 27.912 17.733 c 0 0 -3.71 -2.936 -5.335 1.126 c -0.063 0.218 -0.075 2.615 2.447 3.401 C 25.023 22.26 27.007 17.765 27.912 17.733 z" stroke-linecap="round" />
</g>
<g transform="matrix(6.67 0 0 6.67 181.37 168.6)" id="Layer_1"  >
<path style="stroke: none; stroke-width: 1; stroke-dasharray: none; stroke-linecap: butt; stroke-dashoffset: 0; stroke-linejoin: miter; stroke-miterlimit: 4; fill: rgb(0,0,0); fill-rule: nonzero; opacity: 1;"  transform=" translate(-12.21, -10.29)" d="M 11.567 10.284 c -0.002 0.317 0.282 0.577 0.633 0.581 c 0.002 0 0.005 0 0.007 0 c 0.354 0 0.633 -0.249 0.637 -0.569 c 0 0 0 0 0 0 c 0.002 -0.318 -0.282 -0.578 -0.633 -0.582 C 11.86 9.711 11.57 9.966 11.567 10.284 z" stroke-linecap="round" />
</g>
<g transform="matrix(6.67 0 0 6.67 199.28 190.42)" id="Layer_1"  >
<path style="stroke: none; stroke-width: 1; stroke-dasharray: none; stroke-linecap: butt; stroke-dashoffset: 0; stroke-linejoin: miter; stroke-miterlimit: 4; fill: rgb(0,0,0); fill-rule: nonzero; opacity: 1;"  transform=" translate(-14.89, -13.56)" d="M 23.702 21.986 l 1.826 1.094 c 0.001 0.001 0.002 0.002 0.003 0.003 c 0.002 0.001 0.003 0.001 0.005 0.002 l 0.102 0.061 c 0.039 0.024 0.082 0.028 0.125 0.035 c 0.012 0.003 0.024 0.007 0.036 0.01 c 0.006 0 0.012 0.005 0.019 0.005 c 0.003 0 0.005 -0.002 0.007 -0.002 c 0.075 0.016 0.151 0.029 0.231 0.029 c 0.789 0 1.799 -0.781 2.562 -2.054 c 0.421 -0.701 0.691 -1.441 0.764 -2.084 c 0.065 -0.582 -0.044 -1.038 -0.3 -1.333 c -0.029 -0.056 -0.068 -0.108 -0.126 -0.142 l -0.104 -0.062 c -0.001 -0.001 -0.001 -0.001 -0.002 -0.002 c -0.001 -0.001 -0.002 -0.001 -0.003 -0.001 l -1.826 -1.095 c -1.293 -0.777 -2.914 -0.528 -3.937 0.496 l -6.615 2.419 l 0.888 -5.061 c 0 -0.001 0.001 -0.001 0.001 -0.002 c 0 -0.001 0 -0.002 0 -0.003 l 0.716 -4.082 c 0.003 -0.018 -0.009 -0.034 -0.009 -0.052 c 0.508 -1.616 0.001 -3.352 -1.315 -4.432 c -0.006 -0.01 -0.001 -0.023 -0.008 -0.032 c -0.02 -0.026 -0.053 -0.027 -0.078 -0.046 c -0.001 -0.001 -0.003 -0.003 -0.004 -0.004 c -0.001 -0.001 -0.003 0 -0.004 -0.001 c -0.072 -0.052 -0.146 -0.073 -0.232 -0.063 c -0.022 0.001 -0.038 0.01 -0.06 0.015 c -0.038 0.011 -0.079 0.004 -0.113 0.029 l -0.714 0.534 c 0.135 -0.996 0.245 -2.234 0.288 -2.947 c 0.037 -0.614 -0.28 -1.394 -0.789 -1.939 c -0.402 -0.431 -0.884 -0.671 -1.337 -0.675 c -0.567 -0.041 -1.092 0.148 -1.517 0.541 c -0.685 0.633 -1.003 1.683 -1.009 2.409 l 0.163 3.789 L 9.701 6.715 c -0.157 -0.06 -0.333 0 -0.422 0.143 L 8.944 7.396 c -0.408 -0.656 -1.055 -1.11 -1.836 -1.247 C 6.01 5.956 4.889 6.437 4.1 7.435 c -1.237 1.564 -1.542 6.639 -1.551 7.811 c -0.002 0.301 -0.227 0.498 -0.239 0.531 c -0.001 -0.001 -0.074 -0.114 -0.011 -0.508 c 0.067 -0.42 -0.231 -0.857 -0.652 -0.953 c -0.37 -0.084 -0.855 0.097 -1.085 0.869 c -0.381 1.28 -0.077 1.935 0.245 2.258 c 0.249 0.25 0.585 0.38 0.961 0.38 c 0.168 0 0.345 -0.026 0.526 -0.079 c 0.11 -0.032 0.208 -0.094 0.312 -0.143 l -1.877 3.022 c -0.102 0.164 -0.052 0.38 0.113 0.481 c 0.003 0.002 0.006 0.001 0.009 0.003 c 1.457 1.565 3.818 3.048 6.506 4.074 c 2.288 0.873 4.625 1.347 6.583 1.347 c 0.354 0 0.697 -0.016 1.024 -0.047 c 0.163 -0.016 0.283 -0.143 0.306 -0.298 c 0 -0.003 0.003 -0.004 0.004 -0.006 l 0.375 -2.135 l 6.62 -3.935 C 22.487 20.865 22.973 21.55 23.702 21.986 z M 15.265 23.587 c -0.582 -0.836 -0.687 -2.146 0.048 -2.913 l 7.068 -2.585 c -0.201 0.463 -0.299 0.95 -0.276 1.432 L 15.265 23.587 z M 28.651 19.161 c -0.062 0.545 -0.299 1.185 -0.668 1.803 c -0.791 1.32 -1.78 1.866 -2.125 1.673 l -0.004 -0.003 c -0.335 -0.206 -0.317 -1.342 0.474 -2.663 c 0.687 -1.146 1.526 -1.713 1.958 -1.713 c 0.066 0 0.122 0.014 0.167 0.04 l 0.003 0.002 c 0.046 0.028 0.083 0.076 0.115 0.136 c -0.047 -0.056 -0.116 -0.093 -0.194 -0.1 c -0.157 -0.013 -0.296 0.104 -0.309 0.261 c -0.013 0.157 0.104 0.296 0.261 0.309 c 0.157 0.013 0.296 -0.104 0.309 -0.261 c 0.006 -0.076 -0.02 -0.146 -0.065 -0.202 C 28.655 18.601 28.686 18.853 28.651 19.161 z M 26.626 17.203 l 0.931 0.558 c -0.623 0.304 -1.287 0.947 -1.828 1.851 c -0.542 0.903 -0.796 1.793 -0.771 2.486 l -0.932 -0.558 c -0.576 -0.346 -0.984 -0.897 -1.148 -1.555 c -0.165 -0.657 -0.065 -1.337 0.279 -1.913 c 0.089 -0.149 0.192 -0.284 0.305 -0.408 c 0.001 0 0.001 -0.001 0.001 -0.002 C 24.259 16.798 25.578 16.578 26.626 17.203 z M 14.986 20.047 c -0.047 0.017 -0.088 0.044 -0.122 0.078 c 0 0 -0.001 0 -0.001 0.001 c -1.155 1.121 -0.91 3.064 0.03 4.129 l -0.013 0.072 c -1.96 0.066 -4.314 -0.372 -6.692 -1.279 c -2.362 -0.902 -4.485 -2.183 -5.885 -3.536 l 4.484 -7.219 c 1.357 1.013 3.015 1.917 4.845 2.616 c 1.578 0.602 3.187 1.011 4.689 1.208 l -0.645 3.679 L 14.986 20.047 z M 7.54 11.08 c 1.316 0.946 2.897 1.792 4.618 2.449 c 1.477 0.564 2.992 0.96 4.411 1.17 l -0.128 0.728 c -1.457 -0.188 -3.023 -0.585 -4.56 -1.172 c -1.792 -0.684 -3.411 -1.568 -4.725 -2.557 L 7.54 11.08 z M 17.442 9.837 l -3.624 -1.384 l 2.569 -1.924 C 17.306 7.361 17.709 8.636 17.442 9.837 z M 13.676 7.685 L 13.027 8.17 l -0.167 -4.33 c 0.003 -0.303 0.297 -0.808 0.471 -0.808 c 0.091 -0.001 0.254 0.085 0.424 0.273 C 13.924 3.493 14 3.678 14.001 3.724 l -0.326 3.95 C 13.675 7.677 13.676 7.681 13.676 7.685 z M 12.623 1.809 c 0.288 -0.267 0.615 -0.381 1.015 -0.355 c 0.28 0.002 0.583 0.164 0.853 0.453 c 0.375 0.401 0.628 0.999 0.602 1.42 c -0.053 0.889 -0.212 2.595 -0.391 3.59 l -0.279 0.209 l 0.277 -3.371 c 0.002 -0.279 -0.157 -0.623 -0.425 -0.919 c -0.287 -0.317 -0.628 -0.5 -0.936 -0.503 c -0.002 0 -0.005 0 -0.008 0 c -0.717 0 -1.165 0.97 -1.17 1.518 l 0.211 5.474 c 0 0.011 0.011 0.017 0.013 0.028 c 0.006 0.141 0.096 0.27 0.238 0.317 c 0.365 0.12 0.608 0.387 0.605 0.666 c -0.001 0.177 -0.098 0.347 -0.271 0.48 c -0.197 0.15 -0.428 0.24 -0.758 0.233 c -0.285 -0.002 -0.56 -0.092 -0.753 -0.247 c -0.171 -0.137 -0.265 -0.309 -0.263 -0.485 c 0.002 -0.288 0.261 -0.554 0.644 -0.664 c 0.113 -0.032 0.192 -0.119 0.228 -0.223 c 0.002 -0.006 0.004 -0.012 0.006 -0.019 c 0.009 -0.029 0.014 -0.058 0.014 -0.09 C 12.075 9.311 12.08 9.3 12.08 9.288 l -0.241 -5.596 C 11.843 3.241 12.059 2.331 12.623 1.809 z M 9.686 7.625 l 1.646 0.629 c 0.001 0 0.002 0 0.003 0 l 0.036 0.843 c -0.53 0.245 -0.884 0.698 -0.889 1.214 c -0.003 0.391 0.189 0.77 0.527 1.04 c 0.318 0.253 0.739 0.395 1.184 0.399 c 0.006 0 0.013 0 0.019 0 c 0.438 0 0.853 -0.134 1.17 -0.378 c 0.349 -0.267 0.542 -0.633 0.546 -1.029 c 0.005 -0.521 -0.334 -0.975 -0.864 -1.23 l -0.008 -0.201 l 4.244 1.621 l -0.61 3.477 c -1.375 -0.202 -2.845 -0.586 -4.282 -1.135 c -1.682 -0.642 -3.224 -1.468 -4.498 -2.39 L 9.686 7.625 z M 2.062 17.224 c -0.329 0.097 -0.619 0.052 -0.794 -0.123 c -0.262 -0.264 -0.288 -0.833 -0.07 -1.564 c 0.086 -0.289 0.199 -0.403 0.259 -0.386 c 0.062 0.014 0.125 0.102 0.116 0.159 c -0.093 0.576 0 0.971 0.278 1.174 c 0.197 0.146 0.463 0.157 0.711 0.033 c 0.38 -0.19 0.648 -0.648 0.652 -1.113 c 0.015 -1.915 0.454 -6.185 1.399 -7.382 C 5.25 7.217 6.103 6.839 6.952 6.991 c 0.7 0.123 1.252 0.594 1.524 1.256 L 8.204 8.685 c -0.258 -0.494 -0.663 -0.84 -1.17 -0.932 C 6.168 7.593 5.28 8.152 4.66 9.243 c -0.499 0.878 -0.723 2.447 -0.96 4.107 c -0.123 0.857 -0.249 1.742 -0.414 2.502 C 3.124 16.6 2.555 17.08 2.062 17.224 z M 4.393 13.45 c 0.218 -1.523 0.443 -3.098 0.876 -3.861 c 0.459 -0.807 1.082 -1.244 1.64 -1.148 c 0.412 0.075 0.712 0.447 0.83 0.992 l -1.329 2.14 l -0.001 0.001 c -0.001 0.001 0 0.002 -0.001 0.002 l -2.307 3.714 C 4.208 14.691 4.304 14.07 4.393 13.45 z M 7.572 24.679 c -2.526 -0.964 -4.736 -2.335 -6.13 -3.782 l 0.484 -0.779 c 1.478 1.393 3.589 2.657 6.013 3.583 c 2.3 0.878 4.6 1.348 6.564 1.348 c 0.086 0 0.168 -0.006 0.253 -0.008 l -0.159 0.909 C 12.603 26.088 10.065 25.631 7.572 24.679 z" stroke-linecap="round" />
</g>
<g transform="matrix(0.55 -6.64 6.64 0.55 277.98 237.67)" id="Layer_1"  >
<ellipse style="stroke: none; stroke-width: 1; stroke-dasharray: none; stroke-linecap: butt; stroke-dashoffset: 0; stroke-linejoin: miter; stroke-miterlimit: 4; fill: rgb(0,0,0); fill-rule: nonzero; opacity: 1;"  cx="0" cy="0" rx="0.286" ry="0.286" />
</g>
<g transform="matrix(0.55 -6.64 6.64 0.55 278.34 233.27)" id="Layer_1"  >
<ellipse style="stroke: none; stroke-width: 1; stroke-dasharray: none; stroke-linecap: butt; stroke-dashoffset: 0; stroke-linejoin: miter; stroke-miterlimit: 4; fill: rgb(0,0,0); fill-rule: nonzero; opacity: 1;"  cx="0" cy="0" rx="0.286" ry="0.286" />
</g>
<g transform="matrix(0.55 -6.64 6.64 0.55 281.71 228.39)" id="Layer_1"  >
<ellipse style="stroke: none; stroke-width: 1; stroke-dasharray: none; stroke-linecap: butt; stroke-dashoffset: 0; stroke-linejoin: miter; stroke-miterlimit: 4; fill: rgb(0,0,0); fill-rule: nonzero; opacity: 1;"  cx="0" cy="0" rx="0.286" ry="0.286" />
</g>
<g transform="matrix(0.55 -6.64 6.64 0.55 285.07 225.73)" id="Layer_1"  >
<ellipse style="stroke: none; stroke-width: 1; stroke-dasharray: none; stroke-linecap: butt; stroke-dashoffset: 0; stroke-linejoin: miter; stroke-miterlimit: 4; fill: rgb(0,0,0); fill-rule: nonzero; opacity: 1;"  cx="0" cy="0" rx="0.286" ry="0.286" />
</g>
<g transform="matrix(0.55 -6.64 6.64 0.55 287.99 230.61)" id="Layer_1"  >
<ellipse style="stroke: none; stroke-width: 1; stroke-dasharray: none; stroke-linecap: butt; stroke-dashoffset: 0; stroke-linejoin: miter; stroke-miterlimit: 4; fill: rgb(0,0,0); fill-rule: nonzero; opacity: 1;"  cx="0" cy="0" rx="0.286" ry="0.286" />
</g>
<g transform="matrix(0.55 -6.64 6.64 0.55 282.98 232.66)" id="Layer_1"  >
<ellipse style="stroke: none; stroke-width: 1; stroke-dasharray: none; stroke-linecap: butt; stroke-dashoffset: 0; stroke-linejoin: miter; stroke-miterlimit: 4; fill: rgb(0,0,0); fill-rule: nonzero; opacity: 1;"  cx="0" cy="0" rx="0.286" ry="0.286" />
</g>
<g transform="matrix(0.55 -6.64 6.64 0.55 285.86 235.81)" id="Layer_1"  >
<ellipse style="stroke: none; stroke-width: 1; stroke-dasharray: none; stroke-linecap: butt; stroke-dashoffset: 0; stroke-linejoin: miter; stroke-miterlimit: 4; fill: rgb(0,0,0); fill-rule: nonzero; opacity: 1;"  cx="0" cy="0" rx="0.286" ry="0.286" />
</g>
<g transform="matrix(0.55 -6.64 6.64 0.55 282.27 241.26)" id="Layer_1"  >
<ellipse style="stroke: none; stroke-width: 1; stroke-dasharray: none; stroke-linecap: butt; stroke-dashoffset: 0; stroke-linejoin: miter; stroke-miterlimit: 4; fill: rgb(0,0,0); fill-rule: nonzero; opacity: 1;"  cx="0" cy="0" rx="0.286" ry="0.286" />
</g>
<g transform="matrix(0.55 -6.64 6.64 0.55 278.36 245.69)" id="Layer_1"  >
<ellipse style="stroke: none; stroke-width: 1; stroke-dasharray: none; stroke-linecap: butt; stroke-dashoffset: 0; stroke-linejoin: miter; stroke-miterlimit: 4; fill: rgb(0,0,0); fill-rule: nonzero; opacity: 1;"  cx="0" cy="0" rx="0.286" ry="0.286" />
</g>
<g transform="matrix(0.55 -6.64 6.64 0.55 273.42 246.49)" id="Layer_1"  >
<ellipse style="stroke: none; stroke-width: 1; stroke-dasharray: none; stroke-linecap: butt; stroke-dashoffset: 0; stroke-linejoin: miter; stroke-miterlimit: 4; fill: rgb(0,0,0); fill-rule: nonzero; opacity: 1;"  cx="0" cy="0" rx="0.286" ry="0.286" />
</g>
<g transform="matrix(0.55 -6.64 6.64 0.55 274.44 241.21)" id="Layer_1"  >
<ellipse style="stroke: none; stroke-width: 1; stroke-dasharray: none; stroke-linecap: butt; stroke-dashoffset: 0; stroke-linejoin: miter; stroke-miterlimit: 4; fill: rgb(0,0,0); fill-rule: nonzero; opacity: 1;"  cx="0" cy="0" rx="0.286" ry="0.286" />
</g>
<g transform="matrix(6.67 0 0 6.67 266.82 264.66)" id="Layer_1"  >
<path style="stroke: none; stroke-width: 1; stroke-dasharray: none; stroke-linecap: butt; stroke-dashoffset: 0; stroke-linejoin: miter; stroke-miterlimit: 4; fill: rgb(119,196,211); fill-rule: nonzero; opacity: 1;"  transform=" translate(-25.02, -24.7)" d="M 25.296 23.923 c -0.182 -0.065 -0.382 0.033 -0.446 0.214 l -0.313 0.891 c -0.064 0.183 0.031 0.382 0.214 0.446 c 0.038 0.014 0.078 0.02 0.116 0.02 c 0.145 0 0.279 -0.09 0.33 -0.233 l 0.313 -0.891 C 25.574 24.187 25.479 23.988 25.296 23.923 z" stroke-linecap="round" />
</g>
<g transform="matrix(6.67 0 0 6.67 294.06 272.15)" id="Layer_1"  >
<path style="stroke: none; stroke-width: 1; stroke-dasharray: none; stroke-linecap: butt; stroke-dashoffset: 0; stroke-linejoin: miter; stroke-miterlimit: 4; fill: rgb(119,196,211); fill-rule: nonzero; opacity: 1;"  transform=" translate(-29.11, -25.82)" d="M 29.381 25.047 c -0.181 -0.063 -0.382 0.033 -0.446 0.214 l -0.313 0.891 c -0.064 0.183 0.031 0.382 0.214 0.446 c 0.038 0.014 0.078 0.02 0.116 0.02 c 0.145 0 0.279 -0.09 0.33 -0.233 l 0.313 -0.891 C 29.659 25.311 29.564 25.112 29.381 25.047 z" stroke-linecap="round" />
</g>
<g transform="matrix(6.67 0 0 6.67 272.53 290.73)" id="Layer_1"  >
<path style="stroke: none; stroke-width: 1; stroke-dasharray: none; stroke-linecap: butt; stroke-dashoffset: 0; stroke-linejoin: miter; stroke-miterlimit: 4; fill: rgb(119,196,211); fill-rule: nonzero; opacity: 1;"  transform=" translate(-25.88, -28.61)" d="M 26.152 27.834 c -0.181 -0.063 -0.382 0.033 -0.446 0.214 l -0.313 0.891 c -0.064 0.183 0.031 0.382 0.214 0.446 c 0.038 0.014 0.078 0.02 0.116 0.02 c 0.145 0 0.279 -0.09 0.33 -0.233 l 0.313 -0.891 C 26.431 28.097 26.335 27.898 26.152 27.834 z" stroke-linecap="round" />
</g>
<g transform="matrix(6.67 0 0 6.67 277.98 275.13)" id="Layer_1"  >
<path style="stroke: none; stroke-width: 1; stroke-dasharray: none; stroke-linecap: butt; stroke-dashoffset: 0; stroke-linejoin: miter; stroke-miterlimit: 4; fill: rgb(119,196,211); fill-rule: nonzero; opacity: 1;"  transform=" translate(-26.7, -26.27)" d="M 26.969 25.493 c -0.181 -0.063 -0.382 0.032 -0.446 0.214 l -0.313 0.891 c -0.064 0.183 0.031 0.382 0.214 0.446 c 0.038 0.014 0.078 0.02 0.116 0.02 c 0.145 0 0.279 -0.09 0.33 -0.233 l 0.313 -0.891 C 27.247 25.756 27.151 25.557 26.969 25.493 z" stroke-linecap="round" />
</g>
<g transform="matrix(6.67 0 0 6.67 259.23 285.98)" id="Layer_1"  >
<path style="stroke: none; stroke-width: 1; stroke-dasharray: none; stroke-linecap: butt; stroke-dashoffset: 0; stroke-linejoin: miter; stroke-miterlimit: 4; fill: rgb(119,196,211); fill-rule: nonzero; opacity: 1;"  transform=" translate(-23.88, -27.9)" d="M 23.847 27.311 l -0.513 0.793 c -0.104 0.163 -0.059 0.38 0.104 0.484 c 0.06 0.038 0.125 0.056 0.19 0.056 c 0.114 0 0.227 -0.056 0.294 -0.159 l 0.513 -0.793 c 0.104 -0.163 0.059 -0.38 -0.104 -0.484 C 24.168 27.103 23.952 27.148 23.847 27.311 z" stroke-linecap="round" />
</g>
<g transform="matrix(6.67 0 0 6.67 284.88 261.69)" id="Layer_1"  >
<path style="stroke: none; stroke-width: 1; stroke-dasharray: none; stroke-linecap: butt; stroke-dashoffset: 0; stroke-linejoin: miter; stroke-miterlimit: 4; fill: rgb(119,196,211); fill-rule: nonzero; opacity: 1;"  transform=" translate(-27.73, -24.25)" d="M 27.905 24.815 l 0.313 -0.891 c 0.064 -0.183 -0.031 -0.382 -0.214 -0.446 c -0.182 -0.065 -0.382 0.033 -0.446 0.214 l -0.313 0.891 c -0.064 0.183 0.031 0.382 0.214 0.446 c 0.038 0.014 0.078 0.02 0.116 0.02 C 27.72 25.048 27.855 24.959 27.905 24.815 z" stroke-linecap="round" />
</g>
<g transform="matrix(6.67 0 0 6.67 287.99 290.73)" id="Layer_1"  >
<path style="stroke: none; stroke-width: 1; stroke-dasharray: none; stroke-linecap: butt; stroke-dashoffset: 0; stroke-linejoin: miter; stroke-miterlimit: 4; fill: rgb(119,196,211); fill-rule: nonzero; opacity: 1;"  transform=" translate(-28.2, -28.61)" d="M 28.471 27.834 c -0.182 -0.063 -0.382 0.033 -0.446 0.214 l -0.313 0.891 c -0.064 0.183 0.031 0.382 0.214 0.446 c 0.038 0.014 0.078 0.02 0.116 0.02 c 0.145 0 0.279 -0.09 0.33 -0.233 l 0.313 -0.891 C 28.749 28.097 28.653 27.898 28.471 27.834 z" stroke-linecap="round" />
</g>
</svg>