<?xml version="1.0" encoding="UTF-8" standalone="no" ?>
<!DOCTYPE svg PUBLIC "-//W3C//DTD SVG 1.1//EN" "http://www.w3.org/Graphics/SVG/1.1/DTD/svg11.dtd">
<svg xmlns="http://www.w3.org/2000/svg" xmlns:xlink="http://www.w3.org/1999/xlink" version="1.1" width="400" height="400" viewBox="0 0 400 400" xml:space="preserve">
<desc>Created with Fabric.js 3.6.2</desc>
<defs>
</defs>
<g transform="matrix(3.17 -2.7 2.7 3.17 164.13 223.02)" id="surface1"  >
<rect style="stroke: none; stroke-width: 1; stroke-dasharray: none; stroke-linecap: butt; stroke-dashoffset: 0; stroke-linejoin: miter; stroke-miterlimit: 4; fill: rgb(76,175,80); fill-rule: nonzero; opacity: 1;"  x="-2" y="-10.35" rx="0" ry="0" width="4" height="20.7" />
</g>
<g transform="matrix(4.17 0 0 4.17 222.08 220.2)" id="surface1"  >
<path style="stroke: none; stroke-width: 1; stroke-dasharray: none; stroke-linecap: butt; stroke-dashoffset: 0; stroke-linejoin: miter; stroke-miterlimit: 4; fill: rgb(76,175,80); fill-rule: nonzero; opacity: 1;"  transform=" translate(-29.3, -28.85)" d="M 20.2 20.2 v 17.3 c 0 1.1 0.9 1.9 1.9 1.9 h 14.4 c 1.1 0 1.9 -0.9 1.9 -1.9 V 22.1 h -8.6 v -3.8 C 24 18.2 20.2 20.2 20.2 20.2 z" stroke-linecap="round" />
</g>
<g transform="matrix(4.17 0 0 4.17 134.45 189.21)" id="surface1"  >
<path style="stroke: none; stroke-width: 1; stroke-dasharray: none; stroke-linecap: butt; stroke-dashoffset: 0; stroke-linejoin: miter; stroke-miterlimit: 4; fill: rgb(76,175,80); fill-rule: nonzero; opacity: 1;"  transform=" translate(-8.27, -21.41)" d="M 4.9 23.3 l 5.8 -5.1 c 1.4 1.6 1.2 4 -0.4 5.4 C 8.7 25.1 6.3 24.9 4.9 23.3 z" stroke-linecap="round" />
</g>
<g transform="matrix(4.17 0 0 4.17 234.38 182.08)" id="surface1"  >
<path style="stroke: none; stroke-width: 1; stroke-dasharray: none; stroke-linecap: butt; stroke-dashoffset: 0; stroke-linejoin: miter; stroke-miterlimit: 4; fill: rgb(46,125,50); fill-rule: nonzero; opacity: 1;"  transform=" translate(-32.25, -19.7)" d="M 32.2 8.6 c -6.5 0 -11.7 5.1 -12 11.5 c 0.1 -0.1 0.8 -0.4 2 -0.8 c 0.6 -5 4.9 -8.8 10 -8.8 c 5.6 0 10.1 4.5 10.1 10.1 c 0 3.2 -1.5 6.1 -3.8 7.9 v 2.3 c 3.4 -2.1 5.8 -5.9 5.8 -10.2 C 44.2 14 38.8 8.6 32.2 8.6 z" stroke-linecap="round" />
</g>
<g transform="matrix(4.17 0 0 4.17 222.08 196.04)" id="surface1"  >
<path style="stroke: none; stroke-width: 1; stroke-dasharray: none; stroke-linecap: butt; stroke-dashoffset: 0; stroke-linejoin: miter; stroke-miterlimit: 4; fill: rgb(46,125,50); fill-rule: nonzero; opacity: 1;"  transform=" translate(-29.3, -23.05)" d="M 20.2 22.1 h 18.2 V 24 H 20.2 V 22.1 z" stroke-linecap="round" />
</g>
<g transform="matrix(4.17 0 0 4.17 144.79 200.42)" id="surface1"  >
<path style="stroke: none; stroke-width: 1; stroke-dasharray: none; stroke-linecap: butt; stroke-dashoffset: 0; stroke-linejoin: miter; stroke-miterlimit: 4; fill: rgb(46,125,50); fill-rule: nonzero; opacity: 1;"  transform=" translate(-10.75, -24.1)" d="M 11.4 22 c -0.2 0.6 -0.6 1.2 -1.1 1.7 c -0.5 0.5 -1.1 0.7 -1.7 0.9 l 1.4 1.6 c 0.6 -0.2 1.2 -0.6 1.7 -1 c 0.5 -0.4 0.9 -1 1.2 -1.5 L 11.4 22 z" stroke-linecap="round" />
</g>
</svg>