<?xml version="1.0" encoding="UTF-8" standalone="no" ?>
<!DOCTYPE svg PUBLIC "-//W3C//DTD SVG 1.1//EN" "http://www.w3.org/Graphics/SVG/1.1/DTD/svg11.dtd">
<svg xmlns="http://www.w3.org/2000/svg" xmlns:xlink="http://www.w3.org/1999/xlink" version="1.1" width="400" height="400" viewBox="0 0 400 400" xml:space="preserve">
<desc>Created with Fabric.js 3.6.2</desc>
<defs>
</defs>
<g transform="matrix(4.17 0 0 4.17 243.75 194.04)" id="surface1"  >
<path style="stroke: none; stroke-width: 1; stroke-dasharray: none; stroke-linecap: butt; stroke-dashoffset: 0; stroke-linejoin: miter; stroke-miterlimit: 4; fill: rgb(144,202,249); fill-rule: nonzero; opacity: 1;"  transform=" translate(-34.5, -22.57)" d="M 25 18 c 0 0 19 17 19 9 c 0 -5 -4 -7 -4 -7 l -15 -4 V 18 z" stroke-linecap="round" />
</g>
<g transform="matrix(4.17 0 0 4.17 156.25 194.04)" id="surface1"  >
<path style="stroke: none; stroke-width: 1; stroke-dasharray: none; stroke-linecap: butt; stroke-dashoffset: 0; stroke-linejoin: miter; stroke-miterlimit: 4; fill: rgb(144,202,249); fill-rule: nonzero; opacity: 1;"  transform=" translate(-13.5, -22.57)" d="M 23 18 c 0 0 -19 17 -19 9 c 0 -5 4 -7 4 -7 l 15 -4 V 18 z" stroke-linecap="round" />
</g>
<g transform="matrix(4.17 0 0 4.17 243.75 189.58)" id="surface1"  >
<path style="stroke: none; stroke-width: 1; stroke-dasharray: none; stroke-linecap: butt; stroke-dashoffset: 0; stroke-linejoin: miter; stroke-miterlimit: 4; fill: rgb(66,165,245); fill-rule: nonzero; opacity: 1;"  transform=" translate(-34.5, -21.5)" d="M 44 27 c 0 -5 -4 -7 -4 -7 l -15 -4 v 2 c 0 0 0 0 0.1 0.1 l 14.1 3.8 C 39.8 22.2 44 23.8 44 27 z" stroke-linecap="round" />
</g>
<g transform="matrix(4.17 0 0 4.17 156.25 189.58)" id="surface1"  >
<path style="stroke: none; stroke-width: 1; stroke-dasharray: none; stroke-linecap: butt; stroke-dashoffset: 0; stroke-linejoin: miter; stroke-miterlimit: 4; fill: rgb(66,165,245); fill-rule: nonzero; opacity: 1;"  transform=" translate(-13.5, -21.5)" d="M 4 27 c 0 -5 4 -7 4 -7 l 15 -4 v 2 c 0 0 0 0 -0.1 0.1 L 8.8 21.9 C 8.2 22.2 4 23.8 4 27 z" stroke-linecap="round" />
</g>
<g transform="matrix(4.17 0 0 4.17 231.5 147.25)" id="surface1"  >
<path style="stroke: none; stroke-width: 1; stroke-dasharray: none; stroke-linecap: butt; stroke-dashoffset: 0; stroke-linejoin: miter; stroke-miterlimit: 4; fill: rgb(121,85,72); fill-rule: nonzero; opacity: 1;"  transform=" translate(-31.56, -11.34)" d="M 26.1 16.7 c -0.6 0 -1 -0.4 -1 -1 s 0.4 -1 1 -1 c 1.1 0 3 -0.6 4.4 -1.2 l -1.3 -2 c -0.3 -0.4 -0.2 -0.9 0.1 -1.2 c 0.1 -0.1 2.8 -3 7.5 -4.3 c 0.5 -0.1 1.1 0.2 1.2 0.7 c 0.1 0.5 -0.2 1.1 -0.7 1.2 c -3 0.8 -5 2.4 -6 3.2 l 1.5 2.3 C 33 13.7 33 14 33 14.3 s -0.3 0.5 -0.6 0.6 C 32 15.1 28.2 16.7 26.1 16.7 z" stroke-linecap="round" />
</g>
<g transform="matrix(4.17 0 0 4.17 168.5 147.25)" id="surface1"  >
<path style="stroke: none; stroke-width: 1; stroke-dasharray: none; stroke-linecap: butt; stroke-dashoffset: 0; stroke-linejoin: miter; stroke-miterlimit: 4; fill: rgb(121,85,72); fill-rule: nonzero; opacity: 1;"  transform=" translate(-16.44, -11.34)" d="M 21.9 16.7 c -2.1 0 -5.9 -1.6 -6.3 -1.8 c -0.3 -0.1 -0.5 -0.3 -0.6 -0.6 s 0 -0.6 0.1 -0.8 l 1.5 -2.3 c -0.9 -0.8 -3 -2.4 -6 -3.2 C 10.2 7.8 9.9 7.3 10 6.7 c 0.1 -0.5 0.7 -0.8 1.2 -0.7 c 4.6 1.3 7.3 4.2 7.5 4.3 c 0.3 0.3 0.4 0.9 0.1 1.2 l -1.3 2 c 1.4 0.5 3.3 1.2 4.4 1.2 c 0.6 0 1 0.4 1 1 S 22.5 16.7 21.9 16.7 z" stroke-linecap="round" />
</g>
<g transform="matrix(4.17 0 0 4.17 200 137.5)" id="surface1"  >
<path style="stroke: none; stroke-width: 1; stroke-dasharray: none; stroke-linecap: butt; stroke-dashoffset: 0; stroke-linejoin: miter; stroke-miterlimit: 4; fill: rgb(121,85,72); fill-rule: nonzero; opacity: 1;"  transform=" translate(-24, -9)" d="M 23 14 l 1 -10 l 1 10 H 23 z" stroke-linecap="round" />
</g>
<g transform="matrix(4.17 0 0 4.17 200 225)" id="surface1"  >
<path style="stroke: none; stroke-width: 1; stroke-dasharray: none; stroke-linecap: butt; stroke-dashoffset: 0; stroke-linejoin: miter; stroke-miterlimit: 4; fill: rgb(121,85,72); fill-rule: nonzero; opacity: 1;"  transform=" translate(-24, -30)" d="M 27 29 c 0 2.2 -0.8 12 -3 12 s -3 -9.8 -3 -12 s -1 -10 3 -10 S 27 26.8 27 29 z" stroke-linecap="round" />
</g>
<g transform="matrix(4.17 0 0 4.17 200 225)" id="surface1"  >
<path style="stroke: none; stroke-width: 1; stroke-dasharray: none; stroke-linecap: butt; stroke-dashoffset: 0; stroke-linejoin: miter; stroke-miterlimit: 4; fill: rgb(93,64,55); fill-rule: nonzero; opacity: 1;"  transform=" translate(-24, -30)" d="M 21.1 31 h 5.8 c 0.1 -0.9 0.1 -1.6 0.1 -2 h -6 C 21 29.4 21 30.1 21.1 31 z" stroke-linecap="round" />
</g>
<g transform="matrix(4.17 0 0 4.17 199.58 208.33)" id="surface1"  >
<path style="stroke: none; stroke-width: 1; stroke-dasharray: none; stroke-linecap: butt; stroke-dashoffset: 0; stroke-linejoin: miter; stroke-miterlimit: 4; fill: rgb(93,64,55); fill-rule: nonzero; opacity: 1;"  transform=" translate(-23.9, -26)" d="M 20.9 27 h 6.1 c 0 -0.6 0 -1.3 0 -2 h -6.2 C 20.9 25.7 20.9 26.4 20.9 27 z" stroke-linecap="round" />
</g>
<g transform="matrix(4.17 0 0 4.17 200 258.33)" id="surface1"  >
<path style="stroke: none; stroke-width: 1; stroke-dasharray: none; stroke-linecap: butt; stroke-dashoffset: 0; stroke-linejoin: miter; stroke-miterlimit: 4; fill: rgb(93,64,55); fill-rule: nonzero; opacity: 1;"  transform=" translate(-24, -38)" d="M 25.6 39 c 0.2 -0.6 0.4 -1.3 0.5 -2 h -4.2 c 0.2 0.7 0.3 1.4 0.5 2 H 25.6 z" stroke-linecap="round" />
</g>
<g transform="matrix(4.17 0 0 4.17 200 191.67)" id="surface1"  >
<path style="stroke: none; stroke-width: 1; stroke-dasharray: none; stroke-linecap: butt; stroke-dashoffset: 0; stroke-linejoin: miter; stroke-miterlimit: 4; fill: rgb(93,64,55); fill-rule: nonzero; opacity: 1;"  transform=" translate(-24, -22)" d="M 21.5 21 c -0.2 0.6 -0.4 1.3 -0.5 2 h 6 c -0.1 -0.7 -0.2 -1.4 -0.5 -2 H 21.5 z" stroke-linecap="round" />
</g>
<g transform="matrix(4.17 0 0 4.17 200.21 241.67)" id="surface1"  >
<path style="stroke: none; stroke-width: 1; stroke-dasharray: none; stroke-linecap: butt; stroke-dashoffset: 0; stroke-linejoin: miter; stroke-miterlimit: 4; fill: rgb(93,64,55); fill-rule: nonzero; opacity: 1;"  transform=" translate(-24.05, -34)" d="M 21.3 33 c 0.1 0.6 0.2 1.3 0.3 2 h 4.9 c 0.1 -0.7 0.2 -1.4 0.3 -2 H 21.3 z" stroke-linecap="round" />
</g>
<g transform="matrix(4.17 0 0 4.17 143.84 223.54)" id="surface1"  >
<path style="stroke: none; stroke-width: 1; stroke-dasharray: none; stroke-linecap: butt; stroke-dashoffset: 0; stroke-linejoin: miter; stroke-miterlimit: 4; fill: rgb(141,110,99); fill-rule: nonzero; opacity: 1;"  transform=" translate(-10.52, -29.65)" d="M 12.7 26 l -0.6 2.4 l -5.8 4.8 c -0.4 0.4 -0.5 1 -0.1 1.4 C 6.4 34.9 6.7 35 7 35 c 0.2 0 0.5 -0.1 0.6 -0.2 l 6 -5 c 0.2 -0.1 0.3 -0.3 0.3 -0.5 l 1.2 -5 C 14.4 24.9 13.5 25.5 12.7 26 z" stroke-linecap="round" />
</g>
<g transform="matrix(4.17 0 0 4.17 256.99 224.58)" id="surface1"  >
<path style="stroke: none; stroke-width: 1; stroke-dasharray: none; stroke-linecap: butt; stroke-dashoffset: 0; stroke-linejoin: miter; stroke-miterlimit: 4; fill: rgb(141,110,99); fill-rule: nonzero; opacity: 1;"  transform=" translate(-37.68, -29.9)" d="M 35.9 28.5 l -0.3 -2.2 c -0.7 -0.5 -1.5 -1 -2.2 -1.5 l 0.6 4.4 c 0 0.2 0.2 0.5 0.3 0.6 l 6 5 c 0.2 0.2 0.4 0.2 0.6 0.2 c 0.3 0 0.6 -0.1 0.8 -0.4 c 0.4 -0.4 0.3 -1.1 -0.1 -1.4 L 35.9 28.5 z" stroke-linecap="round" />
</g>
<g transform="matrix(4.17 0 0 4.17 164.79 236.25)" id="surface1"  >
<path style="stroke: none; stroke-width: 1; stroke-dasharray: none; stroke-linecap: butt; stroke-dashoffset: 0; stroke-linejoin: miter; stroke-miterlimit: 4; fill: rgb(141,110,99); fill-rule: nonzero; opacity: 1;"  transform=" translate(-15.55, -32.7)" d="M 21.1 22.4 c -1.6 2.1 -3.7 3.8 -3.8 3.8 c -0.2 0.1 -0.3 0.3 -0.3 0.5 C 17 26.9 15.8 31 16 34.7 c -0.9 1.1 -3.9 4.7 -5.7 6.6 c -0.4 0.4 -0.4 1 0 1.4 c 0.2 0.2 0.4 0.3 0.7 0.3 c 0.3 0 0.5 -0.1 0.7 -0.3 c 2.2 -2.4 5.9 -6.9 6 -7.1 c 0.2 -0.2 0.2 -0.5 0.2 -0.7 c -0.2 -2.9 0.6 -6.4 0.9 -7.4 c 0.4 -0.3 1.1 -1 2 -1.9 C 20.9 24.6 20.9 23.4 21.1 22.4 z" stroke-linecap="round" />
</g>
<g transform="matrix(4.17 0 0 4.17 234.96 236.87)" id="surface1"  >
<path style="stroke: none; stroke-width: 1; stroke-dasharray: none; stroke-linecap: butt; stroke-dashoffset: 0; stroke-linejoin: miter; stroke-miterlimit: 4; fill: rgb(141,110,99); fill-rule: nonzero; opacity: 1;"  transform=" translate(-32.39, -32.85)" d="M 37.7 41.3 c -1.8 -2 -4.8 -5.6 -5.7 -6.6 c 0.2 -3.6 -1 -7.8 -1.1 -7.9 c -0.1 -0.2 -0.2 -0.4 -0.3 -0.5 c 0 0 -2.1 -1.8 -3.8 -3.8 c 0.2 1 0.2 2.2 0.2 3.3 c 0.9 0.9 1.6 1.6 2 1.9 c 0.3 1 1.1 4.5 0.9 7.4 c 0 0.3 0.1 0.5 0.2 0.7 c 0.2 0.2 3.8 4.7 6 7.1 c 0.2 0.2 0.5 0.3 0.7 0.3 c 0.2 0 0.5 -0.1 0.7 -0.3 C 38.1 42.4 38.1 41.7 37.7 41.3 z" stroke-linecap="round" />
</g>
<g transform="matrix(4.17 0 0 4.17 200 169.58)" id="surface1"  >
<path style="stroke: none; stroke-width: 1; stroke-dasharray: none; stroke-linecap: butt; stroke-dashoffset: 0; stroke-linejoin: miter; stroke-miterlimit: 4; fill: rgb(141,110,99); fill-rule: nonzero; opacity: 1;"  transform=" translate(-24, -16.7)" d="M 24 19 c 1.1 0 1.8 0.6 2.2 1.4 C 27.3 19 28 17 28 16 c 0 -2 -2.3 -3 -4 -3 s -4 1 -4 3 c 0 1 0.7 3 1.8 4.4 C 22.2 19.6 22.9 19 24 19 z" stroke-linecap="round" />
</g>
<g transform="matrix(4.17 0 0 4.17 193.75 152.08)" id="surface1"  >
<path style="stroke: none; stroke-width: 1; stroke-dasharray: none; stroke-linecap: butt; stroke-dashoffset: 0; stroke-linejoin: miter; stroke-miterlimit: 4; fill: rgb(55,71,79); fill-rule: nonzero; opacity: 1;"  transform=" translate(-22.5, -12.5)" d="M 24 12.5 c 0 0.8 -0.7 1.5 -1.5 1.5 S 21 13.3 21 12.5 c 0 -0.8 0.7 -1.5 1.5 -1.5 S 24 11.7 24 12.5 z" stroke-linecap="round" />
</g>
<g transform="matrix(4.17 0 0 4.17 206.25 152.08)" id="surface1"  >
<path style="stroke: none; stroke-width: 1; stroke-dasharray: none; stroke-linecap: butt; stroke-dashoffset: 0; stroke-linejoin: miter; stroke-miterlimit: 4; fill: rgb(55,71,79); fill-rule: nonzero; opacity: 1;"  transform=" translate(-25.5, -12.5)" d="M 27 12.5 c 0 0.8 -0.7 1.5 -1.5 1.5 S 24 13.3 24 12.5 c 0 -0.8 0.7 -1.5 1.5 -1.5 S 27 11.7 27 12.5 z" stroke-linecap="round" />
</g>
</svg>