<?xml version="1.0" encoding="UTF-8" standalone="no" ?>
<!DOCTYPE svg PUBLIC "-//W3C//DTD SVG 1.1//EN" "http://www.w3.org/Graphics/SVG/1.1/DTD/svg11.dtd">
<svg xmlns="http://www.w3.org/2000/svg" xmlns:xlink="http://www.w3.org/1999/xlink" version="1.1" width="400" height="400" viewBox="0 0 400 400" xml:space="preserve">
<desc>Created with Fabric.js 3.6.2</desc>
<defs>
</defs>
<g transform="matrix(4.17 0 0 4.17 200 158.33)" id="surface1"  >
<path style="stroke: none; stroke-width: 1; stroke-dasharray: none; stroke-linecap: butt; stroke-dashoffset: 0; stroke-linejoin: miter; stroke-miterlimit: 4; fill: rgb(255,213,79); fill-rule: nonzero; opacity: 1;"  transform=" translate(-24, -14)" d="M 31.273438 11.273438 C 31.273438 15.289063 24 24 24 24 C 24 24 16.726563 15.289063 16.726563 11.273438 C 16.726563 7.257813 19.984375 4 24 4 C 28.015625 4 31.273438 7.257813 31.273438 11.273438 Z" stroke-linecap="round" />
</g>
<g transform="matrix(4.17 0 0 4.17 159.63 183.34)" id="surface1"  >
<path style="stroke: none; stroke-width: 1; stroke-dasharray: none; stroke-linecap: butt; stroke-dashoffset: 0; stroke-linejoin: miter; stroke-miterlimit: 4; fill: rgb(255,213,79); fill-rule: nonzero; opacity: 1;"  transform=" translate(-14.31, -20)" d="M 14.144531 13.148438 C 17.964844 14.390625 24 24 24 24 C 24 24 13.46875 28.226563 9.648438 26.984375 C 5.828125 25.742188 3.738281 21.640625 4.980469 17.820313 C 6.21875 14 10.324219 11.910156 14.144531 13.148438 Z" stroke-linecap="round" />
</g>
<g transform="matrix(4.17 0 0 4.17 169.51 236.6)" id="surface1"  >
<path style="stroke: none; stroke-width: 1; stroke-dasharray: none; stroke-linecap: butt; stroke-dashoffset: 0; stroke-linejoin: miter; stroke-miterlimit: 4; fill: rgb(255,213,79); fill-rule: nonzero; opacity: 1;"  transform=" translate(-16.68, -32.78)" d="M 10.636719 30.023438 C 12.996094 26.773438 24 24 24 24 C 24 24 24.765625 35.320313 22.402344 38.570313 C 20.042969 41.820313 15.492188 42.539063 12.242188 40.179688 C 8.992188 37.820313 8.273438 33.269531 10.636719 30.023438 Z" stroke-linecap="round" />
</g>
<g transform="matrix(4.17 0 0 4.17 230.49 236.6)" id="surface1"  >
<path style="stroke: none; stroke-width: 1; stroke-dasharray: none; stroke-linecap: butt; stroke-dashoffset: 0; stroke-linejoin: miter; stroke-miterlimit: 4; fill: rgb(255,213,79); fill-rule: nonzero; opacity: 1;"  transform=" translate(-31.32, -32.78)" d="M 25.597656 38.570313 C 23.234375 35.320313 24 24 24 24 C 24 24 35.003906 26.773438 37.363281 30.023438 C 39.726563 33.273438 39.007813 37.820313 35.757813 40.179688 C 32.507813 42.539063 27.957031 41.820313 25.597656 38.570313 Z" stroke-linecap="round" />
</g>
<g transform="matrix(4.17 0 0 4.17 240.37 183.34)" id="surface1"  >
<path style="stroke: none; stroke-width: 1; stroke-dasharray: none; stroke-linecap: butt; stroke-dashoffset: 0; stroke-linejoin: miter; stroke-miterlimit: 4; fill: rgb(255,213,79); fill-rule: nonzero; opacity: 1;"  transform=" translate(-33.69, -20)" d="M 38.351563 26.984375 C 34.53125 28.226563 24 24 24 24 C 24 24 30.035156 14.390625 33.855469 13.148438 C 37.675781 11.910156 41.78125 14 43.019531 17.820313 C 44.261719 21.640625 42.171875 25.742188 38.351563 26.984375 Z" stroke-linecap="round" />
</g>
<g transform="matrix(4.17 0 0 4.17 184.85 158.33)" id="surface1"  >
<path style="stroke: none; stroke-width: 1; stroke-dasharray: none; stroke-linecap: butt; stroke-dashoffset: 0; stroke-linejoin: miter; stroke-miterlimit: 4; fill: rgb(255,202,40); fill-rule: nonzero; opacity: 1;"  transform=" translate(-20.36, -14)" d="M 20 11.273438 C 20 17.433594 24 24 24 24 C 24 24 16.726563 15.289063 16.726563 11.273438 C 16.726563 7.257813 19.984375 4 24 4 C 24 4 20 5.628906 20 11.273438 Z" stroke-linecap="round" />
</g>
<g transform="matrix(4.17 0 0 4.17 159.63 193.82)" id="surface1"  >
<path style="stroke: none; stroke-width: 1; stroke-dasharray: none; stroke-linecap: butt; stroke-dashoffset: 0; stroke-linejoin: miter; stroke-miterlimit: 4; fill: rgb(255,202,40); fill-rule: nonzero; opacity: 1;"  transform=" translate(-14.31, -22.52)" d="M 10.660156 23.871094 C 16.519531 25.773438 24 24 24 24 C 24 24 13.46875 28.226563 9.648438 26.984375 C 5.828125 25.742188 3.738281 21.640625 4.980469 17.820313 C 4.980469 17.820313 5.289063 22.128906 10.660156 23.871094 Z" stroke-linecap="round" />
</g>
<g transform="matrix(4.17 0 0 4.17 175.75 236.6)" id="surface1"  >
<path style="stroke: none; stroke-width: 1; stroke-dasharray: none; stroke-linecap: butt; stroke-dashoffset: 0; stroke-linejoin: miter; stroke-miterlimit: 4; fill: rgb(255,202,40); fill-rule: nonzero; opacity: 1;"  transform=" translate(-18.18, -32.78)" d="M 19.753906 36.648438 C 23.375 31.664063 24 24 24 24 C 24 24 24.765625 35.320313 22.402344 38.570313 C 20.042969 41.820313 15.492188 42.539063 12.242188 40.179688 C 12.242188 40.179688 16.4375 41.214844 19.753906 36.648438 Z" stroke-linecap="round" />
</g>
<g transform="matrix(4.17 0 0 4.17 230.74 233.71)" id="surface1"  >
<path style="stroke: none; stroke-width: 1; stroke-dasharray: none; stroke-linecap: butt; stroke-dashoffset: 0; stroke-linejoin: miter; stroke-miterlimit: 4; fill: rgb(255,202,40); fill-rule: nonzero; opacity: 1;"  transform=" translate(-31.38, -32.09)" d="M 34.71875 31.945313 C 31.097656 26.960938 24 24 24 24 C 24 24 35.003906 26.773438 37.363281 30.023438 C 39.726563 33.273438 39.007813 37.820313 35.757813 40.179688 C 35.757813 40.179688 38.035156 36.511719 34.71875 31.945313 Z" stroke-linecap="round" />
</g>
<g transform="matrix(4.17 0 0 4.17 239.62 176.65)" id="surface1"  >
<path style="stroke: none; stroke-width: 1; stroke-dasharray: none; stroke-linecap: butt; stroke-dashoffset: 0; stroke-linejoin: miter; stroke-miterlimit: 4; fill: rgb(255,202,40); fill-rule: nonzero; opacity: 1;"  transform=" translate(-33.51, -18.4)" d="M 34.867188 16.261719 C 29.007813 18.167969 24 24 24 24 C 24 24 30.035156 14.390625 33.855469 13.148438 C 37.675781 11.910156 41.78125 14 43.019531 17.820313 C 43.019531 17.820313 40.238281 14.519531 34.867188 16.261719 Z" stroke-linecap="round" />
</g>
<g transform="matrix(4.17 0 0 4.17 200 178.59)" id="surface1"  >
<path style="stroke: none; stroke-width: 1; stroke-dasharray: none; stroke-linecap: butt; stroke-dashoffset: 0; stroke-linejoin: miter; stroke-miterlimit: 4; fill: rgb(233,30,99); fill-rule: nonzero; opacity: 1;"  transform=" translate(-24, -18.86)" d="M 26.273438 15.996094 C 26.273438 17.253906 24 24 24 24 C 24 24 21.726563 17.253906 21.726563 15.996094 C 21.726563 14.742188 22.746094 13.722656 24 13.722656 C 25.253906 13.722656 26.273438 14.742188 26.273438 15.996094 Z" stroke-linecap="round" />
</g>
<g transform="matrix(4.17 0 0 4.17 179.41 190.12)" id="surface1"  >
<path style="stroke: none; stroke-width: 1; stroke-dasharray: none; stroke-linecap: butt; stroke-dashoffset: 0; stroke-linejoin: miter; stroke-miterlimit: 4; fill: rgb(233,30,99); fill-rule: nonzero; opacity: 1;"  transform=" translate(-19.06, -21.63)" d="M 17.089844 19.363281 C 18.285156 19.753906 24 24 24 24 C 24 24 16.878906 24.074219 15.6875 23.6875 C 14.492188 23.300781 13.839844 22.019531 14.226563 20.824219 C 14.613281 19.632813 15.898438 18.976563 17.089844 19.363281 Z" stroke-linecap="round" />
</g>
<g transform="matrix(4.17 0 0 4.17 185.46 218.22)" id="surface1"  >
<path style="stroke: none; stroke-width: 1; stroke-dasharray: none; stroke-linecap: butt; stroke-dashoffset: 0; stroke-linejoin: miter; stroke-miterlimit: 4; fill: rgb(233,30,99); fill-rule: nonzero; opacity: 1;"  transform=" translate(-20.51, -28.37)" d="M 17.457031 29.140625 C 18.195313 28.121094 24 24 24 24 C 24 24 21.871094 30.796875 21.132813 31.8125 C 20.394531 32.828125 18.976563 33.050781 17.960938 32.3125 C 16.945313 31.574219 16.71875 30.152344 17.457031 29.140625 Z" stroke-linecap="round" />
</g>
<g transform="matrix(4.17 0 0 4.17 214.54 218.22)" id="surface1"  >
<path style="stroke: none; stroke-width: 1; stroke-dasharray: none; stroke-linecap: butt; stroke-dashoffset: 0; stroke-linejoin: miter; stroke-miterlimit: 4; fill: rgb(233,30,99); fill-rule: nonzero; opacity: 1;"  transform=" translate(-27.49, -28.37)" d="M 26.867188 31.8125 C 26.128906 30.796875 24 24 24 24 C 24 24 29.804688 28.121094 30.542969 29.140625 C 31.28125 30.15625 31.054688 31.574219 30.039063 32.3125 C 29.023438 33.050781 27.601563 32.824219 26.867188 31.8125 Z" stroke-linecap="round" />
</g>
<g transform="matrix(4.17 0 0 4.17 220.59 190.12)" id="surface1"  >
<path style="stroke: none; stroke-width: 1; stroke-dasharray: none; stroke-linecap: butt; stroke-dashoffset: 0; stroke-linejoin: miter; stroke-miterlimit: 4; fill: rgb(233,30,99); fill-rule: nonzero; opacity: 1;"  transform=" translate(-28.94, -21.63)" d="M 32.3125 23.6875 C 31.121094 24.074219 24 24 24 24 C 24 24 29.714844 19.753906 30.910156 19.363281 C 32.101563 18.976563 33.386719 19.628906 33.773438 20.824219 C 34.160156 22.019531 33.507813 23.300781 32.3125 23.6875 Z" stroke-linecap="round" />
</g>
</svg>