<?xml version="1.0" encoding="UTF-8" standalone="no" ?>
<!DOCTYPE svg PUBLIC "-//W3C//DTD SVG 1.1//EN" "http://www.w3.org/Graphics/SVG/1.1/DTD/svg11.dtd">
<svg xmlns="http://www.w3.org/2000/svg" xmlns:xlink="http://www.w3.org/1999/xlink" version="1.1" width="400" height="400" viewBox="0 0 400 400" xml:space="preserve">
<desc>Created with Fabric.js 3.6.2</desc>
<defs>
</defs>
<g transform="matrix(4.17 0 0 4.17 200 233.33)" id="surface1"  >
<path style="stroke: none; stroke-width: 1; stroke-dasharray: none; stroke-linecap: butt; stroke-dashoffset: 0; stroke-linejoin: miter; stroke-miterlimit: 4; fill: rgb(255,152,0); fill-rule: nonzero; opacity: 1;"  transform=" translate(-24, -32)" d="M 35 29 L 13 29 C 11.101563 32.601563 5 33 5 33 C 5 33 6.5 35 9 35 L 39 35 C 41.5 35 43 33 43 33 C 43 33 36.898438 32.601563 35 29 Z" stroke-linecap="round" />
</g>
<g transform="matrix(4.17 0 0 4.17 200 195.83)" id="surface1"  >
<path style="stroke: none; stroke-width: 1; stroke-dasharray: none; stroke-linecap: butt; stroke-dashoffset: 0; stroke-linejoin: miter; stroke-miterlimit: 4; fill: rgb(255,152,0); fill-rule: nonzero; opacity: 1;"  transform=" translate(-24, -23)" d="M 33 21 L 15 21 C 13.800781 23.101563 9 23 9 23 C 9 23 10 25 13 25 L 35 25 C 38 25 39 23 39 23 C 39 23 34.199219 23.101563 33 21 Z" stroke-linecap="round" />
</g>
<g transform="matrix(4.17 0 0 4.17 200 150)" id="surface1"  >
<path style="stroke: none; stroke-width: 1; stroke-dasharray: none; stroke-linecap: butt; stroke-dashoffset: 0; stroke-linejoin: miter; stroke-miterlimit: 4; fill: rgb(255,152,0); fill-rule: nonzero; opacity: 1;"  transform=" translate(-24, -12)" d="M 24 7 C 20.601563 15.101563 11 15 11 15 C 11 15 12 17 15 17 L 33 17 C 36 17 37 15 37 15 C 37 15 27.398438 15.101563 24 7 Z" stroke-linecap="round" />
</g>
<g transform="matrix(4.17 0 0 4.17 200 262.5)" id="surface1"  >
<path style="stroke: none; stroke-width: 1; stroke-dasharray: none; stroke-linecap: butt; stroke-dashoffset: 0; stroke-linejoin: miter; stroke-miterlimit: 4; fill: rgb(198,40,40); fill-rule: nonzero; opacity: 1;"  transform=" translate(-24, -39)" d="M 9 35 L 39 35 L 39 43 L 9 43 Z" stroke-linecap="round" />
</g>
<g transform="matrix(4.17 0 0 4.17 200 212.5)" id="surface1"  >
<path style="stroke: none; stroke-width: 1; stroke-dasharray: none; stroke-linecap: butt; stroke-dashoffset: 0; stroke-linejoin: miter; stroke-miterlimit: 4; fill: rgb(198,40,40); fill-rule: nonzero; opacity: 1;"  transform=" translate(-24, -27)" d="M 13 25 L 35 25 L 35 29 L 13 29 Z" stroke-linecap="round" />
</g>
<g transform="matrix(4.17 0 0 4.17 200 179.17)" id="surface1"  >
<path style="stroke: none; stroke-width: 1; stroke-dasharray: none; stroke-linecap: butt; stroke-dashoffset: 0; stroke-linejoin: miter; stroke-miterlimit: 4; fill: rgb(198,40,40); fill-rule: nonzero; opacity: 1;"  transform=" translate(-24, -19)" d="M 15 17 L 33 17 L 33 21 L 15 21 Z" stroke-linecap="round" />
</g>
<g transform="matrix(4.17 0 0 4.17 200 129.17)" id="surface1"  >
<path style="stroke: none; stroke-width: 1; stroke-dasharray: none; stroke-linecap: butt; stroke-dashoffset: 0; stroke-linejoin: miter; stroke-miterlimit: 4; fill: rgb(198,40,40); fill-rule: nonzero; opacity: 1;"  transform=" translate(-24, -7)" d="M 26 7 C 26 8.105469 25.105469 9 24 9 C 22.894531 9 22 8.105469 22 7 C 22 5.894531 22.894531 5 24 5 C 25.105469 5 26 5.894531 26 7 Z" stroke-linecap="round" />
</g>
<g transform="matrix(4.17 0 0 4.17 200 266.67)" id="surface1"  >
<path style="stroke: none; stroke-width: 1; stroke-dasharray: none; stroke-linecap: butt; stroke-dashoffset: 0; stroke-linejoin: miter; stroke-miterlimit: 4; fill: rgb(112,0,0); fill-rule: nonzero; opacity: 1;"  transform=" translate(-24, -40)" d="M 20 37 L 28 37 L 28 43 L 20 43 Z" stroke-linecap="round" />
</g>
<g transform="matrix(4.17 0 0 4.17 183.33 216.67)" id="surface1"  >
<path style="stroke: none; stroke-width: 1; stroke-dasharray: none; stroke-linecap: butt; stroke-dashoffset: 0; stroke-linejoin: miter; stroke-miterlimit: 4; fill: rgb(112,0,0); fill-rule: nonzero; opacity: 1;"  transform=" translate(-20, -28)" d="M 18 27 L 22 27 L 22 29 L 18 29 Z" stroke-linecap="round" />
</g>
<g transform="matrix(4.17 0 0 4.17 216.67 216.67)" id="surface1"  >
<path style="stroke: none; stroke-width: 1; stroke-dasharray: none; stroke-linecap: butt; stroke-dashoffset: 0; stroke-linejoin: miter; stroke-miterlimit: 4; fill: rgb(112,0,0); fill-rule: nonzero; opacity: 1;"  transform=" translate(-28, -28)" d="M 26 27 L 30 27 L 30 29 L 26 29 Z" stroke-linecap="round" />
</g>
<g transform="matrix(4.17 0 0 4.17 183.33 183.33)" id="surface1"  >
<path style="stroke: none; stroke-width: 1; stroke-dasharray: none; stroke-linecap: butt; stroke-dashoffset: 0; stroke-linejoin: miter; stroke-miterlimit: 4; fill: rgb(112,0,0); fill-rule: nonzero; opacity: 1;"  transform=" translate(-20, -20)" d="M 18 19 L 22 19 L 22 21 L 18 21 Z" stroke-linecap="round" />
</g>
<g transform="matrix(4.17 0 0 4.17 216.67 183.33)" id="surface1"  >
<path style="stroke: none; stroke-width: 1; stroke-dasharray: none; stroke-linecap: butt; stroke-dashoffset: 0; stroke-linejoin: miter; stroke-miterlimit: 4; fill: rgb(112,0,0); fill-rule: nonzero; opacity: 1;"  transform=" translate(-28, -20)" d="M 26 19 L 30 19 L 30 21 L 26 21 Z" stroke-linecap="round" />
</g>
</svg>