<?xml version="1.0" encoding="UTF-8" standalone="no" ?>
<!DOCTYPE svg PUBLIC "-//W3C//DTD SVG 1.1//EN" "http://www.w3.org/Graphics/SVG/1.1/DTD/svg11.dtd">
<svg xmlns="http://www.w3.org/2000/svg" xmlns:xlink="http://www.w3.org/1999/xlink" version="1.1" width="400" height="400" viewBox="0 0 400 400" xml:space="preserve">
<desc>Created with Fabric.js 3.6.2</desc>
<defs>
</defs>
<g transform="matrix(4.17 0 0 4.17 200 204.17)" id="surface1"  >
<path style="stroke: none; stroke-width: 1; stroke-dasharray: none; stroke-linecap: butt; stroke-dashoffset: 0; stroke-linejoin: miter; stroke-miterlimit: 4; fill: rgb(255,87,34); fill-rule: nonzero; opacity: 1;"  transform=" translate(-24, -25)" d="M 40 41 H 8 V 24 L 24 9 l 16 15 V 41 z" stroke-linecap="round" />
</g>
<g transform="matrix(4.17 0 0 4.17 200 195.83)" id="surface1"  >
<path style="stroke: none; stroke-width: 1; stroke-dasharray: none; stroke-linecap: butt; stroke-dashoffset: 0; stroke-linejoin: miter; stroke-miterlimit: 4; fill: rgb(255,224,130); fill-rule: nonzero; opacity: 1;"  transform=" translate(-24, -23)" d="M 18 21 h 12 v 4 H 18 V 21 z" stroke-linecap="round" />
</g>
<g transform="matrix(4.17 0 0 4.17 200 164.38)" id="surface1"  >
<polygon style="stroke: none; stroke-width: 1; stroke-dasharray: none; stroke-linecap: butt; stroke-dashoffset: 0; stroke-linejoin: miter; stroke-miterlimit: 4; fill: rgb(76,175,80); fill-rule: nonzero; opacity: 1;"  points="17.7,10.05 0,-4.85 -17.7,10.05 -20.3,7.05 0,-10.05 20.3,7.05 " />
</g>
<g transform="matrix(4.17 0 0 4.17 200 177.5)" id="surface1"  >
<path style="stroke: none; stroke-width: 1; stroke-dasharray: none; stroke-linecap: butt; stroke-dashoffset: 0; stroke-linejoin: miter; stroke-miterlimit: 4; fill: rgb(191,54,12); fill-rule: nonzero; opacity: 1;"  transform=" translate(-24, -18.6)" d="M 40 24 l -0.6 -0.6 L 24 10.6 L 8.6 23.4 L 8 24 v 2.5 l 0.6 -0.5 L 24 13.2 l 15.4 12.9 l 0.6 0.5 V 24 z" stroke-linecap="round" />
</g>
<g transform="matrix(4.17 0 0 4.17 200 258.33)" id="surface1"  >
<path style="stroke: none; stroke-width: 1; stroke-dasharray: none; stroke-linecap: butt; stroke-dashoffset: 0; stroke-linejoin: miter; stroke-miterlimit: 4; fill: rgb(255,158,128); fill-rule: nonzero; opacity: 1;"  transform=" translate(-24, -38)" d="M 8 35 h 32 v 6 H 8 V 35 z" stroke-linecap="round" />
</g>
<g transform="matrix(4.17 0 0 4.17 200 241.67)" id="surface1"  >
<path style="stroke: none; stroke-width: 1; stroke-dasharray: none; stroke-linecap: butt; stroke-dashoffset: 0; stroke-linejoin: miter; stroke-miterlimit: 4; fill: rgb(137,32,7); fill-rule: nonzero; opacity: 1;"  transform=" translate(-24, -34)" d="M 31 41 v -7 c 0 -3.9 -3.1 -7 -7 -7 s -7 3.1 -7 7 v 7 H 31 z" stroke-linecap="round" />
</g>
</svg>