<?xml version="1.0" encoding="UTF-8" standalone="no" ?>
<!DOCTYPE svg PUBLIC "-//W3C//DTD SVG 1.1//EN" "http://www.w3.org/Graphics/SVG/1.1/DTD/svg11.dtd">
<svg xmlns="http://www.w3.org/2000/svg" xmlns:xlink="http://www.w3.org/1999/xlink" version="1.1" width="400" height="400" viewBox="0 0 400 400" xml:space="preserve">
<desc>Created with Fabric.js 3.6.2</desc>
<defs>
</defs>
<g transform="matrix(4.17 0 0 4.17 199.58 158.61)" id="surface1"  >
<path style="stroke: none; stroke-width: 1; stroke-dasharray: none; stroke-linecap: butt; stroke-dashoffset: 0; stroke-linejoin: miter; stroke-miterlimit: 4; fill: rgb(93,64,55); fill-rule: nonzero; opacity: 1;"  transform=" translate(-23.9, -14.07)" d="M 23.9 19.2 L 17 15.7 v -3.1 l -2.7 -1.7 c -0.5 -0.3 -0.6 -0.9 -0.3 -1.4 c 0.3 -0.5 0.9 -0.6 1.4 -0.3 l 3.6 2.3 v 2.9 l 4.9 2.5 l 5.1 -2.6 v -2.9 l 3.4 -2.3 c 0.5 -0.3 1.1 -0.2 1.4 0.3 c 0.3 0.5 0.2 1.1 -0.3 1.4 L 31 12.5 v 3.1 l -6.6 3.3 L 23.9 19.2 z" stroke-linecap="round" />
</g>
<g transform="matrix(4.17 0 0 4.17 199.65 218.95)" id="surface1"  >
<path style="stroke: none; stroke-width: 1; stroke-dasharray: none; stroke-linecap: butt; stroke-dashoffset: 0; stroke-linejoin: miter; stroke-miterlimit: 4; fill: rgb(121,85,72); fill-rule: nonzero; opacity: 1;"  transform=" translate(-23.92, -28.55)" d="M 34 38 c -0.3 0 -0.6 -0.1 -0.8 -0.4 l -4 -5 C 29.1 32.4 29 32.2 29 32 v -3.6 L 25.6 25 h -3.2 L 19 28.4 V 32 c 0 0.2 -0.1 0.4 -0.2 0.6 l -4 5 c -0.3 0.4 -1 0.5 -1.4 0.2 c -0.4 -0.3 -0.5 -1 -0.2 -1.4 l 3.8 -4.7 V 28 c 0 -0.3 0.1 -0.5 0.3 -0.7 l 4 -4 c 0.2 -0.2 0.4 -0.3 0.7 -0.3 h 4 c 0.3 0 0.5 0.1 0.7 0.3 l 4 4 c 0.2 0.2 0.3 0.4 0.3 0.7 v 3.6 l 3.8 4.7 c 0.3 0.4 0.3 1.1 -0.2 1.4 C 34.4 37.9 34.2 38 34 38 z M 36 27 c -0.1 0 -0.2 0 -0.2 0 l -4 -1 c -0.2 0 -0.3 -0.1 -0.5 -0.3 l -4.6 -4.6 l -2.4 0.8 c -0.2 0.1 -0.4 0.1 -0.6 0 l -2.4 -0.8 l -4.6 4.6 c -0.1 0.1 -0.3 0.2 -0.5 0.3 l -4 1 c -0.5 0.1 -1.1 -0.2 -1.2 -0.7 c -0.1 -0.5 0.2 -1.1 0.7 -1.2 l 3.7 -0.9 l 4.8 -4.8 c 0.3 -0.3 0.7 -0.4 1 -0.2 l 2.7 0.9 l 2.7 -0.9 c 0.4 -0.1 0.8 0 1 0.2 l 4.8 4.8 l 3.7 0.9 c 0.5 0.1 0.9 0.7 0.7 1.2 C 36.9 26.7 36.4 27 36 27 z" stroke-linecap="round" />
</g>
<g transform="matrix(4.17 0 0 4.17 200 231.25)" id="surface1"  >
<path style="stroke: none; stroke-width: 1; stroke-dasharray: none; stroke-linecap: butt; stroke-dashoffset: 0; stroke-linejoin: miter; stroke-miterlimit: 4; fill: rgb(93,64,55); fill-rule: nonzero; opacity: 1;"  transform=" translate(-24, -31.5)" d="M 28 27 c 0 2.5 -1.3 14 -4 14 s -4 -11.5 -4 -14 s 1 -5 4 -5 S 28 24.5 28 27 z" stroke-linecap="round" />
</g>
<g transform="matrix(4.17 0 0 4.17 200 244.38)" id="surface1"  >
<path style="stroke: none; stroke-width: 1; stroke-dasharray: none; stroke-linecap: butt; stroke-dashoffset: 0; stroke-linejoin: miter; stroke-miterlimit: 4; fill: rgb(255,193,7); fill-rule: nonzero; opacity: 1;"  transform=" translate(-24, -34.65)" d="M 26.9 35.6 c 0.2 -0.7 0.3 -1.5 0.4 -2.3 c -0.9 0.3 -2 0.6 -3.3 0.6 s -2.4 -0.3 -3.3 -0.6 c 0.1 0.8 0.3 1.5 0.4 2.3 C 22 35.8 22.9 36 24 36 S 26 35.8 26.9 35.6 z" stroke-linecap="round" />
</g>
<g transform="matrix(4.17 0 0 4.17 200 211.04)" id="surface1"  >
<path style="stroke: none; stroke-width: 1; stroke-dasharray: none; stroke-linecap: butt; stroke-dashoffset: 0; stroke-linejoin: miter; stroke-miterlimit: 4; fill: rgb(255,193,7); fill-rule: nonzero; opacity: 1;"  transform=" translate(-24, -26.65)" d="M 27.8 25.2 C 26.9 25.6 25.6 26 24 26 s -2.9 -0.4 -3.8 -0.8 C 20.1 25.8 20 26.4 20 27 c 0 0.1 0 0.2 0 0.3 c 1.1 0.4 2.4 0.8 4 0.8 s 2.9 -0.3 4 -0.8 c 0 -0.1 0 -0.2 0 -0.3 C 28 26.4 27.9 25.8 27.8 25.2 z" stroke-linecap="round" />
</g>
<g transform="matrix(4.17 0 0 4.17 200 227.29)" id="surface1"  >
<path style="stroke: none; stroke-width: 1; stroke-dasharray: none; stroke-linecap: butt; stroke-dashoffset: 0; stroke-linejoin: miter; stroke-miterlimit: 4; fill: rgb(255,193,7); fill-rule: nonzero; opacity: 1;"  transform=" translate(-24, -30.55)" d="M 24 30 c -1.6 0 -2.9 -0.4 -3.9 -0.9 c 0.1 0.7 0.1 1.4 0.3 2.3 c 1 0.3 2.2 0.6 3.6 0.6 s 2.6 -0.3 3.6 -0.6 c 0.1 -0.8 0.2 -1.6 0.3 -2.3 C 26.9 29.6 25.6 30 24 30 z" stroke-linecap="round" />
</g>
<g transform="matrix(4.17 0 0 4.17 200 170.83)" id="surface1"  >
<path style="stroke: none; stroke-width: 1; stroke-dasharray: none; stroke-linecap: butt; stroke-dashoffset: 0; stroke-linejoin: miter; stroke-miterlimit: 4; fill: rgb(144,202,249); fill-rule: nonzero; opacity: 1;"  transform=" translate(-24, -17)" d="M 35 22 c -4.6 0 -8.9 -1 -9 -1 c -0.5 -0.1 0 -3.2 0.2 -3.3 C 26.5 17.4 35 12 44.1 12 c 0.9 0 1.9 0.7 1.9 1.7 C 46 16.9 42 22 35 22 z M 2 13.7 C 2 12.7 3 12 3.9 12 c 9.2 0 16.8 5 17.2 5.2 c 0.2 0.2 1.5 3.7 1 3.8 c -0.1 0 -4.4 1 -9 1 C 6 22 2 16.9 2 13.7 z" stroke-linecap="round" />
</g>
<g transform="matrix(4.17 0 0 4.17 200 168.54)" id="surface1"  >
<path style="stroke: none; stroke-width: 1; stroke-dasharray: none; stroke-linecap: butt; stroke-dashoffset: 0; stroke-linejoin: miter; stroke-miterlimit: 4; fill: rgb(66,165,245); fill-rule: nonzero; opacity: 1;"  transform=" translate(-24, -16.45)" d="M 25.9 20.9 c -0.2 -0.7 0.9 -3.5 1.1 -3.6 C 27.3 17 35 12 44.1 12 C 35 12 27.3 19.8 27 20 C 26.8 20.1 26 20.6 25.9 20.9 z M 22.1 20.9 c 0.2 -0.7 -0.9 -3.5 -1.1 -3.6 C 20.7 17 13 12 3.9 12 c 9.2 0 16.8 7.8 17.1 8 C 21.2 20.1 22 20.6 22.1 20.9 z" stroke-linecap="round" />
</g>
<g transform="matrix(4.17 0 0 4.17 200 179.17)" id="surface1"  >
<path style="stroke: none; stroke-width: 1; stroke-dasharray: none; stroke-linecap: butt; stroke-dashoffset: 0; stroke-linejoin: miter; stroke-miterlimit: 4; fill: rgb(121,85,72); fill-rule: nonzero; opacity: 1;"  transform=" translate(-24, -19)" d="M 28 18 c 0 2.8 -1.8 5 -4 5 s -4 -2.2 -4 -5 c 0 -1.7 1.8 -3 4 -3 S 28 16.3 28 18 z" stroke-linecap="round" />
</g>
<g transform="matrix(4.17 0 0 4.17 200 154.17)" id="surface1"  >
<path style="stroke: none; stroke-width: 1; stroke-dasharray: none; stroke-linecap: butt; stroke-dashoffset: 0; stroke-linejoin: miter; stroke-miterlimit: 4; fill: rgb(141,110,99); fill-rule: nonzero; opacity: 1;"  transform=" translate(-24, -13)" d="M 27 14 c 0 1.1 -1.3 2 -3 2 s -3 -0.9 -3 -2 s 1.3 -4 3 -4 S 27 12.9 27 14 z" stroke-linecap="round" />
</g>
<g transform="matrix(4.17 0 0 4.17 200 139.64)" id="surface1"  >
<path style="stroke: none; stroke-width: 1; stroke-dasharray: none; stroke-linecap: butt; stroke-dashoffset: 0; stroke-linejoin: miter; stroke-miterlimit: 4; fill: rgb(121,85,72); fill-rule: nonzero; opacity: 1;"  transform=" translate(-24, -9.51)" d="M 25 12 c -0.1 0 -0.2 0 -0.3 -0.1 C 24.3 11.8 24 11.5 24 11 c 0 0.4 -0.2 0.7 -0.6 0.9 c -0.5 0.2 -1.1 0 -1.3 -0.5 c 0 -0.1 -0.6 -1 -2.7 -2.6 c -0.4 -0.3 -0.5 -1 -0.2 -1.4 c 0.3 -0.4 1 -0.5 1.4 -0.2 c 2.6 2 3.2 3.2 3.3 3.4 C 24 10.7 24 10.8 24 11 c 0 -0.1 0 -0.2 0.1 -0.3 c 0.1 -0.3 0.6 -1.5 3.3 -3.5 c 0.4 -0.3 1.1 -0.2 1.4 0.2 c 0.3 0.4 0.2 1.1 -0.2 1.4 c -2.3 1.7 -2.7 2.6 -2.7 2.6 C 25.8 11.8 25.4 12 25 12 z" stroke-linecap="round" />
</g>
</svg>