<?xml version="1.0" encoding="UTF-8" standalone="no" ?>
<!DOCTYPE svg PUBLIC "-//W3C//DTD SVG 1.1//EN" "http://www.w3.org/Graphics/SVG/1.1/DTD/svg11.dtd">
<svg xmlns="http://www.w3.org/2000/svg" xmlns:xlink="http://www.w3.org/1999/xlink" version="1.1" width="400" height="400" viewBox="0 0 400 400" xml:space="preserve">
<desc>Created with Fabric.js 3.6.2</desc>
<defs>
</defs>
<g transform="matrix(4.17 0 0 4.17 200 245.83)" id="surface1"  >
<path style="stroke: none; stroke-width: 1; stroke-dasharray: none; stroke-linecap: butt; stroke-dashoffset: 0; stroke-linejoin: miter; stroke-miterlimit: 4; fill: rgb(232,148,25); fill-rule: nonzero; opacity: 1;"  transform=" translate(-24, -35)" d="M 41 32 l -17 -6 L 7 32 v 12 h 34 V 32 z" stroke-linecap="round" />
</g>
<g transform="matrix(4.17 0 0 4.17 200 133.33)" id="surface1"  >
<path style="stroke: none; stroke-width: 1; stroke-dasharray: none; stroke-linecap: butt; stroke-dashoffset: 0; stroke-linejoin: miter; stroke-miterlimit: 4; fill: rgb(255,193,7); fill-rule: nonzero; opacity: 1;"  transform=" translate(-24, -8)" d="M 23 3 h 2 v 10 h -2 V 3 z" stroke-linecap="round" />
</g>
<g transform="matrix(4.17 0 0 4.17 200 125)" id="surface1"  >
<path style="stroke: none; stroke-width: 1; stroke-dasharray: none; stroke-linecap: butt; stroke-dashoffset: 0; stroke-linejoin: miter; stroke-miterlimit: 4; fill: rgb(255,193,7); fill-rule: nonzero; opacity: 1;"  transform=" translate(-24, -6)" d="M 21 5 h 6 v 2 h -6 V 5 z" stroke-linecap="round" />
</g>
<g transform="matrix(4.17 0 0 4.17 154.17 258.33)" id="surface1"  >
<path style="stroke: none; stroke-width: 1; stroke-dasharray: none; stroke-linecap: butt; stroke-dashoffset: 0; stroke-linejoin: miter; stroke-miterlimit: 4; fill: rgb(255,183,77); fill-rule: nonzero; opacity: 1;"  transform=" translate(-13, -38)" d="M 17 37 c 0 -2.7 -4 -5 -4 -5 s -4 2.3 -4 5 s 0 7 0 7 h 8 C 17 44 17 39.7 17 37 z" stroke-linecap="round" />
</g>
<g transform="matrix(4.17 0 0 4.17 245.83 258.33)" id="surface1"  >
<path style="stroke: none; stroke-width: 1; stroke-dasharray: none; stroke-linecap: butt; stroke-dashoffset: 0; stroke-linejoin: miter; stroke-miterlimit: 4; fill: rgb(255,183,77); fill-rule: nonzero; opacity: 1;"  transform=" translate(-35, -38)" d="M 39 37 c 0 -2.7 -4 -5 -4 -5 s -4 2.3 -4 5 s 0 7 0 7 h 8 C 39 44 39 39.7 39 37 z" stroke-linecap="round" />
</g>
<g transform="matrix(4.17 0 0 4.17 200 231.25)" id="surface1"  >
<path style="stroke: none; stroke-width: 1; stroke-dasharray: none; stroke-linecap: butt; stroke-dashoffset: 0; stroke-linejoin: miter; stroke-miterlimit: 4; fill: rgb(255,183,77); fill-rule: nonzero; opacity: 1;"  transform=" translate(-24, -31.5)" d="M 29 44 H 19 V 24 l 5 -5 l 5 5 V 44 z" stroke-linecap="round" />
</g>
<g transform="matrix(4.17 0 0 4.17 200 172.92)" id="surface1"  >
<path style="stroke: none; stroke-width: 1; stroke-dasharray: none; stroke-linecap: butt; stroke-dashoffset: 0; stroke-linejoin: miter; stroke-miterlimit: 4; fill: rgb(230,74,25); fill-rule: nonzero; opacity: 1;"  transform=" translate(-24, -17.5)" d="M 23 11 h 2 l 4 13 l -5 -5 l -5 5 L 23 11 z" stroke-linecap="round" />
</g>
<g transform="matrix(4.17 0 0 4.17 151.25 222.71)" id="surface1"  >
<path style="stroke: none; stroke-width: 1; stroke-dasharray: none; stroke-linecap: butt; stroke-dashoffset: 0; stroke-linejoin: miter; stroke-miterlimit: 4; fill: rgb(191,54,12); fill-rule: nonzero; opacity: 1;"  transform=" translate(-12.3, -29.45)" d="M 19 25.9 L 5.6 31.1 l 0.7 1.9 L 19 28 V 25.9 z" stroke-linecap="round" />
</g>
<g transform="matrix(4.17 0 0 4.17 248.54 222.5)" id="surface1"  >
<path style="stroke: none; stroke-width: 1; stroke-dasharray: none; stroke-linecap: butt; stroke-dashoffset: 0; stroke-linejoin: miter; stroke-miterlimit: 4; fill: rgb(191,54,12); fill-rule: nonzero; opacity: 1;"  transform=" translate(-35.65, -29.4)" d="M 29 25.9 V 28 l 12.6 4.9 l 0.7 -1.9 L 29 25.9 z" stroke-linecap="round" />
</g>
<g transform="matrix(4.17 0 0 4.17 200 186.04)" id="surface1"  >
<polygon style="stroke: none; stroke-width: 1; stroke-dasharray: none; stroke-linecap: butt; stroke-dashoffset: 0; stroke-linejoin: miter; stroke-miterlimit: 4; fill: rgb(191,54,12); fill-rule: nonzero; opacity: 1;"  points="5.3,4.05 0,-1.25 -5.3,4.05 -6.7,2.65 0,-4.05 6.7,2.65 " />
</g>
<g transform="matrix(4.17 0 0 4.17 154.17 245.83)" id="surface1"  >
<path style="stroke: none; stroke-width: 1; stroke-dasharray: none; stroke-linecap: butt; stroke-dashoffset: 0; stroke-linejoin: miter; stroke-miterlimit: 4; fill: rgb(128,90,38); fill-rule: nonzero; opacity: 1;"  transform=" translate(-13, -35)" d="M 14 35 c 0 0.6 -0.4 1 -1 1 s -1 -0.4 -1 -1 s 0.4 -1 1 -1 S 14 34.4 14 35 z" stroke-linecap="round" />
</g>
<g transform="matrix(4.17 0 0 4.17 145.83 268.75)" id="surface1"  >
<path style="stroke: none; stroke-width: 1; stroke-dasharray: none; stroke-linecap: butt; stroke-dashoffset: 0; stroke-linejoin: miter; stroke-miterlimit: 4; fill: rgb(128,90,38); fill-rule: nonzero; opacity: 1;"  transform=" translate(-11, -40.5)" d="M 12 39 c 0 -1 -1 -2 -1 -2 s -1 1 -1 2 s 0 5 0 5 h 2 C 12 44 12 40 12 39 z" stroke-linecap="round" />
</g>
<g transform="matrix(4.17 0 0 4.17 162.5 268.75)" id="surface1"  >
<path style="stroke: none; stroke-width: 1; stroke-dasharray: none; stroke-linecap: butt; stroke-dashoffset: 0; stroke-linejoin: miter; stroke-miterlimit: 4; fill: rgb(128,90,38); fill-rule: nonzero; opacity: 1;"  transform=" translate(-15, -40.5)" d="M 16 39 c 0 -1 -1 -2 -1 -2 s -1 1 -1 2 s 0 5 0 5 h 2 C 16 44 16 40 16 39 z" stroke-linecap="round" />
</g>
<g transform="matrix(4.17 0 0 4.17 245.83 245.83)" id="surface1"  >
<path style="stroke: none; stroke-width: 1; stroke-dasharray: none; stroke-linecap: butt; stroke-dashoffset: 0; stroke-linejoin: miter; stroke-miterlimit: 4; fill: rgb(128,90,38); fill-rule: nonzero; opacity: 1;"  transform=" translate(-35, -35)" d="M 36 35 c 0 0.6 -0.4 1 -1 1 s -1 -0.4 -1 -1 s 0.4 -1 1 -1 S 36 34.4 36 35 z" stroke-linecap="round" />
</g>
<g transform="matrix(4.17 0 0 4.17 237.5 268.75)" id="surface1"  >
<path style="stroke: none; stroke-width: 1; stroke-dasharray: none; stroke-linecap: butt; stroke-dashoffset: 0; stroke-linejoin: miter; stroke-miterlimit: 4; fill: rgb(128,90,38); fill-rule: nonzero; opacity: 1;"  transform=" translate(-33, -40.5)" d="M 34 39 c 0 -1 -1 -2 -1 -2 s -1 1 -1 2 s 0 5 0 5 h 2 C 34 44 34 40 34 39 z" stroke-linecap="round" />
</g>
<g transform="matrix(4.17 0 0 4.17 254.17 268.75)" id="surface1"  >
<path style="stroke: none; stroke-width: 1; stroke-dasharray: none; stroke-linecap: butt; stroke-dashoffset: 0; stroke-linejoin: miter; stroke-miterlimit: 4; fill: rgb(128,90,38); fill-rule: nonzero; opacity: 1;"  transform=" translate(-37, -40.5)" d="M 38 39 c 0 -1 -1 -2 -1 -2 s -1 1 -1 2 s 0 5 0 5 h 2 C 38 44 38 40 38 39 z" stroke-linecap="round" />
</g>
<g transform="matrix(4.17 0 0 4.17 200 204.17)" id="surface1"  >
<path style="stroke: none; stroke-width: 1; stroke-dasharray: none; stroke-linecap: butt; stroke-dashoffset: 0; stroke-linejoin: miter; stroke-miterlimit: 4; fill: rgb(128,90,38); fill-rule: nonzero; opacity: 1;"  transform=" translate(-24, -25)" d="M 26 25 c 0 1.1 -0.9 2 -2 2 s -2 -0.9 -2 -2 s 0.9 -2 2 -2 S 26 23.9 26 25 z" stroke-linecap="round" />
</g>
<g transform="matrix(4.17 0 0 4.17 200 264.58)" id="surface1"  >
<path style="stroke: none; stroke-width: 1; stroke-dasharray: none; stroke-linecap: butt; stroke-dashoffset: 0; stroke-linejoin: miter; stroke-miterlimit: 4; fill: rgb(128,90,38); fill-rule: nonzero; opacity: 1;"  transform=" translate(-24, -39.5)" d="M 27 39 c 0 -2 -3 -4 -3 -4 s -3 2 -3 4 s 0 5 0 5 h 6 C 27 44 27 41 27 39 z" stroke-linecap="round" />
</g>
</svg>