<?xml version="1.0" encoding="UTF-8" standalone="no" ?>
<!DOCTYPE svg PUBLIC "-//W3C//DTD SVG 1.1//EN" "http://www.w3.org/Graphics/SVG/1.1/DTD/svg11.dtd">
<svg xmlns="http://www.w3.org/2000/svg" xmlns:xlink="http://www.w3.org/1999/xlink" version="1.1" width="400" height="400" viewBox="0 0 400 400" xml:space="preserve">
<desc>Created with Fabric.js 3.6.2</desc>
<defs>
</defs>
<g transform="matrix(4.17 0 0 4.17 162.74 207.92)" id="Layer_1"  >
<path style="stroke: none; stroke-width: 1; stroke-dasharray: none; stroke-linecap: butt; stroke-dashoffset: 0; stroke-linejoin: miter; stroke-miterlimit: 4; fill: rgb(255,186,87); fill-rule: nonzero; opacity: 1;"  transform=" translate(-15.06, -25.9)" d="M 20.7 30.8 c -0.2 0 -0.5 -0.1 -0.7 -0.2 l -5.7 -2.3 c -0.1 -0.1 -0.3 -0.2 -0.4 -0.3 L 8 24 l 2 -3 l 5.9 4.8 l 5.4 2.2 c 0.7 0.4 1 1.3 0.7 2 C 21.7 30.5 21.2 30.8 20.7 30.8 z" stroke-linecap="round" />
</g>
<g transform="matrix(4.17 0 0 4.17 149.79 202.71)" id="Layer_1"  >
<path style="stroke: none; stroke-width: 1; stroke-dasharray: none; stroke-linecap: butt; stroke-dashoffset: 0; stroke-linejoin: miter; stroke-miterlimit: 4; fill: rgb(230,74,25); fill-rule: nonzero; opacity: 1;"  transform=" translate(-11.95, -24.65)" d="M 14.3 28.3 c -0.1 -0.1 -0.3 -0.2 -0.4 -0.3 L 8 24 l 2 -3 l 5.9 4.8 L 14.3 28.3 z" stroke-linecap="round" />
</g>
<g transform="matrix(4.17 0 0 4.17 200 200)" id="Layer_1"  >
<path style="stroke: none; stroke-width: 1; stroke-dasharray: none; stroke-linecap: butt; stroke-dashoffset: 0; stroke-linejoin: miter; stroke-miterlimit: 4; fill: rgb(94,192,143); fill-rule: nonzero; opacity: 1;"  transform=" translate(-24, -24)" d="M 46 9 h -0.3 c -0.6 0 -1.1 0.2 -1.5 0.5 C 43.8 9.7 43.4 9.9 43 10 H 29 c 0 10 0 17 0 17.5 c 0 1.8 -0.7 3.6 -2.4 4.2 c -0.5 0.2 -1 0.3 -1.6 0.3 H 1 v 7 h 34.7 c 1.8 0 3.3 -0.7 4.5 -1.8 c 2.3 -2.1 2.4 -5.6 0.6 -8.1 C 39.7 27.7 37 24.8 37 20 c 0 -2.6 3 -3 6 -3 c 1.6 0 3 2 3 2 v -3 c 0 -0.6 -0.4 -1.1 -1 -1.2 l 0 -1.1 c 1.2 -0.3 2 -1.4 2 -2.7 v -1 C 47 10 47 9 46 9 z" stroke-linecap="round" />
</g>
<g transform="matrix(4.17 0 0 4.17 200 266.67)" id="Layer_1"  >
<path style="stroke: none; stroke-width: 1; stroke-dasharray: none; stroke-linecap: butt; stroke-dashoffset: 0; stroke-linejoin: miter; stroke-miterlimit: 4; fill: rgb(126,140,207); fill-rule: nonzero; opacity: 1;"  transform=" translate(-24, -40)" d="M 4 36 c 0 0 1 2 4 2 s 4 -2 4 -2 s 1 2 4 2 s 4 -2 4 -2 s 1 2 4 2 s 4 -2 4 -2 s 1 2 4 2 s 4 -2 4 -2 s 1 2 4 2 s 4 -2 4 -2 s 0.8 1.5 3 1.9 V 44 H 1 v -6.1 C 3.2 37.5 4 36 4 36 z" stroke-linecap="round" />
</g>
<g transform="matrix(4.17 0 0 4.17 143.75 160.42)" id="Layer_1"  >
<path style="stroke: none; stroke-width: 1; stroke-dasharray: none; stroke-linecap: butt; stroke-dashoffset: 0; stroke-linejoin: miter; stroke-miterlimit: 4; fill: rgb(255,186,87); fill-rule: nonzero; opacity: 1;"  transform=" translate(-10.5, -14.5)" d="M 10.5 11 c 1.9 0 3.5 1.6 3.5 3.5 c 0 1.9 -1.6 3.5 -3.5 3.5 S 7 16.4 7 14.5 C 7 12.6 8.6 11 10.5 11" stroke-linecap="round" />
</g>
<g transform="matrix(0.37 -4.15 4.15 0.37 191.16 221.35)" id="Layer_1"  >
<rect style="stroke: none; stroke-width: 1; stroke-dasharray: none; stroke-linecap: butt; stroke-dashoffset: 0; stroke-linejoin: miter; stroke-miterlimit: 4; fill: rgb(69,90,100); fill-rule: nonzero; opacity: 1;"  x="-13.1" y="-1" rx="0" ry="0" width="26.2" height="2" />
</g>
<g transform="matrix(4.17 0 0 4.17 166.21 183.38)" id="Layer_1"  >
<path style="stroke: none; stroke-width: 1; stroke-dasharray: none; stroke-linecap: butt; stroke-dashoffset: 0; stroke-linejoin: miter; stroke-miterlimit: 4; fill: rgb(255,186,87); fill-rule: nonzero; opacity: 1;"  transform=" translate(-15.89, -20.01)" d="M 7.9 20.5 l 8.2 -1.6 l 5.6 -3.7 c 0.7 -0.4 1.6 -0.1 2 0.6 c 0.4 0.7 0.1 1.6 -0.6 2 l -5.8 3.8 c -0.1 0.1 -0.3 0.1 -0.4 0.2 L 9 25 L 7.9 20.5 z" stroke-linecap="round" />
</g>
<g transform="matrix(4.17 0 0 4.17 138.13 206.04)" id="Layer_1"  >
<path style="stroke: none; stroke-width: 1; stroke-dasharray: none; stroke-linecap: butt; stroke-dashoffset: 0; stroke-linejoin: miter; stroke-miterlimit: 4; fill: rgb(255,117,76); fill-rule: nonzero; opacity: 1;"  transform=" translate(-9.15, -25.45)" d="M 1 32 l 3.8 -9.8 C 5.3 20.9 6.6 20 7.9 20 c 0.2 0 1.6 0 2.7 0 l 5.5 -1.1 l 1.2 2.7 c -0.1 0.1 -0.3 0.1 -0.4 0.2 L 11.6 24 c 0 0.1 -0.1 0.2 -0.1 0.3 L 8 32 H 1 z" stroke-linecap="round" />
</g>
<g transform="matrix(4.17 0 0 4.17 200 270.83)" id="Layer_1"  >
<path style="stroke: none; stroke-width: 1; stroke-dasharray: none; stroke-linecap: butt; stroke-dashoffset: 0; stroke-linejoin: miter; stroke-miterlimit: 4; fill: rgb(197,202,233); fill-rule: nonzero; opacity: 1;"  transform=" translate(-24, -41)" d="M 4 38 c 0 0 1 2 4 2 s 4 -2 4 -2 s 1 2 4 2 s 4 -2 4 -2 s 1 2 4 2 s 4 -2 4 -2 s 1 2 4 2 s 4 -2 4 -2 s 1 2 4 2 s 4 -2 4 -2 s 0.8 1.5 3 1.9 V 44 H 1 v -4.1 C 3.2 39.5 4 38 4 38 z" stroke-linecap="round" />
</g>
<g transform="matrix(4.17 0 0 4.17 237.5 158.33)" id="Layer_1"  >
<path style="stroke: none; stroke-width: 1; stroke-dasharray: none; stroke-linecap: butt; stroke-dashoffset: 0; stroke-linejoin: miter; stroke-miterlimit: 4; fill: rgb(65,165,113); fill-rule: nonzero; opacity: 1;"  transform=" translate(-33, -14)" d="M 32 14 c 0 -1.7 1.3 -3 3 -3 h 4 c 0.5 0 1 -0.4 1 -1 V 9 c 0 -1.1 -0.9 -2 -2 -2 h -7 c -4 0 -7 -2 -7 -2 s 1 4 5 5 c 0 0 -2 2 -6 2 c 0 0 2 3 6 3 c 0 3 -3 4 -3 4 s 4.8 2.8 7 -1 c 0 4 -1 5 -1 5 s 4 0 5.3 -4 c 0.3 -0.9 1.7 -2 5.7 -2 h -8 C 33.3 17 32 15.7 32 14 z" stroke-linecap="round" />
</g>
<g transform="matrix(4.17 0 0 4.17 277.08 158.33)" id="Layer_1"  >
<path style="stroke: none; stroke-width: 1; stroke-dasharray: none; stroke-linecap: butt; stroke-dashoffset: 0; stroke-linejoin: miter; stroke-miterlimit: 4; fill: rgb(255,61,0); fill-rule: nonzero; opacity: 1;"  transform=" translate(-42.5, -14)" d="M 46 15 h -7 c -0.5 0 -1 -0.4 -1 -1 l 0 0 c 0 -0.6 0.5 -1 1 -1 h 7 c 0.5 0 1 0.4 1 1 l 0 0 C 47 14.6 46.5 15 46 15 z" stroke-linecap="round" />
</g>
<g transform="matrix(4.17 0 0 4.17 251.04 141.67)" id="Layer_1"  >
<path style="stroke: none; stroke-width: 1; stroke-dasharray: none; stroke-linecap: butt; stroke-dashoffset: 0; stroke-linejoin: miter; stroke-miterlimit: 4; fill: rgb(255,234,0); fill-rule: nonzero; opacity: 1;"  transform=" translate(-36.25, -10)" d="M 35 11 c 0 0 2 0 2.5 0 l 0 -2 C 35 9 35 11 35 11 z" stroke-linecap="round" />
</g>
<g transform="matrix(4.17 0 0 4.17 256.25 141.67)" id="Layer_1"  >
<path style="stroke: none; stroke-width: 1; stroke-dasharray: none; stroke-linecap: butt; stroke-dashoffset: 0; stroke-linejoin: miter; stroke-miterlimit: 4; fill: rgb(33,33,33); fill-rule: nonzero; opacity: 1;"  transform=" translate(-37.5, -10)" d="M 37 10 c 0 0.6 0.5 1 0.5 1 s 0.5 -0.4 0.5 -1 s -0.5 -1 -0.5 -1 S 37 9.4 37 10 z" stroke-linecap="round" />
</g>
<g transform="matrix(4.17 0 0 4.17 291.67 145.83)" id="Layer_1"  >
<path style="stroke: none; stroke-width: 1; stroke-dasharray: none; stroke-linecap: butt; stroke-dashoffset: 0; stroke-linejoin: miter; stroke-miterlimit: 4; fill: rgb(38,50,56); fill-rule: nonzero; opacity: 1;"  transform=" translate(-46, -11)" d="M 45 12 c 0 0 1.2 0 1.8 0 c 0.1 -0.3 0.2 -0.6 0.2 -1 v -1 C 46 10 45 12 45 12 z" stroke-linecap="round" />
</g>
</svg>