<?xml version="1.0" encoding="UTF-8" standalone="no" ?>
<!DOCTYPE svg PUBLIC "-//W3C//DTD SVG 1.1//EN" "http://www.w3.org/Graphics/SVG/1.1/DTD/svg11.dtd">
<svg xmlns="http://www.w3.org/2000/svg" xmlns:xlink="http://www.w3.org/1999/xlink" version="1.1" width="400" height="400" viewBox="0 0 400 400" xml:space="preserve">
<desc>Created with Fabric.js 3.6.2</desc>
<defs>
</defs>
<g transform="matrix(4.17 0 0 4.17 200 210.78)" id="surface1"  >
<path style="stroke: none; stroke-width: 1; stroke-dasharray: none; stroke-linecap: butt; stroke-dashoffset: 0; stroke-linejoin: miter; stroke-miterlimit: 4; fill: rgb(121,134,203); fill-rule: nonzero; opacity: 1;"  transform=" translate(-24, -26.59)" d="M 40 15 C 21.1 34.3 13 42.5 4 41 c 14.7 -7.5 33 -29 33 -29 S 39.5 12.7 40 15 z M 8 15 c 18.9 19.3 27 27.5 36 26 c -14.7 -7.5 -33 -29 -33 -29 S 8.5 12.7 8 15 z" stroke-linecap="round" />
</g>
<g transform="matrix(4.17 0 0 4.17 200 239.58)" id="surface1"  >
<path style="stroke: none; stroke-width: 1; stroke-dasharray: none; stroke-linecap: butt; stroke-dashoffset: 0; stroke-linejoin: miter; stroke-miterlimit: 4; fill: rgb(188,170,164); fill-rule: nonzero; opacity: 1;"  transform=" translate(-24, -33.5)" d="M 26 40 h -4 c -1.1 0 -5 -5 -5 -7 v -4 c 0 -1.1 0.9 -2 2 -2 h 10 c 1.1 0 2 0.9 2 2 v 4 C 31 35.1 27.1 40 26 40 z" stroke-linecap="round" />
</g>
<g transform="matrix(4.17 0 0 4.17 200 150)" id="surface1"  >
<path style="stroke: none; stroke-width: 1; stroke-dasharray: none; stroke-linecap: butt; stroke-dashoffset: 0; stroke-linejoin: miter; stroke-miterlimit: 4; fill: rgb(57,73,171); fill-rule: nonzero; opacity: 1;"  transform=" translate(-24, -12)" d="M 41 18 c -0.6 0 -1 -0.4 -1 -1 c 0 -2.8 -2.2 -5 -5 -5 c -0.6 0 -1 -0.4 -1 -1 s 0.4 -1 1 -1 c 1.3 0 2.5 0.4 3.6 1 l 4.7 -4.7 c 0.1 -0.1 0.1 -0.1 0.2 -0.2 C 43.6 6.1 43.8 6 43.9 6 c 0.1 0 0.3 0 0.4 0.1 c 0.1 0 0.2 0.1 0.3 0.2 c 0.1 0.1 0.2 0.2 0.2 0.3 C 44.9 6.6 45 6.8 45 6.9 c 0 0.1 0 0.3 -0.1 0.4 c 0 0.1 -0.1 0.2 -0.1 0.2 L 41 13.3 c 0.7 1.1 1 2.3 1 3.7 C 42 17.6 41.6 18 41 18 z M 7 18 c -0.6 0 -1 -0.4 -1 -1 c 0 -1.3 0.4 -2.6 1 -3.7 L 3.2 7.6 C 3.1 7.5 3.1 7.4 3.1 7.3 C 3 7.2 3 7 3 6.9 c 0 -0.1 0.1 -0.3 0.1 -0.4 c 0.1 -0.1 0.1 -0.2 0.2 -0.3 c 0.1 -0.1 0.2 -0.1 0.3 -0.2 C 3.8 6 4 6 4.1 6 c 0.1 0 0.3 0.1 0.4 0.1 c 0 0 0 0 0 0 c 0 0 0 0 0 0 c 0.1 0 0.1 0.1 0.2 0.2 L 9.4 11 c 1.1 -0.6 2.3 -1 3.6 -1 c 0.6 0 1 0.4 1 1 s -0.4 1 -1 1 c -2.8 0 -5 2.2 -5 5 C 8 17.6 7.6 18 7 18 z" stroke-linecap="round" />
</g>
<g transform="matrix(4.17 0 0 4.17 200 129.17)" id="surface1"  >
<path style="stroke: none; stroke-width: 1; stroke-dasharray: none; stroke-linecap: butt; stroke-dashoffset: 0; stroke-linejoin: miter; stroke-miterlimit: 4; fill: rgb(92,107,192); fill-rule: nonzero; opacity: 1;"  transform=" translate(-24, -7)" d="M 4 5 c 1.1 0 2 0.9 2 2 c 0 1.1 -0.9 2 -2 2 S 2 8.1 2 7 C 2 5.9 2.9 5 4 5 z M 44 5 c -1.1 0 -2 0.9 -2 2 c 0 1.1 0.9 2 2 2 s 2 -0.9 2 -2 C 46 5.9 45.1 5 44 5 z" stroke-linecap="round" />
</g>
<g transform="matrix(4.17 0 0 4.17 200 204.17)" id="surface1"  >
<path style="stroke: none; stroke-width: 1; stroke-dasharray: none; stroke-linecap: butt; stroke-dashoffset: 0; stroke-linejoin: miter; stroke-miterlimit: 4; fill: rgb(215,204,200); fill-rule: nonzero; opacity: 1;"  transform=" translate(-24, -25)" d="M 34 19.5 c 0 -4.7 -4.9 -7.5 -9 -7.5 h -2 c -4.1 0 -9 2.8 -9 7.5 c 0 1.6 0.5 3 1.3 4.2 C 15.1 24.1 15 24.5 15 25 c 0 2.7 1.5 4.5 4 4.9 V 34 c 0 1.1 0.9 2 2 2 v 2 h 2 v -2 h 1.9 v 2 h 2 v -2 H 27 c 1.1 0 2 -0.9 2 -2 v -4.1 c 2.5 -0.4 4 -2.2 4 -4.9 c 0 -0.5 -0.1 -0.9 -0.3 -1.3 C 33.5 22.5 34 21.1 34 19.5 z" stroke-linecap="round" />
</g>
<g transform="matrix(4.17 0 0 4.17 204.17 222.92)" id="surface1"  >
<path style="stroke: none; stroke-width: 1; stroke-dasharray: none; stroke-linecap: butt; stroke-dashoffset: 0; stroke-linejoin: miter; stroke-miterlimit: 4; fill: rgb(255,61,0); fill-rule: nonzero; opacity: 1;"  transform=" translate(-25, -29.5)" d="M 34 41 c 0 1.4 1 3 1 3 s -3 -1.9 -3 -6 s -1 -4.7 -1 -7 c 0 -0.5 0 -1.1 0.1 -1.9 c 1.2 -0.9 1.9 -2.3 1.9 -4.1 c 0 -0.5 -0.1 -0.9 -0.3 -1.3 c 0.6 -0.8 0.9 -1.7 1.2 -2.7 H 34 c 0 0 2 6.6 2 10 S 34 39.6 34 41 z M 14 19 v 2 c 0 0 1.3 1 10 1 s 10 -1 10 -1 v -2 c 0 0 -2.9 -4 -10 -4 S 14 19 14 19 z" stroke-linecap="round" />
</g>
<g transform="matrix(4.17 0 0 4.17 199.8 217.26)" id="surface1"  >
<path style="stroke: none; stroke-width: 1; stroke-dasharray: none; stroke-linecap: butt; stroke-dashoffset: 0; stroke-linejoin: miter; stroke-miterlimit: 4; fill: rgb(121,85,72); fill-rule: nonzero; opacity: 1;"  transform=" translate(-23.95, -28.14)" d="M 28 28 h -1.3 c -1 0 -1.8 -0.8 -1.8 -1.8 v -0.6 c 0 -0.6 0.2 -1.7 1.1 -1.7 s 4.9 -0.1 4.9 1 C 31 27.6 29.1 28 28 28 z M 20 28 h 1.3 c 1 0 1.8 -0.8 1.8 -1.8 v -0.6 c 0 -0.6 -0.2 -1.7 -1.1 -1.7 s -5 0 -5 1.1 C 17 27.6 18.9 28 20 28 z M 24.1 28 c -1.1 0 -1.9 2.8 -1.9 3.9 c 0 1.1 0.9 0 1.9 0 s 1.9 1.1 1.9 0 C 26 30.8 25.1 28 24.1 28 z" stroke-linecap="round" />
</g>
<g transform="matrix(4.17 0 0 4.17 199.79 245.83)" id="surface1"  >
<path style="stroke: none; stroke-width: 1; stroke-dasharray: none; stroke-linecap: butt; stroke-dashoffset: 0; stroke-linejoin: miter; stroke-miterlimit: 4; fill: rgb(239,235,233); fill-rule: nonzero; opacity: 1;"  transform=" translate(-23.95, -35)" d="M 23 36 h -2 v -2 h 2 V 36 z M 26.9 34 h -2 v 2 h 2 V 34 z" stroke-linecap="round" />
</g>
<g transform="matrix(4.17 0 0 4.17 202.08 228.04)" id="surface1"  >
<path style="stroke: none; stroke-width: 1; stroke-dasharray: none; stroke-linecap: butt; stroke-dashoffset: 0; stroke-linejoin: miter; stroke-miterlimit: 4; fill: rgb(221,44,0); fill-rule: nonzero; opacity: 1;"  transform=" translate(-24.5, -30.73)" d="M 14 20 c 0 0 0.3 -0.2 0.8 -0.5 s 1.2 -0.6 2.2 -1 c 0.9 -0.3 2 -0.6 3.3 -0.8 c 1.2 -0.2 2.5 -0.3 3.8 -0.2 c 0.6 0 1.3 0 1.9 0.1 c 0.6 0.1 1.3 0.2 1.9 0.3 c 0.6 0.1 1.2 0.2 1.7 0.4 c 0.5 0.1 1 0.3 1.5 0.4 c 0.9 0.3 1.7 0.6 2.2 0.9 C 33.7 19.8 34 20 34 20 s -0.3 0 -0.9 0 c -0.6 0 -1.4 -0.1 -2.3 -0.1 c -0.5 0 -1 -0.1 -1.5 -0.1 s -1.1 0 -1.7 -0.1 c -0.6 -0.1 -1.2 0 -1.8 -0.1 c -0.6 0 -1.2 0 -1.8 -0.1 c -0.6 0 -1.2 0 -1.8 0 c -0.6 0 -1.2 0 -1.8 0 c -0.6 0 -1.1 0 -1.7 0.1 c -0.5 0 -1 0.1 -1.5 0.1 s -0.9 0.1 -1.3 0.1 c -0.4 0 -0.7 0.1 -1 0.1 C 14.3 19.9 14 20 14 20 z M 34.4 43.2 c -0.3 -0.6 -0.6 -1.4 -0.7 -2.5 C 32.7 31.4 34 21 34 21 s -0.1 0.1 -0.2 0.3 c -0.2 0.9 -0.6 1.7 -1.1 2.4 C 32.9 24 33 24.5 33 25 c 0 1.9 -0.7 3.3 -2 4.1 v 3.7 c 0.5 1.4 1 3.1 1 5.2 c 0 4.1 3 6 3 6 S 34.7 43.7 34.4 43.2 z" stroke-linecap="round" />
</g>
<g transform="matrix(4.17 0 0 4.17 177.08 177.08)" id="surface1"  >
<path style="stroke: none; stroke-width: 1; stroke-dasharray: none; stroke-linecap: butt; stroke-dashoffset: 0; stroke-linejoin: miter; stroke-miterlimit: 4; fill: rgb(255,193,7); fill-rule: nonzero; opacity: 1;"  transform=" translate(-18.5, -18.5)" d="M 20 19.5 c 0 0.8 -0.7 1.5 -1.5 1.5 S 17 20.3 17 19.5 s 0.7 -1.5 1.5 -1.5 S 20 18.7 20 19.5 z M 18.5 17 c -0.3 0 -0.5 0.2 -0.5 0.5 s 0.2 0.5 0.5 0.5 s 0.5 -0.2 0.5 -0.5 S 18.8 17 18.5 17 z M 18.5 16 c -0.3 0 -0.5 0.2 -0.5 0.5 s 0.2 0.5 0.5 0.5 s 0.5 -0.2 0.5 -0.5 S 18.8 16 18.5 16 z" stroke-linecap="round" />
</g>
</svg>