<?xml version="1.0" encoding="UTF-8" standalone="no" ?>
<!DOCTYPE svg PUBLIC "-//W3C//DTD SVG 1.1//EN" "http://www.w3.org/Graphics/SVG/1.1/DTD/svg11.dtd">
<svg xmlns="http://www.w3.org/2000/svg" xmlns:xlink="http://www.w3.org/1999/xlink" version="1.1" width="400" height="400" viewBox="0 0 400 400" xml:space="preserve">
<desc>Created with Fabric.js 3.6.2</desc>
<defs>
</defs>
<g transform="matrix(4.17 0 0 4.17 200 200)" id="surface1"  >
<path style="stroke: none; stroke-width: 1; stroke-dasharray: none; stroke-linecap: butt; stroke-dashoffset: 0; stroke-linejoin: miter; stroke-miterlimit: 4; fill: rgb(239,108,0); fill-rule: nonzero; opacity: 1;"  transform=" translate(-24, -24)" d="M 43 25 L 43 23 L 39.898438 23 C 39.699219 19.300781 38.199219 16 35.898438 13.398438 L 38.101563 11.199219 L 36.699219 9.800781 L 34.601563 12 C 32 9.699219 28.699219 8.300781 25 8 L 25 5 L 23 5 L 23 8.101563 C 19.300781 8.300781 16 9.800781 13.398438 12.101563 L 11.199219 9.898438 L 9.800781 11.300781 L 12 13.5 C 9.699219 16.101563 8.300781 19.398438 8 23.101563 L 5 23.101563 L 5 25.101563 L 8.101563 25.101563 C 8.300781 28.800781 9.800781 32.101563 12.101563 34.699219 L 9.898438 36.898438 L 11.300781 38.300781 L 13.5 36.101563 C 16.101563 38.398438 19.398438 39.800781 23.101563 40.101563 L 23.101563 43 L 25.101563 43 L 25.101563 39.898438 C 28.800781 39.699219 32.101563 38.199219 34.699219 35.898438 L 36.898438 38.101563 L 38.300781 36.699219 L 36 34.601563 C 38.300781 32 39.699219 28.699219 40 25 Z M 35.898438 23 L 26.398438 23 L 33.101563 16.300781 C 34.699219 18.101563 35.699219 20.398438 35.898438 23 Z M 31.699219 14.800781 L 25 21.601563 L 25 12.101563 C 27.601563 12.300781 29.898438 13.300781 31.699219 14.800781 Z M 22 24 C 22 22.898438 22.898438 22 24 22 C 25.101563 22 26 22.898438 26 24 C 26 25.101563 25.101563 26 24 26 C 22.898438 26 22 25.101563 22 24 Z M 23 12.101563 L 23 21.601563 L 16.300781 14.898438 C 18.101563 13.300781 20.398438 12.300781 23 12.101563 Z M 14.800781 16.300781 L 21.5 23 L 12 23 C 12.300781 20.398438 13.300781 18.101563 14.800781 16.300781 Z M 12.101563 25 L 21.601563 25 L 14.898438 31.699219 C 13.300781 29.898438 12.300781 27.601563 12.101563 25 Z M 16.300781 33.199219 L 23 26.5 L 23 36 C 20.398438 35.699219 18.101563 34.699219 16.300781 33.199219 Z M 25 35.898438 L 25 26.398438 L 31.699219 33.101563 C 29.898438 34.699219 27.601563 35.699219 25 35.898438 Z M 33.199219 31.699219 L 26.398438 25 L 35.898438 25 C 35.699219 27.601563 34.699219 29.898438 33.199219 31.699219 Z" stroke-linecap="round" />
</g>
<g transform="matrix(4.17 0 0 4.17 200 200)" id="surface1"  >
<path style="stroke: none; stroke-width: 1; stroke-dasharray: none; stroke-linecap: butt; stroke-dashoffset: 0; stroke-linejoin: miter; stroke-miterlimit: 4; fill: rgb(255,171,0); fill-rule: nonzero; opacity: 1;"  transform=" translate(-24, -24)" d="M 24 19 C 21.199219 19 19 21.199219 19 24 C 19 26.800781 21.199219 29 24 29 C 26.800781 29 29 26.800781 29 24 C 29 21.199219 26.800781 19 24 19 Z M 24 26 C 22.898438 26 22 25.101563 22 24 C 22 22.898438 22.898438 22 24 22 C 25.101563 22 26 22.898438 26 24 C 26 25.101563 25.101563 26 24 26 Z" stroke-linecap="round" />
</g>
<g transform="matrix(4.17 0 0 4.17 200 200)" id="surface1"  >
<path style="stroke: none; stroke-width: 1; stroke-dasharray: none; stroke-linecap: butt; stroke-dashoffset: 0; stroke-linejoin: miter; stroke-miterlimit: 4; fill: rgb(191,54,12); fill-rule: nonzero; opacity: 1;"  transform=" translate(-24, -24)" d="M 26 4 C 26 5.101563 25.101563 6 24 6 C 22.898438 6 22 5.101563 22 4 C 22 2.898438 22.898438 2 24 2 C 25.101563 2 26 2.898438 26 4 Z M 24 42 C 22.898438 42 22 42.898438 22 44 C 22 45.101563 22.898438 46 24 46 C 25.101563 46 26 45.101563 26 44 C 26 42.898438 25.101563 42 24 42 Z M 2 24 C 2 25.101563 2.898438 26 4 26 C 5.101563 26 6 25.101563 6 24 C 6 22.898438 5.101563 22 4 22 C 2.898438 22 2 22.898438 2 24 Z M 42 24 C 42 25.101563 42.898438 26 44 26 C 45.101563 26 46 25.101563 46 24 C 46 22.898438 45.101563 22 44 22 C 42.898438 22 42 22.898438 42 24 Z M 8.601563 8.601563 C 7.800781 9.398438 7.800781 10.601563 8.601563 11.398438 C 9.398438 12.199219 10.601563 12.199219 11.398438 11.398438 C 12.199219 10.601563 12.199219 9.398438 11.398438 8.601563 C 10.601563 7.800781 9.398438 7.800781 8.601563 8.601563 Z M 36.601563 36.601563 C 35.800781 37.398438 35.800781 38.601563 36.601563 39.398438 C 37.398438 40.199219 38.601563 40.199219 39.398438 39.398438 C 40.199219 38.601563 40.199219 37.398438 39.398438 36.601563 C 38.601563 35.800781 37.398438 35.800781 36.601563 36.601563 Z M 8.601563 39.398438 C 9.398438 40.199219 10.601563 40.199219 11.398438 39.398438 C 12.199219 38.601563 12.199219 37.398438 11.398438 36.601563 C 10.601563 35.800781 9.398438 35.800781 8.601563 36.601563 C 7.800781 37.398438 7.800781 38.601563 8.601563 39.398438 Z M 36.601563 11.398438 C 37.398438 12.199219 38.601563 12.199219 39.398438 11.398438 C 40.199219 10.601563 40.199219 9.398438 39.398438 8.601563 C 38.601563 7.800781 37.398438 7.800781 36.601563 8.601563 C 35.800781 9.398438 35.800781 10.601563 36.601563 11.398438 Z M 31 29.601563 C 30.601563 30.101563 30.101563 30.601563 29.601563 31 L 31.699219 33.101563 C 32.199219 32.699219 32.699219 32.199219 33.101563 31.699219 Z M 17 29.5 L 14.898438 31.601563 C 15.300781 32.101563 15.800781 32.601563 16.300781 33 L 18.398438 30.898438 C 17.898438 30.5 17.5 30.101563 17 29.5 Z M 33.101563 24 C 33.101563 24.300781 33.101563 24.699219 33 25 L 36 25 C 36 24.699219 36.101563 24.300781 36.101563 24 C 36.101563 23.699219 36.101563 23.300781 36 23 L 33 23 C 33 23.300781 33.101563 23.699219 33.101563 24 Z M 14.898438 24 C 14.898438 23.699219 14.898438 23.300781 15 23 L 12 23 C 12 23.300781 11.898438 23.699219 11.898438 24 C 11.898438 24.300781 11.898438 24.699219 12 25 L 15 25 C 15 24.699219 14.898438 24.300781 14.898438 24 Z M 25 36 L 25 33 C 24.699219 33 24.300781 33.101563 24 33.101563 C 23.699219 33.101563 23.300781 33.101563 23 33 L 23 36 C 23.300781 36 23.699219 36.101563 24 36.101563 C 24.300781 36.101563 24.699219 36 25 36 Z M 23 12.101563 L 23 15.101563 C 23.300781 15.101563 23.699219 15 24 15 C 24.300781 15 24.699219 15 25 15.101563 L 25 12.101563 C 24.699219 12.101563 24.300781 12 24 12 C 23.699219 12 23.300781 12 23 12.101563 Z M 31.101563 18.398438 L 33.199219 16.300781 C 32.800781 15.800781 32.300781 15.300781 31.800781 14.898438 L 29.699219 17 C 30.199219 17.398438 30.601563 17.800781 31.101563 18.398438 Z M 17 18.398438 C 17.398438 17.898438 17.898438 17.398438 18.398438 17 L 16.300781 14.898438 C 15.800781 15.300781 15.300781 15.800781 14.898438 16.300781 Z" stroke-linecap="round" />
</g>
</svg>