<?xml version="1.0" encoding="UTF-8" standalone="no" ?>
<!DOCTYPE svg PUBLIC "-//W3C//DTD SVG 1.1//EN" "http://www.w3.org/Graphics/SVG/1.1/DTD/svg11.dtd">
<svg xmlns="http://www.w3.org/2000/svg" xmlns:xlink="http://www.w3.org/1999/xlink" version="1.1" width="400" height="400" viewBox="0 0 400 400" xml:space="preserve">
<desc>Created with Fabric.js 3.6.2</desc>
<defs>
</defs>
<g transform="matrix(4.17 0 0 4.17 200 235.42)" id="surface1"  >
<path style="stroke: none; stroke-width: 1; stroke-dasharray: none; stroke-linecap: butt; stroke-dashoffset: 0; stroke-linejoin: miter; stroke-miterlimit: 4; fill: rgb(255,61,0); fill-rule: nonzero; opacity: 1;"  transform=" translate(-24, -32.5)" d="M 33 37 C 30.617188 37 12 37 12 37 L 6 31 L 6 28 L 42 28 C 42 28 36 37 33 37 Z" stroke-linecap="round" />
</g>
<g transform="matrix(4.17 0 0 4.17 197.05 229.17)" id="surface1"  >
<path style="stroke: none; stroke-width: 1; stroke-dasharray: none; stroke-linecap: butt; stroke-dashoffset: 0; stroke-linejoin: miter; stroke-miterlimit: 4; fill: rgb(255,171,145); fill-rule: nonzero; opacity: 1;"  transform=" translate(-23.29, -31)" d="M 40.582031 30 L 6 30 L 6 31 L 7 32 L 39.03125 32 C 39.605469 31.289063 40.136719 30.605469 40.582031 30 Z" stroke-linecap="round" />
</g>
<g transform="matrix(4.17 0 0 4.17 200 262.5)" id="surface1"  >
<path style="stroke: none; stroke-width: 1; stroke-dasharray: none; stroke-linecap: butt; stroke-dashoffset: 0; stroke-linejoin: miter; stroke-miterlimit: 4; fill: rgb(144,202,249); fill-rule: nonzero; opacity: 1;"  transform=" translate(-24, -39)" d="M 44 36 C 41 36 40 34 40 34 C 40 34 39 36 36 36 C 33 36 32 34 32 34 C 32 34 31 36 28 36 C 25 36 24 34 24 34 C 24 34 23 36 20 36 C 17 36 16 34 16 34 C 16 34 15 36 12 36 C 9 36 8 34 8 34 C 8 34 7 36 4 36 L 4 44 L 44 44 Z" stroke-linecap="round" />
</g>
<g transform="matrix(4.17 0 0 4.17 200 270.83)" id="surface1"  >
<path style="stroke: none; stroke-width: 1; stroke-dasharray: none; stroke-linecap: butt; stroke-dashoffset: 0; stroke-linejoin: miter; stroke-miterlimit: 4; fill: rgb(33,150,243); fill-rule: nonzero; opacity: 1;"  transform=" translate(-24, -41)" d="M 44 40 C 41 40 40 38 40 38 C 40 38 39 40 36 40 C 33 40 32 38 32 38 C 32 38 31 40 28 40 C 25 40 24 38 24 38 C 24 38 23 40 20 40 C 17 40 16 38 16 38 C 16 38 15 40 12 40 C 9 40 8 38 8 38 C 8 38 7 40 4 40 L 4 44 L 44 44 Z" stroke-linecap="round" />
</g>
<g transform="matrix(4.17 0 0 4.17 195.83 164.58)" id="surface1"  >
<path style="stroke: none; stroke-width: 1; stroke-dasharray: none; stroke-linecap: butt; stroke-dashoffset: 0; stroke-linejoin: miter; stroke-miterlimit: 4; fill: rgb(121,85,72); fill-rule: nonzero; opacity: 1;"  transform=" translate(-23, -15.5)" d="M 22 3 L 24 3 L 24 28 L 22 28 Z" stroke-linecap="round" />
</g>
<g transform="matrix(4.17 0 0 4.17 233.33 166.67)" id="surface1"  >
<path style="stroke: none; stroke-width: 1; stroke-dasharray: none; stroke-linecap: butt; stroke-dashoffset: 0; stroke-linejoin: miter; stroke-miterlimit: 4; fill: rgb(187,222,251); fill-rule: nonzero; opacity: 1;"  transform=" translate(-32, -16)" d="M 40 25 L 24 26 L 24 6 Z" stroke-linecap="round" />
</g>
<g transform="matrix(4.17 0 0 4.17 154.17 164.58)" id="surface1"  >
<path style="stroke: none; stroke-width: 1; stroke-dasharray: none; stroke-linecap: butt; stroke-dashoffset: 0; stroke-linejoin: miter; stroke-miterlimit: 4; fill: rgb(187,222,251); fill-rule: nonzero; opacity: 1;"  transform=" translate(-13, -15.5)" d="M 6 23 L 20 26 L 20 5 Z" stroke-linecap="round" />
</g>
</svg>