<?xml version="1.0" encoding="UTF-8" standalone="no" ?>
<!DOCTYPE svg PUBLIC "-//W3C//DTD SVG 1.1//EN" "http://www.w3.org/Graphics/SVG/1.1/DTD/svg11.dtd">
<svg xmlns="http://www.w3.org/2000/svg" xmlns:xlink="http://www.w3.org/1999/xlink" version="1.1" width="400" height="400" viewBox="0 0 400 400" xml:space="preserve">
<desc>Created with Fabric.js 3.6.2</desc>
<defs>
</defs>
<g transform="matrix(4.17 0 0 4.17 179.34 218.67)" id="surface1"  >
<path style="stroke: none; stroke-width: 1; stroke-dasharray: none; stroke-linecap: butt; stroke-dashoffset: 0; stroke-linejoin: miter; stroke-miterlimit: 4; fill: rgb(255,183,77); fill-rule: nonzero; opacity: 1;"  transform=" translate(-19.04, -28.48)" d="M 26 32.5 c -0.3 0 -0.6 -0.1 -0.9 -0.3 L 19 27.6 L 12 30 c -0.8 0.2 -1.2 -0.8 -1.4 -1.6 s 0.2 -1.6 1 -1.9 l 7 -2 c 0.4 -0.1 0.9 0 1.3 0.2 l 7 5 c 0.7 0.5 0.8 1.4 0.4 2.1 C 26.9 32.3 26.5 32.5 26 32.5 z" stroke-linecap="round" />
</g>
<g transform="matrix(4.17 0 0 4.17 208.65 181.25)" id="surface1"  >
<path style="stroke: none; stroke-width: 1; stroke-dasharray: none; stroke-linecap: butt; stroke-dashoffset: 0; stroke-linejoin: miter; stroke-miterlimit: 4; fill: rgb(84,110,122); fill-rule: nonzero; opacity: 1;"  transform=" translate(-26.07, -19.5)" d="M 21 24 c -0.3 0 -0.6 -0.2 -0.8 -0.4 c -0.2 -0.3 -0.2 -0.8 0 -1.2 l 5 -7 c 0.2 -0.2 0.4 -0.4 0.7 -0.4 c 0.3 0 0.5 0 0.8 0.2 l 5 4 c 0.3 0.2 0.4 0.6 0.4 1 c -0.1 0.4 -0.3 0.7 -0.7 0.8 l -10 3 C 21.2 24 21.1 24 21 24 z M 26.2 17.4 l -2.7 3.8 l 5.4 -1.6 L 26.2 17.4 z" stroke-linecap="round" />
</g>
<g transform="matrix(4.17 0 0 4.17 147.62 200)" id="surface1"  >
<path style="stroke: none; stroke-width: 1; stroke-dasharray: none; stroke-linecap: butt; stroke-dashoffset: 0; stroke-linejoin: miter; stroke-miterlimit: 4; fill: rgb(0,172,193); fill-rule: nonzero; opacity: 1;"  transform=" translate(-11.43, -24)" d="M 12.1 18 c -1.8 0 -3.7 1 -4 2.9 l -1 5 c -0.3 1.9 1 3.7 2.9 4 c 0.2 0 0.4 0.1 0.6 0.1 c 1.7 0 3.2 -1.2 3.4 -2.9 l 1.8 -9.1 C 15.8 18 12.3 18 12.1 18 z" stroke-linecap="round" />
</g>
<g transform="matrix(4.17 0 0 4.17 143.75 156.25)" id="surface1"  >
<path style="stroke: none; stroke-width: 1; stroke-dasharray: none; stroke-linecap: butt; stroke-dashoffset: 0; stroke-linejoin: miter; stroke-miterlimit: 4; fill: rgb(255,183,77); fill-rule: nonzero; opacity: 1;"  transform=" translate(-10.5, -13.5)" d="M 10.5 10 c 1.9 0 3.5 1.6 3.5 3.5 S 12.4 17 10.5 17 S 7 15.4 7 13.5 S 8.6 10 10.5 10" stroke-linecap="round" />
</g>
<g transform="matrix(4.17 0 0 4.17 172.92 181.25)" id="surface1"  >
<path style="stroke: none; stroke-width: 1; stroke-dasharray: none; stroke-linecap: butt; stroke-dashoffset: 0; stroke-linejoin: miter; stroke-miterlimit: 4; fill: rgb(255,183,77); fill-rule: nonzero; opacity: 1;"  transform=" translate(-17.5, -19.5)" d="M 11.5 21 h 12 c 0.8 0 1.5 -0.7 1.5 -1.5 S 24.3 18 23.5 18 h -12 c -0.8 0 -1.5 0.7 -1.5 1.5 S 10.7 21 11.5 21 z" stroke-linecap="round" />
</g>
<g transform="matrix(4.17 0 0 4.17 254.17 183.33)" id="surface1"  >
<rect style="stroke: none; stroke-width: 1; stroke-dasharray: none; stroke-linecap: butt; stroke-dashoffset: 0; stroke-linejoin: miter; stroke-miterlimit: 4; fill: rgb(84,110,122); fill-rule: nonzero; opacity: 1;"  x="-7" y="-1" rx="0" ry="0" width="14" height="2" />
</g>
<g transform="matrix(4.17 0 0 4.17 162.5 213.54)" id="surface1"  >
<path style="stroke: none; stroke-width: 1; stroke-dasharray: none; stroke-linecap: butt; stroke-dashoffset: 0; stroke-linejoin: miter; stroke-miterlimit: 4; fill: rgb(45,76,92); fill-rule: nonzero; opacity: 1;"  transform=" translate(-15, -27.25)" d="M 18.6 24.6 l -5 1.4 l 0 0 H 11 l 1 4 l 7 -2.4 v -3.1 C 18.9 24.5 18.7 24.5 18.6 24.6 z" stroke-linecap="round" />
</g>
<g transform="matrix(4.17 0 0 4.17 200.18 241.67)" id="surface1"  >
<path style="stroke: none; stroke-width: 1; stroke-dasharray: none; stroke-linecap: butt; stroke-dashoffset: 0; stroke-linejoin: miter; stroke-miterlimit: 4; fill: rgb(255,117,76); fill-rule: nonzero; opacity: 1;"  transform=" translate(-24.04, -34)" d="M 7.1 39.3 c 0.7 2.5 8.9 2.2 18.2 -0.7 c 9.4 -2.9 16.4 -7.4 15.7 -9.9 c -0.7 -2.5 -8.9 -2.2 -18.2 0.7 C 13.3 32.4 6.3 36.8 7.1 39.3 z" stroke-linecap="round" />
</g>
<g transform="matrix(4.17 0 0 4.17 145.32 225)" id="surface1"  >
<path style="stroke: none; stroke-width: 1; stroke-dasharray: none; stroke-linecap: butt; stroke-dashoffset: 0; stroke-linejoin: miter; stroke-miterlimit: 4; fill: rgb(84,110,122); fill-rule: nonzero; opacity: 1;"  transform=" translate(-10.88, -30)" d="M 11.8 33.9 c 0 0 0.1 0.1 0.1 0.1 c 0.9 -0.5 1.8 -1 2.9 -1.5 L 12 26 H 7 c -0.2 1.2 0.3 2.3 1.1 3 L 11.8 33.9 z" stroke-linecap="round" />
</g>
<g transform="matrix(4.17 0 0 4.17 200 266.67)" id="surface1"  >
<path style="stroke: none; stroke-width: 1; stroke-dasharray: none; stroke-linecap: butt; stroke-dashoffset: 0; stroke-linejoin: miter; stroke-miterlimit: 4; fill: rgb(126,140,207); fill-rule: nonzero; opacity: 1;"  transform=" translate(-24, -40)" d="M 44 38 c -3 0 -4 -2 -4 -2 s -1 2 -4 2 s -4 -2 -4 -2 s -1 2 -4 2 s -4 -2 -4 -2 s -1 2 -4 2 s -4 -2 -4 -2 s -1 2 -4 2 s -4 -2 -4 -2 s -1 2 -4 2 v 6 h 40 V 38 z" stroke-linecap="round" />
</g>
<g transform="matrix(4.17 0 0 4.17 200 270.83)" id="surface1"  >
<path style="stroke: none; stroke-width: 1; stroke-dasharray: none; stroke-linecap: butt; stroke-dashoffset: 0; stroke-linejoin: miter; stroke-miterlimit: 4; fill: rgb(197,202,233); fill-rule: nonzero; opacity: 1;"  transform=" translate(-24, -41)" d="M 44 40 c -3 0 -4 -2 -4 -2 s -1 2 -4 2 s -4 -2 -4 -2 s -1 2 -4 2 s -4 -2 -4 -2 s -1 2 -4 2 s -4 -2 -4 -2 s -1 2 -4 2 s -4 -2 -4 -2 s -1 2 -4 2 v 4 h 40 V 40 z" stroke-linecap="round" />
</g>
</svg>