<?xml version="1.0" encoding="UTF-8" standalone="no" ?>
<!DOCTYPE svg PUBLIC "-//W3C//DTD SVG 1.1//EN" "http://www.w3.org/Graphics/SVG/1.1/DTD/svg11.dtd">
<svg xmlns="http://www.w3.org/2000/svg" xmlns:xlink="http://www.w3.org/1999/xlink" version="1.1" width="400" height="400" viewBox="0 0 400 400" xml:space="preserve">
<desc>Created with Fabric.js 3.6.2</desc>
<defs>
</defs>
<g transform="matrix(4.17 0 0 4.17 195.83 175)" id="surface1"  >
<path style="stroke: none; stroke-width: 1; stroke-dasharray: none; stroke-linecap: butt; stroke-dashoffset: 0; stroke-linejoin: miter; stroke-miterlimit: 4; fill: rgb(144,164,174); fill-rule: nonzero; opacity: 1;"  transform=" translate(-23, -18)" d="M 22 5 L 24 5 L 24 31 L 22 31 Z" stroke-linecap="round" />
</g>
<g transform="matrix(4.17 0 0 4.17 141.67 183.33)" id="surface1"  >
<path style="stroke: none; stroke-width: 1; stroke-dasharray: none; stroke-linecap: butt; stroke-dashoffset: 0; stroke-linejoin: miter; stroke-miterlimit: 4; fill: rgb(144,164,174); fill-rule: nonzero; opacity: 1;"  transform=" translate(-10, -20)" d="M 9 7 L 11 7 L 11 33 L 9 33 Z" stroke-linecap="round" />
</g>
<g transform="matrix(4.17 0 0 4.17 245.83 175)" id="surface1"  >
<path style="stroke: none; stroke-width: 1; stroke-dasharray: none; stroke-linecap: butt; stroke-dashoffset: 0; stroke-linejoin: miter; stroke-miterlimit: 4; fill: rgb(144,164,174); fill-rule: nonzero; opacity: 1;"  transform=" translate(-35, -18)" d="M 34 8 L 36 8 L 36 28 L 34 28 Z" stroke-linecap="round" />
</g>
<g transform="matrix(4.17 0 0 4.17 197.92 239.58)" id="surface1"  >
<path style="stroke: none; stroke-width: 1; stroke-dasharray: none; stroke-linecap: butt; stroke-dashoffset: 0; stroke-linejoin: miter; stroke-miterlimit: 4; fill: rgb(121,85,72); fill-rule: nonzero; opacity: 1;"  transform=" translate(-23.5, -33.5)" d="M 30.894531 27 C 30.679688 28.1875 30.023438 30 28 30 C 25 30 20 30 17 30 C 14 30 14 27 14 27 L 4 27 L 4 30 C 4 30 5 30 6 33 C 7 36 8 39 13 39 C 15 39 27 40 31 40 C 37 40 38 29 43 29 L 43 27 Z" stroke-linecap="round" />
</g>
<g transform="matrix(4.17 0 0 4.17 200 266.67)" id="surface1"  >
<path style="stroke: none; stroke-width: 1; stroke-dasharray: none; stroke-linecap: butt; stroke-dashoffset: 0; stroke-linejoin: miter; stroke-miterlimit: 4; fill: rgb(144,202,249); fill-rule: nonzero; opacity: 1;"  transform=" translate(-24, -40)" d="M 44 37 C 41 37 40 35 40 35 C 40 35 39 37 36 37 C 33 37 32 35 32 35 C 32 35 31 37 28 37 C 25 37 24 35 24 35 C 24 35 23 37 20 37 C 17 37 16 35 16 35 C 16 35 15 37 12 37 C 9 37 8 35 8 35 C 8 35 7 37 4 37 L 4 45 L 44 45 Z" stroke-linecap="round" />
</g>
<g transform="matrix(4.17 0 0 4.17 200 275)" id="surface1"  >
<path style="stroke: none; stroke-width: 1; stroke-dasharray: none; stroke-linecap: butt; stroke-dashoffset: 0; stroke-linejoin: miter; stroke-miterlimit: 4; fill: rgb(33,150,243); fill-rule: nonzero; opacity: 1;"  transform=" translate(-24, -42)" d="M 44 41 C 41 41 40 39 40 39 C 40 39 39 41 36 41 C 33 41 32 39 32 39 C 32 39 31 41 28 41 C 25 41 24 39 24 39 C 24 39 23 41 20 41 C 17 41 16 39 16 39 C 16 39 15 41 12 41 C 9 41 8 39 8 39 C 8 39 7 41 4 41 L 4 45 L 44 45 Z" stroke-linecap="round" />
</g>
<g transform="matrix(4.17 0 0 4.17 150 237.5)" id="surface1"  >
<path style="stroke: none; stroke-width: 1; stroke-dasharray: none; stroke-linecap: butt; stroke-dashoffset: 0; stroke-linejoin: miter; stroke-miterlimit: 4; fill: rgb(62,39,35); fill-rule: nonzero; opacity: 1;"  transform=" translate(-12, -33)" d="M 11 32 L 13 32 L 13 34 L 11 34 Z" stroke-linecap="round" />
</g>
<g transform="matrix(4.17 0 0 4.17 175 237.5)" id="surface1"  >
<path style="stroke: none; stroke-width: 1; stroke-dasharray: none; stroke-linecap: butt; stroke-dashoffset: 0; stroke-linejoin: miter; stroke-miterlimit: 4; fill: rgb(62,39,35); fill-rule: nonzero; opacity: 1;"  transform=" translate(-18, -33)" d="M 17 32 L 19 32 L 19 34 L 17 34 Z" stroke-linecap="round" />
</g>
<g transform="matrix(4.17 0 0 4.17 200 237.5)" id="surface1"  >
<path style="stroke: none; stroke-width: 1; stroke-dasharray: none; stroke-linecap: butt; stroke-dashoffset: 0; stroke-linejoin: miter; stroke-miterlimit: 4; fill: rgb(62,39,35); fill-rule: nonzero; opacity: 1;"  transform=" translate(-24, -33)" d="M 23 32 L 25 32 L 25 34 L 23 34 Z" stroke-linecap="round" />
</g>
<g transform="matrix(4.17 0 0 4.17 225 237.5)" id="surface1"  >
<path style="stroke: none; stroke-width: 1; stroke-dasharray: none; stroke-linecap: butt; stroke-dashoffset: 0; stroke-linejoin: miter; stroke-miterlimit: 4; fill: rgb(62,39,35); fill-rule: nonzero; opacity: 1;"  transform=" translate(-30, -33)" d="M 29 32 L 31 32 L 31 34 L 29 34 Z" stroke-linecap="round" />
</g>
<g transform="matrix(4.17 0 0 4.17 195.83 179.17)" id="surface1"  >
<path style="stroke: none; stroke-width: 1; stroke-dasharray: none; stroke-linecap: butt; stroke-dashoffset: 0; stroke-linejoin: miter; stroke-miterlimit: 4; fill: rgb(144,202,249); fill-rule: nonzero; opacity: 1;"  transform=" translate(-23, -19)" d="M 30 27 L 13.777344 27 C 17.667969 21 13.777344 11 13.777344 11 L 30 11 C 30 11 35 21 30 27 Z" stroke-linecap="round" />
</g>
<g transform="matrix(4.17 0 0 4.17 158.33 133.85)" id="surface1"  >
<path style="stroke: none; stroke-width: 1; stroke-dasharray: none; stroke-linecap: butt; stroke-dashoffset: 0; stroke-linejoin: miter; stroke-miterlimit: 4; fill: rgb(255,61,0); fill-rule: nonzero; opacity: 1;"  transform=" translate(-14, -8.12)" d="M 9 6.246094 L 9 10.246094 C 12.917969 8.828125 16.582031 11.246094 19 6.246094 C 14.835938 9.082031 12.667969 4.996094 9 6.246094 Z" stroke-linecap="round" />
</g>
<g transform="matrix(4.17 0 0 4.17 212.5 125.52)" id="surface1"  >
<path style="stroke: none; stroke-width: 1; stroke-dasharray: none; stroke-linecap: butt; stroke-dashoffset: 0; stroke-linejoin: miter; stroke-miterlimit: 4; fill: rgb(255,61,0); fill-rule: nonzero; opacity: 1;"  transform=" translate(-27, -6.12)" d="M 22 4.246094 L 22 8.246094 C 25.914063 6.828125 29.585938 9.246094 32 4.246094 C 27.835938 7.082031 25.664063 2.996094 22 4.246094 Z" stroke-linecap="round" />
</g>
<g transform="matrix(4.17 0 0 4.17 262.5 138.02)" id="surface1"  >
<path style="stroke: none; stroke-width: 1; stroke-dasharray: none; stroke-linecap: butt; stroke-dashoffset: 0; stroke-linejoin: miter; stroke-miterlimit: 4; fill: rgb(255,61,0); fill-rule: nonzero; opacity: 1;"  transform=" translate(-39, -9.12)" d="M 34 7.246094 L 34 11.246094 C 37.914063 9.828125 41.585938 12.246094 44 7.246094 C 39.835938 10.082031 37.664063 5.996094 34 7.246094 Z" stroke-linecap="round" />
</g>
<g transform="matrix(4.17 0 0 4.17 140.4 181.25)" id="surface1"  >
<path style="stroke: none; stroke-width: 1; stroke-dasharray: none; stroke-linecap: butt; stroke-dashoffset: 0; stroke-linejoin: miter; stroke-miterlimit: 4; fill: rgb(187,222,251); fill-rule: nonzero; opacity: 1;"  transform=" translate(-9.7, -19.5)" d="M 14.753906 25 C 16.066406 21.324219 15.398438 16.882813 14.6875 14 L 3.890625 14 C 3.890625 14 7.269531 19.925781 3.890625 25 Z" stroke-linecap="round" />
</g>
<g transform="matrix(4.17 0 0 4.17 249.76 179.17)" id="surface1"  >
<path style="stroke: none; stroke-width: 1; stroke-dasharray: none; stroke-linecap: butt; stroke-dashoffset: 0; stroke-linejoin: miter; stroke-miterlimit: 4; fill: rgb(187,222,251); fill-rule: nonzero; opacity: 1;"  transform=" translate(-35.94, -19)" d="M 41 25 L 28.890625 25 C 32.777344 19.460938 28.890625 13 28.890625 13 L 41 13 C 41 13 45.492188 19.5 41 25 Z" stroke-linecap="round" />
</g>
<g transform="matrix(4.17 0 0 4.17 143.75 218.75)" id="surface1"  >
<path style="stroke: none; stroke-width: 1; stroke-dasharray: none; stroke-linecap: butt; stroke-dashoffset: 0; stroke-linejoin: miter; stroke-miterlimit: 4; fill: rgb(93,64,55); fill-rule: nonzero; opacity: 1;"  transform=" translate(-10.5, -28.5)" d="M 14 27 L 4 27 L 4 30 L 17 30 C 14 30 14 27 14 27 Z" stroke-linecap="round" />
</g>
<g transform="matrix(4.17 0 0 4.17 250 218.75)" id="surface1"  >
<path style="stroke: none; stroke-width: 1; stroke-dasharray: none; stroke-linecap: butt; stroke-dashoffset: 0; stroke-linejoin: miter; stroke-miterlimit: 4; fill: rgb(93,64,55); fill-rule: nonzero; opacity: 1;"  transform=" translate(-36, -28.5)" d="M 30.894531 27 C 30.679688 28.1875 30.023438 30 28 30 L 44 30 L 44 27 Z" stroke-linecap="round" />
</g>
</svg>