<?xml version="1.0" encoding="UTF-8" standalone="no" ?>
<!DOCTYPE svg PUBLIC "-//W3C//DTD SVG 1.1//EN" "http://www.w3.org/Graphics/SVG/1.1/DTD/svg11.dtd">
<svg xmlns="http://www.w3.org/2000/svg" xmlns:xlink="http://www.w3.org/1999/xlink" version="1.1" width="400" height="400" viewBox="0 0 400 400" xml:space="preserve">
<desc>Created with Fabric.js 3.6.2</desc>
<defs>
</defs>
<g transform="matrix(4.17 0 0 4.17 200 250)" id="surface1"  >
<path style="stroke: none; stroke-width: 1; stroke-dasharray: none; stroke-linecap: butt; stroke-dashoffset: 0; stroke-linejoin: miter; stroke-miterlimit: 4; fill: rgb(84,110,122); fill-rule: nonzero; opacity: 1;"  transform=" translate(-24, -36)" d="M 5 33 l 38 -3 c 0 0 -8.9 12 -18 12 h -5 C 20 42 5.3 40 5 33 z" stroke-linecap="round" />
</g>
<g transform="matrix(4.17 0 0 4.17 181.25 131.25)" id="surface1"  >
<path style="stroke: none; stroke-width: 1; stroke-dasharray: none; stroke-linecap: butt; stroke-dashoffset: 0; stroke-linejoin: miter; stroke-miterlimit: 4; fill: rgb(255,186,87); fill-rule: nonzero; opacity: 1;"  transform=" translate(-19.5, -7.5)" d="M 19.5 4 C 21.4 4 23 5.6 23 7.5 S 21.4 11 19.5 11 S 16 9.4 16 7.5 S 17.6 4 19.5 4" stroke-linecap="round" />
</g>
<g transform="matrix(4.17 0 0 4.17 202.08 221.36)" id="surface1"  >
<path style="stroke: none; stroke-width: 1; stroke-dasharray: none; stroke-linecap: butt; stroke-dashoffset: 0; stroke-linejoin: miter; stroke-miterlimit: 4; fill: rgb(94,192,143); fill-rule: nonzero; opacity: 1;"  transform=" translate(-24.5, -29.13)" d="M 44 30 c 0 0 -3.8 -5.3 -11.1 -4.7 c -7.3 0.6 -12 1.9 -15.9 1.7 s -7.4 0.5 -7.4 0.5 L 5 33 L 44 30 z" stroke-linecap="round" />
</g>
<g transform="matrix(1.53 -3.88 3.88 1.53 216.06 180.33)" id="surface1"  >
<rect style="stroke: none; stroke-width: 1; stroke-dasharray: none; stroke-linecap: butt; stroke-dashoffset: 0; stroke-linejoin: miter; stroke-miterlimit: 4; fill: rgb(69,90,100); fill-rule: nonzero; opacity: 1;"  x="-1" y="-2.9" rx="0" ry="0" width="2" height="5.8" />
</g>
<g transform="matrix(4.17 0 0 4.17 164.58 208.33)" id="surface1"  >
<path style="stroke: none; stroke-width: 1; stroke-dasharray: none; stroke-linecap: butt; stroke-dashoffset: 0; stroke-linejoin: miter; stroke-miterlimit: 4; fill: rgb(84,110,122); fill-rule: nonzero; opacity: 1;"  transform=" translate(-15.5, -26)" d="M 5 24 c 0 0 2.1 0 3.5 0 s 2.4 1 4.5 1 s 10 0 10 0 l 3 3 c 0 0 -2.6 0 -8 0 c -6.8 0 -8.4 -0.5 -8.4 -0.5 C 6.9 25.6 5 25 5 25 V 24 z" stroke-linecap="round" />
</g>
<g transform="matrix(4.17 0 0 4.17 239.58 202.08)" id="surface1"  >
<path style="stroke: none; stroke-width: 1; stroke-dasharray: none; stroke-linecap: butt; stroke-dashoffset: 0; stroke-linejoin: miter; stroke-miterlimit: 4; fill: rgb(118,221,166); fill-rule: nonzero; opacity: 1;"  transform=" translate(-33.5, -24.5)" d="M 23 25 l 7 -6 c 0 0 8.8 2.9 14 11 c 0 0 -3.7 -2.9 -10 -3 c -2.1 0 -5.4 0.2 -8 1 L 23 25 z" stroke-linecap="round" />
</g>
<g transform="matrix(4.17 0 0 4.17 200 264.58)" id="surface1"  >
<path style="stroke: none; stroke-width: 1; stroke-dasharray: none; stroke-linecap: butt; stroke-dashoffset: 0; stroke-linejoin: miter; stroke-miterlimit: 4; fill: rgb(126,140,207); fill-rule: nonzero; opacity: 1;"  transform=" translate(-24, -39.5)" d="M 44 37 c -3 0 -4 -2 -4 -2 s -1 2 -4 2 s -4 -2 -4 -2 s -1 2 -4 2 s -4 -2 -4 -2 s -1 2 -4 2 s -4 -2 -4 -2 s -1 2 -4 2 s -4 -2 -4 -2 s -1 2 -4 2 v 7 h 40 V 37 z" stroke-linecap="round" />
</g>
<g transform="matrix(4.17 0 0 4.17 200 268.75)" id="surface1"  >
<path style="stroke: none; stroke-width: 1; stroke-dasharray: none; stroke-linecap: butt; stroke-dashoffset: 0; stroke-linejoin: miter; stroke-miterlimit: 4; fill: rgb(197,202,233); fill-rule: nonzero; opacity: 1;"  transform=" translate(-24, -40.5)" d="M 44 39 c -3 0 -4 -2 -4 -2 s -1 2 -4 2 s -4 -2 -4 -2 s -1 2 -4 2 s -4 -2 -4 -2 s -1 2 -4 2 s -4 -2 -4 -2 s -1 2 -4 2 s -4 -2 -4 -2 s -1 2 -4 2 v 5 h 40 V 39 z" stroke-linecap="round" />
</g>
<g transform="matrix(4.17 0 0 4.17 161.38 177.08)" id="surface1"  >
<path style="stroke: none; stroke-width: 1; stroke-dasharray: none; stroke-linecap: butt; stroke-dashoffset: 0; stroke-linejoin: miter; stroke-miterlimit: 4; fill: rgb(149,117,205); fill-rule: nonzero; opacity: 1;"  transform=" translate(-14.73, -18.5)" d="M 10.5 20 l 2.4 -5.8 c 0.4 -1.4 1.7 -2.2 3.1 -2.2 c 1.4 0 2.3 0.9 2.7 1.6 c 0 0 1.1 1.8 0.7 2.9 L 15.5 25 L 13 25 c -2.4 0 -3.4 -1.3 -2.9 -3.8 C 10.3 20.8 10.4 20.4 10.5 20 z" stroke-linecap="round" />
</g>
<g transform="matrix(4.17 0 0 4.17 168.96 182.08)" id="surface1"  >
<path style="stroke: none; stroke-width: 1; stroke-dasharray: none; stroke-linecap: butt; stroke-dashoffset: 0; stroke-linejoin: miter; stroke-miterlimit: 4; fill: rgb(126,87,194); fill-rule: nonzero; opacity: 1;"  transform=" translate(-16.55, -19.7)" d="M 19.4 16.3 L 15.5 25 l -1.8 -0.3 l 4.6 -10.3 L 19.4 16.3 z" stroke-linecap="round" />
</g>
<g transform="matrix(4.17 0 0 4.17 187.71 167)" id="surface1"  >
<path style="stroke: none; stroke-width: 1; stroke-dasharray: none; stroke-linecap: butt; stroke-dashoffset: 0; stroke-linejoin: miter; stroke-miterlimit: 4; fill: rgb(255,186,87); fill-rule: nonzero; opacity: 1;"  transform=" translate(-21.05, -16.08)" d="M 27 19.1 c 0.3 -0.8 -0.1 -1.6 -0.9 -1.9 l -9.1 -5 c -0.8 -0.3 -1.6 0.1 -1.9 0.9 c -0.3 0.8 0.1 1.6 0.9 1.9 l 9.1 5 C 25.8 20.2 26.7 19.9 27 19.1 z" stroke-linecap="round" />
</g>
<g transform="matrix(4.17 0 0 4.17 164.59 214.58)" id="surface1"  >
<path style="stroke: none; stroke-width: 1; stroke-dasharray: none; stroke-linecap: butt; stroke-dashoffset: 0; stroke-linejoin: miter; stroke-miterlimit: 4; fill: rgb(255,186,87); fill-rule: nonzero; opacity: 1;"  transform=" translate(-15.5, -27.5)" d="M 15.5 33 c 0.6 0 1.2 -0.4 1.4 -1 l 3 -8 c 0.2 -0.5 0.1 -1 -0.2 -1.4 C 19.5 22.2 19 22 18.5 22 h -6 c -0.8 0 -1.5 0.7 -1.5 1.5 s 0.7 1.5 1.5 1.5 h 3.8 l -2.2 6 c -0.3 0.8 0.1 1.6 0.9 1.9 C 15.2 33 15.3 33 15.5 33 z" stroke-linecap="round" />
</g>
</svg>