<?xml version="1.0" encoding="UTF-8" standalone="no" ?>
<!DOCTYPE svg PUBLIC "-//W3C//DTD SVG 1.1//EN" "http://www.w3.org/Graphics/SVG/1.1/DTD/svg11.dtd">
<svg xmlns="http://www.w3.org/2000/svg" xmlns:xlink="http://www.w3.org/1999/xlink" version="1.1" width="400" height="400" viewBox="0 0 400 400" xml:space="preserve">
<desc>Created with Fabric.js 3.6.2</desc>
<defs>
</defs>
<g transform="matrix(4.17 0 0 4.17 274.94 125)" id="Layer_1"  >
<path style="stroke: none; stroke-width: 1; stroke-dasharray: none; stroke-linecap: butt; stroke-dashoffset: 0; stroke-linejoin: miter; stroke-miterlimit: 4; fill: rgb(244,67,54); fill-rule: nonzero; opacity: 1;"  transform=" translate(-41.98, -6)" d="M 38.969 6.949 C 38.969 6.949 40 7 41 6 s 2 -3 2 -3 v 2 h 2 c 0 0 -2.004 1.012 -3 2.008 S 41 9 41 9 L 38.969 6.949 z" stroke-linecap="round" />
</g>
<g transform="matrix(4.17 0 0 4.17 254.17 145.83)" id="Layer_1"  >
<path style="stroke: none; stroke-width: 1; stroke-dasharray: none; stroke-linecap: butt; stroke-dashoffset: 0; stroke-linejoin: miter; stroke-miterlimit: 4; fill: rgb(124,179,66); fill-rule: nonzero; opacity: 1;"  transform=" translate(-37, -11)" d="M 41.121 6.879 C 40.536 6.293 39.768 6 39 6 c -2.5 0 -4.737 1.373 -5.682 2.318 c -1.757 1.757 -1.757 4.607 0 6.364 s 4.607 1.757 6.364 0 C 40.627 13.737 42 11.5 42 9 C 42 8.232 41.707 7.464 41.121 6.879 z" stroke-linecap="round" />
</g>
<g transform="matrix(4.17 0 0 4.17 262.5 147.92)" id="Layer_1"  >
<path style="stroke: none; stroke-width: 1; stroke-dasharray: none; stroke-linecap: butt; stroke-dashoffset: 0; stroke-linejoin: miter; stroke-miterlimit: 4; fill: rgb(27,94,32); fill-rule: nonzero; opacity: 1;"  transform=" translate(-39, -11.5)" d="M 39.5 10 c 0 0 -1.5 0.5 -1.5 2 c 0 1 1 1 1 1 s 1 -0.251 1 -1.501 C 40 10.749 39.5 10 39.5 10 z" stroke-linecap="round" />
</g>
<g transform="matrix(4.17 0 0 4.17 252.08 137.5)" id="Layer_1"  >
<path style="stroke: none; stroke-width: 1; stroke-dasharray: none; stroke-linecap: butt; stroke-dashoffset: 0; stroke-linejoin: miter; stroke-miterlimit: 4; fill: rgb(27,94,32); fill-rule: nonzero; opacity: 1;"  transform=" translate(-36.5, -9)" d="M 38 8.5 c 0 0 -0.5 1.5 -2 1.5 c -1 0 -1 -1 -1 -1 s 0.249 -1 1.499 -1 C 37.249 8 38 8.5 38 8.5 z" stroke-linecap="round" />
</g>
<g transform="matrix(4.17 0 0 4.17 184.29 214.58)" id="Layer_1"  >
<path style="stroke: none; stroke-width: 1; stroke-dasharray: none; stroke-linecap: butt; stroke-dashoffset: 0; stroke-linejoin: miter; stroke-miterlimit: 4; fill: rgb(124,179,66); fill-rule: nonzero; opacity: 1;"  transform=" translate(-20.23, -27.5)" d="M 31.99 24.09 C 33.29 25.47 34 27.21 34 29 c 0 1.87 -0.73 3.63 -2.05 4.95 S 28.87 36 27 36 c -1.91 0 -3.67 -0.74 -4.97 -2.07 c -0.07 -0.07 -0.13 -0.14 -0.2 -0.21 c -0.77 -0.82 -1.49 -1.75 -2.17 -2.72 c 0 -0.01 -0.01 -0.01 -0.02 -0.02 c -0.27 -0.39 -0.54 -0.78 -0.81 -1.18 c -0.14 -0.19 -0.27 -0.39 -0.4 -0.59 c -1.12 -1.66 -2.17 -3.22 -3.29 -4.32 c -1.19 -1.16 -3.14 -1.14 -4.26 -0.01 C 10.31 25.45 10 26.2 10 27 s 0.31 1.55 0.88 2.12 c 0.55 0.55 1.48 0.79 2.57 1.06 c 1.51 0.38 3.4 0.86 4.95 2.45 c 0.11 0.11 0.22 0.23 0.32 0.36 c 0.5 0.59 0.86 1.27 1.06 2.01 c 0.02 0.06 0.04 0.11 0.05 0.17 C 19.94 35.6 20 36.05 20 36.5 c 0 0.91 -0.22 1.79 -0.64 2.58 c 0 0 -0.01 0.01 -0.02 0.04 c -0.03 0.05 -0.05 0.1 -0.09 0.14 c -0.23 0.41 -0.52 0.79 -0.86 1.13 c -0.79 0.79 -1.78 1.31 -2.85 1.51 C 15.2 41.97 14.85 42 14.5 42 c -2.88 0 -4.25 -3 -6.5 -3 c -0.2 0 -0.39 0.02 -0.58 0.06 c -0.09 0.02 -0.18 0.04 -0.27 0.07 c -0.27 0.08 -0.53 0.2 -0.77 0.35 c 0 0 0 0.01 -0.01 0.01 c -2.13 1.28 -3.27 4.77 -3.36 5.39 C 3 44.92 3 44.96 3 45 c 0 -0.17 0.01 -0.37 0.02 -0.59 C 3.14 42.07 4.02 36 9 36 c 1.77 0 2.92 0.75 3.77 1.31 C 13.48 37.77 13.86 38 14.5 38 c 0.4 0 0.78 -0.16 1.06 -0.44 C 15.84 37.28 16 36.9 16 36.5 c 0 -0.39 -0.16 -0.78 -0.46 -1.08 c -0.76 -0.78 -1.83 -1.05 -3.08 -1.36 c -1.44 -0.37 -3.08 -0.78 -4.41 -2.11 C 6.73 30.63 6 28.87 6 27 s 0.73 -3.63 2.05 -4.95 S 11.13 20 13 20 c 1.84 0 3.59 0.72 4.93 2.04 c 1.41 1.37 2.63 3.18 3.82 4.92 c 1.02 1.51 2.07 3.07 3.15 4.18 c 1.07 1.1 3.08 1.12 4.22 -0.02 C 29.69 30.55 30 29.8 30 29 c 0 -0.77 -0.33 -1.53 -0.92 -2.16 c -1.29 -1.37 -3.22 -2.33 -5.09 -3.26 c -1.9 -0.94 -3.86 -1.91 -5.26 -3.36 C 17.62 19.06 17 17.56 17 16 c 0 -1.6 0.62 -3.11 1.76 -4.24 C 19.89 10.62 21.4 10 23 10 c 1.58 0 3.11 0.65 4.29 1.84 c 0.82 0.82 1.25 1.6 1.56 2.17 c 0.17 0.31 0.3 0.56 0.44 0.69 C 29.48 14.89 29.74 15 30 15 c 0.15 0 0.45 -0.04 0.71 -0.29 c 1.13 -1.14 3.81 -3.93 3.83 -3.95 l 2.92 2.73 c -0.07 0.08 -2.74 2.86 -3.92 4.05 C 32.59 18.48 31.33 19 30 19 s -2.58 -0.52 -3.53 -1.46 c -0.55 -0.54 -0.86 -1.11 -1.13 -1.62 c -0.25 -0.45 -0.47 -0.84 -0.88 -1.26 c -0.87 -0.86 -2.14 -0.81 -2.87 -0.08 C 21.21 14.96 21 15.47 21 16 c 0 0.52 0.22 1.03 0.61 1.44 c 0.92 0.96 2.49 1.73 4.15 2.56 C 27.85 21.03 30.21 22.21 31.99 24.09 z" stroke-linecap="round" />
</g>
<g transform="matrix(4.17 0 0 4.17 210.42 185.42)" id="Layer_1"  >
<path style="stroke: none; stroke-width: 1; stroke-dasharray: none; stroke-linecap: butt; stroke-dashoffset: 0; stroke-linejoin: miter; stroke-miterlimit: 4; fill: rgb(174,213,129); fill-rule: nonzero; opacity: 1;"  transform=" translate(-26.5, -20.5)" d="M 34 29 c 0 -1.28 -1.094 -3.298 -3.25 -4.625 c -1.625 -1 -3.25 -1.608 -5.75 -2.625 c -0.849 -0.345 -1.628 -0.696 -2.375 -1.12 c -0.944 -0.535 -1.793 -1.111 -2.455 -1.8 C 19.41 18.03 19 17.02 19 16 s 0.39 -2.05 1.17 -2.83 S 21.98 12 23 12 c 0.773 0 1.5 0.25 2.125 0.75 c 1.25 1 1.5 2.875 2 4 C 28.17 19.102 30 19 30 19 c -1.33 0 -2.58 -0.52 -3.53 -1.46 c -0.55 -0.54 -0.86 -1.11 -1.13 -1.62 c -0.25 -0.45 -0.47 -0.84 -0.88 -1.26 c -0.87 -0.86 -2.14 -0.81 -2.87 -0.08 C 21.21 14.96 21 15.47 21 16 c 0 0.52 0.22 1.03 0.61 1.44 c 0.92 0.96 2.49 1.73 4.15 2.56 c 2.09 1.03 4.45 2.21 6.23 4.09 C 33.29 25.47 34 27.21 34 29 z" stroke-linecap="round" />
</g>
<g transform="matrix(4.17 0 0 4.17 146.35 270.83)" id="Layer_1"  >
<path style="stroke: none; stroke-width: 1; stroke-dasharray: none; stroke-linecap: butt; stroke-dashoffset: 0; stroke-linejoin: miter; stroke-miterlimit: 4; fill: rgb(174,213,129); fill-rule: nonzero; opacity: 1;"  transform=" translate(-11.13, -41)" d="M 19.25 39.26 c -0.23 0.41 -0.52 0.79 -0.86 1.13 c -0.79 0.79 -1.78 1.31 -2.85 1.51 C 15.2 41.97 14.85 42 14.5 42 c -2.88 0 -4.25 -3 -6.5 -3 c -0.2 0 -0.39 0.02 -0.58 0.06 c -0.09 0.02 -0.18 0.04 -0.27 0.07 c -0.27 0.08 -0.52 0.2 -0.77 0.35 c 0 0 0 0.01 -0.01 0.01 c -2.13 1.28 -3.27 4.77 -3.36 5.39 C 3 44.92 3 44.96 3 45 c 0 -0.17 0.01 -0.37 0.02 -0.59 C 3.19 42.03 4.38 37 8.5 37 c 3.5 0 3.88 4 7.12 4 C 17.86 41 18.93 39.73 19.25 39.26 z" stroke-linecap="round" />
</g>
<g transform="matrix(4.17 0 0 4.17 157.63 216.67)" id="Layer_1"  >
<path style="stroke: none; stroke-width: 1; stroke-dasharray: none; stroke-linecap: butt; stroke-dashoffset: 0; stroke-linejoin: miter; stroke-miterlimit: 4; fill: rgb(174,213,129); fill-rule: nonzero; opacity: 1;"  transform=" translate(-13.83, -28)" d="M 19.391 34 c -0.183 -0.359 -0.406 -0.698 -0.671 -1.01 c -0.1 -0.13 -0.21 -0.25 -0.32 -0.36 c -1.55 -1.59 -3.44 -2.07 -4.95 -2.45 c -1.09 -0.27 -2.02 -0.51 -2.57 -1.06 C 10.31 28.55 10 27.8 10 27 s 0.31 -1.55 0.88 -2.12 c 1.12 -1.13 3.07 -1.15 4.26 0.01 c 1.12 1.1 2.17 2.66 3.29 4.32 c 0.13 0.2 0.26 0.4 0.4 0.59 c 0.27 0.4 0.54 0.79 0.81 1.18 c 0.01 0.01 0.02 0.01 0.02 0.02 c -0.78 -1.5 -1.04 -2.88 -1.54 -4.5 c -0.27 -0.88 -0.74 -2.21 -1.58 -3.04 C 15.55 22.5 14.28 22 13 22 s -2.56 0.49 -3.54 1.46 C 8.49 24.44 8 25.72 8 27 c 0 2.625 1.625 4 3.125 4.375 c 0.841 0.21 2.75 0.375 3.875 0.5 C 18.479 32.262 19.391 34 19.391 34 z" stroke-linecap="round" />
</g>
</svg>