<?xml version="1.0" encoding="UTF-8" standalone="no" ?>
<!DOCTYPE svg PUBLIC "-//W3C//DTD SVG 1.1//EN" "http://www.w3.org/Graphics/SVG/1.1/DTD/svg11.dtd">
<svg xmlns="http://www.w3.org/2000/svg" xmlns:xlink="http://www.w3.org/1999/xlink" version="1.1" width="400" height="400" viewBox="0 0 400 400" xml:space="preserve">
<desc>Created with Fabric.js 3.6.2</desc>
<defs>
</defs>
<g transform="matrix(4.17 0 0 4.17 200 200)" id="surface1"  >
<path style="stroke: none; stroke-width: 1; stroke-dasharray: none; stroke-linecap: butt; stroke-dashoffset: 0; stroke-linejoin: miter; stroke-miterlimit: 4; fill: rgb(255,61,0); fill-rule: nonzero; opacity: 1;"  transform=" translate(-24, -24)" d="M 33 17 C 33 18.65625 31.65625 20 30 20 L 16 20 C 14.34375 20 13 18.65625 13 17 L 4 17 L 4 22 C 9 22 11 31 11 31 L 36 31 L 44 17 Z" stroke-linecap="round" />
</g>
<g transform="matrix(4.17 0 0 4.17 191.67 175)" id="surface1"  >
<path style="stroke: none; stroke-width: 1; stroke-dasharray: none; stroke-linecap: butt; stroke-dashoffset: 0; stroke-linejoin: miter; stroke-miterlimit: 4; fill: rgb(255,235,59); fill-rule: nonzero; opacity: 1;"  transform=" translate(-22, -18)" d="M 20 16 L 24 16 L 24 20 L 20 20 Z" stroke-linecap="round" />
</g>
<g transform="matrix(4.17 0 0 4.17 208.33 158.33)" id="surface1"  >
<path style="stroke: none; stroke-width: 1; stroke-dasharray: none; stroke-linecap: butt; stroke-dashoffset: 0; stroke-linejoin: miter; stroke-miterlimit: 4; fill: rgb(255,235,59); fill-rule: nonzero; opacity: 1;"  transform=" translate(-26, -14)" d="M 24 12 L 28 12 L 28 16 L 24 16 Z" stroke-linecap="round" />
</g>
<g transform="matrix(4.17 0 0 4.17 175 158.33)" id="surface1"  >
<path style="stroke: none; stroke-width: 1; stroke-dasharray: none; stroke-linecap: butt; stroke-dashoffset: 0; stroke-linejoin: miter; stroke-miterlimit: 4; fill: rgb(255,152,0); fill-rule: nonzero; opacity: 1;"  transform=" translate(-18, -14)" d="M 16 12 L 20 12 L 20 16 L 16 16 Z" stroke-linecap="round" />
</g>
<g transform="matrix(4.17 0 0 4.17 208.33 175)" id="surface1"  >
<path style="stroke: none; stroke-width: 1; stroke-dasharray: none; stroke-linecap: butt; stroke-dashoffset: 0; stroke-linejoin: miter; stroke-miterlimit: 4; fill: rgb(255,152,0); fill-rule: nonzero; opacity: 1;"  transform=" translate(-26, -18)" d="M 24 16 L 28 16 L 28 20 L 24 20 Z" stroke-linecap="round" />
</g>
<g transform="matrix(4.17 0 0 4.17 191.67 158.33)" id="surface1"  >
<path style="stroke: none; stroke-width: 1; stroke-dasharray: none; stroke-linecap: butt; stroke-dashoffset: 0; stroke-linejoin: miter; stroke-miterlimit: 4; fill: rgb(255,87,34); fill-rule: nonzero; opacity: 1;"  transform=" translate(-22, -14)" d="M 20 12 L 24 12 L 24 16 L 20 16 Z" stroke-linecap="round" />
</g>
<g transform="matrix(4.17 0 0 4.17 225 175)" id="surface1"  >
<path style="stroke: none; stroke-width: 1; stroke-dasharray: none; stroke-linecap: butt; stroke-dashoffset: 0; stroke-linejoin: miter; stroke-miterlimit: 4; fill: rgb(255,87,34); fill-rule: nonzero; opacity: 1;"  transform=" translate(-30, -18)" d="M 28 16 L 32 16 L 32 20 L 28 20 Z" stroke-linecap="round" />
</g>
<g transform="matrix(4.17 0 0 4.17 225 158.33)" id="surface1"  >
<path style="stroke: none; stroke-width: 1; stroke-dasharray: none; stroke-linecap: butt; stroke-dashoffset: 0; stroke-linejoin: miter; stroke-miterlimit: 4; fill: rgb(255,193,7); fill-rule: nonzero; opacity: 1;"  transform=" translate(-30, -14)" d="M 28 12 L 32 12 L 32 16 L 28 16 Z" stroke-linecap="round" />
</g>
<g transform="matrix(4.17 0 0 4.17 175 175)" id="surface1"  >
<path style="stroke: none; stroke-width: 1; stroke-dasharray: none; stroke-linecap: butt; stroke-dashoffset: 0; stroke-linejoin: miter; stroke-miterlimit: 4; fill: rgb(255,193,7); fill-rule: nonzero; opacity: 1;"  transform=" translate(-18, -18)" d="M 16 16 L 20 16 L 20 20 L 16 20 Z" stroke-linecap="round" />
</g>
<g transform="matrix(4.17 0 0 4.17 200 181.25)" id="surface1"  >
<path style="stroke: none; stroke-width: 1; stroke-dasharray: none; stroke-linecap: butt; stroke-dashoffset: 0; stroke-linejoin: miter; stroke-miterlimit: 4; fill: rgb(69,90,100); fill-rule: nonzero; opacity: 1;"  transform=" translate(-24, -19.5)" d="M 44 17 L 33 17 C 33 18.65625 31.65625 20 30 20 L 16 20 C 14.34375 20 13 18.65625 13 17 L 4 17 L 4 22 L 41.144531 22 Z" stroke-linecap="round" />
</g>
<g transform="matrix(4.17 0 0 4.17 139.58 156.25)" id="surface1"  >
<path style="stroke: none; stroke-width: 1; stroke-dasharray: none; stroke-linecap: butt; stroke-dashoffset: 0; stroke-linejoin: miter; stroke-miterlimit: 4; fill: rgb(176,190,197); fill-rule: nonzero; opacity: 1;"  transform=" translate(-9.5, -13.5)" d="M 6 10 L 13 10 L 13 17 L 6 17 Z" stroke-linecap="round" />
</g>
<g transform="matrix(4.17 0 0 4.17 141.67 139.58)" id="surface1"  >
<path style="stroke: none; stroke-width: 1; stroke-dasharray: none; stroke-linecap: butt; stroke-dashoffset: 0; stroke-linejoin: miter; stroke-miterlimit: 4; fill: rgb(176,190,197); fill-rule: nonzero; opacity: 1;"  transform=" translate(-10, -9.5)" d="M 14 10 C 14 10.554688 13 11 13 11 L 7 11 C 6.449219 11 6 10.554688 6 10 L 6 9 C 6 8.445313 6.449219 8 7 8 L 13 8 C 13.550781 8 14 8.445313 14 9 Z" stroke-linecap="round" />
</g>
<g transform="matrix(4.17 0 0 4.17 137.5 162.5)" id="surface1"  >
<path style="stroke: none; stroke-width: 1; stroke-dasharray: none; stroke-linecap: butt; stroke-dashoffset: 0; stroke-linejoin: miter; stroke-miterlimit: 4; fill: rgb(38,50,56); fill-rule: nonzero; opacity: 1;"  transform=" translate(-9, -15)" d="M 8 14 L 10 14 L 10 16 L 8 16 Z" stroke-linecap="round" />
</g>
<g transform="matrix(4.17 0 0 4.17 137.5 145.83)" id="surface1"  >
<path style="stroke: none; stroke-width: 1; stroke-dasharray: none; stroke-linecap: butt; stroke-dashoffset: 0; stroke-linejoin: miter; stroke-miterlimit: 4; fill: rgb(38,50,56); fill-rule: nonzero; opacity: 1;"  transform=" translate(-9, -11)" d="M 8 10 L 10 10 L 10 12 L 8 12 Z" stroke-linecap="round" />
</g>
<g transform="matrix(4.17 0 0 4.17 200 241.67)" id="surface1"  >
<path style="stroke: none; stroke-width: 1; stroke-dasharray: none; stroke-linecap: butt; stroke-dashoffset: 0; stroke-linejoin: miter; stroke-miterlimit: 4; fill: rgb(144,202,249); fill-rule: nonzero; opacity: 1;"  transform=" translate(-24, -34)" d="M 44 31 C 41 31 40 29 40 29 C 40 29 39 31 36 31 C 33 31 32 29 32 29 C 32 29 31 31 28 31 C 25 31 24 29 24 29 C 24 29 23 31 20 31 C 17 31 16 29 16 29 C 16 29 15 31 12 31 C 9 31 8 29 8 29 C 8 29 7 31 4 31 L 4 39 L 44 39 Z" stroke-linecap="round" />
</g>
<g transform="matrix(4.17 0 0 4.17 200 250)" id="surface1"  >
<path style="stroke: none; stroke-width: 1; stroke-dasharray: none; stroke-linecap: butt; stroke-dashoffset: 0; stroke-linejoin: miter; stroke-miterlimit: 4; fill: rgb(33,150,243); fill-rule: nonzero; opacity: 1;"  transform=" translate(-24, -36)" d="M 44 35 C 41 35 40 33 40 33 C 40 33 39 35 36 35 C 33 35 32 33 32 33 C 32 33 31 35 28 35 C 25 35 24 33 24 33 C 24 33 23 35 20 35 C 17 35 16 33 16 33 C 16 33 15 35 12 35 C 9 35 8 33 8 33 C 8 33 7 35 4 35 L 4 39 L 44 39 Z" stroke-linecap="round" />
</g>
<g transform="matrix(4.17 0 0 4.17 194.05 195.83)" id="surface1"  >
<path style="stroke: none; stroke-width: 1; stroke-dasharray: none; stroke-linecap: butt; stroke-dashoffset: 0; stroke-linejoin: miter; stroke-miterlimit: 4; fill: rgb(239,154,154); fill-rule: nonzero; opacity: 1;"  transform=" translate(-22.57, -23)" d="M 7.757813 24 L 40 24 L 41.144531 22 L 4 22 C 5.523438 22 6.761719 22.839844 7.757813 24 Z" stroke-linecap="round" />
</g>
</svg>