<?xml version="1.0" encoding="UTF-8" standalone="no" ?>
<!DOCTYPE svg PUBLIC "-//W3C//DTD SVG 1.1//EN" "http://www.w3.org/Graphics/SVG/1.1/DTD/svg11.dtd">
<svg xmlns="http://www.w3.org/2000/svg" xmlns:xlink="http://www.w3.org/1999/xlink" version="1.1" width="400" height="400" viewBox="0 0 400 400" xml:space="preserve">
<desc>Created with Fabric.js 3.6.2</desc>
<defs>
</defs>
<g transform="matrix(2.67 0 0 2.67 173.99 248.92)" id="Layer_1"  >
<line style="stroke: none; stroke-width: 1; stroke-dasharray: none; stroke-linecap: butt; stroke-dashoffset: 0; stroke-linejoin: miter; stroke-miterlimit: 4; fill: rgb(188,42,84); fill-rule: nonzero; opacity: 1;"  x1="-7.127999999999998" y1="0.0009999999999976694" x2="7.127999999999998" y2="-0.0009999999999976694" />
</g>
<g transform="matrix(2.67 0 0 2.67 186.5 236.42)" id="Layer_1"  >
<line style="stroke: none; stroke-width: 1; stroke-dasharray: none; stroke-linecap: butt; stroke-dashoffset: 0; stroke-linejoin: miter; stroke-miterlimit: 4; fill: rgb(188,42,84); fill-rule: nonzero; opacity: 1;"  x1="-7.128" y1="0" x2="7.128" y2="0" />
</g>
<g transform="matrix(2.67 0 0 2.67 156.02 274.94)" id="Layer_1"  >
<line style="stroke: none; stroke-width: 1; stroke-dasharray: none; stroke-linecap: butt; stroke-dashoffset: 0; stroke-linejoin: miter; stroke-miterlimit: 4; fill: rgb(188,42,84); fill-rule: nonzero; opacity: 1;"  x1="-4.1240000000000006" y1="0.0010000000000047748" x2="4.1240000000000006" y2="-0.0010000000000047748" />
</g>
<g transform="matrix(2.67 0 0 2.67 160.3 262.43)" id="Layer_1"  >
<line style="stroke: none; stroke-width: 1; stroke-dasharray: none; stroke-linecap: butt; stroke-dashoffset: 0; stroke-linejoin: miter; stroke-miterlimit: 4; fill: rgb(188,42,84); fill-rule: nonzero; opacity: 1;"  x1="-6.7765" y1="0" x2="6.7765" y2="0" />
</g>
<g transform="matrix(2.67 0 0 2.67 201.38 221.53)" id="Layer_1"  >
<line style="stroke: none; stroke-width: 1; stroke-dasharray: none; stroke-linecap: butt; stroke-dashoffset: 0; stroke-linejoin: miter; stroke-miterlimit: 4; fill: rgb(188,42,84); fill-rule: nonzero; opacity: 1;"  x1="-7.128" y1="0" x2="7.128" y2="0" />
</g>
<g transform="matrix(2.67 0 0 2.67 213.89 209.03)" id="Layer_1"  >
<line style="stroke: none; stroke-width: 1; stroke-dasharray: none; stroke-linecap: butt; stroke-dashoffset: 0; stroke-linejoin: miter; stroke-miterlimit: 4; fill: rgb(188,42,84); fill-rule: nonzero; opacity: 1;"  x1="-7.128" y1="0" x2="7.128" y2="0" />
</g>
<g transform="matrix(2.67 0 0 2.67 228.78 194.14)" id="Layer_1"  >
<line style="stroke: none; stroke-width: 1; stroke-dasharray: none; stroke-linecap: butt; stroke-dashoffset: 0; stroke-linejoin: miter; stroke-miterlimit: 4; fill: rgb(188,42,84); fill-rule: nonzero; opacity: 1;"  x1="-7.128" y1="0" x2="7.128" y2="0" />
</g>
<g transform="matrix(2.67 0 0 2.67 239.22 181.64)" id="Layer_1"  >
<line style="stroke: none; stroke-width: 1; stroke-dasharray: none; stroke-linecap: butt; stroke-dashoffset: 0; stroke-linejoin: miter; stroke-miterlimit: 4; fill: rgb(188,42,84); fill-rule: nonzero; opacity: 1;"  x1="-6.355499999999999" y1="0" x2="6.355499999999999" y2="0" />
</g>
<g transform="matrix(2.67 0 0 2.67 246.77 166.75)" id="Layer_1"  >
<line style="stroke: none; stroke-width: 1; stroke-dasharray: none; stroke-linecap: butt; stroke-dashoffset: 0; stroke-linejoin: miter; stroke-miterlimit: 4; fill: rgb(188,42,84); fill-rule: nonzero; opacity: 1;"  x1="-4.402999999999999" y1="0" x2="4.402999999999999" y2="0" />
</g>
<g transform="matrix(2.67 0 0 2.67 244.9 154.25)" id="Layer_1"  >
<line style="stroke: none; stroke-width: 1; stroke-dasharray: none; stroke-linecap: butt; stroke-dashoffset: 0; stroke-linejoin: miter; stroke-miterlimit: 4; fill: rgb(188,42,84); fill-rule: nonzero; opacity: 1;"  x1="-5.101499999999998" y1="0" x2="5.101499999999998" y2="0" />
</g>
<g transform="matrix(2.67 0 0 2.67 216.34 139.35)" id="Layer_1"  >
<line style="stroke: none; stroke-width: 1; stroke-dasharray: none; stroke-linecap: butt; stroke-dashoffset: 0; stroke-linejoin: miter; stroke-miterlimit: 4; fill: rgb(188,42,84); fill-rule: nonzero; opacity: 1;"  x1="-13.851499999999998" y1="0" x2="13.851499999999998" y2="0" />
</g>
<g transform="matrix(2.67 0 0 2.67 214.1 126.86)" id="Layer_1"  >
<line style="stroke: none; stroke-width: 1; stroke-dasharray: none; stroke-linecap: butt; stroke-dashoffset: 0; stroke-linejoin: miter; stroke-miterlimit: 4; fill: rgb(188,42,84); fill-rule: nonzero; opacity: 1;"  x1="-10.203500000000002" y1="0" x2="10.203500000000002" y2="0" />
</g>
<g transform="matrix(2.67 0 0 2.67 200 200)" id="Layer_1"  >
<path style="stroke: none; stroke-width: 1; stroke-dasharray: none; stroke-linecap: butt; stroke-dashoffset: 0; stroke-linejoin: miter; stroke-miterlimit: 4; fill: rgb(232,56,98); fill-rule: nonzero; opacity: 1;"  transform=" translate(-37.5, -37.5)" d="M 55.082 11.395 c -6.68 -6.682 -17.551 -6.682 -24.242 0 c -1.967 1.967 -1.967 5.162 -0.006 7.133 c 1.976 1.967 5.167 1.961 7.133 0 c 2.755 -2.756 7.232 -2.756 9.982 0 c 2.76 2.744 2.76 7.229 0 9.982 L 16.541 59.924 c -0.674 0.668 -1.094 1.477 -1.309 2.328 c 0.01 0.01 0.023 0.021 0.035 0.031 c -0.117 -0.004 -0.217 0.012 -0.277 0.072 c -0.396 0.396 0.665 2.102 2.371 3.809 c 1.707 1.705 3.411 2.766 3.808 2.369 c 0.062 -0.062 0.077 -0.166 0.07 -0.289 l 0.116 0.117 c 0.848 -0.227 1.651 -0.646 2.309 -1.305 l 31.424 -31.422 C 61.763 28.958 61.763 18.081 55.082 11.395 z" stroke-linecap="round" />
</g>
<g transform="matrix(2.67 0 0 2.67 200.79 203.56)" id="Layer_1"  >
<path style="stroke: none; stroke-width: 1; stroke-dasharray: none; stroke-linecap: butt; stroke-dashoffset: 0; stroke-linejoin: miter; stroke-miterlimit: 4; fill: rgb(188,42,84); fill-rule: nonzero; opacity: 1;"  transform=" translate(-37.79, -38.83)" d="M 21.168 68.534 c 0.062 -0.062 0.077 -0.166 0.07 -0.289 l 0.116 0.117 c 0.848 -0.227 1.651 -0.646 2.309 -1.305 l 31.424 -31.422 c 2.999 -2.998 4.639 -6.846 4.943 -10.779 c -0.305 -3.936 -1.945 -7.789 -4.949 -10.795 c -6.68 -6.68 -17.551 -6.68 -24.242 0 c -0.642 0.641 -1.052 1.418 -1.275 2.234 c 0.223 0.816 0.632 1.592 1.27 2.232 c 1.976 1.967 5.167 1.961 7.133 0 c 2.755 -2.756 7.232 -2.756 9.982 0 c 1.721 1.711 2.367 4.098 1.943 6.32 c 0.424 2.223 -0.223 4.611 -1.943 6.33 L 16.541 62.59 c -0.43 0.428 -0.746 0.914 -0.982 1.43 c 0.432 0.643 1.049 1.389 1.803 2.145 C 19.068 67.87 20.772 68.93 21.168 68.534 z" stroke-linecap="round" />
</g>
<g transform="matrix(2.67 0 0 2.67 214.57 120.59)" id="Layer_1"  >
<path style="stroke: none; stroke-width: 1; stroke-dasharray: none; stroke-linecap: butt; stroke-dashoffset: 0; stroke-linejoin: miter; stroke-miterlimit: 4; fill: rgb(255,255,255); fill-rule: nonzero; opacity: 1;"  transform=" translate(-42.96, -7.72)" d="M 33.786 9.051 h 18.354 C 46.559 5.51 39.372 5.51 33.786 9.051 z" stroke-linecap="round" />
</g>
<g transform="matrix(2.67 0 0 2.67 218.34 144.47)" id="Layer_1"  >
<path style="stroke: none; stroke-width: 1; stroke-dasharray: none; stroke-linecap: butt; stroke-dashoffset: 0; stroke-linejoin: miter; stroke-miterlimit: 4; fill: rgb(217,241,255); fill-rule: nonzero; opacity: 1;"  transform=" translate(-44.38, -16.68)" d="M 57.673 14.758 H 29.382 c -0.055 1.357 0.42 2.732 1.451 3.77 c 0.026 0.027 0.059 0.043 0.086 0.07 h 6.962 c 0.026 -0.027 0.059 -0.043 0.085 -0.07 c 2.755 -2.756 7.232 -2.756 9.982 0 c 0.022 0.023 0.041 0.047 0.062 0.07 h 11.364 C 58.979 17.266 58.4 15.981 57.673 14.758 z" stroke-linecap="round" />
</g>
<g transform="matrix(2.67 0 0 2.67 244.45 169.93)" id="Layer_1"  >
<path style="stroke: none; stroke-width: 1; stroke-dasharray: none; stroke-linecap: butt; stroke-dashoffset: 0; stroke-linejoin: miter; stroke-miterlimit: 4; fill: rgb(217,241,255); fill-rule: nonzero; opacity: 1;"  transform=" translate(-54.17, -26.22)" d="M 59.453 28.143 c 0.35 -1.256 0.545 -2.543 0.604 -3.838 H 49.97 c -0.154 1.383 -0.72 2.727 -1.689 3.838 H 59.453 z" stroke-linecap="round" />
</g>
<g transform="matrix(2.67 0 0 2.67 227.18 195.39)" id="Layer_1"  >
<path style="stroke: none; stroke-width: 1; stroke-dasharray: none; stroke-linecap: butt; stroke-dashoffset: 0; stroke-linejoin: miter; stroke-miterlimit: 4; fill: rgb(217,241,255); fill-rule: nonzero; opacity: 1;"  transform=" translate(-47.69, -35.77)" d="M 42.609 33.852 l -3.838 3.838 h 14.263 l 2.054 -2.055 c 0.564 -0.562 1.062 -1.166 1.529 -1.783 H 42.609 z" stroke-linecap="round" />
</g>
<g transform="matrix(2.67 0 0 2.67 202.07 220.85)" id="Layer_1"  >
<polygon style="stroke: none; stroke-width: 1; stroke-dasharray: none; stroke-linecap: butt; stroke-dashoffset: 0; stroke-linejoin: miter; stroke-miterlimit: 4; fill: rgb(255,255,255); fill-rule: nonzero; opacity: 1;"  points="5.21,1.92 9.05,-1.92 -5.21,-1.92 -9.05,1.92 " />
</g>
<g transform="matrix(2.67 0 0 2.67 205.62 220.85)" id="Layer_1"  >
<polygon style="stroke: none; stroke-width: 1; stroke-dasharray: none; stroke-linecap: butt; stroke-dashoffset: 0; stroke-linejoin: miter; stroke-miterlimit: 4; fill: rgb(217,241,255); fill-rule: nonzero; opacity: 1;"  points="-3.88,-1.92 -7.72,1.92 3.88,1.92 5.4,0.4 7.72,-1.92 " />
</g>
<g transform="matrix(2.67 0 0 2.67 176.61 246.3)" id="Layer_1"  >
<polygon style="stroke: none; stroke-width: 1; stroke-dasharray: none; stroke-linecap: butt; stroke-dashoffset: 0; stroke-linejoin: miter; stroke-miterlimit: 4; fill: rgb(255,255,255); fill-rule: nonzero; opacity: 1;"  points="5.21,1.92 9.05,-1.92 -5.21,-1.92 -9.05,1.92 " />
</g>
<g transform="matrix(2.67 0 0 2.67 180.17 246.3)" id="Layer_1"  >
<polygon style="stroke: none; stroke-width: 1; stroke-dasharray: none; stroke-linecap: butt; stroke-dashoffset: 0; stroke-linejoin: miter; stroke-miterlimit: 4; fill: rgb(217,241,255); fill-rule: nonzero; opacity: 1;"  points="3.88,1.92 6.17,-0.38 7.72,-1.92 -3.88,-1.92 -7.72,1.92 " />
</g>
<g transform="matrix(2.67 0 0 2.67 157.54 271.76)" id="Layer_1"  >
<path style="stroke: none; stroke-width: 1; stroke-dasharray: none; stroke-linecap: butt; stroke-dashoffset: 0; stroke-linejoin: miter; stroke-miterlimit: 4; fill: rgb(217,241,255); fill-rule: nonzero; opacity: 1;"  transform=" translate(-21.58, -64.41)" d="M 28.231 62.491 H 14.937 c -0.152 0.553 0.856 2.105 2.424 3.674 c 0.059 0.057 0.115 0.107 0.174 0.164 h 6.857 L 28.231 62.491 z" stroke-linecap="round" />
</g>
<g transform="matrix(2.67 0 0 2.67 200.01 200)" id="Layer_1"  >
<path style="stroke: none; stroke-width: 1; stroke-dasharray: none; stroke-linecap: butt; stroke-dashoffset: 0; stroke-linejoin: miter; stroke-miterlimit: 4; fill: rgb(9,50,96); fill-rule: nonzero; opacity: 1;"  transform=" translate(-37.5, -37.5)" d="M 20.925 69.367 c -1.351 0 -3.647 -2.226 -4.094 -2.671 c -1.089 -1.089 -3.498 -3.743 -2.372 -4.87 c 0.046 -0.046 0.096 -0.087 0.149 -0.122 c 0.284 -0.892 0.755 -1.668 1.404 -2.312 L 47.418 27.98 c 1.195 -1.192 1.852 -2.78 1.85 -4.47 c -0.001 -1.686 -0.658 -3.266 -1.849 -4.45 c -1.19 -1.193 -2.774 -1.849 -4.46 -1.849 c -1.687 0 -3.272 0.656 -4.463 1.847 c -1.094 1.092 -2.549 1.692 -4.096 1.692 c -1.546 0 -3.001 -0.601 -4.097 -1.691 c -2.253 -2.265 -2.25 -5.94 0.005 -8.195 c 3.378 -3.374 7.873 -5.231 12.656 -5.231 s 9.275 1.858 12.647 5.231 c 6.974 6.978 6.977 18.328 0.006 25.301 L 24.194 67.587 c -0.675 0.676 -1.504 1.163 -2.469 1.449 c -0.008 0.009 -0.017 0.019 -0.026 0.027 C 21.561 69.202 21.314 69.367 20.925 69.367 z M 15.736 62.849 c 0.22 0.501 0.902 1.532 2.155 2.786 c 1.257 1.255 2.29 1.937 2.789 2.155 c 0.075 -0.091 0.17 -0.164 0.28 -0.208 c 0.168 -0.067 0.35 -0.082 0.513 -0.038 c 0.647 -0.219 1.205 -0.56 1.661 -1.016 l 31.424 -31.422 c 6.386 -6.388 6.383 -16.787 -0.006 -23.18 c -3.089 -3.09 -7.204 -4.792 -11.586 -4.792 s -8.501 1.702 -11.596 4.792 c -1.671 1.671 -1.673 4.396 -0.004 6.073 c 0.81 0.806 1.889 1.251 3.036 1.251 s 2.225 -0.445 3.036 -1.253 c 1.474 -1.474 3.435 -2.286 5.523 -2.286 s 4.048 0.812 5.52 2.287 c 1.474 1.465 2.287 3.423 2.289 5.51 c 0.002 2.092 -0.812 4.057 -2.29 5.533 L 17.071 60.455 c -0.511 0.506 -0.872 1.127 -1.076 1.848 c -0.002 0.09 -0.021 0.18 -0.057 0.264 C 15.89 62.676 15.821 62.772 15.736 62.849 z" stroke-linecap="round" />
</g>
<g transform="matrix(2.67 0 0 2.67 157.96 200.44)" id="Layer_1"  >
<path style="stroke: none; stroke-width: 1; stroke-dasharray: none; stroke-linecap: butt; stroke-dashoffset: 0; stroke-linejoin: miter; stroke-miterlimit: 4; fill: rgb(27,193,169); fill-rule: nonzero; opacity: 1;"  transform=" translate(-21.73, -37.66)" d="M 28.208 37.083 c 0 -1.455 -1.181 -2.637 -2.637 -2.637 h -2.398 v -0.002 h -5.274 c -1.456 0 -2.638 -1.18 -2.637 -2.637 l -0.001 6.439 c 0 1.457 1.182 2.637 2.638 2.637 h 2.397 v 0.002 h 5.275 c 1.456 0 2.637 1.182 2.637 2.637 V 37.083 z" stroke-linecap="round" />
</g>
<g transform="matrix(2.67 0 0 2.67 186.82 211.01)" id="Layer_1"  >
<path style="stroke: none; stroke-width: 1; stroke-dasharray: none; stroke-linecap: butt; stroke-dashoffset: 0; stroke-linejoin: miter; stroke-miterlimit: 4; fill: rgb(27,193,169); fill-rule: nonzero; opacity: 1;"  transform=" translate(-32.56, -41.63)" d="M 36.905 39.731 c 0 -1.457 -1.181 -2.637 -2.638 -2.637 h -2.396 v -0.002 h -3.662 v 6.43 l 6.059 0.01 c 1.457 0 2.638 1.182 2.638 2.637 V 39.731 z" stroke-linecap="round" />
</g>
<g transform="matrix(2.67 0 0 2.67 191.82 208.97)" id="Layer_1"  >
<path style="stroke: none; stroke-width: 1; stroke-dasharray: none; stroke-linecap: butt; stroke-dashoffset: 0; stroke-linejoin: miter; stroke-miterlimit: 4; fill: rgb(12,175,175); fill-rule: nonzero; opacity: 1;"  transform=" translate(-34.43, -40.86)" d="M 36.905 43.108 v -3.377 c 0 -1.457 -1.181 -2.637 -2.638 -2.637 h -2.168 c -0.084 0.67 -0.141 1.359 -0.141 2.072 c 0 1.574 0.227 3.047 0.61 4.363 l 1.698 0.002 c 0.884 0 1.66 0.438 2.141 1.105 C 36.597 44.155 36.766 43.647 36.905 43.108 z" stroke-linecap="round" />
</g>
<g transform="matrix(2.67 0 0 2.67 157.96 200.44)" id="Layer_1"  >
<path style="stroke: none; stroke-width: 1; stroke-dasharray: none; stroke-linecap: butt; stroke-dashoffset: 0; stroke-linejoin: miter; stroke-miterlimit: 4; fill: rgb(9,50,96); fill-rule: nonzero; opacity: 1;"  transform=" translate(-21.73, -37.66)" d="M 28.208 44.272 c -0.414 0 -0.75 -0.336 -0.75 -0.75 c 0 -1.041 -0.846 -1.887 -1.887 -1.887 l -7.673 -0.002 c -1.868 0 -3.387 -1.519 -3.387 -3.387 l 0.001 -6.439 v 0 c 0 -0.414 0.336 -0.75 0.75 -0.75 c 0 0 0 0 0 0 c 0.414 0 0.75 0.336 0.75 0.75 v 0 c 0 0.504 0.196 0.978 0.552 1.334 c 0.356 0.356 0.83 0.552 1.334 0.552 l 7.673 0.002 c 1.867 0 3.386 1.519 3.386 3.387 v 6.439 C 28.958 43.936 28.623 44.272 28.208 44.272 z M 16.012 34.621 l 0 3.625 c 0 1.041 0.847 1.887 1.888 1.887 l 7.673 0.002 c 0.698 0 1.347 0.212 1.886 0.575 v -3.628 c 0 -1.041 -0.846 -1.887 -1.887 -1.887 l -7.673 -0.002 C 17.217 35.194 16.565 34.994 16.012 34.621 z" stroke-linecap="round" />
</g>
<g transform="matrix(2.67 0 0 2.67 186.82 211.01)" id="Layer_1"  >
<path style="stroke: none; stroke-width: 1; stroke-dasharray: none; stroke-linecap: butt; stroke-dashoffset: 0; stroke-linejoin: miter; stroke-miterlimit: 4; fill: rgb(9,50,96); fill-rule: nonzero; opacity: 1;"  transform=" translate(-32.56, -41.63)" d="M 36.905 46.918 c -0.414 0 -0.75 -0.336 -0.75 -0.75 c 0 -1.041 -0.847 -1.887 -1.888 -1.887 l -6.06 -0.01 c -0.414 0 -0.749 -0.336 -0.749 -0.75 v -6.43 c 0 -0.414 0.336 -0.75 0.75 -0.75 l 6.059 0.002 c 1.868 0 3.387 1.519 3.387 3.387 v 6.438 C 37.655 46.583 37.319 46.918 36.905 46.918 z M 28.958 42.773 l 5.31 0.009 c 0.698 0 1.347 0.212 1.887 0.576 v -3.626 c 0 -1.041 -0.847 -1.887 -1.888 -1.887 l -5.309 -0.001 V 42.773 z" stroke-linecap="round" />
</g>
<g transform="matrix(2.67 0 0 2.67 221.13 263.61)" id="Layer_1"  >
<path style="stroke: none; stroke-width: 1; stroke-dasharray: none; stroke-linecap: butt; stroke-dashoffset: 0; stroke-linejoin: miter; stroke-miterlimit: 4; fill: rgb(27,193,169); fill-rule: nonzero; opacity: 1;"  transform=" translate(-45.43, -61.35)" d="M 46.006 54.881 c 1.456 -0.002 2.637 1.18 2.637 2.637 v 2.398 h 0.002 v 5.273 c 0 1.457 1.181 2.639 2.637 2.637 l -6.438 0.002 c -1.456 0 -2.637 -1.182 -2.637 -2.639 l -0.001 0.781 h -0.001 v -8.453 c 0 -1.457 -1.182 -2.637 -2.637 -2.637 H 46.006 z" stroke-linecap="round" />
</g>
<g transform="matrix(2.67 0 0 2.67 210.56 234.75)" id="Layer_1"  >
<path style="stroke: none; stroke-width: 1; stroke-dasharray: none; stroke-linecap: butt; stroke-dashoffset: 0; stroke-linejoin: miter; stroke-miterlimit: 4; fill: rgb(27,193,169); fill-rule: nonzero; opacity: 1;"  transform=" translate(-41.46, -50.53)" d="M 43.359 46.184 c 1.457 0 2.638 1.182 2.638 2.637 v 2.398 h 0.001 v 3.662 h -6.43 l -0.01 -6.061 c 0 -1.455 -1.182 -2.637 -2.637 -2.637 H 43.359 z" stroke-linecap="round" />
</g>
<g transform="matrix(2.67 0 0 2.67 212.6 229.75)" id="Layer_1"  >
<path style="stroke: none; stroke-width: 1; stroke-dasharray: none; stroke-linecap: butt; stroke-dashoffset: 0; stroke-linejoin: miter; stroke-miterlimit: 4; fill: rgb(12,175,175); fill-rule: nonzero; opacity: 1;"  transform=" translate(-42.23, -48.66)" d="M 39.982 46.184 h 3.377 c 1.457 0 2.638 1.182 2.638 2.637 v 2.17 c -0.671 0.084 -1.36 0.141 -2.074 0.141 c -1.573 0 -3.046 -0.227 -4.362 -0.611 l -0.002 -1.699 c 0 -0.883 -0.438 -1.66 -1.105 -2.139 C 38.935 46.493 39.443 46.323 39.982 46.184 z" stroke-linecap="round" />
</g>
<g transform="matrix(2.67 0 0 2.67 221.13 263.61)" id="Layer_1"  >
<path style="stroke: none; stroke-width: 1; stroke-dasharray: none; stroke-linecap: butt; stroke-dashoffset: 0; stroke-linejoin: miter; stroke-miterlimit: 4; fill: rgb(9,50,96); fill-rule: nonzero; opacity: 1;"  transform=" translate(-45.42, -61.35)" d="M 44.843 68.579 L 44.843 68.579 c -1.378 0 -2.567 -0.828 -3.095 -2.013 c -0.178 -0.137 -0.293 -0.353 -0.293 -0.595 l -0.001 -8.453 c 0 -1.041 -0.846 -1.887 -1.887 -1.887 c -0.414 0 -0.75 -0.336 -0.75 -0.75 s 0.336 -0.75 0.75 -0.75 h 6.438 c 1.869 0 3.387 1.519 3.387 3.387 l 0.002 7.671 c 0 1.041 0.844 1.887 1.882 1.887 c 0 0 0 0 0 0 h 0.003 h 0 c 0.414 0 0.75 0.335 0.75 0.749 c 0 0.415 -0.335 0.75 -0.749 0.751 c 0 0 0 0 -0.001 0 l 0 0 c -0.001 0 -0.003 0 -0.004 0 L 44.843 68.579 z M 42.955 65.135 c 0.001 0.018 0.002 0.036 0.002 0.055 c 0 1.042 0.846 1.889 1.887 1.889 l 3.627 -0.001 c -0.363 -0.54 -0.576 -1.189 -0.576 -1.888 l -0.002 -7.671 c 0 -1.041 -0.845 -1.887 -1.883 -1.887 h -3.631 c 0.363 0.54 0.576 1.189 0.576 1.887 V 65.135 z" stroke-linecap="round" />
</g>
<g transform="matrix(2.67 0 0 2.67 210.56 234.75)" id="Layer_1"  >
<path style="stroke: none; stroke-width: 1; stroke-dasharray: none; stroke-linecap: butt; stroke-dashoffset: 0; stroke-linejoin: miter; stroke-miterlimit: 4; fill: rgb(9,50,96); fill-rule: nonzero; opacity: 1;"  transform=" translate(-41.46, -50.53)" d="M 45.998 55.631 h -6.43 c -0.414 0 -0.75 -0.335 -0.75 -0.749 l -0.01 -6.061 c 0 -1.042 -0.846 -1.888 -1.887 -1.888 c -0.414 0 -0.75 -0.336 -0.75 -0.75 s 0.336 -0.75 0.75 -0.75 h 6.438 c 1.868 0 3.388 1.519 3.388 3.387 l 0.001 6.061 c 0 0.199 -0.079 0.39 -0.22 0.53 S 46.196 55.631 45.998 55.631 z M 40.317 54.131 h 4.931 l -0.001 -5.31 c 0 -1.041 -0.847 -1.887 -1.888 -1.887 h -3.626 c 0.363 0.54 0.576 1.189 0.576 1.887 L 40.317 54.131 z" stroke-linecap="round" />
</g>
<g transform="matrix(2.67 0 0 2.67 209.19 194.28)" id="Layer_1"  >
<path style="stroke: none; stroke-width: 1; stroke-dasharray: none; stroke-linecap: butt; stroke-dashoffset: 0; stroke-linejoin: miter; stroke-miterlimit: 4; fill: rgb(27,193,169); fill-rule: nonzero; opacity: 1;"  transform=" translate(-40.95, -35.36)" d="M 45.293 35.356 c 0 -5.418 -2.556 -9.809 -5.71 -9.809 c -1.096 0 -2.116 0.539 -2.986 1.459 c 1.633 1.729 2.725 4.816 2.725 8.35 c 0 3.535 -1.092 6.623 -2.725 8.35 c 0.87 0.92 1.891 1.459 2.986 1.459 C 42.738 45.165 45.293 40.774 45.293 35.356 z" stroke-linecap="round" />
</g>
<g transform="matrix(2.67 0 0 2.67 205.94 194.29)" id="Layer_1"  >
<path style="stroke: none; stroke-width: 1; stroke-dasharray: none; stroke-linecap: butt; stroke-dashoffset: 0; stroke-linejoin: miter; stroke-miterlimit: 4; fill: rgb(12,175,175); fill-rule: nonzero; opacity: 1;"  transform=" translate(-39.73, -35.36)" d="M 38.393 25.788 c -0.644 0.24 -1.252 0.645 -1.796 1.219 c 1.633 1.729 2.725 4.816 2.725 8.35 c 0 3.535 -1.092 6.623 -2.725 8.35 c 0.544 0.574 1.152 0.98 1.796 1.219 c 2.554 -0.979 4.465 -4.887 4.465 -9.568 S 40.947 26.766 38.393 25.788 z" stroke-linecap="round" />
</g>
<g transform="matrix(2.67 0 0 2.67 207.78 168.43)" id="Layer_1"  >
<path style="stroke: none; stroke-width: 1; stroke-dasharray: none; stroke-linecap: butt; stroke-dashoffset: 0; stroke-linejoin: miter; stroke-miterlimit: 4; fill: rgb(242,102,6); fill-rule: nonzero; opacity: 1;"  transform=" translate(-40.42, -25.66)" d="M 40.306 25.633 c 0.074 0.018 0.148 0.037 0.223 0.059 C 40.455 25.67 40.38 25.651 40.306 25.633 z" stroke-linecap="round" />
</g>
<g transform="matrix(2.67 0 0 2.67 198.5 171.19)" id="Layer_1"  >
<path style="stroke: none; stroke-width: 1; stroke-dasharray: none; stroke-linecap: butt; stroke-dashoffset: 0; stroke-linejoin: miter; stroke-miterlimit: 4; fill: rgb(242,102,6); fill-rule: nonzero; opacity: 1;"  transform=" translate(-36.94, -26.7)" d="M 37.181 26.479 c -0.166 0.133 -0.328 0.277 -0.484 0.438 C 36.854 26.758 37.015 26.612 37.181 26.479 z" stroke-linecap="round" />
</g>
<g transform="matrix(2.67 0 0 2.67 202.37 168.77)" id="Layer_1"  >
<path style="stroke: none; stroke-width: 1; stroke-dasharray: none; stroke-linecap: butt; stroke-dashoffset: 0; stroke-linejoin: miter; stroke-miterlimit: 4; fill: rgb(242,102,6); fill-rule: nonzero; opacity: 1;"  transform=" translate(-38.39, -25.79)" d="M 38.129 25.887 c 0.171 -0.078 0.345 -0.145 0.522 -0.195 C 38.474 25.743 38.3 25.809 38.129 25.887 z" stroke-linecap="round" />
</g>
<g transform="matrix(2.67 0 0 2.67 204.57 168.25)" id="Layer_1"  >
<path style="stroke: none; stroke-width: 1; stroke-dasharray: none; stroke-linecap: butt; stroke-dashoffset: 0; stroke-linejoin: miter; stroke-miterlimit: 4; fill: rgb(242,102,6); fill-rule: nonzero; opacity: 1;"  transform=" translate(-39.21, -25.59)" d="M 38.875 25.633 c 0.223 -0.047 0.448 -0.08 0.678 -0.082 C 39.323 25.555 39.097 25.586 38.875 25.633 z" stroke-linecap="round" />
</g>
<g transform="matrix(2.67 0 0 2.67 200.37 169.77)" id="Layer_1"  >
<path style="stroke: none; stroke-width: 1; stroke-dasharray: none; stroke-linecap: butt; stroke-dashoffset: 0; stroke-linejoin: miter; stroke-miterlimit: 4; fill: rgb(242,102,6); fill-rule: nonzero; opacity: 1;"  transform=" translate(-37.64, -26.16)" d="M 37.316 26.366 c 0.207 -0.156 0.423 -0.291 0.643 -0.404 C 37.739 26.075 37.524 26.209 37.316 26.366 z" stroke-linecap="round" />
</g>
<g transform="matrix(2.67 0 0 2.67 209.69 169.13)" id="Layer_1"  >
<path style="stroke: none; stroke-width: 1; stroke-dasharray: none; stroke-linecap: butt; stroke-dashoffset: 0; stroke-linejoin: miter; stroke-miterlimit: 4; fill: rgb(242,102,6); fill-rule: nonzero; opacity: 1;"  transform=" translate(-41.14, -25.92)" d="M 41.051 25.887 c 0.056 0.025 0.114 0.045 0.169 0.074 C 41.166 25.932 41.107 25.913 41.051 25.887 z" stroke-linecap="round" />
</g>
<g transform="matrix(2.67 0 0 2.67 213.42 216.66)" id="Layer_1"  >
<path style="stroke: none; stroke-width: 1; stroke-dasharray: none; stroke-linecap: butt; stroke-dashoffset: 0; stroke-linejoin: miter; stroke-miterlimit: 4; fill: rgb(242,102,6); fill-rule: nonzero; opacity: 1;"  transform=" translate(-42.53, -43.75)" d="M 42.583 43.706 c -0.002 -0.002 -0.003 -0.006 -0.007 -0.008 c -0.03 0.033 -0.062 0.066 -0.093 0.098 C 42.515 43.762 42.55 43.739 42.583 43.706 z" stroke-linecap="round" />
</g>
<g transform="matrix(2.67 0 0 2.67 213.42 171.91)" id="Layer_1"  >
<path style="stroke: none; stroke-width: 1; stroke-dasharray: none; stroke-linecap: butt; stroke-dashoffset: 0; stroke-linejoin: miter; stroke-miterlimit: 4; fill: rgb(242,102,6); fill-rule: nonzero; opacity: 1;"  transform=" translate(-42.53, -26.96)" d="M 42.576 27.014 c 0.003 -0.002 0.005 -0.006 0.007 -0.008 c -0.032 -0.033 -0.067 -0.057 -0.099 -0.09 C 42.514 26.948 42.545 26.981 42.576 27.014 z" stroke-linecap="round" />
</g>
<g transform="matrix(2.67 0 0 2.67 205.62 168.13)" id="Layer_1"  >
<path style="stroke: none; stroke-width: 1; stroke-dasharray: none; stroke-linecap: butt; stroke-dashoffset: 0; stroke-linejoin: miter; stroke-miterlimit: 4; fill: rgb(242,102,6); fill-rule: nonzero; opacity: 1;"  transform=" translate(-39.61, -25.55)" d="M 39.628 25.551 c -0.011 0 -0.021 -0.004 -0.032 -0.004 c -0.002 0 -0.003 0 -0.006 0 C 39.603 25.547 39.615 25.551 39.628 25.551 z" stroke-linecap="round" />
</g>
<g transform="matrix(2.67 0 0 2.67 211.82 170.46)" id="Layer_1"  >
<path style="stroke: none; stroke-width: 1; stroke-dasharray: none; stroke-linecap: butt; stroke-dashoffset: 0; stroke-linejoin: miter; stroke-miterlimit: 4; fill: rgb(242,102,6); fill-rule: nonzero; opacity: 1;"  transform=" translate(-41.93, -26.42)" d="M 41.865 26.366 c 0.047 0.035 0.09 0.076 0.136 0.113 C 41.955 26.442 41.912 26.401 41.865 26.366 z" stroke-linecap="round" />
</g>
<g transform="matrix(2.67 0 0 2.67 211.82 218.11)" id="Layer_1"  >
<path style="stroke: none; stroke-width: 1; stroke-dasharray: none; stroke-linecap: butt; stroke-dashoffset: 0; stroke-linejoin: miter; stroke-miterlimit: 4; fill: rgb(242,102,6); fill-rule: nonzero; opacity: 1;"  transform=" translate(-41.93, -44.29)" d="M 41.865 44.346 c 0.047 -0.035 0.09 -0.076 0.136 -0.113 C 41.955 44.27 41.911 44.311 41.865 44.346 z" stroke-linecap="round" />
</g>
<g transform="matrix(2.67 0 0 2.67 209.7 219.43)" id="Layer_1"  >
<path style="stroke: none; stroke-width: 1; stroke-dasharray: none; stroke-linecap: butt; stroke-dashoffset: 0; stroke-linejoin: miter; stroke-miterlimit: 4; fill: rgb(242,102,6); fill-rule: nonzero; opacity: 1;"  transform=" translate(-41.14, -44.79)" d="M 41.051 44.825 c 0.056 -0.025 0.114 -0.045 0.17 -0.074 C 41.166 44.78 41.107 44.799 41.051 44.825 z" stroke-linecap="round" />
</g>
<g transform="matrix(2.67 0 0 2.67 205.62 220.43)" id="Layer_1"  >
<path style="stroke: none; stroke-width: 1; stroke-dasharray: none; stroke-linecap: butt; stroke-dashoffset: 0; stroke-linejoin: miter; stroke-miterlimit: 4; fill: rgb(242,102,6); fill-rule: nonzero; opacity: 1;"  transform=" translate(-39.61, -45.16)" d="M 39.59 45.165 c 0.003 0 0.004 0 0.006 0 c 0.011 0 0.021 -0.004 0.032 -0.004 C 39.616 45.161 39.603 45.165 39.59 45.165 z" stroke-linecap="round" />
</g>
<g transform="matrix(2.67 0 0 2.67 207.78 220.13)" id="Layer_1"  >
<path style="stroke: none; stroke-width: 1; stroke-dasharray: none; stroke-linecap: butt; stroke-dashoffset: 0; stroke-linejoin: miter; stroke-miterlimit: 4; fill: rgb(242,102,6); fill-rule: nonzero; opacity: 1;"  transform=" translate(-40.42, -45.05)" d="M 40.306 45.079 c 0.074 -0.016 0.148 -0.037 0.223 -0.059 C 40.455 45.04 40.38 45.061 40.306 45.079 z" stroke-linecap="round" />
</g>
<g transform="matrix(2.67 0 0 2.67 204.57 220.32)" id="Layer_1"  >
<path style="stroke: none; stroke-width: 1; stroke-dasharray: none; stroke-linecap: butt; stroke-dashoffset: 0; stroke-linejoin: miter; stroke-miterlimit: 4; fill: rgb(242,102,6); fill-rule: nonzero; opacity: 1;"  transform=" translate(-39.21, -45.12)" d="M 39.552 45.161 c -0.23 -0.002 -0.455 -0.035 -0.678 -0.082 C 39.097 45.125 39.323 45.159 39.552 45.161 z" stroke-linecap="round" />
</g>
<g transform="matrix(2.67 0 0 2.67 200.36 218.79)" id="Layer_1"  >
<path style="stroke: none; stroke-width: 1; stroke-dasharray: none; stroke-linecap: butt; stroke-dashoffset: 0; stroke-linejoin: miter; stroke-miterlimit: 4; fill: rgb(242,102,6); fill-rule: nonzero; opacity: 1;"  transform=" translate(-37.64, -44.55)" d="M 37.958 44.75 c -0.22 -0.113 -0.435 -0.248 -0.643 -0.406 C 37.524 44.502 37.739 44.637 37.958 44.75 z" stroke-linecap="round" />
</g>
<g transform="matrix(2.67 0 0 2.67 198.5 217.37)" id="Layer_1"  >
<path style="stroke: none; stroke-width: 1; stroke-dasharray: none; stroke-linecap: butt; stroke-dashoffset: 0; stroke-linejoin: miter; stroke-miterlimit: 4; fill: rgb(242,102,6); fill-rule: nonzero; opacity: 1;"  transform=" translate(-36.94, -44.01)" d="M 36.697 43.795 c 0.157 0.16 0.318 0.305 0.484 0.439 C 37.015 44.1 36.853 43.954 36.697 43.795 z" stroke-linecap="round" />
</g>
<g transform="matrix(2.67 0 0 2.67 202.38 219.79)" id="Layer_1"  >
<path style="stroke: none; stroke-width: 1; stroke-dasharray: none; stroke-linecap: butt; stroke-dashoffset: 0; stroke-linejoin: miter; stroke-miterlimit: 4; fill: rgb(242,102,6); fill-rule: nonzero; opacity: 1;"  transform=" translate(-38.39, -44.92)" d="M 38.652 45.02 c -0.178 -0.051 -0.352 -0.115 -0.522 -0.195 C 38.3 44.905 38.474 44.969 38.652 45.02 z" stroke-linecap="round" />
</g>
<g transform="matrix(2.67 0 0 2.67 197.61 194.28)" id="Layer_1"  >
<path style="stroke: none; stroke-width: 1; stroke-dasharray: none; stroke-linecap: butt; stroke-dashoffset: 0; stroke-linejoin: miter; stroke-miterlimit: 4; fill: rgb(16,155,173); fill-rule: nonzero; opacity: 1;"  transform=" translate(-36.6, -35.36)" d="M 39.322 35.356 c 0 -3.529 -1.089 -6.613 -2.719 -8.342 c -1.628 1.729 -2.717 4.812 -2.717 8.342 s 1.089 6.613 2.717 8.342 C 38.233 41.969 39.322 38.885 39.322 35.356 z" stroke-linecap="round" />
</g>
<g transform="matrix(2.67 0 0 2.67 201.59 194.28)" id="Layer_1"  >
<path style="stroke: none; stroke-width: 1; stroke-dasharray: none; stroke-linecap: butt; stroke-dashoffset: 0; stroke-linejoin: miter; stroke-miterlimit: 4; fill: rgb(14,121,135); fill-rule: nonzero; opacity: 1;"  transform=" translate(-38.1, -35.36)" d="M 38.097 29.317 c -0.764 1.664 -1.225 3.756 -1.225 6.039 c 0 2.285 0.461 4.375 1.225 6.039 c 0.764 -1.664 1.225 -3.754 1.225 -6.039 C 39.322 33.073 38.861 30.981 38.097 29.317 z" stroke-linecap="round" />
</g>
<g transform="matrix(2.67 0 0 2.67 209.19 194.29)" id="Layer_1"  >
<path style="stroke: none; stroke-width: 1; stroke-dasharray: none; stroke-linecap: butt; stroke-dashoffset: 0; stroke-linejoin: miter; stroke-miterlimit: 4; fill: rgb(9,50,96); fill-rule: nonzero; opacity: 1;"  transform=" translate(-40.95, -35.36)" d="M 39.583 45.915 c -1.262 0 -2.483 -0.585 -3.531 -1.694 c -0.273 -0.289 -0.273 -0.741 0 -1.03 c 1.554 -1.644 2.52 -4.646 2.52 -7.834 c 0 -3.187 -0.965 -6.189 -2.52 -7.834 c -0.273 -0.29 -0.273 -0.742 0 -1.03 c 1.048 -1.108 2.269 -1.694 3.531 -1.694 c 3.623 0 6.46 4.638 6.46 10.559 S 43.206 45.915 39.583 45.915 z M 37.633 43.646 c 0.508 0.411 1.173 0.768 1.95 0.768 c 2.688 0 4.96 -4.148 4.96 -9.059 s -2.271 -9.059 -4.96 -9.059 c -0.777 0 -1.442 0.357 -1.951 0.768 c 1.538 1.984 2.439 5.016 2.439 8.291 C 40.072 38.632 39.17 41.664 37.633 43.646 z" stroke-linecap="round" />
</g>
<g transform="matrix(2.67 0 0 2.67 207.78 168.43)" id="Layer_1"  >
<path style="stroke: none; stroke-width: 1; stroke-dasharray: none; stroke-linecap: butt; stroke-dashoffset: 0; stroke-linejoin: miter; stroke-miterlimit: 4; fill: rgb(9,50,96); fill-rule: nonzero; opacity: 1;"  transform=" translate(-40.42, -25.66)" d="M 40.529 26.442 c -0.069 0 -0.14 -0.009 -0.209 -0.03 l -0.187 -0.049 c -0.345 -0.082 -0.577 -0.39 -0.577 -0.729 c 0 -0.057 0.006 -0.116 0.02 -0.174 c 0.096 -0.403 0.5 -0.651 0.903 -0.557 c 0.086 0.021 0.172 0.043 0.258 0.068 c 0.328 0.095 0.542 0.394 0.542 0.719 c 0 0.069 -0.009 0.14 -0.03 0.209 C 41.154 26.229 40.854 26.442 40.529 26.442 z" stroke-linecap="round" />
</g>
<g transform="matrix(2.67 0 0 2.67 198.51 171.2)" id="Layer_1"  >
<path style="stroke: none; stroke-width: 1; stroke-dasharray: none; stroke-linecap: butt; stroke-dashoffset: 0; stroke-linejoin: miter; stroke-miterlimit: 4; fill: rgb(9,50,96); fill-rule: nonzero; opacity: 1;"  transform=" translate(-36.94, -26.7)" d="M 36.697 27.667 c -0.19 0 -0.38 -0.072 -0.526 -0.216 c -0.294 -0.29 -0.299 -0.762 -0.01 -1.058 c 0.178 -0.183 0.363 -0.348 0.552 -0.499 c 0.326 -0.259 0.796 -0.206 1.054 0.117 c 0.111 0.139 0.165 0.304 0.165 0.468 c 0 0.22 -0.096 0.438 -0.281 0.586 c -0.145 0.116 -0.285 0.243 -0.421 0.381 C 37.082 27.593 36.89 27.667 36.697 27.667 z" stroke-linecap="round" />
</g>
<g transform="matrix(2.67 0 0 2.67 202.37 168.77)" id="Layer_1"  >
<path style="stroke: none; stroke-width: 1; stroke-dasharray: none; stroke-linecap: butt; stroke-dashoffset: 0; stroke-linejoin: miter; stroke-miterlimit: 4; fill: rgb(9,50,96); fill-rule: nonzero; opacity: 1;"  transform=" translate(-38.39, -25.79)" d="M 38.13 26.637 c -0.285 0 -0.557 -0.163 -0.683 -0.438 c -0.046 -0.101 -0.068 -0.207 -0.068 -0.311 c 0 -0.285 0.162 -0.558 0.438 -0.684 c 0.206 -0.094 0.415 -0.173 0.628 -0.234 c 0.397 -0.114 0.813 0.116 0.927 0.515 c 0.02 0.069 0.029 0.139 0.029 0.208 c 0 0.326 -0.215 0.625 -0.544 0.72 c -0.142 0.041 -0.28 0.094 -0.417 0.156 C 38.34 26.616 38.234 26.637 38.13 26.637 z" stroke-linecap="round" />
</g>
<g transform="matrix(2.67 0 0 2.67 204.57 168.25)" id="Layer_1"  >
<path style="stroke: none; stroke-width: 1; stroke-dasharray: none; stroke-linecap: butt; stroke-dashoffset: 0; stroke-linejoin: miter; stroke-miterlimit: 4; fill: rgb(9,50,96); fill-rule: nonzero; opacity: 1;"  transform=" translate(-39.21, -25.59)" d="M 38.874 26.383 c -0.347 0 -0.659 -0.242 -0.733 -0.596 c -0.011 -0.052 -0.016 -0.104 -0.016 -0.155 c 0 -0.347 0.242 -0.659 0.596 -0.733 c 0.307 -0.065 0.57 -0.096 0.826 -0.098 c 0.002 0 0.004 0 0.006 0 c 0.41 0 0.745 0.33 0.75 0.74 c 0.005 0.413 -0.324 0.752 -0.737 0.76 c -0.182 0.003 -0.36 0.029 -0.536 0.066 C 38.977 26.378 38.925 26.383 38.874 26.383 z" stroke-linecap="round" />
</g>
<g transform="matrix(2.67 0 0 2.67 200.36 169.77)" id="Layer_1"  >
<path style="stroke: none; stroke-width: 1; stroke-dasharray: none; stroke-linecap: butt; stroke-dashoffset: 0; stroke-linejoin: miter; stroke-miterlimit: 4; fill: rgb(9,50,96); fill-rule: nonzero; opacity: 1;"  transform=" translate(-37.64, -26.16)" d="M 37.316 27.116 c -0.228 0 -0.452 -0.103 -0.6 -0.299 c -0.249 -0.331 -0.183 -0.8 0.147 -1.05 c 0.236 -0.179 0.489 -0.337 0.75 -0.472 c 0.368 -0.189 0.821 -0.045 1.01 0.323 c 0.057 0.11 0.083 0.228 0.083 0.343 c 0 0.272 -0.148 0.534 -0.406 0.667 c -0.183 0.094 -0.361 0.207 -0.535 0.336 l 0 0 c 0 0 -0.001 0 -0.001 0.001 C 37.631 27.067 37.473 27.116 37.316 27.116 z" stroke-linecap="round" />
</g>
<g transform="matrix(2.67 0 0 2.67 209.69 169.13)" id="Layer_1"  >
<path style="stroke: none; stroke-width: 1; stroke-dasharray: none; stroke-linecap: butt; stroke-dashoffset: 0; stroke-linejoin: miter; stroke-miterlimit: 4; fill: rgb(9,50,96); fill-rule: nonzero; opacity: 1;"  transform=" translate(-41.14, -25.92)" d="M 41.22 26.711 c -0.12 0 -0.241 -0.028 -0.354 -0.089 l 0.017 -0.031 l 0.233 -0.677 l -0.376 0.655 c -0.276 -0.125 -0.439 -0.398 -0.439 -0.683 c 0 -0.104 0.021 -0.21 0.068 -0.311 c 0.171 -0.377 0.618 -0.544 0.993 -0.371 c 0.096 0.039 0.155 0.065 0.212 0.095 c 0.252 0.135 0.396 0.395 0.396 0.662 c 0 0.12 -0.028 0.241 -0.089 0.353 C 41.746 26.568 41.487 26.711 41.22 26.711 z" stroke-linecap="round" />
</g>
<g transform="matrix(2.67 0 0 2.67 213.42 216.66)" id="Layer_1"  >
<path style="stroke: none; stroke-width: 1; stroke-dasharray: none; stroke-linecap: butt; stroke-dashoffset: 0; stroke-linejoin: miter; stroke-miterlimit: 4; fill: rgb(9,50,96); fill-rule: nonzero; opacity: 1;"  transform=" translate(-42.53, -43.75)" d="M 42.484 44.541 c -0.17 0 -0.34 -0.057 -0.478 -0.172 c 0 0 0 -0.001 -0.001 -0.001 l 0 0 c 0 0 -0.001 -0.001 -0.002 -0.001 l 0 0 c -0.017 -0.014 -0.033 -0.029 -0.048 -0.045 c 0 0 0 0 0 0 c 0 0 0 0 -0.001 0 v 0 c -0.243 -0.245 -0.285 -0.614 -0.12 -0.899 l 0 0 c 0 -0.001 0 -0.002 0.001 -0.002 v 0 c 0.032 -0.054 0.071 -0.105 0.117 -0.151 c 0.001 -0.001 0.003 -0.003 0.005 -0.005 l 0.064 -0.068 c 0.226 -0.248 0.589 -0.316 0.89 -0.165 c 0.1 0.05 0.19 0.125 0.259 0.213 c 0.23 0.291 0.215 0.714 -0.05 0.987 c -0.018 0.018 -0.086 0.08 -0.105 0.097 c -0.002 0.002 -0.004 0.004 -0.007 0.006 C 42.863 44.47 42.673 44.541 42.484 44.541 z" stroke-linecap="round" />
</g>
<g transform="matrix(2.67 0 0 2.67 213.42 171.91)" id="Layer_1"  >
<path style="stroke: none; stroke-width: 1; stroke-dasharray: none; stroke-linecap: butt; stroke-dashoffset: 0; stroke-linejoin: miter; stroke-miterlimit: 4; fill: rgb(9,50,96); fill-rule: nonzero; opacity: 1;"  transform=" translate(-42.53, -26.96)" d="M 42.576 27.764 c -0.205 0 -0.408 -0.084 -0.555 -0.245 l -0.071 -0.076 c 0 0 0 0 -0.001 -0.001 c -0.004 -0.004 -0.009 -0.01 -0.012 -0.012 c -0.282 -0.3 -0.27 -0.772 0.028 -1.057 c 0.298 -0.284 0.77 -0.276 1.057 0.021 l 0 0 c 0.031 0.025 0.064 0.055 0.098 0.089 c 0.271 0.279 0.282 0.714 0.036 1.005 c -0.047 0.057 -0.105 0.109 -0.166 0.15 C 42.864 27.723 42.72 27.764 42.576 27.764 z" stroke-linecap="round" />
</g>
<g transform="matrix(2.67 0 0 2.67 205.62 168.13)" id="Layer_1"  >
<path style="stroke: none; stroke-width: 1; stroke-dasharray: none; stroke-linecap: butt; stroke-dashoffset: 0; stroke-linejoin: miter; stroke-miterlimit: 4; fill: rgb(9,50,96); fill-rule: nonzero; opacity: 1;"  transform=" translate(-39.61, -25.55)" d="M 39.628 26.301 c -0.008 0.003 -0.031 0 -0.049 -0.002 c -0.029 -0.002 -0.061 -0.005 -0.084 -0.009 c -0.001 0 -0.002 0 -0.003 0 c -0.414 0 -0.701 -0.332 -0.701 -0.746 c 0 -0.415 0.385 -0.747 0.799 -0.747 c 0.026 0.005 0.072 0.003 0.11 0.007 c 0.01 0.001 0.021 0.002 0.031 0.003 c 0.41 0.004 0.695 0.335 0.695 0.747 C 40.427 25.969 40.042 26.301 39.628 26.301 z" stroke-linecap="round" />
</g>
<g transform="matrix(2.67 0 0 2.67 211.8 170.45)" id="Layer_1"  >
<path style="stroke: none; stroke-width: 1; stroke-dasharray: none; stroke-linecap: butt; stroke-dashoffset: 0; stroke-linejoin: miter; stroke-miterlimit: 4; fill: rgb(9,50,96); fill-rule: nonzero; opacity: 1;"  transform=" translate(-41.93, -26.42)" d="M 41.967 27.22 c -0.152 0 -0.306 -0.05 -0.438 -0.158 c -0.006 -0.005 -0.068 -0.058 -0.075 -0.063 c -0.202 -0.152 -0.313 -0.392 -0.313 -0.631 c 0 -0.153 0.046 -0.307 0.143 -0.436 c 0.249 -0.331 0.698 -0.416 1.031 -0.167 c 0.042 0.031 0.082 0.065 0.121 0.1 c 0.178 0.154 0.275 0.382 0.275 0.608 c 0 0.166 -0.052 0.331 -0.164 0.464 C 42.395 27.12 42.181 27.22 41.967 27.22 z" stroke-linecap="round" />
</g>
<g transform="matrix(2.67 0 0 2.67 211.45 218.41)" id="Layer_1"  >
<path style="stroke: none; stroke-width: 1; stroke-dasharray: none; stroke-linecap: butt; stroke-dashoffset: 0; stroke-linejoin: miter; stroke-miterlimit: 4; fill: rgb(9,50,96); fill-rule: nonzero; opacity: 1;"  transform=" translate(-41.79, -44.4)" d="M 41.865 45.096 c -0.227 0 -0.451 -0.103 -0.598 -0.297 c -0.25 -0.329 -0.186 -0.797 0.142 -1.048 l 0.045 -0.038 v 0 l 0 0 L 42 44.233 l 0.472 0.583 c -0.076 0.065 -0.116 0.099 -0.157 0.13 C 42.18 45.047 42.022 45.096 41.865 45.096 z" stroke-linecap="round" />
</g>
<g transform="matrix(2.67 0 0 2.67 209.68 219.45)" id="Layer_1"  >
<path style="stroke: none; stroke-width: 1; stroke-dasharray: none; stroke-linecap: butt; stroke-dashoffset: 0; stroke-linejoin: miter; stroke-miterlimit: 4; fill: rgb(9,50,96); fill-rule: nonzero; opacity: 1;"  transform=" translate(-41.13, -44.8)" d="M 41.103 45.549 c -0.296 0 -0.586 -0.162 -0.707 -0.441 c -0.045 -0.105 -0.067 -0.214 -0.067 -0.32 c 0 -0.271 0.145 -0.523 0.412 -0.645 c 0.009 -0.004 0.085 -0.037 0.095 -0.041 c 0.373 -0.152 0.846 -0.007 1.015 0.355 c 0.054 0.117 0.081 0.238 0.081 0.355 c 0 0.247 -0.12 0.475 -0.36 0.601 c -0.056 0.029 -0.113 0.054 -0.17 0.077 C 41.304 45.53 41.203 45.549 41.103 45.549 z" stroke-linecap="round" />
</g>
<g transform="matrix(2.67 0 0 2.67 205.62 220.43)" id="Layer_1"  >
<path style="stroke: none; stroke-width: 1; stroke-dasharray: none; stroke-linecap: butt; stroke-dashoffset: 0; stroke-linejoin: miter; stroke-miterlimit: 4; fill: rgb(9,50,96); fill-rule: nonzero; opacity: 1;"  transform=" translate(-39.61, -45.16)" d="M 39.596 45.915 H 39.59 c -0.414 0 -0.75 -0.336 -0.75 -0.75 c 0 -0.388 0.295 -0.708 0.673 -0.746 c 0.007 -0.001 0.015 -0.001 0.021 -0.002 c 0.032 -0.003 0.066 -0.006 0.093 -0.006 c 0.414 0 0.75 0.336 0.75 0.75 c 0 0.388 -0.295 0.708 -0.673 0.746 l 0 0 C 39.668 45.912 39.628 45.915 39.596 45.915 z" stroke-linecap="round" />
</g>
<g transform="matrix(2.67 0 0 2.67 207.74 220.16)" id="Layer_1"  >
<path style="stroke: none; stroke-width: 1; stroke-dasharray: none; stroke-linecap: butt; stroke-dashoffset: 0; stroke-linejoin: miter; stroke-miterlimit: 4; fill: rgb(9,50,96); fill-rule: nonzero; opacity: 1;"  transform=" translate(-40.4, -45.06)" d="M 40.306 45.829 c -0.344 0 -0.653 -0.238 -0.731 -0.586 c -0.089 -0.4 0.16 -0.799 0.559 -0.894 l 0.125 -0.032 c 0.011 -0.003 0.023 -0.006 0.034 -0.009 c 0.009 -0.002 0.019 -0.005 0.028 -0.008 l 0 0.002 c 0.385 -0.065 0.788 0.15 0.893 0.525 c 0.111 0.396 -0.081 0.799 -0.477 0.913 c -0.092 0.027 -0.185 0.053 -0.276 0.072 C 40.409 45.823 40.356 45.829 40.306 45.829 z" stroke-linecap="round" />
</g>
<g transform="matrix(2.67 0 0 2.67 204.6 220.32)" id="Layer_1"  >
<path style="stroke: none; stroke-width: 1; stroke-dasharray: none; stroke-linecap: butt; stroke-dashoffset: 0; stroke-linejoin: miter; stroke-miterlimit: 4; fill: rgb(9,50,96); fill-rule: nonzero; opacity: 1;"  transform=" translate(-39.22, -45.12)" d="M 39.572 45.911 c -0.007 0 -0.013 -0.001 -0.02 0 c -0.002 0 -0.004 0 -0.006 0 l 0 0 l 0 0 c -0.003 0 -0.007 0 -0.009 0 l 0 0 c -0.253 -0.003 -0.513 -0.034 -0.816 -0.098 c -0.354 -0.074 -0.596 -0.386 -0.596 -0.733 c 0 -0.051 0.005 -0.103 0.016 -0.155 c 0.085 -0.406 0.485 -0.667 0.888 -0.58 c 0.207 0.043 0.375 0.064 0.528 0.066 c 0.002 0 0.003 0 0.005 0 h 0.01 c 0.414 0 0.75 0.336 0.75 0.75 S 39.986 45.911 39.572 45.911 z" stroke-linecap="round" />
</g>
<g transform="matrix(2.67 0 0 2.67 200.37 218.79)" id="Layer_1"  >
<path style="stroke: none; stroke-width: 1; stroke-dasharray: none; stroke-linecap: butt; stroke-dashoffset: 0; stroke-linejoin: miter; stroke-miterlimit: 4; fill: rgb(9,50,96); fill-rule: nonzero; opacity: 1;"  transform=" translate(-37.64, -44.55)" d="M 37.958 45.5 c -0.116 0 -0.233 -0.027 -0.343 -0.083 c -0.262 -0.135 -0.515 -0.295 -0.753 -0.476 c -0.194 -0.147 -0.296 -0.371 -0.296 -0.597 c 0 -0.158 0.05 -0.318 0.153 -0.454 c 0.251 -0.33 0.721 -0.394 1.051 -0.143 c 0.172 0.131 0.35 0.243 0.532 0.337 c 0.258 0.133 0.406 0.395 0.406 0.667 c 0 0.116 -0.027 0.233 -0.083 0.343 C 38.492 45.353 38.229 45.5 37.958 45.5 z" stroke-linecap="round" />
</g>
<g transform="matrix(2.67 0 0 2.67 198.5 217.37)" id="Layer_1"  >
<path style="stroke: none; stroke-width: 1; stroke-dasharray: none; stroke-linecap: butt; stroke-dashoffset: 0; stroke-linejoin: miter; stroke-miterlimit: 4; fill: rgb(9,50,96); fill-rule: nonzero; opacity: 1;"  transform=" translate(-36.94, -44.01)" d="M 37.181 44.985 c -0.166 0 -0.333 -0.055 -0.472 -0.167 c -0.187 -0.152 -0.368 -0.314 -0.545 -0.495 c 0 0 -0.001 -0.001 -0.002 -0.002 c -0.29 -0.295 -0.286 -0.77 0.009 -1.06 c 0.294 -0.291 0.769 -0.288 1.06 0.007 c 0.137 0.138 0.278 0.266 0.423 0.384 c 0.183 0.148 0.277 0.365 0.277 0.583 c 0 0.166 -0.055 0.333 -0.167 0.472 C 37.615 44.89 37.399 44.985 37.181 44.985 z" stroke-linecap="round" />
</g>
<g transform="matrix(2.67 0 0 2.67 202.37 219.79)" id="Layer_1"  >
<path style="stroke: none; stroke-width: 1; stroke-dasharray: none; stroke-linecap: butt; stroke-dashoffset: 0; stroke-linejoin: miter; stroke-miterlimit: 4; fill: rgb(9,50,96); fill-rule: nonzero; opacity: 1;"  transform=" translate(-38.39, -44.92)" d="M 38.652 45.77 c -0.068 0 -0.138 -0.009 -0.207 -0.029 c -0.216 -0.062 -0.427 -0.14 -0.635 -0.237 c -0.272 -0.128 -0.432 -0.398 -0.432 -0.681 c 0 -0.106 0.023 -0.214 0.071 -0.317 c 0.175 -0.375 0.621 -0.537 0.998 -0.361 c 0.134 0.063 0.271 0.113 0.41 0.153 c 0.329 0.094 0.543 0.394 0.544 0.72 c 0 0.068 -0.009 0.138 -0.029 0.208 C 39.279 45.556 38.979 45.77 38.652 45.77 z" stroke-linecap="round" />
</g>
<g transform="matrix(2.67 0 0 2.67 197.61 194.3)" id="Layer_1"  >
<path style="stroke: none; stroke-width: 1; stroke-dasharray: none; stroke-linecap: butt; stroke-dashoffset: 0; stroke-linejoin: miter; stroke-miterlimit: 4; fill: rgb(9,50,96); fill-rule: nonzero; opacity: 1;"  transform=" translate(-36.6, -35.36)" d="M 36.603 44.448 L 36.603 44.448 c -0.207 0 -0.404 -0.085 -0.546 -0.236 c -1.829 -1.942 -2.921 -5.252 -2.921 -8.856 s 1.092 -6.914 2.921 -8.856 c 0.283 -0.3 0.807 -0.302 1.092 0 c 1.83 1.941 2.923 5.252 2.923 8.856 s -1.093 6.915 -2.923 8.856 C 37.007 44.363 36.81 44.448 36.603 44.448 z M 36.604 28.196 c -1.227 1.72 -1.967 4.369 -1.967 7.16 s 0.74 5.44 1.967 7.16 c 1.228 -1.719 1.968 -4.369 1.968 -7.16 S 37.831 29.916 36.604 28.196 z" stroke-linecap="round" />
</g>
<g transform="matrix(2.67 0 0 2.67 227.29 212.38)" id="Layer_1"  >
<path style="stroke: none; stroke-width: 1; stroke-dasharray: none; stroke-linecap: butt; stroke-dashoffset: 0; stroke-linejoin: miter; stroke-miterlimit: 4; fill: rgb(27,193,169); fill-rule: nonzero; opacity: 1;"  transform=" translate(-47.73, -42.14)" d="M 47.734 37.795 c 5.417 0 9.809 2.557 9.809 5.711 c 0 1.096 -0.54 2.115 -1.46 2.986 c -1.728 -1.633 -4.815 -2.725 -8.349 -2.725 c -3.535 0 -6.623 1.092 -8.35 2.725 c -0.92 -0.871 -1.459 -1.891 -1.459 -2.986 C 37.925 40.352 42.316 37.795 47.734 37.795 z" stroke-linecap="round" />
</g>
<g transform="matrix(2.67 0 0 2.67 227.29 215.63)" id="Layer_1"  >
<path style="stroke: none; stroke-width: 1; stroke-dasharray: none; stroke-linecap: butt; stroke-dashoffset: 0; stroke-linejoin: miter; stroke-miterlimit: 4; fill: rgb(12,175,175); fill-rule: nonzero; opacity: 1;"  transform=" translate(-47.73, -43.36)" d="M 57.301 44.696 c -0.239 0.645 -0.644 1.252 -1.219 1.797 c -1.728 -1.633 -4.815 -2.725 -8.349 -2.725 c -3.535 0 -6.623 1.092 -8.35 2.725 c -0.575 -0.545 -0.98 -1.152 -1.219 -1.797 c 0.978 -2.553 4.887 -4.465 9.568 -4.465 S 56.324 42.143 57.301 44.696 z" stroke-linecap="round" />
</g>
<g transform="matrix(2.67 0 0 2.67 253.14 213.79)" id="Layer_1"  >
<path style="stroke: none; stroke-width: 1; stroke-dasharray: none; stroke-linecap: butt; stroke-dashoffset: 0; stroke-linejoin: miter; stroke-miterlimit: 4; fill: rgb(242,102,6); fill-rule: nonzero; opacity: 1;"  transform=" translate(-57.43, -42.67)" d="M 57.456 42.784 c -0.017 -0.074 -0.037 -0.148 -0.059 -0.223 C 57.418 42.635 57.439 42.709 57.456 42.784 z" stroke-linecap="round" />
</g>
<g transform="matrix(2.67 0 0 2.67 250.38 223.07)" id="Layer_1"  >
<path style="stroke: none; stroke-width: 1; stroke-dasharray: none; stroke-linecap: butt; stroke-dashoffset: 0; stroke-linejoin: miter; stroke-miterlimit: 4; fill: rgb(242,102,6); fill-rule: nonzero; opacity: 1;"  transform=" translate(-56.39, -46.15)" d="M 56.611 45.909 c -0.133 0.166 -0.278 0.328 -0.438 0.484 C 56.332 46.235 56.478 46.075 56.611 45.909 z" stroke-linecap="round" />
</g>
<g transform="matrix(2.67 0 0 2.67 252.8 219.2)" id="Layer_1"  >
<path style="stroke: none; stroke-width: 1; stroke-dasharray: none; stroke-linecap: butt; stroke-dashoffset: 0; stroke-linejoin: miter; stroke-miterlimit: 4; fill: rgb(242,102,6); fill-rule: nonzero; opacity: 1;"  transform=" translate(-57.3, -44.7)" d="M 57.203 44.959 c 0.078 -0.17 0.144 -0.344 0.194 -0.521 C 57.346 44.616 57.281 44.79 57.203 44.959 z" stroke-linecap="round" />
</g>
<g transform="matrix(2.67 0 0 2.67 253.33 217)" id="Layer_1"  >
<path style="stroke: none; stroke-width: 1; stroke-dasharray: none; stroke-linecap: butt; stroke-dashoffset: 0; stroke-linejoin: miter; stroke-miterlimit: 4; fill: rgb(242,102,6); fill-rule: nonzero; opacity: 1;"  transform=" translate(-57.5, -43.88)" d="M 57.456 44.215 c 0.049 -0.223 0.081 -0.449 0.083 -0.678 C 57.535 43.766 57.504 43.993 57.456 44.215 z" stroke-linecap="round" />
</g>
<g transform="matrix(2.67 0 0 2.67 251.8 221.21)" id="Layer_1"  >
<path style="stroke: none; stroke-width: 1; stroke-dasharray: none; stroke-linecap: butt; stroke-dashoffset: 0; stroke-linejoin: miter; stroke-miterlimit: 4; fill: rgb(242,102,6); fill-rule: nonzero; opacity: 1;"  transform=" translate(-56.93, -45.45)" d="M 56.723 45.774 c 0.157 -0.207 0.291 -0.424 0.405 -0.643 C 57.015 45.35 56.88 45.565 56.723 45.774 z" stroke-linecap="round" />
</g>
<g transform="matrix(2.67 0 0 2.67 252.44 211.88)" id="Layer_1"  >
<path style="stroke: none; stroke-width: 1; stroke-dasharray: none; stroke-linecap: butt; stroke-dashoffset: 0; stroke-linejoin: miter; stroke-miterlimit: 4; fill: rgb(242,102,6); fill-rule: nonzero; opacity: 1;"  transform=" translate(-57.17, -41.95)" d="M 57.203 42.038 c -0.025 -0.055 -0.046 -0.113 -0.074 -0.168 C 57.157 41.924 57.177 41.983 57.203 42.038 z" stroke-linecap="round" />
</g>
<g transform="matrix(2.67 0 0 2.67 204.91 208.15)" id="Layer_1"  >
<path style="stroke: none; stroke-width: 1; stroke-dasharray: none; stroke-linecap: butt; stroke-dashoffset: 0; stroke-linejoin: miter; stroke-miterlimit: 4; fill: rgb(242,102,6); fill-rule: nonzero; opacity: 1;"  transform=" translate(-39.34, -40.56)" d="M 39.384 40.506 c 0.002 0.002 0.006 0.004 0.008 0.008 c -0.033 0.029 -0.066 0.061 -0.098 0.092 C 39.327 40.575 39.351 40.54 39.384 40.506 z" stroke-linecap="round" />
</g>
<g transform="matrix(2.67 0 0 2.67 249.67 208.15)" id="Layer_1"  >
<path style="stroke: none; stroke-width: 1; stroke-dasharray: none; stroke-linecap: butt; stroke-dashoffset: 0; stroke-linejoin: miter; stroke-miterlimit: 4; fill: rgb(242,102,6); fill-rule: nonzero; opacity: 1;"  transform=" translate(-56.12, -40.56)" d="M 56.076 40.514 c 0.002 -0.004 0.005 -0.006 0.007 -0.008 c 0.034 0.033 0.058 0.068 0.09 0.1 C 56.141 40.575 56.108 40.543 56.076 40.514 z" stroke-linecap="round" />
</g>
<g transform="matrix(2.67 0 0 2.67 253.44 215.95)" id="Layer_1"  >
<path style="stroke: none; stroke-width: 1; stroke-dasharray: none; stroke-linecap: butt; stroke-dashoffset: 0; stroke-linejoin: miter; stroke-miterlimit: 4; fill: rgb(242,102,6); fill-rule: nonzero; opacity: 1;"  transform=" translate(-57.54, -43.48)" d="M 57.539 43.461 c 0 0.01 0.004 0.021 0.004 0.031 c 0 0.002 -0.001 0.004 0 0.006 C 57.542 43.487 57.539 43.475 57.539 43.461 z" stroke-linecap="round" />
</g>
<g transform="matrix(2.67 0 0 2.67 251.11 209.75)" id="Layer_1"  >
<path style="stroke: none; stroke-width: 1; stroke-dasharray: none; stroke-linecap: butt; stroke-dashoffset: 0; stroke-linejoin: miter; stroke-miterlimit: 4; fill: rgb(242,102,6); fill-rule: nonzero; opacity: 1;"  transform=" translate(-56.67, -41.16)" d="M 56.723 41.225 c -0.034 -0.047 -0.075 -0.09 -0.112 -0.137 C 56.648 41.135 56.689 41.178 56.723 41.225 z" stroke-linecap="round" />
</g>
<g transform="matrix(2.67 0 0 2.67 203.47 209.75)" id="Layer_1"  >
<path style="stroke: none; stroke-width: 1; stroke-dasharray: none; stroke-linecap: butt; stroke-dashoffset: 0; stroke-linejoin: miter; stroke-miterlimit: 4; fill: rgb(242,102,6); fill-rule: nonzero; opacity: 1;"  transform=" translate(-38.8, -41.16)" d="M 38.744 41.225 c 0.035 -0.047 0.076 -0.09 0.113 -0.137 C 38.82 41.135 38.779 41.178 38.744 41.225 z" stroke-linecap="round" />
</g>
<g transform="matrix(2.67 0 0 2.67 202.14 211.87)" id="Layer_1"  >
<path style="stroke: none; stroke-width: 1; stroke-dasharray: none; stroke-linecap: butt; stroke-dashoffset: 0; stroke-linejoin: miter; stroke-miterlimit: 4; fill: rgb(242,102,6); fill-rule: nonzero; opacity: 1;"  transform=" translate(-38.3, -41.95)" d="M 38.264 42.038 c 0.025 -0.055 0.046 -0.113 0.075 -0.17 C 38.31 41.924 38.29 41.983 38.264 42.038 z" stroke-linecap="round" />
</g>
<g transform="matrix(2.67 0 0 2.67 201.14 215.95)" id="Layer_1"  >
<path style="stroke: none; stroke-width: 1; stroke-dasharray: none; stroke-linecap: butt; stroke-dashoffset: 0; stroke-linejoin: miter; stroke-miterlimit: 4; fill: rgb(242,102,6); fill-rule: nonzero; opacity: 1;"  transform=" translate(-37.93, -43.48)" d="M 37.925 43.499 c 0 -0.002 0 -0.004 0 -0.006 c 0 -0.01 0.004 -0.021 0.004 -0.031 C 37.928 43.473 37.925 43.487 37.925 43.499 z" stroke-linecap="round" />
</g>
<g transform="matrix(2.67 0 0 2.67 201.44 213.79)" id="Layer_1"  >
<path style="stroke: none; stroke-width: 1; stroke-dasharray: none; stroke-linecap: butt; stroke-dashoffset: 0; stroke-linejoin: miter; stroke-miterlimit: 4; fill: rgb(242,102,6); fill-rule: nonzero; opacity: 1;"  transform=" translate(-38.04, -42.67)" d="M 38.011 42.784 c 0.017 -0.074 0.037 -0.148 0.059 -0.223 C 38.048 42.635 38.028 42.709 38.011 42.784 z" stroke-linecap="round" />
</g>
<g transform="matrix(2.67 0 0 2.67 201.25 217.01)" id="Layer_1"  >
<path style="stroke: none; stroke-width: 1; stroke-dasharray: none; stroke-linecap: butt; stroke-dashoffset: 0; stroke-linejoin: miter; stroke-miterlimit: 4; fill: rgb(242,102,6); fill-rule: nonzero; opacity: 1;"  transform=" translate(-37.97, -43.88)" d="M 37.929 43.538 c 0.002 0.23 0.034 0.455 0.082 0.678 C 37.963 43.993 37.931 43.766 37.929 43.538 z" stroke-linecap="round" />
</g>
<g transform="matrix(2.67 0 0 2.67 202.78 221.21)" id="Layer_1"  >
<path style="stroke: none; stroke-width: 1; stroke-dasharray: none; stroke-linecap: butt; stroke-dashoffset: 0; stroke-linejoin: miter; stroke-miterlimit: 4; fill: rgb(242,102,6); fill-rule: nonzero; opacity: 1;"  transform=" translate(-38.54, -45.45)" d="M 38.339 45.131 c 0.113 0.219 0.248 0.434 0.404 0.643 C 38.587 45.565 38.453 45.35 38.339 45.131 z" stroke-linecap="round" />
</g>
<g transform="matrix(2.67 0 0 2.67 204.2 223.07)" id="Layer_1"  >
<path style="stroke: none; stroke-width: 1; stroke-dasharray: none; stroke-linecap: butt; stroke-dashoffset: 0; stroke-linejoin: miter; stroke-miterlimit: 4; fill: rgb(242,102,6); fill-rule: nonzero; opacity: 1;"  transform=" translate(-39.07, -46.15)" d="M 39.294 46.393 c -0.16 -0.158 -0.305 -0.318 -0.439 -0.484 C 38.99 46.075 39.135 46.237 39.294 46.393 z" stroke-linecap="round" />
</g>
<g transform="matrix(2.67 0 0 2.67 201.78 219.2)" id="Layer_1"  >
<path style="stroke: none; stroke-width: 1; stroke-dasharray: none; stroke-linecap: butt; stroke-dashoffset: 0; stroke-linejoin: miter; stroke-miterlimit: 4; fill: rgb(242,102,6); fill-rule: nonzero; opacity: 1;"  transform=" translate(-38.17, -44.7)" d="M 38.07 44.438 c 0.051 0.178 0.115 0.352 0.194 0.521 C 38.185 44.79 38.121 44.616 38.07 44.438 z" stroke-linecap="round" />
</g>
<g transform="matrix(2.67 0 0 2.67 227.29 223.96)" id="Layer_1"  >
<path style="stroke: none; stroke-width: 1; stroke-dasharray: none; stroke-linecap: butt; stroke-dashoffset: 0; stroke-linejoin: miter; stroke-miterlimit: 4; fill: rgb(16,155,173); fill-rule: nonzero; opacity: 1;"  transform=" translate(-47.73, -46.49)" d="M 47.734 43.768 c 3.529 0 6.613 1.09 8.342 2.719 c -1.729 1.627 -4.812 2.717 -8.342 2.717 s -6.614 -1.09 -8.342 -2.717 C 41.12 44.858 44.205 43.768 47.734 43.768 z" stroke-linecap="round" />
</g>
<g transform="matrix(2.67 0 0 2.67 227.29 219.98)" id="Layer_1"  >
<path style="stroke: none; stroke-width: 1; stroke-dasharray: none; stroke-linecap: butt; stroke-dashoffset: 0; stroke-linejoin: miter; stroke-miterlimit: 4; fill: rgb(14,121,135); fill-rule: nonzero; opacity: 1;"  transform=" translate(-47.73, -44.99)" d="M 53.773 44.993 c -1.664 0.764 -3.756 1.225 -6.039 1.225 c -2.285 0 -4.375 -0.461 -6.039 -1.225 c 1.664 -0.764 3.754 -1.225 6.039 -1.225 C 50.017 43.768 52.109 44.229 53.773 44.993 z" stroke-linecap="round" />
</g>
<g transform="matrix(2.67 0 0 2.67 227.3 212.39)" id="Layer_1"  >
<path style="stroke: none; stroke-width: 1; stroke-dasharray: none; stroke-linecap: butt; stroke-dashoffset: 0; stroke-linejoin: miter; stroke-miterlimit: 4; fill: rgb(9,50,96); fill-rule: nonzero; opacity: 1;"  transform=" translate(-47.74, -42.14)" d="M 56.083 47.243 c -0.186 0 -0.371 -0.068 -0.515 -0.205 c -1.645 -1.554 -4.646 -2.52 -7.833 -2.52 c -3.189 0 -6.191 0.965 -7.834 2.52 c -0.289 0.273 -0.742 0.274 -1.031 0 c -1.108 -1.049 -1.693 -2.27 -1.693 -3.531 c 0 -3.623 4.638 -6.461 10.559 -6.461 s 10.559 2.838 10.559 6.461 c 0 1.26 -0.586 2.481 -1.694 3.531 C 56.454 47.174 56.268 47.243 56.083 47.243 z M 47.734 43.018 c 3.275 0 6.306 0.901 8.29 2.438 c 0.411 -0.509 0.769 -1.174 0.769 -1.95 c 0 -2.689 -4.148 -4.961 -9.059 -4.961 s -9.059 2.272 -9.059 4.961 c 0 0.776 0.357 1.442 0.768 1.95 C 41.426 43.919 44.458 43.018 47.734 43.018 z" stroke-linecap="round" />
</g>
<g transform="matrix(2.67 0 0 2.67 253.14 213.79)" id="Layer_1"  >
<path style="stroke: none; stroke-width: 1; stroke-dasharray: none; stroke-linecap: butt; stroke-dashoffset: 0; stroke-linejoin: miter; stroke-miterlimit: 4; fill: rgb(9,50,96); fill-rule: nonzero; opacity: 1;"  transform=" translate(-57.43, -42.67)" d="M 57.455 43.534 c -0.344 0 -0.653 -0.237 -0.731 -0.586 c -0.013 -0.059 -0.03 -0.118 -0.047 -0.178 c -0.021 -0.07 -0.03 -0.14 -0.03 -0.209 c 0 -0.325 0.213 -0.625 0.542 -0.719 c 0.395 -0.116 0.813 0.113 0.929 0.512 c 0.026 0.089 0.05 0.178 0.07 0.268 c 0.012 0.055 0.018 0.11 0.018 0.165 c 0 0.343 -0.237 0.653 -0.586 0.731 C 57.564 43.528 57.509 43.534 57.455 43.534 z" stroke-linecap="round" />
</g>
<g transform="matrix(2.67 0 0 2.67 250.38 223.07)" id="Layer_1"  >
<path style="stroke: none; stroke-width: 1; stroke-dasharray: none; stroke-linecap: butt; stroke-dashoffset: 0; stroke-linejoin: miter; stroke-miterlimit: 4; fill: rgb(9,50,96); fill-rule: nonzero; opacity: 1;"  transform=" translate(-56.39, -46.15)" d="M 56.172 47.143 c -0.194 0 -0.388 -0.075 -0.534 -0.224 c -0.29 -0.294 -0.287 -0.767 0.005 -1.058 c 0.139 -0.138 0.266 -0.277 0.382 -0.421 c 0.258 -0.324 0.729 -0.376 1.054 -0.117 c 0.185 0.148 0.281 0.366 0.281 0.586 c 0 0.164 -0.054 0.33 -0.165 0.468 c -0.151 0.189 -0.317 0.374 -0.5 0.552 C 56.55 47.072 56.361 47.143 56.172 47.143 z" stroke-linecap="round" />
</g>
<g transform="matrix(2.67 0 0 2.67 252.8 219.2)" id="Layer_1"  >
<path style="stroke: none; stroke-width: 1; stroke-dasharray: none; stroke-linecap: butt; stroke-dashoffset: 0; stroke-linejoin: miter; stroke-miterlimit: 4; fill: rgb(9,50,96); fill-rule: nonzero; opacity: 1;"  transform=" translate(-57.3, -44.7)" d="M 57.202 45.709 c -0.105 0 -0.211 -0.022 -0.313 -0.068 c -0.275 -0.126 -0.437 -0.398 -0.437 -0.682 c 0 -0.105 0.022 -0.211 0.068 -0.313 c 0.062 -0.135 0.114 -0.273 0.155 -0.414 c 0.114 -0.399 0.531 -0.628 0.927 -0.515 c 0.329 0.094 0.543 0.394 0.544 0.72 c 0 0.068 -0.009 0.138 -0.029 0.208 c -0.061 0.214 -0.14 0.424 -0.234 0.629 C 57.758 45.548 57.486 45.709 57.202 45.709 z" stroke-linecap="round" />
</g>
<g transform="matrix(2.67 0 0 2.67 253.33 217)" id="Layer_1"  >
<path style="stroke: none; stroke-width: 1; stroke-dasharray: none; stroke-linecap: butt; stroke-dashoffset: 0; stroke-linejoin: miter; stroke-miterlimit: 4; fill: rgb(9,50,96); fill-rule: nonzero; opacity: 1;"  transform=" translate(-57.5, -43.88)" d="M 57.456 44.965 c -0.053 0 -0.107 -0.005 -0.161 -0.018 c -0.351 -0.077 -0.59 -0.388 -0.589 -0.733 c 0 -0.053 0.006 -0.106 0.018 -0.16 c 0.041 -0.186 0.062 -0.364 0.065 -0.53 c 0.007 -0.41 0.341 -0.737 0.75 -0.737 c 0.003 0 0.006 0 0.01 0 c 0.413 0.005 0.744 0.343 0.74 0.756 c -0.002 0.262 -0.035 0.534 -0.101 0.832 C 58.111 44.727 57.801 44.965 57.456 44.965 z" stroke-linecap="round" />
</g>
<g transform="matrix(2.67 0 0 2.67 251.8 221.21)" id="Layer_1"  >
<path style="stroke: none; stroke-width: 1; stroke-dasharray: none; stroke-linecap: butt; stroke-dashoffset: 0; stroke-linejoin: miter; stroke-miterlimit: 4; fill: rgb(9,50,96); fill-rule: nonzero; opacity: 1;"  transform=" translate(-56.93, -45.45)" d="M 56.723 46.524 c -0.158 0 -0.316 -0.049 -0.452 -0.152 c -0.33 -0.249 -0.396 -0.719 -0.147 -1.049 c 0.073 -0.097 0.14 -0.195 0.201 -0.294 l 0 0 c 0.049 -0.081 0.096 -0.163 0.139 -0.245 c 0.191 -0.368 0.642 -0.509 1.011 -0.318 c 0.367 0.191 0.51 0.643 0.32 1.01 c -0.06 0.115 -0.124 0.229 -0.193 0.341 c 0 0 0 0 0 0 c -0.085 0.139 -0.179 0.276 -0.28 0.41 C 57.173 46.422 56.949 46.524 56.723 46.524 z" stroke-linecap="round" />
</g>
<g transform="matrix(2.67 0 0 2.67 252.46 211.89)" id="Layer_1"  >
<path style="stroke: none; stroke-width: 1; stroke-dasharray: none; stroke-linecap: butt; stroke-dashoffset: 0; stroke-linejoin: miter; stroke-miterlimit: 4; fill: rgb(9,50,96); fill-rule: nonzero; opacity: 1;"  transform=" translate(-57.17, -41.96)" d="M 57.164 42.76 c -0.269 0 -0.519 -0.142 -0.642 -0.406 c -0.004 -0.009 -0.038 -0.087 -0.042 -0.096 c -0.041 -0.1 -0.061 -0.207 -0.061 -0.313 c 0 -0.292 0.148 -0.581 0.415 -0.705 c 0.364 -0.171 0.775 -0.072 0.96 0.285 c 0.026 0.051 0.049 0.104 0.071 0.156 c 0.041 0.098 0.06 0.202 0.06 0.305 c 0 0.294 -0.159 0.582 -0.436 0.704 C 57.383 42.737 57.272 42.76 57.164 42.76 z" stroke-linecap="round" />
</g>
<g transform="matrix(2.67 0 0 2.67 204.94 208.09)" id="Layer_1"  >
<path style="stroke: none; stroke-width: 1; stroke-dasharray: none; stroke-linecap: butt; stroke-dashoffset: 0; stroke-linejoin: miter; stroke-miterlimit: 4; fill: rgb(9,50,96); fill-rule: nonzero; opacity: 1;"  transform=" translate(-39.35, -40.53)" d="M 39.317 41.308 c -0.189 0 -0.376 -0.066 -0.515 -0.205 c -0.291 -0.289 -0.324 -0.729 -0.042 -1.023 c 0.016 -0.019 0.083 -0.093 0.093 -0.104 c 0.293 -0.293 0.768 -0.293 1.061 0 c 0.09 0.069 0.098 0.102 0.149 0.203 c 0.151 0.304 0.08 0.672 -0.175 0.897 c -0.015 0.015 -0.03 0.029 -0.046 0.042 c -0.001 0.001 -0.003 0.003 -0.005 0.005 l 0 0 c -0.003 0.002 -0.005 0.004 -0.008 0.007 l 0.001 0.001 l -0.001 -0.001 C 39.682 41.247 39.499 41.308 39.317 41.308 z" stroke-linecap="round" />
</g>
<g transform="matrix(2.67 0 0 2.67 249.66 208.15)" id="Layer_1"  >
<path style="stroke: none; stroke-width: 1; stroke-dasharray: none; stroke-linecap: butt; stroke-dashoffset: 0; stroke-linejoin: miter; stroke-miterlimit: 4; fill: rgb(9,50,96); fill-rule: nonzero; opacity: 1;"  transform=" translate(-56.12, -40.56)" d="M 56.167 41.354 c -0.121 0 -0.242 -0.029 -0.352 -0.088 l 0 0 c -0.001 -0.001 -0.002 -0.001 -0.003 -0.002 h 0 c -0.061 -0.033 -0.119 -0.076 -0.17 -0.128 c -0.001 -0.001 -0.003 -0.003 -0.004 -0.004 v 0 l -0.066 -0.062 c -0.249 -0.226 -0.316 -0.589 -0.167 -0.89 c 0.043 -0.085 0.106 -0.168 0.178 -0.231 c 0.293 -0.261 0.742 -0.253 1.023 0.021 c 0.018 0.018 0.082 0.087 0.098 0.106 c 0.002 0.002 0.004 0.005 0.006 0.007 c 0 0.001 0.001 0.001 0.002 0.002 c 0 0 0 0 0.001 0.001 c 0 0 0 0 0.001 0.001 l 0 0 c 0 0 0.001 0.001 0.001 0.001 c 0 0 0 0 0 0 c 0.253 0.272 0.271 0.689 0.044 0.977 c 0 0.001 0 0.001 -0.001 0.001 c 0 0 -0.001 0 -0.001 0.002 c 0 0 0 0 -0.001 0.001 c 0 0 0 0 0 0 c -0.018 0.022 -0.037 0.043 -0.057 0.063 c 0 0 0 0.001 -0.001 0.001 l 0 0 h 0 C 56.55 41.281 56.358 41.354 56.167 41.354 z" stroke-linecap="round" />
</g>
<g transform="matrix(2.67 0 0 2.67 253.44 215.94)" id="Layer_1"  >
<path style="stroke: none; stroke-width: 1; stroke-dasharray: none; stroke-linecap: butt; stroke-dashoffset: 0; stroke-linejoin: miter; stroke-miterlimit: 4; fill: rgb(9,50,96); fill-rule: nonzero; opacity: 1;"  transform=" translate(-57.54, -43.48)" d="M 57.541 44.247 c -0.278 0 -0.541 -0.155 -0.67 -0.415 c -0.039 -0.078 -0.063 -0.162 -0.074 -0.248 c -0.002 -0.02 -0.005 -0.045 -0.006 -0.069 c -0.001 -0.019 -0.002 -0.038 -0.002 -0.054 c 0 0 0 0 0 -0.001 c 0 -0.414 0.336 -0.75 0.75 -0.75 c 0.387 0 0.706 0.293 0.746 0.67 c 0.005 0.037 0.008 0.079 0.008 0.111 c 0 0.026 -0.001 0.053 -0.004 0.079 c -0.03 0.298 -0.238 0.558 -0.535 0.645 C 57.683 44.237 57.612 44.247 57.541 44.247 z" stroke-linecap="round" />
</g>
<g transform="matrix(2.67 0 0 2.67 251.11 209.75)" id="Layer_1"  >
<path style="stroke: none; stroke-width: 1; stroke-dasharray: none; stroke-linecap: butt; stroke-dashoffset: 0; stroke-linejoin: miter; stroke-miterlimit: 4; fill: rgb(9,50,96); fill-rule: nonzero; opacity: 1;"  transform=" translate(-56.67, -41.16)" d="M 56.724 41.975 c -0.231 0 -0.459 -0.107 -0.606 -0.308 l 0.006 -0.005 l 0.535 -0.517 l -0.635 0.408 c -0.109 -0.138 -0.162 -0.302 -0.162 -0.464 c 0 -0.222 0.097 -0.441 0.285 -0.589 c 0.324 -0.258 0.797 -0.202 1.053 0.123 c 0.065 0.076 0.099 0.117 0.13 0.16 c 0.097 0.133 0.144 0.288 0.144 0.441 c 0 0.231 -0.107 0.46 -0.308 0.606 C 57.032 41.928 56.877 41.975 56.724 41.975 z" stroke-linecap="round" />
</g>
<g transform="matrix(2.67 0 0 2.67 203.47 209.74)" id="Layer_1"  >
<path style="stroke: none; stroke-width: 1; stroke-dasharray: none; stroke-linecap: butt; stroke-dashoffset: 0; stroke-linejoin: miter; stroke-miterlimit: 4; fill: rgb(9,50,96); fill-rule: nonzero; opacity: 1;"  transform=" translate(-38.8, -41.15)" d="M 38.749 41.922 c -0.159 0 -0.316 -0.048 -0.444 -0.151 c -0.192 -0.154 -0.3 -0.371 -0.3 -0.589 c 0 -0.14 0.044 -0.281 0.139 -0.408 c 0.01 -0.013 0.083 -0.103 0.094 -0.115 c 0.266 -0.31 0.756 -0.379 1.071 -0.12 c 0.187 0.154 0.289 0.369 0.288 0.584 c 0 0.149 -0.049 0.299 -0.152 0.429 c -0.006 0.008 -0.063 0.076 -0.07 0.084 C 39.218 41.82 38.981 41.922 38.749 41.922 z" stroke-linecap="round" />
</g>
<g transform="matrix(2.67 0 0 2.67 202.14 211.87)" id="Layer_1"  >
<path style="stroke: none; stroke-width: 1; stroke-dasharray: none; stroke-linecap: butt; stroke-dashoffset: 0; stroke-linejoin: miter; stroke-miterlimit: 4; fill: rgb(9,50,96); fill-rule: nonzero; opacity: 1;"  transform=" translate(-38.3, -41.95)" d="M 38.264 42.788 c -0.106 0 -0.213 -0.022 -0.315 -0.07 c -0.273 -0.127 -0.435 -0.398 -0.434 -0.681 c 0 -0.105 0.022 -0.213 0.07 -0.315 l 0.68 0.316 l -0.663 -0.356 c 0.022 -0.053 0.045 -0.106 0.072 -0.159 c 0.19 -0.367 0.644 -0.511 1.011 -0.321 c 0.258 0.133 0.406 0.396 0.405 0.667 c 0 0.116 -0.027 0.233 -0.084 0.343 c -0.004 0.009 -0.057 0.132 -0.061 0.141 C 38.817 42.627 38.546 42.788 38.264 42.788 z" stroke-linecap="round" />
</g>
<g transform="matrix(2.67 0 0 2.67 201.14 216.01)" id="Layer_1"  >
<path style="stroke: none; stroke-width: 1; stroke-dasharray: none; stroke-linecap: butt; stroke-dashoffset: 0; stroke-linejoin: miter; stroke-miterlimit: 4; fill: rgb(9,50,96); fill-rule: nonzero; opacity: 1;"  transform=" translate(-37.93, -43.5)" d="M 37.923 44.289 c -0.414 0 -0.748 -0.376 -0.748 -0.791 v -0.006 c 0 -0.036 0.004 -0.082 0.009 -0.122 l 0 0 c 0.053 -0.391 0.404 -0.675 0.795 -0.652 c 0.394 0.027 0.7 0.348 0.7 0.743 c 0 0.019 -0.001 0.04 -0.003 0.062 h 0 h 0 c -0.001 0.014 -0.002 0.028 -0.004 0.042 c 0 0.003 0 0.007 -0.001 0.011 c 0 0.001 0 0.002 0 0.004 C 38.67 43.994 38.337 44.289 37.923 44.289 z" stroke-linecap="round" />
</g>
<g transform="matrix(2.67 0 0 2.67 201.44 213.79)" id="Layer_1"  >
<path style="stroke: none; stroke-width: 1; stroke-dasharray: none; stroke-linecap: butt; stroke-dashoffset: 0; stroke-linejoin: miter; stroke-miterlimit: 4; fill: rgb(9,50,96); fill-rule: nonzero; opacity: 1;"  transform=" translate(-38.04, -42.67)" d="M 38.012 43.534 c -0.054 0 -0.109 -0.006 -0.164 -0.018 c -0.349 -0.078 -0.586 -0.388 -0.586 -0.731 c 0 -0.054 0.006 -0.109 0.018 -0.165 c 0.02 -0.089 0.044 -0.179 0.07 -0.268 c 0.115 -0.398 0.533 -0.627 0.929 -0.512 c 0.328 0.095 0.542 0.394 0.542 0.719 c 0 0.069 -0.009 0.14 -0.03 0.209 c -0.017 0.06 -0.034 0.119 -0.047 0.178 C 38.665 43.296 38.355 43.534 38.012 43.534 z" stroke-linecap="round" />
</g>
<g transform="matrix(2.67 0 0 2.67 201.25 217)" id="Layer_1"  >
<path style="stroke: none; stroke-width: 1; stroke-dasharray: none; stroke-linecap: butt; stroke-dashoffset: 0; stroke-linejoin: miter; stroke-miterlimit: 4; fill: rgb(9,50,96); fill-rule: nonzero; opacity: 1;"  transform=" translate(-37.97, -43.88)" d="M 38.01 44.965 c -0.346 0 -0.657 -0.241 -0.732 -0.592 c -0.063 -0.296 -0.096 -0.565 -0.099 -0.821 c 0 -0.002 0 -0.005 0 -0.008 l 0 0 c -0.003 -0.414 0.33 -0.753 0.744 -0.756 c 0.392 -0.009 0.753 0.33 0.756 0.744 c 0.001 0.156 0.022 0.328 0.065 0.526 c 0.011 0.053 0.017 0.106 0.017 0.158 c 0 0.346 -0.24 0.657 -0.592 0.733 C 38.116 44.96 38.062 44.965 38.01 44.965 z" stroke-linecap="round" />
</g>
<g transform="matrix(2.67 0 0 2.67 202.78 221.21)" id="Layer_1"  >
<path style="stroke: none; stroke-width: 1; stroke-dasharray: none; stroke-linecap: butt; stroke-dashoffset: 0; stroke-linejoin: miter; stroke-miterlimit: 4; fill: rgb(9,50,96); fill-rule: nonzero; opacity: 1;"  transform=" translate(-38.54, -45.45)" d="M 38.744 46.524 c -0.229 0 -0.454 -0.104 -0.601 -0.301 c -0.179 -0.239 -0.337 -0.491 -0.47 -0.747 c -0.057 -0.11 -0.084 -0.227 -0.084 -0.343 c 0 -0.271 0.147 -0.534 0.405 -0.667 c 0.366 -0.191 0.82 -0.047 1.011 0.321 c 0.095 0.183 0.208 0.363 0.339 0.538 c 0.101 0.135 0.149 0.292 0.149 0.449 c 0 0.229 -0.104 0.454 -0.301 0.601 C 39.058 46.475 38.9 46.524 38.744 46.524 z" stroke-linecap="round" />
</g>
<g transform="matrix(2.67 0 0 2.67 204.2 223.07)" id="Layer_1"  >
<path style="stroke: none; stroke-width: 1; stroke-dasharray: none; stroke-linecap: butt; stroke-dashoffset: 0; stroke-linejoin: miter; stroke-miterlimit: 4; fill: rgb(9,50,96); fill-rule: nonzero; opacity: 1;"  transform=" translate(-39.08, -46.15)" d="M 39.294 47.143 c -0.189 0 -0.379 -0.071 -0.525 -0.215 c 0 0 -0.001 -0.001 -0.001 -0.001 l 0 0 h 0 c -0.177 -0.175 -0.34 -0.355 -0.491 -0.541 c -0.001 -0.001 -0.002 -0.003 -0.004 -0.004 c -0.112 -0.139 -0.167 -0.306 -0.167 -0.472 c 0 -0.218 0.095 -0.435 0.277 -0.583 c 0.321 -0.262 0.793 -0.212 1.055 0.11 c 0.118 0.145 0.244 0.285 0.384 0.423 c 0.294 0.291 0.298 0.765 0.007 1.06 C 39.682 47.068 39.488 47.143 39.294 47.143 z" stroke-linecap="round" />
</g>
<g transform="matrix(2.67 0 0 2.67 201.78 219.19)" id="Layer_1"  >
<path style="stroke: none; stroke-width: 1; stroke-dasharray: none; stroke-linecap: butt; stroke-dashoffset: 0; stroke-linejoin: miter; stroke-miterlimit: 4; fill: rgb(9,50,96); fill-rule: nonzero; opacity: 1;"  transform=" translate(-38.17, -44.7)" d="M 38.265 45.709 c -0.283 0 -0.553 -0.16 -0.681 -0.434 c -0.096 -0.206 -0.174 -0.417 -0.235 -0.632 c -0.02 -0.069 -0.029 -0.139 -0.029 -0.208 c 0 -0.326 0.215 -0.625 0.544 -0.72 c 0.396 -0.114 0.812 0.116 0.927 0.515 c 0.04 0.14 0.091 0.277 0.153 0.411 c 0.047 0.103 0.07 0.21 0.07 0.317 c 0 0.282 -0.161 0.552 -0.434 0.68 C 38.479 45.687 38.371 45.709 38.265 45.709 z" stroke-linecap="round" />
</g>
<g transform="matrix(2.67 0 0 2.67 227.29 223.96)" id="Layer_1"  >
<path style="stroke: none; stroke-width: 1; stroke-dasharray: none; stroke-linecap: butt; stroke-dashoffset: 0; stroke-linejoin: miter; stroke-miterlimit: 4; fill: rgb(9,50,96); fill-rule: nonzero; opacity: 1;"  transform=" translate(-47.73, -46.49)" d="M 47.734 49.954 c -3.604 0 -6.914 -1.092 -8.856 -2.921 c -0.15 -0.142 -0.236 -0.339 -0.236 -0.546 c 0 -0.207 0.085 -0.404 0.235 -0.546 c 1.941 -1.83 5.252 -2.923 8.856 -2.923 c 3.604 0 6.914 1.093 8.856 2.923 c 0.151 0.142 0.236 0.339 0.236 0.546 c 0 0.207 -0.085 0.404 -0.236 0.546 C 54.647 48.862 51.336 49.954 47.734 49.954 z M 40.574 46.486 c 1.72 1.227 4.369 1.967 7.16 1.967 c 2.789 0 5.438 -0.74 7.159 -1.967 c -1.72 -1.228 -4.369 -1.968 -7.159 -1.968 C 44.943 44.518 42.293 45.259 40.574 46.486 z" stroke-linecap="round" />
</g>
<g transform="matrix(2.67 0 0 2.67 213.81 207.77)" id="Layer_1"  >
<path style="stroke: none; stroke-width: 1; stroke-dasharray: none; stroke-linecap: butt; stroke-dashoffset: 0; stroke-linejoin: miter; stroke-miterlimit: 4; fill: rgb(27,193,169); fill-rule: nonzero; opacity: 1;"  transform=" translate(-42.68, -40.41)" d="M 41.507 46.178 c -1.27 1.27 -3.326 1.27 -4.596 0 l 0 0 c -1.27 -1.27 -1.27 -3.326 0 -4.596 l 6.937 -6.936 c 1.269 -1.27 3.325 -1.27 4.595 0 l 0 0 c 1.27 1.27 1.27 3.326 0 4.594 L 41.507 46.178 z" stroke-linecap="round" />
</g>
<g transform="matrix(2.67 0 0 2.67 210.64 210.93)" id="Layer_1"  >
<path style="stroke: none; stroke-width: 1; stroke-dasharray: none; stroke-linecap: butt; stroke-dashoffset: 0; stroke-linejoin: miter; stroke-miterlimit: 4; fill: rgb(12,175,175); fill-rule: nonzero; opacity: 1;"  transform=" translate(-41.49, -41.6)" d="M 46.07 37.02 c -1.269 -1.27 -3.326 -1.27 -4.595 0 l -4.563 4.562 c -1.27 1.27 -1.27 3.326 0 4.596 s 3.326 1.27 4.596 0 l 4.562 -4.564 C 47.339 40.346 47.339 38.288 46.07 37.02 z" stroke-linecap="round" />
</g>
<g transform="matrix(2.67 0 0 2.67 213.81 207.82)" id="Layer_1"  >
<path style="stroke: none; stroke-width: 1; stroke-dasharray: none; stroke-linecap: butt; stroke-dashoffset: 0; stroke-linejoin: miter; stroke-miterlimit: 4; fill: rgb(9,50,96); fill-rule: nonzero; opacity: 1;"  transform=" translate(-42.68, -40.43)" d="M 39.209 47.88 c -1.068 0 -2.073 -0.416 -2.828 -1.172 c -0.756 -0.755 -1.172 -1.76 -1.172 -2.828 s 0.416 -2.073 1.172 -2.828 l 6.937 -6.936 c 1.51 -1.512 4.145 -1.511 5.655 0 c 0.756 0.755 1.172 1.76 1.172 2.828 c 0 1.068 -0.417 2.072 -1.172 2.827 l -6.935 6.937 C 41.282 47.464 40.278 47.88 39.209 47.88 z M 46.145 34.445 c -0.667 0 -1.294 0.26 -1.766 0.732 l -6.937 6.936 c -0.472 0.472 -0.732 1.1 -0.732 1.768 s 0.26 1.295 0.732 1.768 c 0.944 0.944 2.591 0.944 3.535 0 l 6.936 -6.938 c 0.473 -0.472 0.732 -1.099 0.732 -1.766 c 0 -0.667 -0.26 -1.295 -0.732 -1.768 S 46.812 34.445 46.145 34.445 z" stroke-linecap="round" />
</g>
<g transform="matrix(2.67 0 0 2.67 216.06 205.51)" id="Layer_1"  >
<path style="stroke: none; stroke-width: 1; stroke-dasharray: none; stroke-linecap: butt; stroke-dashoffset: 0; stroke-linejoin: miter; stroke-miterlimit: 4; fill: rgb(9,50,96); fill-rule: nonzero; opacity: 1;"  transform=" translate(-43.52, -39.57)" d="M 45.345 43.09 c -0.192 0 -0.384 -0.073 -0.53 -0.22 c -0.293 -0.293 -0.293 -0.768 0 -1.061 c 0.975 -0.975 0.975 -2.561 0 -3.535 s -2.561 -0.975 -3.535 0 c -0.293 0.293 -0.768 0.293 -1.061 0 s -0.293 -0.768 0 -1.061 c 1.56 -1.56 4.097 -1.56 5.656 0 s 1.56 4.097 0 5.656 C 45.729 43.017 45.537 43.09 45.345 43.09 z" stroke-linecap="round" />
</g>
<g transform="matrix(2.67 0 0 2.67 205.66 215.91)" id="Layer_1"  >
<path style="stroke: none; stroke-width: 1; stroke-dasharray: none; stroke-linecap: butt; stroke-dashoffset: 0; stroke-linejoin: miter; stroke-miterlimit: 4; fill: rgb(9,50,96); fill-rule: nonzero; opacity: 1;"  transform=" translate(-39.62, -43.47)" d="M 41.446 46.989 c -0.192 0 -0.384 -0.073 -0.53 -0.219 c -0.293 -0.293 -0.293 -0.768 0 -1.061 c 0.974 -0.975 0.974 -2.561 0 -3.535 c -0.974 -0.974 -2.56 -0.973 -3.534 0 c -0.293 0.292 -0.768 0.292 -1.061 -0.001 c -0.292 -0.293 -0.292 -0.768 0.001 -1.061 c 1.56 -1.557 4.096 -1.557 5.655 0 c 1.559 1.56 1.559 4.097 0 5.657 C 41.83 46.916 41.638 46.989 41.446 46.989 z" stroke-linecap="round" />
</g>
</svg>