<?xml version="1.0" encoding="UTF-8" standalone="no" ?>
<!DOCTYPE svg PUBLIC "-//W3C//DTD SVG 1.1//EN" "http://www.w3.org/Graphics/SVG/1.1/DTD/svg11.dtd">
<svg xmlns="http://www.w3.org/2000/svg" xmlns:xlink="http://www.w3.org/1999/xlink" version="1.1" width="400" height="400" viewBox="0 0 400 400" xml:space="preserve">
<desc>Created with Fabric.js 3.6.2</desc>
<defs>
</defs>
<g transform="matrix(4.17 0 0 4.17 200 186.85)" id="surface1"  >
<path style="stroke: none; stroke-width: 1; stroke-dasharray: none; stroke-linecap: butt; stroke-dashoffset: 0; stroke-linejoin: miter; stroke-miterlimit: 4; fill: rgb(213,0,0); fill-rule: nonzero; opacity: 1;"  transform=" translate(-24, -20.84)" d="M 45.898438 22.898438 C 45.898438 22.800781 45.800781 22.699219 45.800781 22.601563 C 46.398438 21.800781 46.5 20.699219 46.101563 19.800781 C 45.601563 18.601563 44.5 17.898438 43.300781 18 C 43.699219 16.898438 43.5 15.601563 42.5 14.699219 C 41.601563 13.898438 40.300781 13.699219 39.300781 14.101563 C 39.300781 13 38.601563 11.898438 37.5 11.398438 C 36.398438 10.898438 35.199219 11.101563 34.398438 11.800781 C 34.101563 10.800781 33.199219 9.898438 32.101563 9.699219 C 31 9.5 29.898438 9.898438 29.199219 10.699219 C 28.699219 9.800781 27.800781 9.101563 26.699219 9 C 25.601563 8.898438 24.601563 9.5 24 10.300781 C 23.398438 9.398438 22.398438 8.898438 21.300781 9 C 20.199219 9.101563 19.199219 9.699219 18.800781 10.601563 C 18.101563 9.800781 17 9.398438 15.898438 9.601563 C 14.800781 9.800781 13.898438 10.699219 13.601563 11.699219 C 12.800781 11 11.601563 10.800781 10.5 11.300781 C 9.398438 11.800781 8.699219 12.800781 8.699219 14 C 7.601563 13.5 6.398438 13.699219 5.5 14.5 C 4.601563 15.300781 4.300781 16.601563 4.699219 17.699219 C 3.5 17.699219 2.398438 18.398438 1.898438 19.5 C 1.5 20.398438 1.601563 21.5 2.101563 22.300781 C 2.101563 22.5 2 22.601563 2 22.800781 C 1.898438 23.199219 1.898438 23.601563 2 24 C 1.398438 25.101563 1.5 26.398438 2.398438 27.300781 C 3.300781 28.398438 4.800781 28.601563 6 28 C 6.101563 29.199219 6.898438 30.199219 8.101563 30.601563 C 9.199219 30.898438 10.300781 30.699219 11.101563 29.898438 C 11.5 30.898438 12.300781 31.601563 13.398438 31.800781 C 14.5 32 15.5 31.601563 16.199219 30.800781 C 16.601563 31.699219 17.5 32.398438 18.601563 32.5 C 18.699219 32.5 18.800781 32.5 18.898438 32.5 C 19.898438 32.5 20.800781 32 21.398438 31.199219 C 21.5 31.398438 21.699219 31.601563 21.898438 31.800781 C 22.5 32.398438 23.199219 32.699219 24 32.699219 C 24 32.699219 24 32.699219 24.101563 32.699219 C 24.101563 32.699219 24.101563 32.699219 24.199219 32.699219 C 25 32.699219 25.800781 32.398438 26.300781 31.800781 C 26.5 31.601563 26.601563 31.398438 26.699219 31.199219 C 27.300781 32 28.300781 32.601563 29.398438 32.5 C 30.5 32.398438 31.398438 31.699219 31.800781 30.800781 C 32.5 31.601563 33.5 32 34.601563 31.800781 C 35.699219 31.601563 36.601563 30.898438 36.898438 29.898438 C 37.699219 30.601563 38.800781 30.898438 39.898438 30.601563 C 41.101563 30.199219 41.898438 29.199219 42 28.101563 C 43.199219 28.699219 44.699219 28.5 45.601563 27.5 C 46.5 26.5 46.601563 25.101563 46 24 C 46 23.800781 46 23.398438 45.898438 22.898438 Z" stroke-linecap="round" />
</g>
<g transform="matrix(4.17 0 0 4.17 200 230.83)" id="surface1"  >
<path style="stroke: none; stroke-width: 1; stroke-dasharray: none; stroke-linecap: butt; stroke-dashoffset: 0; stroke-linejoin: miter; stroke-miterlimit: 4; fill: rgb(255,193,7); fill-rule: nonzero; opacity: 1;"  transform=" translate(-24, -31.4)" d="M 36 25.898438 C 31 29.699219 24 26.898438 24 26.898438 C 24 26.898438 16.898438 29.699219 12 25.898438 C 5 29.601563 0 22.898438 0 22.898438 C 0 22.898438 2.898438 32.699219 7 36.898438 C 7 36.898438 15 39.898438 24 39.898438 C 33 39.898438 41 36.898438 41 36.898438 C 45.101563 32.699219 48 22.898438 48 22.898438 C 48 22.898438 43.101563 29.699219 36 25.898438 Z" stroke-linecap="round" />
</g>
<g transform="matrix(4.17 0 0 4.17 200 237.08)" id="surface1"  >
<path style="stroke: none; stroke-width: 1; stroke-dasharray: none; stroke-linecap: butt; stroke-dashoffset: 0; stroke-linejoin: miter; stroke-miterlimit: 4; fill: rgb(255,179,0); fill-rule: nonzero; opacity: 1;"  transform=" translate(-24, -32.9)" d="M 24 26.898438 L 26 27.898438 L 24 39.898438 L 22 27.898438 Z M 10 25.898438 L 14 38.898438 L 14 26.898438 L 12 25.898438 Z M 36 25.898438 L 34 26.898438 L 34 38.898438 L 38 25.898438 Z" stroke-linecap="round" />
</g>
<g transform="matrix(4.17 0 0 4.17 199.92 206.54)" id="surface1"  >
<path style="stroke: none; stroke-width: 1; stroke-dasharray: none; stroke-linecap: butt; stroke-dashoffset: 0; stroke-linejoin: miter; stroke-miterlimit: 4; fill: rgb(255,143,0); fill-rule: nonzero; opacity: 1;"  transform=" translate(-23.98, -25.57)" d="M 47.398438 22 C 46.898438 21.800781 46.300781 22.101563 46.101563 22.601563 C 46.101563 22.601563 45.300781 24.699219 43 25.601563 C 41.199219 26.300781 39 26.101563 36.398438 25 L 35.898438 24.800781 L 35.398438 25.101563 C 30.398438 28.601563 24.5 26.101563 24.300781 26 L 24 25.800781 L 23.601563 26 C 23.5 26 17.601563 28.601563 12.5 25.101563 L 12 24.800781 L 11.601563 25 C 9 26.101563 6.800781 26.300781 5 25.601563 C 2.800781 24.699219 1.898438 22.601563 1.898438 22.601563 C 1.699219 22.101563 1.101563 21.800781 0.601563 22 C 0.101563 22.199219 -0.199219 22.800781 0 23.300781 C 0 23.398438 1.199219 26.199219 4.199219 27.398438 C 6.398438 28.300781 8.898438 28.199219 11.800781 27 C 13.800781 28.601563 16.101563 29.199219 18.101563 29.199219 C 20.699219 29.199219 23 28.398438 24 28 C 24.898438 28.398438 27.199219 29.199219 29.898438 29.199219 C 32 29.199219 34.300781 28.699219 36.199219 27 C 39.101563 28.101563 41.601563 28.300781 43.800781 27.398438 C 46.800781 26.101563 47.898438 23.398438 48 23.300781 C 48.101563 22.800781 47.898438 22.199219 47.398438 22 Z" stroke-linecap="round" />
</g>
<g transform="matrix(4.17 0 0 4.17 197.92 174.58)" id="surface1"  >
<path style="stroke: none; stroke-width: 1; stroke-dasharray: none; stroke-linecap: butt; stroke-dashoffset: 0; stroke-linejoin: miter; stroke-miterlimit: 4; fill: rgb(255,23,68); fill-rule: nonzero; opacity: 1;"  transform=" translate(-23.5, -17.9)" d="M 20 15.398438 C 20 16.800781 18.898438 17.898438 17.5 17.898438 C 16.101563 17.898438 15 16.800781 15 15.398438 C 15 14 16.101563 12.898438 17.5 12.898438 C 18.898438 12.898438 20 14.101563 20 15.398438 Z M 28 11.898438 C 26.898438 11.898438 26 12.800781 26 13.898438 C 26 15 26.898438 15.898438 28 15.898438 C 29.101563 15.898438 30 15 30 13.898438 C 30 12.800781 29.101563 11.898438 28 11.898438 Z M 37 15.898438 C 35.300781 15.898438 34 17.199219 34 18.898438 C 34 20.601563 35.300781 21.898438 37 21.898438 C 38.699219 21.898438 40 20.601563 40 18.898438 C 40 17.300781 38.699219 15.898438 37 15.898438 Z M 24 17.898438 C 22.300781 17.898438 21 19.199219 21 20.898438 C 21 22.601563 22.300781 23.898438 24 23.898438 C 25.699219 23.898438 27 22.601563 27 20.898438 C 27 19.300781 25.699219 17.898438 24 17.898438 Z M 9.5 17.898438 C 8.101563 17.898438 7 19 7 20.398438 C 7 21.800781 8.101563 22.898438 9.5 22.898438 C 10.898438 22.898438 12 21.800781 12 20.398438 C 12 19.101563 10.898438 17.898438 9.5 17.898438 Z" stroke-linecap="round" />
</g>
<g transform="matrix(4.17 0 0 4.17 210.42 172.49)" id="surface1"  >
<path style="stroke: none; stroke-width: 1; stroke-dasharray: none; stroke-linecap: butt; stroke-dashoffset: 0; stroke-linejoin: miter; stroke-miterlimit: 4; fill: rgb(183,28,28); fill-rule: nonzero; opacity: 1;"  transform=" translate(-26.5, -17.4)" d="M 15 18.398438 C 15 19.800781 13.898438 20.898438 12.5 20.898438 C 11.101563 20.898438 10 19.800781 10 18.398438 C 10 17 11.101563 15.898438 12.5 15.898438 C 13.898438 15.898438 15 17.101563 15 18.398438 Z M 16 21.898438 C 16 23 16.898438 23.898438 18 23.898438 C 19.101563 23.898438 20 23 20 21.898438 C 20 20.800781 19.101563 19.898438 18 19.898438 C 16.898438 19.898438 16 20.800781 16 21.898438 Z M 31 16.898438 C 29.300781 16.898438 28 18.199219 28 19.898438 C 28 21.601563 29.300781 22.898438 31 22.898438 C 32.699219 22.898438 34 21.601563 34 19.898438 C 34 18.300781 32.699219 16.898438 31 16.898438 Z M 41 21.898438 C 42.101563 21.898438 43 21 43 19.898438 C 43 18.800781 42.101563 17.898438 41 17.898438 C 39.898438 17.898438 39 18.800781 39 19.898438 C 39 21.101563 39.898438 21.898438 41 21.898438 Z M 24.5 10.898438 C 23.101563 10.898438 22 12 22 13.398438 C 22 14.800781 23.101563 15.898438 24.5 15.898438 C 25.898438 15.898438 27 14.800781 27 13.398438 C 27 12 25.898438 10.898438 24.5 10.898438 Z" stroke-linecap="round" />
</g>
</svg>