<?xml version="1.0" encoding="UTF-8" standalone="no" ?>
<!DOCTYPE svg PUBLIC "-//W3C//DTD SVG 1.1//EN" "http://www.w3.org/Graphics/SVG/1.1/DTD/svg11.dtd">
<svg xmlns="http://www.w3.org/2000/svg" xmlns:xlink="http://www.w3.org/1999/xlink" version="1.1" width="400" height="400" viewBox="0 0 400 400" xml:space="preserve">
<desc>Created with Fabric.js 3.6.2</desc>
<defs>
</defs>
<g transform="matrix(4.17 0 0 4.17 200 200)" id="surface1"  >
<path style="stroke: none; stroke-width: 1; stroke-dasharray: none; stroke-linecap: butt; stroke-dashoffset: 0; stroke-linejoin: miter; stroke-miterlimit: 4; fill: rgb(139,195,74); fill-rule: nonzero; opacity: 1;"  transform=" translate(-24, -24)" d="M 5 15 L 5 33 L 24 42 L 43 33 L 43 15 L 24 6 Z" stroke-linecap="round" />
</g>
<g transform="matrix(4.17 0 0 4.17 239.58 200)" id="surface1"  >
<path style="stroke: none; stroke-width: 1; stroke-dasharray: none; stroke-linecap: butt; stroke-dashoffset: 0; stroke-linejoin: miter; stroke-miterlimit: 4; fill: rgb(124,179,66); fill-rule: nonzero; opacity: 1;"  transform=" translate(-33.5, -24)" d="M 24 6 L 24 42 L 43 33 L 43 15 Z" stroke-linecap="round" />
</g>
<g transform="matrix(4.17 0 0 4.17 200 243.75)" id="surface1"  >
<path style="stroke: none; stroke-width: 1; stroke-dasharray: none; stroke-linecap: butt; stroke-dashoffset: 0; stroke-linejoin: miter; stroke-miterlimit: 4; fill: rgb(255,23,68); fill-rule: nonzero; opacity: 1;"  transform=" translate(-24, -34.5)" d="M 5 27 L 5 33 L 24 42 L 43 33 L 43 27 L 24 36 Z" stroke-linecap="round" />
</g>
<g transform="matrix(4.17 0 0 4.17 239.58 243.75)" id="surface1"  >
<path style="stroke: none; stroke-width: 1; stroke-dasharray: none; stroke-linecap: butt; stroke-dashoffset: 0; stroke-linejoin: miter; stroke-miterlimit: 4; fill: rgb(213,0,0); fill-rule: nonzero; opacity: 1;"  transform=" translate(-33.5, -34.5)" d="M 24 42 L 43 33 L 43 27 L 24 36 Z" stroke-linecap="round" />
</g>
<g transform="matrix(4.17 0 0 4.17 200 218.75)" id="surface1"  >
<path style="stroke: none; stroke-width: 1; stroke-dasharray: none; stroke-linecap: butt; stroke-dashoffset: 0; stroke-linejoin: miter; stroke-miterlimit: 4; fill: rgb(255,193,7); fill-rule: nonzero; opacity: 1;"  transform=" translate(-24, -28.5)" d="M 24 30 L 5 21 L 5 27 L 24 36 L 43 27 L 43 21 Z" stroke-linecap="round" />
</g>
<g transform="matrix(4.17 0 0 4.17 239.58 218.75)" id="surface1"  >
<path style="stroke: none; stroke-width: 1; stroke-dasharray: none; stroke-linecap: butt; stroke-dashoffset: 0; stroke-linejoin: miter; stroke-miterlimit: 4; fill: rgb(255,179,0); fill-rule: nonzero; opacity: 1;"  transform=" translate(-33.5, -28.5)" d="M 24 30 L 24 36 L 43 27 L 43 21 Z" stroke-linecap="round" />
</g>
<g transform="matrix(4.17 0 0 4.17 200 162.5)" id="surface1"  >
<path style="stroke: none; stroke-width: 1; stroke-dasharray: none; stroke-linecap: butt; stroke-dashoffset: 0; stroke-linejoin: miter; stroke-miterlimit: 4; fill: rgb(104,159,56); fill-rule: nonzero; opacity: 1;"  transform=" translate(-24, -15)" d="M 5 15 L 24 6 L 43 15 L 24 24 Z" stroke-linecap="round" />
</g>
<g transform="matrix(4.17 0 0 4.17 200 164.58)" id="surface1"  >
<path style="stroke: none; stroke-width: 1; stroke-dasharray: none; stroke-linecap: butt; stroke-dashoffset: 0; stroke-linejoin: miter; stroke-miterlimit: 4; fill: rgb(241,248,233); fill-rule: nonzero; opacity: 1;"  transform=" translate(-24, -15.5)" d="M 22 13 C 22 13.550781 21.550781 14 21 14 C 20.449219 14 20 13.550781 20 13 C 20 12.449219 20.449219 12 21 12 C 21.550781 12 22 12.449219 22 13 Z M 16 13 C 15.449219 13 15 13.449219 15 14 C 15 14.550781 15.449219 15 16 15 C 16.550781 15 17 14.550781 17 14 C 17 13.449219 16.550781 13 16 13 Z M 21 16 C 20.449219 16 20 16.449219 20 17 C 20 17.550781 20.449219 18 21 18 C 21.550781 18 22 17.550781 22 17 C 22 16.449219 21.550781 16 21 16 Z M 27 17 C 26.449219 17 26 17.449219 26 18 C 26 18.550781 26.449219 19 27 19 C 27.550781 19 28 18.550781 28 18 C 28 17.449219 27.550781 17 27 17 Z M 32 13 C 31.449219 13 31 13.449219 31 14 C 31 14.550781 31.449219 15 32 15 C 32.550781 15 33 14.550781 33 14 C 33 13.449219 32.550781 13 32 13 Z" stroke-linecap="round" />
</g>
</svg>