<?xml version="1.0" encoding="UTF-8" standalone="no" ?>
<!DOCTYPE svg PUBLIC "-//W3C//DTD SVG 1.1//EN" "http://www.w3.org/Graphics/SVG/1.1/DTD/svg11.dtd">
<svg xmlns="http://www.w3.org/2000/svg" xmlns:xlink="http://www.w3.org/1999/xlink" version="1.1" width="400" height="400" viewBox="0 0 400 400" xml:space="preserve">
<desc>Created with Fabric.js 3.6.2</desc>
<defs>
</defs>
<g transform="matrix(4.17 0 0 4.17 231.25 193.75)" id="Layer_1"  >
<path style="stroke: none; stroke-width: 1; stroke-dasharray: none; stroke-linecap: butt; stroke-dashoffset: 0; stroke-linejoin: miter; stroke-miterlimit: 4; fill: rgb(124,179,66); fill-rule: nonzero; opacity: 1;"  transform=" translate(-31.5, -22.5)" d="M 25.1 9.5 C 25.3 8.1 26.6 7 28 7 c 0.7 0 1.3 0.2 1.8 0.6 c 0.7 0.5 1.6 0.5 2.3 0 C 32.6 7.2 33.3 7 34 7 c 1.5 0 2.7 1.1 3 2.5 L 42 38 h -9 h -4 h -8 L 25.1 9.5 z" stroke-linecap="round" />
</g>
<g transform="matrix(4.17 0 0 4.17 220.83 193.75)" id="Layer_1"  >
<path style="stroke: none; stroke-width: 1; stroke-dasharray: none; stroke-linecap: butt; stroke-dashoffset: 0; stroke-linejoin: miter; stroke-miterlimit: 4; fill: rgb(104,159,56); fill-rule: nonzero; opacity: 1;"  transform=" translate(-29, -22.5)" d="M 29 38 h 4 h 3 L 32.8 8.5 c 0 -0.4 -0.1 -0.8 -0.3 -1.2 c -0.2 0.1 -0.3 0.2 -0.4 0.3 c -0.7 0.5 -1.6 0.5 -2.3 0 C 29.4 7.2 28.7 7 28 7 c -1.5 0 -2.7 1.1 -3 2.5 l -2.8 19.2 L 22 37.9 l 0 0.1 H 29 z" stroke-linecap="round" />
</g>
<g transform="matrix(4.17 0 0 4.17 168.75 193.75)" id="Layer_1"  >
<path style="stroke: none; stroke-width: 1; stroke-dasharray: none; stroke-linecap: butt; stroke-dashoffset: 0; stroke-linejoin: miter; stroke-miterlimit: 4; fill: rgb(124,179,66); fill-rule: nonzero; opacity: 1;"  transform=" translate(-16.5, -22.5)" d="M 22.9 9.5 C 22.7 8.1 21.4 7 20 7 c -0.7 0 -1.3 0.2 -1.8 0.6 c -0.7 0.5 -1.6 0.5 -2.3 0 C 15.4 7.2 14.7 7 14 7 c -1.5 0 -2.7 1.1 -3 2.5 L 6 38 h 9 h 4 h 8 L 22.9 9.5 z" stroke-linecap="round" />
</g>
<g transform="matrix(4.17 0 0 4.17 179.17 193.75)" id="Layer_1"  >
<path style="stroke: none; stroke-width: 1; stroke-dasharray: none; stroke-linecap: butt; stroke-dashoffset: 0; stroke-linejoin: miter; stroke-miterlimit: 4; fill: rgb(104,159,56); fill-rule: nonzero; opacity: 1;"  transform=" translate(-19, -22.5)" d="M 26 37.9 l -0.3 -9 L 22.9 9.5 C 22.7 8.1 21.4 7 20 7 c -0.7 0 -1.3 0.2 -1.8 0.6 c -0.7 0.5 -1.6 0.5 -2.3 0 c -0.1 -0.1 -0.3 -0.2 -0.4 -0.3 c -0.1 0.3 -0.2 0.7 -0.2 1.1 L 12 38 h 1 h 2 h 4 L 26 37.9 L 26 37.9 z" stroke-linecap="round" />
</g>
<g transform="matrix(4.17 0 0 4.17 200 193.75)" id="Layer_1"  >
<path style="stroke: none; stroke-width: 1; stroke-dasharray: none; stroke-linecap: butt; stroke-dashoffset: 0; stroke-linejoin: miter; stroke-miterlimit: 4; fill: rgb(104,159,56); fill-rule: nonzero; opacity: 1;"  transform=" translate(-24, -22.5)" d="M 18.1 9.5 C 18.3 8.1 19.6 7 21 7 c 0.7 0 1.3 0.2 1.8 0.6 c 0.7 0.5 1.6 0.5 2.3 0 C 25.6 7.2 26.3 7 27 7 c 1.5 0 2.7 1.1 3 2.5 L 32 38 h -6 h -4 h -6 L 18.1 9.5 z" stroke-linecap="round" />
</g>
<g transform="matrix(4.17 0 0 4.17 177.08 191.67)" id="Layer_1"  >
<path style="stroke: none; stroke-width: 1; stroke-dasharray: none; stroke-linecap: butt; stroke-dashoffset: 0; stroke-linejoin: miter; stroke-miterlimit: 4; fill: rgb(139,195,74); fill-rule: nonzero; opacity: 1;"  transform=" translate(-18.5, -22)" d="M 23 38 h -9 l 3.2 -29.4 C 17.4 7.1 18.6 6 20.1 6 l 0 0 c 1.5 0 2.8 1.1 2.9 2.6 L 23 38 z" stroke-linecap="round" />
</g>
<g transform="matrix(4.17 0 0 4.17 177.92 191.25)" id="Layer_1"  >
<path style="stroke: none; stroke-width: 1; stroke-dasharray: none; stroke-linecap: butt; stroke-dashoffset: 0; stroke-linejoin: miter; stroke-miterlimit: 4; fill: rgb(220,237,200); fill-rule: nonzero; opacity: 1;"  transform=" translate(-18.7, -21.9)" d="M 17.4 36 C 17.4 36 17.4 36 17.4 36 c -0.6 -0.1 -1 -0.5 -1 -1.1 l 1.6 -17 c 0.1 -0.5 0.5 -1 1.1 -0.9 c 0.5 0.1 1 0.5 0.9 1.1 l -1.6 17 C 18.4 35.6 17.9 36 17.4 36 z M 19.6 14 c 0 0 -0.1 0 -0.1 0 c -0.5 -0.1 -0.9 -0.6 -0.9 -1.1 L 19 8.7 c 0.1 -0.5 0.6 -0.9 1.1 -0.9 c 0.5 0.1 0.9 0.6 0.9 1.1 l -0.4 4.2 C 20.5 13.6 20.1 14 19.6 14 z" stroke-linecap="round" />
</g>
<g transform="matrix(4.17 0 0 4.17 222.92 191.67)" id="Layer_1"  >
<path style="stroke: none; stroke-width: 1; stroke-dasharray: none; stroke-linecap: butt; stroke-dashoffset: 0; stroke-linejoin: miter; stroke-miterlimit: 4; fill: rgb(139,195,74); fill-rule: nonzero; opacity: 1;"  transform=" translate(-29.5, -22)" d="M 34 38 h -9 l 0 -29.4 C 25.2 7.1 26.4 6 27.9 6 l 0 0 c 1.5 0 2.8 1.1 2.9 2.6 L 34 38 z" stroke-linecap="round" />
</g>
<g transform="matrix(4.17 0 0 4.17 200 266.67)" id="Layer_1"  >
<path style="stroke: none; stroke-width: 1; stroke-dasharray: none; stroke-linecap: butt; stroke-dashoffset: 0; stroke-linejoin: miter; stroke-miterlimit: 4; fill: rgb(144,202,249); fill-rule: nonzero; opacity: 1;"  transform=" translate(-24, -40)" d="M 1 38 c 0 0 0 4 8 4 c 4 0 22 0 30 0 s 8 -4 8 -4 H 1" stroke-linecap="round" />
</g>
<g transform="matrix(4.17 0 0 4.17 227.06 241.64)" id="Layer_1"  >
<path style="stroke: none; stroke-width: 1; stroke-dasharray: none; stroke-linecap: butt; stroke-dashoffset: 0; stroke-linejoin: miter; stroke-miterlimit: 4; fill: rgb(220,237,200); fill-rule: nonzero; opacity: 1;"  transform=" translate(-30.49, -33.99)" d="M 30.6 36 c -0.5 0 -0.9 -0.4 -1 -0.9 l -0.2 -2 c -0.1 -0.5 0.4 -1 0.9 -1.1 c 0.6 -0.1 1 0.4 1.1 0.9 l 0.2 2 C 31.6 35.5 31.2 35.9 30.6 36 C 30.6 36 30.6 36 30.6 36 z" stroke-linecap="round" />
</g>
<g transform="matrix(4.17 0 0 4.17 223.96 210.42)" id="Layer_1"  >
<path style="stroke: none; stroke-width: 1; stroke-dasharray: none; stroke-linecap: butt; stroke-dashoffset: 0; stroke-linejoin: miter; stroke-miterlimit: 4; fill: rgb(220,237,200); fill-rule: nonzero; opacity: 1;"  transform=" translate(-29.75, -26.5)" d="M 30 30 c -0.5 0 -0.9 -0.4 -1 -0.9 l -0.5 -5 c -0.1 -0.5 0.4 -1 0.9 -1.1 c 0.5 0 1 0.4 1.1 0.9 l 0.5 5 C 31.1 29.5 30.7 29.9 30 30 C 30.1 30 30 30 30 30 z" stroke-linecap="round" />
</g>
</svg>