<?xml version="1.0" encoding="UTF-8" standalone="no" ?>
<!DOCTYPE svg PUBLIC "-//W3C//DTD SVG 1.1//EN" "http://www.w3.org/Graphics/SVG/1.1/DTD/svg11.dtd">
<svg xmlns="http://www.w3.org/2000/svg" xmlns:xlink="http://www.w3.org/1999/xlink" version="1.1" width="400" height="400" viewBox="0 0 400 400" xml:space="preserve">
<desc>Created with Fabric.js 3.6.2</desc>
<defs>
</defs>
<g transform="matrix(4.17 0 0 4.17 200 250)" id="surface1"  >
<path style="stroke: none; stroke-width: 1; stroke-dasharray: none; stroke-linecap: butt; stroke-dashoffset: 0; stroke-linejoin: miter; stroke-miterlimit: 4; fill: rgb(121,85,72); fill-rule: nonzero; opacity: 1;"  transform=" translate(-24, -36)" d="M 19 36 c 0 3.9 3 7 5 7 s 5 -3.1 5 -7 s -1 -7 -5 -7 S 19 32.1 19 36 z" stroke-linecap="round" />
</g>
<g transform="matrix(4.17 0 0 4.17 200 202.08)" id="surface1"  >
<path style="stroke: none; stroke-width: 1; stroke-dasharray: none; stroke-linecap: butt; stroke-dashoffset: 0; stroke-linejoin: miter; stroke-miterlimit: 4; fill: rgb(121,85,72); fill-rule: nonzero; opacity: 1;"  transform=" translate(-24, -24.5)" d="M 21 21 c 0 1.7 1 10 3 10 s 3 -8.3 3 -10 s -1.3 -3 -3 -3 S 21 19.3 21 21 z" stroke-linecap="round" />
</g>
<g transform="matrix(4.17 0 0 4.17 200 146.66)" id="surface1"  >
<path style="stroke: none; stroke-width: 1; stroke-dasharray: none; stroke-linecap: butt; stroke-dashoffset: 0; stroke-linejoin: miter; stroke-miterlimit: 4; fill: rgb(121,85,72); fill-rule: nonzero; opacity: 1;"  transform=" translate(-24, -11.2)" d="M 29 13 c 0 5 -3 3 -5 3 s -5 2 -5 -3 c 0 -2.8 2 -7 5 -7 S 29 10.2 29 13 z" stroke-linecap="round" />
</g>
<g transform="matrix(4.17 0 0 4.17 163.24 166.21)" id="surface1"  >
<path style="stroke: none; stroke-width: 1; stroke-dasharray: none; stroke-linecap: butt; stroke-dashoffset: 0; stroke-linejoin: miter; stroke-miterlimit: 4; fill: rgb(93,64,55); fill-rule: nonzero; opacity: 1;"  transform=" translate(-15.18, -15.89)" d="M 14.3 18.8 l 6.7 3 c 0 -0.3 0 -0.6 0 -0.8 c 0 -0.5 0.1 -0.9 0.3 -1.3 l -5.6 -2.5 l -4.8 -6.8 c -0.3 -0.4 -0.9 -0.6 -1.4 -0.2 c -0.5 0.3 -0.6 0.9 -0.2 1.4 L 14.3 18.8 z" stroke-linecap="round" />
</g>
<g transform="matrix(4.17 0 0 4.17 237.45 166.3)" id="surface1"  >
<path style="stroke: none; stroke-width: 1; stroke-dasharray: none; stroke-linecap: butt; stroke-dashoffset: 0; stroke-linejoin: miter; stroke-miterlimit: 4; fill: rgb(93,64,55); fill-rule: nonzero; opacity: 1;"  transform=" translate(-32.99, -15.91)" d="M 27 21 c 0 0.2 0 0.5 0 0.8 l 6.7 -3 l 5.2 -7.2 c 0.3 -0.4 0.2 -1.1 -0.2 -1.4 c -0.4 -0.3 -1.1 -0.2 -1.4 0.2 l -4.8 6.8 l -5.6 2.5 C 26.9 20.1 27 20.5 27 21 z" stroke-linecap="round" />
</g>
<g transform="matrix(4.17 0 0 4.17 161.71 197.96)" id="surface1"  >
<path style="stroke: none; stroke-width: 1; stroke-dasharray: none; stroke-linecap: butt; stroke-dashoffset: 0; stroke-linejoin: miter; stroke-miterlimit: 4; fill: rgb(93,64,55); fill-rule: nonzero; opacity: 1;"  transform=" translate(-14.81, -23.51)" d="M 21.6 26 c -0.1 -0.7 -0.2 -1.4 -0.3 -2 h -6.1 l -5.8 -2.9 c -0.5 -0.2 -1.1 0 -1.3 0.4 c -0.2 0.5 0 1.1 0.4 1.3 l 6.2 3.1 H 21.6 z" stroke-linecap="round" />
</g>
<g transform="matrix(4.17 0 0 4.17 238.29 198.04)" id="surface1"  >
<path style="stroke: none; stroke-width: 1; stroke-dasharray: none; stroke-linecap: butt; stroke-dashoffset: 0; stroke-linejoin: miter; stroke-miterlimit: 4; fill: rgb(93,64,55); fill-rule: nonzero; opacity: 1;"  transform=" translate(-33.19, -23.53)" d="M 39.9 21.6 c -0.2 -0.5 -0.8 -0.7 -1.3 -0.4 L 32.8 24 h -6.1 c -0.1 0.6 -0.2 1.3 -0.3 2 h 6.9 l 6.2 -3.1 C 39.9 22.6 40.1 22 39.9 21.6 z" stroke-linecap="round" />
</g>
<g transform="matrix(4.17 0 0 4.17 165.67 240.83)" id="surface1"  >
<path style="stroke: none; stroke-width: 1; stroke-dasharray: none; stroke-linecap: butt; stroke-dashoffset: 0; stroke-linejoin: miter; stroke-miterlimit: 4; fill: rgb(93,64,55); fill-rule: nonzero; opacity: 1;"  transform=" translate(-15.76, -33.8)" d="M 22.5 29.2 c -0.2 -0.5 -0.4 -1 -0.5 -1.6 l -8.7 2.6 l -4.2 8.4 c -0.2 0.5 0 1.1 0.4 1.3 C 9.7 40 9.8 40 10 40 c 0.4 0 0.7 -0.2 0.9 -0.6 l 3.8 -7.6 l 6.3 -1.9 C 21.4 29.6 21.9 29.3 22.5 29.2 z" stroke-linecap="round" />
</g>
<g transform="matrix(4.17 0 0 4.17 234.25 241.04)" id="surface1"  >
<path style="stroke: none; stroke-width: 1; stroke-dasharray: none; stroke-linecap: butt; stroke-dashoffset: 0; stroke-linejoin: miter; stroke-miterlimit: 4; fill: rgb(93,64,55); fill-rule: nonzero; opacity: 1;"  transform=" translate(-32.22, -33.85)" d="M 34.7 30.2 L 26 27.6 c -0.2 0.6 -0.3 1.1 -0.5 1.6 c 0.6 0.2 1.1 0.4 1.5 0.8 l 6.3 1.9 l 3.8 7.6 c 0.2 0.4 0.5 0.6 0.9 0.6 c 0.2 0 0.3 0 0.4 -0.1 c 0.5 -0.2 0.7 -0.8 0.4 -1.3 L 34.7 30.2 z" stroke-linecap="round" />
</g>
<g transform="matrix(4.17 0 0 4.17 229.17 129.17)" id="surface1"  >
<path style="stroke: none; stroke-width: 1; stroke-dasharray: none; stroke-linecap: butt; stroke-dashoffset: 0; stroke-linejoin: miter; stroke-miterlimit: 4; fill: rgb(93,64,55); fill-rule: nonzero; opacity: 1;"  transform=" translate(-31, -7)" d="M 32.4 10 H 26 c -0.6 0 -1 -0.4 -1 -1 s 0.4 -1 1 -1 h 5.6 l 3.7 -3.7 c 0.4 -0.4 1 -0.4 1.4 0 s 0.4 1 0 1.4 L 32.4 10 z" stroke-linecap="round" />
</g>
<g transform="matrix(4.17 0 0 4.17 170.83 129.17)" id="surface1"  >
<path style="stroke: none; stroke-width: 1; stroke-dasharray: none; stroke-linecap: butt; stroke-dashoffset: 0; stroke-linejoin: miter; stroke-miterlimit: 4; fill: rgb(93,64,55); fill-rule: nonzero; opacity: 1;"  transform=" translate(-17, -7)" d="M 22 10 h -6.4 l -4.3 -4.3 c -0.4 -0.4 -0.4 -1 0 -1.4 s 1 -0.4 1.4 0 L 16.4 8 H 22 c 0.6 0 1 0.4 1 1 S 22.6 10 22 10 z" stroke-linecap="round" />
</g>
<g transform="matrix(4.17 0 0 4.17 200 225)" id="surface1"  >
<path style="stroke: none; stroke-width: 1; stroke-dasharray: none; stroke-linecap: butt; stroke-dashoffset: 0; stroke-linejoin: miter; stroke-miterlimit: 4; fill: rgb(78,52,46); fill-rule: nonzero; opacity: 1;"  transform=" translate(-24, -30)" d="M 20.7 30.2 c 1 0.5 2.1 0.8 3.3 0.8 s 2.3 -0.3 3.3 -0.8 C 26.6 29.4 25.5 29 24 29 S 21.4 29.4 20.7 30.2 z" stroke-linecap="round" />
</g>
<g transform="matrix(4.17 0 0 4.17 200 239.17)" id="surface1"  >
<path style="stroke: none; stroke-width: 1; stroke-dasharray: none; stroke-linecap: butt; stroke-dashoffset: 0; stroke-linejoin: miter; stroke-miterlimit: 4; fill: rgb(78,52,46); fill-rule: nonzero; opacity: 1;"  transform=" translate(-24, -33.4)" d="M 24 35 c 1.7 0 3.4 -0.4 4.9 -1.2 c -0.1 -0.7 -0.3 -1.4 -0.5 -2 l -0.1 0.1 C 27 32.6 25.5 33 24 33 c -1.5 0 -3 -0.4 -4.3 -1.1 l -0.1 -0.1 c -0.2 0.6 -0.4 1.3 -0.5 2 C 20.6 34.6 22.3 35 24 35 z" stroke-linecap="round" />
</g>
<g transform="matrix(4.17 0 0 4.17 200 256.25)" id="surface1"  >
<path style="stroke: none; stroke-width: 1; stroke-dasharray: none; stroke-linecap: butt; stroke-dashoffset: 0; stroke-linejoin: miter; stroke-miterlimit: 4; fill: rgb(78,52,46); fill-rule: nonzero; opacity: 1;"  transform=" translate(-24, -37.5)" d="M 24 37 c -1.7 0 -3.4 -0.4 -5 -1 c 0 0 0 0 0 0 c 0 0.8 0.1 1.5 0.3 2.2 c 1.5 0.5 3.1 0.8 4.7 0.8 s 3.1 -0.3 4.7 -0.8 c 0.2 -0.7 0.3 -1.4 0.3 -2.2 c 0 0 0 0 0 0 C 27.4 36.6 25.7 37 24 37 z" stroke-linecap="round" />
</g>
<g transform="matrix(4.17 0 0 4.17 201.46 271.88)" id="surface1"  >
<path style="stroke: none; stroke-width: 1; stroke-dasharray: none; stroke-linecap: butt; stroke-dashoffset: 0; stroke-linejoin: miter; stroke-miterlimit: 4; fill: rgb(78,52,46); fill-rule: nonzero; opacity: 1;"  transform=" translate(-24.35, -41.25)" d="M 28.2 39.5 c -0.2 0.4 -0.4 0.8 -0.7 1.1 C 26.3 40.9 25.2 41 24 41 s -2.3 -0.1 -3.5 -0.4 c 1 1.5 2.4 2.4 3.5 2.4 C 25.3 43 27.1 41.6 28.2 39.5 z" stroke-linecap="round" />
</g>
<g transform="matrix(4.17 0 0 4.17 200 180)" id="surface1"  >
<path style="stroke: none; stroke-width: 1; stroke-dasharray: none; stroke-linecap: butt; stroke-dashoffset: 0; stroke-linejoin: miter; stroke-miterlimit: 4; fill: rgb(78,52,46); fill-rule: nonzero; opacity: 1;"  transform=" translate(-24, -19.2)" d="M 24 18 c -1.4 0 -2.7 1 -2.9 2.4 c 0 0 0 0 0 0 c 0.7 0 1.3 -0.1 1.9 -0.2 c 0.4 -0.1 0.8 -0.2 1 -0.2 s 0.6 0.1 1 0.2 c 0.6 0.1 1.2 0.2 1.9 0.2 c 0 0 0 0 0 0 C 26.7 19 25.4 18 24 18 z" stroke-linecap="round" />
</g>
<g transform="matrix(4.17 0 0 4.17 200 172.92)" id="surface1"  >
<path style="stroke: none; stroke-width: 1; stroke-dasharray: none; stroke-linecap: butt; stroke-dashoffset: 0; stroke-linejoin: miter; stroke-miterlimit: 4; fill: rgb(78,52,46); fill-rule: nonzero; opacity: 1;"  transform=" translate(-24, -17.5)" d="M 24 16 c -0.3 0 -0.7 0.1 -1 0.1 V 19 h 2 v -2.9 C 24.7 16.1 24.3 16 24 16 z" stroke-linecap="round" />
</g>
<g transform="matrix(4.17 0 0 4.17 210.42 125)" id="surface1"  >
<path style="stroke: none; stroke-width: 1; stroke-dasharray: none; stroke-linecap: butt; stroke-dashoffset: 0; stroke-linejoin: miter; stroke-miterlimit: 4; fill: rgb(78,52,46); fill-rule: nonzero; opacity: 1;"  transform=" translate(-26.5, -6)" d="M 26.1 5.9 c 0 0.3 0.1 0.6 0.1 0.9 C 26.6 7.1 27 7.5 27.3 8 L 28 8 c -0.1 -0.5 -0.2 -0.9 -0.4 -1.3 c -0.2 -0.4 -0.4 -0.8 -0.6 -1.2 c -0.5 -0.7 -1.2 -1.3 -2 -1.5 C 25.6 4.5 25.9 5.2 26.1 5.9 z" stroke-linecap="round" />
</g>
<g transform="matrix(4.17 0 0 4.17 189.58 125)" id="surface1"  >
<path style="stroke: none; stroke-width: 1; stroke-dasharray: none; stroke-linecap: butt; stroke-dashoffset: 0; stroke-linejoin: miter; stroke-miterlimit: 4; fill: rgb(78,52,46); fill-rule: nonzero; opacity: 1;"  transform=" translate(-21.5, -6)" d="M 21.9 6.8 c 0 -0.3 0 -0.6 0.1 -0.9 C 22.1 5.2 22.4 4.5 23 4 c -0.8 0.2 -1.5 0.8 -2 1.5 c -0.2 0.4 -0.5 0.8 -0.6 1.2 C 20.2 7.1 20.1 7.5 20 8 l 0.7 0 C 21 7.5 21.4 7.1 21.9 6.8 z" stroke-linecap="round" />
</g>
<g transform="matrix(4.17 0 0 4.17 187.5 150)" id="surface1"  >
<path style="stroke: none; stroke-width: 1; stroke-dasharray: none; stroke-linecap: butt; stroke-dashoffset: 0; stroke-linejoin: miter; stroke-miterlimit: 4; fill: rgb(0,0,0); fill-rule: nonzero; opacity: 1;"  transform=" translate(-21, -12)" d="M 22 12 c 0 0.6 -0.4 1 -1 1 s -1 -0.4 -1 -1 s 0.4 -1 1 -1 S 22 11.4 22 12 z" stroke-linecap="round" />
</g>
<g transform="matrix(4.17 0 0 4.17 212.5 150)" id="surface1"  >
<path style="stroke: none; stroke-width: 1; stroke-dasharray: none; stroke-linecap: butt; stroke-dashoffset: 0; stroke-linejoin: miter; stroke-miterlimit: 4; fill: rgb(0,0,0); fill-rule: nonzero; opacity: 1;"  transform=" translate(-27, -12)" d="M 28 12 c 0 0.6 -0.4 1 -1 1 s -1 -0.4 -1 -1 s 0.4 -1 1 -1 S 28 11.4 28 12 z" stroke-linecap="round" />
</g>
</svg>