<?xml version="1.0" encoding="UTF-8" standalone="no" ?>
<!DOCTYPE svg PUBLIC "-//W3C//DTD SVG 1.1//EN" "http://www.w3.org/Graphics/SVG/1.1/DTD/svg11.dtd">
<svg xmlns="http://www.w3.org/2000/svg" xmlns:xlink="http://www.w3.org/1999/xlink" version="1.1" width="400" height="400" viewBox="0 0 400 400" xml:space="preserve">
<desc>Created with Fabric.js 3.6.2</desc>
<defs>
</defs>
<g transform="matrix(4.17 0 0 4.17 200 220.83)" id="Layer_1"  >
<path style="stroke: none; stroke-width: 1; stroke-dasharray: none; stroke-linecap: butt; stroke-dashoffset: 0; stroke-linejoin: miter; stroke-miterlimit: 4; fill: rgb(236,64,122); fill-rule: nonzero; opacity: 1;"  transform=" translate(-24, -29)" d="M 34 43 H 14 c -2.2 0 -4 -1.8 -4 -4 V 15 h 28 v 24 C 38 41.2 36.2 43 34 43 z" stroke-linecap="round" />
</g>
<g transform="matrix(4.17 0 0 4.17 200 262.5)" id="Layer_1"  >
<path style="stroke: none; stroke-width: 1; stroke-dasharray: none; stroke-linecap: butt; stroke-dashoffset: 0; stroke-linejoin: miter; stroke-miterlimit: 4; fill: rgb(194,24,91); fill-rule: nonzero; opacity: 1;"  transform=" translate(-24, -39)" d="M 33.5 43 h -19 C 12 43 10 41 10 38.5 l 0 0 c 0 -2.5 0 -3.5 0 -3.5 h 28 c 0 0 0 1 0 3.5 l 0 0 C 38 41 36 43 33.5 43 z" stroke-linecap="round" />
</g>
<g transform="matrix(4.17 0 0 4.17 154.17 237.5)" id="Layer_1"  >
<circle style="stroke: none; stroke-width: 1; stroke-dasharray: none; stroke-linecap: butt; stroke-dashoffset: 0; stroke-linejoin: miter; stroke-miterlimit: 4; fill: rgb(194,24,91); fill-rule: nonzero; opacity: 1;"  cx="0" cy="0" r="3" />
</g>
<g transform="matrix(4.17 0 0 4.17 170.83 250)" id="Layer_1"  >
<circle style="stroke: none; stroke-width: 1; stroke-dasharray: none; stroke-linecap: butt; stroke-dashoffset: 0; stroke-linejoin: miter; stroke-miterlimit: 4; fill: rgb(194,24,91); fill-rule: nonzero; opacity: 1;"  cx="0" cy="0" r="3" />
</g>
<g transform="matrix(4.17 0 0 4.17 193.75 243.75)" id="Layer_1"  >
<circle style="stroke: none; stroke-width: 1; stroke-dasharray: none; stroke-linecap: butt; stroke-dashoffset: 0; stroke-linejoin: miter; stroke-miterlimit: 4; fill: rgb(194,24,91); fill-rule: nonzero; opacity: 1;"  cx="0" cy="0" r="3.5" />
</g>
<g transform="matrix(4.17 0 0 4.17 208.33 250)" id="Layer_1"  >
<circle style="stroke: none; stroke-width: 1; stroke-dasharray: none; stroke-linecap: butt; stroke-dashoffset: 0; stroke-linejoin: miter; stroke-miterlimit: 4; fill: rgb(194,24,91); fill-rule: nonzero; opacity: 1;"  cx="0" cy="0" r="2" />
</g>
<g transform="matrix(4.17 0 0 4.17 233.33 200)" id="Layer_1"  >
<circle style="stroke: none; stroke-width: 1; stroke-dasharray: none; stroke-linecap: butt; stroke-dashoffset: 0; stroke-linejoin: miter; stroke-miterlimit: 4; fill: rgb(194,24,91); fill-rule: nonzero; opacity: 1;"  cx="0" cy="0" r="2" />
</g>
<g transform="matrix(4.17 0 0 4.17 189.58 206.25)" id="Layer_1"  >
<circle style="stroke: none; stroke-width: 1; stroke-dasharray: none; stroke-linecap: butt; stroke-dashoffset: 0; stroke-linejoin: miter; stroke-miterlimit: 4; fill: rgb(194,24,91); fill-rule: nonzero; opacity: 1;"  cx="0" cy="0" r="1.5" />
</g>
<g transform="matrix(4.17 0 0 4.17 214.58 214.58)" id="Layer_1"  >
<circle style="stroke: none; stroke-width: 1; stroke-dasharray: none; stroke-linecap: butt; stroke-dashoffset: 0; stroke-linejoin: miter; stroke-miterlimit: 4; fill: rgb(194,24,91); fill-rule: nonzero; opacity: 1;"  cx="0" cy="0" r="1.5" />
</g>
<g transform="matrix(4.17 0 0 4.17 222.92 247.92)" id="Layer_1"  >
<circle style="stroke: none; stroke-width: 1; stroke-dasharray: none; stroke-linecap: butt; stroke-dashoffset: 0; stroke-linejoin: miter; stroke-miterlimit: 4; fill: rgb(194,24,91); fill-rule: nonzero; opacity: 1;"  cx="0" cy="0" r="2.5" />
</g>
<g transform="matrix(4.17 0 0 4.17 241.67 245.83)" id="Layer_1"  >
<circle style="stroke: none; stroke-width: 1; stroke-dasharray: none; stroke-linecap: butt; stroke-dashoffset: 0; stroke-linejoin: miter; stroke-miterlimit: 4; fill: rgb(194,24,91); fill-rule: nonzero; opacity: 1;"  cx="0" cy="0" r="4" />
</g>
<g transform="matrix(4.17 0 0 4.17 200 179.17)" id="Layer_1"  >
<path style="stroke: none; stroke-width: 1; stroke-dasharray: none; stroke-linecap: butt; stroke-dashoffset: 0; stroke-linejoin: miter; stroke-miterlimit: 4; fill: rgb(216,27,96); fill-rule: nonzero; opacity: 1;"  transform=" translate(-24, -19)" d="M 37 19 C 37 19 37 19 37 19 c -3.2 0 -6 -1.3 -6 -3 c 0 2.2 -3 4 -7 4 c -4 0 -7 -1.8 -7 -4 c 0 1.7 -2.8 3 -6 3 c 0 0 0 0 0 0 v 2 c 0 0 0 0 0 0 c 2 0 4.1 -0.5 5.6 -1.4 c 1.6 1.5 4.2 2.4 7.3 2.4 s 5.7 -0.9 7.3 -2.4 c 1.5 0.9 3.6 1.4 5.6 1.4 c 0 0 0 0 0 0 V 19 z" stroke-linecap="round" />
</g>
<g transform="matrix(4.17 0 0 4.17 200 220.83)" id="Layer_1"  >
<path style="stroke: none; stroke-width: 1; stroke-dasharray: none; stroke-linecap: butt; stroke-dashoffset: 0; stroke-linejoin: miter; stroke-miterlimit: 4; fill: rgb(144,202,249); fill-rule: nonzero; opacity: 1;"  transform=" translate(-24, -29)" d="M 34 44 H 14 c -2.8 0 -5 -2.2 -5 -5 V 14 h 30 v 25 C 39 41.8 36.8 44 34 44 z M 11 16 v 23 c 0 1.7 1.3 3 3 3 h 20 c 1.7 0 3 -1.3 3 -3 V 16 H 11 z" stroke-linecap="round" />
</g>
<g transform="matrix(4.17 0 0 4.17 200 164.58)" id="Layer_1"  >
<path style="stroke: none; stroke-width: 1; stroke-dasharray: none; stroke-linecap: butt; stroke-dashoffset: 0; stroke-linejoin: miter; stroke-miterlimit: 4; fill: rgb(255,224,178); fill-rule: nonzero; opacity: 1;"  transform=" translate(-24, -15.5)" d="M 17 16 c 0 2.2 3 4 7 4 s 7 -1.8 7 -4 c 0 1.7 2.8 3 6 3 c 1.6 0 3 -0.3 4 -0.9 c 1.2 -0.7 1.3 -2.4 0.2 -3.2 L 37 11 H 11 l -4.2 3.9 c -1.1 0.9 -1 2.6 0.2 3.2 c 1 0.5 2.5 0.9 4 0.9 C 14.2 19 17 17.7 17 16 z" stroke-linecap="round" />
</g>
<g transform="matrix(4.17 0 0 4.17 258.33 182.92)" id="Layer_1"  >
<path style="stroke: none; stroke-width: 1; stroke-dasharray: none; stroke-linecap: butt; stroke-dashoffset: 0; stroke-linejoin: miter; stroke-miterlimit: 4; fill: rgb(100,181,246); fill-rule: nonzero; opacity: 1;"  transform=" translate(-38, -19.9)" d="M 37 19 v 2 c 0.7 0 1.4 -0.1 2 -0.2 v -2 C 38.4 18.9 37.7 19 37 19 z" stroke-linecap="round" />
</g>
<g transform="matrix(4.17 0 0 4.17 141.67 182.92)" id="Layer_1"  >
<path style="stroke: none; stroke-width: 1; stroke-dasharray: none; stroke-linecap: butt; stroke-dashoffset: 0; stroke-linejoin: miter; stroke-miterlimit: 4; fill: rgb(100,181,246); fill-rule: nonzero; opacity: 1;"  transform=" translate(-10, -19.9)" d="M 11 19 c -0.7 0 -1.4 -0.1 -2 -0.2 v 2 c 0.6 0.1 1.3 0.2 2 0.2 V 19 z" stroke-linecap="round" />
</g>
<g transform="matrix(4.17 0 0 4.17 200 141.67)" id="Layer_1"  >
<path style="stroke: none; stroke-width: 1; stroke-dasharray: none; stroke-linecap: butt; stroke-dashoffset: 0; stroke-linejoin: miter; stroke-miterlimit: 4; fill: rgb(141,110,99); fill-rule: nonzero; opacity: 1;"  transform=" translate(-24, -10)" d="M 37 11 H 11 c -0.6 0 -1 -0.4 -1 -1 s 0.4 -1 1 -1 h 26 c 0.6 0 1 0.4 1 1 S 37.6 11 37 11 z" stroke-linecap="round" />
</g>
<g transform="matrix(4.17 0 0 4.17 247.71 154.21)" id="Layer_1"  >
<path style="stroke: none; stroke-width: 1; stroke-dasharray: none; stroke-linecap: butt; stroke-dashoffset: 0; stroke-linejoin: miter; stroke-miterlimit: 4; fill: rgb(161,136,127); fill-rule: nonzero; opacity: 1;"  transform=" translate(-35.45, -13.01)" d="M 37 17 c -0.4 0 -0.7 -0.2 -0.9 -0.6 l -3 -6 c -0.2 -0.5 0 -1.1 0.4 -1.3 c 0.5 -0.2 1.1 0 1.3 0.4 l 3 6 c 0.2 0.5 0 1.1 -0.4 1.3 C 37.3 17 37.2 17 37 17 z" stroke-linecap="round" />
</g>
<g transform="matrix(4.17 0 0 4.17 239.79 150.1)" id="Layer_1"  >
<path style="stroke: none; stroke-width: 1; stroke-dasharray: none; stroke-linecap: butt; stroke-dashoffset: 0; stroke-linejoin: miter; stroke-miterlimit: 4; fill: rgb(161,136,127); fill-rule: nonzero; opacity: 1;"  transform=" translate(-33.55, -12.02)" d="M 33 15 c -0.1 0 -0.2 0 -0.2 0 c -0.5 -0.1 -0.9 -0.7 -0.7 -1.2 l 1 -4 c 0.1 -0.5 0.7 -0.9 1.2 -0.7 c 0.5 0.1 0.9 0.7 0.7 1.2 l -1 4 C 33.9 14.7 33.4 15 33 15 z" stroke-linecap="round" />
</g>
<g transform="matrix(4.17 0 0 4.17 200 127.08)" id="Layer_1"  >
<path style="stroke: none; stroke-width: 1; stroke-dasharray: none; stroke-linecap: butt; stroke-dashoffset: 0; stroke-linejoin: miter; stroke-miterlimit: 4; fill: rgb(255,209,128); fill-rule: nonzero; opacity: 1;"  transform=" translate(-24, -6.5)" d="M 37 9 H 11 c -0.6 0 -1 -0.4 -1 -1 V 5 c 0 -0.6 0.4 -1 1 -1 h 26 c 0.6 0 1 0.4 1 1 v 3 C 38 8.6 37.6 9 37 9 z" stroke-linecap="round" />
</g>
</svg>