<?xml version="1.0" encoding="UTF-8" standalone="no" ?>
<!DOCTYPE svg PUBLIC "-//W3C//DTD SVG 1.1//EN" "http://www.w3.org/Graphics/SVG/1.1/DTD/svg11.dtd">
<svg xmlns="http://www.w3.org/2000/svg" xmlns:xlink="http://www.w3.org/1999/xlink" version="1.1" width="400" height="400" viewBox="0 0 400 400" xml:space="preserve">
<desc>Created with Fabric.js 3.6.2</desc>
<defs>
</defs>
<g transform="matrix(4.17 0 0 4.17 154.72 245.28)" id="surface1"  >
<path style="stroke: none; stroke-width: 1; stroke-dasharray: none; stroke-linecap: butt; stroke-dashoffset: 0; stroke-linejoin: miter; stroke-miterlimit: 4; fill: rgb(176,190,197); fill-rule: nonzero; opacity: 1;"  transform=" translate(-13.13, -34.87)" d="M 8.535156 42.292969 L 5 43 L 5.707031 39.464844 L 18.433594 26.734375 L 21.265625 29.566406 Z" stroke-linecap="round" />
</g>
<g transform="matrix(4.17 0 0 4.17 212.07 188.18)" id="surface1"  >
<path style="stroke: none; stroke-width: 1; stroke-dasharray: none; stroke-linecap: butt; stroke-dashoffset: 0; stroke-linejoin: miter; stroke-miterlimit: 4; fill: rgb(85,139,47); fill-rule: nonzero; opacity: 1;"  transform=" translate(-26.9, -21.16)" d="M 26.542969 8.082031 C 26.542969 8.082031 22.917969 15.066406 20.917969 19.761719 L 13.816406 22.226563 L 25.835938 34.246094 L 28.300781 27.140625 C 32.730469 25.054688 39.976563 21.519531 39.976563 21.519531 Z" stroke-linecap="round" />
</g>
<g transform="matrix(4.17 0 0 4.17 212.5 187.5)" id="surface1"  >
<path style="stroke: none; stroke-width: 1; stroke-dasharray: none; stroke-linecap: butt; stroke-dashoffset: 0; stroke-linejoin: miter; stroke-miterlimit: 4; fill: rgb(124,179,66); fill-rule: nonzero; opacity: 1;"  transform=" translate(-27, -21)" d="M 43 22 L 41.585938 23.414063 C 40.804688 24.195313 39.539063 24.195313 38.757813 23.414063 L 24.585938 9.242188 C 23.804688 8.460938 23.804688 7.195313 24.585938 6.414063 L 26 5 Z M 25 37 L 26.414063 35.585938 C 27.195313 34.804688 27.195313 33.539063 26.414063 32.757813 L 15.242188 21.585938 C 14.460938 20.804688 13.195313 20.804688 12.414063 21.585938 L 11 23 Z" stroke-linecap="round" />
</g>
</svg>