<?xml version="1.0" encoding="UTF-8" standalone="no" ?>
<!DOCTYPE svg PUBLIC "-//W3C//DTD SVG 1.1//EN" "http://www.w3.org/Graphics/SVG/1.1/DTD/svg11.dtd">
<svg xmlns="http://www.w3.org/2000/svg" xmlns:xlink="http://www.w3.org/1999/xlink" version="1.1" width="400" height="400" viewBox="0 0 400 400" xml:space="preserve">
<desc>Created with Fabric.js 3.6.2</desc>
<defs>
</defs>
<g transform="matrix(4.17 0 0 4.17 209.72 191.01)" id="surface1"  >
<path style="stroke: none; stroke-width: 1; stroke-dasharray: none; stroke-linecap: butt; stroke-dashoffset: 0; stroke-linejoin: miter; stroke-miterlimit: 4; fill: rgb(144,164,174); fill-rule: nonzero; opacity: 1;"  transform=" translate(-26.33, -21.84)" d="M 19.085938 37.683594 L 18.941406 34.949219 L 21.96875 34.785156 L 21.804688 31.71875 L 24.828125 31.554688 L 24.664063 28.484375 L 27.691406 28.320313 L 27.527344 25.253906 L 30.550781 25.089844 L 30.390625 22.023438 L 33.414063 21.859375 L 33.25 18.792969 L 36.273438 18.628906 L 36.113281 15.5625 L 39.136719 15.398438 L 38.976563 12.332031 L 41.996094 12.164063 L 42 12.203125 L 41.894531 9.195313 L 39.304688 6 L 10.664063 27.03125 L 16.84375 35.464844 Z" stroke-linecap="round" />
</g>
<g transform="matrix(4.17 0 0 4.17 222.22 195.43)" id="surface1"  >
<path style="stroke: none; stroke-width: 1; stroke-dasharray: none; stroke-linecap: butt; stroke-dashoffset: 0; stroke-linejoin: miter; stroke-miterlimit: 4; fill: rgb(84,110,122); fill-rule: nonzero; opacity: 1;"  transform=" translate(-29.33, -22.9)" d="M 21.804688 31.71875 L 24.828125 31.554688 L 24.664063 28.484375 L 27.691406 28.320313 L 27.527344 25.253906 L 30.550781 25.089844 L 30.390625 22.023438 L 33.414063 21.859375 L 33.25 18.792969 L 36.273438 18.628906 L 36.113281 15.5625 L 39.136719 15.398438 L 38.976563 12.332031 L 41.996094 12.164063 L 42 12.203125 L 41.894531 9.195313 L 41.023438 8.121094 L 16.664063 35.226563 L 16.84375 35.464844 L 19.085938 37.683594 L 18.941406 34.949219 L 21.96875 34.785156 Z" stroke-linecap="round" />
</g>
<g transform="matrix(4.17 0 0 4.17 156.82 235.14)" id="surface1"  >
<path style="stroke: none; stroke-width: 1; stroke-dasharray: none; stroke-linecap: butt; stroke-dashoffset: 0; stroke-linejoin: miter; stroke-miterlimit: 4; fill: rgb(255,193,7); fill-rule: nonzero; opacity: 1;"  transform=" translate(-13.64, -32.43)" d="M 14.992188 23.863281 L 8.328125 28.75 C 8.328125 28.75 5.871094 30.546875 7.640625 33.035156 C 8.703125 34.53125 10.59375 37.1875 12.363281 39.679688 C 14.136719 42.171875 16.59375 40.375 16.59375 40.375 L 20.273438 37.234375 L 19.714844 30.507813 Z M 15.820313 38.414063 C 15.144531 38.910156 14.195313 38.753906 13.707031 38.066406 L 9.574219 32.253906 C 9.085938 31.566406 9.238281 30.609375 9.917969 30.109375 C 10.597656 29.613281 11.542969 29.769531 12.03125 30.460938 L 16.164063 36.269531 C 16.652344 36.960938 16.5 37.917969 15.820313 38.414063 Z" stroke-linecap="round" />
</g>
</svg>