<?xml version="1.0" encoding="UTF-8" standalone="no" ?>
<!DOCTYPE svg PUBLIC "-//W3C//DTD SVG 1.1//EN" "http://www.w3.org/Graphics/SVG/1.1/DTD/svg11.dtd">
<svg xmlns="http://www.w3.org/2000/svg" xmlns:xlink="http://www.w3.org/1999/xlink" version="1.1" width="400" height="400" viewBox="0 0 400 400" xml:space="preserve">
<desc>Created with Fabric.js 3.6.2</desc>
<defs>
</defs>
<g transform="matrix(4.17 0 0 4.17 167.85 227.99)" id="surface1"  >
<path style="stroke: none; stroke-width: 1; stroke-dasharray: none; stroke-linecap: butt; stroke-dashoffset: 0; stroke-linejoin: miter; stroke-miterlimit: 4; fill: rgb(121,85,72); fill-rule: nonzero; opacity: 1;"  transform=" translate(-16.28, -30.72)" d="M 23.707031 20.464844 L 26.535156 23.292969 L 8.863281 40.972656 L 6.03125 38.144531 Z" stroke-linecap="round" />
</g>
<g transform="matrix(4.17 0 0 4.17 225.3 170.53)" id="surface1"  >
<path style="stroke: none; stroke-width: 1; stroke-dasharray: none; stroke-linecap: butt; stroke-dashoffset: 0; stroke-linejoin: miter; stroke-miterlimit: 4; fill: rgb(176,190,197); fill-rule: nonzero; opacity: 1;"  transform=" translate(-30.07, -16.93)" d="M 35.726563 28.242188 L 30.777344 27.535156 L 19.464844 16.222656 L 18.757813 11.273438 L 24.414063 5.613281 L 29.363281 6.320313 L 40.679688 17.636719 L 41.386719 22.585938 Z" stroke-linecap="round" />
</g>
<g transform="matrix(4.17 0 0 4.17 135.43 260.4)" id="surface1"  >
<path style="stroke: none; stroke-width: 1; stroke-dasharray: none; stroke-linecap: butt; stroke-dashoffset: 0; stroke-linejoin: miter; stroke-miterlimit: 4; fill: rgb(176,190,197); fill-rule: nonzero; opacity: 1;"  transform=" translate(-8.5, -38.5)" d="M 11.6875 39.558594 L 11.6875 38.144531 L 8.859375 35.3125 L 7.441406 35.3125 L 5.320313 37.4375 L 5.320313 38.851563 L 8.148438 41.679688 L 9.566406 41.679688 Z" stroke-linecap="round" />
</g>
<g transform="matrix(4.17 0 0 4.17 194.5 201.34)" id="surface1"  >
<path style="stroke: none; stroke-width: 1; stroke-dasharray: none; stroke-linecap: butt; stroke-dashoffset: 0; stroke-linejoin: miter; stroke-miterlimit: 4; fill: rgb(255,193,7); fill-rule: nonzero; opacity: 1;"  transform=" translate(-22.68, -24.32)" d="M 20.484375 23.6875 C 21.148438 23.863281 21.777344 24.191406 22.292969 24.707031 C 22.8125 25.226563 23.140625 25.855469 23.3125 26.515625 L 24.875 24.957031 C 24.589844 24.355469 24.203125 23.789063 23.707031 23.292969 C 23.210938 22.796875 22.648438 22.414063 22.046875 22.128906 Z" stroke-linecap="round" />
</g>
<g transform="matrix(4.17 0 0 4.17 179.77 216.07)" id="surface1"  >
<path style="stroke: none; stroke-width: 1; stroke-dasharray: none; stroke-linecap: butt; stroke-dashoffset: 0; stroke-linejoin: miter; stroke-miterlimit: 4; fill: rgb(255,193,7); fill-rule: nonzero; opacity: 1;"  transform=" translate(-19.14, -27.86)" d="M 16.949219 27.222656 C 17.609375 27.398438 18.238281 27.726563 18.757813 28.242188 C 19.273438 28.761719 19.605469 29.390625 19.777344 30.050781 L 21.339844 28.492188 C 21.054688 27.890625 20.667969 27.324219 20.171875 26.828125 C 19.675781 26.332031 19.109375 25.949219 18.511719 25.664063 Z" stroke-linecap="round" />
</g>
<g transform="matrix(4.17 0 0 4.17 165.04 230.8)" id="surface1"  >
<path style="stroke: none; stroke-width: 1; stroke-dasharray: none; stroke-linecap: butt; stroke-dashoffset: 0; stroke-linejoin: miter; stroke-miterlimit: 4; fill: rgb(255,193,7); fill-rule: nonzero; opacity: 1;"  transform=" translate(-15.61, -31.39)" d="M 13.414063 30.757813 C 14.074219 30.933594 14.703125 31.261719 15.222656 31.777344 C 15.738281 32.296875 16.070313 32.925781 16.242188 33.585938 L 17.804688 32.027344 C 17.519531 31.425781 17.132813 30.863281 16.636719 30.363281 C 16.140625 29.867188 15.574219 29.484375 14.976563 29.199219 Z" stroke-linecap="round" />
</g>
<g transform="matrix(4.17 0 0 4.17 150.31 245.52)" id="surface1"  >
<path style="stroke: none; stroke-width: 1; stroke-dasharray: none; stroke-linecap: butt; stroke-dashoffset: 0; stroke-linejoin: miter; stroke-miterlimit: 4; fill: rgb(255,193,7); fill-rule: nonzero; opacity: 1;"  transform=" translate(-12.07, -34.93)" d="M 9.878906 34.292969 C 10.539063 34.46875 11.167969 34.796875 11.6875 35.3125 C 12.203125 35.832031 12.53125 36.460938 12.707031 37.121094 L 14.269531 35.5625 C 13.980469 34.960938 13.597656 34.394531 13.101563 33.898438 C 12.605469 33.402344 12.039063 33.019531 11.441406 32.730469 Z" stroke-linecap="round" />
</g>
<g transform="matrix(4.17 0 0 4.17 200.25 145.49)" id="surface1"  >
<path style="stroke: none; stroke-width: 1; stroke-dasharray: none; stroke-linecap: butt; stroke-dashoffset: 0; stroke-linejoin: miter; stroke-miterlimit: 4; fill: rgb(120,144,156); fill-rule: nonzero; opacity: 1;"  transform=" translate(-24.06, -10.92)" d="M 24.414063 5.613281 L 18.757813 11.273438 L 19.464844 16.222656 L 29.363281 6.320313 Z" stroke-linecap="round" />
</g>
<g transform="matrix(4.17 0 0 4.17 250.34 195.58)" id="surface1"  >
<path style="stroke: none; stroke-width: 1; stroke-dasharray: none; stroke-linecap: butt; stroke-dashoffset: 0; stroke-linejoin: miter; stroke-miterlimit: 4; fill: rgb(120,144,156); fill-rule: nonzero; opacity: 1;"  transform=" translate(-36.08, -22.94)" d="M 41.386719 22.585938 L 35.726563 28.242188 L 30.777344 27.535156 L 40.679688 17.636719 Z" stroke-linecap="round" />
</g>
<g transform="matrix(4.17 0 0 4.17 248.87 146.96)" id="surface1"  >
<path style="stroke: none; stroke-width: 1; stroke-dasharray: none; stroke-linecap: butt; stroke-dashoffset: 0; stroke-linejoin: miter; stroke-miterlimit: 4; fill: rgb(120,144,156); fill-rule: nonzero; opacity: 1;"  transform=" translate(-35.73, -11.27)" d="M 33.605469 7.734375 L 39.265625 13.394531 L 37.851563 14.808594 L 32.191406 9.152344 Z" stroke-linecap="round" />
</g>
<g transform="matrix(4.17 0 0 4.17 194.97 177.29)" id="surface1"  >
<path style="stroke: none; stroke-width: 1; stroke-dasharray: none; stroke-linecap: butt; stroke-dashoffset: 0; stroke-linejoin: miter; stroke-miterlimit: 4; fill: rgb(120,144,156); fill-rule: nonzero; opacity: 1;"  transform=" translate(-22.79, -18.55)" d="M 23 19.757813 L 23.707031 19.050781 C 24.097656 18.660156 24.097656 18.027344 23.707031 17.636719 C 23.316406 17.246094 22.683594 17.246094 22.292969 17.636719 L 21.585938 18.34375 Z" stroke-linecap="round" />
</g>
<g transform="matrix(4.17 0 0 4.17 218.54 200.86)" id="surface1"  >
<path style="stroke: none; stroke-width: 1; stroke-dasharray: none; stroke-linecap: butt; stroke-dashoffset: 0; stroke-linejoin: miter; stroke-miterlimit: 4; fill: rgb(120,144,156); fill-rule: nonzero; opacity: 1;"  transform=" translate(-28.45, -24.21)" d="M 28.65625 25.414063 L 29.363281 24.707031 C 29.753906 24.316406 29.753906 23.683594 29.363281 23.292969 C 28.972656 22.902344 28.339844 22.902344 27.949219 23.292969 L 27.242188 24 Z" stroke-linecap="round" />
</g>
</svg>