<?xml version="1.0" encoding="UTF-8" standalone="no" ?>
<!DOCTYPE svg PUBLIC "-//W3C//DTD SVG 1.1//EN" "http://www.w3.org/Graphics/SVG/1.1/DTD/svg11.dtd">
<svg xmlns="http://www.w3.org/2000/svg" xmlns:xlink="http://www.w3.org/1999/xlink" version="1.1" width="400" height="400" viewBox="0 0 400 400" xml:space="preserve">
<desc>Created with Fabric.js 3.6.2</desc>
<defs>
</defs>
<g transform="matrix(4.17 0 0 4.17 253.61 158.35)" id="surface1"  >
<path style="stroke: none; stroke-width: 1; stroke-dasharray: none; stroke-linecap: butt; stroke-dashoffset: 0; stroke-linejoin: miter; stroke-miterlimit: 4; fill: rgb(176,190,197); fill-rule: nonzero; opacity: 1;"  transform=" translate(-36.87, -14)" d="M 41.40625 7.980469 L 38.398438 10.988281 C 38.335938 11.675781 37.980469 12.761719 36.667969 14.074219 C 36.640625 14.101563 36.609375 14.121094 36.585938 14.148438 C 36.28125 14.402344 35.121094 15.238281 33.960938 14.074219 L 33.925781 14.039063 L 35.28125 15.394531 C 35.652344 15.765625 35.652344 16.371094 35.28125 16.746094 L 31.734375 20.027344 C 34.121094 19.699219 37.328125 18.828125 39.375 16.78125 C 42.816406 13.339844 42.140625 9.445313 41.40625 7.980469 Z" stroke-linecap="round" />
</g>
<g transform="matrix(4.17 0 0 4.17 172.94 209.93)" id="surface1"  >
<path style="stroke: none; stroke-width: 1; stroke-dasharray: none; stroke-linecap: butt; stroke-dashoffset: 0; stroke-linejoin: miter; stroke-miterlimit: 4; fill: rgb(255,193,7); fill-rule: nonzero; opacity: 1;"  transform=" translate(-17.51, -26.38)" d="M 28.011719 16.277344 L 27.660156 16.308594 L 27.648438 16.3125 C 27.210938 16.371094 26.601563 16.464844 25.867188 16.613281 C 20.324219 17.730469 7.578125 21.867188 7 36.335938 L 10.824219 36.488281 C 11.296875 24.691406 21.585938 21.316406 26.335938 20.382813 C 26.929688 20.269531 27.433594 20.191406 27.820313 20.136719 L 27.824219 20.136719 C 27.828125 20.136719 27.851563 20.140625 27.859375 20.140625 C 27.835938 19.898438 27.710938 18.472656 28.011719 16.277344 Z" stroke-linecap="round" />
</g>
<g transform="matrix(4.17 0 0 4.17 190.14 226.85)" id="surface1"  >
<path style="stroke: none; stroke-width: 1; stroke-dasharray: none; stroke-linecap: butt; stroke-dashoffset: 0; stroke-linejoin: miter; stroke-miterlimit: 4; fill: rgb(255,193,7); fill-rule: nonzero; opacity: 1;"  transform=" translate(-21.63, -30.44)" d="M 27.859375 20.140625 C 27.859375 20.148438 27.859375 20.171875 27.859375 20.171875 C 27.859375 20.175781 27.859375 20.175781 27.859375 20.175781 L 27.859375 20.179688 C 27.808594 20.570313 27.730469 21.074219 27.617188 21.664063 C 26.683594 26.414063 23.308594 36.699219 11.511719 37.175781 L 11.664063 41 C 26.132813 40.421875 30.269531 27.675781 31.386719 22.132813 C 31.53125 21.398438 31.628906 20.789063 31.6875 20.355469 L 31.691406 20.339844 L 31.753906 19.886719 C 29.5625 20.1875 28.101563 20.164063 27.859375 20.140625 Z" stroke-linecap="round" />
</g>
<g transform="matrix(4.17 0 0 4.17 241.32 154.6)" id="surface1"  >
<path style="stroke: none; stroke-width: 1; stroke-dasharray: none; stroke-linecap: butt; stroke-dashoffset: 0; stroke-linejoin: miter; stroke-miterlimit: 4; fill: rgb(120,144,156); fill-rule: nonzero; opacity: 1;"  transform=" translate(-33.92, -13.1)" d="M 33.925781 11.332031 C 35.238281 10.019531 36.324219 9.664063 37.011719 9.601563 L 40.019531 6.59375 C 38.554688 5.863281 34.660156 5.183594 31.21875 8.625 C 29.175781 10.671875 28.339844 13.574219 28.011719 15.960938 C 27.710938 18.15625 27.835938 19.898438 27.859375 20.140625 C 28.101563 20.164063 29.539063 20.328125 31.734375 20.027344 L 35.28125 16.75 C 35.65625 16.375 35.65625 15.769531 35.28125 15.394531 L 33.925781 14.039063 C 32.765625 12.875 33.597656 11.722656 33.855469 11.414063 C 33.878906 11.386719 33.898438 11.359375 33.925781 11.332031 Z" stroke-linecap="round" />
</g>
<g transform="matrix(4.17 0 0 4.17 231.33 167.82)" id="surface1"  >
<path style="stroke: none; stroke-width: 1; stroke-dasharray: none; stroke-linecap: butt; stroke-dashoffset: 0; stroke-linejoin: miter; stroke-miterlimit: 4; fill: rgb(55,71,79); fill-rule: nonzero; opacity: 1;"  transform=" translate(-31.52, -16.28)" d="M 33.019531 16.277344 C 33.019531 17.105469 32.347656 17.777344 31.519531 17.777344 C 30.691406 17.777344 30.019531 17.105469 30.019531 16.277344 C 30.019531 15.449219 30.691406 14.777344 31.519531 14.777344 C 32.347656 14.777344 33.019531 15.449219 33.019531 16.277344 Z" stroke-linecap="round" />
</g>
</svg>