<?xml version="1.0" encoding="UTF-8" standalone="no" ?>
<!DOCTYPE svg PUBLIC "-//W3C//DTD SVG 1.1//EN" "http://www.w3.org/Graphics/SVG/1.1/DTD/svg11.dtd">
<svg xmlns="http://www.w3.org/2000/svg" xmlns:xlink="http://www.w3.org/1999/xlink" version="1.1" width="400" height="400" viewBox="0 0 400 400" xml:space="preserve">
<desc>Created with Fabric.js 3.6.2</desc>
<defs>
</defs>
<g transform="matrix(4.17 0 0 4.17 158.13 166.67)" id="surface1"  >
<path style="stroke: none; stroke-width: 1; stroke-dasharray: none; stroke-linecap: butt; stroke-dashoffset: 0; stroke-linejoin: miter; stroke-miterlimit: 4; fill: rgb(69,39,160); fill-rule: nonzero; opacity: 1;"  transform=" translate(-13.95, -16)" d="M 16 15 C 16.039063 14.960938 17 10 13 10 C 8 10 7 15 7 16 C 7 20 9.980469 25.757813 12 28 C 9.550781 26.214844 4 22 3.957031 16.023438 C 3.921875 11 5.714844 4 14 4 C 23 4 24 12 23.941406 12.316406 Z" stroke-linecap="round" />
</g>
<g transform="matrix(4.17 0 0 4.17 241.64 166.67)" id="surface1"  >
<path style="stroke: none; stroke-width: 1; stroke-dasharray: none; stroke-linecap: butt; stroke-dashoffset: 0; stroke-linejoin: miter; stroke-miterlimit: 4; fill: rgb(69,39,160); fill-rule: nonzero; opacity: 1;"  transform=" translate(-33.99, -16)" d="M 31.941406 15 C 31.902344 14.960938 30.941406 10 34.941406 10 C 39.941406 10 40.941406 15 40.941406 16 C 40.941406 20 37.964844 25.757813 35.941406 28 C 38.390625 26.214844 43.941406 22 43.984375 16.023438 C 44.019531 11 42.226563 4 33.941406 4 C 24.941406 4 23.941406 12 24.003906 12.316406 Z" stroke-linecap="round" />
</g>
<g transform="matrix(4.17 0 0 4.17 141.67 175)" id="surface1"  >
<path style="stroke: none; stroke-width: 1; stroke-dasharray: none; stroke-linecap: butt; stroke-dashoffset: 0; stroke-linejoin: miter; stroke-miterlimit: 4; fill: rgb(179,157,219); fill-rule: nonzero; opacity: 1;"  transform=" translate(-10, -18)" d="M 15 17 C 14.082031 17 12.335938 15 10.5 15 C 8.664063 15 5 15.5 5 16.414063 C 5 17.332031 7.75 21 10.5 21 C 13.25 21 13.25 19.164063 14.164063 19.164063 Z" stroke-linecap="round" />
</g>
<g transform="matrix(4.17 0 0 4.17 258.33 175)" id="surface1"  >
<path style="stroke: none; stroke-width: 1; stroke-dasharray: none; stroke-linecap: butt; stroke-dashoffset: 0; stroke-linejoin: miter; stroke-miterlimit: 4; fill: rgb(179,157,219); fill-rule: nonzero; opacity: 1;"  transform=" translate(-38, -18)" d="M 37.5 15 C 35.664063 15 33.917969 17 33 17 L 33.835938 19.164063 C 34.75 19.164063 34.75 21 37.5 21 C 40.25 21 43 17.332031 43 16.414063 C 43 15.5 39.335938 15 37.5 15 Z" stroke-linecap="round" />
</g>
<g transform="matrix(4.17 0 0 4.17 200 171.18)" id="surface1"  >
<path style="stroke: none; stroke-width: 1; stroke-dasharray: none; stroke-linecap: butt; stroke-dashoffset: 0; stroke-linejoin: miter; stroke-miterlimit: 4; fill: rgb(126,87,194); fill-rule: nonzero; opacity: 1;"  transform=" translate(-24, -17.08)" d="M 33.835938 19.164063 C 36.8125 17.085938 43 16.414063 43 16.414063 C 43 15.5 39.335938 15 37.5 15 C 35.664063 15 33.917969 17 33 17 C 32.085938 17 15.914063 17 15 17 C 14.082031 17 12.335938 15 10.5 15 C 8.664063 15 5 15.5 5 16.414063 C 5 16.414063 11.125 17.09375 14.164063 19.164063 C 15.085938 19.164063 32.914063 19.164063 33.835938 19.164063 Z" stroke-linecap="round" />
</g>
<g transform="matrix(4.17 0 0 4.17 200 227.1)" id="surface1"  >
<path style="stroke: none; stroke-width: 1; stroke-dasharray: none; stroke-linecap: butt; stroke-dashoffset: 0; stroke-linejoin: miter; stroke-miterlimit: 4; fill: rgb(126,87,194); fill-rule: nonzero; opacity: 1;"  transform=" translate(-24, -30.5)" d="M 33 17 L 15 17 C 15 17 13 19 13 21 C 13 26 18 41 19 42 C 19.355469 42.355469 22 44.125 24 44 C 26 44.125 28.644531 42.355469 29 42 C 30 41 35 25 35 21 C 35 19 33 17 33 17 Z" stroke-linecap="round" />
</g>
<g transform="matrix(4.17 0 0 4.17 200 210.42)" id="surface1"  >
<path style="stroke: none; stroke-width: 1; stroke-dasharray: none; stroke-linecap: butt; stroke-dashoffset: 0; stroke-linejoin: miter; stroke-miterlimit: 4; fill: rgb(149,117,205); fill-rule: nonzero; opacity: 1;"  transform=" translate(-24, -26.5)" d="M 28 11 C 26 11 24 12 24 12 C 24 12 22 11 20 11 C 18 11 17 13 16 15 L 15 17 C 15 17 21 21 21 31 C 21 34 19.160156 41.109375 19 42 L 29 42 C 28.839844 41.109375 27 34 27 31 C 27 21 33 17 33 17 L 32 15 C 31 13 30 11 28 11 Z" stroke-linecap="round" />
</g>
<g transform="matrix(4.17 0 0 4.17 229.53 193.75)" id="surface1"  >
<path style="stroke: none; stroke-width: 1; stroke-dasharray: none; stroke-linecap: butt; stroke-dashoffset: 0; stroke-linejoin: miter; stroke-miterlimit: 4; fill: rgb(69,39,160); fill-rule: nonzero; opacity: 1;"  transform=" translate(-31.09, -22.5)" d="M 28 25 C 28 25 30.550781 25 31.875 25 C 35.074219 25 34 20 34 20 C 34 20 33.398438 20 32.074219 20 C 28.875 20 28 25 28 25 Z" stroke-linecap="round" />
</g>
<g transform="matrix(4.17 0 0 4.17 233.33 193.75)" id="surface1"  >
<path style="stroke: none; stroke-width: 1; stroke-dasharray: none; stroke-linecap: butt; stroke-dashoffset: 0; stroke-linejoin: miter; stroke-miterlimit: 4; fill: rgb(69,39,160); fill-rule: nonzero; opacity: 1;"  transform=" translate(-32, -22.5)" d="M 28 25 L 36 20 C 36 20 33.398438 20 32.074219 20 C 28.875 20 28 25 28 25 Z" stroke-linecap="round" />
</g>
<g transform="matrix(4.17 0 0 4.17 170.47 193.75)" id="surface1"  >
<path style="stroke: none; stroke-width: 1; stroke-dasharray: none; stroke-linecap: butt; stroke-dashoffset: 0; stroke-linejoin: miter; stroke-miterlimit: 4; fill: rgb(69,39,160); fill-rule: nonzero; opacity: 1;"  transform=" translate(-16.91, -22.5)" d="M 20 25 C 20 25 17.449219 25 16.125 25 C 12.925781 25 14 20 14 20 C 14 20 14.601563 20 15.925781 20 C 19.125 20 20 25 20 25 Z" stroke-linecap="round" />
</g>
<g transform="matrix(4.17 0 0 4.17 166.67 193.75)" id="surface1"  >
<path style="stroke: none; stroke-width: 1; stroke-dasharray: none; stroke-linecap: butt; stroke-dashoffset: 0; stroke-linejoin: miter; stroke-miterlimit: 4; fill: rgb(69,39,160); fill-rule: nonzero; opacity: 1;"  transform=" translate(-16, -22.5)" d="M 20 25 L 12 20 C 12 20 14.601563 20 15.925781 20 C 19.125 20 20 25 20 25 Z" stroke-linecap="round" />
</g>
<g transform="matrix(4.17 0 0 4.17 200 264.69)" id="surface1"  >
<path style="stroke: none; stroke-width: 1; stroke-dasharray: none; stroke-linecap: butt; stroke-dashoffset: 0; stroke-linejoin: miter; stroke-miterlimit: 4; fill: rgb(49,27,146); fill-rule: nonzero; opacity: 1;"  transform=" translate(-24, -39.53)" d="M 24 42 C 24.917969 40.640625 28 40 28 38.007813 C 28 35.855469 26.210938 38.007813 24 38.007813 C 21.789063 38.007813 20 35.855469 20 38.007813 C 20 40 23.082031 40.640625 24 42 Z" stroke-linecap="round" />
</g>
<g transform="matrix(4.17 0 0 4.17 166.62 196.19)" id="surface1"  >
<path style="stroke: none; stroke-width: 1; stroke-dasharray: none; stroke-linecap: butt; stroke-dashoffset: 0; stroke-linejoin: miter; stroke-miterlimit: 4; fill: rgb(33,33,33); fill-rule: nonzero; opacity: 1;"  transform=" translate(-15.99, -23.09)" d="M 15.472656 22.171875 C 15.195313 22.347656 15 22.644531 15 23 C 15 23.554688 15.449219 24 16 24 C 16.511719 24 16.921875 23.609375 16.976563 23.109375 Z" stroke-linecap="round" />
</g>
<g transform="matrix(4.17 0 0 4.17 233.38 196.19)" id="surface1"  >
<path style="stroke: none; stroke-width: 1; stroke-dasharray: none; stroke-linecap: butt; stroke-dashoffset: 0; stroke-linejoin: miter; stroke-miterlimit: 4; fill: rgb(33,33,33); fill-rule: nonzero; opacity: 1;"  transform=" translate(-32.01, -23.09)" d="M 32.527344 22.171875 L 31.023438 23.109375 C 31.078125 23.609375 31.488281 24 32 24 C 32.550781 24 33 23.554688 33 23 C 33 22.644531 32.804688 22.347656 32.527344 22.171875 Z" stroke-linecap="round" />
</g>
<g transform="matrix(4.17 0 0 4.17 166.41 197.09)" id="surface1"  >
<path style="stroke: none; stroke-width: 1; stroke-dasharray: none; stroke-linecap: butt; stroke-dashoffset: 0; stroke-linejoin: miter; stroke-miterlimit: 4; fill: rgb(238,255,65); fill-rule: nonzero; opacity: 1;"  transform=" translate(-15.94, -23.3)" d="M 16.976563 23.109375 C 16.921875 23.609375 16.511719 24 16 24 C 15.449219 24 15 23.554688 15 23 C 15 22.644531 15.195313 22.347656 15.472656 22.171875 L 14.570313 21.605469 C 14.21875 21.964844 14 22.457031 14 23 C 14 24.105469 14.894531 25 16 25 C 16.867188 25 17.597656 24.445313 17.875 23.671875 Z" stroke-linecap="round" />
</g>
<g transform="matrix(4.17 0 0 4.17 233.59 197.09)" id="surface1"  >
<path style="stroke: none; stroke-width: 1; stroke-dasharray: none; stroke-linecap: butt; stroke-dashoffset: 0; stroke-linejoin: miter; stroke-miterlimit: 4; fill: rgb(238,255,65); fill-rule: nonzero; opacity: 1;"  transform=" translate(-32.06, -23.3)" d="M 33.429688 21.605469 L 32.527344 22.171875 C 32.804688 22.347656 33 22.644531 33 23 C 33 23.554688 32.550781 24 32 24 C 31.488281 24 31.078125 23.609375 31.023438 23.109375 L 30.125 23.671875 C 30.402344 24.445313 31.132813 25 32 25 C 33.105469 25 34 24.105469 34 23 C 34 22.457031 33.78125 21.964844 33.429688 21.605469 Z" stroke-linecap="round" />
</g>
</svg>