<?xml version="1.0" encoding="UTF-8" standalone="no" ?>
<!DOCTYPE svg PUBLIC "-//W3C//DTD SVG 1.1//EN" "http://www.w3.org/Graphics/SVG/1.1/DTD/svg11.dtd">
<svg xmlns="http://www.w3.org/2000/svg" xmlns:xlink="http://www.w3.org/1999/xlink" version="1.1" width="400" height="400" viewBox="0 0 400 400" xml:space="preserve">
<desc>Created with Fabric.js 3.6.2</desc>
<defs>
</defs>
<g transform="matrix(4.17 0 0 4.17 237.02 220.45)" id="surface1"  >
<path style="stroke: none; stroke-width: 1; stroke-dasharray: none; stroke-linecap: butt; stroke-dashoffset: 0; stroke-linejoin: miter; stroke-miterlimit: 4; fill: rgb(255,193,7); fill-rule: nonzero; opacity: 1;"  transform=" translate(-32.88, -28.91)" d="M 34.097656 26.722656 C 34.191406 27.171875 34.179688 27.617188 34.164063 28.074219 C 34.132813 28.527344 34.050781 28.984375 33.910156 29.429688 C 33.777344 29.867188 33.738281 30.421875 33.320313 30.714844 C 32.925781 31.007813 32.421875 31.21875 31.738281 31.078125 L 31.609375 30.925781 C 31.558594 30.238281 31.628906 29.851563 31.742188 29.488281 C 31.835938 29.125 32.242188 28.976563 32.492188 28.683594 C 32.738281 28.394531 32.984375 28.082031 33.21875 27.75 C 33.472656 27.425781 33.679688 27.0625 33.902344 26.695313 Z" stroke-linecap="round" />
</g>
<g transform="matrix(4.17 0 0 4.17 246.7 228.79)" id="surface1"  >
<path style="stroke: none; stroke-width: 1; stroke-dasharray: none; stroke-linecap: butt; stroke-dashoffset: 0; stroke-linejoin: miter; stroke-miterlimit: 4; fill: rgb(255,193,7); fill-rule: nonzero; opacity: 1;"  transform=" translate(-35.21, -30.91)" d="M 36.425781 28.722656 C 36.515625 29.171875 36.503906 29.617188 36.492188 30.074219 C 36.460938 30.527344 36.375 30.984375 36.234375 31.429688 C 36.101563 31.867188 36.0625 32.421875 35.644531 32.714844 C 35.25 33.007813 34.746094 33.21875 34.0625 33.078125 L 33.933594 32.925781 C 33.882813 32.238281 33.953125 31.851563 34.066406 31.488281 C 34.160156 31.125 34.566406 30.976563 34.820313 30.683594 C 35.066406 30.394531 35.308594 30.082031 35.546875 29.75 C 35.796875 29.425781 36.007813 29.0625 36.226563 28.695313 Z" stroke-linecap="round" />
</g>
<g transform="matrix(4.17 0 0 4.17 225.87 217.5)" id="surface1"  >
<path style="stroke: none; stroke-width: 1; stroke-dasharray: none; stroke-linecap: butt; stroke-dashoffset: 0; stroke-linejoin: miter; stroke-miterlimit: 4; fill: rgb(255,193,7); fill-rule: nonzero; opacity: 1;"  transform=" translate(-30.21, -28.2)" d="M 31.425781 26.015625 C 31.515625 26.464844 31.503906 26.90625 31.492188 27.367188 C 31.460938 27.820313 31.375 28.273438 31.234375 28.71875 C 31.101563 29.15625 31.0625 29.714844 30.644531 30.007813 C 30.25 30.300781 29.746094 30.511719 29.0625 30.367188 L 28.933594 30.21875 C 28.882813 29.53125 28.953125 29.144531 29.066406 28.777344 C 29.160156 28.417969 29.566406 28.269531 29.820313 27.972656 C 30.066406 27.683594 30.308594 27.375 30.546875 27.042969 C 30.796875 26.714844 31.007813 26.355469 31.226563 25.984375 Z" stroke-linecap="round" />
</g>
<g transform="matrix(4.17 0 0 4.17 213.37 217.5)" id="surface1"  >
<path style="stroke: none; stroke-width: 1; stroke-dasharray: none; stroke-linecap: butt; stroke-dashoffset: 0; stroke-linejoin: miter; stroke-miterlimit: 4; fill: rgb(255,193,7); fill-rule: nonzero; opacity: 1;"  transform=" translate(-27.21, -28.2)" d="M 28.425781 26.015625 C 28.515625 26.464844 28.503906 26.90625 28.492188 27.367188 C 28.460938 27.820313 28.375 28.273438 28.234375 28.71875 C 28.101563 29.15625 28.0625 29.714844 27.644531 30.007813 C 27.25 30.300781 26.746094 30.511719 26.0625 30.367188 L 25.933594 30.21875 C 25.882813 29.53125 25.953125 29.144531 26.066406 28.777344 C 26.160156 28.417969 26.566406 28.269531 26.820313 27.972656 C 27.066406 27.683594 27.308594 27.375 27.546875 27.042969 C 27.796875 26.714844 28.007813 26.355469 28.226563 25.984375 Z" stroke-linecap="round" />
</g>
<g transform="matrix(4.17 0 0 4.17 203.68 216.29)" id="surface1"  >
<path style="stroke: none; stroke-width: 1; stroke-dasharray: none; stroke-linecap: butt; stroke-dashoffset: 0; stroke-linejoin: miter; stroke-miterlimit: 4; fill: rgb(255,193,7); fill-rule: nonzero; opacity: 1;"  transform=" translate(-24.88, -27.91)" d="M 26.097656 25.722656 C 26.191406 26.171875 26.179688 26.617188 26.164063 27.074219 C 26.132813 27.527344 26.050781 27.984375 25.910156 28.429688 C 25.777344 28.867188 25.738281 29.421875 25.320313 29.714844 C 24.925781 30.007813 24.421875 30.21875 23.738281 30.078125 L 23.609375 29.925781 C 23.558594 29.238281 23.628906 28.851563 23.742188 28.488281 C 23.835938 28.125 24.242188 27.976563 24.492188 27.683594 C 24.738281 27.394531 24.984375 27.082031 25.21875 26.75 C 25.472656 26.425781 25.679688 26.0625 25.902344 25.695313 Z" stroke-linecap="round" />
</g>
<g transform="matrix(4.17 0 0 4.17 245.39 189.83)" id="surface1"  >
<path style="stroke: none; stroke-width: 1; stroke-dasharray: none; stroke-linecap: butt; stroke-dashoffset: 0; stroke-linejoin: miter; stroke-miterlimit: 4; fill: rgb(255,193,7); fill-rule: nonzero; opacity: 1;"  transform=" translate(-34.89, -21.56)" d="M 34.605469 23.96875 C 34.570313 23.539063 34.535156 23.128906 34.449219 22.722656 C 34.378906 22.324219 34.292969 21.9375 34.195313 21.570313 C 34.09375 21.195313 33.789063 20.886719 33.863281 20.519531 C 33.917969 20.144531 34.019531 19.761719 34.359375 19.164063 L 34.546875 19.085938 C 35.21875 19.246094 35.585938 19.65625 35.816406 20.09375 C 36.066406 20.535156 35.863281 21.054688 35.792969 21.507813 C 35.730469 21.96875 35.609375 22.414063 35.441406 22.839844 C 35.257813 23.257813 35.074219 23.664063 34.800781 24.03125 Z" stroke-linecap="round" />
</g>
<g transform="matrix(4.17 0 0 4.17 231.01 189.83)" id="surface1"  >
<path style="stroke: none; stroke-width: 1; stroke-dasharray: none; stroke-linecap: butt; stroke-dashoffset: 0; stroke-linejoin: miter; stroke-miterlimit: 4; fill: rgb(255,193,7); fill-rule: nonzero; opacity: 1;"  transform=" translate(-31.44, -21.56)" d="M 31.152344 23.96875 C 31.117188 23.539063 31.082031 23.128906 30.996094 22.722656 C 30.925781 22.324219 30.839844 21.9375 30.742188 21.570313 C 30.640625 21.195313 30.339844 20.886719 30.410156 20.519531 C 30.464844 20.144531 30.566406 19.761719 30.90625 19.164063 L 31.09375 19.085938 C 31.765625 19.246094 32.132813 19.65625 32.363281 20.09375 C 32.613281 20.535156 32.410156 21.054688 32.339844 21.507813 C 32.277344 21.96875 32.15625 22.414063 31.988281 22.839844 C 31.804688 23.257813 31.621094 23.664063 31.347656 24.03125 Z" stroke-linecap="round" />
</g>
<g transform="matrix(4.17 0 0 4.17 218.51 189.31)" id="surface1"  >
<path style="stroke: none; stroke-width: 1; stroke-dasharray: none; stroke-linecap: butt; stroke-dashoffset: 0; stroke-linejoin: miter; stroke-miterlimit: 4; fill: rgb(255,193,7); fill-rule: nonzero; opacity: 1;"  transform=" translate(-28.44, -21.43)" d="M 28.152344 23.84375 C 28.117188 23.414063 28.082031 23.003906 27.996094 22.597656 C 27.925781 22.199219 27.839844 21.8125 27.742188 21.445313 C 27.640625 21.070313 27.339844 20.761719 27.410156 20.394531 C 27.464844 20.019531 27.566406 19.636719 27.90625 19.039063 L 28.09375 18.960938 C 28.765625 19.121094 29.132813 19.53125 29.363281 19.96875 C 29.613281 20.410156 29.410156 20.929688 29.339844 21.382813 C 29.277344 21.84375 29.15625 22.289063 28.988281 22.714844 C 28.804688 23.132813 28.621094 23.539063 28.347656 23.90625 Z" stroke-linecap="round" />
</g>
<g transform="matrix(4.17 0 0 4.17 207.89 185.14)" id="surface1"  >
<path style="stroke: none; stroke-width: 1; stroke-dasharray: none; stroke-linecap: butt; stroke-dashoffset: 0; stroke-linejoin: miter; stroke-miterlimit: 4; fill: rgb(255,193,7); fill-rule: nonzero; opacity: 1;"  transform=" translate(-25.89, -20.43)" d="M 25.605469 22.84375 C 25.570313 22.414063 25.535156 22.003906 25.449219 21.597656 C 25.378906 21.199219 25.292969 20.8125 25.195313 20.445313 C 25.09375 20.070313 24.789063 19.761719 24.863281 19.394531 C 24.917969 19.019531 25.019531 18.636719 25.359375 18.039063 L 25.546875 17.960938 C 26.21875 18.121094 26.585938 18.53125 26.816406 18.96875 C 27.066406 19.410156 26.863281 19.929688 26.792969 20.382813 C 26.730469 20.84375 26.609375 21.289063 26.441406 21.714844 C 26.257813 22.132813 26.074219 22.539063 25.800781 22.90625 Z" stroke-linecap="round" />
</g>
<g transform="matrix(4.17 0 0 4.17 197.68 180.97)" id="surface1"  >
<path style="stroke: none; stroke-width: 1; stroke-dasharray: none; stroke-linecap: butt; stroke-dashoffset: 0; stroke-linejoin: miter; stroke-miterlimit: 4; fill: rgb(255,193,7); fill-rule: nonzero; opacity: 1;"  transform=" translate(-23.44, -19.43)" d="M 23.152344 21.84375 C 23.117188 21.414063 23.082031 21.003906 22.996094 20.597656 C 22.925781 20.199219 22.839844 19.8125 22.742188 19.445313 C 22.640625 19.070313 22.339844 18.761719 22.410156 18.394531 C 22.464844 18.019531 22.566406 17.636719 22.90625 17.039063 L 23.09375 16.960938 C 23.765625 17.121094 24.132813 17.53125 24.363281 17.96875 C 24.613281 18.410156 24.410156 18.929688 24.339844 19.382813 C 24.277344 19.84375 24.15625 20.289063 23.988281 20.714844 C 23.804688 21.132813 23.621094 21.539063 23.347656 21.90625 Z" stroke-linecap="round" />
</g>
<g transform="matrix(4.17 0 0 4.17 257.89 185.66)" id="surface1"  >
<path style="stroke: none; stroke-width: 1; stroke-dasharray: none; stroke-linecap: butt; stroke-dashoffset: 0; stroke-linejoin: miter; stroke-miterlimit: 4; fill: rgb(255,193,7); fill-rule: nonzero; opacity: 1;"  transform=" translate(-37.89, -20.56)" d="M 37.605469 22.96875 C 37.570313 22.539063 37.535156 22.128906 37.449219 21.722656 C 37.378906 21.324219 37.292969 20.9375 37.195313 20.570313 C 37.09375 20.195313 36.789063 19.886719 36.863281 19.519531 C 36.917969 19.144531 37.019531 18.761719 37.359375 18.164063 L 37.546875 18.085938 C 38.21875 18.246094 38.585938 18.65625 38.816406 19.09375 C 39.066406 19.535156 38.863281 20.054688 38.792969 20.507813 C 38.730469 20.96875 38.609375 21.414063 38.441406 21.839844 C 38.257813 22.257813 38.074219 22.664063 37.800781 23.03125 Z" stroke-linecap="round" />
</g>
<g transform="matrix(4.17 0 0 4.17 268.51 176.81)" id="surface1"  >
<path style="stroke: none; stroke-width: 1; stroke-dasharray: none; stroke-linecap: butt; stroke-dashoffset: 0; stroke-linejoin: miter; stroke-miterlimit: 4; fill: rgb(255,193,7); fill-rule: nonzero; opacity: 1;"  transform=" translate(-40.44, -18.43)" d="M 40.152344 20.84375 C 40.117188 20.414063 40.082031 20.003906 39.996094 19.597656 C 39.925781 19.199219 39.839844 18.8125 39.742188 18.445313 C 39.640625 18.070313 39.339844 17.761719 39.410156 17.394531 C 39.464844 17.019531 39.566406 16.636719 39.90625 16.039063 L 40.09375 15.960938 C 40.765625 16.121094 41.132813 16.53125 41.363281 16.96875 C 41.613281 17.410156 41.410156 17.929688 41.339844 18.382813 C 41.277344 18.84375 41.15625 19.289063 40.988281 19.714844 C 40.804688 20.132813 40.621094 20.539063 40.347656 20.90625 Z" stroke-linecap="round" />
</g>
<g transform="matrix(4.17 0 0 4.17 203.83 202.08)" id="surface1"  >
<path style="stroke: none; stroke-width: 1; stroke-dasharray: none; stroke-linecap: butt; stroke-dashoffset: 0; stroke-linejoin: miter; stroke-miterlimit: 4; fill: rgb(99,86,10); fill-rule: nonzero; opacity: 1;"  transform=" translate(-24.92, -24.5)" d="M 10 42 C 10 42 6 35 7 21 C 8 7 17 7 19 7 C 21 7 27 9 29 9 C 31 9 37 8 38 8 C 39 8 43 7 43 13 L 43 17 C 43 17 40 20 36 20 C 32 20 21 20 21 20 L 19 24 C 19 24 20 37 30 42 Z" stroke-linecap="round" />
</g>
<g transform="matrix(4.17 0 0 4.17 206.82 212.02)" id="surface1"  >
<path style="stroke: none; stroke-width: 1; stroke-dasharray: none; stroke-linecap: butt; stroke-dashoffset: 0; stroke-linejoin: miter; stroke-miterlimit: 4; fill: rgb(255,23,68); fill-rule: nonzero; opacity: 1;"  transform=" translate(-25.64, -26.88)" d="M 36 31 C 28 28 24 26 22 25 C 20 24 19 24 21 21 C 21 21 18 23 14 23 C 16 26 17 24 22 27 C 26.175781 29.507813 34.53125 32.011719 37.175781 32.769531 C 37.695313 31.851563 36 31 36 31 Z" stroke-linecap="round" />
</g>
<g transform="matrix(4.17 0 0 4.17 168.75 196.66)" id="surface1"  >
<path style="stroke: none; stroke-width: 1; stroke-dasharray: none; stroke-linecap: butt; stroke-dashoffset: 0; stroke-linejoin: miter; stroke-miterlimit: 4; fill: rgb(213,0,0); fill-rule: nonzero; opacity: 1;"  transform=" translate(-16.5, -23.2)" d="M 14 23 C 13.4375 23.140625 12.742188 23.261719 12 23.371094 L 12 25.394531 C 12.816406 25.277344 13.578125 25.152344 14.246094 24.996094 C 16.523438 24.957031 18.492188 24.363281 19.894531 23.785156 C 19.902344 23.003906 20.191406 22.074219 21 21 C 21 21 18 23 14 23 Z" stroke-linecap="round" />
</g>
<g transform="matrix(4.17 0 0 4.17 208.33 185.62)" id="surface1"  >
<path style="stroke: none; stroke-width: 1; stroke-dasharray: none; stroke-linecap: butt; stroke-dashoffset: 0; stroke-linejoin: miter; stroke-miterlimit: 4; fill: rgb(130,119,23); fill-rule: nonzero; opacity: 1;"  transform=" translate(-26, -20.55)" d="M 38 8 C 37 8 31 9 29 9 C 27.710938 9 24.769531 8.171875 22.296875 7.582031 C 18.636719 5.464844 17 6 17 6 C 17 6 12 6 12 12 C 12 14 11 15 11 15 C 11 15 9 17 9 22 C 9 26 10 28 10 28 C 10 28 11 31 14 32 L 33 35 C 33 35 37 36 38 33 C 38 33 27 30 22 27 C 17 24 16 26 14 23 C 18 23 21 21 21 21 C 21 21 28 21 33 21 C 40 21 43 17 43 17 C 43 16.527344 43 15.421875 43 13 C 43 7 39 8 38 8 Z" stroke-linecap="round" />
</g>
<g transform="matrix(4.17 0 0 4.17 203.47 217.68)" id="surface1"  >
<path style="stroke: none; stroke-width: 1; stroke-dasharray: none; stroke-linecap: butt; stroke-dashoffset: 0; stroke-linejoin: miter; stroke-miterlimit: 4; fill: rgb(66,54,3); fill-rule: nonzero; opacity: 1;"  transform=" translate(-24.83, -28.24)" d="M 22 27 C 18.910156 25.144531 17.347656 25.195313 16.132813 24.796875 C 15.871094 24.679688 15.539063 24.546875 15.195313 24.324219 C 15.066406 24.230469 14.941406 24.128906 14.808594 24 C 14.796875 24 14.789063 24 14.777344 24 C 14.503906 23.757813 14.238281 23.441406 14 23 C 14 23 13 23 12 22 C 11.941406 21.941406 11.867188 21.867188 11.804688 21.804688 C 11.382813 22.574219 12.039063 23.664063 12.261719 24 C 12.273438 24.015625 12.277344 24.023438 12.285156 24.035156 C 12.300781 24.058594 12.300781 24.058594 12.308594 24.070313 C 12.324219 24.09375 12.335938 24.109375 12.335938 24.109375 C 12.507813 24.367188 12.679688 24.589844 12.847656 24.800781 C 14.183594 26.453125 15.464844 26.738281 16.703125 27.007813 C 17.699219 27.226563 18.9375 27.492188 20.972656 28.714844 C 25.351563 31.339844 33.796875 33.878906 36.601563 34.683594 C 37.199219 34.359375 37.71875 33.84375 38 33 C 38 33 27 30 22 27 Z" stroke-linecap="round" />
</g>
<g transform="matrix(4.17 0 0 4.17 181.25 152.08)" id="surface1"  >
<path style="stroke: none; stroke-width: 1; stroke-dasharray: none; stroke-linecap: butt; stroke-dashoffset: 0; stroke-linejoin: miter; stroke-miterlimit: 4; fill: rgb(84,75,9); fill-rule: nonzero; opacity: 1;"  transform=" translate(-19.5, -12.5)" d="M 14 12 C 14 9.789063 15.238281 8 18 8 C 22 8 25 12 25 12 C 25 12 23 17 18 17 C 15.238281 17 14 14.210938 14 12 Z" stroke-linecap="round" />
</g>
<g transform="matrix(4.17 0 0 4.17 214.21 177.08)" id="surface1"  >
<path style="stroke: none; stroke-width: 1; stroke-dasharray: none; stroke-linecap: butt; stroke-dashoffset: 0; stroke-linejoin: miter; stroke-miterlimit: 4; fill: rgb(84,75,9); fill-rule: nonzero; opacity: 1;"  transform=" translate(-27.41, -18.5)" d="M 43 14 C 43 14 41.25 16.6875 38.675781 17.785156 C 37.328125 18.4375 35.460938 19 33 19 L 20.394531 19 L 19.890625 19.335938 C 19.863281 19.351563 16.988281 21.242188 14 21 C 12.894531 20.910156 12.152344 21.386719 11.804688 21.804688 C 11.867188 21.867188 11.941406 21.941406 12 22 C 13 23 14 23 14 23 C 18 23 21 21 21 21 C 21 21 28 21 33 21 C 33.410156 21 33.808594 20.984375 34.191406 20.957031 C 34.320313 20.949219 34.441406 20.933594 34.566406 20.921875 C 34.820313 20.898438 35.066406 20.875 35.308594 20.84375 C 35.445313 20.824219 35.578125 20.800781 35.714844 20.777344 C 35.929688 20.742188 36.140625 20.707031 36.34375 20.664063 C 36.476563 20.636719 36.609375 20.605469 36.738281 20.574219 C 36.929688 20.53125 37.117188 20.480469 37.300781 20.429688 C 37.425781 20.394531 37.550781 20.359375 37.667969 20.324219 C 37.851563 20.269531 38.023438 20.210938 38.191406 20.148438 C 38.300781 20.109375 38.410156 20.074219 38.511719 20.035156 C 38.695313 19.964844 38.867188 19.890625 39.035156 19.820313 C 39.113281 19.785156 39.199219 19.75 39.277344 19.714844 C 39.515625 19.605469 39.742188 19.492188 39.957031 19.382813 C 40.015625 19.351563 40.0625 19.320313 40.117188 19.289063 C 40.273438 19.203125 40.429688 19.117188 40.570313 19.027344 C 40.652344 18.980469 40.722656 18.929688 40.800781 18.882813 C 40.90625 18.816406 41.015625 18.746094 41.113281 18.679688 C 41.191406 18.625 41.261719 18.574219 41.332031 18.523438 C 41.421875 18.460938 41.507813 18.394531 41.589844 18.335938 C 41.652344 18.285156 41.71875 18.234375 41.777344 18.183594 C 41.851563 18.125 41.925781 18.066406 41.988281 18.011719 C 42.046875 17.964844 42.101563 17.914063 42.152344 17.871094 C 42.214844 17.816406 42.269531 17.761719 42.324219 17.710938 C 42.367188 17.671875 42.414063 17.628906 42.453125 17.59375 C 42.507813 17.539063 42.554688 17.492188 42.597656 17.445313 C 42.628906 17.417969 42.660156 17.382813 42.6875 17.355469 C 42.75 17.292969 42.804688 17.230469 42.847656 17.183594 C 42.835938 17.191406 42.828125 17.195313 42.824219 17.195313 C 42.816406 17.191406 43 17 43 17 C 43 17 43.03125 15.875 43 14 Z" stroke-linecap="round" />
</g>
<g transform="matrix(4.17 0 0 4.17 183.33 250)" id="surface1"  >
<path style="stroke: none; stroke-width: 1; stroke-dasharray: none; stroke-linecap: butt; stroke-dashoffset: 0; stroke-linejoin: miter; stroke-miterlimit: 4; fill: rgb(40,35,2); fill-rule: nonzero; opacity: 1;"  transform=" translate(-20, -36)" d="M 21 34 L 18 34 L 18 36 L 20 38 L 22 37 Z" stroke-linecap="round" />
</g>
<g transform="matrix(4.17 0 0 4.17 193.75 264.58)" id="surface1"  >
<path style="stroke: none; stroke-width: 1; stroke-dasharray: none; stroke-linecap: butt; stroke-dashoffset: 0; stroke-linejoin: miter; stroke-miterlimit: 4; fill: rgb(40,35,2); fill-rule: nonzero; opacity: 1;"  transform=" translate(-22.5, -39.5)" d="M 23 38 L 21 39 L 21 41 L 24 41 L 24 39 Z" stroke-linecap="round" />
</g>
<g transform="matrix(4.17 0 0 4.17 162.5 245.83)" id="surface1"  >
<path style="stroke: none; stroke-width: 1; stroke-dasharray: none; stroke-linecap: butt; stroke-dashoffset: 0; stroke-linejoin: miter; stroke-miterlimit: 4; fill: rgb(40,35,2); fill-rule: nonzero; opacity: 1;"  transform=" translate(-15, -35)" d="M 17 34 L 17 36 L 15 37 L 13 35 L 14 33 Z" stroke-linecap="round" />
</g>
<g transform="matrix(4.17 0 0 4.17 175 262.5)" id="surface1"  >
<path style="stroke: none; stroke-width: 1; stroke-dasharray: none; stroke-linecap: butt; stroke-dashoffset: 0; stroke-linejoin: miter; stroke-miterlimit: 4; fill: rgb(40,35,2); fill-rule: nonzero; opacity: 1;"  transform=" translate(-18, -39)" d="M 18 37 L 16 38 L 17 41 L 20 41 L 20 39 Z" stroke-linecap="round" />
</g>
<g transform="matrix(4.17 0 0 4.17 147.92 237.5)" id="surface1"  >
<path style="stroke: none; stroke-width: 1; stroke-dasharray: none; stroke-linecap: butt; stroke-dashoffset: 0; stroke-linejoin: miter; stroke-miterlimit: 4; fill: rgb(40,35,2); fill-rule: nonzero; opacity: 1;"  transform=" translate(-11.5, -33)" d="M 13 33 L 12 35 L 10 33 L 11 31 Z" stroke-linecap="round" />
</g>
<g transform="matrix(4.17 0 0 4.17 160.42 264.58)" id="surface1"  >
<path style="stroke: none; stroke-width: 1; stroke-dasharray: none; stroke-linecap: butt; stroke-dashoffset: 0; stroke-linejoin: miter; stroke-miterlimit: 4; fill: rgb(40,35,2); fill-rule: nonzero; opacity: 1;"  transform=" translate(-14.5, -39.5)" d="M 15 38 L 13 40 L 14 41 L 16 41 Z" stroke-linecap="round" />
</g>
<g transform="matrix(4.17 0 0 4.17 154.17 254.17)" id="surface1"  >
<path style="stroke: none; stroke-width: 1; stroke-dasharray: none; stroke-linecap: butt; stroke-dashoffset: 0; stroke-linejoin: miter; stroke-miterlimit: 4; fill: rgb(40,35,2); fill-rule: nonzero; opacity: 1;"  transform=" translate(-13, -37)" d="M 13 36 L 14 38 L 12 38 Z" stroke-linecap="round" />
</g>
<g transform="matrix(4.17 0 0 4.17 208.33 266.67)" id="surface1"  >
<path style="stroke: none; stroke-width: 1; stroke-dasharray: none; stroke-linecap: butt; stroke-dashoffset: 0; stroke-linejoin: miter; stroke-miterlimit: 4; fill: rgb(40,35,2); fill-rule: nonzero; opacity: 1;"  transform=" translate(-26, -40)" d="M 25 39 L 25 41 L 27 41 Z" stroke-linecap="round" />
</g>
<g transform="matrix(4.17 0 0 4.17 206.25 141.67)" id="surface1"  >
<path style="stroke: none; stroke-width: 1; stroke-dasharray: none; stroke-linecap: butt; stroke-dashoffset: 0; stroke-linejoin: miter; stroke-miterlimit: 4; fill: rgb(158,157,36); fill-rule: nonzero; opacity: 1;"  transform=" translate(-25.5, -10)" d="M 24 9 L 26 11 L 27 10 Z" stroke-linecap="round" />
</g>
<g transform="matrix(4.17 0 0 4.17 220.83 145.83)" id="surface1"  >
<path style="stroke: none; stroke-width: 1; stroke-dasharray: none; stroke-linecap: butt; stroke-dashoffset: 0; stroke-linejoin: miter; stroke-miterlimit: 4; fill: rgb(158,157,36); fill-rule: nonzero; opacity: 1;"  transform=" translate(-29, -11)" d="M 27 11 L 28 10 L 31 10 L 31 12 Z" stroke-linecap="round" />
</g>
<g transform="matrix(4.17 0 0 4.17 243.75 143.75)" id="surface1"  >
<path style="stroke: none; stroke-width: 1; stroke-dasharray: none; stroke-linecap: butt; stroke-dashoffset: 0; stroke-linejoin: miter; stroke-miterlimit: 4; fill: rgb(158,157,36); fill-rule: nonzero; opacity: 1;"  transform=" translate(-34.5, -10.5)" d="M 32 10 L 32 12 L 36 11 L 37 9 Z" stroke-linecap="round" />
</g>
<g transform="matrix(4.17 0 0 4.17 179.17 150)" id="surface1"  >
<path style="stroke: none; stroke-width: 1; stroke-dasharray: none; stroke-linecap: butt; stroke-dashoffset: 0; stroke-linejoin: miter; stroke-miterlimit: 4; fill: rgb(255,235,59); fill-rule: nonzero; opacity: 1;"  transform=" translate(-19, -12)" d="M 22 12 C 22 12 20 14 18 14 C 16 14 16 12 16 12 C 16 12 16 10 18 10 C 20 10 22 12 22 12 Z" stroke-linecap="round" />
</g>
<g transform="matrix(4.17 0 0 4.17 177.08 150)" id="surface1"  >
<path style="stroke: none; stroke-width: 1; stroke-dasharray: none; stroke-linecap: butt; stroke-dashoffset: 0; stroke-linejoin: miter; stroke-miterlimit: 4; fill: rgb(38,50,56); fill-rule: nonzero; opacity: 1;"  transform=" translate(-18.5, -12)" d="M 19 12 C 19 13.105469 18.5 14 18.5 14 C 18.5 14 18 13.105469 18 12 C 18 10.894531 18.5 10 18.5 10 C 18.5 10 19 10.894531 19 12 Z" stroke-linecap="round" />
</g>
<g transform="matrix(4.17 0 0 4.17 262.5 148.05)" id="surface1"  >
<path style="stroke: none; stroke-width: 1; stroke-dasharray: none; stroke-linecap: butt; stroke-dashoffset: 0; stroke-linejoin: miter; stroke-miterlimit: 4; fill: rgb(40,35,2); fill-rule: nonzero; opacity: 1;"  transform=" translate(-39, -11.53)" d="M 39.082031 10.117188 C 39.847656 10.441406 41 13.003906 41 13.003906 C 41 13.003906 38.683594 13.203125 37.917969 12.882813 C 37.15625 12.5625 36.796875 11.683594 37.117188 10.917969 C 37.441406 10.15625 38.320313 9.796875 39.082031 10.117188 Z" stroke-linecap="round" />
</g>
</svg>