<?xml version="1.0" encoding="UTF-8" standalone="no" ?>
<!DOCTYPE svg PUBLIC "-//W3C//DTD SVG 1.1//EN" "http://www.w3.org/Graphics/SVG/1.1/DTD/svg11.dtd">
<svg xmlns="http://www.w3.org/2000/svg" xmlns:xlink="http://www.w3.org/1999/xlink" version="1.1" width="400" height="400" viewBox="0 0 400 400" xml:space="preserve">
<desc>Created with Fabric.js 3.6.2</desc>
<defs>
</defs>
<g transform="matrix(4.17 0 0 4.17 229.17 258.33)" id="surface1"  >
<rect style="stroke: none; stroke-width: 1; stroke-dasharray: none; stroke-linecap: butt; stroke-dashoffset: 0; stroke-linejoin: miter; stroke-miterlimit: 4; fill: rgb(121,85,72); fill-rule: nonzero; opacity: 1;"  x="-2" y="-4" rx="0" ry="0" width="4" height="8" />
</g>
<g transform="matrix(4.17 0 0 4.17 166.67 252.08)" id="surface1"  >
<rect style="stroke: none; stroke-width: 1; stroke-dasharray: none; stroke-linecap: butt; stroke-dashoffset: 0; stroke-linejoin: miter; stroke-miterlimit: 4; fill: rgb(121,85,72); fill-rule: nonzero; opacity: 1;"  x="-2" y="-5.5" rx="0" ry="0" width="4" height="11" />
</g>
<g transform="matrix(4.17 0 0 4.17 164.58 152.08)" id="surface1"  >
<path style="stroke: none; stroke-width: 1; stroke-dasharray: none; stroke-linecap: butt; stroke-dashoffset: 0; stroke-linejoin: miter; stroke-miterlimit: 4; fill: rgb(139,195,74); fill-rule: nonzero; opacity: 1;"  transform=" translate(-15.5, -12.5)" d="M 20 12.5 c 0 2.5 -2 4.5 -4.5 4.5 S 11 15 11 12.5 S 13 8 15.5 8 S 20 10 20 12.5 z" stroke-linecap="round" />
</g>
<g transform="matrix(4.17 0 0 4.17 187.5 220.83)" id="surface1"  >
<path style="stroke: none; stroke-width: 1; stroke-dasharray: none; stroke-linecap: butt; stroke-dashoffset: 0; stroke-linejoin: miter; stroke-miterlimit: 4; fill: rgb(139,195,74); fill-rule: nonzero; opacity: 1;"  transform=" translate(-21, -29)" d="M 26 29 c 0 2.8 -2.2 5 -5 5 s -5 -2.2 -5 -5 s 2.2 -5 5 -5 S 26 26.2 26 29 z" stroke-linecap="round" />
</g>
<g transform="matrix(4.17 0 0 4.17 193.75 193.75)" id="surface1"  >
<path style="stroke: none; stroke-width: 1; stroke-dasharray: none; stroke-linecap: butt; stroke-dashoffset: 0; stroke-linejoin: miter; stroke-miterlimit: 4; fill: rgb(139,195,74); fill-rule: nonzero; opacity: 1;"  transform=" translate(-22.5, -22.5)" d="M 26 22.5 c 0 1.9 -1.6 3.5 -3.5 3.5 S 19 24.4 19 22.5 s 1.6 -3.5 3.5 -3.5 S 26 20.6 26 22.5 z" stroke-linecap="round" />
</g>
<g transform="matrix(4.17 0 0 4.17 183.33 170.83)" id="surface1"  >
<path style="stroke: none; stroke-width: 1; stroke-dasharray: none; stroke-linecap: butt; stroke-dashoffset: 0; stroke-linejoin: miter; stroke-miterlimit: 4; fill: rgb(139,195,74); fill-rule: nonzero; opacity: 1;"  transform=" translate(-20, -17)" d="M 24 17 c 0 2.2 -1.8 4 -4 4 s -4 -1.8 -4 -4 s 1.8 -4 4 -4 S 24 14.8 24 17 z" stroke-linecap="round" />
</g>
<g transform="matrix(4.17 0 0 4.17 164.58 235.42)" id="surface1"  >
<path style="stroke: none; stroke-width: 1; stroke-dasharray: none; stroke-linecap: butt; stroke-dashoffset: 0; stroke-linejoin: miter; stroke-miterlimit: 4; fill: rgb(139,195,74); fill-rule: nonzero; opacity: 1;"  transform=" translate(-15.5, -32.5)" d="M 20 32.5 c 0 2.5 -2 4.5 -4.5 4.5 S 11 35 11 32.5 s 2 -4.5 4.5 -4.5 S 20 30 20 32.5 z" stroke-linecap="round" />
</g>
<g transform="matrix(4.17 0 0 4.17 162.5 193.75)" id="surface1"  >
<path style="stroke: none; stroke-width: 1; stroke-dasharray: none; stroke-linecap: butt; stroke-dashoffset: 0; stroke-linejoin: miter; stroke-miterlimit: 4; fill: rgb(139,195,74); fill-rule: nonzero; opacity: 1;"  transform=" translate(-15, -22.5)" d="M 21 22.5 c 0 -4.1 -2.7 -7.5 -6 -7.5 s -6 3.4 -6 7.5 s 2.7 7.5 6 7.5 S 21 26.6 21 22.5 z" stroke-linecap="round" />
</g>
<g transform="matrix(4.17 0 0 4.17 145.83 162.5)" id="surface1"  >
<path style="stroke: none; stroke-width: 1; stroke-dasharray: none; stroke-linecap: butt; stroke-dashoffset: 0; stroke-linejoin: miter; stroke-miterlimit: 4; fill: rgb(139,195,74); fill-rule: nonzero; opacity: 1;"  transform=" translate(-11, -15)" d="M 15 15 c 0 2.2 -1.8 4 -4 4 s -4 -1.8 -4 -4 s 1.8 -4 4 -4 S 15 12.8 15 15 z" stroke-linecap="round" />
</g>
<g transform="matrix(4.17 0 0 4.17 141.67 229.17)" id="surface1"  >
<path style="stroke: none; stroke-width: 1; stroke-dasharray: none; stroke-linecap: butt; stroke-dashoffset: 0; stroke-linejoin: miter; stroke-miterlimit: 4; fill: rgb(139,195,74); fill-rule: nonzero; opacity: 1;"  transform=" translate(-10, -31)" d="M 13 31 c 0 1.7 -1.3 3 -3 3 s -3 -1.3 -3 -3 s 1.3 -3 3 -3 S 13 29.3 13 31 z" stroke-linecap="round" />
</g>
<g transform="matrix(4.17 0 0 4.17 139.58 185.42)" id="surface1"  >
<path style="stroke: none; stroke-width: 1; stroke-dasharray: none; stroke-linecap: butt; stroke-dashoffset: 0; stroke-linejoin: miter; stroke-miterlimit: 4; fill: rgb(139,195,74); fill-rule: nonzero; opacity: 1;"  transform=" translate(-9.5, -20.5)" d="M 13 20.5 c 0 1.9 -1.6 3.5 -3.5 3.5 S 6 22.4 6 20.5 S 7.6 17 9.5 17 S 13 18.6 13 20.5 z" stroke-linecap="round" />
</g>
<g transform="matrix(4.17 0 0 4.17 135.42 206.25)" id="surface1"  >
<path style="stroke: none; stroke-width: 1; stroke-dasharray: none; stroke-linecap: butt; stroke-dashoffset: 0; stroke-linejoin: miter; stroke-miterlimit: 4; fill: rgb(139,195,74); fill-rule: nonzero; opacity: 1;"  transform=" translate(-8.5, -25.5)" d="M 12 25.5 c 0 1.9 -1.6 3.5 -3.5 3.5 S 5 27.4 5 25.5 S 6.6 22 8.5 22 S 12 23.6 12 25.5 z" stroke-linecap="round" />
</g>
<g transform="matrix(4.17 0 0 4.17 135.42 206.25)" id="surface1"  >
<path style="stroke: none; stroke-width: 1; stroke-dasharray: none; stroke-linecap: butt; stroke-dashoffset: 0; stroke-linejoin: miter; stroke-miterlimit: 4; fill: rgb(139,195,74); fill-rule: nonzero; opacity: 1;"  transform=" translate(-8.5, -25.5)" d="M 12 25.5 c 0 1.9 -1.6 3.5 -3.5 3.5 S 5 27.4 5 25.5 S 6.6 22 8.5 22 S 12 23.6 12 25.5 z" stroke-linecap="round" />
</g>
<g transform="matrix(4.17 0 0 4.17 229.17 206.25)" id="surface1"  >
<path style="stroke: none; stroke-width: 1; stroke-dasharray: none; stroke-linecap: butt; stroke-dashoffset: 0; stroke-linejoin: miter; stroke-miterlimit: 4; fill: rgb(0,150,136); fill-rule: nonzero; opacity: 1;"  transform=" translate(-31, -25.5)" d="M 31 14 L 20 34 c 0 0 3 3 11 3 s 11 -3 11 -3 L 31 14 z" stroke-linecap="round" />
</g>
<g transform="matrix(4.17 0 0 4.17 229.17 175)" id="surface1"  >
<path style="stroke: none; stroke-width: 1; stroke-dasharray: none; stroke-linecap: butt; stroke-dashoffset: 0; stroke-linejoin: miter; stroke-miterlimit: 4; fill: rgb(0,150,136); fill-rule: nonzero; opacity: 1;"  transform=" translate(-31, -18)" d="M 31 9 l -9 15 c 0 0 1.5 3 9 3 s 9 -3 9 -3 L 31 9 z" stroke-linecap="round" />
</g>
<g transform="matrix(4.17 0 0 4.17 229.17 147.92)" id="surface1"  >
<path style="stroke: none; stroke-width: 1; stroke-dasharray: none; stroke-linecap: butt; stroke-dashoffset: 0; stroke-linejoin: miter; stroke-miterlimit: 4; fill: rgb(0,150,136); fill-rule: nonzero; opacity: 1;"  transform=" translate(-31, -11.5)" d="M 31 6 l -6 9 c 0 0 1 2 6 2 s 6 -2 6 -2 L 31 6 z" stroke-linecap="round" />
</g>
<g transform="matrix(4.17 0 0 4.17 229.17 214.17)" id="surface1"  >
<path style="stroke: none; stroke-width: 1; stroke-dasharray: none; stroke-linecap: butt; stroke-dashoffset: 0; stroke-linejoin: miter; stroke-miterlimit: 4; fill: rgb(0,121,107); fill-rule: nonzero; opacity: 1;"  transform=" translate(-31, -27.4)" d="M 31 29 c 3.5 0 5.9 -0.6 7.5 -1.4 l -1 -1.8 C 36.2 26.5 34.1 27 31 27 s -5.2 -0.5 -6.5 -1.1 l -1 1.8 C 25.1 28.4 27.5 29 31 29 z" stroke-linecap="round" />
</g>
<g transform="matrix(4.17 0 0 4.17 229.17 173.54)" id="surface1"  >
<path style="stroke: none; stroke-width: 1; stroke-dasharray: none; stroke-linecap: butt; stroke-dashoffset: 0; stroke-linejoin: miter; stroke-miterlimit: 4; fill: rgb(0,121,107); fill-rule: nonzero; opacity: 1;"  transform=" translate(-31, -17.65)" d="M 36.4 18 l -1 -1.7 C 34.4 16.7 33.1 17 31 17 s -3.4 -0.3 -4.4 -0.7 l -1 1.7 c 1.2 0.6 2.9 1 5.4 1 S 35.2 18.5 36.4 18 z" stroke-linecap="round" />
</g>
<g transform="matrix(4.17 0 0 4.17 153.13 165.63)" id="surface1"  >
<path style="stroke: none; stroke-width: 1; stroke-dasharray: none; stroke-linecap: butt; stroke-dashoffset: 0; stroke-linejoin: miter; stroke-miterlimit: 4; fill: rgb(104,159,56); fill-rule: nonzero; opacity: 1;"  transform=" translate(-12.75, -15.75)" d="M 11 18.5 c -0.6 0 -1 -0.4 -1 -1 c 0 -2.5 2 -4.5 4.5 -4.5 c 0.6 0 1 0.4 1 1 s -0.4 1 -1 1 c -1.4 0 -2.5 1.1 -2.5 2.5 C 12 18.1 11.6 18.5 11 18.5 z" stroke-linecap="round" />
</g>
<g transform="matrix(4.17 0 0 4.17 175 191.67)" id="surface1"  >
<path style="stroke: none; stroke-width: 1; stroke-dasharray: none; stroke-linecap: butt; stroke-dashoffset: 0; stroke-linejoin: miter; stroke-miterlimit: 4; fill: rgb(104,159,56); fill-rule: nonzero; opacity: 1;"  transform=" translate(-18, -22)" d="M 20 25 c -0.6 0 -1 -0.4 -1 -1 c 0 -1.7 -1.3 -3 -3 -3 c -0.6 0 -1 -0.4 -1 -1 s 0.4 -1 1 -1 c 2.8 0 5 2.2 5 5 C 21 24.6 20.6 25 20 25 z" stroke-linecap="round" />
</g>
<g transform="matrix(4.17 0 0 4.17 159.38 219.79)" id="surface1"  >
<path style="stroke: none; stroke-width: 1; stroke-dasharray: none; stroke-linecap: butt; stroke-dashoffset: 0; stroke-linejoin: miter; stroke-miterlimit: 4; fill: rgb(104,159,56); fill-rule: nonzero; opacity: 1;"  transform=" translate(-14.25, -28.75)" d="M 13 31 c -0.6 0 -1 -0.4 -1 -1 c 0 -1.9 1.6 -3.5 3.5 -3.5 c 0.6 0 1 0.4 1 1 s -0.4 1 -1 1 c -0.8 0 -1.5 0.7 -1.5 1.5 C 14 30.6 13.6 31 13 31 z" stroke-linecap="round" />
</g>
</svg>