<?xml version="1.0" encoding="UTF-8" standalone="no" ?>
<!DOCTYPE svg PUBLIC "-//W3C//DTD SVG 1.1//EN" "http://www.w3.org/Graphics/SVG/1.1/DTD/svg11.dtd">
<svg xmlns="http://www.w3.org/2000/svg" xmlns:xlink="http://www.w3.org/1999/xlink" version="1.1" width="400" height="400" viewBox="0 0 400 400" xml:space="preserve">
<desc>Created with Fabric.js 3.6.2</desc>
<defs>
</defs>
<g transform="matrix(4.17 0 0 4.17 151.88 236.25)" id="surface1"  >
<path style="stroke: none; stroke-width: 1; stroke-dasharray: none; stroke-linecap: butt; stroke-dashoffset: 0; stroke-linejoin: miter; stroke-miterlimit: 4; fill: rgb(46,125,50); fill-rule: nonzero; opacity: 1;"  transform=" translate(-12.45, -32.7)" d="M 14.6 36.4 c -1.7 -4.1 -6 -6.5 -6.1 -6.5 L 9 29 c 0.2 0.1 5.4 1.9 7.4 6.6 L 14.6 36.4 z" stroke-linecap="round" />
</g>
<g transform="matrix(4.17 0 0 4.17 200 200)" id="surface1"  >
<path style="stroke: none; stroke-width: 1; stroke-dasharray: none; stroke-linecap: butt; stroke-dashoffset: 0; stroke-linejoin: miter; stroke-miterlimit: 4; fill: rgb(76,175,80); fill-rule: nonzero; opacity: 1;"  transform=" translate(-24, -24)" d="M 19 45 h -4 c 0 -0.2 0.4 -24 -3 -42 H 16 C 19.4 21.4 19 44.8 19 45 z M 26 3 h -4 c 1.2 15.4 1 41.7 1 42 l 4 0 C 27 44.8 27.2 18.6 26 3 z M 35 45 c -1.6 -19.7 1 -30 1 -30 s -5 6.5 -5 30 H 35 z" stroke-linecap="round" />
</g>
<g transform="matrix(4.17 0 0 4.17 235.42 172.86)" id="surface1"  >
<path style="stroke: none; stroke-width: 1; stroke-dasharray: none; stroke-linecap: butt; stroke-dashoffset: 0; stroke-linejoin: miter; stroke-miterlimit: 4; fill: rgb(76,175,80); fill-rule: nonzero; opacity: 1;"  transform=" translate(-32.5, -17.49)" d="M 36 15 c 0 0 -5.2 -0.7 -7 5 C 33.7 20 36 15 36 15 z" stroke-linecap="round" />
</g>
<g transform="matrix(4.17 0 0 4.17 200 189.58)" id="surface1"  >
<path style="stroke: none; stroke-width: 1; stroke-dasharray: none; stroke-linecap: butt; stroke-dashoffset: 0; stroke-linejoin: miter; stroke-miterlimit: 4; fill: rgb(56,142,60); fill-rule: nonzero; opacity: 1;"  transform=" translate(-24, -21.5)" d="M 33 4 c 0 0 -1.4 5 -7 6 C 28.5 5 33 4 33 4 z M 36 15 c 1.3 8 8 10 8 10 S 42.7 18.6 36 15 z M 13 12 c 0 0 -5 -2.8 -9 1 C 9.5 15.8 13 12 13 12 z M 11 39 c 0.1 -8.5 -2 -10 -2 -10 S 5.9 35.8 11 39 z" stroke-linecap="round" />
</g>
<g transform="matrix(4.17 0 0 4.17 188.04 200.02)" id="surface1"  >
<path style="stroke: none; stroke-width: 1; stroke-dasharray: none; stroke-linecap: butt; stroke-dashoffset: 0; stroke-linejoin: miter; stroke-miterlimit: 4; fill: rgb(76,175,80); fill-rule: nonzero; opacity: 1;"  transform=" translate(-21.13, -24.01)" d="M 37 11 c 0 0 -6.4 0.1 -11 -1 C 30.9 5 37 11 37 11 z M 36 15 c 0 5.6 1 12 1 12 S 42.7 18.6 36 15 z M 13 12 c 0 0 -6.7 2 -8 10 C 11.7 18.4 13 12 13 12 z M 3 28 c 0 0 1.5 1.4 6 1 C 7 25.4 3 28 3 28 z M 9 29 c 0 0 -5 2.6 -5 11 C 9.1 36.6 9 29 9 29 z" stroke-linecap="round" />
</g>
<g transform="matrix(4.17 0 0 4.17 200.21 204.17)" id="surface1"  >
<path style="stroke: none; stroke-width: 1; stroke-dasharray: none; stroke-linecap: butt; stroke-dashoffset: 0; stroke-linejoin: miter; stroke-miterlimit: 4; fill: rgb(56,142,60); fill-rule: nonzero; opacity: 1;"  transform=" translate(-24.05, -25)" d="M 26.5 42 h -3 c -0.6 0 -1 -0.4 -1 -1 s 0.4 -1 1 -1 h 3 c 0.6 0 1 0.4 1 1 S 27.1 42 26.5 42 z M 34 40 h -2.4 c -0.6 0 -1 -0.4 -1 -1 s 0.4 -1 1 -1 H 34 c 0.6 0 1 0.4 1 1 S 34.6 40 34 40 z M 18.5 37 h -3 c -0.6 0 -1 -0.4 -1 -1 s 0.4 -1 1 -1 h 3 c 0.6 0 1 0.4 1 1 S 19.1 37 18.5 37 z M 26.5 34 h -3 c -0.6 0 -1 -0.4 -1 -1 s 0.4 -1 1 -1 h 3 c 0.6 0 1 0.4 1 1 S 27.1 34 26.5 34 z M 34 33 h -2 c -0.6 0 -1 -0.4 -1 -1 s 0.4 -1 1 -1 h 2 c 0.6 0 1 0.4 1 1 S 34.6 33 34 33 z M 18.2 29 h -3 c -0.6 0 -1 -0.4 -1 -1 s 0.4 -1 1 -1 h 3 c 0.6 0 1 0.4 1 1 S 18.7 29 18.2 29 z M 34.1 26 h -0.9 c -0.6 0 -1 -0.4 -1 -1 c 0 -0.6 0.4 -1 1 -1 h 0.9 c 0.6 0 1 0.4 1 1 C 35.1 25.6 34.6 26 34.1 26 z M 26.5 26 h -3 c -0.6 0 -1 -0.4 -1 -1 c 0 -0.6 0.4 -1 1 -1 h 3 c 0.6 0 1 0.4 1 1 C 27.5 25.6 27.1 26 26.5 26 z M 17.8 21 h -3.2 c -0.6 0 -1 -0.4 -1 -1 s 0.4 -1 1 -1 h 3.2 c 0.6 0 1 0.4 1 1 S 18.3 21 17.8 21 z M 26.2 18 h -3 c -0.6 0 -1 -0.4 -1 -1 s 0.4 -1 1 -1 h 3 c 0.6 0 1 0.4 1 1 S 26.7 18 26.2 18 z M 17 13 h -3 c -0.6 0 -1 -0.4 -1 -1 s 0.4 -1 1 -1 h 3 c 0.6 0 1 0.4 1 1 S 17.6 13 17 13 z M 25.7 10 h -3 c -0.6 0 -1 -0.4 -1 -1 s 0.4 -1 1 -1 h 3 c 0.6 0 1 0.4 1 1 S 26.2 10 25.7 10 z" stroke-linecap="round" />
</g>
</svg>