<?xml version="1.0" encoding="UTF-8" standalone="no" ?>
<!DOCTYPE svg PUBLIC "-//W3C//DTD SVG 1.1//EN" "http://www.w3.org/Graphics/SVG/1.1/DTD/svg11.dtd">
<svg xmlns="http://www.w3.org/2000/svg" xmlns:xlink="http://www.w3.org/1999/xlink" version="1.1" width="400" height="400" viewBox="0 0 400 400" xml:space="preserve">
<desc>Created with Fabric.js 3.6.2</desc>
<defs>
</defs>
<g transform="matrix(4.17 0 0 4.17 200 200)" id="Layer_1"  >
<circle style="stroke: none; stroke-width: 1; stroke-dasharray: none; stroke-linecap: butt; stroke-dashoffset: 0; stroke-linejoin: miter; stroke-miterlimit: 4; fill: rgb(198,255,0); fill-rule: nonzero; opacity: 1;"  cx="0" cy="0" r="20" />
</g>
<g transform="matrix(4.17 0 0 4.17 239.58 160.42)" id="Layer_1"  >
<path style="stroke: none; stroke-width: 1; stroke-dasharray: none; stroke-linecap: butt; stroke-dashoffset: 0; stroke-linejoin: miter; stroke-miterlimit: 4; fill: rgb(250,250,250); fill-rule: nonzero; opacity: 1;"  transform=" translate(-33.5, -14.5)" d="M 44 24 c 0 0.25 0 0.5 -0.02 0.75 C 43 24.92 42 25 41 25 c -9.93 0 -18 -8.07 -18 -18 c 0 -1 0.08 -2 0.25 -2.98 C 23.5 4 23.75 4 24 4 c 0.43 0 0.85 0.01 1.27 0.05 C 25.09 5.02 25 6.01 25 7 c 0 8.82 7.18 16 16 16 c 0.99 0 1.98 -0.09 2.95 -0.27 C 43.99 23.15 44 23.57 44 24 z" stroke-linecap="round" />
</g>
<g transform="matrix(4.17 0 0 4.17 160.42 239.58)" id="Layer_1"  >
<path style="stroke: none; stroke-width: 1; stroke-dasharray: none; stroke-linecap: butt; stroke-dashoffset: 0; stroke-linejoin: miter; stroke-miterlimit: 4; fill: rgb(250,250,250); fill-rule: nonzero; opacity: 1;"  transform=" translate(-14.5, -33.5)" d="M 25 41 c 0 1 -0.08 2 -0.25 2.98 C 24.5 44 24.25 44 24 44 c -0.43 0 -0.85 -0.01 -1.27 -0.05 C 22.91 42.98 23 41.99 23 41 c 0 -8.82 -7.18 -16 -16 -16 c -0.99 0 -1.98 0.09 -2.95 0.27 C 4.01 24.85 4 24.43 4 24 c 0 -0.25 0 -0.5 0.02 -0.75 C 5 23.08 6 23 7 23 C 16.93 23 25 31.07 25 41 z" stroke-linecap="round" />
</g>
</svg>