<?xml version="1.0" encoding="UTF-8" standalone="no" ?>
<!DOCTYPE svg PUBLIC "-//W3C//DTD SVG 1.1//EN" "http://www.w3.org/Graphics/SVG/1.1/DTD/svg11.dtd">
<svg xmlns="http://www.w3.org/2000/svg" xmlns:xlink="http://www.w3.org/1999/xlink" version="1.1" width="400" height="400" viewBox="0 0 400 400" xml:space="preserve">
<desc>Created with Fabric.js 3.6.2</desc>
<defs>
</defs>
<g transform="matrix(4.17 0 0 4.17 200 183.33)" id="surface1"  >
<path style="stroke: none; stroke-width: 1; stroke-dasharray: none; stroke-linecap: butt; stroke-dashoffset: 0; stroke-linejoin: miter; stroke-miterlimit: 4; fill: rgb(67,160,71); fill-rule: nonzero; opacity: 1;"  transform=" translate(-24, -20)" d="M 21 38 C 18 35 8 23.300781 8 15 C 8 6.699219 15.699219 2 24 2 C 32.300781 2 40 6.699219 40 15 C 40 23.300781 30.101563 34.898438 27 38 Z" stroke-linecap="round" />
</g>
<g transform="matrix(4.17 0 0 4.17 179.17 183.33)" id="surface1"  >
<path style="stroke: none; stroke-width: 1; stroke-dasharray: none; stroke-linecap: butt; stroke-dashoffset: 0; stroke-linejoin: miter; stroke-miterlimit: 4; fill: rgb(253,216,53); fill-rule: nonzero; opacity: 1;"  transform=" translate(-19, -20)" d="M 24 2 C 24 2 14 4.898438 14 15 C 14 25.101563 23 38 23 38 L 24 38 C 24 38 20 26 20 15 C 20 4 24 2 24 2 Z" stroke-linecap="round" />
</g>
<g transform="matrix(4.17 0 0 4.17 220.83 183.33)" id="surface1"  >
<path style="stroke: none; stroke-width: 1; stroke-dasharray: none; stroke-linecap: butt; stroke-dashoffset: 0; stroke-linejoin: miter; stroke-miterlimit: 4; fill: rgb(253,216,53); fill-rule: nonzero; opacity: 1;"  transform=" translate(-29, -20)" d="M 24 2 C 24 2 28 4.199219 28 15 C 28 25.800781 24 38 24 38 L 25 38 C 25 38 34 25 34 15 C 34 5 24 2 24 2 Z" stroke-linecap="round" />
</g>
<g transform="matrix(4.17 0 0 4.17 200 164.61)" id="surface1"  >
<path style="stroke: none; stroke-width: 1; stroke-dasharray: none; stroke-linecap: butt; stroke-dashoffset: 0; stroke-linejoin: miter; stroke-miterlimit: 4; fill: rgb(255,179,0); fill-rule: nonzero; opacity: 1;"  transform=" translate(-24, -15.51)" d="M 20.101563 18 C 18.101563 19.300781 16.101563 19.398438 14.199219 18 C 14 17 13.898438 16 13.898438 15 C 13.898438 13.898438 14 12.898438 14.199219 12 C 16 13.398438 18 13.300781 20 12 C 20 12.898438 20 13.898438 20 15 C 20 16 20 17 20.101563 18 Z M 33.699219 12 C 31.898438 13.398438 29.898438 13.300781 27.898438 12 C 28 12.898438 28 13.898438 28 15 C 28 16 28 17 27.898438 18 C 29.898438 19.300781 31.898438 19.398438 33.800781 18 C 34 17 34.101563 16 34.101563 15 C 34 13.898438 33.898438 12.898438 33.699219 12 Z" stroke-linecap="round" />
</g>
<g transform="matrix(4.17 0 0 4.17 200 164.56)" id="surface1"  >
<path style="stroke: none; stroke-width: 1; stroke-dasharray: none; stroke-linecap: butt; stroke-dashoffset: 0; stroke-linejoin: miter; stroke-miterlimit: 4; fill: rgb(46,125,50); fill-rule: nonzero; opacity: 1;"  transform=" translate(-24, -15.49)" d="M 39.601563 18 C 38.398438 19.601563 35.601563 19 33.699219 18 C 33.898438 17 34 16 34 15 C 34 13.898438 33.898438 12.898438 33.699219 12 C 36.699219 13.398438 39.199219 13.300781 39.699219 12 C 39.898438 12.898438 40 13.898438 40 15 C 40 16 39.898438 17 39.601563 18 Z M 14.300781 12 C 12.398438 13 9.5 13.601563 8.300781 12 C 8.101563 12.898438 8 13.898438 8 15 C 8 16 8.101563 17 8.398438 18 C 9.601563 19.601563 12.398438 19 14.300781 18 C 14.101563 17 14 16 14 15 C 14 13.898438 14.101563 12.898438 14.300781 12 Z M 20 15 C 20 16 20 17 20.101563 18 C 22.699219 19.300781 25.300781 19.300781 27.898438 18 C 28 17 28 16 28 15 C 28 13.898438 28 12.898438 27.898438 12 C 25.300781 13.300781 22.699219 13.300781 20.101563 12 C 20 12.898438 20 13.898438 20 15 Z" stroke-linecap="round" />
</g>
<g transform="matrix(4.17 0 0 4.17 200 262.5)" id="surface1"  >
<path style="stroke: none; stroke-width: 1; stroke-dasharray: none; stroke-linecap: butt; stroke-dashoffset: 0; stroke-linejoin: miter; stroke-miterlimit: 4; fill: rgb(207,216,220); fill-rule: nonzero; opacity: 1;"  transform=" translate(-24, -39)" d="M 21 37 L 23 37 L 23 41 L 21 41 Z M 25 37 L 25 41 L 27 41 L 27 37 Z" stroke-linecap="round" />
</g>
<g transform="matrix(4.17 0 0 4.17 200 277.08)" id="surface1"  >
<path style="stroke: none; stroke-width: 1; stroke-dasharray: none; stroke-linecap: butt; stroke-dashoffset: 0; stroke-linejoin: miter; stroke-miterlimit: 4; fill: rgb(251,140,0); fill-rule: nonzero; opacity: 1;"  transform=" translate(-24, -42.5)" d="M 21 40 L 21 44 C 21 44.5 21.5 45 22 45 L 26 45 C 26.5 45 27 44.5 27 44 L 27 40 Z" stroke-linecap="round" />
</g>
<g transform="matrix(4.17 0 0 4.17 200 252.08)" id="surface1"  >
<path style="stroke: none; stroke-width: 1; stroke-dasharray: none; stroke-linecap: butt; stroke-dashoffset: 0; stroke-linejoin: miter; stroke-miterlimit: 4; fill: rgb(93,64,55); fill-rule: nonzero; opacity: 1;"  transform=" translate(-24, -36.5)" d="M 18.300781 35 C 19.398438 36.300781 20.398438 37.398438 21 38 L 27 38 C 27.699219 37.300781 28.601563 36.300781 29.699219 35 Z" stroke-linecap="round" />
</g>
</svg>