<?xml version="1.0" encoding="UTF-8" standalone="no" ?>
<!DOCTYPE svg PUBLIC "-//W3C//DTD SVG 1.1//EN" "http://www.w3.org/Graphics/SVG/1.1/DTD/svg11.dtd">
<svg xmlns="http://www.w3.org/2000/svg" xmlns:xlink="http://www.w3.org/1999/xlink" version="1.1" width="400" height="400" viewBox="0 0 400 400" xml:space="preserve">
<desc>Created with Fabric.js 3.6.2</desc>
<defs>
</defs>
<g transform="matrix(4.17 0 0 4.17 228.41 179.92)" id="surface1"  >
<path style="stroke: none; stroke-width: 1; stroke-dasharray: none; stroke-linecap: butt; stroke-dashoffset: 0; stroke-linejoin: miter; stroke-miterlimit: 4; fill: rgb(201,61,24); fill-rule: nonzero; opacity: 1;"  transform=" translate(-30.82, -19.18)" d="M 27.425781 27.449219 C 29.234375 26.101563 30.941406 24.625 32.535156 23.03125 L 42.671875 12.898438 C 43.441406 12.128906 42.816406 10.257813 41.277344 8.71875 C 39.742188 7.183594 37.871094 6.558594 37.101563 7.328125 L 26.96875 17.464844 C 25.375 19.058594 23.898438 20.765625 22.554688 22.578125 L 18.636719 27.84375 L 22.15625 31.363281 Z" stroke-linecap="round" />
</g>
<g transform="matrix(4.17 0 0 4.17 225.59 180.53)" id="surface1"  >
<path style="stroke: none; stroke-width: 1; stroke-dasharray: none; stroke-linecap: butt; stroke-dashoffset: 0; stroke-linejoin: miter; stroke-miterlimit: 4; fill: rgb(230,74,25); fill-rule: nonzero; opacity: 1;"  transform=" translate(-30.14, -19.33)" d="M 20.398438 29.601563 L 27.355469 19.859375 L 38.117188 9.097656 C 38.117188 9.097656 38.492188 8.71875 39.886719 10.113281 Z" stroke-linecap="round" />
</g>
<g transform="matrix(4.17 0 0 4.17 161.82 246.51)" id="surface1"  >
<path style="stroke: none; stroke-width: 1; stroke-dasharray: none; stroke-linecap: butt; stroke-dashoffset: 0; stroke-linejoin: miter; stroke-miterlimit: 4; fill: rgb(249,168,37); fill-rule: nonzero; opacity: 1;"  transform=" translate(-14.84, -35.16)" d="M 15.070313 37.019531 C 16.066406 36.019531 17.136719 35.097656 18.269531 34.253906 L 22.15625 31.363281 L 18.636719 27.84375 L 15.746094 31.730469 C 14.902344 32.863281 13.980469 33.933594 12.980469 34.929688 L 7.519531 40.390625 L 9.609375 42.480469 Z" stroke-linecap="round" />
</g>
<g transform="matrix(4.17 0 0 4.17 131.34 277)" id="surface1"  >
<path style="stroke: none; stroke-width: 1; stroke-dasharray: none; stroke-linecap: butt; stroke-dashoffset: 0; stroke-linejoin: miter; stroke-miterlimit: 4; fill: rgb(255,186,87); fill-rule: nonzero; opacity: 1;"  transform=" translate(-7.52, -42.48)" d="M 5.433594 40.390625 C 4.855469 40.96875 4.855469 41.902344 5.433594 42.480469 L 7.519531 44.566406 C 8.097656 45.144531 9.03125 45.144531 9.609375 44.566406 C 10.1875 43.992188 10.1875 43.058594 9.609375 42.480469 L 7.519531 40.390625 C 6.941406 39.816406 6.011719 39.816406 5.433594 40.390625" stroke-linecap="round" />
</g>
<g transform="matrix(4.17 0 0 4.17 187.5 145.83)" id="surface1"  >
<path style="stroke: none; stroke-width: 1; stroke-dasharray: none; stroke-linecap: butt; stroke-dashoffset: 0; stroke-linejoin: miter; stroke-miterlimit: 4; fill: rgb(214,199,178); fill-rule: nonzero; opacity: 1;"  transform=" translate(-21, -11)" d="M 25 11 C 25 13.207031 23.210938 15 21 15 C 18.789063 15 17 13.207031 17 11 C 17 8.789063 18.789063 7 21 7 C 23.210938 7 25 8.789063 25 11" stroke-linecap="round" />
</g>
<g transform="matrix(4.17 0 0 4.17 193.5 151.83)" id="surface1"  >
<path style="stroke: none; stroke-width: 1; stroke-dasharray: none; stroke-linecap: butt; stroke-dashoffset: 0; stroke-linejoin: miter; stroke-miterlimit: 4; fill: rgb(239,83,80); fill-rule: nonzero; opacity: 1;"  transform=" translate(-22.44, -12.44)" d="M 22.238281 12.238281 C 23.222656 11.25 24.234375 10.632813 24.945313 10.429688 C 24.921875 10.261719 24.882813 10.097656 24.839844 9.933594 C 23.929688 10.183594 22.804688 10.964844 21.882813 11.882813 C 20.964844 12.800781 20.1875 13.929688 19.933594 14.835938 C 20.097656 14.882813 20.261719 14.921875 20.429688 14.945313 C 20.632813 14.234375 21.253906 13.222656 22.238281 12.238281" stroke-linecap="round" />
</g>
<g transform="matrix(4.17 0 0 4.17 181.5 139.84)" id="surface1"  >
<path style="stroke: none; stroke-width: 1; stroke-dasharray: none; stroke-linecap: butt; stroke-dashoffset: 0; stroke-linejoin: miter; stroke-miterlimit: 4; fill: rgb(239,83,80); fill-rule: nonzero; opacity: 1;"  transform=" translate(-19.56, -9.56)" d="M 19.761719 9.761719 C 18.777344 10.746094 17.765625 11.367188 17.054688 11.570313 C 17.078125 11.738281 17.117188 11.902344 17.160156 12.066406 C 18.070313 11.816406 19.195313 11.035156 20.117188 10.117188 C 21.035156 9.199219 21.8125 8.070313 22.066406 7.164063 C 21.902344 7.117188 21.738281 7.078125 21.570313 7.054688 C 21.367188 7.765625 20.746094 8.777344 19.761719 9.761719" stroke-linecap="round" />
</g>
</svg>