<?xml version="1.0" encoding="UTF-8" standalone="no" ?>
<!DOCTYPE svg PUBLIC "-//W3C//DTD SVG 1.1//EN" "http://www.w3.org/Graphics/SVG/1.1/DTD/svg11.dtd">
<svg xmlns="http://www.w3.org/2000/svg" xmlns:xlink="http://www.w3.org/1999/xlink" version="1.1" width="400" height="400" viewBox="0 0 400 400" xml:space="preserve">
<desc>Created with Fabric.js 3.6.2</desc>
<defs>
</defs>
<g transform="matrix(4.17 0 0 4.17 199.58 248.75)" id="surface1"  >
<polygon style="stroke: none; stroke-width: 1; stroke-dasharray: none; stroke-linecap: butt; stroke-dashoffset: 0; stroke-linejoin: miter; stroke-miterlimit: 4; fill: rgb(176,190,197); fill-rule: nonzero; opacity: 1;"  points="-0.8,8.7 -6.1,-5.5 -4.3,-6.2 -0.9,2.8 -0.9,-8.7 1.1,-8.7 1.1,1.7 4.1,-8 6.1,-7.4 1.1,8.6 0.1,8.3 " />
</g>
<g transform="matrix(4.17 0 0 4.17 200 219.17)" id="surface1"  >
<path style="stroke: none; stroke-width: 1; stroke-dasharray: none; stroke-linecap: butt; stroke-dashoffset: 0; stroke-linejoin: miter; stroke-miterlimit: 4; fill: rgb(255,160,0); fill-rule: nonzero; opacity: 1;"  transform=" translate(-24, -28.6)" d="M 26 30 h -1 l -1 1 l -1 -1 h -1 l 1 -3.8 h 2 L 26 30 z" stroke-linecap="round" />
</g>
<g transform="matrix(4.17 0 0 4.17 181.25 229.38)" id="surface1"  >
<path style="stroke: none; stroke-width: 1; stroke-dasharray: none; stroke-linecap: butt; stroke-dashoffset: 0; stroke-linejoin: miter; stroke-miterlimit: 4; fill: rgb(85,139,47); fill-rule: nonzero; opacity: 1;"  transform=" translate(-19.5, -31.05)" d="M 21.6 31.8 l -0.9 0.4 l -0.6 1.3 l -1.3 -0.6 l -0.9 0.4 l -0.5 -3.9 l 1.9 -0.8 L 21.6 31.8 z" stroke-linecap="round" />
</g>
<g transform="matrix(4.17 0 0 4.17 158.34 185.45)" id="surface1"  >
<path style="stroke: none; stroke-width: 1; stroke-dasharray: none; stroke-linecap: butt; stroke-dashoffset: 0; stroke-linejoin: miter; stroke-miterlimit: 4; fill: rgb(124,179,66); fill-rule: nonzero; opacity: 1;"  transform=" translate(-14, -20.51)" d="M 22 15.4 c 2 4.6 1.3 13.2 -3.2 15.2 c -4.5 2 -11.1 -3.4 -13.1 -8 c -2 -4.6 0.1 -9.9 4.6 -11.9 C 14.8 8.8 20 10.8 22 15.4 z" stroke-linecap="round" />
</g>
<g transform="matrix(4.17 0 0 4.17 218.33 220)" id="surface1"  >
<path style="stroke: none; stroke-width: 1; stroke-dasharray: none; stroke-linecap: butt; stroke-dashoffset: 0; stroke-linejoin: miter; stroke-miterlimit: 4; fill: rgb(221,44,0); fill-rule: nonzero; opacity: 1;"  transform=" translate(-28.4, -28.8)" d="M 28.6 26.4 l 1.9 0.8 L 30 31 l -0.9 -0.4 l -1.3 0.6 l -0.6 -1.3 l -0.9 -0.4 L 28.6 26.4 z" stroke-linecap="round" />
</g>
<g transform="matrix(4.17 0 0 4.17 239.53 170.94)" id="surface1"  >
<path style="stroke: none; stroke-width: 1; stroke-dasharray: none; stroke-linecap: butt; stroke-dashoffset: 0; stroke-linejoin: miter; stroke-miterlimit: 4; fill: rgb(255,61,0); fill-rule: nonzero; opacity: 1;"  transform=" translate(-33.49, -17.03)" d="M 25.1 11.7 c -2.1 4.8 -1.4 13.8 3.3 15.9 c 4.7 2.1 11.7 -3.6 13.8 -8.3 S 42.1 8.9 37.4 6.8 C 32.7 4.7 27.2 6.9 25.1 11.7 z" stroke-linecap="round" />
</g>
<g transform="matrix(4.17 0 0 4.17 170.21 181.88)" id="surface1"  >
<path style="stroke: none; stroke-width: 1; stroke-dasharray: none; stroke-linecap: butt; stroke-dashoffset: 0; stroke-linejoin: miter; stroke-miterlimit: 4; fill: rgb(85,139,47); fill-rule: nonzero; opacity: 1;"  transform=" translate(-16.85, -19.65)" d="M 20.6 29.2 c 0.4 -0.5 0.8 -1.1 1.1 -1.7 C 17.3 25.6 14 18.7 14 14 c 0 -1.4 0.3 -2.7 0.8 -3.9 c -0.2 0 -0.3 0 -0.5 0 c -0.6 0 -1.1 0 -1.7 0.1 C 12.2 11.3 12 12.6 12 14 C 12 19.3 15.5 26.8 20.6 29.2 z" stroke-linecap="round" />
</g>
<g transform="matrix(4.17 0 0 4.17 144.96 177.01)" id="surface1"  >
<path style="stroke: none; stroke-width: 1; stroke-dasharray: none; stroke-linecap: butt; stroke-dashoffset: 0; stroke-linejoin: miter; stroke-miterlimit: 4; fill: rgb(241,248,233); fill-rule: nonzero; opacity: 1;"  transform=" translate(-10.79, -18.48)" d="M 8.9 23.6 C 7 19.4 9 14.4 13.3 12.5 c 0.5 -0.2 1 -0.4 1.5 -0.5 c -1.2 -0.1 -2.5 0 -3.7 0.6 c -3.7 1.6 -5.3 5.8 -3.7 9.5 c 0.5 1.2 1.3 2.2 2.3 2.9 C 9.4 24.6 9.1 24.1 8.9 23.6 z" stroke-linecap="round" />
</g>
<g transform="matrix(4.17 0 0 4.17 200 166.67)" id="surface1"  >
<path style="stroke: none; stroke-width: 1; stroke-dasharray: none; stroke-linecap: butt; stroke-dashoffset: 0; stroke-linejoin: miter; stroke-miterlimit: 4; fill: rgb(255,193,7); fill-rule: nonzero; opacity: 1;"  transform=" translate(-24, -16)" d="M 34 14 c 0 5.5 -4.5 14 -10 14 s -10 -8.5 -10 -14 S 18.5 4 24 4 S 34 8.5 34 14 z" stroke-linecap="round" />
</g>
<g transform="matrix(4.17 0 0 4.17 232.08 170.42)" id="surface1"  >
<path style="stroke: none; stroke-width: 1; stroke-dasharray: none; stroke-linecap: butt; stroke-dashoffset: 0; stroke-linejoin: miter; stroke-miterlimit: 4; fill: rgb(221,44,0); fill-rule: nonzero; opacity: 1;"  transform=" translate(-31.7, -16.9)" d="M 36 14 c 0 -3.1 -1.2 -5.8 -3.1 -8 c -0.8 0.1 -1.6 0.2 -2.3 0.5 C 32.7 8.4 34 11 34 14 c 0 4.3 -2.8 10.5 -6.6 12.9 c 0.3 0.3 0.7 0.5 1 0.6 c 0.3 0.1 0.7 0.3 1.1 0.3 C 33.5 24.7 36 18.6 36 14 z" stroke-linecap="round" />
</g>
<g transform="matrix(4.17 0 0 4.17 192.08 150)" id="surface1"  >
<path style="stroke: none; stroke-width: 1; stroke-dasharray: none; stroke-linecap: butt; stroke-dashoffset: 0; stroke-linejoin: miter; stroke-miterlimit: 4; fill: rgb(255,253,231); fill-rule: nonzero; opacity: 1;"  transform=" translate(-22.1, -12)" d="M 17 16.3 c 0 -5.2 4.2 -9.4 9.4 -9.4 C 27 7 27.5 7 28.1 7.1 c -1.2 -0.7 -2.5 -1.1 -4 -1.1 c -4.4 0 -8 3.6 -8 8 c 0 1.4 0.4 2.8 1.1 4 C 17.1 17.5 17 16.9 17 16.3 z" stroke-linecap="round" />
</g>
</svg>