<?xml version="1.0" encoding="UTF-8" standalone="no" ?>
<!DOCTYPE svg PUBLIC "-//W3C//DTD SVG 1.1//EN" "http://www.w3.org/Graphics/SVG/1.1/DTD/svg11.dtd">
<svg xmlns="http://www.w3.org/2000/svg" xmlns:xlink="http://www.w3.org/1999/xlink" version="1.1" width="400" height="400" viewBox="0 0 400 400" xml:space="preserve">
<desc>Created with Fabric.js 3.6.2</desc>
<defs>
</defs>
<g transform="matrix(4.17 0 0 4.17 200 264.79)" id="surface1"  >
<path style="stroke: none; stroke-width: 1; stroke-dasharray: none; stroke-linecap: butt; stroke-dashoffset: 0; stroke-linejoin: miter; stroke-miterlimit: 4; fill: rgb(176,190,197); fill-rule: nonzero; opacity: 1;"  transform=" translate(-24, -39.55)" d="M 24.3 46.1 L 23 44.6 c 0 0 1 -0.9 1 -2.6 c 0 -0.5 -0.4 -1 -0.8 -1.5 c -0.5 -0.7 -1.2 -1.7 -1.2 -2.9 c 0 -0.8 0.2 -1.5 0.5 -2.2 c 0.3 -0.7 0.5 -1.4 0.5 -2.4 h 2 c 0 1.4 -0.4 2.4 -0.6 3.1 c -0.2 0.5 -0.4 1 -0.4 1.5 c 0 0.6 0.4 1.1 0.8 1.7 C 25.4 40 26 40.9 26 42 C 26 44.6 24.4 46 24.3 46.1 z" stroke-linecap="round" />
</g>
<g transform="matrix(4.17 0 0 4.17 200 235.42)" id="surface1"  >
<path style="stroke: none; stroke-width: 1; stroke-dasharray: none; stroke-linecap: butt; stroke-dashoffset: 0; stroke-linejoin: miter; stroke-miterlimit: 4; fill: rgb(221,44,0); fill-rule: nonzero; opacity: 1;"  transform=" translate(-24, -32.5)" d="M 26 34 h -1 l -1 1 l -1 -1 h -1 l 1 -4 h 2 L 26 34 z" stroke-linecap="round" />
</g>
<g transform="matrix(4.17 0 0 4.17 200 168.75)" id="surface1"  >
<path style="stroke: none; stroke-width: 1; stroke-dasharray: none; stroke-linecap: butt; stroke-dashoffset: 0; stroke-linejoin: miter; stroke-miterlimit: 4; fill: rgb(255,61,0); fill-rule: nonzero; opacity: 1;"  transform=" translate(-24, -16.5)" d="M 24 31 c -6.8 0 -12 -10.2 -12 -16.8 C 12 7.5 17.4 2 24 2 s 12 5.5 12 12.2 C 36 20.8 30.8 31 24 31 z" stroke-linecap="round" />
</g>
<g transform="matrix(4.17 0 0 4.17 190.63 148.96)" id="surface1"  >
<path style="stroke: none; stroke-width: 1; stroke-dasharray: none; stroke-linecap: butt; stroke-dashoffset: 0; stroke-linejoin: miter; stroke-miterlimit: 4; fill: rgb(251,233,231); fill-rule: nonzero; opacity: 1;"  transform=" translate(-21.75, -11.75)" d="M 16 16.5 C 16 10.7 20.7 6 26.5 6 c 0.7 0 1.3 0.1 2 0.2 C 27.1 5.4 25.6 5 24 5 c -5 0 -9 4 -9 9 c 0 1.6 0.4 3.1 1.2 4.5 C 16.1 17.8 16 17.2 16 16.5 z" stroke-linecap="round" />
</g>
</svg>