<?xml version="1.0" encoding="UTF-8" standalone="no" ?>
<!DOCTYPE svg PUBLIC "-//W3C//DTD SVG 1.1//EN" "http://www.w3.org/Graphics/SVG/1.1/DTD/svg11.dtd">
<svg xmlns="http://www.w3.org/2000/svg" xmlns:xlink="http://www.w3.org/1999/xlink" version="1.1" width="400" height="400" viewBox="0 0 400 400" xml:space="preserve">
<desc>Created with Fabric.js 3.6.2</desc>
<defs>
</defs>
<g transform="matrix(4.17 0 0 4.17 241.67 191.67)" id="surface1"  >
<path style="stroke: none; stroke-width: 1; stroke-dasharray: none; stroke-linecap: butt; stroke-dashoffset: 0; stroke-linejoin: miter; stroke-miterlimit: 4; fill: rgb(21,101,192); fill-rule: nonzero; opacity: 1;"  transform=" translate(-34, -22)" d="M 32 5 C 39.699219 5 42 15.601563 42 24 C 42 32.101563 38.898438 39 34 39 C 29.101563 39 28 34.601563 28 31 C 28 27.199219 29 23.199219 29 20 C 29 15.199219 26 14 26 11 C 26 8 28.101563 5 32 5 Z" stroke-linecap="round" />
</g>
<g transform="matrix(4.17 0 0 4.17 248.96 189.16)" id="surface1"  >
<path style="stroke: none; stroke-width: 1; stroke-dasharray: none; stroke-linecap: butt; stroke-dashoffset: 0; stroke-linejoin: miter; stroke-miterlimit: 4; fill: rgb(227,159,0); fill-rule: nonzero; opacity: 1;"  transform=" translate(-35.75, -21.4)" d="M 31 16.898438 L 29.300781 18 C 33.300781 23.800781 41.398438 25.800781 41.699219 25.898438 L 42.199219 24 C 42.101563 24 34.5 22.101563 31 16.898438 Z" stroke-linecap="round" />
</g>
<g transform="matrix(4.17 0 0 4.17 247.88 189.7)" id="surface1"  >
<path style="stroke: none; stroke-width: 1; stroke-dasharray: none; stroke-linecap: butt; stroke-dashoffset: 0; stroke-linejoin: miter; stroke-miterlimit: 4; fill: rgb(255,193,7); fill-rule: nonzero; opacity: 1;"  transform=" translate(-35.49, -21.53)" d="M 41.699219 16.300781 C 41.199219 16 40.601563 16.199219 40.300781 16.699219 C 40.300781 16.800781 36.398438 24 29.601563 25 C 29.101563 25.101563 28.699219 25.601563 28.800781 26.101563 C 28.898438 26.601563 29.300781 26.898438 29.800781 26.898438 C 29.800781 26.898438 29.898438 26.898438 30 26.898438 C 37.699219 25.699219 41.898438 17.800781 42.101563 17.5 C 42.300781 17.199219 42.199219 16.601563 41.699219 16.300781 Z" stroke-linecap="round" />
</g>
<g transform="matrix(4.17 0 0 4.17 241.67 191.67)" id="surface1"  >
<path style="stroke: none; stroke-width: 1; stroke-dasharray: none; stroke-linecap: butt; stroke-dashoffset: 0; stroke-linejoin: miter; stroke-miterlimit: 4; fill: rgb(144,202,249); fill-rule: nonzero; opacity: 1;"  transform=" translate(-34, -22)" d="M 32 4 C 27.5 4 25 7.601563 25 11 C 25 14 28 16.199219 28 20 C 28 24.800781 27 27.300781 27 31 C 27 37.300781 29.601563 40 34 40 C 39.800781 40 43 32.199219 43 24 C 43 14.300781 40.101563 4 32 4 Z M 41 23.101563 C 40.898438 28 38.898438 30 36.199219 30 C 29.300781 30 32 23.199219 32 21.101563 C 32 15.199219 29 12.5 29 9.601563 C 29 8 30.101563 6 32.898438 6 C 40 7 40.898438 18.898438 41 23.101563 Z" stroke-linecap="round" />
</g>
<g transform="matrix(4.17 0 0 4.17 158.33 204.17)" id="surface1"  >
<path style="stroke: none; stroke-width: 1; stroke-dasharray: none; stroke-linecap: butt; stroke-dashoffset: 0; stroke-linejoin: miter; stroke-miterlimit: 4; fill: rgb(21,101,192); fill-rule: nonzero; opacity: 1;"  transform=" translate(-14, -25)" d="M 22 14 C 22 17 19 18.199219 19 23 C 19 26.199219 20 30.199219 20 34 C 20 37.601563 18.898438 42 14 42 C 9.101563 42 6 35.101563 6 27 C 6 18.601563 8.300781 8 16 8 C 19.898438 8 22 11 22 14 Z" stroke-linecap="round" />
</g>
<g transform="matrix(4.17 0 0 4.17 151.04 201.66)" id="surface1"  >
<path style="stroke: none; stroke-width: 1; stroke-dasharray: none; stroke-linecap: butt; stroke-dashoffset: 0; stroke-linejoin: miter; stroke-miterlimit: 4; fill: rgb(227,159,0); fill-rule: nonzero; opacity: 1;"  transform=" translate(-12.25, -24.4)" d="M 17 19.898438 L 18.699219 21 C 14.699219 26.800781 6.601563 28.800781 6.300781 28.898438 L 5.800781 27 C 5.898438 27 13.5 25.101563 17 19.898438 Z" stroke-linecap="round" />
</g>
<g transform="matrix(4.17 0 0 4.17 152.12 202.2)" id="surface1"  >
<path style="stroke: none; stroke-width: 1; stroke-dasharray: none; stroke-linecap: butt; stroke-dashoffset: 0; stroke-linejoin: miter; stroke-miterlimit: 4; fill: rgb(255,193,7); fill-rule: nonzero; opacity: 1;"  transform=" translate(-12.51, -24.53)" d="M 6.300781 19.300781 C 6.800781 19 7.398438 19.199219 7.699219 19.699219 C 7.699219 19.800781 11.601563 27 18.398438 28 C 18.898438 28.101563 19.300781 28.601563 19.199219 29.101563 C 19.101563 29.601563 18.699219 29.898438 18.199219 29.898438 C 18.199219 29.898438 18.101563 29.898438 18 29.898438 C 10.300781 28.898438 6.101563 21 5.898438 20.699219 C 5.699219 20.199219 5.800781 19.601563 6.300781 19.300781 Z" stroke-linecap="round" />
</g>
<g transform="matrix(4.17 0 0 4.17 158.33 204.17)" id="surface1"  >
<path style="stroke: none; stroke-width: 1; stroke-dasharray: none; stroke-linecap: butt; stroke-dashoffset: 0; stroke-linejoin: miter; stroke-miterlimit: 4; fill: rgb(144,202,249); fill-rule: nonzero; opacity: 1;"  transform=" translate(-14, -25)" d="M 5 27 C 5 35.199219 8.199219 43 14 43 C 18.398438 43 21 40.199219 21 34 C 21 30.398438 20 27.800781 20 23 C 20 19.199219 23 17 23 14 C 23 10.601563 20.5 7 16 7 C 7.898438 7 5 17.300781 5 27 Z M 15.101563 9.101563 C 17.800781 9.101563 19 11.101563 19 12.699219 C 19 15.601563 16 18.300781 16 24.199219 C 16 26.199219 18.699219 33.101563 11.800781 33.101563 C 9.199219 33.101563 7.101563 31.101563 7 26.199219 C 7.101563 21.898438 8 10 15.101563 9.101563 Z" stroke-linecap="round" />
</g>
</svg>