<?xml version="1.0" encoding="UTF-8" standalone="no" ?>
<!DOCTYPE svg PUBLIC "-//W3C//DTD SVG 1.1//EN" "http://www.w3.org/Graphics/SVG/1.1/DTD/svg11.dtd">
<svg xmlns="http://www.w3.org/2000/svg" xmlns:xlink="http://www.w3.org/1999/xlink" version="1.1" width="400" height="400" viewBox="0 0 400 400" xml:space="preserve">
<desc>Created with Fabric.js 3.6.2</desc>
<defs>
</defs>
<g transform="matrix(4.17 0 0 4.17 212 155.51)" id="surface1"  >
<path style="stroke: none; stroke-width: 1; stroke-dasharray: none; stroke-linecap: butt; stroke-dashoffset: 0; stroke-linejoin: miter; stroke-miterlimit: 4; fill: rgb(84,110,122); fill-rule: nonzero; opacity: 1;"  transform=" translate(-26.88, -13.32)" d="M 18.101563 20.644531 C 17.523438 20.644531 16.976563 20.496094 16.554688 20.285156 L 17.449219 18.496094 C 17.855469 18.691406 18.636719 18.886719 19.105469 17.945313 C 20.105469 15.949219 22.152344 12.824219 24.292969 10.683594 C 25.285156 9.691406 27.1875 8.21875 29.191406 7.164063 C 31.800781 5.792969 33.65625 5.632813 34.707031 6.683594 L 37.207031 9.183594 L 35.792969 10.597656 L 33.292969 8.097656 C 32.558594 7.363281 28.089844 9.71875 25.707031 12.097656 C 23.8125 13.992188 21.855469 16.921875 20.894531 18.839844 C 20.21875 20.191406 19.113281 20.644531 18.101563 20.644531 Z" stroke-linecap="round" />
</g>
<g transform="matrix(4.17 0 0 4.17 127.1 272.83)" id="surface1"  >
<path style="stroke: none; stroke-width: 1; stroke-dasharray: none; stroke-linecap: butt; stroke-dashoffset: 0; stroke-linejoin: miter; stroke-miterlimit: 4; fill: rgb(84,110,122); fill-rule: nonzero; opacity: 1;"  transform=" translate(-6.5, -41.48)" d="M 5 41.605469 L 6.324219 40.230469 C 6.71875 39.839844 7.285156 39.882813 7.679688 40.273438 C 8.070313 40.664063 8.132813 41.253906 7.742188 41.644531 L 6.359375 43 Z" stroke-linecap="round" />
</g>
<g transform="matrix(4.17 0 0 4.17 205.98 194.02)" id="surface1"  >
<path style="stroke: none; stroke-width: 1; stroke-dasharray: none; stroke-linecap: butt; stroke-dashoffset: 0; stroke-linejoin: miter; stroke-miterlimit: 4; fill: rgb(240,98,146); fill-rule: nonzero; opacity: 1;"  transform=" translate(-25.44, -22.56)" d="M 9.976563 32.726563 C 9.976563 32.726563 17.09375 23.960938 23.246094 17.808594 C 29.410156 11.640625 35.183594 7.308594 35.238281 7.269531 C 35.566406 7.023438 36.023438 7.054688 36.316406 7.34375 L 40.652344 11.679688 C 40.945313 11.972656 40.976563 12.429688 40.730469 12.761719 C 40.6875 12.816406 36.359375 18.589844 30.191406 24.753906 C 24.039063 30.90625 15.355469 37.953125 15.273438 38.023438 Z" stroke-linecap="round" />
</g>
<g transform="matrix(4.17 0 0 4.17 262.94 137.04)" id="surface1"  >
<path style="stroke: none; stroke-width: 1; stroke-dasharray: none; stroke-linecap: butt; stroke-dashoffset: 0; stroke-linejoin: miter; stroke-miterlimit: 4; fill: rgb(216,27,96); fill-rule: nonzero; opacity: 1;"  transform=" translate(-39.11, -8.89)" d="M 35.238281 7.269531 C 37.433594 5.941406 39.246094 5.015625 40.628906 5.015625 C 41.316406 5.015625 41.894531 5.238281 42.328125 5.671875 C 43.875 7.222656 42.363281 10.058594 40.730469 12.761719 Z" stroke-linecap="round" />
</g>
<g transform="matrix(4.17 0 0 4.17 145 254.94)" id="surface1"  >
<path style="stroke: none; stroke-width: 1; stroke-dasharray: none; stroke-linecap: butt; stroke-dashoffset: 0; stroke-linejoin: miter; stroke-miterlimit: 4; fill: rgb(216,27,96); fill-rule: nonzero; opacity: 1;"  transform=" translate(-10.8, -37.19)" d="M 7.738281 41.644531 C 8.859375 41.445313 11.429688 40.726563 15.273438 38.023438 L 9.972656 32.726563 C 7.273438 36.570313 6.523438 39.113281 6.324219 40.230469 Z" stroke-linecap="round" />
</g>
</svg>