<?xml version="1.0" encoding="UTF-8" standalone="no" ?>
<!DOCTYPE svg PUBLIC "-//W3C//DTD SVG 1.1//EN" "http://www.w3.org/Graphics/SVG/1.1/DTD/svg11.dtd">
<svg xmlns="http://www.w3.org/2000/svg" xmlns:xlink="http://www.w3.org/1999/xlink" version="1.1" width="400" height="400" viewBox="0 0 400 400" xml:space="preserve">
<desc>Created with Fabric.js 3.6.2</desc>
<defs>
</defs>
<g transform="matrix(4.17 0 0 4.17 250.25 152.5)" id="surface1"  >
<path style="stroke: none; stroke-width: 1; stroke-dasharray: none; stroke-linecap: butt; stroke-dashoffset: 0; stroke-linejoin: miter; stroke-miterlimit: 4; fill: rgb(255,128,171); fill-rule: nonzero; opacity: 1;"  transform=" translate(-36.06, -12.6)" d="M 34.695313 20 C 34.695313 20 45.3125 17.75 39 5 C 37.179688 7.277344 33.609375 9.015625 32 11.988281 C 31.144531 13.570313 30.679688 15.789063 31.695313 18 C 31.695313 18 30.824219 20.992188 34.695313 20 Z" stroke-linecap="round" />
</g>
<g transform="matrix(4.17 0 0 4.17 149.76 152.5)" id="surface1"  >
<path style="stroke: none; stroke-width: 1; stroke-dasharray: none; stroke-linecap: butt; stroke-dashoffset: 0; stroke-linejoin: miter; stroke-miterlimit: 4; fill: rgb(255,128,171); fill-rule: nonzero; opacity: 1;"  transform=" translate(-11.94, -12.6)" d="M 13.308594 20 C 13.308594 20 2.691406 17.75 9.003906 5 C 10.824219 7.277344 14.394531 9.015625 16.003906 11.988281 C 16.859375 13.570313 17.324219 15.789063 16.308594 18 C 16.308594 18 17.179688 20.992188 13.308594 20 Z" stroke-linecap="round" />
</g>
<g transform="matrix(4.17 0 0 4.17 245.83 164.83)" id="surface1"  >
<path style="stroke: none; stroke-width: 1; stroke-dasharray: none; stroke-linecap: butt; stroke-dashoffset: 0; stroke-linejoin: miter; stroke-miterlimit: 4; fill: rgb(136,14,79); fill-rule: nonzero; opacity: 1;"  transform=" translate(-35, -15.56)" d="M 33 17 C 33 17.550781 35.125 16 36 16 C 36.554688 16 37 15.554688 37 15 C 37 14.449219 36.554688 14 36 14 C 35.0625 14 33 16.449219 33 17 Z" stroke-linecap="round" />
</g>
<g transform="matrix(4.17 0 0 4.17 154.17 164.83)" id="surface1"  >
<path style="stroke: none; stroke-width: 1; stroke-dasharray: none; stroke-linecap: butt; stroke-dashoffset: 0; stroke-linejoin: miter; stroke-miterlimit: 4; fill: rgb(136,14,79); fill-rule: nonzero; opacity: 1;"  transform=" translate(-13, -15.56)" d="M 15 17 C 15 17.550781 13.0625 16 12 16 C 11.445313 16 11 15.554688 11 15 C 11 14.449219 11.445313 14 12 14 C 13 14 15 16.449219 15 17 Z" stroke-linecap="round" />
</g>
<g transform="matrix(4.17 0 0 4.17 200 193.75)" id="surface1"  >
<path style="stroke: none; stroke-width: 1; stroke-dasharray: none; stroke-linecap: butt; stroke-dashoffset: 0; stroke-linejoin: miter; stroke-miterlimit: 4; fill: rgb(248,187,208); fill-rule: nonzero; opacity: 1;"  transform=" translate(-24, -22.5)" d="M 35 22.5 C 35 15.042969 30.074219 9 24 9 C 17.925781 9 13 15.042969 13 22.5 C 13 29.957031 17.925781 36 24 36 C 30.074219 36 35 29.957031 35 22.5 Z" stroke-linecap="round" />
</g>
<g transform="matrix(4.17 0 0 4.17 200 225)" id="surface1"  >
<path style="stroke: none; stroke-width: 1; stroke-dasharray: none; stroke-linecap: butt; stroke-dashoffset: 0; stroke-linejoin: miter; stroke-miterlimit: 4; fill: rgb(248,187,208); fill-rule: nonzero; opacity: 1;"  transform=" translate(-24, -30)" d="M 40 30 C 40 23.371094 32.835938 18 24 18 C 15.164063 18 8 23.371094 8 30 C 8 36.628906 15.164063 42 24 42 C 32.835938 42 40 36.628906 40 30 Z" stroke-linecap="round" />
</g>
<g transform="matrix(4.17 0 0 4.17 200 266.67)" id="surface1"  >
<path style="stroke: none; stroke-width: 1; stroke-dasharray: none; stroke-linecap: butt; stroke-dashoffset: 0; stroke-linejoin: miter; stroke-miterlimit: 4; fill: rgb(248,187,208); fill-rule: nonzero; opacity: 1;"  transform=" translate(-24, -40)" d="M 29 40 C 29 38.34375 26.761719 37 24 37 C 21.238281 37 19 38.34375 19 40 C 19 41.65625 21.238281 43 24 43 C 26.761719 43 29 41.65625 29 40 Z" stroke-linecap="round" />
</g>
<g transform="matrix(4.17 0 0 4.17 200 204.17)" id="surface1"  >
<path style="stroke: none; stroke-width: 1; stroke-dasharray: none; stroke-linecap: butt; stroke-dashoffset: 0; stroke-linejoin: miter; stroke-miterlimit: 4; fill: rgb(252,228,236); fill-rule: nonzero; opacity: 1;"  transform=" translate(-24, -25)" d="M 31 26 C 31 28.761719 27.867188 30 24 30 C 20.132813 30 17 28.761719 17 26 C 17 23.238281 20.132813 20 24 20 C 27.867188 20 31 23.238281 31 26 Z" stroke-linecap="round" />
</g>
<g transform="matrix(4.17 0 0 4.17 216.67 183.33)" id="surface1"  >
<path style="stroke: none; stroke-width: 1; stroke-dasharray: none; stroke-linecap: butt; stroke-dashoffset: 0; stroke-linejoin: miter; stroke-miterlimit: 4; fill: rgb(38,50,56); fill-rule: nonzero; opacity: 1;"  transform=" translate(-28, -20)" d="M 29 20 C 29 20.550781 28.550781 21 28 21 C 27.449219 21 27 20.550781 27 20 C 27 19.449219 27.449219 19 28 19 C 28.550781 19 29 19.449219 29 20 Z" stroke-linecap="round" />
</g>
<g transform="matrix(4.17 0 0 4.17 199.62 247.73)" id="surface1"  >
<path style="stroke: none; stroke-width: 1; stroke-dasharray: none; stroke-linecap: butt; stroke-dashoffset: 0; stroke-linejoin: miter; stroke-miterlimit: 4; fill: rgb(183,28,28); fill-rule: nonzero; opacity: 1;"  transform=" translate(-23.91, -35.46)" d="M 15.816406 33 C 15.816406 33 18.992188 37.910156 24 37.910156 C 29.007813 37.910156 32 33 32 33 Z" stroke-linecap="round" />
</g>
<g transform="matrix(4.17 0 0 4.17 200 235.42)" id="surface1"  >
<path style="stroke: none; stroke-width: 1; stroke-dasharray: none; stroke-linecap: butt; stroke-dashoffset: 0; stroke-linejoin: miter; stroke-miterlimit: 4; fill: rgb(213,0,0); fill-rule: nonzero; opacity: 1;"  transform=" translate(-24, -32.5)" d="M 26 31 C 24.746094 31 24 32 24 32 C 24 32 23.253906 31 22 31 C 19.808594 31 18.660156 33 15.816406 33 C 15.816406 33 19.367188 34 24 34 C 28.632813 34 32.183594 33 32.183594 33 C 29.339844 33 28.191406 31 26 31 Z" stroke-linecap="round" />
</g>
<g transform="matrix(4.17 0 0 4.17 216.67 183.33)" id="surface1"  >
<path style="stroke: none; stroke-width: 1; stroke-dasharray: none; stroke-linecap: butt; stroke-dashoffset: 0; stroke-linejoin: miter; stroke-miterlimit: 4; fill: rgb(33,33,33); fill-rule: nonzero; opacity: 1;"  transform=" translate(-28, -20)" d="M 29 20 C 29 20.550781 28.550781 21 28 21 C 27.449219 21 27 20.550781 27 20 C 27 19.449219 27.449219 19 28 19 C 28.550781 19 29 19.449219 29 20 Z" stroke-linecap="round" />
</g>
<g transform="matrix(4.17 0 0 4.17 183.33 183.17)" id="surface1"  >
<path style="stroke: none; stroke-width: 1; stroke-dasharray: none; stroke-linecap: butt; stroke-dashoffset: 0; stroke-linejoin: miter; stroke-miterlimit: 4; fill: rgb(33,33,33); fill-rule: nonzero; opacity: 1;"  transform=" translate(-20, -19.96)" d="M 21 19.960938 C 21 20.515625 20.550781 20.960938 20 20.960938 C 19.449219 20.960938 19 20.515625 19 19.960938 C 19 19.410156 19.449219 18.960938 20 18.960938 C 20.550781 18.960938 21 19.410156 21 19.960938 Z" stroke-linecap="round" />
</g>
<g transform="matrix(4.17 0 0 4.17 187.5 206.25)" id="surface1"  >
<path style="stroke: none; stroke-width: 1; stroke-dasharray: none; stroke-linecap: butt; stroke-dashoffset: 0; stroke-linejoin: miter; stroke-miterlimit: 4; fill: rgb(136,14,79); fill-rule: nonzero; opacity: 1;"  transform=" translate(-21, -25.5)" d="M 22 25.5 C 22 24.671875 21.550781 24 21 24 C 20.449219 24 20 24.671875 20 25.5 C 20 26.328125 20.449219 27 21 27 C 21.550781 27 22 26.328125 22 25.5 Z" stroke-linecap="round" />
</g>
<g transform="matrix(4.17 0 0 4.17 212.5 206.25)" id="surface1"  >
<path style="stroke: none; stroke-width: 1; stroke-dasharray: none; stroke-linecap: butt; stroke-dashoffset: 0; stroke-linejoin: miter; stroke-miterlimit: 4; fill: rgb(136,14,79); fill-rule: nonzero; opacity: 1;"  transform=" translate(-27, -25.5)" d="M 28 25.5 C 28 24.671875 27.550781 24 27 24 C 26.449219 24 26 24.671875 26 25.5 C 26 26.328125 26.449219 27 27 27 C 27.550781 27 28 26.328125 28 25.5 Z" stroke-linecap="round" />
</g>
</svg>