<?xml version="1.0" encoding="UTF-8" standalone="no" ?>
<!DOCTYPE svg PUBLIC "-//W3C//DTD SVG 1.1//EN" "http://www.w3.org/Graphics/SVG/1.1/DTD/svg11.dtd">
<svg xmlns="http://www.w3.org/2000/svg" xmlns:xlink="http://www.w3.org/1999/xlink" version="1.1" width="400" height="400" viewBox="0 0 400 400" xml:space="preserve">
<desc>Created with Fabric.js 3.6.2</desc>
<defs>
</defs>
<g transform="matrix(4.17 0 0 4.17 247.92 231.25)" id="surface1"  >
<path style="stroke: none; stroke-width: 1; stroke-dasharray: none; stroke-linecap: butt; stroke-dashoffset: 0; stroke-linejoin: miter; stroke-miterlimit: 4; fill: rgb(96,125,139); fill-rule: nonzero; opacity: 1;"  transform=" translate(-35.5, -31.5)" d="M 42 37 H 31 c -1.1 0 -2 -0.9 -2 -2 v -9 h 4 v 7 h 9 V 37 z" stroke-linecap="round" />
</g>
<g transform="matrix(4.17 0 0 4.17 281.25 245.83)" id="surface1"  >
<path style="stroke: none; stroke-width: 1; stroke-dasharray: none; stroke-linecap: butt; stroke-dashoffset: 0; stroke-linejoin: miter; stroke-miterlimit: 4; fill: rgb(69,90,100); fill-rule: nonzero; opacity: 1;"  transform=" translate(-43.5, -35)" d="M 45 28 h -1 c -1.1 0 -2 0.9 -2 2 v 10 c 0 1.1 0.9 2 2 2 h 1 V 28 z" stroke-linecap="round" />
</g>
<g transform="matrix(4.17 0 0 4.17 229.17 195.83)" id="surface1"  >
<path style="stroke: none; stroke-width: 1; stroke-dasharray: none; stroke-linecap: butt; stroke-dashoffset: 0; stroke-linejoin: miter; stroke-miterlimit: 4; fill: rgb(69,90,100); fill-rule: nonzero; opacity: 1;"  transform=" translate(-31, -23)" d="M 35 18 c 0 2 0 3.8 0 6 s -1.8 4 -4 4 s -4 -1.8 -4 -4 s 0 -6 0 -6 H 35 z" stroke-linecap="round" />
</g>
<g transform="matrix(4.17 0 0 4.17 135.27 184.57)" id="surface1"  >
<path style="stroke: none; stroke-width: 1; stroke-dasharray: none; stroke-linecap: butt; stroke-dashoffset: 0; stroke-linejoin: miter; stroke-miterlimit: 4; fill: rgb(63,81,181); fill-rule: nonzero; opacity: 1;"  transform=" translate(-8.46, -20.3)" d="M 5 19.2 c 0 0 -0.3 3.8 3.6 4.9 s 3.3 -7.7 3.3 -7.7 L 5 19.2 z" stroke-linecap="round" />
</g>
<g transform="matrix(4.17 0 0 4.17 202.5 177.29)" id="surface1"  >
<path style="stroke: none; stroke-width: 1; stroke-dasharray: none; stroke-linecap: butt; stroke-dashoffset: 0; stroke-linejoin: miter; stroke-miterlimit: 4; fill: rgb(197,202,233); fill-rule: nonzero; opacity: 1;"  transform=" translate(-24.6, -18.55)" d="M 39.9 19.8 l -23.9 11 L 9.3 17.3 l 24.5 -11 L 39.9 19.8 z" stroke-linecap="round" />
</g>
<g transform="matrix(4.17 0 0 4.17 253.33 154.38)" id="surface1"  >
<path style="stroke: none; stroke-width: 1; stroke-dasharray: none; stroke-linecap: butt; stroke-dashoffset: 0; stroke-linejoin: miter; stroke-miterlimit: 4; fill: rgb(197,202,233); fill-rule: nonzero; opacity: 1;"  transform=" translate(-36.8, -13.05)" d="M 41.1 11.1 c 1.7 3.7 1.1 7.6 -1.3 8.7 c -2.4 1.1 -5.6 -1.1 -7.3 -4.8 s -1.1 -7.6 1.3 -8.7 C 36.1 5.2 39.4 7.4 41.1 11.1 z" stroke-linecap="round" />
</g>
<g transform="matrix(4.17 0 0 4.17 153.84 200.19)" id="surface1"  >
<path style="stroke: none; stroke-width: 1; stroke-dasharray: none; stroke-linecap: butt; stroke-dashoffset: 0; stroke-linejoin: miter; stroke-miterlimit: 4; fill: rgb(66,37,122); fill-rule: nonzero; opacity: 1;"  transform=" translate(-12.92, -24.05)" d="M 16.8 22.3 c 1.7 3.7 1.3 7.5 -0.9 8.5 c -2.2 1 -5.3 -1.3 -6.9 -5 s -1.3 -7.5 0.9 -8.5 C 12.1 16.3 15.2 18.5 16.8 22.3 z" stroke-linecap="round" />
</g>
<g transform="matrix(4.17 0 0 4.17 153.96 200.21)" id="surface1"  >
<path style="stroke: none; stroke-width: 1; stroke-dasharray: none; stroke-linecap: butt; stroke-dashoffset: 0; stroke-linejoin: miter; stroke-miterlimit: 4; fill: rgb(179,136,255); fill-rule: nonzero; opacity: 1;"  transform=" translate(-12.95, -24.05)" d="M 14.9 23.2 c -1.1 -2.4 -2.8 -3.9 -3.9 -3.5 s -1.1 2.8 0 5.2 c 1.1 2.4 2.8 3.9 3.9 3.5 C 16 27.9 16 25.6 14.9 23.2 z" stroke-linecap="round" />
</g>
<g transform="matrix(4.17 0 0 4.17 153.54 194.73)" id="surface1"  >
<path style="stroke: none; stroke-width: 1; stroke-dasharray: none; stroke-linecap: butt; stroke-dashoffset: 0; stroke-linejoin: miter; stroke-miterlimit: 4; fill: rgb(206,184,255); fill-rule: nonzero; opacity: 1;"  transform=" translate(-12.85, -22.73)" d="M 13.7 24.7 c -0.4 0 -0.7 -0.2 -0.9 -0.6 c -0.3 -0.7 -0.6 -1.1 -0.8 -1.3 c -0.4 0 -0.7 -0.2 -0.9 -0.6 c -0.2 -0.5 0 -1.1 0.5 -1.3 c 0.4 -0.2 1.1 -0.3 1.9 0.7 c 0.4 0.4 0.8 1 1.1 1.7 c 0.2 0.5 0 1.1 -0.5 1.3 C 14 24.7 13.8 24.7 13.7 24.7 z" stroke-linecap="round" />
</g>
<g transform="matrix(4.17 0 0 4.17 196.25 160.03)" id="surface1"  >
<path style="stroke: none; stroke-width: 1; stroke-dasharray: none; stroke-linecap: butt; stroke-dashoffset: 0; stroke-linejoin: miter; stroke-miterlimit: 4; fill: rgb(121,134,203); fill-rule: nonzero; opacity: 1;"  transform=" translate(-23.1, -14.41)" d="M 33.7 6.3 C 33.7 6.3 33.7 6.3 33.7 6.3 L 33.7 6.3 L 5 19.2 c 0 0 5.1 -1.6 12.1 3.6 c 6.2 -2.7 24.1 -11.2 24.1 -11.2 c -0.1 -0.1 -0.1 -0.3 -0.2 -0.4 C 39.4 7.4 36.1 5.2 33.7 6.3 z" stroke-linecap="round" />
</g>
</svg>