<?xml version="1.0" encoding="UTF-8" standalone="no" ?>
<!DOCTYPE svg PUBLIC "-//W3C//DTD SVG 1.1//EN" "http://www.w3.org/Graphics/SVG/1.1/DTD/svg11.dtd">
<svg xmlns="http://www.w3.org/2000/svg" xmlns:xlink="http://www.w3.org/1999/xlink" version="1.1" width="400" height="400" viewBox="0 0 400 400" xml:space="preserve">
<desc>Created with Fabric.js 3.6.2</desc>
<defs>
</defs>
<g transform="matrix(4.17 0 0 4.17 195.83 249.87)" id="surface1"  >
<path style="stroke: none; stroke-width: 1; stroke-dasharray: none; stroke-linecap: butt; stroke-dashoffset: 0; stroke-linejoin: miter; stroke-miterlimit: 4; fill: rgb(33,150,243); fill-rule: nonzero; opacity: 1;"  transform=" translate(-23, -35.97)" d="M 11 41 C 10.898438 41 10.800781 41 10.699219 40.898438 C 10.199219 40.699219 9.898438 40.101563 10.101563 39.601563 L 14.101563 28.601563 C 14.300781 28.101563 14.898438 27.800781 15.398438 28 C 15.898438 28.199219 16.199219 28.800781 16 29.300781 L 12 40.300781 C 11.800781 40.699219 11.398438 41 11 41 Z M 15.898438 43.300781 L 20.898438 29.300781 C 21.101563 28.800781 20.800781 28.199219 20.300781 28 C 19.800781 27.800781 19.199219 28.101563 19 28.601563 L 14 42.601563 C 13.800781 43.101563 14.101563 43.699219 14.601563 43.898438 C 14.699219 43.898438 14.800781 44 14.898438 44 C 15.398438 44 15.800781 43.699219 15.898438 43.300781 Z M 21.898438 40.300781 L 25.898438 29.300781 C 26.101563 28.800781 25.800781 28.199219 25.300781 28 C 24.800781 27.800781 24.199219 28.101563 24 28.601563 L 20 39.601563 C 19.800781 40.101563 20.101563 40.699219 20.601563 40.898438 C 20.699219 40.898438 20.800781 41 20.898438 41 C 21.398438 41 21.800781 40.699219 21.898438 40.300781 Z M 25.898438 43.300781 L 30.898438 29.300781 C 31.101563 28.800781 30.800781 28.199219 30.300781 28 C 29.800781 27.800781 29.199219 28.101563 29 28.601563 L 24 42.601563 C 23.800781 43.101563 24.101563 43.699219 24.601563 43.898438 C 24.699219 43.898438 24.800781 44 24.898438 44 C 25.398438 44 25.800781 43.699219 25.898438 43.300781 Z M 31.898438 40.300781 L 35.898438 29.300781 C 36.101563 28.800781 35.800781 28.199219 35.300781 28 C 34.800781 27.800781 34.199219 28.101563 34 28.601563 L 30 39.601563 C 29.800781 40.101563 30.101563 40.699219 30.601563 40.898438 C 30.699219 40.898438 30.800781 41 30.898438 41 C 31.398438 41 31.800781 40.699219 31.898438 40.300781 Z" stroke-linecap="round" />
</g>
<g transform="matrix(4.17 0 0 4.17 204.17 175)" id="surface1"  >
<path style="stroke: none; stroke-width: 1; stroke-dasharray: none; stroke-linecap: butt; stroke-dashoffset: 0; stroke-linejoin: miter; stroke-miterlimit: 4; fill: rgb(187,222,251); fill-rule: nonzero; opacity: 1;"  transform=" translate(-25, -18)" d="M 38.898438 16 C 39 15.5 39 15 39 14.5 C 39 9.800781 35.199219 6 30.5 6 C 27.199219 6 24.300781 7.898438 22.898438 10.699219 C 21.699219 9.699219 20.199219 9 18.5 9 C 14.898438 9 12 11.898438 12 15.5 C 12 15.699219 12 15.800781 12 16 C 8.101563 16 5 19.101563 5 23 C 5 26.898438 8.101563 30 12 30 L 37 30 C 37.300781 30 37.601563 30 37.898438 29.898438 C 37.898438 29.898438 38 29.898438 38 29.898438 C 41.898438 29.898438 45 26.800781 45 22.898438 C 45 19.300781 42.300781 16.398438 38.898438 16 Z" stroke-linecap="round" />
</g>
</svg>