<?xml version="1.0" encoding="UTF-8" standalone="no" ?>
<!DOCTYPE svg PUBLIC "-//W3C//DTD SVG 1.1//EN" "http://www.w3.org/Graphics/SVG/1.1/DTD/svg11.dtd">
<svg xmlns="http://www.w3.org/2000/svg" xmlns:xlink="http://www.w3.org/1999/xlink" version="1.1" width="400" height="400" viewBox="0 0 400 400" xml:space="preserve">
<desc>Created with Fabric.js 3.6.2</desc>
<defs>
</defs>
<g transform="matrix(4.17 0 0 4.17 200 164.58)" id="surface1"  >
<path style="stroke: none; stroke-width: 1; stroke-dasharray: none; stroke-linecap: butt; stroke-dashoffset: 0; stroke-linejoin: miter; stroke-miterlimit: 4; fill: rgb(69,90,100); fill-rule: nonzero; opacity: 1;"  transform=" translate(-24, -15.5)" d="M 17 13 C 17 9.132813 20.136719 6 24 6 C 27.863281 6 31 9.132813 31 13 C 31 16.863281 24 25 24 25 C 24 25 17 16.863281 17 13 Z" stroke-linecap="round" />
</g>
<g transform="matrix(4.17 0 0 4.17 235.42 204.17)" id="surface1"  >
<path style="stroke: none; stroke-width: 1; stroke-dasharray: none; stroke-linecap: butt; stroke-dashoffset: 0; stroke-linejoin: miter; stroke-miterlimit: 4; fill: rgb(69,90,100); fill-rule: nonzero; opacity: 1;"  transform=" translate(-32.5, -25)" d="M 35.121094 32 C 38.921875 32 42 28.863281 42 25 C 42 21.132813 38.921875 18 35.121094 18 C 31.320313 18 23 25 23 25 C 23 25 31.320313 32 35.121094 32 Z" stroke-linecap="round" />
</g>
<g transform="matrix(4.17 0 0 4.17 164.58 204.17)" id="surface1"  >
<path style="stroke: none; stroke-width: 1; stroke-dasharray: none; stroke-linecap: butt; stroke-dashoffset: 0; stroke-linejoin: miter; stroke-miterlimit: 4; fill: rgb(69,90,100); fill-rule: nonzero; opacity: 1;"  transform=" translate(-15.5, -25)" d="M 12.878906 32 C 9.078125 32 6 28.863281 6 25 C 6 21.132813 9.078125 18 12.878906 18 C 16.679688 18 25 25 25 25 C 25 25 16.679688 32 12.878906 32 Z" stroke-linecap="round" />
</g>
<g transform="matrix(4.17 0 0 4.17 200 231.25)" id="surface1"  >
<path style="stroke: none; stroke-width: 1; stroke-dasharray: none; stroke-linecap: butt; stroke-dashoffset: 0; stroke-linejoin: miter; stroke-miterlimit: 4; fill: rgb(69,90,100); fill-rule: nonzero; opacity: 1;"  transform=" translate(-24, -31.5)" d="M 25 21 L 23 21 C 24 36 17 42 17 42 L 31 42 C 31 42 24 36 25 21 Z" stroke-linecap="round" />
</g>
</svg>