<?xml version="1.0" encoding="UTF-8" standalone="no" ?>
<!DOCTYPE svg PUBLIC "-//W3C//DTD SVG 1.1//EN" "http://www.w3.org/Graphics/SVG/1.1/DTD/svg11.dtd">
<svg xmlns="http://www.w3.org/2000/svg" xmlns:xlink="http://www.w3.org/1999/xlink" version="1.1" width="400" height="400" viewBox="0 0 400 400" xml:space="preserve">
<desc>Created with Fabric.js 3.6.2</desc>
<defs>
</defs>
<g transform="matrix(4.17 0 0 4.17 241.67 158.33)" id="surface1"  >
<path style="stroke: none; stroke-width: 1; stroke-dasharray: none; stroke-linecap: butt; stroke-dashoffset: 0; stroke-linejoin: miter; stroke-miterlimit: 4; fill: rgb(84,110,122); fill-rule: nonzero; opacity: 1;"  transform=" translate(-34, -14)" d="M 42 15.101563 C 42 15.101563 39.300781 14.300781 38 13 C 36.699219 11.699219 31 6 31 6 L 26 11 C 26 11 31.601563 16.601563 33 18 C 34.398438 19.398438 35.101563 22 35.101563 22 C 35.101563 22 37.898438 22.101563 40 20 C 42.101563 17.898438 42 15.101563 42 15.101563 Z" stroke-linecap="round" />
</g>
<g transform="matrix(4.17 0 0 4.17 266.88 183.54)" id="surface1"  >
<path style="stroke: none; stroke-width: 1; stroke-dasharray: none; stroke-linecap: butt; stroke-dashoffset: 0; stroke-linejoin: miter; stroke-miterlimit: 4; fill: rgb(176,190,197); fill-rule: nonzero; opacity: 1;"  transform=" translate(-40.05, -20.05)" d="M 42 15.101563 C 42 15.101563 42.101563 17.898438 40 20 C 38.101563 21.898438 35.601563 22 35.199219 22 C 35.199219 22 35.101563 22 35.101563 22 L 36 25 C 37.5 24.800781 40 24.199219 42.101563 22.101563 C 44.199219 20 44.800781 17.398438 45 16 Z" stroke-linecap="round" />
</g>
<g transform="matrix(4.17 0 0 4.17 187.34 200.21)" id="surface1"  >
<path style="stroke: none; stroke-width: 1; stroke-dasharray: none; stroke-linecap: butt; stroke-dashoffset: 0; stroke-linejoin: miter; stroke-miterlimit: 4; fill: rgb(255,109,0); fill-rule: nonzero; opacity: 1;"  transform=" translate(-20.96, -24.05)" d="M 34.101563 6 L 26 14.199219 C 25.398438 14.800781 23.101563 18.300781 20.800781 20.5 C 19.5 21.800781 18.101563 22.699219 16.601563 23.601563 C 14.898438 24.601563 13.199219 25.699219 11.398438 27.601563 C 6.601563 32.398438 4.300781 35.601563 3.398438 37.199219 C 3 37.398438 2.800781 37.898438 3 38.398438 C 3.5 39.800781 5.300781 42.101563 9.101563 42.101563 C 9.398438 42.101563 9.699219 42.101563 10 42.101563 C 10.5 42 11 41.601563 10.898438 41 C 10.898438 40.898438 10.800781 40.699219 10.800781 40.601563 C 10.898438 40.398438 11 40.101563 11.101563 39.800781 C 11.199219 39.601563 11.199219 39.300781 11.300781 38.898438 C 11.601563 37.601563 11.898438 35.800781 13.398438 34.199219 C 14.199219 33.398438 16.601563 31.398438 18.199219 30.398438 C 20.398438 28.898438 23.199219 27.101563 25.5 24.800781 C 27.601563 22.699219 28.601563 21.699219 29.601563 20.699219 C 30.5 19.800781 31.300781 19 32.800781 17.5 L 37.699219 12.398438 L 39 11 Z" stroke-linecap="round" />
</g>
<g transform="matrix(4.17 0 0 4.17 155.83 230)" id="surface1"  >
<path style="stroke: none; stroke-width: 1; stroke-dasharray: none; stroke-linecap: butt; stroke-dashoffset: 0; stroke-linejoin: miter; stroke-miterlimit: 4; fill: rgb(55,71,79); fill-rule: nonzero; opacity: 1;"  transform=" translate(-13.4, -31.2)" d="M 19.101563 21.898438 C 18.300781 22.5 17.5 23 16.601563 23.601563 C 14.898438 24.601563 13.199219 25.699219 11.398438 27.601563 C 6.601563 32.398438 4.300781 35.601563 3.398438 37.199219 C 3.5 37.199219 3.5 37.101563 3.601563 37.101563 C 4.101563 36.898438 4.699219 37.199219 4.898438 37.699219 C 4.898438 37.800781 6 40.398438 9.898438 40 C 10.300781 40 10.699219 40.199219 10.898438 40.5 C 11 40.300781 11.101563 40 11.199219 39.699219 C 11.300781 39.5 11.300781 39.199219 11.398438 38.800781 C 11.699219 37.5 12 35.699219 13.5 34.101563 C 14.300781 33.300781 16.699219 31.300781 18.300781 30.300781 C 19.800781 29.300781 21.601563 28.101563 23.398438 26.699219 C 23.300781 26.699219 19.199219 21.898438 19.101563 21.898438 Z" stroke-linecap="round" />
</g>
<g transform="matrix(4.17 0 0 4.17 235.42 152.08)" id="surface1"  >
<path style="stroke: none; stroke-width: 1; stroke-dasharray: none; stroke-linecap: butt; stroke-dashoffset: 0; stroke-linejoin: miter; stroke-miterlimit: 4; fill: rgb(191,54,12); fill-rule: nonzero; opacity: 1;"  transform=" translate(-32.5, -12.5)" d="M 34 12.5 C 34 13.328125 33.328125 14 32.5 14 C 31.671875 14 31 13.328125 31 12.5 C 31 11.671875 31.671875 11 32.5 11 C 33.328125 11 34 11.671875 34 12.5 Z" stroke-linecap="round" />
</g>
</svg>