<?xml version="1.0" encoding="UTF-8" standalone="no" ?>
<!DOCTYPE svg PUBLIC "-//W3C//DTD SVG 1.1//EN" "http://www.w3.org/Graphics/SVG/1.1/DTD/svg11.dtd">
<svg xmlns="http://www.w3.org/2000/svg" xmlns:xlink="http://www.w3.org/1999/xlink" version="1.1" width="400" height="400" viewBox="0 0 400 400" xml:space="preserve">
<desc>Created with Fabric.js 3.6.2</desc>
<defs>
</defs>
<g transform="matrix(4.17 0 0 4.17 249.62 188.79)" id="surface1"  >
<path style="stroke: none; stroke-width: 1; stroke-dasharray: none; stroke-linecap: butt; stroke-dashoffset: 0; stroke-linejoin: miter; stroke-miterlimit: 4; fill: rgb(191,54,12); fill-rule: nonzero; opacity: 1;"  transform=" translate(-35.91, -21.31)" d="M 34.496094 23.132813 C 34.496094 23.132813 36.011719 22.433594 36.082031 21.550781 C 36.148438 20.664063 35.546875 19.222656 35.546875 19.222656 L 36.296875 19.042969 C 36.296875 19.042969 37.320313 20.523438 37.320313 21.203125 C 37.320313 22.625 36.574219 23.574219 36.574219 23.574219 Z" stroke-linecap="round" />
</g>
<g transform="matrix(4.17 0 0 4.17 166.67 175)" id="surface1"  >
<path style="stroke: none; stroke-width: 1; stroke-dasharray: none; stroke-linecap: butt; stroke-dashoffset: 0; stroke-linejoin: miter; stroke-miterlimit: 4; fill: rgb(255,152,0); fill-rule: nonzero; opacity: 1;"  transform=" translate(-16, -18)" d="M 15.011719 9 L 16.988281 9 L 16.988281 27 L 15.011719 27 Z" stroke-linecap="round" />
</g>
<g transform="matrix(4.17 0 0 4.17 233.33 175)" id="surface1"  >
<path style="stroke: none; stroke-width: 1; stroke-dasharray: none; stroke-linecap: butt; stroke-dashoffset: 0; stroke-linejoin: miter; stroke-miterlimit: 4; fill: rgb(255,152,0); fill-rule: nonzero; opacity: 1;"  transform=" translate(-32, -18)" d="M 31.011719 9 L 32.988281 9 L 32.988281 27 L 31.011719 27 Z" stroke-linecap="round" />
</g>
<g transform="matrix(4.17 0 0 4.17 200 246.65)" id="surface1"  >
<path style="stroke: none; stroke-width: 1; stroke-dasharray: none; stroke-linecap: butt; stroke-dashoffset: 0; stroke-linejoin: miter; stroke-miterlimit: 4; fill: rgb(129,212,250); fill-rule: nonzero; opacity: 1;"  transform=" translate(-24, -35.2)" d="M 2 31.339844 L 46 31.339844 L 46 39.050781 L 2 39.050781 Z" stroke-linecap="round" />
</g>
<g transform="matrix(4.17 0 0 4.17 200 192.68)" id="surface1"  >
<path style="stroke: none; stroke-width: 1; stroke-dasharray: none; stroke-linecap: butt; stroke-dashoffset: 0; stroke-linejoin: miter; stroke-miterlimit: 4; fill: rgb(191,54,12); fill-rule: nonzero; opacity: 1;"  transform=" translate(-24, -22.24)" d="M 2 17.558594 C 2 17.558594 5.070313 23 8.898438 23 C 12.136719 23 17 23 17 23 L 17 26 C 17 26 23.570313 26 26 26 C 28.429688 26 31 23 31 23 C 31 23 37.316406 23 38.4375 23 C 39.5625 23 41.917969 22.007813 43.480469 19.308594 C 44.972656 16.722656 43 15 43 15 C 43 15 44.410156 13 46 13 C 46 18 45.617188 18.382813 45 19 C 45 21.738281 45.429688 31.484375 34.34375 31.484375 C 23.261719 31.484375 15.796875 31.398438 12.304688 31.398438 C 3.847656 31.398438 2 22.910156 2 17.558594 Z" stroke-linecap="round" />
</g>
<g transform="matrix(4.17 0 0 4.17 233.33 141.67)" id="surface1"  >
<path style="stroke: none; stroke-width: 1; stroke-dasharray: none; stroke-linecap: butt; stroke-dashoffset: 0; stroke-linejoin: miter; stroke-miterlimit: 4; fill: rgb(244,67,54); fill-rule: nonzero; opacity: 1;"  transform=" translate(-32, -10)" d="M 34 10 C 34 11.105469 33.105469 12 32 12 C 30.894531 12 30 11.105469 30 10 C 30 8.894531 30.894531 8 32 8 C 33.105469 8 34 10 34 10 Z" stroke-linecap="round" />
</g>
<g transform="matrix(4.17 0 0 4.17 200 141.67)" id="surface1"  >
<path style="stroke: none; stroke-width: 1; stroke-dasharray: none; stroke-linecap: butt; stroke-dashoffset: 0; stroke-linejoin: miter; stroke-miterlimit: 4; fill: rgb(244,67,54); fill-rule: nonzero; opacity: 1;"  transform=" translate(-24, -10)" d="M 26 10 C 26 11.105469 25.105469 12 24 12 C 22.894531 12 22 11.105469 22 10 C 22 8.894531 22.894531 8 24 8 C 25.105469 8 26 8.894531 26 10 Z" stroke-linecap="round" />
</g>
<g transform="matrix(4.17 0 0 4.17 166.67 141.67)" id="surface1"  >
<path style="stroke: none; stroke-width: 1; stroke-dasharray: none; stroke-linecap: butt; stroke-dashoffset: 0; stroke-linejoin: miter; stroke-miterlimit: 4; fill: rgb(244,67,54); fill-rule: nonzero; opacity: 1;"  transform=" translate(-16, -10)" d="M 18 10 C 18 11.105469 17.105469 12 16 12 C 14.894531 12 14 11.105469 14 10 C 14 10 14.894531 8 16 8 C 17.105469 8 18 8.894531 18 10 Z" stroke-linecap="round" />
</g>
<g transform="matrix(4.17 0 0 4.17 200 137.5)" id="surface1"  >
<path style="stroke: none; stroke-width: 1; stroke-dasharray: none; stroke-linecap: butt; stroke-dashoffset: 0; stroke-linejoin: miter; stroke-miterlimit: 4; fill: rgb(244,67,54); fill-rule: nonzero; opacity: 1;"  transform=" translate(-24, -9)" d="M 14 10 L 34 10 L 33 8 L 15 8 Z" stroke-linecap="round" />
</g>
<g transform="matrix(4.17 0 0 4.17 200 229.17)" id="surface1"  >
<path style="stroke: none; stroke-width: 1; stroke-dasharray: none; stroke-linecap: butt; stroke-dashoffset: 0; stroke-linejoin: miter; stroke-miterlimit: 4; fill: rgb(3,169,244); fill-rule: nonzero; opacity: 1;"  transform=" translate(-24, -31)" d="M 46 30.722656 C 45.40625 30.375 45 29.738281 45 29 L 43 29 C 43 30.101563 42.101563 31 41 31 C 39.898438 31 39 30.101563 39 29 L 37 29 C 37 30.101563 36.101563 31 35 31 C 33.898438 31 33 30.101563 33 29 L 31 29 C 31 30.101563 30.101563 31 29 31 C 27.898438 31 27 30.101563 27 29 L 25 29 C 25 30.101563 24.101563 31 23 31 C 21.898438 31 21 30.101563 21 29 L 19 29 C 19 30.101563 18.101563 31 17 31 C 15.898438 31 15 30.101563 15 29 L 13 29 C 13 30.101563 12.101563 31 11 31 C 9.898438 31 9 30.101563 9 29 L 7 29 C 7 30.101563 6.101563 31 5 31 C 3.898438 31 3 30.101563 3 29 L 2 29 L 2 31.617188 C 2.734375 32.457031 3.800781 33 5 33 C 6.199219 33 7.265625 32.457031 8 31.617188 C 8.734375 32.457031 9.800781 33 11 33 C 12.199219 33 13.265625 32.457031 14 31.617188 C 14.734375 32.457031 15.800781 33 17 33 C 18.199219 33 19.265625 32.457031 20 31.617188 C 20.734375 32.457031 21.800781 33 23 33 C 24.199219 33 25.265625 32.457031 26 31.617188 C 26.734375 32.457031 27.800781 33 29 33 C 30.199219 33 31.265625 32.457031 32 31.617188 C 32.734375 32.457031 33.800781 33 35 33 C 36.199219 33 37.265625 32.457031 38 31.617188 C 38.734375 32.457031 39.800781 33 41 33 C 42.199219 33 43.265625 32.457031 44 31.617188 C 44.519531 32.214844 45.214844 32.648438 46 32.859375 Z" stroke-linecap="round" />
</g>
<g transform="matrix(4.17 0 0 4.17 264.89 210.44)" id="surface1"  >
<path style="stroke: none; stroke-width: 1; stroke-dasharray: none; stroke-linecap: butt; stroke-dashoffset: 0; stroke-linejoin: miter; stroke-miterlimit: 4; fill: rgb(255,152,0); fill-rule: nonzero; opacity: 1;"  transform=" translate(-39.57, -26.51)" d="M 34.148438 16.105469 L 35.070313 15.667969 L 45 36.40625 L 43.21875 37.34375 Z" stroke-linecap="round" />
</g>
<g transform="matrix(4.17 0 0 4.17 200 254.17)" id="surface1"  >
<path style="stroke: none; stroke-width: 1; stroke-dasharray: none; stroke-linecap: butt; stroke-dashoffset: 0; stroke-linejoin: miter; stroke-miterlimit: 4; fill: rgb(3,169,244); fill-rule: nonzero; opacity: 1;"  transform=" translate(-24, -37)" d="M 46 36.722656 C 45.40625 36.375 45 35.738281 45 35 L 43 35 C 43 36.101563 42.101563 37 41 37 C 39.898438 37 39 36.101563 39 35 L 37 35 C 37 36.101563 36.101563 37 35 37 C 33.898438 37 33 36.101563 33 35 L 31 35 C 31 36.101563 30.101563 37 29 37 C 27.898438 37 27 36.101563 27 35 L 25 35 C 25 36.101563 24.101563 37 23 37 C 21.898438 37 21 36.101563 21 35 L 19 35 C 19 36.101563 18.101563 37 17 37 C 15.898438 37 15 36.101563 15 35 L 13 35 C 13 36.101563 12.101563 37 11 37 C 9.898438 37 9 36.101563 9 35 L 7 35 C 7 36.101563 6.101563 37 5 37 C 3.898438 37 3 36.101563 3 35 L 2 35 L 2 37.617188 C 2.734375 38.457031 3.800781 39 5 39 C 6.199219 39 7.265625 38.457031 8 37.617188 C 8.734375 38.457031 9.800781 39 11 39 C 12.199219 39 13.265625 38.457031 14 37.617188 C 14.734375 38.457031 15.800781 39 17 39 C 18.199219 39 19.265625 38.457031 20 37.617188 C 20.734375 38.457031 21.800781 39 23 39 C 24.199219 39 25.265625 38.457031 26 37.617188 C 26.734375 38.457031 27.800781 39 29 39 C 30.199219 39 31.265625 38.457031 32 37.617188 C 32.734375 38.457031 33.800781 39 35 39 C 36.199219 39 37.265625 38.457031 38 37.617188 C 38.734375 38.457031 39.800781 39 41 39 C 42.199219 39 43.265625 38.457031 44 37.617188 C 44.519531 38.214844 45.214844 38.648438 46 38.859375 Z" stroke-linecap="round" />
</g>
<g transform="matrix(4.17 0 0 4.17 250 179.17)" id="surface1"  >
<path style="stroke: none; stroke-width: 1; stroke-dasharray: none; stroke-linecap: butt; stroke-dashoffset: 0; stroke-linejoin: miter; stroke-miterlimit: 4; fill: rgb(191,54,12); fill-rule: nonzero; opacity: 1;"  transform=" translate(-36, -19)" d="M 37 19 C 37 19.550781 36.550781 20 36 20 C 35.449219 20 35 19.550781 35 19 C 35 18.449219 35.449219 18 36 18 C 36.550781 18 37 18.449219 37 19 Z" stroke-linecap="round" />
</g>
<g transform="matrix(4.17 0 0 4.17 216.67 141.67)" id="surface1"  >
<path style="stroke: none; stroke-width: 1; stroke-dasharray: none; stroke-linecap: butt; stroke-dashoffset: 0; stroke-linejoin: miter; stroke-miterlimit: 4; fill: rgb(255,193,7); fill-rule: nonzero; opacity: 1;"  transform=" translate(-28, -10)" d="M 26 8 L 26 10 C 26 11.105469 26.894531 12 28 12 C 29.105469 12 30 11.105469 30 10 L 30 8 Z" stroke-linecap="round" />
</g>
<g transform="matrix(4.17 0 0 4.17 183.33 141.67)" id="surface1"  >
<path style="stroke: none; stroke-width: 1; stroke-dasharray: none; stroke-linecap: butt; stroke-dashoffset: 0; stroke-linejoin: miter; stroke-miterlimit: 4; fill: rgb(255,193,7); fill-rule: nonzero; opacity: 1;"  transform=" translate(-20, -10)" d="M 18 8 L 18 10 C 18 11.105469 18.894531 12 20 12 C 21.105469 12 22 11.105469 22 10 L 22 8 Z" stroke-linecap="round" />
</g>
</svg>