<?xml version="1.0" encoding="UTF-8" standalone="no" ?>
<!DOCTYPE svg PUBLIC "-//W3C//DTD SVG 1.1//EN" "http://www.w3.org/Graphics/SVG/1.1/DTD/svg11.dtd">
<svg xmlns="http://www.w3.org/2000/svg" xmlns:xlink="http://www.w3.org/1999/xlink" version="1.1" width="400" height="400" viewBox="0 0 400 400" xml:space="preserve">
<desc>Created with Fabric.js 3.6.2</desc>
<defs>
</defs>
<g transform="matrix(4.17 0 0 4.17 180 215.73)" id="surface1"  >
<path style="stroke: none; stroke-width: 1; stroke-dasharray: none; stroke-linecap: butt; stroke-dashoffset: 0; stroke-linejoin: miter; stroke-miterlimit: 4; fill: rgb(188,170,164); fill-rule: nonzero; opacity: 1;"  transform=" translate(-19.2, -27.77)" d="M 7 41.5 c -0.4 0 -0.8 -0.1 -1.1 -0.4 c -0.6 -0.6 -0.6 -1.5 0 -2.1 l 24.5 -24.5 c 0.6 -0.6 1.5 -0.6 2.1 0 c 0.6 0.6 0.6 1.5 0 2.1 L 8.1 41.1 C 7.8 41.4 7.4 41.5 7 41.5 z" stroke-linecap="round" />
</g>
<g transform="matrix(4.17 0 0 4.17 216.67 179.17)" id="surface1"  >
<path style="stroke: none; stroke-width: 1; stroke-dasharray: none; stroke-linecap: butt; stroke-dashoffset: 0; stroke-linejoin: miter; stroke-miterlimit: 4; fill: rgb(255,152,0); fill-rule: nonzero; opacity: 1;"  transform=" translate(-28, -19)" d="M 42 19 c 0 7.7 -6.3 14 -14 14 s -14 -6.3 -14 -14 S 20.3 5 28 5 S 42 11.3 42 19 z" stroke-linecap="round" />
</g>
<g transform="matrix(4.17 0 0 4.17 207.72 208.33)" id="surface1"  >
<path style="stroke: none; stroke-width: 1; stroke-dasharray: none; stroke-linecap: butt; stroke-dashoffset: 0; stroke-linejoin: miter; stroke-miterlimit: 4; fill: rgb(55,71,79); fill-rule: nonzero; opacity: 1;"  transform=" translate(-25.85, -26)" d="M 23 32.1 c 1.6 0.6 3.2 0.9 5 0.9 c 0.5 0 1 0 1.5 -0.1 c -2.8 -3 -3.1 -7.5 -1.5 -13.9 C 21.2 23.9 21.7 29 23 32.1 z" stroke-linecap="round" />
</g>
<g transform="matrix(4.17 0 0 4.17 187.5 169)" id="surface1"  >
<path style="stroke: none; stroke-width: 1; stroke-dasharray: none; stroke-linecap: butt; stroke-dashoffset: 0; stroke-linejoin: miter; stroke-miterlimit: 4; fill: rgb(55,71,79); fill-rule: nonzero; opacity: 1;"  transform=" translate(-21, -16.56)" d="M 15.2 13.3 C 14.4 15 14 17 14 19 c 0 0.4 0 0.9 0.1 1.3 c 2.8 -2.9 6.8 -3.6 13.9 -1.3 C 23.1 12.3 18.3 12.3 15.2 13.3 z" stroke-linecap="round" />
</g>
<g transform="matrix(4.17 0 0 4.17 226.83 150)" id="surface1"  >
<path style="stroke: none; stroke-width: 1; stroke-dasharray: none; stroke-linecap: butt; stroke-dashoffset: 0; stroke-linejoin: miter; stroke-miterlimit: 4; fill: rgb(55,71,79); fill-rule: nonzero; opacity: 1;"  transform=" translate(-30.44, -12)" d="M 33.7 6.2 C 32 5.4 30 5 28 5 c -0.4 0 -0.9 0 -1.3 0.1 c 2.9 2.8 3.6 6.8 1.3 13.9 C 34.7 14.1 34.7 9.3 33.7 6.2 z" stroke-linecap="round" />
</g>
<g transform="matrix(4.17 0 0 4.17 245.83 189.33)" id="surface1"  >
<path style="stroke: none; stroke-width: 1; stroke-dasharray: none; stroke-linecap: butt; stroke-dashoffset: 0; stroke-linejoin: miter; stroke-miterlimit: 4; fill: rgb(55,71,79); fill-rule: nonzero; opacity: 1;"  transform=" translate(-35, -21.44)" d="M 42 19 c 0 -0.4 0 -0.9 -0.1 -1.3 c -2.8 2.9 -6.8 3.6 -13.9 1.3 c 4.9 6.7 9.7 6.7 12.8 5.7 C 41.6 23 42 21 42 19 z" stroke-linecap="round" />
</g>
<g transform="matrix(4.17 0 0 4.17 192.95 150.21)" id="surface1"  >
<path style="stroke: none; stroke-width: 1; stroke-dasharray: none; stroke-linecap: butt; stroke-dashoffset: 0; stroke-linejoin: miter; stroke-miterlimit: 4; fill: rgb(255,248,225); fill-rule: nonzero; opacity: 1;"  transform=" translate(-22.31, -12.05)" d="M 26.7 5.1 c -0.9 0.1 -1.7 0.2 -2.5 0.5 C 28 8 29 14.1 28 19 c -3.5 -9.2 -10.9 -8.2 -11.4 -8.1 c -0.5 0.7 -1 1.5 -1.4 2.4 c 0.8 -0.3 1.8 -0.5 2.9 -0.5 c 2.8 0 6.4 1.4 9.9 6.2 C 30.4 11.9 29.6 7.9 26.7 5.1 z" stroke-linecap="round" />
</g>
<g transform="matrix(4.17 0 0 4.17 187.71 203.54)" id="surface1"  >
<path style="stroke: none; stroke-width: 1; stroke-dasharray: none; stroke-linecap: butt; stroke-dashoffset: 0; stroke-linejoin: miter; stroke-miterlimit: 4; fill: rgb(255,248,225); fill-rule: nonzero; opacity: 1;"  transform=" translate(-21.05, -24.85)" d="M 14.1 20.3 c 0.1 0.9 0.2 1.7 0.5 2.5 C 16.2 20.5 21 17.4 28 19 c -9 4 -7.8 10.8 -7.5 11.8 c 0.8 0.5 1.6 0.9 2.5 1.3 c -1.3 -3.1 -1.8 -8.1 5 -13.1 c -2.9 -1 -5.3 -1.4 -7.2 -1.4 C 17.8 17.6 15.8 18.6 14.1 20.3 z" stroke-linecap="round" />
</g>
<g transform="matrix(4.17 0 0 4.17 241.1 208.13)" id="surface1"  >
<path style="stroke: none; stroke-width: 1; stroke-dasharray: none; stroke-linecap: butt; stroke-dashoffset: 0; stroke-linejoin: miter; stroke-miterlimit: 4; fill: rgb(255,248,225); fill-rule: nonzero; opacity: 1;"  transform=" translate(-33.87, -25.95)" d="M 37.9 25.2 c -2.8 0 -6.4 -1.4 -9.9 -6.2 c -1.6 6.5 -1.3 10.9 1.5 13.9 c 0.8 -0.1 1.7 -0.3 2.4 -0.5 c -3.7 -2.9 -4.6 -8.2 -4 -13.4 c 4.2 9.4 10.9 8.2 11.4 8.1 c 0.5 -0.7 1 -1.5 1.4 -2.4 C 39.9 25 39 25.2 37.9 25.2 z" stroke-linecap="round" />
</g>
<g transform="matrix(4.17 0 0 4.17 245.42 155.83)" id="surface1"  >
<path style="stroke: none; stroke-width: 1; stroke-dasharray: none; stroke-linecap: butt; stroke-dashoffset: 0; stroke-linejoin: miter; stroke-miterlimit: 4; fill: rgb(255,248,225); fill-rule: nonzero; opacity: 1;"  transform=" translate(-34.9, -13.4)" d="M 41.9 17.7 c -0.1 -0.9 -0.2 -1.7 -0.5 -2.5 c -3.5 5.4 -12.3 4 -13.5 3.8 c 0 0 8.2 -2.5 8.1 -11.4 c -0.7 -0.5 -1.5 -1 -2.4 -1.3 c 1 3.1 0.9 7.9 -5.7 12.8 c 2.9 1 5.3 1.4 7.2 1.4 C 38.2 20.4 40.2 19.4 41.9 17.7 z" stroke-linecap="round" />
</g>
</svg>