<?xml version="1.0" encoding="UTF-8" standalone="no" ?>
<!DOCTYPE svg PUBLIC "-//W3C//DTD SVG 1.1//EN" "http://www.w3.org/Graphics/SVG/1.1/DTD/svg11.dtd">
<svg xmlns="http://www.w3.org/2000/svg" xmlns:xlink="http://www.w3.org/1999/xlink" version="1.1" width="400" height="400" viewBox="0 0 400 400" xml:space="preserve">
<desc>Created with Fabric.js 3.6.2</desc>
<defs>
</defs>
<g transform="matrix(4.17 0 0 4.17 200 158.33)" id="surface1"  >
<path style="stroke: none; stroke-width: 1; stroke-dasharray: none; stroke-linecap: butt; stroke-dashoffset: 0; stroke-linejoin: miter; stroke-miterlimit: 4; fill: rgb(255,61,0); fill-rule: nonzero; opacity: 1;"  transform=" translate(-24, -14)" d="M 24 4 C 12.953125 4 4 12.953125 4 24 L 44 24 C 44 12.953125 35.046875 4 24 4 Z" stroke-linecap="round" />
</g>
<g transform="matrix(4.17 0 0 4.17 200 241.67)" id="surface1"  >
<path style="stroke: none; stroke-width: 1; stroke-dasharray: none; stroke-linecap: butt; stroke-dashoffset: 0; stroke-linejoin: miter; stroke-miterlimit: 4; fill: rgb(228,232,234); fill-rule: nonzero; opacity: 1;"  transform=" translate(-24, -34)" d="M 24 44 C 35.046875 44 44 35.046875 44 24 L 4 24 C 4 35.046875 12.953125 44 24 44 Z" stroke-linecap="round" />
</g>
<g transform="matrix(4.17 0 0 4.17 200 241.67)" id="surface1"  >
<path style="stroke: none; stroke-width: 1; stroke-dasharray: none; stroke-linecap: butt; stroke-dashoffset: 0; stroke-linejoin: miter; stroke-miterlimit: 4; fill: rgb(207,216,220); fill-rule: nonzero; opacity: 1;"  transform=" translate(-24, -34)" d="M 24 44 C 35.046875 44 44 35.046875 44 24 C 44 24 43.839844 40 24 40 C 4.160156 40 4 24 4 24 C 4 35.046875 12.953125 44 24 44 Z" stroke-linecap="round" />
</g>
<g transform="matrix(4.17 0 0 4.17 200 200)" id="surface1"  >
<path style="stroke: none; stroke-width: 1; stroke-dasharray: none; stroke-linecap: butt; stroke-dashoffset: 0; stroke-linejoin: miter; stroke-miterlimit: 4; fill: rgb(55,71,79); fill-rule: nonzero; opacity: 1;"  transform=" translate(-24, -24)" d="M 4 24 C 4 24.339844 4.035156 24.667969 4.050781 25 L 43.949219 25 C 43.96875 24.667969 44 24.339844 44 24 C 44 23.660156 43.964844 23.332031 43.949219 23 L 4.050781 23 C 4.035156 23.332031 4 23.660156 4 24 Z" stroke-linecap="round" />
</g>
<g transform="matrix(4.17 0 0 4.17 200 200)" id="surface1"  >
<path style="stroke: none; stroke-width: 1; stroke-dasharray: none; stroke-linecap: butt; stroke-dashoffset: 0; stroke-linejoin: miter; stroke-miterlimit: 4; fill: rgb(255,255,255); fill-rule: nonzero; opacity: 1;"  transform=" translate(-24, -24)" d="M 30 24 C 30 27.3125 27.3125 30 24 30 C 20.6875 30 18 27.3125 18 24 C 18 20.6875 20.6875 18 24 18 C 27.3125 18 30 20.6875 30 24 Z" stroke-linecap="round" />
</g>
<g transform="matrix(4.17 0 0 4.17 200 200)" id="surface1"  >
<path style="stroke: none; stroke-width: 1; stroke-dasharray: none; stroke-linecap: butt; stroke-dashoffset: 0; stroke-linejoin: miter; stroke-miterlimit: 4; fill: rgb(55,71,79); fill-rule: nonzero; opacity: 1;"  transform=" translate(-24, -24)" d="M 24 20 C 26.207031 20 28 21.792969 28 24 C 28 26.207031 26.207031 28 24 28 C 21.792969 28 20 26.207031 20 24 C 20 21.792969 21.792969 20 24 20 M 24 18 C 20.6875 18 18 20.6875 18 24 C 18 27.3125 20.6875 30 24 30 C 27.3125 30 30 27.3125 30 24 C 30 20.6875 27.3125 18 24 18 Z" stroke-linecap="round" />
</g>
<g transform="matrix(4.17 0 0 4.17 200 200)" id="surface1"  >
<path style="stroke: none; stroke-width: 1; stroke-dasharray: none; stroke-linecap: butt; stroke-dashoffset: 0; stroke-linejoin: miter; stroke-miterlimit: 4; fill: rgb(55,71,79); fill-rule: nonzero; opacity: 1;"  transform=" translate(-24, -24)" d="M 26 24 C 26 25.105469 25.105469 26 24 26 C 22.894531 26 22 25.105469 22 24 C 22 22.894531 22.894531 22 24 22 C 25.105469 22 26 22.894531 26 24 Z" stroke-linecap="round" />
</g>
</svg>