<?xml version="1.0" encoding="UTF-8" standalone="no" ?>
<!DOCTYPE svg PUBLIC "-//W3C//DTD SVG 1.1//EN" "http://www.w3.org/Graphics/SVG/1.1/DTD/svg11.dtd">
<svg xmlns="http://www.w3.org/2000/svg" xmlns:xlink="http://www.w3.org/1999/xlink" version="1.1" width="400" height="400" viewBox="0 0 400 400" xml:space="preserve">
<desc>Created with Fabric.js 3.6.2</desc>
<defs>
</defs>
<g transform="matrix(4.17 0 0 4.17 264.58 154.17)" id="Layer_1"  >
<path style="stroke: none; stroke-width: 1; stroke-dasharray: none; stroke-linecap: butt; stroke-dashoffset: 0; stroke-linejoin: miter; stroke-miterlimit: 4; fill: rgb(97,97,97); fill-rule: nonzero; opacity: 1;"  transform=" translate(-39.5, -13)" d="M 38 15 c 0 0 3 -0.833 3 -4 h -3 V 15 z" stroke-linecap="round" />
</g>
<g transform="matrix(4.17 0 0 4.17 256.25 134.64)" id="Layer_1"  >
<path style="stroke: none; stroke-width: 1; stroke-dasharray: none; stroke-linecap: butt; stroke-dashoffset: 0; stroke-linejoin: miter; stroke-miterlimit: 4; fill: rgb(255,205,210); fill-rule: nonzero; opacity: 1;"  transform=" translate(-37.5, -8.31)" d="M 38.668 7.077 C 37.2 6.17 36.125 5.625 36.125 5.625 L 34 10 h 3 c 0.552 0 1 0.448 1 1 h 3 C 41 8.5 39.32 7.48 38.668 7.077 z" stroke-linecap="round" />
</g>
<g transform="matrix(4.17 0 0 4.17 204.17 266.67)" id="Layer_1"  >
<rect style="stroke: none; stroke-width: 1; stroke-dasharray: none; stroke-linecap: butt; stroke-dashoffset: 0; stroke-linejoin: miter; stroke-miterlimit: 4; fill: rgb(141,110,99); fill-rule: nonzero; opacity: 1;"  x="-1" y="-4" rx="0" ry="0" width="2" height="8" />
</g>
<g transform="matrix(4.17 0 0 4.17 204.17 260.04)" id="Layer_1"  >
<path style="stroke: none; stroke-width: 1; stroke-dasharray: none; stroke-linecap: butt; stroke-dashoffset: 0; stroke-linejoin: miter; stroke-miterlimit: 4; fill: rgb(229,115,115); fill-rule: nonzero; opacity: 1;"  transform=" translate(-25, -38.41)" d="M 22 37 c 0 2.905 2 5 2 5 h 2 c 0 0 2 -2.095 2 -5 S 22 34.095 22 37 z" stroke-linecap="round" />
</g>
<g transform="matrix(4.17 0 0 4.17 195.83 266.67)" id="Layer_1"  >
<rect style="stroke: none; stroke-width: 1; stroke-dasharray: none; stroke-linecap: butt; stroke-dashoffset: 0; stroke-linejoin: miter; stroke-miterlimit: 4; fill: rgb(161,136,127); fill-rule: nonzero; opacity: 1;"  x="-1" y="-4" rx="0" ry="0" width="2" height="8" />
</g>
<g transform="matrix(4.17 0 0 4.17 195.83 260.04)" id="Layer_1"  >
<path style="stroke: none; stroke-width: 1; stroke-dasharray: none; stroke-linecap: butt; stroke-dashoffset: 0; stroke-linejoin: miter; stroke-miterlimit: 4; fill: rgb(255,138,128); fill-rule: nonzero; opacity: 1;"  transform=" translate(-23, -38.41)" d="M 20 37 c 0 2.905 2 5 2 5 h 2 c 0 0 2 -2.095 2 -5 S 20 34.095 20 37 z" stroke-linecap="round" />
</g>
<g transform="matrix(4.17 0 0 4.17 158.9 239.58)" id="Layer_1"  >
<path style="stroke: none; stroke-width: 1; stroke-dasharray: none; stroke-linecap: butt; stroke-dashoffset: 0; stroke-linejoin: miter; stroke-miterlimit: 4; fill: rgb(229,115,115); fill-rule: nonzero; opacity: 1;"  transform=" translate(-14.14, -33.5)" d="M 15 27 c -4.357 0 -9 3.369 -9 7 c 0 0 0.821 0 3 0 c -1.934 1.089 -3 3.095 -3 6 c 0 0 1.643 -1 6 -1 c 0 0 3.643 0 8 0 c 0 0 3.439 -5.771 1.856 -8.857 S 15 27 15 27 z" stroke-linecap="round" />
</g>
<g transform="matrix(4.17 0 0 4.17 208.33 189.58)" id="Layer_1"  >
<path style="stroke: none; stroke-width: 1; stroke-dasharray: none; stroke-linecap: butt; stroke-dashoffset: 0; stroke-linejoin: miter; stroke-miterlimit: 4; fill: rgb(255,138,128); fill-rule: nonzero; opacity: 1;"  transform=" translate(-26, -21.5)" d="M 35.47 20.129 C 30.548 14.294 31 11.25 31 10.125 c 0 -0.375 0.195 -1.271 0.413 -1.631 C 31.931 9.39 32.89 10 34 10 c 1.657 0 3 -1.343 3 -3 s -1.343 -3 -3 -3 c -3.625 0 -6 2.905 -6 6.173 c 0 1.891 0.125 4.452 2.25 8.077 C 32.107 21.418 37 27 37 30 c 0 1.452 -1 2 -2 2 c -2.625 0 -4.125 -3.125 -7 -5.75 C 25.236 23.726 22.905 23 20 23 c -7.262 0 -10 2.5 -10 2.5 s 1.5 2.5 5 4.5 c -1 0 -4 0 -4 0 c 0 7.262 7 9 9 9 s 3 0 3 0 c 4 0 6 -2 6 -2 s 2.595 1 5.5 1 c 4 0 7.5 -2.125 7.5 -6.625 C 42 27.375 39.434 24.826 35.47 20.129 z" stroke-linecap="round" />
</g>
<g transform="matrix(4.17 0 0 4.17 245.83 129.17)" id="Layer_1"  >
<circle style="stroke: none; stroke-width: 1; stroke-dasharray: none; stroke-linecap: butt; stroke-dashoffset: 0; stroke-linejoin: miter; stroke-miterlimit: 4; fill: rgb(66,66,66); fill-rule: nonzero; opacity: 1;"  cx="0" cy="0" r="1" />
</g>
</svg>