<?xml version="1.0" encoding="UTF-8" standalone="no" ?>
<!DOCTYPE svg PUBLIC "-//W3C//DTD SVG 1.1//EN" "http://www.w3.org/Graphics/SVG/1.1/DTD/svg11.dtd">
<svg xmlns="http://www.w3.org/2000/svg" xmlns:xlink="http://www.w3.org/1999/xlink" version="1.1" width="400" height="400" viewBox="0 0 400 400" xml:space="preserve">
<desc>Created with Fabric.js 3.6.2</desc>
<defs>
</defs>
<g transform="matrix(4.17 0 0 4.17 263.27 136.73)" id="surface1"  >
<path style="stroke: none; stroke-width: 1; stroke-dasharray: none; stroke-linecap: butt; stroke-dashoffset: 0; stroke-linejoin: miter; stroke-miterlimit: 4; fill: rgb(221,159,5); fill-rule: nonzero; opacity: 1;"  transform=" translate(-39.19, -8.81)" d="M 35.371094 12.628906 L 37.675781 6.082031 L 37.835938 5.921875 C 37.929688 5.828125 38.792969 5 40.011719 5 C 40.53125 5 41.316406 5.160156 42.078125 5.921875 C 43.636719 7.480469 42.929688 9.3125 42.078125 10.164063 L 41.917969 10.324219 Z M 39.394531 7.226563 L 38.644531 9.359375 L 40.789063 8.601563 C 41.03125 8.277344 41.152344 7.824219 40.664063 7.335938 C 40.328125 7 40.089844 7 40.011719 7 C 39.777344 7 39.546875 7.121094 39.394531 7.226563 Z" stroke-linecap="round" />
</g>
<g transform="matrix(4.17 0 0 4.17 248.95 150.21)" id="surface1"  >
<path style="stroke: none; stroke-width: 1; stroke-dasharray: none; stroke-linecap: butt; stroke-dashoffset: 0; stroke-linejoin: miter; stroke-miterlimit: 4; fill: rgb(255,193,7); fill-rule: nonzero; opacity: 1;"  transform=" translate(-35.75, -12.05)" d="M 38.46875 10.648438 C 39.640625 11.820313 39.640625 13.71875 38.46875 14.890625 L 37.628906 15.730469 C 37.628906 15.730469 36 16 34 14 C 32 12 32.148438 9.898438 32.148438 9.898438 L 32.808594 9.238281 C 33.980469 8.070313 35.878906 8.058594 37.058594 9.238281 Z" stroke-linecap="round" />
</g>
<g transform="matrix(4.17 0 0 4.17 193.75 202.08)" id="surface1"  >
<path style="stroke: none; stroke-width: 1; stroke-dasharray: none; stroke-linecap: butt; stroke-dashoffset: 0; stroke-linejoin: miter; stroke-miterlimit: 4; fill: rgb(255,61,0); fill-rule: nonzero; opacity: 1;"  transform=" translate(-22.5, -24.5)" d="M 5 24.5 C 5 14.832031 12.835938 7 22.5 7 C 32.164063 7 40 14.832031 40 24.5 C 40 34.164063 32.164063 42 22.5 42 C 12.835938 42 5 34.164063 5 24.5 Z" stroke-linecap="round" />
</g>
<g transform="matrix(4.17 0 0 4.17 224.74 220.06)" id="surface1"  >
<path style="stroke: none; stroke-width: 1; stroke-dasharray: none; stroke-linecap: butt; stroke-dashoffset: 0; stroke-linejoin: miter; stroke-miterlimit: 4; fill: rgb(221,44,0); fill-rule: nonzero; opacity: 1;"  transform=" translate(-29.94, -28.81)" d="M 36.078125 26.070313 L 35.652344 18.042969 L 29.355469 23.136719 L 22.378906 21.75 L 24.429688 28.859375 L 20.371094 35.820313 L 27.902344 35.40625 L 31.339844 39.585938 C 32.15625 39.105469 32.9375 38.574219 33.660156 37.976563 L 35.101563 33.546875 L 38.296875 31.984375 C 38.8125 30.898438 39.21875 29.753906 39.503906 28.5625 Z" stroke-linecap="round" />
</g>
<g transform="matrix(4.17 0 0 4.17 141.77 222.68)" id="surface1"  >
<path style="stroke: none; stroke-width: 1; stroke-dasharray: none; stroke-linecap: butt; stroke-dashoffset: 0; stroke-linejoin: miter; stroke-miterlimit: 4; fill: rgb(221,44,0); fill-rule: nonzero; opacity: 1;"  transform=" translate(-10.03, -29.44)" d="M 15.050781 26.132813 L 9.519531 25.476563 L 5.664063 19.773438 C 5.242188 21.28125 5 22.859375 5 24.5 C 5 29.742188 7.316406 34.4375 10.972656 37.644531 L 14.570313 39.113281 L 12.375 31.535156 Z" stroke-linecap="round" />
</g>
<g transform="matrix(4.17 0 0 4.17 176.18 150.29)" id="surface1"  >
<path style="stroke: none; stroke-width: 1; stroke-dasharray: none; stroke-linecap: butt; stroke-dashoffset: 0; stroke-linejoin: miter; stroke-miterlimit: 4; fill: rgb(221,44,0); fill-rule: nonzero; opacity: 1;"  transform=" translate(-18.28, -12.07)" d="M 12.574219 10.09375 C 12.574219 10.09375 12.574219 10.09375 12.570313 10.097656 L 12.617188 10.191406 L 9.695313 16.101563 L 16.230469 14.375 L 20.15625 17.140625 L 21.375 12.085938 L 26.871094 8.457031 L 23.117188 7.101563 L 23.082031 7.027344 C 22.886719 7.023438 22.695313 7 22.5 7 C 18.8125 7 15.394531 8.144531 12.574219 10.09375 Z" stroke-linecap="round" />
</g>
<g transform="matrix(4.17 0 0 4.17 229.05 223.18)" id="surface1"  >
<path style="stroke: none; stroke-width: 1; stroke-dasharray: none; stroke-linecap: butt; stroke-dashoffset: 0; stroke-linejoin: miter; stroke-miterlimit: 4; fill: rgb(255,248,225); fill-rule: nonzero; opacity: 1;"  transform=" translate(-30.97, -29.56)" d="M 28.804688 33.355469 L 31.855469 37.0625 L 33.464844 32.121094 L 37.972656 29.917969 L 34.132813 27.132813 L 33.863281 22.0625 L 29.882813 25.277344 L 25.214844 24.351563 L 26.589844 29.125 L 23.972656 33.621094 Z" stroke-linecap="round" />
</g>
<g transform="matrix(4.17 0 0 4.17 135.69 223.75)" id="surface1"  >
<path style="stroke: none; stroke-width: 1; stroke-dasharray: none; stroke-linecap: butt; stroke-dashoffset: 0; stroke-linejoin: miter; stroke-miterlimit: 4; fill: rgb(255,248,225); fill-rule: nonzero; opacity: 1;"  transform=" translate(-8.57, -29.7)" d="M 8.375 27.351563 L 5.902344 23.699219 L 5.132813 26.570313 C 5.464844 29.394531 6.460938 32.015625 7.972656 34.261719 L 11.496094 35.699219 L 10.234375 31.347656 L 12 27.785156 Z" stroke-linecap="round" />
</g>
<g transform="matrix(4.17 0 0 4.17 174.76 143.91)" id="surface1"  >
<path style="stroke: none; stroke-width: 1; stroke-dasharray: none; stroke-linecap: butt; stroke-dashoffset: 0; stroke-linejoin: miter; stroke-miterlimit: 4; fill: rgb(255,248,225); fill-rule: nonzero; opacity: 1;"  transform=" translate(-17.94, -10.54)" d="M 14.851563 10.1875 L 13.441406 13.042969 L 16.617188 12.203125 L 18.902344 13.8125 L 19.617188 10.851563 L 22.441406 8.984375 L 19.699219 8 L 19.554688 7.265625 C 17.679688 7.585938 15.90625 8.1875 14.285156 9.050781 Z" stroke-linecap="round" />
</g>
</svg>