<?xml version="1.0" encoding="UTF-8" standalone="no" ?>
<!DOCTYPE svg PUBLIC "-//W3C//DTD SVG 1.1//EN" "http://www.w3.org/Graphics/SVG/1.1/DTD/svg11.dtd">
<svg xmlns="http://www.w3.org/2000/svg" xmlns:xlink="http://www.w3.org/1999/xlink" version="1.1" width="400" height="400" viewBox="0 0 400 400" xml:space="preserve">
<desc>Created with Fabric.js 3.6.2</desc>
<defs>
</defs>
<g transform="matrix(4.17 0 0 4.17 200 200)" id="surface1"  >
<path style="stroke: none; stroke-width: 1; stroke-dasharray: none; stroke-linecap: butt; stroke-dashoffset: 0; stroke-linejoin: miter; stroke-miterlimit: 4; fill: rgb(239,108,0); fill-rule: nonzero; opacity: 1;"  transform=" translate(-24, -24)" d="M 39 8 L 9 8 L 3 20 L 3 40 L 45 40 L 45 20 Z" stroke-linecap="round" />
</g>
<g transform="matrix(4.17 0 0 4.17 200 225)" id="surface1"  >
<path style="stroke: none; stroke-width: 1; stroke-dasharray: none; stroke-linecap: butt; stroke-dashoffset: 0; stroke-linejoin: miter; stroke-miterlimit: 4; fill: rgb(191,54,12); fill-rule: nonzero; opacity: 1;"  transform=" translate(-24, -30)" d="M 3 20 L 45 20 L 45 40 L 3 40 Z" stroke-linecap="round" />
</g>
<g transform="matrix(4.17 0 0 4.17 200 204.17)" id="surface1"  >
<path style="stroke: none; stroke-width: 1; stroke-dasharray: none; stroke-linecap: butt; stroke-dashoffset: 0; stroke-linejoin: miter; stroke-miterlimit: 4; fill: rgb(227,242,253); fill-rule: nonzero; opacity: 1;"  transform=" translate(-24, -25)" d="M 35 19.898438 C 35 29.898438 31.199219 37 28.199219 37 C 25.5 37 25.5 35.300781 24 35.300781 C 21.601563 35.300781 20.5 33.101563 19.101563 30.699219 C 18 28.800781 13 26.199219 13 19.898438 C 13 17.300781 18.300781 13 24 13 C 29.699219 13 35 16.898438 35 19.898438 Z" stroke-linecap="round" />
</g>
<g transform="matrix(4.17 0 0 4.17 200 218.75)" id="surface1"  >
<path style="stroke: none; stroke-width: 1; stroke-dasharray: none; stroke-linecap: butt; stroke-dashoffset: 0; stroke-linejoin: miter; stroke-miterlimit: 4; fill: rgb(187,222,251); fill-rule: nonzero; opacity: 1;"  transform=" translate(-24, -28.5)" d="M 13 20 C 13.101563 26.300781 18 28.800781 19.101563 30.699219 C 20.5 33.101563 21.699219 35.300781 24 35.300781 C 25.601563 35.300781 25.5 37 28.199219 37 C 31.199219 37 34.898438 29.898438 35 20 Z" stroke-linecap="round" />
</g>
<g transform="matrix(4.17 0 0 4.17 200 197.92)" id="surface1"  >
<path style="stroke: none; stroke-width: 1; stroke-dasharray: none; stroke-linecap: butt; stroke-dashoffset: 0; stroke-linejoin: miter; stroke-miterlimit: 4; fill: rgb(255,193,7); fill-rule: nonzero; opacity: 1;"  transform=" translate(-24, -23.5)" d="M 28.199219 38 C 26.300781 38 25.398438 37.300781 24.800781 36.699219 C 24.398438 36.398438 24.300781 36.300781 24 36.300781 C 21.199219 36.300781 19.800781 33.898438 18.398438 31.5 L 18.199219 31.199219 C 18 30.800781 17.5 30.300781 16.800781 29.699219 C 14.898438 27.800781 12 25 12 19.898438 C 12 16.601563 18 12 24 12 C 29.800781 12 36 16 36 19.898438 C 36 29.5 32.398438 38 28.199219 38 Z M 24 14 C 18.699219 14 14 18 14 19.898438 C 14 24.199219 16.5 26.601563 18.300781 28.300781 C 19 29 19.601563 29.601563 20 30.199219 L 20.199219 30.5 C 21.601563 32.800781 22.5 34.300781 24.101563 34.300781 C 25.199219 34.300781 25.699219 34.800781 26.199219 35.199219 C 26.699219 35.601563 27.101563 36 28.300781 36 C 30.300781 36 34.101563 29.898438 34.101563 19.898438 C 34 17.699219 29.199219 14 24 14 Z M 24 9 C 22.300781 9 21 9.699219 21 10.5 C 21 11.300781 22.300781 12 24 12 C 25.699219 12 27 11.300781 27 10.5 C 27 9.699219 25.699219 9 24 9 Z" stroke-linecap="round" />
</g>
<g transform="matrix(4.17 0 0 4.17 200 203.13)" id="surface1"  >
<path style="stroke: none; stroke-width: 1; stroke-dasharray: none; stroke-linecap: butt; stroke-dashoffset: 0; stroke-linejoin: miter; stroke-miterlimit: 4; fill: rgb(26,35,126); fill-rule: nonzero; opacity: 1;"  transform=" translate(-24, -24.75)" d="M 24 29 C 23.398438 29 23 28.601563 23 28 L 23 20.5 L 20.398438 18.800781 C 19.898438 18.5 19.800781 17.898438 20.101563 17.398438 C 20.398438 16.898438 21 16.800781 21.5 17.101563 L 24.5 19.101563 C 24.800781 19.300781 24.898438 19.601563 24.898438 19.898438 L 24.898438 27.898438 C 25 28.601563 24.601563 29 24 29 Z M 24 31 C 23.398438 31 23 31.398438 23 32 C 23 32.601563 23.398438 33 24 33 C 24.601563 33 25 32.601563 25 32 C 25 31.398438 24.601563 31 24 31 Z M 24 14.5 C 23.398438 14.5 23 14.699219 23 15 C 23 15.300781 23.398438 15.5 24 15.5 C 24.601563 15.5 25 15.300781 25 15 C 25 14.699219 24.601563 14.5 24 14.5 Z M 28 15.5 C 27.398438 15.5 27 15.699219 27 16 C 27 16.300781 27.398438 16.5 28 16.5 C 28.601563 16.5 29 16.300781 29 16 C 29 15.699219 28.601563 15.5 28 15.5 Z M 20 15.5 C 19.398438 15.5 19 15.699219 19 16 C 19 16.300781 19.398438 16.5 20 16.5 C 20.601563 16.5 21 16.300781 21 16 C 21 15.699219 20.601563 15.5 20 15.5 Z M 31 17.5 C 30.398438 17.5 30 17.699219 30 18 C 30 18.300781 30.398438 18.5 31 18.5 C 31.601563 18.5 32 18.300781 32 18 C 32 17.699219 31.601563 17.5 31 17.5 Z M 17 17.5 C 16.398438 17.5 16 17.699219 16 18 C 16 18.300781 16.398438 18.5 17 18.5 C 17.601563 18.5 18 18.300781 18 18 C 18 17.699219 17.601563 17.5 17 17.5 Z M 20 26 C 19.398438 26 19 26.398438 19 27 C 19 27.601563 19.398438 28 20 28 C 20.601563 28 21 27.601563 21 27 C 21 26.398438 20.601563 26 20 26 Z M 16 21 C 15.398438 21 15 21.398438 15 22 C 15 22.601563 15.398438 23 16 23 C 16.601563 23 17 22.601563 17 22 C 17 21.398438 16.601563 21 16 21 Z M 28 33 C 27.398438 33 27 33.398438 27 34 C 27 34.601563 27.398438 35 28 35 C 28.601563 35 29 34.601563 29 34 C 29 33.398438 28.601563 33 28 33 Z M 30 30 C 29.398438 30 29 30.398438 29 31 C 29 31.601563 29.398438 32 30 32 C 30.601563 32 31 31.601563 31 31 C 31 30.398438 30.601563 30 30 30 Z M 31 26 C 30.398438 26 30 26.398438 30 27 C 30 27.601563 30.398438 28 31 28 C 31.601563 28 32 27.601563 32 27 C 32 26.398438 31.601563 26 31 26 Z M 32 21 C 31.398438 21 31 21.398438 31 22 C 31 22.601563 31.398438 23 32 23 C 32.601563 23 33 22.601563 33 22 C 33 21.398438 32.601563 21 32 21 Z" stroke-linecap="round" />
</g>
</svg>