<?xml version="1.0" encoding="UTF-8" standalone="no" ?>
<!DOCTYPE svg PUBLIC "-//W3C//DTD SVG 1.1//EN" "http://www.w3.org/Graphics/SVG/1.1/DTD/svg11.dtd">
<svg xmlns="http://www.w3.org/2000/svg" xmlns:xlink="http://www.w3.org/1999/xlink" version="1.1" width="400" height="400" viewBox="0 0 400 400" xml:space="preserve">
<desc>Created with Fabric.js 3.6.2</desc>
<defs>
</defs>
<g transform="matrix(4.17 0 0 4.17 158.33 194.08)" id="surface1"  >
<path style="stroke: none; stroke-width: 1; stroke-dasharray: none; stroke-linecap: butt; stroke-dashoffset: 0; stroke-linejoin: miter; stroke-miterlimit: 4; fill: rgb(236,239,241); fill-rule: nonzero; opacity: 1;"  transform=" translate(-14, -22.58)" d="M 16.183594 5.585938 C 9.023438 8.632813 4 15.730469 4 24 C 4 30.296875 6.914063 35.90625 11.464844 39.570313 C 14.945313 38.570313 21.195313 35.226563 24 24 C 24 24 17.628906 16.695313 16.183594 5.585938 Z" stroke-linecap="round" />
</g>
<g transform="matrix(4.17 0 0 4.17 172.78 176.25)" id="surface1"  >
<path style="stroke: none; stroke-width: 1; stroke-dasharray: none; stroke-linecap: butt; stroke-dashoffset: 0; stroke-linejoin: miter; stroke-miterlimit: 4; fill: rgb(126,140,207); fill-rule: nonzero; opacity: 1;"  transform=" translate(-17.47, -18.3)" d="M 16.183594 5.585938 C 14.261719 6.402344 12.496094 7.523438 10.9375 8.871094 C 10.78125 23.546875 19.929688 30.050781 20.992188 30.808594 C 20.992188 30.808594 21.136719 30.890625 21.355469 31.011719 C 22.386719 29.105469 23.300781 26.800781 24 24 C 24 24 17.628906 16.695313 16.183594 5.585938 Z" stroke-linecap="round" />
</g>
<g transform="matrix(4.17 0 0 4.17 216.5 239.09)" id="surface1"  >
<path style="stroke: none; stroke-width: 1; stroke-dasharray: none; stroke-linecap: butt; stroke-dashoffset: 0; stroke-linejoin: miter; stroke-miterlimit: 4; fill: rgb(236,239,241); fill-rule: nonzero; opacity: 1;"  transform=" translate(-27.96, -33.38)" d="M 24 24 C 24 24 23 35 12.023438 39.988281 C 15.363281 42.496094 19.503906 44 24 44 C 34.363281 44 42.882813 36.117188 43.898438 26.023438 C 41.5625 24.253906 35.367188 20.96875 24 24 Z" stroke-linecap="round" />
</g>
<g transform="matrix(4.17 0 0 4.17 241.9 240.32)" id="surface1"  >
<path style="stroke: none; stroke-width: 1; stroke-dasharray: none; stroke-linecap: butt; stroke-dashoffset: 0; stroke-linejoin: miter; stroke-miterlimit: 4; fill: rgb(126,140,207); fill-rule: nonzero; opacity: 1;"  transform=" translate(-34.06, -33.68)" d="M 24.214844 43.988281 C 34.480469 43.882813 42.890625 36.046875 43.898438 26.023438 C 42.816406 25.199219 40.886719 24.058594 38.007813 23.367188 C 38.050781 25.710938 37.878906 37.242188 24.214844 43.988281 Z" stroke-linecap="round" />
</g>
<g transform="matrix(4.17 0 0 4.17 224.93 162.4)" id="surface1"  >
<path style="stroke: none; stroke-width: 1; stroke-dasharray: none; stroke-linecap: butt; stroke-dashoffset: 0; stroke-linejoin: miter; stroke-miterlimit: 4; fill: rgb(236,239,241); fill-rule: nonzero; opacity: 1;"  transform=" translate(-29.98, -14.98)" d="M 44 24 C 44 12.953125 35.046875 4 24 4 C 21.140625 4 18.429688 4.609375 15.96875 5.691406 C 15.941406 7.972656 16.472656 15.636719 24 24 C 24 24 33.933594 21.019531 43.902344 25.953125 C 43.964844 25.308594 44 24.660156 44 24 Z" stroke-linecap="round" />
</g>
<g transform="matrix(4.17 0 0 4.17 179.15 166.36)" id="surface1"  >
<path style="stroke: none; stroke-width: 1; stroke-dasharray: none; stroke-linecap: butt; stroke-dashoffset: 0; stroke-linejoin: miter; stroke-miterlimit: 4; fill: rgb(95,110,196); fill-rule: nonzero; opacity: 1;"  transform=" translate(-19, -15.93)" d="M 15.96875 5.691406 C 16.039063 5.660156 16.113281 5.632813 16.1875 5.601563 L 16.183594 5.585938 C 15.425781 5.910156 14.699219 6.289063 13.992188 6.703125 C 14.160156 9.941406 15.386719 17.414063 22.515625 25.335938 L 23.347656 26.265625 C 23.578125 25.546875 23.800781 24.796875 24 24 C 16.472656 15.636719 15.941406 7.972656 15.96875 5.691406 Z" stroke-linecap="round" />
</g>
<g transform="matrix(4.17 0 0 4.17 218.57 136.28)" id="surface1"  >
<path style="stroke: none; stroke-width: 1; stroke-dasharray: none; stroke-linecap: butt; stroke-dashoffset: 0; stroke-linejoin: miter; stroke-miterlimit: 4; fill: rgb(126,140,207); fill-rule: nonzero; opacity: 1;"  transform=" translate(-28.46, -8.71)" d="M 40.945313 13.414063 C 37.410156 7.769531 31.152344 4 24 4 C 21.140625 4 18.429688 4.609375 15.96875 5.691406 C 15.957031 6.714844 16.0625 8.820313 16.851563 11.582031 L 17.03125 11.492188 C 18.265625 10.878906 29.324219 7.226563 40.945313 13.414063 Z" stroke-linecap="round" />
</g>
<g transform="matrix(4.17 0 0 4.17 143.16 211.27)" id="surface1"  >
<path style="stroke: none; stroke-width: 1; stroke-dasharray: none; stroke-linecap: butt; stroke-dashoffset: 0; stroke-linejoin: miter; stroke-miterlimit: 4; fill: rgb(255,186,87); fill-rule: nonzero; opacity: 1;"  transform=" translate(-10.36, -26.71)" d="M 6.78125 13.839844 C 5.019531 16.816406 4 20.289063 4 24 C 4 30.296875 6.914063 35.90625 11.464844 39.570313 C 12.886719 39.164063 14.769531 38.351563 16.691406 36.78125 L 16.714844 36.507813 C 15.671875 35.761719 6.191406 28.859375 6.78125 13.839844 Z" stroke-linecap="round" />
</g>
<g transform="matrix(4.17 0 0 4.17 188.72 236.87)" id="surface1"  >
<path style="stroke: none; stroke-width: 1; stroke-dasharray: none; stroke-linecap: butt; stroke-dashoffset: 0; stroke-linejoin: miter; stroke-miterlimit: 4; fill: rgb(255,186,87); fill-rule: nonzero; opacity: 1;"  transform=" translate(-21.29, -32.85)" d="M 11.371094 39.503906 C 13.167969 40.96875 15.226563 42.109375 17.460938 42.882813 C 28.355469 37.363281 31.203125 27.371094 31.214844 22.816406 C 29.085938 22.929688 26.691406 23.28125 24 24 C 24 24 22 35 11.371094 39.503906 Z" stroke-linecap="round" />
</g>
<g transform="matrix(4.17 0 0 4.17 177.95 234.11)" id="surface1"  >
<path style="stroke: none; stroke-width: 1; stroke-dasharray: none; stroke-linecap: butt; stroke-dashoffset: 0; stroke-linejoin: miter; stroke-miterlimit: 4; fill: rgb(249,168,37); fill-rule: nonzero; opacity: 1;"  transform=" translate(-18.71, -32.19)" d="M 25.65625 25.644531 C 25.855469 24.808594 25.972656 24.113281 26.042969 23.511719 C 25.382813 23.652344 24.699219 23.8125 24 24 C 24 24 22 35 11.371094 39.503906 C 11.980469 39.996094 12.625 40.441406 13.289063 40.859375 C 13.90625 40.578125 14.578125 40.21875 15.273438 39.734375 C 22.269531 35.40625 24.855469 28.503906 25.65625 25.644531 Z" stroke-linecap="round" />
</g>
<g transform="matrix(4.17 0 0 4.17 232.39 187.99)" id="surface1"  >
<path style="stroke: none; stroke-width: 1; stroke-dasharray: none; stroke-linecap: butt; stroke-dashoffset: 0; stroke-linejoin: miter; stroke-miterlimit: 4; fill: rgb(255,186,87); fill-rule: nonzero; opacity: 1;"  transform=" translate(-31.77, -21.12)" d="M 19.566406 17.824219 L 19.546875 17.894531 C 20.65625 19.835938 22.105469 21.894531 24 24 C 24 24 33.933594 21.019531 43.902344 25.953125 C 43.964844 25.308594 44 24.660156 44 24 C 44 22.542969 43.835938 21.128906 43.539063 19.761719 C 32.136719 13.765625 20.816406 17.199219 19.566406 17.824219 Z" stroke-linecap="round" />
</g>
<g transform="matrix(4.17 0 0 4.17 238.75 198.05)" id="surface1"  >
<path style="stroke: none; stroke-width: 1; stroke-dasharray: none; stroke-linecap: butt; stroke-dashoffset: 0; stroke-linejoin: miter; stroke-miterlimit: 4; fill: rgb(249,168,37); fill-rule: nonzero; opacity: 1;"  transform=" translate(-33.3, -23.53)" d="M 31.300781 21.109375 C 28.402344 21.109375 26.066406 21.484375 24.710938 21.769531 C 23.871094 21.949219 23.183594 22.148438 22.597656 22.347656 C 23.035156 22.894531 23.5 23.445313 24 24 C 24 24 26.972656 23.109375 31.300781 23.109375 C 34.878906 23.109375 39.386719 23.71875 43.902344 25.953125 C 43.964844 25.308594 44 24.660156 44 24 C 44 23.921875 43.992188 23.847656 43.992188 23.769531 C 43.453125 23.554688 42.800781 23.289063 41.96875 22.949219 C 38.644531 21.726563 35.066406 21.109375 31.300781 21.109375 Z" stroke-linecap="round" />
</g>
</svg>