<?xml version="1.0" encoding="UTF-8" standalone="no" ?>
<!DOCTYPE svg PUBLIC "-//W3C//DTD SVG 1.1//EN" "http://www.w3.org/Graphics/SVG/1.1/DTD/svg11.dtd">
<svg xmlns="http://www.w3.org/2000/svg" xmlns:xlink="http://www.w3.org/1999/xlink" version="1.1" width="400" height="400" viewBox="0 0 400 400" xml:space="preserve">
<desc>Created with Fabric.js 3.6.2</desc>
<defs>
</defs>
<g transform="matrix(4.17 0 0 4.17 250 137.5)" id="Layer_1"  >
<path style="stroke: none; stroke-width: 1; stroke-dasharray: none; stroke-linecap: butt; stroke-dashoffset: 0; stroke-linejoin: miter; stroke-miterlimit: 4; fill: rgb(255,183,77); fill-rule: nonzero; opacity: 1;"  transform=" translate(-36, -9)" d="M 36 13 c 2.205 0 4 -1.795 4 -4 c 0 -2.205 -1.795 -4 -4 -4 s -4 1.795 -4 4 C 32 11.205 33.795 13 36 13" stroke-linecap="round" />
</g>
<g transform="matrix(2.95 -2.95 2.95 2.95 163.67 238.8)" id="Layer_1"  >
<rect style="stroke: none; stroke-width: 1; stroke-dasharray: none; stroke-linecap: butt; stroke-dashoffset: 0; stroke-linejoin: miter; stroke-miterlimit: 4; fill: rgb(84,110,122); fill-rule: nonzero; opacity: 1;"  x="-10.6065" y="-1" rx="0" ry="0" width="21.213" height="2" />
</g>
<g transform="matrix(4.17 0 0 4.17 210.94 188.8)" id="Layer_1"  >
<path style="stroke: none; stroke-width: 1; stroke-dasharray: none; stroke-linecap: butt; stroke-dashoffset: 0; stroke-linejoin: miter; stroke-miterlimit: 4; fill: rgb(25,118,210); fill-rule: nonzero; opacity: 1;"  transform=" translate(-26.63, -21.31)" d="M 22 28 c -0.508 0 -1.015 -0.191 -1.404 -0.576 c -0.787 -0.776 -0.795 -2.042 -0.02 -2.828 l 9.25 -9.375 c 0.776 -0.789 2.042 -0.796 2.828 -0.02 c 0.787 0.776 0.795 2.042 0.02 2.828 l -9.25 9.375 C 23.032 27.802 22.517 28 22 28 z" stroke-linecap="round" />
</g>
<g transform="matrix(4.17 0 0 4.17 145.83 245.83)" id="Layer_1"  >
<path style="stroke: none; stroke-width: 1; stroke-dasharray: none; stroke-linecap: butt; stroke-dashoffset: 0; stroke-linejoin: miter; stroke-miterlimit: 4; fill: rgb(221,44,0); fill-rule: nonzero; opacity: 1;"  transform=" translate(-11, -35)" d="M 14.975 29.025 C 14.291 28.342 13.396 28 12.5 28 c -0.896 0 -1.791 0.342 -2.475 1.025 c -0.764 0.764 -4.232 4.232 -5 5 C 4.343 34.707 4.001 35.6 4 36.494 c -0.001 0.898 0.34 1.796 1.025 2.481 C 6.392 40.342 8 42 8 42 l 10 -10 C 18 32 15.401 29.451 14.975 29.025 z" stroke-linecap="round" />
</g>
<g transform="matrix(4.17 0 0 4.17 137.5 270.83)" id="Layer_1"  >
<circle style="stroke: none; stroke-width: 1; stroke-dasharray: none; stroke-linecap: butt; stroke-dashoffset: 0; stroke-linejoin: miter; stroke-miterlimit: 4; fill: rgb(84,110,122); fill-rule: nonzero; opacity: 1;"  cx="0" cy="0" r="2" />
</g>
<g transform="matrix(4.17 0 0 4.17 238.02 200.08)" id="Layer_1"  >
<polygon style="stroke: none; stroke-width: 1; stroke-dasharray: none; stroke-linecap: butt; stroke-dashoffset: 0; stroke-linejoin: miter; stroke-miterlimit: 4; fill: rgb(25,118,210); fill-rule: nonzero; opacity: 1;"  points="1.73,-2.14 -0.22,4.3 -1.73,2.45 0.3,-4.3 " />
</g>
<g transform="matrix(4.17 0 0 4.17 212.66 245.83)" id="Layer_1"  >
<path style="stroke: none; stroke-width: 1; stroke-dasharray: none; stroke-linecap: butt; stroke-dashoffset: 0; stroke-linejoin: miter; stroke-miterlimit: 4; fill: rgb(25,118,210); fill-rule: nonzero; opacity: 1;"  transform=" translate(-27.04, -35)" d="M 27.743 27 l -1.599 6.218 l -3.88 6.79 c -0.548 0.959 -0.215 2.181 0.744 2.729 C 23.32 42.915 23.662 43 23.998 43 c 0.694 0 1.369 -0.361 1.738 -1.008 l 4 -7 c 0.08 -0.14 0.143 -0.288 0.187 -0.442 L 32.077 27 H 27.743 z" stroke-linecap="round" />
</g>
<g transform="matrix(4.17 0 0 4.17 245.83 218.75)" id="Layer_1"  >
<path style="stroke: none; stroke-width: 1; stroke-dasharray: none; stroke-linecap: butt; stroke-dashoffset: 0; stroke-linejoin: miter; stroke-miterlimit: 4; fill: rgb(33,150,243); fill-rule: nonzero; opacity: 1;"  transform=" translate(-35, -28.5)" d="M 42.89 23.21 l -3.52 -1.76 l -3.928 -5.865 c -0.434 -0.661 -1.08 -1.188 -1.895 -1.435 c -0.335 -0.101 -0.673 -0.149 -1.006 -0.15 c -1.508 -0.005 -2.9 0.97 -3.36 2.484 l -3.031 10 c -0.38 1.255 -0.005 2.544 0.838 3.431 c 1.387 1.459 6.112 4.944 6.112 4.944 l 0.92 6.42 c 0.14 1 1 1.72 1.98 1.72 c 0.09 0 0.19 -0.01 0.28 -0.02 c 1.005 -0.146 1.725 -1.002 1.72 -1.98 c 0 -0.092 -0.006 -0.186 -0.02 -0.28 l -1 -7 c -0.05 -0.38 -0.21 -0.73 -0.46 -1.02 l -3.61 -4.382 l 1.951 -6.438 l 1.469 2.22 c 0.2 0.3 0.46 0.53 0.78 0.69 l 4 2 C 41.39 26.93 41.7 27 42 27 c 0.73 0 1.44 -0.4 1.79 -1.11 C 44.28 24.91 43.88 23.71 42.89 23.21 z" stroke-linecap="round" />
</g>
</svg>