<?xml version="1.0" encoding="UTF-8" standalone="no" ?>
<!DOCTYPE svg PUBLIC "-//W3C//DTD SVG 1.1//EN" "http://www.w3.org/Graphics/SVG/1.1/DTD/svg11.dtd">
<svg xmlns="http://www.w3.org/2000/svg" xmlns:xlink="http://www.w3.org/1999/xlink" version="1.1" width="400" height="400" viewBox="0 0 400 400" xml:space="preserve">
<desc>Created with Fabric.js 3.6.2</desc>
<defs>
</defs>
<g transform="matrix(4.17 0 0 4.17 200 199.79)" id="surface1"  >
<path style="stroke: none; stroke-width: 1; stroke-dasharray: none; stroke-linecap: butt; stroke-dashoffset: 0; stroke-linejoin: miter; stroke-miterlimit: 4; fill: rgb(129,212,250); fill-rule: nonzero; opacity: 1;"  transform=" translate(-24, -23.95)" d="M 24 42.2 c -9.5 0 -16.3 -4.8 -16.3 -4.8 V 23 c 0 -9.2 4.8 -17.3 16.3 -17.3 s 16.3 7.9 16.3 17.1 v 14.6 C 40.3 37.4 33.5 42.2 24 42.2 z" stroke-linecap="round" />
</g>
<g transform="matrix(4.17 0 0 4.17 200 232.08)" id="surface1"  >
<path style="stroke: none; stroke-width: 1; stroke-dasharray: none; stroke-linecap: butt; stroke-dashoffset: 0; stroke-linejoin: miter; stroke-miterlimit: 4; fill: rgb(30,136,229); fill-rule: nonzero; opacity: 1;"  transform=" translate(-24, -31.7)" d="M 7.7 29.8 h -1 c -1.1 0 -1.9 -0.9 -1.9 -1.9 V 23 c 0 -1.1 0.9 -1.9 1.9 -1.9 h 1 V 29.8 z M 40.3 21.1 h 1 c 1.1 0 1.9 0.9 1.9 1.9 v 4.8 c 0 1.1 -0.9 1.9 -1.9 1.9 h -1 V 21.1 z M 7.7 34.6 v 2.9 c 0 0 6.9 4.8 16.3 4.8 s 16.3 -4.8 16.3 -4.8 v -2.9 c 0 0 -6.9 4.8 -16.3 4.8 S 7.7 34.6 7.7 34.6 z" stroke-linecap="round" />
</g>
<g transform="matrix(4.17 0 0 4.17 200 199.79)" id="surface1"  >
<path style="stroke: none; stroke-width: 1; stroke-dasharray: none; stroke-linecap: butt; stroke-dashoffset: 0; stroke-linejoin: miter; stroke-miterlimit: 4; fill: rgb(126,87,194); fill-rule: nonzero; opacity: 1;"  transform=" translate(-24, -23.95)" d="M 24 35.5 c -8.2 0 -13.4 -3.4 -13.4 -8.6 V 22 c 0 -4.4 3.5 -9.6 13.4 -9.6 s 13.4 5.2 13.4 9.6 v 4.8 C 37.4 32.1 32.2 35.5 24 35.5 z" stroke-linecap="round" />
</g>
<g transform="matrix(4.17 0 0 4.17 200 199.79)" id="surface1"  >
<path style="stroke: none; stroke-width: 1; stroke-dasharray: none; stroke-linecap: butt; stroke-dashoffset: 0; stroke-linejoin: miter; stroke-miterlimit: 4; fill: rgb(179,229,252); fill-rule: nonzero; opacity: 1;"  transform=" translate(-24, -23.95)" d="M 24 13.4 c 9.3 0 12.5 4.7 12.5 8.6 v 4.8 c 0 4.6 -4.8 7.7 -12.5 7.7 s -12.5 -3.1 -12.5 -7.7 V 22 C 11.5 18.1 14.7 13.4 24 13.4 M 24 11.5 C 13.4 11.5 9.6 17.2 9.6 22 v 4.8 c 0 5.8 5.7 9.6 14.4 9.6 s 14.4 -3.8 14.4 -9.6 V 22 C 38.4 16.8 33.9 11.5 24 11.5 z" stroke-linecap="round" />
</g>
<g transform="matrix(4.17 0 0 4.17 200 199.79)" id="surface1"  >
<path style="stroke: none; stroke-width: 1; stroke-dasharray: none; stroke-linecap: butt; stroke-dashoffset: 0; stroke-linejoin: miter; stroke-miterlimit: 4; fill: rgb(126,87,194); fill-rule: nonzero; opacity: 1;"  transform=" translate(-24, -23.95)" d="M 24 35.5 c -8.2 0 -13.4 -3.4 -13.4 -8.6 V 22 c 0 -4.4 3.5 -9.6 13.4 -9.6 s 13.4 5.2 13.4 9.6 v 4.8 C 37.4 32.1 32.2 35.5 24 35.5 z" stroke-linecap="round" />
</g>
<g transform="matrix(4.17 0 0 4.17 200 199.79)" id="surface1"  >
<path style="stroke: none; stroke-width: 1; stroke-dasharray: none; stroke-linecap: butt; stroke-dashoffset: 0; stroke-linejoin: miter; stroke-miterlimit: 4; fill: rgb(179,229,252); fill-rule: nonzero; opacity: 1;"  transform=" translate(-24, -23.95)" d="M 24 13.4 c 9.3 0 12.5 4.7 12.5 8.6 v 4.8 c 0 4.6 -4.8 7.7 -12.5 7.7 s -12.5 -3.1 -12.5 -7.7 V 22 C 11.5 18.1 14.7 13.4 24 13.4 M 24 11.5 C 13.4 11.5 9.6 17.2 9.6 22 v 4.8 c 0 5.8 5.7 9.6 14.4 9.6 s 14.4 -3.8 14.4 -9.6 V 22 C 38.4 16.8 33.9 11.5 24 11.5 z" stroke-linecap="round" />
</g>
<g transform="matrix(4.17 0 0 4.17 200 200)" id="surface1"  >
<path style="stroke: none; stroke-width: 1; stroke-dasharray: none; stroke-linecap: butt; stroke-dashoffset: 0; stroke-linejoin: miter; stroke-miterlimit: 4; fill: rgb(126,87,194); fill-rule: nonzero; opacity: 1;"  transform=" translate(-24, -24)" d="M 36.5 26.9 c 0 4.6 -4.8 7.7 -12.5 7.7 s -12.5 -3.1 -12.5 -7.7 V 22 c 0 -3.9 3.2 -8.6 12.5 -8.6 s 12.5 4.7 12.5 8.6 V 26.9 z" stroke-linecap="round" />
</g>
<g transform="matrix(4.17 0 0 4.17 233.96 219.17)" id="surface1"  >
<path style="stroke: none; stroke-width: 1; stroke-dasharray: none; stroke-linecap: butt; stroke-dashoffset: 0; stroke-linejoin: miter; stroke-miterlimit: 4; fill: rgb(74,20,140); fill-rule: nonzero; opacity: 1;"  transform=" translate(-32.15, -28.6)" d="M 36.5 25.9 c 0 0 0 1.3 -0.8 2.1 c -0.5 0.5 -1.2 0.7 -2.1 0.7 h -4.1 c -0.3 -0.6 -0.9 -1 -1.7 -1 c -1.1 0 -1.9 0.9 -1.9 1.9 c 0 1.1 0.9 1.9 1.9 1.9 c 0.7 0 1.3 -0.4 1.7 -1 h 4.1 c 1.4 0 2.6 -0.4 3.4 -1.3 c 1.4 -1.4 1.4 -3.4 1.4 -3.5 L 36.5 25.9 z" stroke-linecap="round" />
</g>
<g transform="matrix(4.17 0 0 4.17 182.08 191.88)" id="surface1"  >
<path style="stroke: none; stroke-width: 1; stroke-dasharray: none; stroke-linecap: butt; stroke-dashoffset: 0; stroke-linejoin: miter; stroke-miterlimit: 4; fill: rgb(179,136,255); fill-rule: nonzero; opacity: 1;"  transform=" translate(-19.7, -22.05)" d="M 15.4 27.9 c -0.6 0 -1 -0.4 -1 -1 V 22 c 0 -3.6 3.7 -5.8 9.6 -5.8 c 0.6 0 1 0.4 1 1 s -0.4 1 -1 1 c -4.6 0 -7.6 1.5 -7.6 3.8 v 4.8 C 16.4 27.4 15.9 27.9 15.4 27.9 z" stroke-linecap="round" />
</g>
<g transform="matrix(4.17 0 0 4.17 200 199.79)" id="surface1"  >
<path style="stroke: none; stroke-width: 1; stroke-dasharray: none; stroke-linecap: butt; stroke-dashoffset: 0; stroke-linejoin: miter; stroke-miterlimit: 4; fill: rgb(179,229,252); fill-rule: nonzero; opacity: 1;"  transform=" translate(-24, -23.95)" d="M 24 13.4 c 9.3 0 12.5 4.7 12.5 8.6 v 4.8 c 0 4.6 -4.8 7.7 -12.5 7.7 s -12.5 -3.1 -12.5 -7.7 V 22 C 11.5 18.1 14.7 13.4 24 13.4 M 24 11.5 C 13.4 11.5 9.6 17.2 9.6 22 v 4.8 c 0 5.8 5.7 9.6 14.4 9.6 s 14.4 -3.8 14.4 -9.6 V 22 C 38.4 16.8 33.9 11.5 24 11.5 z" stroke-linecap="round" />
</g>
</svg>