<?xml version="1.0" encoding="UTF-8" standalone="no" ?>
<!DOCTYPE svg PUBLIC "-//W3C//DTD SVG 1.1//EN" "http://www.w3.org/Graphics/SVG/1.1/DTD/svg11.dtd">
<svg xmlns="http://www.w3.org/2000/svg" xmlns:xlink="http://www.w3.org/1999/xlink" version="1.1" width="400" height="400" viewBox="0 0 400 400" xml:space="preserve">
<desc>Created with Fabric.js 3.6.2</desc>
<defs>
</defs>
<g transform="matrix(4.17 0 0 4.17 194.58 247.08)" id="surface1"  >
<path style="stroke: none; stroke-width: 1; stroke-dasharray: none; stroke-linecap: butt; stroke-dashoffset: 0; stroke-linejoin: miter; stroke-miterlimit: 4; fill: rgb(255,193,7); fill-rule: nonzero; opacity: 1;"  transform=" translate(-22.7, -35.3)" d="M 29.3 39 c 0.2 -0.3 0.4 -0.5 0.6 -0.8 c -5.8 0.7 -12.4 -4.3 -14.1 -9.7 c -0.1 0.3 -0.1 0.7 -0.2 1 c 0 0 0 0.1 0 0.1 c 0 0.3 -0.1 0.7 -0.1 1 c 0 4.7 3.3 11.5 8 11.5 c 0.3 0 0.6 0 0.9 -0.1 c 0.1 0 0.1 0 0.2 -0.1 c 0.2 0 0.4 -0.1 0.6 -0.2 c 0.1 0 0.1 -0.1 0.2 -0.1 c 0.2 -0.1 0.4 -0.2 0.6 -0.3 c 0.1 0 0.1 -0.1 0.2 -0.1 c 0.2 -0.1 0.4 -0.2 0.7 -0.4 c 0 0 0.1 -0.1 0.1 -0.1 c 0.2 -0.2 0.5 -0.3 0.7 -0.5 c 0 0 0 0 0.1 -0.1 c 0.2 -0.2 0.5 -0.4 0.7 -0.6 c 0 0 0 0 0 0 C 28.8 39.5 29 39.2 29.3 39 C 29.3 39 29.3 39 29.3 39 z" stroke-linecap="round" />
</g>
<g transform="matrix(4.17 0 0 4.17 209.17 212.29)" id="surface1"  >
<path style="stroke: none; stroke-width: 1; stroke-dasharray: none; stroke-linecap: butt; stroke-dashoffset: 0; stroke-linejoin: miter; stroke-miterlimit: 4; fill: rgb(255,193,7); fill-rule: nonzero; opacity: 1;"  transform=" translate(-26.2, -26.95)" d="M 26.9 25.4 c -1.2 -1.1 -2.1 -2.3 -2.6 -3.5 c -0.2 -0.1 -0.4 -0.1 -0.6 -0.2 c -0.1 0 -0.2 0 -0.2 0 c -0.2 0 -0.4 -0.1 -0.7 -0.1 c -0.1 0 -0.2 0 -0.3 0 c -0.2 0 -0.4 0 -0.5 0 c -0.1 0 -0.2 0 -0.4 0.1 c -0.1 0 -0.2 0 -0.3 0.1 c -0.3 0.1 -0.6 0.2 -0.8 0.3 c 0 0 0 0 -0.1 0 c -0.2 0.1 -0.3 0.2 -0.5 0.2 c 0.7 5 5.9 10.1 12.5 10 c 0 -0.2 0.1 -0.4 0.1 -0.6 c 0 -0.2 0 -0.5 0 -0.7 c 0 -1.2 -0.2 -2.2 -0.6 -3.1 C 30.2 27.7 28.4 26.9 26.9 25.4 z" stroke-linecap="round" />
</g>
<g transform="matrix(4.17 0 0 4.17 234.17 180.22)" id="surface1"  >
<path style="stroke: none; stroke-width: 1; stroke-dasharray: none; stroke-linecap: butt; stroke-dashoffset: 0; stroke-linejoin: miter; stroke-miterlimit: 4; fill: rgb(255,193,7); fill-rule: nonzero; opacity: 1;"  transform=" translate(-32.2, -19.25)" d="M 37.5 23.1 c 0 -0.6 0 -1.2 -0.1 -1.8 c 0 0 0 -0.1 0 -0.1 c -0.1 -0.3 -0.2 -0.6 -0.3 -0.9 v 0 c -0.1 -0.3 -0.3 -0.6 -0.4 -0.8 c 0 -0.1 -0.1 -0.1 -0.1 -0.2 c -0.2 -0.3 -0.3 -0.5 -0.5 -0.8 c 0 0 0 0 0 0 c -0.2 -0.3 -0.4 -0.5 -0.6 -0.8 c -0.1 -0.1 -0.1 -0.1 -0.2 -0.2 c -0.2 -0.2 -0.5 -0.5 -0.7 -0.7 c -0.3 -0.2 -0.5 -0.5 -0.8 -0.7 c -0.1 0 -0.1 -0.1 -0.2 -0.1 c -0.3 -0.2 -0.6 -0.4 -0.9 -0.6 c 0 0 -0.1 0 -0.1 0 c -0.3 -0.2 -0.6 -0.3 -0.9 -0.4 c 0 0 -0.1 0 -0.1 0 c -0.3 -0.1 -0.6 -0.2 -0.9 -0.3 c 0 0 -0.1 0 -0.1 0 c -0.6 -0.2 -1.3 -0.2 -1.9 -0.2 c 0 0 0 0 0 0 c -0.6 0 -1.2 0.2 -1.8 0.5 h 0 c 0.5 3.3 3.7 9.2 10.4 9 v 0 C 37.4 23.8 37.5 23.5 37.5 23.1 C 37.5 23.2 37.5 23.1 37.5 23.1 z" stroke-linecap="round" />
</g>
<g transform="matrix(4.17 0 0 4.17 200.42 225.73)" id="surface1"  >
<path style="stroke: none; stroke-width: 1; stroke-dasharray: none; stroke-linecap: butt; stroke-dashoffset: 0; stroke-linejoin: miter; stroke-miterlimit: 4; fill: rgb(93,64,55); fill-rule: nonzero; opacity: 1;"  transform=" translate(-24.1, -30.17)" d="M 29.9 38.2 c 1.5 -1.9 2.5 -4.3 2.6 -6.5 c 0 0.2 0 0.4 -0.1 0.6 c -6.6 0.1 -11.8 -5 -12.5 -10 c 0.2 -0.1 0.3 -0.2 0.5 -0.2 c -2.3 1 -4.1 3.7 -4.7 6.4 C 17.5 33.9 24.1 38.8 29.9 38.2 z" stroke-linecap="round" />
</g>
<g transform="matrix(4.17 0 0 4.17 227.33 189.39)" id="surface1"  >
<path style="stroke: none; stroke-width: 1; stroke-dasharray: none; stroke-linecap: butt; stroke-dashoffset: 0; stroke-linejoin: miter; stroke-miterlimit: 4; fill: rgb(93,64,55); fill-rule: nonzero; opacity: 1;"  transform=" translate(-30.56, -21.45)" d="M 26.9 15 c -0.6 0.3 -1.2 0.7 -1.7 1.3 c -2.5 2.7 -1.4 6.5 1.6 9.2 c 3 2.7 6.8 3.4 9.3 0.7 c 0.6 -0.7 1 -1.4 1.2 -2.1 C 30.6 24.2 27.4 18.3 26.9 15 z" stroke-linecap="round" />
</g>
<g transform="matrix(4.17 0 0 4.17 265.16 147.88)" id="surface1"  >
<path style="stroke: none; stroke-width: 1; stroke-dasharray: none; stroke-linecap: butt; stroke-dashoffset: 0; stroke-linejoin: miter; stroke-miterlimit: 4; fill: rgb(93,64,55); fill-rule: nonzero; opacity: 1;"  transform=" translate(-39.64, -11.49)" d="M 36.6 14 c -0.2 0 -0.3 0 -0.4 -0.1 c -0.5 -0.2 -0.7 -0.8 -0.4 -1.3 l 1.2 -2.4 L 42.4 9 c 0.5 -0.1 1.1 0.2 1.2 0.8 c 0.1 0.5 -0.2 1.1 -0.8 1.2 l -4.5 0.9 l -0.8 1.6 C 37.3 13.8 36.9 14 36.6 14 z" stroke-linecap="round" />
</g>
<g transform="matrix(4.17 0 0 4.17 252.21 139.87)" id="surface1"  >
<path style="stroke: none; stroke-width: 1; stroke-dasharray: none; stroke-linecap: butt; stroke-dashoffset: 0; stroke-linejoin: miter; stroke-miterlimit: 4; fill: rgb(93,64,55); fill-rule: nonzero; opacity: 1;"  transform=" translate(-36.53, -9.57)" d="M 34.6 13 c -0.4 0 -0.8 -0.3 -0.9 -0.7 l -1.3 -3.9 l 6.9 -2.3 c 0.5 -0.2 1.1 0.1 1.3 0.6 c 0.2 0.5 -0.1 1.1 -0.6 1.3 l -5.1 1.7 l 0.7 2.1 c 0.2 0.5 -0.1 1.1 -0.6 1.3 C 34.8 13 34.7 13 34.6 13 z" stroke-linecap="round" />
</g>
<g transform="matrix(4.17 0 0 4.17 188.26 156.36)" id="surface1"  >
<path style="stroke: none; stroke-width: 1; stroke-dasharray: none; stroke-linecap: butt; stroke-dashoffset: 0; stroke-linejoin: miter; stroke-miterlimit: 4; fill: rgb(66,165,245); fill-rule: nonzero; opacity: 1;"  transform=" translate(-21.18, -13.53)" d="M 24.1 21.1 c -0.4 -1.7 -0.1 -3.4 1.2 -4.9 c 0.2 -0.2 0.3 -0.3 0.5 -0.5 c -2.2 -4 -5.2 -9 -7 -9.7 c -1.9 -0.7 -3.5 6.2 -0.8 10.4 C 19.2 18.6 21.9 20.1 24.1 21.1 z" stroke-linecap="round" />
</g>
<g transform="matrix(4.17 0 0 4.17 244.22 165.09)" id="surface1"  >
<path style="stroke: none; stroke-width: 1; stroke-dasharray: none; stroke-linecap: butt; stroke-dashoffset: 0; stroke-linejoin: miter; stroke-miterlimit: 4; fill: rgb(141,110,99); fill-rule: nonzero; opacity: 1;"  transform=" translate(-34.61, -15.62)" d="M 39.4 18.9 c -0.9 2.1 -4.8 1.1 -7.4 -0.1 c -2 -0.9 -2.9 -3.3 -2 -5.4 s 3.1 -2.6 5.2 -2.1 C 37.6 12 40.3 16.8 39.4 18.9 z" stroke-linecap="round" />
</g>
<g transform="matrix(4.17 0 0 4.17 243.11 163.96)" id="surface1"  >
<path style="stroke: none; stroke-width: 1; stroke-dasharray: none; stroke-linecap: butt; stroke-dashoffset: 0; stroke-linejoin: miter; stroke-miterlimit: 4; fill: rgb(62,39,35); fill-rule: nonzero; opacity: 1;"  transform=" translate(-34.35, -15.35)" d="M 37 17.3 c -0.5 0.7 -2 0.5 -3.5 -0.6 s -2.3 -2.6 -1.8 -3.3 c 0.5 -0.7 2 -0.5 3.5 0.6 C 36.6 15.1 37.5 16.6 37 17.3 z" stroke-linecap="round" />
</g>
<g transform="matrix(4.17 0 0 4.17 172.92 158.54)" id="surface1"  >
<path style="stroke: none; stroke-width: 1; stroke-dasharray: none; stroke-linecap: butt; stroke-dashoffset: 0; stroke-linejoin: miter; stroke-miterlimit: 4; fill: rgb(144,202,249); fill-rule: nonzero; opacity: 1;"  transform=" translate(-17.5, -14.05)" d="M 27.6 20.2 L 27.6 20.2 C 27.6 20.2 11.2 6 8 6 c -2 0 -1 7 3 10 c 3.4 2.5 15.8 6 15.8 6 l 0 0 c 0.1 0 0.2 0.1 0.2 0.1 c 0.6 0 1 -0.4 1 -1 C 28 20.7 27.8 20.4 27.6 20.2 z" stroke-linecap="round" />
</g>
<g transform="matrix(4.17 0 0 4.17 180.72 179.2)" id="surface1"  >
<path style="stroke: none; stroke-width: 1; stroke-dasharray: none; stroke-linecap: butt; stroke-dashoffset: 0; stroke-linejoin: miter; stroke-miterlimit: 4; fill: rgb(144,202,249); fill-rule: nonzero; opacity: 1;"  transform=" translate(-19.37, -19.01)" d="M 27.4 20.5 L 27.4 20.5 c 0 0 -14 -5.2 -16.1 -4.4 c -1.3 0.5 0.8 4.8 4.1 5.4 C 18 22 27 22 27 22 c 0.1 0 0.4 -0.2 0.4 -0.2 c 0.4 -0.1 0.5 -0.5 0.4 -0.9 C 27.8 20.7 27.6 20.6 27.4 20.5 z" stroke-linecap="round" />
</g>
<g transform="matrix(4.17 0 0 4.17 177.71 171.88)" id="surface1"  >
<path style="stroke: none; stroke-width: 1; stroke-dasharray: none; stroke-linecap: butt; stroke-dashoffset: 0; stroke-linejoin: miter; stroke-miterlimit: 4; fill: rgb(100,181,246); fill-rule: nonzero; opacity: 1;"  transform=" translate(-18.65, -17.25)" d="M 10.7 14.2 c -0.3 0.1 -0.6 0.3 -0.9 0.6 c 0.4 0.4 0.8 0.8 1.3 1.2 c 0.1 0.1 0.2 0.1 0.2 0.2 c 0 0 0.1 -0.1 0.1 -0.1 c 0.1 -0.1 0.3 -0.1 0.6 -0.1 c 3.3 0 15.5 4.5 15.5 4.5 c -2.3 -1.1 -10.5 -6.1 -15.5 -6.5 C 11.4 14 11 14.1 10.7 14.2 z" stroke-linecap="round" />
</g>
</svg>