<?xml version="1.0" encoding="UTF-8" standalone="no" ?>
<!DOCTYPE svg PUBLIC "-//W3C//DTD SVG 1.1//EN" "http://www.w3.org/Graphics/SVG/1.1/DTD/svg11.dtd">
<svg xmlns="http://www.w3.org/2000/svg" xmlns:xlink="http://www.w3.org/1999/xlink" version="1.1" width="400" height="400" viewBox="0 0 400 400" xml:space="preserve">
<desc>Created with Fabric.js 3.6.2</desc>
<defs>
</defs>
<g transform="matrix(4.17 0 0 4.17 183.33 129.17)" id="surface1"  >
<path style="stroke: none; stroke-width: 1; stroke-dasharray: none; stroke-linecap: butt; stroke-dashoffset: 0; stroke-linejoin: miter; stroke-miterlimit: 4; fill: rgb(121,85,72); fill-rule: nonzero; opacity: 1;"  transform=" translate(-20, -7)" d="M 22 7 C 22 8.105469 21.105469 9 20 9 C 18.894531 9 18 8.105469 18 7 C 18 5.894531 18.894531 5 20 5 C 21.105469 5 22 5.894531 22 7 Z" stroke-linecap="round" />
</g>
<g transform="matrix(4.17 0 0 4.17 216.67 129.17)" id="surface1"  >
<path style="stroke: none; stroke-width: 1; stroke-dasharray: none; stroke-linecap: butt; stroke-dashoffset: 0; stroke-linejoin: miter; stroke-miterlimit: 4; fill: rgb(121,85,72); fill-rule: nonzero; opacity: 1;"  transform=" translate(-28, -7)" d="M 30 7 C 30 8.105469 29.105469 9 28 9 C 26.894531 9 26 8.105469 26 7 C 26 5.894531 26.894531 5 28 5 C 29.105469 5 30 5.894531 30 7 Z" stroke-linecap="round" />
</g>
<g transform="matrix(4.17 0 0 4.17 200 191.41)" id="surface1"  >
<path style="stroke: none; stroke-width: 1; stroke-dasharray: none; stroke-linecap: butt; stroke-dashoffset: 0; stroke-linejoin: miter; stroke-miterlimit: 4; fill: rgb(255,198,123); fill-rule: nonzero; opacity: 1;"  transform=" translate(-24, -21.94)" d="M 32 18 C 32 18 29 16 29 13 C 29 11.910156 29.25 9.15625 29.9375 7.5 L 26 6.875 C 25.84375 9.03125 25.257813 11.726563 24 11.726563 C 22.742188 11.726563 22.15625 9.03125 22 6.875 L 18.0625 7.5 C 18.75 9.15625 19 11.910156 19 13 C 19 16 16 18 16 18 C 14 19 14 20 14 21 C 17 24 17 32 17 32 C 17 36 19.894531 37 21 37 L 27 37 C 28.105469 37 31 36 31 32 C 31 32 31 24 34 21 C 34 20 34 19 32 18 Z" stroke-linecap="round" />
</g>
<g transform="matrix(4.17 0 0 4.17 200 258.33)" id="surface1"  >
<path style="stroke: none; stroke-width: 1; stroke-dasharray: none; stroke-linecap: butt; stroke-dashoffset: 0; stroke-linejoin: miter; stroke-miterlimit: 4; fill: rgb(183,97,19); fill-rule: nonzero; opacity: 1;"  transform=" translate(-24, -38)" d="M 24 33 C 21.238281 33 20 34.238281 20 37 C 20 39.761719 21 43 24 43 C 27 43 28 39.761719 28 37 C 28 34.238281 26.761719 33 24 33 Z" stroke-linecap="round" />
</g>
<g transform="matrix(4.17 0 0 4.17 152 154.83)" id="surface1"  >
<path style="stroke: none; stroke-width: 1; stroke-dasharray: none; stroke-linecap: butt; stroke-dashoffset: 0; stroke-linejoin: miter; stroke-miterlimit: 4; fill: rgb(255,143,0); fill-rule: nonzero; opacity: 1;"  transform=" translate(-12.48, -13.16)" d="M 16.980469 17.855469 C 8.980469 17.855469 5.980469 11.855469 5.980469 8.855469 C 8.980469 7.855469 14.980469 8.855469 15.980469 10.855469 C 16.980469 12.855469 16.980469 13.855469 16.980469 13.855469 L 18.980469 14.855469 Z" stroke-linecap="round" />
</g>
<g transform="matrix(4.17 0 0 4.17 247.92 155.43)" id="surface1"  >
<path style="stroke: none; stroke-width: 1; stroke-dasharray: none; stroke-linecap: butt; stroke-dashoffset: 0; stroke-linejoin: miter; stroke-miterlimit: 4; fill: rgb(255,143,0); fill-rule: nonzero; opacity: 1;"  transform=" translate(-35.5, -13.3)" d="M 31 18 C 39 18 42 12 42 9 C 39 8 33 9 32 11 C 31 13 31 14 31 14 L 29 15 Z" stroke-linecap="round" />
</g>
<g transform="matrix(4.17 0 0 4.17 200 191.41)" id="surface1"  >
<path style="stroke: none; stroke-width: 1; stroke-dasharray: none; stroke-linecap: butt; stroke-dashoffset: 0; stroke-linejoin: miter; stroke-miterlimit: 4; fill: rgb(255,143,0); fill-rule: nonzero; opacity: 1;"  transform=" translate(-24, -21.94)" d="M 29 13 C 29 11.910156 29.25 9.15625 29.9375 7.5 L 26 6.875 C 25.84375 9.03125 25.257813 11.726563 24 11.726563 C 22.742188 11.726563 22.15625 9.03125 22 6.875 L 18.0625 7.5 C 18.75 9.15625 19 11.910156 19 13 C 19 16 16 18 16 18 C 20 19 21 24 21 28 C 21 32 19 32 19 36 L 24 37 L 29 36 C 29 32 27 32 27 28 C 27 24 28 19 32 18 C 32 18 29 16 29 13 Z" stroke-linecap="round" />
</g>
<g transform="matrix(4.17 0 0 4.17 200 250)" id="surface1"  >
<path style="stroke: none; stroke-width: 1; stroke-dasharray: none; stroke-linecap: butt; stroke-dashoffset: 0; stroke-linejoin: miter; stroke-miterlimit: 4; fill: rgb(255,143,0); fill-rule: nonzero; opacity: 1;"  transform=" translate(-24, -36)" d="M 24 31 C 21.238281 31 19 33.238281 19 36 C 19 38.761719 21 41 24 41 C 27 41 29 38.761719 29 36 C 29 33.238281 26.761719 31 24 31 Z" stroke-linecap="round" />
</g>
<g transform="matrix(4.17 0 0 4.17 189.58 250)" id="surface1"  >
<path style="stroke: none; stroke-width: 1; stroke-dasharray: none; stroke-linecap: butt; stroke-dashoffset: 0; stroke-linejoin: miter; stroke-miterlimit: 4; fill: rgb(132,72,7); fill-rule: nonzero; opacity: 1;"  transform=" translate(-21.5, -36)" d="M 23 35.5 C 23 36.328125 23 38 23 38 C 23 38 20 36.328125 20 35.5 C 20 34.671875 20.671875 34 21.5 34 C 22.328125 34 23 34.671875 23 35.5 Z" stroke-linecap="round" />
</g>
<g transform="matrix(4.17 0 0 4.17 210.42 250)" id="surface1"  >
<path style="stroke: none; stroke-width: 1; stroke-dasharray: none; stroke-linecap: butt; stroke-dashoffset: 0; stroke-linejoin: miter; stroke-miterlimit: 4; fill: rgb(132,72,7); fill-rule: nonzero; opacity: 1;"  transform=" translate(-26.5, -36)" d="M 25 35.5 C 25 36.328125 25 38 25 38 C 25 38 28 36.328125 28 35.5 C 28 34.671875 27.328125 34 26.5 34 C 25.671875 34 25 34.671875 25 35.5 Z" stroke-linecap="round" />
</g>
<g transform="matrix(4.17 0 0 4.17 156.01 159.16)" id="surface1"  >
<path style="stroke: none; stroke-width: 1; stroke-dasharray: none; stroke-linecap: butt; stroke-dashoffset: 0; stroke-linejoin: miter; stroke-miterlimit: 4; fill: rgb(183,97,19); fill-rule: nonzero; opacity: 1;"  transform=" translate(-13.44, -14.2)" d="M 17.753906 16.3125 L 14.867188 15.203125 C 14.867188 15.203125 15.144531 12.980469 14.203125 11.777344 C 13.839844 11.339844 11.777344 10.523438 9.132813 10.472656 C 9.441406 11.59375 10.234375 13.988281 11.726563 15.480469 C 13.363281 17.113281 15.410156 17.746094 16.109375 17.921875 C 16.375 17.730469 17.09375 17.164063 17.753906 16.3125 Z" stroke-linecap="round" />
</g>
<g transform="matrix(4.17 0 0 4.17 244.12 159.88)" id="surface1"  >
<path style="stroke: none; stroke-width: 1; stroke-dasharray: none; stroke-linecap: butt; stroke-dashoffset: 0; stroke-linejoin: miter; stroke-miterlimit: 4; fill: rgb(183,97,19); fill-rule: nonzero; opacity: 1;"  transform=" translate(-34.59, -14.37)" d="M 33.773438 11.925781 C 32.835938 13.125 33.109375 15.347656 33.109375 15.347656 L 30.332031 16.417969 C 31.132813 17.417969 32 18 32 18 C 31.867188 18.03125 31.746094 18.082031 31.621094 18.125 C 31.621094 18.125 31.625 18.125 31.625 18.125 C 31.625 18.125 34.25 17.625 36.25 15.625 C 37.742188 14.132813 38.539063 11.738281 38.847656 10.617188 C 36.203125 10.667969 34.140625 11.484375 33.773438 11.925781 Z" stroke-linecap="round" />
</g>
<g transform="matrix(4.17 0 0 4.17 200 144.71)" id="surface1"  >
<path style="stroke: none; stroke-width: 1; stroke-dasharray: none; stroke-linecap: butt; stroke-dashoffset: 0; stroke-linejoin: miter; stroke-miterlimit: 4; fill: rgb(183,97,19); fill-rule: nonzero; opacity: 1;"  transform=" translate(-24, -10.73)" d="M 26 8.5 C 26 8.140625 25.976563 7.796875 25.941406 7.460938 C 25.722656 9.328125 25.136719 11.726563 24 11.726563 C 22.863281 11.726563 22.273438 9.328125 22.058594 7.460938 C 22.023438 7.796875 22 8.140625 22 8.5 C 22 10.984375 22.894531 14 24 14 C 25.105469 14 26 10.984375 26 8.5 Z" stroke-linecap="round" />
</g>
<g transform="matrix(4.17 0 0 4.17 234.03 196.5)" id="surface1"  >
<path style="stroke: none; stroke-width: 1; stroke-dasharray: none; stroke-linecap: butt; stroke-dashoffset: 0; stroke-linejoin: miter; stroke-miterlimit: 4; fill: rgb(121,85,72); fill-rule: nonzero; opacity: 1;"  transform=" translate(-32.17, -23.16)" d="M 33.082031 21.320313 C 32.203125 21.691406 30.933594 22.402344 30.335938 23.59375 C 31.097656 24.808594 31.789063 24.972656 31.960938 24.996094 C 31.972656 24.996094 31.984375 25 32 25 C 33.105469 25 34 24.105469 34 23 C 34 22.296875 33.632813 21.679688 33.082031 21.320313 Z" stroke-linecap="round" />
</g>
<g transform="matrix(4.17 0 0 4.17 165.97 196.5)" id="surface1"  >
<path style="stroke: none; stroke-width: 1; stroke-dasharray: none; stroke-linecap: butt; stroke-dashoffset: 0; stroke-linejoin: miter; stroke-miterlimit: 4; fill: rgb(121,85,72); fill-rule: nonzero; opacity: 1;"  transform=" translate(-15.83, -23.16)" d="M 14.921875 21.320313 C 15.796875 21.691406 17.070313 22.402344 17.664063 23.59375 C 16.902344 24.808594 16.210938 24.972656 16.042969 24.996094 C 16.027344 24.996094 16.015625 25 16.003906 25 C 14.898438 25 14.003906 24.101563 14.003906 23 C 14.003906 22.296875 14.371094 21.679688 14.921875 21.320313 Z" stroke-linecap="round" />
</g>
<g transform="matrix(4.17 0 0 4.17 240.27 191.32)" id="surface1"  >
<path style="stroke: none; stroke-width: 1; stroke-dasharray: none; stroke-linecap: butt; stroke-dashoffset: 0; stroke-linejoin: miter; stroke-miterlimit: 4; fill: rgb(93,64,55); fill-rule: nonzero; opacity: 1;"  transform=" translate(-33.66, -21.92)" d="M 34.011719 21.5 C 33.769531 21.429688 33.550781 21.328125 33.328125 21.222656 C 32.785156 21.429688 31.996094 21.800781 31.328125 22.371094 L 31.558594 22.453125 C 32.035156 22.582031 32.402344 22.597656 32.816406 22.609375 C 33.21875 22.613281 33.613281 22.574219 33.996094 22.5 C 34.761719 22.347656 35.460938 22.011719 36 21.554688 C 35.308594 21.714844 34.621094 21.675781 34.011719 21.5 Z" stroke-linecap="round" />
</g>
<g transform="matrix(4.17 0 0 4.17 159.75 191.32)" id="surface1"  >
<path style="stroke: none; stroke-width: 1; stroke-dasharray: none; stroke-linecap: butt; stroke-dashoffset: 0; stroke-linejoin: miter; stroke-miterlimit: 4; fill: rgb(93,64,55); fill-rule: nonzero; opacity: 1;"  transform=" translate(-14.34, -21.92)" d="M 13.992188 21.5 C 14.234375 21.429688 14.453125 21.328125 14.675781 21.222656 C 15.21875 21.429688 16.003906 21.800781 16.675781 22.371094 L 16.445313 22.453125 C 15.96875 22.582031 15.597656 22.597656 15.1875 22.609375 C 14.785156 22.613281 14.390625 22.574219 14.007813 22.5 C 13.242188 22.347656 12.542969 22.011719 12.003906 21.554688 C 12.695313 21.714844 13.378906 21.675781 13.992188 21.5 Z" stroke-linecap="round" />
</g>
</svg>