<?xml version="1.0" encoding="UTF-8" standalone="no" ?>
<!DOCTYPE svg PUBLIC "-//W3C//DTD SVG 1.1//EN" "http://www.w3.org/Graphics/SVG/1.1/DTD/svg11.dtd">
<svg xmlns="http://www.w3.org/2000/svg" xmlns:xlink="http://www.w3.org/1999/xlink" version="1.1" width="400" height="400" viewBox="0 0 400 400" xml:space="preserve">
<desc>Created with Fabric.js 3.6.2</desc>
<defs>
</defs>
<g transform="matrix(4.17 0 0 4.17 188.38 210.4)" id="surface1"  >
<path style="stroke: none; stroke-width: 1; stroke-dasharray: none; stroke-linecap: butt; stroke-dashoffset: 0; stroke-linejoin: miter; stroke-miterlimit: 4; fill: rgb(207,216,220); fill-rule: nonzero; opacity: 1;"  transform=" translate(-21.21, -26.5)" d="M 36 44 L 18 44 C 18 43.34375 25.246094 33.027344 17 26.992188 C 8.917969 21.074219 6 16.992188 6 8.992188 L 11.96875 11.417969 C 11.460938 14.984375 15.882813 17.769531 23.226563 21.925781 C 24.65625 22.734375 26.109375 23.558594 27.542969 24.421875 C 37.648438 30.480469 36.628906 38.671875 36.136719 42.605469 C 36.066406 43.171875 36 43.714844 36 44 Z" stroke-linecap="round" />
</g>
<g transform="matrix(4.17 0 0 4.17 147.92 139.58)" id="surface1"  >
<path style="stroke: none; stroke-width: 1; stroke-dasharray: none; stroke-linecap: butt; stroke-dashoffset: 0; stroke-linejoin: miter; stroke-miterlimit: 4; fill: rgb(207,216,220); fill-rule: nonzero; opacity: 1;"  transform=" translate(-11.5, -9.5)" d="M 17 9.5 C 17 13 14.535156 15 11.5 15 C 8.464844 15 6 12.535156 6 9.5 C 6 6.464844 8.464844 4 11.5 4 C 14.535156 4 17 6.464844 17 9.5 Z" stroke-linecap="round" />
</g>
<g transform="matrix(4.17 0 0 4.17 218.75 135.42)" id="surface1"  >
<path style="stroke: none; stroke-width: 1; stroke-dasharray: none; stroke-linecap: butt; stroke-dashoffset: 0; stroke-linejoin: miter; stroke-miterlimit: 4; fill: rgb(245,124,0); fill-rule: nonzero; opacity: 1;"  transform=" translate(-28.5, -8.5)" d="M 15 7 L 38 7 C 38 7 42 7 42 10 L 16 10" stroke-linecap="round" />
</g>
<g transform="matrix(4.17 0 0 4.17 159.03 133.4)" id="surface1"  >
<path style="stroke: none; stroke-width: 1; stroke-dasharray: none; stroke-linecap: butt; stroke-dashoffset: 0; stroke-linejoin: miter; stroke-miterlimit: 4; fill: rgb(245,124,0); fill-rule: nonzero; opacity: 1;"  transform=" translate(-14.17, -8.02)" d="M 17 7 C 17 7 17.757813 10 17 10 C 16 10 12.984375 10.132813 12.292969 9.871094 C 11.257813 9.480469 10.738281 8.328125 11.128906 7.292969 C 11.519531 6.261719 12.675781 5.738281 13.707031 6.128906 Z" stroke-linecap="round" />
</g>
<g transform="matrix(4.17 0 0 4.17 154.17 133.33)" id="surface1"  >
<path style="stroke: none; stroke-width: 1; stroke-dasharray: none; stroke-linecap: butt; stroke-dashoffset: 0; stroke-linejoin: miter; stroke-miterlimit: 4; fill: rgb(62,39,35); fill-rule: nonzero; opacity: 1;"  transform=" translate(-13, -8)" d="M 14 8 C 14 8.550781 13.550781 9 13 9 C 12.449219 9 12 8.550781 12 8 C 12 7.449219 12.449219 7 13 7 C 13.550781 7 14 7.449219 14 8 Z" stroke-linecap="round" />
</g>
<g transform="matrix(4.17 0 0 4.17 212.73 166.67)" id="surface1"  >
<path style="stroke: none; stroke-width: 1; stroke-dasharray: none; stroke-linecap: butt; stroke-dashoffset: 0; stroke-linejoin: miter; stroke-miterlimit: 4; fill: rgb(255,160,0); fill-rule: nonzero; opacity: 1;"  transform=" translate(-27.05, -16)" d="M 17 10 C 17 10 43 10 41 10 C 33 10 33 22 23 22 C 16.917969 22 13 16 13 15 C 13 13 17 12.945313 17 10 Z" stroke-linecap="round" />
</g>
<g transform="matrix(4.17 0 0 4.17 181.57 181.25)" id="surface1"  >
<path style="stroke: none; stroke-width: 1; stroke-dasharray: none; stroke-linecap: butt; stroke-dashoffset: 0; stroke-linejoin: miter; stroke-miterlimit: 4; fill: rgb(120,144,156); fill-rule: nonzero; opacity: 1;"  transform=" translate(-19.58, -19.5)" d="M 26.152344 23.617188 C 25.210938 23.066406 24.265625 22.515625 23.332031 21.988281 C 23.222656 21.988281 23.113281 22 23 22 C 16.917969 22 13 16 13 15 C 13 17.242188 15.847656 24 23 24 C 24.15625 24 25.199219 23.859375 26.152344 23.617188 Z" stroke-linecap="round" />
</g>
<g transform="matrix(4.17 0 0 4.17 212.69 253.15)" id="surface1"  >
<path style="stroke: none; stroke-width: 1; stroke-dasharray: none; stroke-linecap: butt; stroke-dashoffset: 0; stroke-linejoin: miter; stroke-miterlimit: 4; fill: rgb(144,164,174); fill-rule: nonzero; opacity: 1;"  transform=" translate(-27.04, -36.76)" d="M 33.398438 29.511719 C 33.488281 30.652344 33.421875 31.628906 33.324219 32.347656 L 30 30.132813 L 30 32 C 30 34.394531 29.761719 36.0625 29.53125 37.117188 L 26.003906 33.589844 L 26 36 C 26 36.828125 25.898438 38.902344 25.492188 40.460938 L 22.378906 38.386719 L 22.03125 39.753906 C 22.019531 39.789063 21.144531 43.113281 18.808594 44 L 22.054688 44 C 22.742188 43.175781 23.210938 42.265625 23.515625 41.546875 L 26.386719 43.460938 L 26.894531 42.445313 C 27.464844 41.304688 27.742188 39.640625 27.875 38.289063 L 30.273438 40.6875 L 30.894531 39.445313 C 30.933594 39.367188 31.746094 37.699219 31.949219 33.835938 L 34.53125 35.558594 L 34.945313 34.316406 C 34.964844 34.261719 35.140625 33.707031 35.28125 32.796875 C 34.835938 31.707031 34.222656 30.601563 33.398438 29.511719 Z" stroke-linecap="round" />
</g>
</svg>