<?xml version="1.0" encoding="UTF-8" standalone="no" ?>
<!DOCTYPE svg PUBLIC "-//W3C//DTD SVG 1.1//EN" "http://www.w3.org/Graphics/SVG/1.1/DTD/svg11.dtd">
<svg xmlns="http://www.w3.org/2000/svg" xmlns:xlink="http://www.w3.org/1999/xlink" version="1.1" width="400" height="400" viewBox="0 0 400 400" xml:space="preserve">
<desc>Created with Fabric.js 3.6.2</desc>
<defs>
</defs>
<g transform="matrix(4.17 0 0 4.17 229.17 206.25)" id="surface1"  >
<path style="stroke: none; stroke-width: 1; stroke-dasharray: none; stroke-linecap: butt; stroke-dashoffset: 0; stroke-linejoin: miter; stroke-miterlimit: 4; fill: rgb(220,231,117); fill-rule: nonzero; opacity: 1;"  transform=" translate(-31, -25.5)" d="M 43 16 h -7 c -0.6 0 -1 0.4 -1 1 c 0 0 0 15 -16 15 h -1 v 3 h 3 c 0 0 17 0 17 -16 c 0 0 3 -1 5 -1 c 0.6 0 1 -0.4 1 -1 S 43.6 16 43 16 z" stroke-linecap="round" />
</g>
<g transform="matrix(4.17 0 0 4.17 253.32 252.35)" id="surface1"  >
<path style="stroke: none; stroke-width: 1; stroke-dasharray: none; stroke-linecap: butt; stroke-dashoffset: 0; stroke-linejoin: miter; stroke-miterlimit: 4; fill: rgb(124,179,66); fill-rule: nonzero; opacity: 1;"  transform=" translate(-36.8, -36.56)" d="M 40.5 38 c -0.2 0 -0.4 -0.1 -0.6 -0.2 c -2.5 -1.7 -6.5 0.1 -6.5 0.1 c -0.5 0.2 -1.1 0 -1.3 -0.5 c -0.2 -0.5 0 -1.1 0.5 -1.3 c 0.2 -0.1 5 -2.2 8.5 0.1 c 0.5 0.3 0.6 0.9 0.3 1.4 C 41.1 37.8 40.8 38 40.5 38 z" stroke-linecap="round" />
</g>
<g transform="matrix(4.17 0 0 4.17 200 187.5)" id="surface1"  >
<path style="stroke: none; stroke-width: 1; stroke-dasharray: none; stroke-linecap: butt; stroke-dashoffset: 0; stroke-linejoin: miter; stroke-miterlimit: 4; fill: rgb(124,179,66); fill-rule: nonzero; opacity: 1;"  transform=" translate(-24, -21)" d="M 34 9 c -4 0 -10 5 -10 5 s -9 0 -13 3 S 3 28 3 29 s 0 4 5 4 l 10 -1 h 1 c 16 0 16 -15 16 -15 c 0 -0.6 0.4 -1 1 -1 h 8 c 0.6 0 1 -0.4 1 -1 C 45 15 45 9 34 9 z" stroke-linecap="round" />
</g>
<g transform="matrix(4.17 0 0 4.17 229.17 226.46)" id="surface1"  >
<path style="stroke: none; stroke-width: 1; stroke-dasharray: none; stroke-linecap: butt; stroke-dashoffset: 0; stroke-linejoin: miter; stroke-miterlimit: 4; fill: rgb(124,179,66); fill-rule: nonzero; opacity: 1;"  transform=" translate(-31, -30.35)" d="M 32.2 37.7 c 0 0 -3.8 -4.8 -4.2 -5.7 c -1 -2 -1 -5 -1 -5 l 6 -4 l -1 7 l 3 6 C 35 36 33.2 36.7 32.2 37.7 z" stroke-linecap="round" />
</g>
<g transform="matrix(4.17 0 0 4.17 165.63 250)" id="surface1"  >
<path style="stroke: none; stroke-width: 1; stroke-dasharray: none; stroke-linecap: butt; stroke-dashoffset: 0; stroke-linejoin: miter; stroke-miterlimit: 4; fill: rgb(124,179,66); fill-rule: nonzero; opacity: 1;"  transform=" translate(-15.75, -36)" d="M 27.1 36.2 c -0.8 -0.6 -2.1 -0.8 -3.7 -1 c -3.6 -0.8 -9 -1.2 -11.7 -1.2 C 7.4 34 4 34.9 4 36 s 3.4 2 7.7 2 c 0.1 0 0.2 0 0.3 0 c 0 0 0 0 0 0 c 0.1 0 0.1 0 0.2 0 c 2.8 -0.1 4.7 -0.5 6.8 -0.8 c 3.1 -0.2 5.9 -0.1 7 0.6 c 0.5 0.3 1.1 0.2 1.4 -0.3 C 27.6 37.1 27.5 36.5 27.1 36.2 z" stroke-linecap="round" />
</g>
<g transform="matrix(4.17 0 0 4.17 243.75 147.92)" id="surface1"  >
<path style="stroke: none; stroke-width: 1; stroke-dasharray: none; stroke-linecap: butt; stroke-dashoffset: 0; stroke-linejoin: miter; stroke-miterlimit: 4; fill: rgb(207,216,220); fill-rule: nonzero; opacity: 1;"  transform=" translate(-34.5, -11.5)" d="M 38 11.5 c 0 1.9 -1.6 3.5 -3.5 3.5 S 31 13.4 31 11.5 S 32.6 8 34.5 8 S 38 9.6 38 11.5 z" stroke-linecap="round" />
</g>
<g transform="matrix(4.17 0 0 4.17 252.08 147.92)" id="surface1"  >
<path style="stroke: none; stroke-width: 1; stroke-dasharray: none; stroke-linecap: butt; stroke-dashoffset: 0; stroke-linejoin: miter; stroke-miterlimit: 4; fill: rgb(55,71,79); fill-rule: nonzero; opacity: 1;"  transform=" translate(-36.5, -11.5)" d="M 38 11.5 c 0 0.8 -0.7 1.5 -1.5 1.5 S 35 12.3 35 11.5 s 0.7 -1.5 1.5 -1.5 S 38 10.7 38 11.5 z" stroke-linecap="round" />
</g>
<g transform="matrix(4.17 0 0 4.17 238.54 147.92)" id="surface1"  >
<path style="stroke: none; stroke-width: 1; stroke-dasharray: none; stroke-linecap: butt; stroke-dashoffset: 0; stroke-linejoin: miter; stroke-miterlimit: 4; fill: rgb(85,139,47); fill-rule: nonzero; opacity: 1;"  transform=" translate(-33.25, -11.5)" d="M 33 11.5 c 0 -1.6 1.1 -2.9 2.5 -3.3 c -0.3 -0.1 -0.6 -0.2 -1 -0.2 C 32.6 8 31 9.6 31 11.5 s 1.6 3.5 3.5 3.5 c 0.4 0 0.7 -0.1 1 -0.2 C 34.1 14.4 33 13.1 33 11.5 z" stroke-linecap="round" />
</g>
<g transform="matrix(4.17 0 0 4.17 268.75 252.08)" id="surface1"  >
<path style="stroke: none; stroke-width: 1; stroke-dasharray: none; stroke-linecap: butt; stroke-dashoffset: 0; stroke-linejoin: miter; stroke-miterlimit: 4; fill: rgb(85,139,47); fill-rule: nonzero; opacity: 1;"  transform=" translate(-40.5, -36.5)" d="M 42 36.5 c 0 0.8 -0.7 1.5 -1.5 1.5 S 39 37.3 39 36.5 s 0.7 -1.5 1.5 -1.5 S 42 35.7 42 36.5 z" stroke-linecap="round" />
</g>
<g transform="matrix(4.17 0 0 4.17 275.02 154.19)" id="surface1"  >
<path style="stroke: none; stroke-width: 1; stroke-dasharray: none; stroke-linecap: butt; stroke-dashoffset: 0; stroke-linejoin: miter; stroke-miterlimit: 4; fill: rgb(85,139,47); fill-rule: nonzero; opacity: 1;"  transform=" translate(-42.01, -13.01)" d="M 42.7 12.3 C 43.1 12.7 43 14 43 14 s -1.3 0.1 -1.7 -0.3 s -0.4 -1 0 -1.4 S 42.3 11.9 42.7 12.3 z" stroke-linecap="round" />
</g>
<g transform="matrix(4.17 0 0 4.17 210.42 252.08)" id="surface1"  >
<path style="stroke: none; stroke-width: 1; stroke-dasharray: none; stroke-linecap: butt; stroke-dashoffset: 0; stroke-linejoin: miter; stroke-miterlimit: 4; fill: rgb(85,139,47); fill-rule: nonzero; opacity: 1;"  transform=" translate(-26.5, -36.5)" d="M 28 36.5 c 0 0.8 -0.7 1.5 -1.5 1.5 S 25 37.3 25 36.5 s 0.7 -1.5 1.5 -1.5 S 28 35.7 28 36.5 z" stroke-linecap="round" />
</g>
<g transform="matrix(4.17 0 0 4.17 197.92 252.08)" id="surface1"  >
<path style="stroke: none; stroke-width: 1; stroke-dasharray: none; stroke-linecap: butt; stroke-dashoffset: 0; stroke-linejoin: miter; stroke-miterlimit: 4; fill: rgb(85,139,47); fill-rule: nonzero; opacity: 1;"  transform=" translate(-23.5, -36.5)" d="M 25 36.5 c 0 0.8 -0.7 1.5 -1.5 1.5 S 22 37.3 22 36.5 s 0.7 -1.5 1.5 -1.5 S 25 35.7 25 36.5 z" stroke-linecap="round" />
</g>
<g transform="matrix(4.17 0 0 4.17 160.32 225.89)" id="surface1"  >
<path style="stroke: none; stroke-width: 1; stroke-dasharray: none; stroke-linecap: butt; stroke-dashoffset: 0; stroke-linejoin: miter; stroke-miterlimit: 4; fill: rgb(85,139,47); fill-rule: nonzero; opacity: 1;"  transform=" translate(-14.48, -30.21)" d="M 11.7 34 c 1.6 0 4.3 0.2 7 0.5 c 3.8 -2 6.3 -4.6 6.3 -6.5 c 0 -3 -3.3 -4 -8.8 -3 C 9.7 26.2 4 33 4 35 c 0 0 -0.1 0.4 0 0.8 C 4.4 34.8 7.7 34 11.7 34 z" stroke-linecap="round" />
</g>
<g transform="matrix(4.17 0 0 4.17 127.87 214.91)" id="surface1"  >
<path style="stroke: none; stroke-width: 1; stroke-dasharray: none; stroke-linecap: butt; stroke-dashoffset: 0; stroke-linejoin: miter; stroke-miterlimit: 4; fill: rgb(104,159,56); fill-rule: nonzero; opacity: 1;"  transform=" translate(-6.69, -27.58)" d="M 6 30 c -0.1 0 -0.2 0 -0.3 -0.1 c -0.5 -0.2 -0.8 -0.8 -0.6 -1.3 c 0 0 0.4 -1.2 1.3 -2.9 c 0.3 -0.5 0.9 -0.7 1.4 -0.4 c 0.5 0.3 0.7 0.9 0.4 1.4 c -0.8 1.5 -1.2 2.6 -1.2 2.6 C 6.8 29.7 6.4 30 6 30 z" stroke-linecap="round" />
</g>
<g transform="matrix(4.17 0 0 4.17 146.67 189.23)" id="surface1"  >
<path style="stroke: none; stroke-width: 1; stroke-dasharray: none; stroke-linecap: butt; stroke-dashoffset: 0; stroke-linejoin: miter; stroke-miterlimit: 4; fill: rgb(104,159,56); fill-rule: nonzero; opacity: 1;"  transform=" translate(-11.2, -21.42)" d="M 8.6 25.1 c -0.2 0 -0.4 -0.1 -0.6 -0.2 c -0.5 -0.3 -0.6 -0.9 -0.3 -1.4 c 1.6 -2.4 3.5 -4.3 5.6 -5.6 c 0.5 -0.3 1.1 -0.2 1.4 0.3 c 0.3 0.5 0.2 1.1 -0.3 1.4 c -1.8 1.1 -3.5 2.8 -5 5 C 9.2 25 8.9 25.1 8.6 25.1 z" stroke-linecap="round" />
</g>
<g transform="matrix(4.17 0 0 4.17 173.44 172.26)" id="surface1"  >
<path style="stroke: none; stroke-width: 1; stroke-dasharray: none; stroke-linecap: butt; stroke-dashoffset: 0; stroke-linejoin: miter; stroke-miterlimit: 4; fill: rgb(104,159,56); fill-rule: nonzero; opacity: 1;"  transform=" translate(-17.63, -17.34)" d="M 16.1 18.7 c -0.4 0 -0.8 -0.2 -0.9 -0.6 c -0.2 -0.5 0.1 -1.1 0.6 -1.3 c 1 -0.4 2.1 -0.7 3.2 -0.8 c 0.5 -0.1 1 0.3 1.1 0.9 c 0.1 0.5 -0.3 1 -0.9 1.1 c -0.9 0.1 -1.8 0.3 -2.7 0.7 C 16.3 18.7 16.2 18.7 16.1 18.7 z" stroke-linecap="round" />
</g>
</svg>