<?xml version="1.0" encoding="UTF-8" standalone="no" ?>
<!DOCTYPE svg PUBLIC "-//W3C//DTD SVG 1.1//EN" "http://www.w3.org/Graphics/SVG/1.1/DTD/svg11.dtd">
<svg xmlns="http://www.w3.org/2000/svg" xmlns:xlink="http://www.w3.org/1999/xlink" version="1.1" width="400" height="400" viewBox="0 0 400 400" xml:space="preserve">
<desc>Created with Fabric.js 3.6.2</desc>
<defs>
</defs>
<g transform="matrix(4.17 0 0 4.17 189.61 208.33)" id="surface1"  >
<path style="stroke: none; stroke-width: 1; stroke-dasharray: none; stroke-linecap: butt; stroke-dashoffset: 0; stroke-linejoin: miter; stroke-miterlimit: 4; fill: rgb(120,144,156); fill-rule: nonzero; opacity: 1;"  transform=" translate(-21.51, -26)" d="M 38 33 l -4 -6 l -1 -2 l -4 -2 c 0 0 -5 -0.1 -5 -3 c 0 -4.4 -4 -6 -4 -6 l -5 -2 c 0 0 -1.5 -2 -4 -2 s -6 3 -6 3 v 29 c 0 0 3.3 -1 5.7 -3.6 c 0.6 0.4 1.4 0.6 2.3 0.6 c 2.1 0 4.4 -2.4 5 -3 c 2.1 2.1 5.5 5 10 5 c 2.9 0 5 -2 5 -2 l 2 2 C 38.4 38.7 38 33 38 33 z" stroke-linecap="round" />
</g>
<g transform="matrix(4.17 0 0 4.17 172.92 143.75)" id="surface1"  >
<path style="stroke: none; stroke-width: 1; stroke-dasharray: none; stroke-linecap: butt; stroke-dashoffset: 0; stroke-linejoin: miter; stroke-miterlimit: 4; fill: rgb(120,144,156); fill-rule: nonzero; opacity: 1;"  transform=" translate(-17.5, -10.5)" d="M 17 5 c 0 0 4 1.8 4 5 s -2 6 -2 6 s -5 -0.2 -5 -4 C 14 9.4 17 7.7 17 5 z" stroke-linecap="round" />
</g>
<g transform="matrix(4.17 0 0 4.17 187.5 205.21)" id="surface1"  >
<path style="stroke: none; stroke-width: 1; stroke-dasharray: none; stroke-linecap: butt; stroke-dashoffset: 0; stroke-linejoin: miter; stroke-miterlimit: 4; fill: rgb(84,110,122); fill-rule: nonzero; opacity: 1;"  transform=" translate(-21, -25.25)" d="M 27 28 c 0 1.1 -0.9 2 -2 2 s -2 -0.9 -2 -2 s 0.9 -2 2 -2 S 27 26.9 27 28 z M 13.4 30.6 c -0.1 -0.2 -0.2 -0.4 -0.3 -0.6 C 11.7 26.6 9 24 9 24 s 3 5.3 3 9 c 0 3.8 -1.2 5.2 -1.3 5.4 c 0.6 0.4 1.4 0.6 2.3 0.6 c 2.1 0 4.4 -2.4 5 -3 c -1.3 -1.4 -2 -4 -2 -4 S 14.6 32.3 13.4 30.6 z M 28 36 c 0 2.6 2.2 3.3 2.8 4.4 C 32.2 39.8 33 39 33 39 C 31.4 37.4 29.6 38.3 28 36 z M 12 10.1 c 0.1 5.2 4 6.9 4 6.9 s -2 -2.9 -2 -6 C 13.5 10.7 12.8 10.3 12 10.1 z" stroke-linecap="round" />
</g>
<g transform="matrix(4.17 0 0 4.17 250 202.08)" id="surface1"  >
<path style="stroke: none; stroke-width: 1; stroke-dasharray: none; stroke-linecap: butt; stroke-dashoffset: 0; stroke-linejoin: miter; stroke-miterlimit: 4; fill: rgb(176,190,197); fill-rule: nonzero; opacity: 1;"  transform=" translate(-36, -24.5)" d="M 41 16 c 0 0 2 3.2 2 8 s -5 9 -5 9 c -2.4 -1.4 -4 -3 -4 -6 C 34 27 41 25.5 41 16 z M 33 25 c 2 -2.4 0 -7 0 -7 s -1.8 3.6 -4 5 C 29 23 29.9 25 33 25 z" stroke-linecap="round" />
</g>
<g transform="matrix(4.17 0 0 4.17 204.17 216.67)" id="surface1"  >
<path style="stroke: none; stroke-width: 1; stroke-dasharray: none; stroke-linecap: butt; stroke-dashoffset: 0; stroke-linejoin: miter; stroke-miterlimit: 4; fill: rgb(0,0,0); fill-rule: nonzero; opacity: 1;"  transform=" translate(-25, -28)" d="M 26 28 c 0 0.6 -0.4 1 -1 1 s -1 -0.4 -1 -1 s 0.4 -1 1 -1 S 26 27.4 26 28 z" stroke-linecap="round" />
</g>
<g transform="matrix(4.17 0 0 4.17 237.55 247.97)" id="surface1"  >
<path style="stroke: none; stroke-width: 1; stroke-dasharray: none; stroke-linecap: butt; stroke-dashoffset: 0; stroke-linejoin: miter; stroke-miterlimit: 4; fill: rgb(69,90,100); fill-rule: nonzero; opacity: 1;"  transform=" translate(-33.01, -35.51)" d="M 34 37 c -1.7 0 -2.7 -1.3 -2.8 -1.4 c -0.3 -0.4 -0.2 -1.1 0.2 -1.4 c 0.4 -0.3 1.1 -0.2 1.4 0.2 c 0 0 0.5 0.6 1.2 0.6 c 0.6 0 1 0.4 1 1 S 34.6 37 34 37 z" stroke-linecap="round" />
</g>
<g transform="matrix(4.17 0 0 4.17 206.25 202.08)" id="surface1"  >
<path style="stroke: none; stroke-width: 1; stroke-dasharray: none; stroke-linecap: butt; stroke-dashoffset: 0; stroke-linejoin: miter; stroke-miterlimit: 4; fill: rgb(55,71,79); fill-rule: nonzero; opacity: 1;"  transform=" translate(-25.5, -24.5)" d="M 35 36 c 0 0.6 -0.4 1 -1 1 s -1 -0.4 -1 -1 s 0.4 -1 1 -1 S 35 35.4 35 36 z M 17 12 c -0.6 0 -1 0.4 -1 1 s 1 3 1 3 s 1 -2.4 1 -3 S 17.6 12 17 12 z" stroke-linecap="round" />
</g>
</svg>