<?xml version="1.0" encoding="UTF-8" standalone="no" ?>
<!DOCTYPE svg PUBLIC "-//W3C//DTD SVG 1.1//EN" "http://www.w3.org/Graphics/SVG/1.1/DTD/svg11.dtd">
<svg xmlns="http://www.w3.org/2000/svg" xmlns:xlink="http://www.w3.org/1999/xlink" version="1.1" width="400" height="400" viewBox="0 0 400 400" xml:space="preserve">
<desc>Created with Fabric.js 3.6.2</desc>
<defs>
</defs>
<g transform="matrix(4.17 0 0 4.17 225 227.08)" id="Layer_1"  >
<path style="stroke: none; stroke-width: 1; stroke-dasharray: none; stroke-linecap: butt; stroke-dashoffset: 0; stroke-linejoin: miter; stroke-miterlimit: 4; fill: rgb(109,76,65); fill-rule: nonzero; opacity: 1;"  transform=" translate(-30, -30.5)" d="M 33.598 32.198 C 33.531 32.149 31.966 31 30 31 h 0 v -4 h -2 v 4.373 c -0.935 0.34 -1.556 0.795 -1.598 0.826 c -0.442 0.33 -0.534 0.956 -0.204 1.399 c 0.329 0.441 0.954 0.535 1.399 0.204 C 27.608 33.794 28.71 33 30 33 c 1.289 0 2.396 0.797 2.402 0.802 c 0.18 0.134 0.39 0.198 0.597 0.198 c 0.306 0 0.606 -0.139 0.803 -0.402 C 34.132 33.154 34.04 32.528 33.598 32.198 z" stroke-linecap="round" />
</g>
<g transform="matrix(4.17 0 0 4.17 208.33 231.25)" id="Layer_1"  >
<path style="stroke: none; stroke-width: 1; stroke-dasharray: none; stroke-linecap: butt; stroke-dashoffset: 0; stroke-linejoin: miter; stroke-miterlimit: 4; fill: rgb(62,39,35); fill-rule: nonzero; opacity: 1;"  transform=" translate(-26, -31.5)" d="M 29.598 33.198 C 29.531 33.149 27.966 32 26 32 h 0 v -4 h -2 v 4.373 c -0.935 0.34 -1.556 0.795 -1.598 0.826 c -0.442 0.33 -0.534 0.956 -0.204 1.399 c 0.329 0.441 0.954 0.535 1.399 0.204 C 23.608 34.794 24.71 34 26 34 c 1.289 0 2.396 0.797 2.402 0.802 c 0.18 0.134 0.39 0.198 0.597 0.198 c 0.306 0 0.606 -0.139 0.803 -0.402 C 30.132 34.154 30.04 33.528 29.598 33.198 z" stroke-linecap="round" />
</g>
<g transform="matrix(4.17 0 0 4.17 247.55 128.25)" id="Layer_1"  >
<path style="stroke: none; stroke-width: 1; stroke-dasharray: none; stroke-linecap: butt; stroke-dashoffset: 0; stroke-linejoin: miter; stroke-miterlimit: 4; fill: rgb(62,39,35); fill-rule: nonzero; opacity: 1;"  transform=" translate(-35.41, -6.78)" d="M 34.037 8.006 c 1.62 0 2.749 -1.099 2.749 -2.454 h -2.454 L 34.037 8.006 z" stroke-linecap="round" />
</g>
<g transform="matrix(4.17 0 0 4.17 248.13 117.85)" id="Layer_1"  >
<path style="stroke: none; stroke-width: 1; stroke-dasharray: none; stroke-linecap: butt; stroke-dashoffset: 0; stroke-linejoin: miter; stroke-miterlimit: 4; fill: rgb(57,73,171); fill-rule: nonzero; opacity: 1;"  transform=" translate(-35.55, -4.28)" d="M 37.232 5.575 c 0 -1.426 -1.355 -2.582 -2.781 -2.582 L 33.87 5.575 L 37.232 5.575 z" stroke-linecap="round" />
</g>
<g transform="matrix(4.17 0 0 4.17 251.71 125.3)" id="Layer_1"  >
<path style="stroke: none; stroke-width: 1; stroke-dasharray: none; stroke-linecap: butt; stroke-dashoffset: 0; stroke-linejoin: miter; stroke-miterlimit: 4; fill: rgb(109,76,65); fill-rule: nonzero; opacity: 1;"  transform=" translate(-36.41, -6.07)" d="M 34.827 5.575 l 2.446 2.431 c 1.733 -1.88 -0.147 -3.76 -0.552 -3.867 L 34.827 5.575 z" stroke-linecap="round" />
</g>
<g transform="matrix(4.17 0 0 4.17 205.8 173.84)" id="Layer_1"  >
<path style="stroke: none; stroke-width: 1; stroke-dasharray: none; stroke-linecap: butt; stroke-dashoffset: 0; stroke-linejoin: miter; stroke-miterlimit: 4; fill: rgb(139,195,74); fill-rule: nonzero; opacity: 1;"  transform=" translate(-25.39, -17.72)" d="M 25.692 4.864 c 6.786 2.548 9.572 11.836 7.819 17.558 c -2.054 6.703 -9.963 9.818 -16.749 7.27 L 25.692 4.864 z" stroke-linecap="round" />
</g>
<g transform="matrix(4.17 0 0 4.17 226.09 125.01)" id="Layer_1"  >
<path style="stroke: none; stroke-width: 1; stroke-dasharray: none; stroke-linecap: butt; stroke-dashoffset: 0; stroke-linejoin: miter; stroke-miterlimit: 4; fill: rgb(255,235,59); fill-rule: nonzero; opacity: 1;"  transform=" translate(-30.26, -6)" d="M 34.441 6.002 c 0 3.265 -1.144 5.002 -3.907 5.002 s -5.002 -2.24 -5.002 -5.002 S 28.334 1 31.096 1 C 36.99 1 34.441 3.24 34.441 6.002 z" stroke-linecap="round" />
</g>
<g transform="matrix(4.17 0 0 4.17 159.11 259.51)" id="Layer_1"  >
<path style="stroke: none; stroke-width: 1; stroke-dasharray: none; stroke-linecap: butt; stroke-dashoffset: 0; stroke-linejoin: miter; stroke-miterlimit: 4; fill: rgb(57,73,171); fill-rule: nonzero; opacity: 1;"  transform=" translate(-14.19, -38.28)" d="M 9 47 c 4.318 0 10.373 -16.644 10.373 -16.644 l -2.557 -0.793 L 9 47 z" stroke-linecap="round" />
</g>
<g transform="matrix(4.17 0 0 4.17 165.57 240.3)" id="Layer_1"  >
<path style="stroke: none; stroke-width: 1; stroke-dasharray: none; stroke-linecap: butt; stroke-dashoffset: 0; stroke-linejoin: miter; stroke-miterlimit: 4; fill: rgb(139,195,74); fill-rule: nonzero; opacity: 1;"  transform=" translate(-15.74, -33.67)" d="M 13 38 c 2.096 0 5.472 -8.343 5.472 -8.343 l -1.563 -0.312 L 13 38 z" stroke-linecap="round" />
</g>
<g transform="matrix(4.17 0 0 4.17 176 229.44)" id="Layer_1"  >
<path style="stroke: none; stroke-width: 1; stroke-dasharray: none; stroke-linecap: butt; stroke-dashoffset: 0; stroke-linejoin: miter; stroke-miterlimit: 4; fill: rgb(139,195,74); fill-rule: nonzero; opacity: 1;"  transform=" translate(-18.24, -31.07)" d="M 15.81 34.993 c 2.857 0 4.861 -7.853 4.861 -7.853 l -1.386 0.3 l -1.926 4.657 L 15.81 34.993 z" stroke-linecap="round" />
</g>
<g transform="matrix(4.17 0 0 4.17 229.17 120.83)" id="Layer_1"  >
<circle style="stroke: none; stroke-width: 1; stroke-dasharray: none; stroke-linecap: butt; stroke-dashoffset: 0; stroke-linejoin: miter; stroke-miterlimit: 4; fill: rgb(62,39,35); fill-rule: nonzero; opacity: 1;"  cx="0" cy="0" r="1" />
</g>
<g transform="matrix(4.17 0 0 4.17 179.17 189.57)" id="Layer_1"  >
<path style="stroke: none; stroke-width: 1; stroke-dasharray: none; stroke-linecap: butt; stroke-dashoffset: 0; stroke-linejoin: miter; stroke-miterlimit: 4; fill: rgb(255,235,59); fill-rule: nonzero; opacity: 1;"  transform=" translate(-19, -21.5)" d="M 22.169 13.287 c 2.021 -2.312 6.923 -1.375 7.585 1.626 c 0.704 3.188 -0.101 6.657 -2.468 9.252 C 23.418 28.404 14.819 31.067 8 31 C 8 31 18.406 17.592 22.169 13.287 z" stroke-linecap="round" />
</g>
<g transform="matrix(4.17 0 0 4.17 195.83 168.7)" id="Layer_1"  >
<path style="stroke: none; stroke-width: 1; stroke-dasharray: none; stroke-linecap: butt; stroke-dashoffset: 0; stroke-linejoin: miter; stroke-miterlimit: 4; fill: rgb(62,39,35); fill-rule: nonzero; opacity: 1;"  transform=" translate(-23, -16.49)" d="M 23 16.989 c 0.552 0 1 -0.448 1 -1 h -2 C 22 16.541 22.448 16.989 23 16.989 z" stroke-linecap="round" />
</g>
<g transform="matrix(4.17 0 0 4.17 204.17 168.7)" id="Layer_1"  >
<path style="stroke: none; stroke-width: 1; stroke-dasharray: none; stroke-linecap: butt; stroke-dashoffset: 0; stroke-linejoin: miter; stroke-miterlimit: 4; fill: rgb(62,39,35); fill-rule: nonzero; opacity: 1;"  transform=" translate(-25, -16.49)" d="M 25 16.989 c 0.552 0 1 -0.448 1 -1 h -2 C 24 16.541 24.448 16.989 25 16.989 z" stroke-linecap="round" />
</g>
<g transform="matrix(4.17 0 0 4.17 212.5 168.7)" id="Layer_1"  >
<path style="stroke: none; stroke-width: 1; stroke-dasharray: none; stroke-linecap: butt; stroke-dashoffset: 0; stroke-linejoin: miter; stroke-miterlimit: 4; fill: rgb(62,39,35); fill-rule: nonzero; opacity: 1;"  transform=" translate(-27, -16.49)" d="M 27 16.989 c 0.552 0 1 -0.448 1 -1 h -2 C 26 16.541 26.448 16.989 27 16.989 z" stroke-linecap="round" />
</g>
<g transform="matrix(4.17 0 0 4.17 187.5 181.2)" id="Layer_1"  >
<path style="stroke: none; stroke-width: 1; stroke-dasharray: none; stroke-linecap: butt; stroke-dashoffset: 0; stroke-linejoin: miter; stroke-miterlimit: 4; fill: rgb(62,39,35); fill-rule: nonzero; opacity: 1;"  transform=" translate(-21, -19.49)" d="M 21 19.989 c 0.552 0 1 -0.448 1 -1 h -2 C 20 19.541 20.448 19.989 21 19.989 z" stroke-linecap="round" />
</g>
<g transform="matrix(4.17 0 0 4.17 195.83 181.2)" id="Layer_1"  >
<path style="stroke: none; stroke-width: 1; stroke-dasharray: none; stroke-linecap: butt; stroke-dashoffset: 0; stroke-linejoin: miter; stroke-miterlimit: 4; fill: rgb(62,39,35); fill-rule: nonzero; opacity: 1;"  transform=" translate(-23, -19.49)" d="M 23 19.989 c 0.552 0 1 -0.448 1 -1 h -2 C 22 19.541 22.448 19.989 23 19.989 z" stroke-linecap="round" />
</g>
<g transform="matrix(4.17 0 0 4.17 204.17 181.2)" id="Layer_1"  >
<path style="stroke: none; stroke-width: 1; stroke-dasharray: none; stroke-linecap: butt; stroke-dashoffset: 0; stroke-linejoin: miter; stroke-miterlimit: 4; fill: rgb(62,39,35); fill-rule: nonzero; opacity: 1;"  transform=" translate(-25, -19.49)" d="M 25 19.989 c 0.552 0 1 -0.448 1 -1 h -2 C 24 19.541 24.448 19.989 25 19.989 z" stroke-linecap="round" />
</g>
<g transform="matrix(4.17 0 0 4.17 179.17 193.7)" id="Layer_1"  >
<path style="stroke: none; stroke-width: 1; stroke-dasharray: none; stroke-linecap: butt; stroke-dashoffset: 0; stroke-linejoin: miter; stroke-miterlimit: 4; fill: rgb(62,39,35); fill-rule: nonzero; opacity: 1;"  transform=" translate(-19, -22.49)" d="M 19 22.989 c 0.552 0 1 -0.448 1 -1 h -2 C 18 22.541 18.448 22.989 19 22.989 z" stroke-linecap="round" />
</g>
<g transform="matrix(4.17 0 0 4.17 187.5 193.7)" id="Layer_1"  >
<path style="stroke: none; stroke-width: 1; stroke-dasharray: none; stroke-linecap: butt; stroke-dashoffset: 0; stroke-linejoin: miter; stroke-miterlimit: 4; fill: rgb(62,39,35); fill-rule: nonzero; opacity: 1;"  transform=" translate(-21, -22.49)" d="M 21 22.989 c 0.552 0 1 -0.448 1 -1 h -2 C 20 22.541 20.448 22.989 21 22.989 z" stroke-linecap="round" />
</g>
<g transform="matrix(4.17 0 0 4.17 195.83 193.7)" id="Layer_1"  >
<path style="stroke: none; stroke-width: 1; stroke-dasharray: none; stroke-linecap: butt; stroke-dashoffset: 0; stroke-linejoin: miter; stroke-miterlimit: 4; fill: rgb(62,39,35); fill-rule: nonzero; opacity: 1;"  transform=" translate(-23, -22.49)" d="M 23 22.989 c 0.552 0 1 -0.448 1 -1 h -2 C 22 22.541 22.448 22.989 23 22.989 z" stroke-linecap="round" />
</g>
</svg>