<?xml version="1.0" encoding="UTF-8" standalone="no" ?>
<!DOCTYPE svg PUBLIC "-//W3C//DTD SVG 1.1//EN" "http://www.w3.org/Graphics/SVG/1.1/DTD/svg11.dtd">
<svg xmlns="http://www.w3.org/2000/svg" xmlns:xlink="http://www.w3.org/1999/xlink" version="1.1" width="400" height="400" viewBox="0 0 400 400" xml:space="preserve">
<desc>Created with Fabric.js 3.6.2</desc>
<defs>
</defs>
<g transform="matrix(4.17 0 0 4.17 162.17 135.39)" id="surface1"  >
<path style="stroke: none; stroke-width: 1; stroke-dasharray: none; stroke-linecap: butt; stroke-dashoffset: 0; stroke-linejoin: miter; stroke-miterlimit: 4; fill: rgb(255,213,79); fill-rule: nonzero; opacity: 1;"  transform=" translate(-14.92, -8.49)" d="M 19.753906 12.851563 L 16.039063 11.886719 L 14.179688 11.40625 L 13.253906 11.164063 L 12.679688 11.019531 C 12.46875 10.949219 12.289063 10.867188 12.109375 10.777344 C 11.402344 10.417969 10.785156 9.898438 10.347656 9.253906 C 9.910156 8.613281 9.675781 7.878906 9.617188 7.171875 C 9.542969 6.453125 9.675781 5.792969 9.75 5.175781 L 9.875 4.222656 L 9.882813 4.160156 L 9.886719 4.148438 L 9.886719 4.136719 C 9.988281 4.132813 9.660156 4.136719 10.113281 4.136719 L 10.109375 4.167969 L 10.09375 4.285156 L 10 5 L 9.90625 4.285156 L 9.890625 4.167969 L 9.886719 4.136719 C 10.339844 4.136719 10.011719 4.132813 10.113281 4.136719 L 10.113281 4.140625 L 10.117188 4.148438 L 10.117188 4.164063 L 10.125 4.222656 L 10.25 5.175781 C 10.339844 5.820313 10.390625 6.441406 10.597656 6.96875 C 10.980469 8.058594 11.855469 8.730469 12.824219 8.910156 C 12.9375 8.929688 13.0625 8.949219 13.160156 8.949219 C 13.167969 8.949219 13.183594 8.949219 13.179688 8.945313 L 13.179688 8.941406 L 13.1875 8.945313 C 13.082031 8.925781 13.160156 8.9375 13.140625 8.933594 L 13.527344 8.933594 L 14.488281 8.925781 L 16.40625 8.910156 L 20.246094 8.882813 Z" stroke-linecap="round" />
</g>
<g transform="matrix(4.17 0 0 4.17 237.83 135.39)" id="surface1"  >
<path style="stroke: none; stroke-width: 1; stroke-dasharray: none; stroke-linecap: butt; stroke-dashoffset: 0; stroke-linejoin: miter; stroke-miterlimit: 4; fill: rgb(255,213,79); fill-rule: nonzero; opacity: 1;"  transform=" translate(-33.08, -8.49)" d="M 27.753906 8.882813 L 31.59375 8.910156 L 33.511719 8.925781 L 34.472656 8.933594 L 34.859375 8.933594 C 34.839844 8.9375 34.921875 8.925781 34.8125 8.945313 L 34.820313 8.941406 L 34.820313 8.945313 C 34.816406 8.949219 34.835938 8.945313 34.84375 8.945313 C 34.9375 8.945313 35.0625 8.929688 35.179688 8.90625 C 36.144531 8.726563 37.019531 8.054688 37.402344 6.96875 C 37.613281 6.441406 37.660156 5.816406 37.75 5.175781 L 37.875 4.222656 L 37.882813 4.160156 L 37.886719 4.148438 L 37.886719 4.136719 C 37.988281 4.132813 37.660156 4.136719 38.113281 4.136719 L 38.109375 4.167969 L 38.09375 4.285156 L 38 5 L 37.90625 4.285156 L 37.890625 4.167969 L 37.886719 4.136719 C 38.339844 4.136719 38.011719 4.132813 38.113281 4.136719 L 38.113281 4.148438 L 38.117188 4.164063 L 38.125 4.222656 L 38.25 5.175781 C 38.324219 5.796875 38.457031 6.453125 38.382813 7.171875 C 38.324219 7.878906 38.089844 8.613281 37.652344 9.253906 C 37.214844 9.898438 36.597656 10.417969 35.890625 10.777344 C 35.710938 10.867188 35.53125 10.949219 35.320313 11.019531 L 34.75 11.164063 L 33.820313 11.40625 L 31.960938 11.886719 L 28.246094 12.851563 Z" stroke-linecap="round" />
</g>
<g transform="matrix(4.17 0 0 4.17 200 158.33)" id="surface1"  >
<path style="stroke: none; stroke-width: 1; stroke-dasharray: none; stroke-linecap: butt; stroke-dashoffset: 0; stroke-linejoin: miter; stroke-miterlimit: 4; fill: rgb(93,64,55); fill-rule: nonzero; opacity: 1;"  transform=" translate(-24, -14)" d="M 34 18 C 34 18 33.914063 16.164063 34.835938 16.164063 C 35.75 16.164063 35.75 18 38.5 18 C 41.25 18 44 14.332031 44 13.414063 C 44 12.5 40.335938 11.582031 38.5 11.582031 C 36.664063 11.582031 34.835938 13.414063 33.914063 13.414063 C 33 13.414063 29 10 29 10 L 19 10 C 19 10 15 13.414063 14.085938 13.414063 C 13.164063 13.414063 11.335938 11.582031 9.5 11.582031 C 7.664063 11.582031 4 12.5 4 13.414063 C 4 14.332031 6.75 18 9.5 18 C 12.25 18 12.25 16.164063 13.164063 16.164063 C 14.085938 16.164063 14 18 14 18 Z" stroke-linecap="round" />
</g>
<g transform="matrix(4.17 0 0 4.17 200 207.12)" id="surface1"  >
<path style="stroke: none; stroke-width: 1; stroke-dasharray: none; stroke-linecap: butt; stroke-dashoffset: 0; stroke-linejoin: miter; stroke-miterlimit: 4; fill: rgb(121,85,72); fill-rule: nonzero; opacity: 1;"  transform=" translate(-24, -25.71)" d="M 32 13 L 16 13 C 16 13 14 15 14 17 C 14 22 18 37 19 38 C 19.355469 38.355469 21 38.5 23 38.375 C 25 38.5 28.644531 38.355469 29 38 C 30 37 34 21 34 17 C 34 15 32 13 32 13 Z" stroke-linecap="round" />
</g>
<g transform="matrix(4.17 0 0 4.17 200 191.67)" id="surface1"  >
<path style="stroke: none; stroke-width: 1; stroke-dasharray: none; stroke-linecap: butt; stroke-dashoffset: 0; stroke-linejoin: miter; stroke-miterlimit: 4; fill: rgb(207,216,220); fill-rule: nonzero; opacity: 1;"  transform=" translate(-24, -22)" d="M 27 7 L 21 7 C 18.789063 7 18 9 17 11 L 16 13 C 16 13 21 17 21 27 C 21 30 19.160156 36.105469 19 37 L 29 37 C 28.839844 36.105469 26.730469 30 26.730469 27 C 26.730469 17 32 13 32 13 L 31 11 C 30 9 29.210938 7 27 7 Z" stroke-linecap="round" />
</g>
<g transform="matrix(4.17 0 0 4.17 200 277.08)" id="surface1"  >
<path style="stroke: none; stroke-width: 1; stroke-dasharray: none; stroke-linecap: butt; stroke-dashoffset: 0; stroke-linejoin: miter; stroke-miterlimit: 4; fill: rgb(120,144,156); fill-rule: nonzero; opacity: 1;"  transform=" translate(-24, -42.5)" d="M 29 42.5 C 29 43.328125 28.328125 44 27.503906 44 L 20.496094 44 C 19.671875 44 19 43.328125 19 42.5 C 19 41.671875 19.671875 41 20.496094 41 L 27.503906 41 C 28.328125 41 29 41.671875 29 42.5 Z" stroke-linecap="round" />
</g>
<g transform="matrix(4.17 0 0 4.17 200 260.42)" id="surface1"  >
<path style="stroke: none; stroke-width: 1; stroke-dasharray: none; stroke-linecap: butt; stroke-dashoffset: 0; stroke-linejoin: miter; stroke-miterlimit: 4; fill: rgb(176,190,197); fill-rule: nonzero; opacity: 1;"  transform=" translate(-24, -38.5)" d="M 30 41 C 30 41.554688 29.554688 42 29 42 L 19 42 C 18.445313 42 18 41.554688 18 41 L 19 37 C 19.140625 36.375 19.59375 35 21 35 L 27 35 C 28.359375 35 28.8125 36.34375 29 37 Z" stroke-linecap="round" />
</g>
<g transform="matrix(4.17 0 0 4.17 212.5 260.42)" id="surface1"  >
<path style="stroke: none; stroke-width: 1; stroke-dasharray: none; stroke-linecap: butt; stroke-dashoffset: 0; stroke-linejoin: miter; stroke-miterlimit: 4; fill: rgb(69,90,100); fill-rule: nonzero; opacity: 1;"  transform=" translate(-27, -38.5)" d="M 26 39 C 26 38.445313 28 37 28 37 C 28 37 28 38.445313 28 39 C 28 39.554688 27.554688 40 27 40 C 26.445313 40 26 39.554688 26 39 Z" stroke-linecap="round" />
</g>
<g transform="matrix(4.17 0 0 4.17 187.5 260.42)" id="surface1"  >
<path style="stroke: none; stroke-width: 1; stroke-dasharray: none; stroke-linecap: butt; stroke-dashoffset: 0; stroke-linejoin: miter; stroke-miterlimit: 4; fill: rgb(69,90,100); fill-rule: nonzero; opacity: 1;"  transform=" translate(-21, -38.5)" d="M 22 39 C 22 38.445313 20 37 20 37 C 20 37 20 38.445313 20 39 C 20 39.554688 20.445313 40 21 40 C 21.554688 40 22 39.554688 22 39 Z" stroke-linecap="round" />
</g>
<g transform="matrix(4.17 0 0 4.17 232.88 178.19)" id="surface1"  >
<path style="stroke: none; stroke-width: 1; stroke-dasharray: none; stroke-linecap: butt; stroke-dashoffset: 0; stroke-linejoin: miter; stroke-miterlimit: 4; fill: rgb(255,255,255); fill-rule: nonzero; opacity: 1;"  transform=" translate(-31.89, -18.77)" d="M 31.988281 20.273438 C 31.886719 19.980469 31.828125 19.65625 31.828125 19.320313 C 31.828125 18.445313 32.210938 17.6875 32.78125 17.25 C 31.953125 17.570313 31 18.308594 31 20 C 31 20 31.464844 20.101563 32.007813 20.28125 C 32 20.277344 31.996094 20.277344 31.988281 20.273438 Z" stroke-linecap="round" />
</g>
<g transform="matrix(4.17 0 0 4.17 166.93 178.19)" id="surface1"  >
<path style="stroke: none; stroke-width: 1; stroke-dasharray: none; stroke-linecap: butt; stroke-dashoffset: 0; stroke-linejoin: miter; stroke-miterlimit: 4; fill: rgb(255,255,255); fill-rule: nonzero; opacity: 1;"  transform=" translate(-16.06, -18.77)" d="M 15.964844 20.273438 C 16.066406 19.980469 16.125 19.65625 16.125 19.320313 C 16.125 18.445313 15.742188 17.6875 15.171875 17.25 C 16 17.570313 16.953125 18.308594 16.953125 20 C 16.953125 20 16.488281 20.101563 15.945313 20.28125 C 15.953125 20.277344 15.957031 20.277344 15.964844 20.273438 Z" stroke-linecap="round" />
</g>
<g transform="matrix(4.17 0 0 4.17 238.35 179.17)" id="surface1"  >
<path style="stroke: none; stroke-width: 1; stroke-dasharray: none; stroke-linecap: butt; stroke-dashoffset: 0; stroke-linejoin: miter; stroke-miterlimit: 4; fill: rgb(38,50,56); fill-rule: nonzero; opacity: 1;"  transform=" translate(-33.2, -19)" d="M 34 17 C 34 17 33.429688 17 32.78125 17.25 C 32.210938 17.6875 31.828125 18.445313 31.828125 19.320313 C 31.828125 19.65625 31.886719 19.980469 31.988281 20.273438 C 32.507813 20.445313 33.097656 20.691406 33.4375 21 C 33.792969 20.710938 35.4375 18.8125 34 17 Z" stroke-linecap="round" />
</g>
<g transform="matrix(4.17 0 0 4.17 161.45 179.17)" id="surface1"  >
<path style="stroke: none; stroke-width: 1; stroke-dasharray: none; stroke-linecap: butt; stroke-dashoffset: 0; stroke-linejoin: miter; stroke-miterlimit: 4; fill: rgb(38,50,56); fill-rule: nonzero; opacity: 1;"  transform=" translate(-14.75, -19)" d="M 13.953125 17 C 13.953125 17 14.523438 17 15.171875 17.25 C 15.742188 17.6875 16.125 18.445313 16.125 19.320313 C 16.125 19.65625 16.066406 19.980469 15.964844 20.273438 C 15.445313 20.445313 14.855469 20.691406 14.515625 21 C 14.160156 20.710938 12.515625 18.8125 13.953125 17 Z" stroke-linecap="round" />
</g>
</svg>