<?xml version="1.0" encoding="UTF-8" standalone="no" ?>
<!DOCTYPE svg PUBLIC "-//W3C//DTD SVG 1.1//EN" "http://www.w3.org/Graphics/SVG/1.1/DTD/svg11.dtd">
<svg xmlns="http://www.w3.org/2000/svg" xmlns:xlink="http://www.w3.org/1999/xlink" version="1.1" width="400" height="400" viewBox="0 0 400 400" xml:space="preserve">
<desc>Created with Fabric.js 3.6.2</desc>
<defs>
</defs>
<g transform="matrix(4.17 0 0 4.17 262.02 230.92)" id="Layer_1"  >
<path style="stroke: none; stroke-width: 1; stroke-dasharray: none; stroke-linecap: butt; stroke-dashoffset: 0; stroke-linejoin: miter; stroke-miterlimit: 4; fill: rgb(66,66,66); fill-rule: nonzero; opacity: 1;"  transform=" translate(-38.88, -31.42)" d="M 38 29 c 0 -3 0 -2 0 -2 h -3.995 v 9 c 0 0 -1.487 0 2.995 0 c 5.125 0 7 0 7 0 s -1 -2 -3 -2 C 40 34 38 32 38 29 z" stroke-linecap="round" />
</g>
<g transform="matrix(4.17 0 0 4.17 208.33 191.67)" id="Layer_1"  >
<path style="stroke: none; stroke-width: 1; stroke-dasharray: none; stroke-linecap: butt; stroke-dashoffset: 0; stroke-linejoin: miter; stroke-miterlimit: 4; fill: rgb(189,189,189); fill-rule: nonzero; opacity: 1;"  transform=" translate(-26, -22)" d="M 37.083 10.813 c -5.708 3.313 1.292 16.063 -14.458 18.813 L 8 31.875 V 35 h 1.875 c 0 0 4.719 1 11.13 1 C 41.005 36 41 27 41 25 c 0 -3.5 -2.125 -7 -2 -10 c 0.099 -2.373 0.685 -2.701 1.25 -3 C 42.375 10.875 44 9.75 44 8 C 42.895 9.411 38.86 9.89 37.083 10.813 z" stroke-linecap="round" />
</g>
<g transform="matrix(4.17 0 0 4.17 200 200)" id="Layer_1"  >
<path style="stroke: none; stroke-width: 1; stroke-dasharray: none; stroke-linecap: butt; stroke-dashoffset: 0; stroke-linejoin: miter; stroke-miterlimit: 4; fill: rgb(97,97,97); fill-rule: nonzero; opacity: 1;"  transform=" translate(-24, -24)" d="M 36 14.5 c 0 2.88 1 5.5 1 8.5 c 0 4.75 -2 5.12 -2 8.25 c 0 3 1.63 4.56 2.75 5.25 C 39.11 37.34 41 39.75 41 43 c 0 0 -7.61 -2.25 -10.38 -5.38 c -0.4 -0.46 -0.61 -0.94 -0.61 -1.62 L 30 31 c 0 0 -7 3 -21 3 c 0.75 1.12 2.5 2 5.74 3.12 c 3.07 1.06 3.26 4.9 3.26 4.9 C 15.21 42.01 13.04 42 11.67 42 c -1.16 0 -2.28 -0.4 -3.17 -1.14 C 6.72 39.39 4 36.69 4 34 c 0 -1.91 1.01 -4.24 5.01 -5.96 c 0.19 -0.08 0.4 -0.16 0.61 -0.24 c 0.49 -0.19 0.95 -0.35 1.39 -0.5 L 14 28 l 1.57 -1.91 c 0.83 -0.18 1.72 -0.38 2.7 -0.62 c 0.6 -0.15 1.2 -0.31 1.77 -0.49 L 22 25 l 1.43 -1.44 c 2.55 -1.33 3.5 -2.61 4.38 -4.22 L 30 18 l -0.18 -2.98 c 0.82 -2.24 1.23 -5.2 1.44 -5.9 C 32.01 6.62 33.89 5 36.62 5 c 2.5 0 3.66 2 6.63 2 C 43.75 7 44 7.25 44 8 c 0 1.5 -3 2.4 -5.25 3.12 C 37.12 11.65 36 12.62 36 14.5 z" stroke-linecap="round" />
</g>
<g transform="matrix(4.17 0 0 4.17 254.17 133.33)" id="Layer_1"  >
<circle style="stroke: none; stroke-width: 1; stroke-dasharray: none; stroke-linecap: butt; stroke-dashoffset: 0; stroke-linejoin: miter; stroke-miterlimit: 4; fill: rgb(0,0,0); fill-rule: nonzero; opacity: 1;"  cx="0" cy="0" r="1" />
</g>
<g transform="matrix(4.17 0 0 4.17 224.6 172.96)" id="Layer_1"  >
<path style="stroke: none; stroke-width: 1; stroke-dasharray: none; stroke-linecap: butt; stroke-dashoffset: 0; stroke-linejoin: miter; stroke-miterlimit: 4; fill: rgb(66,66,66); fill-rule: nonzero; opacity: 1;"  transform=" translate(-29.91, -17.51)" d="M 32 17.5 c 0 1.38 -1.12 2.5 -2.5 2.5 c -0.65 0 -1.25 -0.25 -1.69 -0.66 c 0.22 -0.39 0.43 -0.8 0.66 -1.23 c 0.02 -0.04 0.04 -0.07 0.06 -0.11 c 0.52 -1 0.94 -2.01 1.29 -2.98 C 31.05 15.18 32 16.23 32 17.5 z" stroke-linecap="round" />
</g>
<g transform="matrix(4.17 0 0 4.17 227.08 206.77)" id="Layer_1"  >
<ellipse style="stroke: none; stroke-width: 1; stroke-dasharray: none; stroke-linecap: butt; stroke-dashoffset: 0; stroke-linejoin: miter; stroke-miterlimit: 4; fill: rgb(66,66,66); fill-rule: nonzero; opacity: 1;"  cx="0" cy="0" rx="2" ry="1.5" />
</g>
<g transform="matrix(4.17 0 0 4.17 156.25 216.85)" id="Layer_1"  >
<path style="stroke: none; stroke-width: 1; stroke-dasharray: none; stroke-linecap: butt; stroke-dashoffset: 0; stroke-linejoin: miter; stroke-miterlimit: 4; fill: rgb(66,66,66); fill-rule: nonzero; opacity: 1;"  transform=" translate(-13.5, -28.05)" d="M 16 27.5 c 0 1.38 -1.12 2.5 -2.5 2.5 S 11 28.88 11 27.5 c 0 -0.07 0 -0.13 0.01 -0.2 c 1.63 -0.55 3.02 -0.86 4.56 -1.21 C 15.84 26.49 16 26.98 16 27.5 z" stroke-linecap="round" />
</g>
<g transform="matrix(4.17 0 0 4.17 183.33 225.52)" id="Layer_1"  >
<circle style="stroke: none; stroke-width: 1; stroke-dasharray: none; stroke-linecap: butt; stroke-dashoffset: 0; stroke-linejoin: miter; stroke-miterlimit: 4; fill: rgb(66,66,66); fill-rule: nonzero; opacity: 1;"  cx="0" cy="0" r="1" />
</g>
<g transform="matrix(4.17 0 0 4.17 191.83 205.33)" id="Layer_1"  >
<path style="stroke: none; stroke-width: 1; stroke-dasharray: none; stroke-linecap: butt; stroke-dashoffset: 0; stroke-linejoin: miter; stroke-miterlimit: 4; fill: rgb(66,66,66); fill-rule: nonzero; opacity: 1;"  transform=" translate(-22.04, -25.28)" d="M 24.04 25 c 0 1.1 -0.89 2 -2 2 c -1.1 0 -2 -0.9 -2 -2 c 0 -0.01 0 -0.01 0 -0.02 c 0.46 -0.14 0.91 -0.3 1.34 -0.48 c 0.22 -0.09 0.42 -0.18 0.62 -0.26 c 0.53 -0.23 1 -0.46 1.43 -0.68 C 23.81 23.92 24.04 24.44 24.04 25 z" stroke-linecap="round" />
</g>
</svg>