<?xml version="1.0" encoding="UTF-8" standalone="no" ?>
<!DOCTYPE svg PUBLIC "-//W3C//DTD SVG 1.1//EN" "http://www.w3.org/Graphics/SVG/1.1/DTD/svg11.dtd">
<svg xmlns="http://www.w3.org/2000/svg" xmlns:xlink="http://www.w3.org/1999/xlink" version="1.1" width="400" height="400" viewBox="0 0 400 400" xml:space="preserve">
<desc>Created with Fabric.js 3.6.2</desc>
<defs>
</defs>
<g transform="matrix(3.13 0 0 3.13 202.34 197.25)" id="cat"  >
<path style="stroke: none; stroke-width: 1; stroke-dasharray: none; stroke-linecap: butt; stroke-dashoffset: 0; stroke-linejoin: miter; stroke-miterlimit: 4; fill: rgb(55,71,79); fill-rule: nonzero; opacity: 1;"  transform=" translate(-32.75, -31.12)" d="M 52.6 13.5 C 50.2 7.3 44.1 2.9 37.1 2.9 c -6.2 0 -11.5 3.4 -14.5 8.3 c -0.8 1.4 -2.3 2.3 -4 2.3 l -3.8 14.2 c 0 4.4 1.5 8.4 4 11.6 c -0.3 4.7 -1 9.2 -2.1 13.6 c -0.1 0.4 -0.5 0.7 -0.9 0.7 c -0.4 0 -0.8 0.1 -1.1 0.1 c -1 0.2 -1.8 1.1 -1.8 2.2 c 0 1.1 0.9 2.1 2.1 2.2 c 0.7 0.1 1.3 0.1 2 0.1 c 1.9 0 3.6 -1.3 4.2 -3.1 c 2.3 -6.2 3.8 -12.9 4.4 -19.8 c 0 0 7.3 -1.7 11.8 -6.5 c 2.4 2.5 3.9 5.8 4.1 9.5 c 0.2 3 0.6 11.4 0.7 15.3 c 0 0.4 -0.3 0.8 -0.7 1 c -0.7 0.2 -1.4 0.5 -2.1 0.8 c -0.7 0.3 -1.1 0.9 -1.2 1.7 c 0 0 0 0 0 0 c -0.1 1.1 0.7 2 1.7 2.1 c 2.3 0.3 4.7 0.1 6.9 -0.4 L 52.6 13.5 z" stroke-linecap="round" />
</g>
<g transform="matrix(3.13 0 0 3.13 222.06 202.81)" id="cat"  >
<path style="stroke: none; stroke-width: 1; stroke-dasharray: none; stroke-linecap: butt; stroke-dashoffset: 0; stroke-linejoin: miter; stroke-miterlimit: 4; fill: rgb(33,33,33); fill-rule: nonzero; opacity: 1;"  transform=" translate(-39.06, -32.9)" d="M 61.7 31.8 c -0.4 -0.3 -1 -0.9 -0.9 -1.5 c 0.1 -1.3 0.3 -2.5 0.4 -3.8 c 0.3 -2.6 0.6 -5.3 0.6 -8.1 c 0 -3.5 -2.5 -6.6 -5.9 -7.1 c -1.3 -0.2 -2.5 0 -3.6 0.4 c -1 0.4 -2.1 0 -2.7 -0.8 c -3.2 -3.7 -8.1 -6.1 -13.4 -6.1 c -5.5 0 -10.6 2.3 -13.6 6.4 c -0.9 1.3 -2.3 2.3 -4 2.3 l -3.3 15 c 0.9 5.2 4.1 9.5 8.6 11.9 c -0.2 4.9 -0.6 9.7 -1.4 14.4 c -0.1 0.5 -0.5 0.8 -1 0.8 c -0.6 0 -1.3 0.1 -1.9 0.2 c -1.1 0.2 -1.9 1.1 -2 2.2 l 0 0 c -0.1 1.2 0.6 2.3 1.8 2.6 c 1.4 0.4 2.9 0.4 4.3 0.2 c 0.9 -0.2 1.6 -0.8 2 -1.6 c 3.1 -6.9 5.2 -14.3 6.1 -22.1 c 2.9 -1.4 5.5 -3.6 7.4 -6.2 c 2.4 0.9 4.2 3.1 4.5 5.9 c 0.7 5.9 1.2 11.9 1.5 17.9 c 0 0.4 -0.2 0.7 -0.5 0.9 c -0.7 0.4 -1.4 0.9 -1.9 1.5 c -0.3 0.3 -0.5 0.7 -0.6 1.1 c 0 0 0 0.1 0 0.1 C 41.6 59.8 42.7 61 44 61 c 1.2 0 2.4 0 3.6 0 c 1.4 -0.1 2.5 -1.1 2.7 -2.5 c 0.8 -5.8 1.3 -11.7 1.5 -17.6 c 0.1 -2.4 0.3 -4.8 0.7 -7.2 c 0.6 -3.7 1.1 -7.4 1.2 -11.2 c 0 -0.1 0 -0.2 0 -0.3 c 0.9 -2.6 2 -5.4 2.3 -4.7 c 0.7 1.5 0.5 6 0.2 8.5 c -0.2 1.3 -0.3 2.6 -0.4 3.9 c -0.2 2.3 1 4.6 3.1 6 c 0.4 0.3 0.9 0.4 1.4 0.4 c 0.8 0 1.6 -0.4 2.1 -1.1 C 63.2 34.1 62.8 32.5 61.7 31.8 z" stroke-linecap="round" />
</g>
<g transform="matrix(3.13 0 0 3.13 111.88 153.28)" id="cat"  >
<path style="stroke: none; stroke-width: 1; stroke-dasharray: none; stroke-linecap: butt; stroke-dashoffset: 0; stroke-linejoin: miter; stroke-miterlimit: 4; fill: rgb(84,110,122); fill-rule: nonzero; opacity: 1;"  transform=" translate(-3.8, -17.05)" d="M 4 21.4 c -1.4 -2.6 -2.2 -5.5 -2.2 -8.7 c 0 0 1.5 2.9 4 4.4 C 5.7 17 4.4 18.1 4 21.4 z" stroke-linecap="round" />
</g>
<g transform="matrix(3.13 0 0 3.13 123.78 143.68)" id="cat"  >
<path style="stroke: none; stroke-width: 1; stroke-dasharray: none; stroke-linecap: butt; stroke-dashoffset: 0; stroke-linejoin: miter; stroke-miterlimit: 4; fill: rgb(55,71,79); fill-rule: nonzero; opacity: 1;"  transform=" translate(-7.61, -13.98)" d="M 12.7 14.2 C 11.1 15.6 9 15.9 7 15.3 c -3.1 -1 -4.7 -3.3 -4.8 -5.8 C 2.1 9 1.5 9 1.4 9.4 c -0.4 1.6 -0.3 3.4 0.4 5 c 1.7 3.7 5.9 5.4 9.7 3.9 C 15.1 16.9 14.3 12.8 12.7 14.2 z" stroke-linecap="round" />
</g>
<g transform="matrix(3.13 0 0 3.13 178.75 137.5)" id="cat"  >
<path style="stroke: none; stroke-width: 1; stroke-dasharray: none; stroke-linecap: butt; stroke-dashoffset: 0; stroke-linejoin: miter; stroke-miterlimit: 4; fill: rgb(117,117,117); fill-rule: nonzero; opacity: 1;"  transform=" translate(-25.2, -12)" d="M 26.9 16.8 c 0 -3.5 1 -6.8 2.7 -9.6 l -8.8 5.1 L 26.9 16.8 z" stroke-linecap="round" />
</g>
<g transform="matrix(3.13 0 0 3.13 151.56 161.48)" id="cat"  >
<path style="stroke: none; stroke-width: 1; stroke-dasharray: none; stroke-linecap: butt; stroke-dashoffset: 0; stroke-linejoin: miter; stroke-miterlimit: 4; fill: rgb(38,50,56); fill-rule: nonzero; opacity: 1;"  transform=" translate(-16.5, -19.67)" d="M 29.8 6.6 c -3.3 1.8 -6.9 3.2 -10.7 4 c -1.3 -0.5 -2.7 -0.8 -4.2 -0.8 c -6 0 -10.9 4.6 -11.4 10.5 c -0.5 0.8 -0.8 1.8 -0.8 2.8 c 0 2.6 2 4.8 4.5 5.2 c 1.6 1 3.1 2.1 4.4 3.3 c 0.8 0.7 1.9 1.2 3 1.2 c 0.1 0 0.2 0 0.3 0 c 0.6 0 1.3 -0.1 1.9 -0.2 c 0.3 -0.1 0.6 -0.2 0.8 -0.5 c 0.8 -1.1 1.4 -2.3 1.9 -3.6 c 0.2 -0.6 0.8 -0.9 1.4 -0.9 c 3.2 0.3 6.3 -1.7 7.3 -5 c 0.9 -3.1 -0.5 -6.1 -3 -7.9 c -0.9 -0.6 -2.3 -1.9 -3.3 -2.7 c 3.1 -1.1 6 -2.9 8.4 -5.1 C 30.3 6.8 30.1 6.4 29.8 6.6 z" stroke-linecap="round" />
</g>
<g transform="matrix(3.13 0 0 3.13 142.14 182.42)" id="cat"  >
<path style="stroke: none; stroke-width: 1; stroke-dasharray: none; stroke-linecap: butt; stroke-dashoffset: 0; stroke-linejoin: miter; stroke-miterlimit: 4; fill: rgb(244,67,54); fill-rule: nonzero; opacity: 1;"  transform=" translate(-13.49, -26.37)" d="M 8.8 25.6 c 1.4 1.1 2.6 2.4 3.5 4 c 0.2 0.4 0.6 0.6 1 0.5 c 0.7 -0.1 1.3 -0.3 1.9 -0.6 c 0.6 -0.2 1.1 -0.8 1.3 -1.5 c 0.4 -1.5 0.9 -3 1.6 -4.4 c 0.3 -0.6 -0.4 -1.2 -1 -0.9 c -2 1.1 -4.2 1.6 -6.5 1.5 C 9.9 24.7 9.3 25.1 8.8 25.6 z" stroke-linecap="round" />
</g>
<g transform="matrix(3.13 0 0 3.13 136 180.47)" id="cat"  >
<path style="stroke: none; stroke-width: 1; stroke-dasharray: none; stroke-linecap: butt; stroke-dashoffset: 0; stroke-linejoin: miter; stroke-miterlimit: 4; fill: rgb(255,255,255); fill-rule: nonzero; opacity: 1;"  transform=" translate(-11.52, -25.75)" d="M 13.6 24.1 c 0.2 0.7 0.3 1.5 0.2 2.1 c 0 0.3 -0.2 0.5 -0.2 0.5 c -0.1 -0.9 -0.6 -1.7 -0.9 -2.5 C 13 24.2 13.3 24.1 13.6 24.1 z M 10.1 27 c 0.1 0.1 0.5 0.4 0.5 0.4 c -0.3 -0.8 -0.4 -1.8 -0.6 -2.7 c -0.3 0.2 -0.6 0.4 -0.8 0.6 C 9.4 25.9 9.7 26.5 10.1 27 z" stroke-linecap="round" />
</g>
<g transform="matrix(3.13 0 0 3.13 130.56 172.33)" id="cat"  >
<path style="stroke: none; stroke-width: 1; stroke-dasharray: none; stroke-linecap: butt; stroke-dashoffset: 0; stroke-linejoin: miter; stroke-miterlimit: 4; fill: rgb(117,117,117); fill-rule: nonzero; opacity: 1;"  transform=" translate(-9.78, -23.14)" d="M 10.7 23.8 c 0 -0.3 0.1 -0.7 0.2 -1 c 0.3 -0.7 0.1 -0.8 -0.3 -0.9 c -0.8 -0.2 -0.7 0.6 -1.4 0.4 c -0.2 0 -0.3 0 -0.4 0 c -0.4 0.2 -0.4 0.5 0.1 0.9 c 0.4 0.3 0.7 0.6 0.9 0.9 C 10.1 24.8 10.7 24.2 10.7 23.8 z" stroke-linecap="round" />
</g>
<g transform="matrix(3.13 0 0 3.13 121.41 162.85)" id="cat"  >
<path style="stroke: none; stroke-width: 1; stroke-dasharray: none; stroke-linecap: butt; stroke-dashoffset: 0; stroke-linejoin: miter; stroke-miterlimit: 4; fill: rgb(255,238,88); fill-rule: nonzero; opacity: 1;"  transform=" translate(-6.85, -20.11)" d="M 8.9 20.7 C 8.4 19.7 7.9 19 6.8 19 C 6.4 19 6 19 5.6 19.2 c -0.4 0.1 -0.7 0.5 -0.7 1 l -0.1 0.7 c 0 0.2 0.2 0.4 0.4 0.3 C 6.4 20.8 7.6 20.7 8.9 20.7 z" stroke-linecap="round" />
</g>
<g transform="matrix(3.13 0 0 3.13 145.63 156.02)" id="cat"  >
<path style="stroke: none; stroke-width: 1; stroke-dasharray: none; stroke-linecap: butt; stroke-dashoffset: 0; stroke-linejoin: miter; stroke-miterlimit: 4; fill: rgb(0,229,255); fill-rule: nonzero; opacity: 1;"  transform=" translate(-14.6, -17.92)" d="M 17.1 16.8 c -0.5 -0.4 -1.9 -0.9 -3.3 -0.2 c -0.5 0.3 -0.9 0.7 -1.2 1.2 c -0.3 0.6 -0.4 1.2 -0.5 1.8 C 14 19.4 15.8 18.4 17.1 16.8 z" stroke-linecap="round" />
</g>
</svg>