<?xml version="1.0" encoding="UTF-8" standalone="no" ?>
<!DOCTYPE svg PUBLIC "-//W3C//DTD SVG 1.1//EN" "http://www.w3.org/Graphics/SVG/1.1/DTD/svg11.dtd">
<svg xmlns="http://www.w3.org/2000/svg" xmlns:xlink="http://www.w3.org/1999/xlink" version="1.1" width="400" height="400" viewBox="0 0 400 400" xml:space="preserve">
<desc>Created with Fabric.js 3.6.2</desc>
<defs>
</defs>
<g transform="matrix(4.17 0 0 4.17 200 235.42)" id="surface1"  >
<path style="stroke: none; stroke-width: 1; stroke-dasharray: none; stroke-linecap: butt; stroke-dashoffset: 0; stroke-linejoin: miter; stroke-miterlimit: 4; fill: rgb(141,110,99); fill-rule: nonzero; opacity: 1;"  transform=" translate(-24, -32.5)" d="M 36 36.011719 C 36 38.488281 34.597656 39.589844 31.367188 39.589844 C 28.703125 39.589844 26.457031 38.625 23.648438 38.625 C 20.84375 38.625 19.15625 40 16.070313 40 C 13.125 40 12 37.933594 12 36.421875 C 12 33.394531 14.246094 32.980469 16.769531 30.363281 C 19.300781 27.753906 20.703125 25 23.367188 25 C 26.457031 25 27.441406 28.304688 29.683594 30.917969 C 31.648438 33.394531 36 33.117188 36 36.011719 Z" stroke-linecap="round" />
</g>
<g transform="matrix(4.17 0 0 4.17 227.08 158.33)" id="surface1"  >
<path style="stroke: none; stroke-width: 1; stroke-dasharray: none; stroke-linecap: butt; stroke-dashoffset: 0; stroke-linejoin: miter; stroke-miterlimit: 4; fill: rgb(141,110,99); fill-rule: nonzero; opacity: 1;"  transform=" translate(-30.5, -14)" d="M 30.015625 21 C 33.339844 21 35 16.8125 35 12.917969 C 35 9.023438 32.644531 7 31.121094 7 C 27.800781 7 26 10.609375 26 13.0625 C 26 15.371094 26.96875 21 30.015625 21 Z" stroke-linecap="round" />
</g>
<g transform="matrix(4.17 0 0 4.17 177.08 156.25)" id="surface1"  >
<path style="stroke: none; stroke-width: 1; stroke-dasharray: none; stroke-linecap: butt; stroke-dashoffset: 0; stroke-linejoin: miter; stroke-miterlimit: 4; fill: rgb(141,110,99); fill-rule: nonzero; opacity: 1;"  transform=" translate(-18.5, -13.5)" d="M 18.882813 20 C 22.238281 20 23 15.945313 23 12.171875 C 23 9.375 21.015625 7 19.03125 7 C 15.523438 7 14 10.355469 14 13.148438 C 14 15.386719 15.984375 20 18.882813 20 Z" stroke-linecap="round" />
</g>
<g transform="matrix(4.17 0 0 4.17 143.75 204.17)" id="surface1"  >
<path style="stroke: none; stroke-width: 1; stroke-dasharray: none; stroke-linecap: butt; stroke-dashoffset: 0; stroke-linejoin: miter; stroke-miterlimit: 4; fill: rgb(141,110,99); fill-rule: nonzero; opacity: 1;"  transform=" translate(-10.5, -25)" d="M 15 24.023438 C 15 21.511719 12.785156 19 10.722656 19 C 8.65625 19 6 22.070313 6 25.417969 C 6 27.652344 7.769531 31 10.574219 31 C 13.230469 31 15 27.511719 15 24.023438 Z" stroke-linecap="round" />
</g>
<g transform="matrix(4.17 0 0 4.17 256.25 204.16)" id="surface1"  >
<path style="stroke: none; stroke-width: 1; stroke-dasharray: none; stroke-linecap: butt; stroke-dashoffset: 0; stroke-linejoin: miter; stroke-miterlimit: 4; fill: rgb(141,110,99); fill-rule: nonzero; opacity: 1;"  transform=" translate(-37.5, -25)" d="M 39.734375 19.0625 C 37.796875 18.644531 35.714844 20.320313 34.054688 23.664063 C 31.976563 27.433594 33.222656 30.359375 35.578125 30.917969 C 37.933594 31.476563 40.285156 29.105469 41.53125 25.617188 C 42.640625 22.96875 41.671875 19.480469 39.734375 19.0625 Z" stroke-linecap="round" />
</g>
<g transform="matrix(4.17 0 0 4.17 200 228.25)" id="surface1"  >
<path style="stroke: none; stroke-width: 1; stroke-dasharray: none; stroke-linecap: butt; stroke-dashoffset: 0; stroke-linejoin: miter; stroke-miterlimit: 4; fill: rgb(109,76,65); fill-rule: nonzero; opacity: 1;"  transform=" translate(-24, -30.78)" d="M 18.210938 31.757813 C 18.90625 31.035156 19.523438 30.308594 20.066406 29.664063 C 21.503906 27.964844 22.363281 27 23.367188 27 C 24.40625 27 25.035156 27.785156 26.332031 29.71875 C 29.6875 35.46875 34.875 33.875 36 36.011719 C 36 33.117188 31.648438 33.394531 29.683594 30.917969 C 27.4375 28.304688 26.457031 25 23.367188 25 C 20.703125 25 19.300781 27.753906 16.773438 30.363281 C 14.246094 32.980469 12 33.394531 12 36.421875 C 12 36.464844 12.011719 36.511719 12.011719 36.558594 C 12.277344 34.238281 16.332031 33.605469 18.210938 31.757813 Z" stroke-linecap="round" />
</g>
<g transform="matrix(4.17 0 0 4.17 227.08 146.26)" id="surface1"  >
<path style="stroke: none; stroke-width: 1; stroke-dasharray: none; stroke-linecap: butt; stroke-dashoffset: 0; stroke-linejoin: miter; stroke-miterlimit: 4; fill: rgb(109,76,65); fill-rule: nonzero; opacity: 1;"  transform=" translate(-30.5, -11.1)" d="M 31.109375 9 C 32.390625 9.09375 34.789063 12.261719 34.839844 15.003906 C 34.945313 14.316406 35 13.613281 35 12.917969 C 35 9.019531 32.644531 7 31.121094 7 C 27.800781 7 26 10.609375 26 13.0625 C 26 13.621094 26.058594 14.382813 26.1875 15.207031 C 26.1875 15.199219 26.1875 15.195313 26.1875 15.195313 C 26.1875 13.21875 28.5 9.03125 31.109375 9 Z" stroke-linecap="round" />
</g>
<g transform="matrix(4.17 0 0 4.17 177.08 146.26)" id="surface1"  >
<path style="stroke: none; stroke-width: 1; stroke-dasharray: none; stroke-linecap: butt; stroke-dashoffset: 0; stroke-linejoin: miter; stroke-miterlimit: 4; fill: rgb(109,76,65); fill-rule: nonzero; opacity: 1;"  transform=" translate(-18.5, -11.1)" d="M 19.03125 9 C 19.71875 9 22.945313 10.847656 22.902344 14.328125 C 22.972656 13.617188 23 12.890625 23 12.171875 C 23 9.375 21.015625 7 19.03125 7 C 15.523438 7 14 10.355469 14 13.148438 C 14 13.71875 14.128906 14.441406 14.367188 15.203125 C 14.355469 15.136719 14.34375 15.070313 14.34375 15 C 14.34375 13.5625 16.632813 9 19.03125 9 Z" stroke-linecap="round" />
</g>
<g transform="matrix(4.17 0 0 4.17 143.75 196.41)" id="surface1"  >
<path style="stroke: none; stroke-width: 1; stroke-dasharray: none; stroke-linecap: butt; stroke-dashoffset: 0; stroke-linejoin: miter; stroke-miterlimit: 4; fill: rgb(109,76,65); fill-rule: nonzero; opacity: 1;"  transform=" translate(-10.5, -23.14)" d="M 10.722656 21 C 13.5625 21 14.941406 25.089844 14.941406 25.089844 C 14.976563 24.734375 15 24.382813 15 24.023438 C 15 21.511719 12.785156 19 10.722656 19 C 8.65625 19 6 22.070313 6 25.417969 C 6 25.988281 6.117188 26.636719 6.339844 27.277344 C 6.324219 27.214844 6.3125 27.152344 6.3125 27.085938 C 6.3125 24.671875 9.046875 21 10.722656 21 Z" stroke-linecap="round" />
</g>
<g transform="matrix(4.17 0 0 4.17 256.26 197.8)" id="surface1"  >
<path style="stroke: none; stroke-width: 1; stroke-dasharray: none; stroke-linecap: butt; stroke-dashoffset: 0; stroke-linejoin: miter; stroke-miterlimit: 4; fill: rgb(109,76,65); fill-rule: nonzero; opacity: 1;"  transform=" translate(-37.5, -23.47)" d="M 39.734375 19.0625 C 39.535156 19.019531 39.339844 19 39.144531 19 C 37.378906 19 35.550781 20.65625 34.054688 23.664063 C 33.269531 25.09375 32.960938 26.394531 33.007813 27.5 C 33.484375 25.785156 36.804688 20.945313 39.144531 21 C 39.199219 21.003906 39.257813 21.007813 39.289063 21.011719 C 40.957031 21.441406 41.015625 26.003906 40.433594 27.945313 C 40.855469 27.25 41.230469 26.472656 41.535156 25.617188 C 42.640625 22.96875 41.671875 19.480469 39.734375 19.0625 Z" stroke-linecap="round" />
</g>
</svg>