<?xml version="1.0" encoding="UTF-8" standalone="no" ?>
<!DOCTYPE svg PUBLIC "-//W3C//DTD SVG 1.1//EN" "http://www.w3.org/Graphics/SVG/1.1/DTD/svg11.dtd">
<svg xmlns="http://www.w3.org/2000/svg" xmlns:xlink="http://www.w3.org/1999/xlink" version="1.1" width="400" height="400" viewBox="0 0 400 400" xml:space="preserve">
<desc>Created with Fabric.js 3.6.2</desc>
<defs>
</defs>
<g transform="matrix(4.17 0 0 4.17 152.08 268.75)" id="surface1"  >
<path style="stroke: none; stroke-width: 1; stroke-dasharray: none; stroke-linecap: butt; stroke-dashoffset: 0; stroke-linejoin: miter; stroke-miterlimit: 4; fill: rgb(139,195,74); fill-rule: nonzero; opacity: 1;"  transform=" translate(-12.5, -40.5)" d="M 16 40.5 c 0 1.9 -1.6 3.5 -3.5 3.5 S 9 42.4 9 40.5 s 1.6 -3.5 3.5 -3.5 S 16 38.6 16 40.5 z" stroke-linecap="round" />
</g>
<g transform="matrix(4.17 0 0 4.17 193.75 256.25)" id="surface1"  >
<path style="stroke: none; stroke-width: 1; stroke-dasharray: none; stroke-linecap: butt; stroke-dashoffset: 0; stroke-linejoin: miter; stroke-miterlimit: 4; fill: rgb(139,195,74); fill-rule: nonzero; opacity: 1;"  transform=" translate(-22.5, -37.5)" d="M 27 37.5 c 0 2.5 -2 4.5 -4.5 4.5 S 18 40 18 37.5 s 2 -4.5 4.5 -4.5 S 27 35 27 37.5 z" stroke-linecap="round" />
</g>
<g transform="matrix(4.17 0 0 4.17 222.92 227.08)" id="surface1"  >
<path style="stroke: none; stroke-width: 1; stroke-dasharray: none; stroke-linecap: butt; stroke-dashoffset: 0; stroke-linejoin: miter; stroke-miterlimit: 4; fill: rgb(139,195,74); fill-rule: nonzero; opacity: 1;"  transform=" translate(-29.5, -30.5)" d="M 35 30.5 c 0 3 -2.5 5.5 -5.5 5.5 S 24 33.5 24 30.5 s 2.5 -5.5 5.5 -5.5 S 35 27.5 35 30.5 z" stroke-linecap="round" />
</g>
<g transform="matrix(4.17 0 0 4.17 231.25 185.42)" id="surface1"  >
<path style="stroke: none; stroke-width: 1; stroke-dasharray: none; stroke-linecap: butt; stroke-dashoffset: 0; stroke-linejoin: miter; stroke-miterlimit: 4; fill: rgb(139,195,74); fill-rule: nonzero; opacity: 1;"  transform=" translate(-31.5, -20.5)" d="M 38 20.5 c 0 3.6 -2.9 6.5 -6.5 6.5 S 25 24.1 25 20.5 s 2.9 -6.5 6.5 -6.5 S 38 16.9 38 20.5 z" stroke-linecap="round" />
</g>
<g transform="matrix(4.17 0 0 4.17 133.96 264.58)" id="surface1"  >
<path style="stroke: none; stroke-width: 1; stroke-dasharray: none; stroke-linecap: butt; stroke-dashoffset: 0; stroke-linejoin: miter; stroke-miterlimit: 4; fill: rgb(56,142,60); fill-rule: nonzero; opacity: 1;"  transform=" translate(-8.15, -39.5)" d="M 9 40.5 c 0 -1.1 0.5 -2.1 1.3 -2.7 C 9.9 37.3 9.2 37 8.5 37 C 7.1 37 6 38.1 6 39.5 C 6 40.9 7.1 42 8.5 42 c 0.3 0 0.5 -0.1 0.8 -0.1 C 9.1 41.4 9 41 9 40.5 z" stroke-linecap="round" />
</g>
<g transform="matrix(4.17 0 0 4.17 173.96 266.67)" id="surface1"  >
<path style="stroke: none; stroke-width: 1; stroke-dasharray: none; stroke-linecap: butt; stroke-dashoffset: 0; stroke-linejoin: miter; stroke-miterlimit: 4; fill: rgb(56,142,60); fill-rule: nonzero; opacity: 1;"  transform=" translate(-17.75, -40)" d="M 18 37.5 c 0 -0.5 0.1 -1 0.3 -1.5 c -0.1 0 -0.2 0 -0.3 0 c -2.2 0 -4 1.8 -4 4 s 1.8 4 4 4 c 1.5 0 2.8 -0.9 3.5 -2.1 C 19.5 41.4 18 39.6 18 37.5 z" stroke-linecap="round" />
</g>
<g transform="matrix(4.17 0 0 4.17 208.1 243.3)" id="surface1"  >
<path style="stroke: none; stroke-width: 1; stroke-dasharray: none; stroke-linecap: butt; stroke-dashoffset: 0; stroke-linejoin: miter; stroke-miterlimit: 4; fill: rgb(56,142,60); fill-rule: nonzero; opacity: 1;"  transform=" translate(-25.94, -34.39)" d="M 29.5 36 c -3 0 -5.5 -2.5 -5.5 -5.5 c 0 -0.4 0 -0.7 0.1 -1 c -0.7 0.3 -1.3 0.8 -1.8 1.4 l -0.2 0.2 c -1.5 1.8 -1.5 4.5 0.1 6.4 c 1.8 2.1 4.9 2.4 7 0.6 l 0.2 -0.2 c 0.2 -0.2 0.5 -0.4 0.7 -0.7 c 0.3 -0.4 0.6 -0.9 0.8 -1.3 C 30.4 35.9 30 36 29.5 36 z" stroke-linecap="round" />
</g>
<g transform="matrix(4.17 0 0 4.17 229.17 215.21)" id="surface1"  >
<path style="stroke: none; stroke-width: 1; stroke-dasharray: none; stroke-linecap: butt; stroke-dashoffset: 0; stroke-linejoin: miter; stroke-miterlimit: 4; fill: rgb(56,142,60); fill-rule: nonzero; opacity: 1;"  transform=" translate(-31, -27.65)" d="M 31.5 27 c -2.6 0 -4.8 -1.5 -5.9 -3.7 C 25.2 24.1 25 25 25 26 c 0 3.3 2.7 6 6 6 s 6 -2.7 6 -6 c 0 -0.6 -0.1 -1.2 -0.2 -1.7 C 35.6 25.9 33.7 27 31.5 27 z" stroke-linecap="round" />
</g>
<g transform="matrix(4.17 0 0 4.17 233.33 158.33)" id="surface1"  >
<path style="stroke: none; stroke-width: 1; stroke-dasharray: none; stroke-linecap: butt; stroke-dashoffset: 0; stroke-linejoin: miter; stroke-miterlimit: 4; fill: rgb(56,142,60); fill-rule: nonzero; opacity: 1;"  transform=" translate(-32, -14)" d="M 39 14 c 0 3.9 -3.1 7 -7 7 s -7 -3.1 -7 -7 s 3.1 -7 7 -7 S 39 10.1 39 14 z" stroke-linecap="round" />
</g>
<g transform="matrix(4.17 0 0 4.17 225 154.17)" id="surface1"  >
<path style="stroke: none; stroke-width: 1; stroke-dasharray: none; stroke-linecap: butt; stroke-dashoffset: 0; stroke-linejoin: miter; stroke-miterlimit: 4; fill: rgb(255,235,59); fill-rule: nonzero; opacity: 1;"  transform=" translate(-30, -13)" d="M 32 13 c 0 1.1 -0.9 2 -2 2 s -2 -0.9 -2 -2 s 0.9 -2 2 -2 S 32 11.9 32 13 z" stroke-linecap="round" />
</g>
<g transform="matrix(4.17 0 0 4.17 250 154.17)" id="surface1"  >
<path style="stroke: none; stroke-width: 1; stroke-dasharray: none; stroke-linecap: butt; stroke-dashoffset: 0; stroke-linejoin: miter; stroke-miterlimit: 4; fill: rgb(255,235,59); fill-rule: nonzero; opacity: 1;"  transform=" translate(-36, -13)" d="M 38 13 c 0 1.1 -0.9 2 -2 2 s -2 -0.9 -2 -2 s 0.9 -2 2 -2 S 38 11.9 38 13 z" stroke-linecap="round" />
</g>
<g transform="matrix(4.17 0 0 4.17 245.83 154.17)" id="surface1"  >
<path style="stroke: none; stroke-width: 1; stroke-dasharray: none; stroke-linecap: butt; stroke-dashoffset: 0; stroke-linejoin: miter; stroke-miterlimit: 4; fill: rgb(78,52,46); fill-rule: nonzero; opacity: 1;"  transform=" translate(-35, -13)" d="M 36 13 c 0 0.6 -0.4 1 -1 1 s -1 -0.4 -1 -1 s 0.4 -1 1 -1 S 36 12.4 36 13 z" stroke-linecap="round" />
</g>
<g transform="matrix(4.17 0 0 4.17 220.83 154.17)" id="surface1"  >
<path style="stroke: none; stroke-width: 1; stroke-dasharray: none; stroke-linecap: butt; stroke-dashoffset: 0; stroke-linejoin: miter; stroke-miterlimit: 4; fill: rgb(78,52,46); fill-rule: nonzero; opacity: 1;"  transform=" translate(-29, -13)" d="M 30 13 c 0 0.6 -0.4 1 -1 1 s -1 -0.4 -1 -1 s 0.4 -1 1 -1 S 30 12.4 30 13 z" stroke-linecap="round" />
</g>
<g transform="matrix(4.17 0 0 4.17 265.58 196.25)" id="surface1"  >
<path style="stroke: none; stroke-width: 1; stroke-dasharray: none; stroke-linecap: butt; stroke-dashoffset: 0; stroke-linejoin: miter; stroke-miterlimit: 4; fill: rgb(0,77,64); fill-rule: nonzero; opacity: 1;"  transform=" translate(-39.74, -23.1)" d="M 41.9 23.6 c -0.9 -1.7 -2.8 -2.3 -3.9 -2.5 c -0.1 0.7 -0.2 1.3 -0.5 2 c 0.7 0.1 2.1 0.4 2.6 1.4 c 0.2 0.3 0.5 0.6 0.9 0.6 c 0.2 0 0.3 0 0.4 -0.1 C 41.9 24.6 42.1 24 41.9 23.6 z" stroke-linecap="round" />
</g>
<g transform="matrix(4.17 0 0 4.17 259.71 215.83)" id="surface1"  >
<path style="stroke: none; stroke-width: 1; stroke-dasharray: none; stroke-linecap: butt; stroke-dashoffset: 0; stroke-linejoin: miter; stroke-miterlimit: 4; fill: rgb(0,77,64); fill-rule: nonzero; opacity: 1;"  transform=" translate(-38.33, -27.8)" d="M 39.9 28.7 c -0.6 -1.8 -1.8 -2.8 -3 -3.2 c 0 0.2 0 0.4 0 0.6 c 0 0.6 -0.1 1.1 -0.2 1.6 c 0.5 0.3 1 0.9 1.3 1.7 c 0.1 0.4 0.5 0.7 0.9 0.7 c 0.1 0 0.2 0 0.3 -0.1 C 39.8 29.8 40.1 29.2 39.9 28.7 z" stroke-linecap="round" />
</g>
<g transform="matrix(4.17 0 0 4.17 222.92 127.08)" id="surface1"  >
<path style="stroke: none; stroke-width: 1; stroke-dasharray: none; stroke-linecap: butt; stroke-dashoffset: 0; stroke-linejoin: miter; stroke-miterlimit: 4; fill: rgb(0,77,64); fill-rule: nonzero; opacity: 1;"  transform=" translate(-29.5, -6.5)" d="M 29 9 C 29 9 29 9 29 9 c -0.6 0 -1 -0.4 -1 -1 c 0 -0.2 0 -2.5 1.3 -3.7 c 0.4 -0.4 1 -0.4 1.4 0 s 0.4 1 0 1.4 C 30.1 6.3 30 7.6 30 8 C 30 8.6 29.5 9 29 9 z" stroke-linecap="round" />
</g>
<g transform="matrix(4.17 0 0 4.17 243.75 127.08)" id="surface1"  >
<path style="stroke: none; stroke-width: 1; stroke-dasharray: none; stroke-linecap: butt; stroke-dashoffset: 0; stroke-linejoin: miter; stroke-miterlimit: 4; fill: rgb(0,77,64); fill-rule: nonzero; opacity: 1;"  transform=" translate(-34.5, -6.5)" d="M 34 9 C 34 9 34 9 34 9 c -0.6 0 -1 -0.4 -1 -1 c 0 -0.2 0 -2.5 1.3 -3.7 c 0.4 -0.4 1 -0.4 1.4 0 s 0.4 1 0 1.4 C 35.1 6.3 35 7.6 35 8 C 35 8.6 34.5 9 34 9 z" stroke-linecap="round" />
</g>
<g transform="matrix(4.17 0 0 4.17 195.92 189.09)" id="surface1"  >
<path style="stroke: none; stroke-width: 1; stroke-dasharray: none; stroke-linecap: butt; stroke-dashoffset: 0; stroke-linejoin: miter; stroke-miterlimit: 4; fill: rgb(0,77,64); fill-rule: nonzero; opacity: 1;"  transform=" translate(-23.02, -21.38)" d="M 21 23 c -0.3 0 -0.5 -0.1 -0.7 -0.3 c -0.4 -0.4 -0.4 -1 0 -1.4 c 2.5 -2.5 5 -1.2 5.2 -1.2 c 0.5 0.2 0.7 0.8 0.4 1.3 c -0.2 0.5 -0.8 0.7 -1.3 0.5 c -0.2 -0.1 -1.5 -0.6 -2.9 0.8 C 21.5 22.9 21.3 23 21 23 z" stroke-linecap="round" />
</g>
<g transform="matrix(4.17 0 0 4.17 195.92 209.92)" id="surface1"  >
<path style="stroke: none; stroke-width: 1; stroke-dasharray: none; stroke-linecap: butt; stroke-dashoffset: 0; stroke-linejoin: miter; stroke-miterlimit: 4; fill: rgb(0,77,64); fill-rule: nonzero; opacity: 1;"  transform=" translate(-23.02, -26.38)" d="M 21 28 c -0.3 0 -0.5 -0.1 -0.7 -0.3 c -0.4 -0.4 -0.4 -1 0 -1.4 c 2.5 -2.5 5 -1.2 5.2 -1.2 c 0.5 0.2 0.7 0.8 0.4 1.3 c -0.2 0.5 -0.8 0.7 -1.3 0.5 c -0.2 -0.1 -1.5 -0.6 -2.9 0.8 C 21.5 27.9 21.3 28 21 28 z" stroke-linecap="round" />
</g>
<g transform="matrix(4.17 0 0 4.17 233.15 172.81)" id="surface1"  >
<path style="stroke: none; stroke-width: 1; stroke-dasharray: none; stroke-linecap: butt; stroke-dashoffset: 0; stroke-linejoin: miter; stroke-miterlimit: 4; fill: rgb(0,77,64); fill-rule: nonzero; opacity: 1;"  transform=" translate(-31.96, -17.48)" d="M 34 16 c 0 0 -3 0 -3.6 0.4 c -0.7 0.5 -0.6 1.5 0 2.1 s 1.5 0.6 2.1 0 S 34 16 34 16 z" stroke-linecap="round" />
</g>
</svg>