<?xml version="1.0" encoding="UTF-8" standalone="no" ?>
<!DOCTYPE svg PUBLIC "-//W3C//DTD SVG 1.1//EN" "http://www.w3.org/Graphics/SVG/1.1/DTD/svg11.dtd">
<svg xmlns="http://www.w3.org/2000/svg" xmlns:xlink="http://www.w3.org/1999/xlink" version="1.1" width="400" height="400" viewBox="0 0 400 400" xml:space="preserve">
<desc>Created with Fabric.js 3.6.2</desc>
<defs>
</defs>
<g transform="matrix(2.67 -3.2 3.2 2.67 202.07 137.5)" id="surface1"  >
<rect style="stroke: none; stroke-width: 1; stroke-dasharray: none; stroke-linecap: butt; stroke-dashoffset: 0; stroke-linejoin: miter; stroke-miterlimit: 4; fill: rgb(121,85,72); fill-rule: nonzero; opacity: 1;"  x="-3.9" y="-1" rx="0" ry="0" width="7.8" height="2" />
</g>
<g transform="matrix(3.39 -2.42 2.42 3.39 168.74 139.59)" id="surface1"  >
<rect style="stroke: none; stroke-width: 1; stroke-dasharray: none; stroke-linecap: butt; stroke-dashoffset: 0; stroke-linejoin: miter; stroke-miterlimit: 4; fill: rgb(121,85,72); fill-rule: nonzero; opacity: 1;"  x="-1" y="-4.3" rx="0" ry="0" width="2" height="8.6" />
</g>
<g transform="matrix(4.17 0 0 4.17 166.01 208.33)" id="surface1"  >
<path style="stroke: none; stroke-width: 1; stroke-dasharray: none; stroke-linecap: butt; stroke-dashoffset: 0; stroke-linejoin: miter; stroke-miterlimit: 4; fill: rgb(121,85,72); fill-rule: nonzero; opacity: 1;"  transform=" translate(-15.84, -26)" d="M 24 13.9 L 24 13.9 c -0.3 -1.6 -1.7 -2.9 -3.5 -2.9 c -1.9 0 -3.5 1.6 -3.5 3.5 c 0 0.2 0 0.4 0.1 0.6 v 0 c 0 0 0 0.1 0 0.1 C 19 29 17 32.9 12.7 34 c -7.7 2 -7 5 -7 5 s 0 2 2 2 s 6.3 0 6.3 0 s 12 0 12 -12 C 26 22 25 20.9 24 13.9 z" stroke-linecap="round" />
</g>
<g transform="matrix(4.17 0 0 4.17 168.13 212.55)" id="surface1"  >
<path style="stroke: none; stroke-width: 1; stroke-dasharray: none; stroke-linecap: butt; stroke-dashoffset: 0; stroke-linejoin: miter; stroke-miterlimit: 4; fill: rgb(188,170,164); fill-rule: nonzero; opacity: 1;"  transform=" translate(-16.35, -27.01)" d="M 24 14.3 c -0.3 -0.7 -1 -1.3 -2 -1.3 c -1.1 0 -2 0.9 -2 2 c 0 0.3 3.5 13 1 18 c -3 6 -8 6 -10 6 c -1.5 0 0.4 0 -5.3 0 v 0 c 0 0 0 2 2 2 s 6.3 0 6.3 0 s 13 1 13 -10 C 27 24.1 25 22 24 14.3 z" stroke-linecap="round" />
</g>
<g transform="matrix(4.17 0 0 4.17 240.86 237.68)" id="surface1"  >
<path style="stroke: none; stroke-width: 1; stroke-dasharray: none; stroke-linecap: butt; stroke-dashoffset: 0; stroke-linejoin: miter; stroke-miterlimit: 4; fill: rgb(139,195,74); fill-rule: nonzero; opacity: 1;"  transform=" translate(-33.81, -33.04)" d="M 31 41 c -0.3 0 -0.6 -0.1 -0.8 -0.4 c -0.3 -0.4 -0.2 -1.1 0.2 -1.4 c 0.3 -0.2 6.4 -4.9 5.1 -13 c -0.1 -0.5 0.3 -1.1 0.8 -1.1 c 0.6 -0.1 1.1 0.3 1.1 0.8 c 1.4 9.4 -5.6 14.7 -5.9 15 C 31.4 40.9 31.2 41 31 41 z" stroke-linecap="round" />
</g>
<g transform="matrix(4.17 0 0 4.17 248.14 206.41)" id="surface1"  >
<path style="stroke: none; stroke-width: 1; stroke-dasharray: none; stroke-linecap: butt; stroke-dashoffset: 0; stroke-linejoin: miter; stroke-miterlimit: 4; fill: rgb(139,195,74); fill-rule: nonzero; opacity: 1;"  transform=" translate(-35.55, -25.54)" d="M 37.1 17 c -0.3 0.9 -1.2 1.9 -2.4 2.9 c 0.2 0.3 0.4 0.7 0.4 1.1 c 0 1.1 -0.9 2 -2 2 c -0.2 0 -0.4 0 -0.6 -0.1 c 0.4 0.4 0.6 1 0.6 1.6 c 0 1.4 -1.1 2.5 -2.5 2.5 c -0.8 0 -1.5 -0.4 -1.9 -0.9 c -0.3 0.7 -0.5 1.3 -0.6 2.1 c -0.2 3.6 2 5.9 6.9 4.6 c 2.9 2.7 7.2 0.8 7.9 -2.8 C 43.9 24.9 38.3 18.5 37.1 17 z" stroke-linecap="round" />
</g>
<g transform="matrix(4.17 0 0 4.17 236.3 204.51)" id="surface1"  >
<path style="stroke: none; stroke-width: 1; stroke-dasharray: none; stroke-linecap: butt; stroke-dashoffset: 0; stroke-linejoin: miter; stroke-miterlimit: 4; fill: rgb(104,159,56); fill-rule: nonzero; opacity: 1;"  transform=" translate(-32.71, -25.08)" d="M 37.1 17 C 37.1 17 37.1 17 37.1 17 c -0.3 0.9 -1.2 1.9 -2.4 2.9 c 0.2 0.3 0.4 0.7 0.4 1.1 c 0 1.1 -0.9 2 -2 2 c -0.2 0 -0.4 0 -0.6 -0.1 c 0.4 0.4 0.6 1 0.6 1.6 c 0 1.4 -1.1 2.5 -2.5 2.5 c -0.8 0 -1.5 -0.4 -1.9 -0.9 c -0.3 0.7 -0.5 1.3 -0.6 2.1 c -0.2 3.6 2 5.9 6.9 4.6 c 0 0 0 0 0 0 C 37.7 24 37.5 19.3 37.1 17 z" stroke-linecap="round" />
</g>
<g transform="matrix(4.17 0 0 4.17 208.33 129.17)" id="surface1"  >
<path style="stroke: none; stroke-width: 1; stroke-dasharray: none; stroke-linecap: butt; stroke-dashoffset: 0; stroke-linejoin: miter; stroke-miterlimit: 4; fill: rgb(93,64,55); fill-rule: nonzero; opacity: 1;"  transform=" translate(-26, -7)" d="M 28 7 c 0 1.1 -0.9 2 -2 2 s -2 -0.9 -2 -2 c 0 -1.1 0.9 -2 2 -2 S 28 5.9 28 7 z" stroke-linecap="round" />
</g>
<g transform="matrix(4.17 0 0 4.17 162.5 129.17)" id="surface1"  >
<path style="stroke: none; stroke-width: 1; stroke-dasharray: none; stroke-linecap: butt; stroke-dashoffset: 0; stroke-linejoin: miter; stroke-miterlimit: 4; fill: rgb(93,64,55); fill-rule: nonzero; opacity: 1;"  transform=" translate(-15, -7)" d="M 17 7 c 0 1.1 -0.9 2 -2 2 s -2 -0.9 -2 -2 c 0 -1.1 0.9 -2 2 -2 S 17 5.9 17 7 z" stroke-linecap="round" />
</g>
</svg>