<?xml version="1.0" encoding="UTF-8" standalone="no" ?>
<!DOCTYPE svg PUBLIC "-//W3C//DTD SVG 1.1//EN" "http://www.w3.org/Graphics/SVG/1.1/DTD/svg11.dtd">
<svg xmlns="http://www.w3.org/2000/svg" xmlns:xlink="http://www.w3.org/1999/xlink" version="1.1" width="400" height="400" viewBox="0 0 400 400" xml:space="preserve">
<desc>Created with Fabric.js 3.6.2</desc>
<defs>
</defs>
<g transform="matrix(4.17 0 0 4.17 210.42 141.67)" id="Layer_1"  >
<polygon style="stroke: none; stroke-width: 1; stroke-dasharray: none; stroke-linecap: butt; stroke-dashoffset: 0; stroke-linejoin: miter; stroke-miterlimit: 4; fill: rgb(255,196,0); fill-rule: nonzero; opacity: 1;"  points="-2.5,-7 -7.5,2 -2.5,2 -5.5,7 -1.5,7 5.5,1 1.5,1 7.5,-7 " />
</g>
<g transform="matrix(4.17 0 0 4.17 210.42 131.25)" id="Layer_1"  >
<polygon style="stroke: none; stroke-width: 1; stroke-dasharray: none; stroke-linecap: butt; stroke-dashoffset: 0; stroke-linejoin: miter; stroke-miterlimit: 4; fill: rgb(255,214,0); fill-rule: nonzero; opacity: 1;"  points="-1.5,-2.5 6,-2.5 7.5,-4.5 -2.5,-4.5 -7.5,4.5 -5.39,4.5 " />
</g>
<g transform="matrix(4.17 0 0 4.17 200 225)" id="Layer_1"  >
<path style="stroke: none; stroke-width: 1; stroke-dasharray: none; stroke-linecap: butt; stroke-dashoffset: 0; stroke-linejoin: miter; stroke-miterlimit: 4; fill: rgb(255,234,0); fill-rule: nonzero; opacity: 1;"  transform=" translate(-24, -30)" d="M 24 16 c -9.417 0 -17 8.374 -17 15.307 C 7 38.306 14.626 44 24 44 s 17 -5.694 17 -12.693 C 41 24.374 33.417 16 24 16 z" stroke-linecap="round" />
</g>
<g transform="matrix(4.17 0 0 4.17 264.58 162.5)" id="Layer_1"  >
<path style="stroke: none; stroke-width: 1; stroke-dasharray: none; stroke-linecap: butt; stroke-dashoffset: 0; stroke-linejoin: miter; stroke-miterlimit: 4; fill: rgb(255,234,0); fill-rule: nonzero; opacity: 1;"  transform=" translate(-39.5, -15)" d="M 33 22 c 0 0 0.071 -13.608 13 -16 c 0 14.657 -9 18 -9 18 L 33 22 z" stroke-linecap="round" />
</g>
<g transform="matrix(4.17 0 0 4.17 268.74 162.5)" id="Layer_1"  >
<path style="stroke: none; stroke-width: 1; stroke-dasharray: none; stroke-linecap: butt; stroke-dashoffset: 0; stroke-linejoin: miter; stroke-miterlimit: 4; fill: rgb(255,214,0); fill-rule: nonzero; opacity: 1;"  transform=" translate(-40.5, -15)" d="M 35 24 c 0 0 -0.489 -14.294 11 -18 c 0 14.657 -9 18 -9 18 H 35 z" stroke-linecap="round" />
</g>
<g transform="matrix(4.17 0 0 4.17 277.21 143.49)" id="Layer_1"  >
<path style="stroke: none; stroke-width: 1; stroke-dasharray: none; stroke-linecap: butt; stroke-dashoffset: 0; stroke-linejoin: miter; stroke-miterlimit: 4; fill: rgb(93,64,55); fill-rule: nonzero; opacity: 1;"  transform=" translate(-42.53, -10.44)" d="M 39.061 9.057 c 0.43 3.833 3.191 5.399 5.573 5.816 C 45.454 12.519 46 9.603 46 6 C 43.078 6.541 40.817 7.657 39.061 9.057 z" stroke-linecap="round" />
</g>
<g transform="matrix(4.17 0 0 4.17 135.42 162.5)" id="Layer_1"  >
<path style="stroke: none; stroke-width: 1; stroke-dasharray: none; stroke-linecap: butt; stroke-dashoffset: 0; stroke-linejoin: miter; stroke-miterlimit: 4; fill: rgb(255,234,0); fill-rule: nonzero; opacity: 1;"  transform=" translate(-8.5, -15)" d="M 15 22 c 0 0 -0.071 -13.608 -13 -16 c 0 14.657 9 18 9 18 L 15 22 z" stroke-linecap="round" />
</g>
<g transform="matrix(4.17 0 0 4.17 131.26 162.5)" id="Layer_1"  >
<path style="stroke: none; stroke-width: 1; stroke-dasharray: none; stroke-linecap: butt; stroke-dashoffset: 0; stroke-linejoin: miter; stroke-miterlimit: 4; fill: rgb(255,214,0); fill-rule: nonzero; opacity: 1;"  transform=" translate(-7.5, -15)" d="M 13 24 c 0 0 0.489 -14.294 -11 -18 c 0 14.657 9 18 9 18 H 13 z" stroke-linecap="round" />
</g>
<g transform="matrix(4.17 0 0 4.17 122.79 143.49)" id="Layer_1"  >
<path style="stroke: none; stroke-width: 1; stroke-dasharray: none; stroke-linecap: butt; stroke-dashoffset: 0; stroke-linejoin: miter; stroke-miterlimit: 4; fill: rgb(93,64,55); fill-rule: nonzero; opacity: 1;"  transform=" translate(-5.47, -10.44)" d="M 8.939 9.057 c -0.43 3.833 -3.191 5.399 -5.573 5.816 C 2.546 12.519 2 9.603 2 6 C 4.922 6.541 7.183 7.657 8.939 9.057 z" stroke-linecap="round" />
</g>
<g transform="matrix(4.17 0 0 4.17 199.77 231.1)" id="Layer_1"  >
<path style="stroke: none; stroke-width: 1; stroke-dasharray: none; stroke-linecap: butt; stroke-dashoffset: 0; stroke-linejoin: miter; stroke-miterlimit: 4; fill: rgb(255,214,0); fill-rule: nonzero; opacity: 1;"  transform=" translate(-23.95, -31.46)" d="M 36 21 c -0.319 -0.274 0.345 1.784 -0.005 1.532 c -3.077 -2.218 -7.321 -3.576 -11.995 -3.597 V 18.93 c -0.018 0 -0.036 0.002 -0.055 0.002 c -0.018 0 -0.036 -0.002 -0.055 -0.002 v 0.004 c -4.674 0.021 -8.917 1.38 -11.995 3.597 c -0.35 0.252 0.314 -1.805 -0.005 -1.532 c -2.495 2.142 -5 6.103 -5 10.307 c 0 6.999 7.626 12.693 17 12.693 H 24 c 9.374 0 17 -5.694 17 -12.693 C 41 27.103 38.495 23.142 36 21 z" stroke-linecap="round" />
</g>
<g transform="matrix(4.17 0 0 4.17 166.67 208.33)" id="Layer_1"  >
<circle style="stroke: none; stroke-width: 1; stroke-dasharray: none; stroke-linecap: butt; stroke-dashoffset: 0; stroke-linejoin: miter; stroke-miterlimit: 4; fill: rgb(93,64,55); fill-rule: nonzero; opacity: 1;"  cx="0" cy="0" r="3" />
</g>
<g transform="matrix(4.17 0 0 4.17 162.5 204.17)" id="Layer_1"  >
<circle style="stroke: none; stroke-width: 1; stroke-dasharray: none; stroke-linecap: butt; stroke-dashoffset: 0; stroke-linejoin: miter; stroke-miterlimit: 4; fill: rgb(255,255,255); fill-rule: nonzero; opacity: 1;"  cx="0" cy="0" r="1" />
</g>
<g transform="matrix(4.17 0 0 4.17 233.33 208.33)" id="Layer_1"  >
<circle style="stroke: none; stroke-width: 1; stroke-dasharray: none; stroke-linecap: butt; stroke-dashoffset: 0; stroke-linejoin: miter; stroke-miterlimit: 4; fill: rgb(93,64,55); fill-rule: nonzero; opacity: 1;"  cx="0" cy="0" r="3" />
</g>
<g transform="matrix(4.17 0 0 4.17 229.17 204.17)" id="Layer_1"  >
<circle style="stroke: none; stroke-width: 1; stroke-dasharray: none; stroke-linecap: butt; stroke-dashoffset: 0; stroke-linejoin: miter; stroke-miterlimit: 4; fill: rgb(255,255,255); fill-rule: nonzero; opacity: 1;"  cx="0" cy="0" r="1" />
</g>
<g transform="matrix(4.17 0 0 4.17 208.33 229.17)" id="Layer_1"  >
<path style="stroke: rgb(93,64,55); stroke-width: 2; stroke-dasharray: none; stroke-linecap: round; stroke-dashoffset: 0; stroke-linejoin: round; stroke-miterlimit: 10; fill: none; fill-rule: nonzero; opacity: 1;"  transform=" translate(-26, -31)" d="M 28 30 c 0 1.1 -0.9 2 -2 2 h 0 c -1.1 0 -2 -0.9 -2 -2" stroke-linecap="round" />
</g>
<g transform="matrix(4.17 0 0 4.17 191.67 229.17)" id="Layer_1"  >
<path style="stroke: rgb(93,64,55); stroke-width: 2; stroke-dasharray: none; stroke-linecap: round; stroke-dashoffset: 0; stroke-linejoin: round; stroke-miterlimit: 10; fill: none; fill-rule: nonzero; opacity: 1;"  transform=" translate(-22, -31)" d="M 24 30 c 0 1.1 -0.9 2 -2 2 h 0 c -1.1 0 -2 -0.9 -2 -2" stroke-linecap="round" />
</g>
<g transform="matrix(4.17 0 0 4.17 200 220.83)" id="Layer_1"  >
<polygon style="stroke: none; stroke-width: 1; stroke-dasharray: none; stroke-linecap: butt; stroke-dashoffset: 0; stroke-linejoin: miter; stroke-miterlimit: 4; fill: rgb(93,64,55); fill-rule: nonzero; opacity: 1;"  points="-2,-1 2,-1 2,0 1,1 -1,1 -2,0 " />
</g>
<g transform="matrix(4.17 0 0 4.17 154.17 233.33)" id="Layer_1"  >
<circle style="stroke: none; stroke-width: 1; stroke-dasharray: none; stroke-linecap: butt; stroke-dashoffset: 0; stroke-linejoin: miter; stroke-miterlimit: 4; fill: rgb(255,61,0); fill-rule: nonzero; opacity: 1;"  cx="0" cy="0" r="2" />
</g>
<g transform="matrix(4.17 0 0 4.17 245.83 233.33)" id="Layer_1"  >
<circle style="stroke: none; stroke-width: 1; stroke-dasharray: none; stroke-linecap: butt; stroke-dashoffset: 0; stroke-linejoin: miter; stroke-miterlimit: 4; fill: rgb(255,61,0); fill-rule: nonzero; opacity: 1;"  cx="0" cy="0" r="2" />
</g>
</svg>