<?xml version="1.0" encoding="UTF-8" standalone="no" ?>
<!DOCTYPE svg PUBLIC "-//W3C//DTD SVG 1.1//EN" "http://www.w3.org/Graphics/SVG/1.1/DTD/svg11.dtd">
<svg xmlns="http://www.w3.org/2000/svg" xmlns:xlink="http://www.w3.org/1999/xlink" version="1.1" width="400" height="400" viewBox="0 0 400 400" xml:space="preserve">
<desc>Created with Fabric.js 3.6.2</desc>
<defs>
</defs>
<g transform="matrix(1.33 0 0 1.33 262.27 199.42)" id="ART"  >
<path style="stroke: rgb(0,0,0); stroke-width: 3; stroke-dasharray: none; stroke-linecap: butt; stroke-dashoffset: 0; stroke-linejoin: miter; stroke-miterlimit: 10; fill: rgb(38,28,26); fill-rule: nonzero; opacity: 1;"  transform=" translate(-121.7, -74.56)" d="M 103.95 77.5 a 6.06 6.06 0 0 1 2.8 1 c 16.72 10.75 29.41 0.47 35.62 -5.27 C 134.8 71.08 121 60.6 107.63 69.39 C 97.42 76.11 101.47 77.31 103.95 77.5 Z" stroke-linecap="round" />
</g>
<g transform="matrix(1.33 0 0 1.33 137.74 199.42)" id="ART"  >
<path style="stroke: rgb(0,0,0); stroke-width: 3; stroke-dasharray: none; stroke-linecap: butt; stroke-dashoffset: 0; stroke-linejoin: miter; stroke-miterlimit: 10; fill: rgb(38,28,26); fill-rule: nonzero; opacity: 1;"  transform=" translate(-28.3, -74.57)" d="M 46.05 77.5 a 6.06 6.06 0 0 0 -2.8 1 C 26.54 89.25 13.85 79 7.64 73.23 C 15.2 71.08 29 60.6 42.37 69.39 C 52.58 76.11 48.53 77.31 46.05 77.5 Z" stroke-linecap="round" />
</g>
<g transform="matrix(1.33 0 0 1.33 240.66 155.73)" id="ART"  >
<path style="stroke: rgb(0,0,0); stroke-width: 1.98; stroke-dasharray: none; stroke-linecap: butt; stroke-dashoffset: 0; stroke-linejoin: miter; stroke-miterlimit: 10; fill: rgb(252,238,187); fill-rule: nonzero; opacity: 1;"  transform=" translate(-105.49, -41.79)" d="M 113.94 15 c 12.36 5.56 23.69 40.07 0 50.9 s -30.75 -14.39 -30.73 -17 C 95.15 55.16 126.84 54 113.94 15 Z" stroke-linecap="round" />
</g>
<g transform="matrix(1.33 0 0 1.33 159.34 155.73)" id="ART"  >
<path style="stroke: rgb(0,0,0); stroke-width: 1.98; stroke-dasharray: none; stroke-linecap: butt; stroke-dashoffset: 0; stroke-linejoin: miter; stroke-miterlimit: 10; fill: rgb(252,238,187); fill-rule: nonzero; opacity: 1;"  transform=" translate(-44.51, -41.79)" d="M 36.06 15 c -12.36 5.56 -23.69 40.07 0 50.9 s 30.75 -14.39 30.73 -17 C 54.85 55.16 23.16 54 36.06 15 Z" stroke-linecap="round" />
</g>
<g transform="matrix(1.33 0 0 1.33 200.01 216.9)" id="ART"  >
<path style="stroke: rgb(0,0,0); stroke-width: 4; stroke-dasharray: none; stroke-linecap: butt; stroke-dashoffset: 0; stroke-linejoin: miter; stroke-miterlimit: 10; fill: rgb(38,28,26); fill-rule: nonzero; opacity: 1;"  transform=" translate(-75.01, -87.68)" d="M 115.46 74.3 c 0 12.54 -13.09 19.06 -13.09 24.16 c 0 20.23 -0.08 29.8 -12.34 33.18 a 3.24 3.24 0 0 1 -3.24 3.16 H 63.22 A 3.24 3.24 0 0 1 60 131.64 c -12.26 -3.38 -12.34 -12.95 -12.34 -33.18 c 0 -5.1 -13.1 -11.62 -13.1 -24.16 c 0 -29.23 18.12 -33.75 40.46 -33.75 S 115.46 45.07 115.46 74.3 Z" stroke-linecap="round" />
</g>
<g transform="matrix(1.33 0 0 1.33 200 252.68)" id="ART"  >
<path style="stroke: rgb(0,0,0); stroke-width: 4; stroke-dasharray: none; stroke-linecap: butt; stroke-dashoffset: 0; stroke-linejoin: miter; stroke-miterlimit: 10; fill: rgb(63,52,50); fill-rule: nonzero; opacity: 1;"  transform=" translate(-75, -114.51)" d="M 94.85 114.51 c 0 7.59 -4.39 12.46 -8.8 12.46 s -7 -2.69 -10.08 -2.69 c -3.38 0 -6.26 2.69 -11.11 2.69 s -9.71 -4.86 -9.71 -12.46 s 7 -12.46 11.3 -12.46 s 2.81 2.17 9.52 2.17 c 6.08 0 4.69 -2.17 8.63 -2.17 S 94.85 106.91 94.85 114.51 Z" stroke-linecap="round" />
</g>
<g transform="matrix(1.33 0 0 1.33 225.41 199.41)" id="ART"  >
<path style="stroke: rgb(0,0,0); stroke-width: 2; stroke-dasharray: none; stroke-linecap: butt; stroke-dashoffset: 0; stroke-linejoin: miter; stroke-miterlimit: 10; fill: rgb(255,255,255); fill-rule: nonzero; opacity: 1;"  transform=" translate(-94.05, -74.56)" d="M 102.36 71.59 c 0 3.92 -5.6 9.52 -9.52 9.52 A 7.09 7.09 0 0 1 85.75 74 c 0 -2.26 3.53 -4.54 5.89 -5.25 C 96.2 67.39 102.36 67.68 102.36 71.59 Z" stroke-linecap="round" />
</g>
<g transform="matrix(1.33 0 0 1.33 223.04 196.93)" id="ART"  >
<circle style="stroke: none; stroke-width: 1; stroke-dasharray: none; stroke-linecap: butt; stroke-dashoffset: 0; stroke-linejoin: miter; stroke-miterlimit: 4; fill: rgb(0,0,0); fill-rule: nonzero; opacity: 1;"  cx="0" cy="0" r="3.97" />
</g>
<g transform="matrix(1.33 0 0 1.33 173.75 199.41)" id="ART"  >
<path style="stroke: rgb(0,0,0); stroke-width: 2; stroke-dasharray: none; stroke-linecap: butt; stroke-dashoffset: 0; stroke-linejoin: miter; stroke-miterlimit: 10; fill: rgb(255,255,255); fill-rule: nonzero; opacity: 1;"  transform=" translate(-55.31, -74.56)" d="M 47.62 71.59 c 0 3.92 5.18 9.52 8.81 9.52 A 6.84 6.84 0 0 0 63 74 c 0 -2.26 -3.27 -4.54 -5.45 -5.25 C 53.32 67.39 47.62 67.68 47.62 71.59 Z" stroke-linecap="round" />
</g>
<g transform="matrix(1.33 0 0 1.33 175.92 196.93)" id="ART"  >
<ellipse style="stroke: none; stroke-width: 1; stroke-dasharray: none; stroke-linecap: butt; stroke-dashoffset: 0; stroke-linejoin: miter; stroke-miterlimit: 4; fill: rgb(0,0,0); fill-rule: nonzero; opacity: 1;"  cx="0" cy="0" rx="3.67" ry="3.97" />
</g>
<g transform="matrix(1.33 0 0 1.33 187.67 254.96)" id="ART"  >
<ellipse style="stroke: none; stroke-width: 1; stroke-dasharray: none; stroke-linecap: butt; stroke-dashoffset: 0; stroke-linejoin: miter; stroke-miterlimit: 4; fill: rgb(25,14,12); fill-rule: nonzero; opacity: 1;"  cx="0" cy="0" rx="2.88" ry="1.71" />
</g>
<g transform="matrix(1.33 0 0 1.33 212.32 254.96)" id="ART"  >
<ellipse style="stroke: none; stroke-width: 1; stroke-dasharray: none; stroke-linecap: butt; stroke-dashoffset: 0; stroke-linejoin: miter; stroke-miterlimit: 4; fill: rgb(25,14,12); fill-rule: nonzero; opacity: 1;"  cx="0" cy="0" rx="2.88" ry="1.71" />
</g>
</svg>