<?xml version="1.0" encoding="UTF-8" standalone="no" ?>
<!DOCTYPE svg PUBLIC "-//W3C//DTD SVG 1.1//EN" "http://www.w3.org/Graphics/SVG/1.1/DTD/svg11.dtd">
<svg xmlns="http://www.w3.org/2000/svg" xmlns:xlink="http://www.w3.org/1999/xlink" version="1.1" width="400" height="400" viewBox="0 0 400 400" xml:space="preserve">
<desc>Created with Fabric.js 3.6.2</desc>
<defs>
</defs>
<g transform="matrix(6.67 0 0 6.67 200.54 199.3)" id="Layer_1"  >
<path style="stroke: none; stroke-width: 1; stroke-dasharray: none; stroke-linecap: butt; stroke-dashoffset: 0; stroke-linejoin: miter; stroke-miterlimit: 4; fill: rgb(240,196,25); fill-rule: nonzero; opacity: 1;"  transform=" translate(-15.08, -14.89)" d="M 9.041 4.078 l -0.5 1.7 c 0 0 -0.667 -0.552 -2.458 0.541 c 0 0 -0.333 1.384 1.958 1.801 c 0 0 -2.292 9.667 3.083 12.5 c 0 0 -0.375 1.708 0.75 1.958 l -0.708 3.542 L 8.97 25.912 c 0 0 -0.941 0.542 0.711 0.917 l 0.541 0.292 l -0.541 0.667 c 0 0 -0.239 1.333 1.082 0.167 l 0.945 -0.917 h 1.417 c 0 0 1.792 -0.458 0.208 -1.042 l -1.042 -0.042 l 0.583 -2.792 l 1.112 -1.167 h 1.597 l 0.708 1.333 l 0.292 0.583 l -0.25 2.5 l -0.208 0.458 l -1.031 -0.208 l -0.547 0.328 l 0.047 0.484 l 0.594 0.406 l 0.25 0.266 l -0.266 0.625 l 0.047 0.531 c 0 0 0.594 -0.016 0.625 -0.078 s 0.813 -1.109 0.813 -1.109 l 1.359 -0.547 l 1.141 -0.328 l -0.781 -0.563 l -0.594 0.094 l -0.359 0.031 l 0.125 -2.469 l 0.078 -0.703 c 0 0 1.906 -1.031 1.25 -2.156 c 0 0 3.719 -0.484 4.453 -3.203 l -0.547 -0.203 l 0.547 -0.719 c 0 0 1.313 -3.469 0.5 -4.406 l -1.5 0.531 l -1.047 0.25 l -1.313 -0.375 l -4.609 -1.594 c 0 0 -0.969 -6.016 -2.453 -7.203 c 0 0 2.578 -1.469 0.844 -2.641 c 0 0 -1.125 -0.297 -1.453 0.359 c 0 0 0 -2.625 -2.156 -1.5 L 9.681 1.802 c 0 0 -2.119 -1.422 -2.432 -0.156 C 7.249 1.646 6.598 3.557 9.041 4.078 z" stroke-linecap="round" />
</g>
<g transform="matrix(6.67 0 0 6.67 200 199.99)" id="Layer_1"  >
<path style="stroke: none; stroke-width: 1; stroke-dasharray: none; stroke-linecap: butt; stroke-dashoffset: 0; stroke-linejoin: miter; stroke-miterlimit: 4; fill: rgb(0,0,0); fill-rule: nonzero; opacity: 1;"  transform=" translate(-15, -15)" d="M 23.278 17.88 c 1.237 -1.546 0.995 -3.691 0.984 -3.767 c -0.015 -1 -0.177 -1.487 -0.544 -1.628 c -0.252 -0.101 -0.497 0.026 -0.604 0.143 c -0.657 0.596 -1.459 0.691 -1.918 0.691 c -0.228 0 -0.369 -0.026 -0.369 -0.021 c -2.011 -0.871 -4.284 -1.569 -5 -1.781 c -0.324 -2.656 -2.029 -6.196 -2.123 -6.383 l -0.213 -0.337 c 0.542 -0.274 0.912 -0.633 1.1 -1.069 c 0.266 -0.615 0.064 -1.14 0.05 -1.171 c -0.186 -0.58 -0.5 -0.939 -0.933 -1.067 c -0.353 -0.106 -0.705 -0.028 -0.987 0.088 c -0.11 -1.023 -0.861 -1.264 -0.871 -1.266 c -0.647 -0.272 -1.203 -0.274 -1.656 -0.01 C 9.801 0.535 9.582 0.922 9.462 1.24 c -0.79 -0.48 -1.438 -0.603 -1.933 -0.364 C 6.823 1.22 6.774 2.14 6.772 2.194 c 0 1.284 0.987 1.931 1.78 2.183 c -0.146 0.306 -0.281 0.67 -0.369 0.926 C 6.446 5.417 5.79 6.477 5.761 6.523 C 5.7 6.626 5.695 6.751 5.747 6.857 c 0.362 0.739 1.314 1.209 1.795 1.407 c -0.228 1.556 -0.316 5.159 -0.319 5.313 c -0.134 2.728 0.859 4.26 1.056 4.536 c 0.546 1.319 1.991 2.457 2.504 2.831 c -0.101 0.979 0.331 1.588 0.712 1.877 l -0.56 2.832 c -0.49 -0.031 -1.347 -0.076 -1.633 -0.035 c -0.319 0.046 -0.983 0.14 -1 0.628 c -0.02 0.577 1.008 0.813 1.086 0.83 c 0.178 0.037 0.304 0.069 0.389 0.09 c -0.024 0.03 -0.047 0.059 -0.065 0.081 c -0.12 0.149 -0.189 0.238 -0.227 0.34 c -0.087 0.236 -0.351 0.956 0.162 1.208 c 0.079 0.039 0.165 0.056 0.254 0.056 c 0.461 0 1.004 -0.451 1.112 -0.621 c 0.682 -1.083 1.217 -0.988 1.395 -0.958 c 1.307 0.228 1.689 -0.19 1.805 -0.468 c 0.041 -0.096 0.136 -0.32 0.013 -0.563 c -0.138 -0.271 -0.453 -0.374 -0.678 -0.428 c -0.143 -0.033 -0.499 -0.078 -0.78 -0.11 l 0.49 -2.573 c 0.452 -0.19 0.743 -0.584 0.89 -0.833 l 1.384 0.042 c 0.068 0.884 0.494 1.362 0.759 1.577 l -0.174 1.714 l -0.121 0.893 c -0.193 -0.021 -0.426 -0.052 -0.623 -0.037 c -1.002 0.012 -1.167 0.463 -1.177 0.73 c -0.015 0.444 0.441 0.935 0.78 0.962 c 0.025 0.002 0.046 0.005 0.065 0.008 c -0.028 0.049 -0.06 0.1 -0.082 0.136 c -0.1 0.162 -0.157 0.26 -0.181 0.364 c -0.056 0.246 -0.225 0.994 0.316 1.178 c 0.057 0.02 0.116 0.028 0.176 0.028 c 0.481 0 1.016 -0.571 1.105 -0.764 c 0.539 -1.163 1.081 -1.139 1.262 -1.131 c 1.322 0.065 1.649 -0.405 1.729 -0.695 c 0.028 -0.101 0.094 -0.335 -0.06 -0.561 c -0.171 -0.252 -0.497 -0.313 -0.727 -0.336 c -0.151 -0.016 -0.52 -0.015 -0.806 -0.01 l 0.002 -0.172 c 0 0 0 0 0 0 L 17.922 24 c 0.991 -0.498 1.268 -1.543 1.279 -2.26 c 3.294 -0.369 4.132 -2.309 4.301 -2.884 c 0.22 -0.442 0.113 -0.699 -0.015 -0.837 C 23.429 17.956 23.357 17.911 23.278 17.88 z M 22.845 18.626 c -0.155 0.515 -0.904 2.212 -4.035 2.448 c -0.095 0.007 -0.183 0.053 -0.244 0.127 c -0.061 0.073 -0.088 0.169 -0.077 0.264 c 0.008 0.062 0.165 1.514 -1.027 1.976 c -0.127 0.049 -0.214 0.167 -0.224 0.303 l -0.162 2.434 c 0 0.004 0.002 0.008 0.002 0.012 c 0 0.003 -0.002 0.005 -0.002 0.008 l -0.007 0.554 c -0.002 0.095 0.036 0.187 0.104 0.253 c 0.068 0.066 0.154 0.104 0.256 0.101 c 0.337 -0.009 0.928 -0.017 1.077 -0.002 c 0.08 0.009 0.135 0.021 0.173 0.03 c -0.052 0.047 -0.291 0.196 -1.011 0.167 c -0.778 -0.027 -1.439 0.48 -1.921 1.523 c -0.046 0.073 -0.204 0.218 -0.334 0.304 c 0.005 -0.063 0.017 -0.149 0.042 -0.263 c 0.018 -0.043 0.059 -0.106 0.102 -0.176 c 0.178 -0.289 0.361 -0.589 0.179 -0.852 c -0.19 -0.277 -0.473 -0.335 -0.64 -0.341 c -0.07 -0.035 -0.197 -0.188 -0.214 -0.218 c 0.001 -0.001 0.091 -0.087 0.501 -0.092 c 0.316 -0.008 0.858 0.074 0.863 0.075 c 0.092 0.011 0.187 -0.011 0.261 -0.067 c 0.075 -0.056 0.124 -0.14 0.137 -0.232 l 0.084 -0.619 c 0.015 -0.033 0.029 -0.068 0.033 -0.107 l 0.249 -2.453 c 0.014 -0.141 -0.063 -0.278 -0.188 -0.346 c -0.025 -0.014 -0.63 -0.353 -0.598 -1.427 c 0.003 -0.093 -0.031 -0.183 -0.095 -0.251 c -0.063 -0.067 -0.151 -0.106 -0.244 -0.109 l -1.934 -0.059 c -0.158 -0.002 -0.276 0.08 -0.333 0.212 c -0.003 0.007 -0.267 0.606 -0.746 0.72 c -0.134 0.032 -0.237 0.14 -0.263 0.275 l -0.6 3.146 c -0.019 0.096 0.004 0.195 0.063 0.274 s 0.147 0.129 0.245 0.14 c 0.336 0.034 0.923 0.102 1.069 0.137 c 0.078 0.019 0.132 0.037 0.167 0.052 c -0.055 0.039 -0.3 0.164 -1.024 0.036 c -0.782 -0.135 -1.49 0.291 -2.101 1.263 c -0.055 0.066 -0.23 0.189 -0.371 0.259 c 0.013 -0.063 0.036 -0.146 0.076 -0.255 c 0.023 -0.041 0.073 -0.099 0.124 -0.162 c 0.212 -0.264 0.433 -0.536 0.286 -0.822 c -0.126 -0.246 -0.453 -0.356 -1.076 -0.486 c -0.039 -0.009 -0.096 -0.027 -0.159 -0.053 c 0.029 -0.005 0.06 -0.009 0.094 -0.014 c 0.226 -0.037 1.22 0.021 1.792 0.061 c 0.176 0.018 0.334 -0.107 0.369 -0.281 l 0.666 -3.372 c 0.031 -0.156 -0.053 -0.316 -0.198 -0.386 c -0.075 -0.035 -0.724 -0.379 -0.527 -1.491 c 0.024 -0.136 -0.035 -0.273 -0.149 -0.351 c -0.019 -0.013 -1.884 -1.278 -2.442 -2.681 c -0.012 -0.029 -0.029 -0.059 -0.048 -0.084 c -0.011 -0.015 -1.074 -1.431 -0.941 -4.124 c 0.001 -0.042 0.103 -4.226 0.356 -5.497 c 0.035 -0.174 -0.066 -0.346 -0.235 -0.401 C 7.717 7.6 6.87 7.235 6.487 6.729 c 0.237 -0.254 0.827 -0.723 1.956 -0.735 c 0.15 -0.002 0.283 -0.1 0.329 -0.243 C 8.948 5.204 9.22 4.526 9.353 4.383 C 9.442 4.288 9.471 4.15 9.427 4.026 C 9.382 3.903 9.273 3.815 9.143 3.797 c -0.068 -0.009 -1.67 -0.237 -1.671 -1.586 c 0 -0.005 0.039 -0.55 0.365 -0.706 c 0.186 -0.09 0.644 -0.131 1.634 0.581 c 0.101 0.073 0.231 0.087 0.345 0.036 c 0.113 -0.05 0.192 -0.156 0.207 -0.279 c 0 -0.007 0.092 -0.681 0.526 -0.935 c 0.252 -0.147 0.601 -0.131 1.059 0.061 c 0.055 0.02 0.535 0.22 0.407 1.179 c -0.019 0.142 0.051 0.281 0.176 0.351 c 0.124 0.07 0.28 0.057 0.392 -0.033 c 0.146 -0.118 0.597 -0.402 0.93 -0.303 c 0.197 0.059 0.353 0.264 0.473 0.636 c 0.001 0.003 0.114 0.307 -0.036 0.653 c -0.153 0.354 -0.521 0.644 -1.095 0.863 c -0.098 0.038 -0.174 0.117 -0.208 0.216 c -0.033 0.1 -0.02 0.209 0.036 0.298 l 0.411 0.646 c 0.018 0.038 1.829 3.794 2.062 6.345 c 0.013 0.144 0.114 0.266 0.253 0.305 c 0.028 0.008 2.772 0.791 5.209 1.838 c 0.065 0.013 1.593 0.317 2.854 -0.721 c 0.038 0.139 0.084 0.409 0.093 0.917 c 0.003 0.027 0.296 2.687 -1.514 3.91 c -0.148 0.101 -0.197 0.298 -0.112 0.456 c 0.085 0.157 0.276 0.229 0.442 0.157 c 0.162 -0.066 0.357 -0.121 0.495 -0.144 C 22.867 18.56 22.851 18.605 22.845 18.626 z" stroke-linecap="round" />
</g>
<g transform="matrix(6.67 0 0 6.67 168.14 138.52)" id="Layer_1"  >
<path style="stroke: none; stroke-width: 1; stroke-dasharray: none; stroke-linecap: butt; stroke-dashoffset: 0; stroke-linejoin: miter; stroke-miterlimit: 4; fill: rgb(0,0,0); fill-rule: nonzero; opacity: 1;"  transform=" translate(-10.22, -5.78)" d="M 10.221 5.237 c -0.298 0 -0.541 0.243 -0.541 0.541 c 0 0.298 0.243 0.541 0.541 0.541 c 0.298 0 0.541 -0.243 0.541 -0.541 C 10.762 5.48 10.519 5.237 10.221 5.237 z M 10.062 5.778 c 0 -0.088 0.071 -0.16 0.159 -0.16 s 0.16 0.072 0.16 0.16 C 10.381 5.954 10.062 5.954 10.062 5.778 z" stroke-linecap="round" />
</g>
</svg>