<?xml version="1.0" encoding="UTF-8" standalone="no" ?>
<!DOCTYPE svg PUBLIC "-//W3C//DTD SVG 1.1//EN" "http://www.w3.org/Graphics/SVG/1.1/DTD/svg11.dtd">
<svg xmlns="http://www.w3.org/2000/svg" xmlns:xlink="http://www.w3.org/1999/xlink" version="1.1" width="400" height="400" viewBox="0 0 400 400" xml:space="preserve">
<desc>Created with Fabric.js 3.6.2</desc>
<defs>
</defs>
<g transform="matrix(4.17 0 0 4.17 196.98 263.61)" id="surface1"  >
<path style="stroke: none; stroke-width: 1; stroke-dasharray: none; stroke-linecap: butt; stroke-dashoffset: 0; stroke-linejoin: miter; stroke-miterlimit: 4; fill: rgb(30,136,229); fill-rule: nonzero; opacity: 1;"  transform=" translate(-23.28, -39.27)" d="M 18.976563 34.53125 C 18.976563 34.53125 19.320313 35.566406 19.320313 36.152344 C 19.320313 37.582031 18.011719 39.269531 18.011719 40.984375 C 18.011719 41.496094 18.1875 44 21.867188 44 C 23.226563 44 24.527344 44 24.898438 44 C 25.332031 44 28.539063 43.695313 28.539063 41.015625 C 28.539063 39.148438 27.726563 38.679688 27.324219 37.046875 C 27.070313 36.019531 18.976563 34.53125 18.976563 34.53125 Z" stroke-linecap="round" />
</g>
<g transform="matrix(4.17 0 0 4.17 198.99 263.61)" id="surface1"  >
<path style="stroke: none; stroke-width: 1; stroke-dasharray: none; stroke-linecap: butt; stroke-dashoffset: 0; stroke-linejoin: miter; stroke-miterlimit: 4; fill: rgb(21,101,192); fill-rule: nonzero; opacity: 1;"  transform=" translate(-23.76, -39.27)" d="M 18.976563 34.53125 C 18.976563 34.53125 19.171875 35.113281 19.269531 35.652344 C 19.300781 35.832031 22.074219 38.421875 26.84375 38.605469 C 26.84375 40.039063 27.195313 42.523438 24.898438 44 C 25.328125 44 28.539063 43.695313 28.539063 41.015625 C 28.539063 39.148438 27.726563 38.679688 27.320313 37.046875 C 27.070313 36.019531 18.976563 34.53125 18.976563 34.53125 Z" stroke-linecap="round" />
</g>
<g transform="matrix(4.17 0 0 4.17 196.98 275.97)" id="surface1"  >
<path style="stroke: none; stroke-width: 1; stroke-dasharray: none; stroke-linecap: butt; stroke-dashoffset: 0; stroke-linejoin: miter; stroke-miterlimit: 4; fill: rgb(63,81,181); fill-rule: nonzero; opacity: 1;"  transform=" translate(-23.28, -42.23)" d="M 23.640625 41.792969 C 19.457031 41.792969 18.019531 40.761719 18.019531 40.761719 C 18.015625 40.835938 18.011719 40.910156 18.011719 40.984375 C 18.011719 41.496094 18.1875 44 21.867188 44 C 23.226563 44 24.527344 44 24.898438 44 C 25.332031 44 28.539063 43.695313 28.539063 41.015625 C 28.539063 40.816406 28.53125 40.632813 28.511719 40.464844 C 28.511719 40.464844 27.277344 41.792969 23.640625 41.792969 Z" stroke-linecap="round" />
</g>
<g transform="matrix(4.17 0 0 4.17 185.37 260.78)" id="surface1"  >
<path style="stroke: none; stroke-width: 1; stroke-dasharray: none; stroke-linecap: butt; stroke-dashoffset: 0; stroke-linejoin: miter; stroke-miterlimit: 4; fill: rgb(255,245,157); fill-rule: nonzero; opacity: 1;"  transform=" translate(-20.49, -38.59)" d="M 20.984375 36.140625 L 21.019531 37.59375 C 21.019531 37.59375 20.125 38.488281 19.921875 38.953125 C 19.714844 39.417969 19.492188 40.273438 19.492188 40.273438 C 19.492188 40.273438 19.996094 39.230469 20.164063 39.0625 C 20.332031 38.894531 20.890625 38.152344 20.890625 38.152344 C 20.890625 38.152344 20.757813 38.617188 20.683594 38.859375 C 20.609375 39.101563 20.199219 39.882813 20.179688 40.125 C 20.160156 40.367188 20.21875 40.8125 20.21875 40.8125 C 20.21875 40.8125 20.292969 40.199219 20.421875 39.9375 C 20.554688 39.679688 21.113281 38.355469 21.113281 38.355469 C 21.113281 38.355469 21 39.453125 21 39.714844 C 21 39.976563 21.148438 40.738281 21.464844 41.035156 C 21.316406 40.570313 21.261719 40.179688 21.261719 39.863281 C 21.261719 39.546875 21.429688 38.710938 21.429688 38.300781 C 21.429688 37.890625 21.261719 37.480469 21.261719 37.480469 L 21.484375 36.234375 Z" stroke-linecap="round" />
</g>
<g transform="matrix(4.17 0 0 4.17 212.77 206.84)" id="surface1"  >
<path style="stroke: none; stroke-width: 1; stroke-dasharray: none; stroke-linecap: butt; stroke-dashoffset: 0; stroke-linejoin: miter; stroke-miterlimit: 4; fill: rgb(96,125,139); fill-rule: nonzero; opacity: 1;"  transform=" translate(-27.07, -25.64)" d="M 15.171875 15.847656 C 15.171875 15.847656 14.980469 15.242188 15.191406 14.84375 C 15.398438 14.445313 16.507813 13.398438 17.867188 13.398438 C 19.230469 13.398438 19.480469 14.214844 19.960938 14.761719 C 20.441406 15.304688 21.320313 15.597656 21.445313 16.707031 C 21.570313 17.816406 21.382813 25.640625 22.679688 25.640625 C 23.414063 25.640625 22.8125 22.527344 23.867188 19.457031 C 24.773438 16.816406 27.027344 14.152344 30.984375 14.152344 C 37.148438 14.152344 39.039063 18.148438 39.039063 21.246094 C 39.039063 25.476563 36.089844 29.34375 36.089844 29.34375 C 36.089844 29.34375 33.914063 26.4375 32.679688 26.4375 C 31.445313 26.4375 30.777344 28.675781 30.777344 28.675781 C 30.777344 28.675781 31.195313 29.65625 31.195313 30.664063 C 31.195313 31.667969 30.589844 33.507813 30.589844 33.507813 L 31.46875 36.792969 C 31.46875 36.792969 28.871094 37.882813 26.761719 37.882813 C 22.519531 37.882813 20.105469 35.683594 20.105469 35.683594 C 20.105469 35.683594 15.441406 33.886719 15.441406 30.078125 C 15.441406 26.269531 16.382813 25.371094 16.363281 24.09375 C 16.34375 22.816406 16.507813 18.882813 15.984375 17.898438 C 15.460938 16.917969 15.171875 15.847656 15.171875 15.847656 Z" stroke-linecap="round" />
</g>
<g transform="matrix(4.17 0 0 4.17 175.64 144.38)" id="surface1"  >
<path style="stroke: none; stroke-width: 1; stroke-dasharray: none; stroke-linecap: butt; stroke-dashoffset: 0; stroke-linejoin: miter; stroke-miterlimit: 4; fill: rgb(244,67,54); fill-rule: nonzero; opacity: 1;"  transform=" translate(-18.15, -10.65)" d="M 18.242188 13.925781 C 16.769531 13.925781 15.992188 15.570313 14.835938 15.570313 C 13.683594 15.570313 10.910156 14.445313 10.910156 10.320313 C 10.910156 6.191406 14.921875 4 18.269531 4 C 21.617188 4 25.398438 6.683594 25.398438 11.417969 C 25.398438 16.148438 22.859375 17.304688 22.511719 17.304688 C 21.703125 17.304688 22.773438 13.0625 20.867188 13.0625 C 19.367188 13.0625 19.800781 14.417969 19.800781 14.417969 C 19.800781 14.417969 19.394531 13.925781 18.242188 13.925781 Z" stroke-linecap="round" />
</g>
<g transform="matrix(4.17 0 0 4.17 164.53 188.82)" id="surface1"  >
<path style="stroke: none; stroke-width: 1; stroke-dasharray: none; stroke-linecap: butt; stroke-dashoffset: 0; stroke-linejoin: miter; stroke-miterlimit: 4; fill: rgb(244,67,54); fill-rule: nonzero; opacity: 1;"  transform=" translate(-15.49, -21.32)" d="M 16.105469 18.574219 C 16.105469 18.574219 16.769531 20.679688 16.769531 21.980469 C 16.769531 23.277344 15.992188 24.058594 15.386719 24.058594 C 14.777344 24.058594 14.203125 23.59375 14.203125 22.238281 C 14.199219 20.421875 16.105469 18.574219 16.105469 18.574219 Z" stroke-linecap="round" />
</g>
<g transform="matrix(4.17 0 0 4.17 156.53 172.36)" id="surface1"  >
<path style="stroke: none; stroke-width: 1; stroke-dasharray: none; stroke-linecap: butt; stroke-dashoffset: 0; stroke-linejoin: miter; stroke-miterlimit: 4; fill: rgb(255,193,7); fill-rule: nonzero; opacity: 1;"  transform=" translate(-13.57, -17.37)" d="M 15.21875 15.671875 C 15.21875 15.671875 15.761719 16.523438 15.902344 17.015625 C 16.046875 17.507813 16.136719 18.34375 16.136719 18.34375 C 16.136719 18.34375 13.984375 18.972656 12.507813 19.046875 C 11.035156 19.121094 10.996094 18.863281 10.996094 18.746094 C 10.996094 18.410156 12.832031 16.621094 15.21875 15.671875 Z" stroke-linecap="round" />
</g>
<g transform="matrix(4.17 0 0 4.17 174.28 169.47)" id="surface1"  >
<path style="stroke: none; stroke-width: 1; stroke-dasharray: none; stroke-linecap: butt; stroke-dashoffset: 0; stroke-linejoin: miter; stroke-miterlimit: 4; fill: rgb(255,152,0); fill-rule: nonzero; opacity: 1;"  transform=" translate(-17.83, -16.67)" d="M 18.917969 16.675781 C 18.917969 17.277344 18.429688 17.765625 17.824219 17.765625 C 17.222656 17.765625 16.734375 17.277344 16.734375 16.675781 C 16.734375 16.070313 17.222656 15.582031 17.824219 15.582031 C 18.429688 15.582031 18.917969 16.070313 18.917969 16.675781 Z" stroke-linecap="round" />
</g>
<g transform="matrix(4.17 0 0 4.17 173.92 170.41)" id="surface1"  >
<path style="stroke: none; stroke-width: 1; stroke-dasharray: none; stroke-linecap: butt; stroke-dashoffset: 0; stroke-linejoin: miter; stroke-miterlimit: 4; fill: rgb(38,50,56); fill-rule: nonzero; opacity: 1;"  transform=" translate(-17.74, -16.9)" d="M 18.214844 16.898438 C 18.214844 17.160156 18 17.371094 17.738281 17.371094 C 17.480469 17.371094 17.265625 17.160156 17.265625 16.898438 C 17.265625 16.636719 17.480469 16.425781 17.738281 16.425781 C 18 16.425781 18.214844 16.636719 18.214844 16.898438 Z" stroke-linecap="round" />
</g>
<g transform="matrix(4.17 0 0 4.17 177.79 183.09)" id="surface1"  >
<path style="stroke: none; stroke-width: 1; stroke-dasharray: none; stroke-linecap: butt; stroke-dashoffset: 0; stroke-linejoin: miter; stroke-miterlimit: 4; fill: rgb(255,193,7); fill-rule: nonzero; opacity: 1;"  transform=" translate(-18.67, -19.94)" d="M 18.007813 19.160156 C 18.007813 18.851563 18.160156 18.4375 18.625 18.4375 C 19.089844 18.4375 19.332031 19.109375 19.332031 19.675781 C 19.332031 20.242188 19.191406 21.445313 19.191406 21.445313 C 19.191406 21.445313 18.007813 20.328125 18.007813 19.160156 Z" stroke-linecap="round" />
</g>
<g transform="matrix(4.17 0 0 4.17 231.62 186.61)" id="surface1"  >
<path style="stroke: none; stroke-width: 1; stroke-dasharray: none; stroke-linecap: butt; stroke-dashoffset: 0; stroke-linejoin: miter; stroke-miterlimit: 4; fill: rgb(244,67,54); fill-rule: nonzero; opacity: 1;"  transform=" translate(-31.59, -20.79)" d="M 34.414063 19.085938 C 34.414063 19.085938 34.09375 19.324219 33.492188 19.324219 C 32.890625 19.324219 31.570313 18.683594 30.730469 18.683594 C 29.242188 18.683594 28.765625 19.964844 28.765625 20.605469 C 28.765625 21.246094 29.488281 22.328125 30.367188 22.328125 C 31.25 22.328125 31.8125 21.609375 31.8125 21.609375 C 31.8125 21.609375 31.851563 22.890625 33.171875 22.890625 C 34.496094 22.890625 34.335938 21.847656 34.335938 21.445313 C 34.335938 21.207031 33.972656 20.285156 34.015625 20.003906 C 34.050781 19.726563 34.414063 19.085938 34.414063 19.085938 Z" stroke-linecap="round" />
</g>
<g transform="matrix(4.17 0 0 4.17 200.82 226.67)" id="surface1"  >
<path style="stroke: none; stroke-width: 1; stroke-dasharray: none; stroke-linecap: butt; stroke-dashoffset: 0; stroke-linejoin: miter; stroke-miterlimit: 4; fill: rgb(244,67,54); fill-rule: nonzero; opacity: 1;"  transform=" translate(-24.2, -30.4)" d="M 21.519531 32.382813 C 21.519531 32.382813 21.960938 31.78125 21.917969 31.460938 C 21.878906 31.140625 21.316406 30.019531 21.398438 29.539063 C 21.476563 29.058594 21.597656 28.417969 22.519531 28.417969 C 23.4375 28.417969 23.839844 29.496094 23.839844 29.496094 C 23.839844 29.496094 24.320313 28.816406 25.402344 28.816406 C 26.484375 28.816406 27.003906 29.496094 27.003906 30.300781 C 27.003906 31.101563 26.5625 32.382813 25.121094 32.382813 C 23.679688 32.382813 23.078125 31.980469 22.558594 32.101563 C 22.039063 32.222656 21.519531 32.382813 21.519531 32.382813 Z" stroke-linecap="round" />
</g>
<g transform="matrix(4.17 0 0 4.17 227.53 163.24)" id="surface1"  >
<path style="stroke: none; stroke-width: 1; stroke-dasharray: none; stroke-linecap: butt; stroke-dashoffset: 0; stroke-linejoin: miter; stroke-miterlimit: 4; fill: rgb(255,255,255); fill-rule: nonzero; opacity: 1;"  transform=" translate(-30.61, -15.18)" d="M 31.101563 15.175781 C 31.101563 15.449219 30.878906 15.671875 30.605469 15.671875 C 30.332031 15.671875 30.113281 15.449219 30.113281 15.175781 C 30.113281 14.902344 30.332031 14.683594 30.605469 14.683594 C 30.878906 14.683594 31.101563 14.902344 31.101563 15.175781 Z" stroke-linecap="round" />
</g>
<g transform="matrix(4.17 0 0 4.17 235.75 163.24)" id="surface1"  >
<path style="stroke: none; stroke-width: 1; stroke-dasharray: none; stroke-linecap: butt; stroke-dashoffset: 0; stroke-linejoin: miter; stroke-miterlimit: 4; fill: rgb(255,255,255); fill-rule: nonzero; opacity: 1;"  transform=" translate(-32.58, -15.18)" d="M 33.074219 15.175781 C 33.074219 15.449219 32.855469 15.671875 32.582031 15.671875 C 32.308594 15.671875 32.085938 15.449219 32.085938 15.175781 C 32.085938 14.902344 32.308594 14.683594 32.582031 14.683594 C 32.855469 14.683594 33.074219 14.902344 33.074219 15.175781 Z" stroke-linecap="round" />
</g>
<g transform="matrix(4.17 0 0 4.17 243.24 165.86)" id="surface1"  >
<path style="stroke: none; stroke-width: 1; stroke-dasharray: none; stroke-linecap: butt; stroke-dashoffset: 0; stroke-linejoin: miter; stroke-miterlimit: 4; fill: rgb(255,255,255); fill-rule: nonzero; opacity: 1;"  transform=" translate(-34.38, -15.81)" d="M 34.871094 15.804688 C 34.871094 16.078125 34.648438 16.300781 34.375 16.300781 C 34.101563 16.300781 33.882813 16.078125 33.882813 15.804688 C 33.882813 15.53125 34.101563 15.3125 34.375 15.3125 C 34.648438 15.3125 34.871094 15.53125 34.871094 15.804688 Z" stroke-linecap="round" />
</g>
<g transform="matrix(4.17 0 0 4.17 249.85 169.6)" id="surface1"  >
<path style="stroke: none; stroke-width: 1; stroke-dasharray: none; stroke-linecap: butt; stroke-dashoffset: 0; stroke-linejoin: miter; stroke-miterlimit: 4; fill: rgb(255,255,255); fill-rule: nonzero; opacity: 1;"  transform=" translate(-35.96, -16.71)" d="M 36.457031 16.707031 C 36.457031 16.980469 36.238281 17.199219 35.964844 17.199219 C 35.691406 17.199219 35.46875 16.980469 35.46875 16.707031 C 35.46875 16.433594 35.691406 16.210938 35.964844 16.210938 C 36.238281 16.210938 36.457031 16.433594 36.457031 16.707031 Z" stroke-linecap="round" />
</g>
<g transform="matrix(4.17 0 0 4.17 254.37 175.56)" id="surface1"  >
<path style="stroke: none; stroke-width: 1; stroke-dasharray: none; stroke-linecap: butt; stroke-dashoffset: 0; stroke-linejoin: miter; stroke-miterlimit: 4; fill: rgb(255,255,255); fill-rule: nonzero; opacity: 1;"  transform=" translate(-37.05, -18.13)" d="M 37.542969 18.136719 C 37.542969 18.410156 37.324219 18.628906 37.050781 18.628906 C 36.777344 18.628906 36.554688 18.410156 36.554688 18.136719 C 36.554688 17.863281 36.777344 17.640625 37.050781 17.640625 C 37.324219 17.640625 37.542969 17.863281 37.542969 18.136719 Z" stroke-linecap="round" />
</g>
<g transform="matrix(4.17 0 0 4.17 257.62 182.09)" id="surface1"  >
<path style="stroke: none; stroke-width: 1; stroke-dasharray: none; stroke-linecap: butt; stroke-dashoffset: 0; stroke-linejoin: miter; stroke-miterlimit: 4; fill: rgb(255,255,255); fill-rule: nonzero; opacity: 1;"  transform=" translate(-37.83, -19.7)" d="M 38.320313 19.699219 C 38.320313 19.972656 38.101563 20.195313 37.828125 20.195313 C 37.554688 20.195313 37.335938 19.972656 37.335938 19.699219 C 37.335938 19.425781 37.554688 19.207031 37.828125 19.207031 C 38.101563 19.207031 38.320313 19.425781 38.320313 19.699219 Z" stroke-linecap="round" />
</g>
<g transform="matrix(4.17 0 0 4.17 258.49 189.92)" id="surface1"  >
<path style="stroke: none; stroke-width: 1; stroke-dasharray: none; stroke-linecap: butt; stroke-dashoffset: 0; stroke-linejoin: miter; stroke-miterlimit: 4; fill: rgb(255,255,255); fill-rule: nonzero; opacity: 1;"  transform=" translate(-38.04, -21.58)" d="M 38.53125 21.578125 C 38.53125 21.851563 38.308594 22.074219 38.035156 22.074219 C 37.765625 22.074219 37.542969 21.851563 37.542969 21.578125 C 37.542969 21.308594 37.765625 21.085938 38.035156 21.085938 C 38.308594 21.085938 38.53125 21.308594 38.53125 21.578125 Z" stroke-linecap="round" />
</g>
<g transform="matrix(4.17 0 0 4.17 256.93 198.1)" id="surface1"  >
<path style="stroke: none; stroke-width: 1; stroke-dasharray: none; stroke-linecap: butt; stroke-dashoffset: 0; stroke-linejoin: miter; stroke-miterlimit: 4; fill: rgb(255,255,255); fill-rule: nonzero; opacity: 1;"  transform=" translate(-37.66, -23.54)" d="M 38.15625 23.542969 C 38.15625 23.816406 37.933594 24.035156 37.660156 24.035156 C 37.386719 24.035156 37.167969 23.816406 37.167969 23.542969 C 37.167969 23.269531 37.386719 23.050781 37.660156 23.050781 C 37.933594 23.050781 38.15625 23.269531 38.15625 23.542969 Z" stroke-linecap="round" />
</g>
<g transform="matrix(4.17 0 0 4.17 250.66 212.54)" id="surface1"  >
<path style="stroke: none; stroke-width: 1; stroke-dasharray: none; stroke-linecap: butt; stroke-dashoffset: 0; stroke-linejoin: miter; stroke-miterlimit: 4; fill: rgb(255,255,255); fill-rule: nonzero; opacity: 1;"  transform=" translate(-36.16, -27.01)" d="M 36.652344 27.011719 C 36.652344 27.285156 36.429688 27.503906 36.15625 27.503906 C 35.882813 27.503906 35.664063 27.285156 35.664063 27.011719 C 35.664063 26.738281 35.882813 26.515625 36.15625 26.515625 C 36.429688 26.515625 36.652344 26.738281 36.652344 27.011719 Z" stroke-linecap="round" />
</g>
<g transform="matrix(4.17 0 0 4.17 253.78 205.93)" id="surface1"  >
<path style="stroke: none; stroke-width: 1; stroke-dasharray: none; stroke-linecap: butt; stroke-dashoffset: 0; stroke-linejoin: miter; stroke-miterlimit: 4; fill: rgb(255,255,255); fill-rule: nonzero; opacity: 1;"  transform=" translate(-36.91, -25.42)" d="M 37.402344 25.421875 C 37.402344 25.695313 37.183594 25.917969 36.910156 25.917969 C 36.636719 25.917969 36.414063 25.695313 36.414063 25.421875 C 36.414063 25.148438 36.636719 24.929688 36.910156 24.929688 C 37.183594 24.929688 37.402344 25.148438 37.402344 25.421875 Z" stroke-linecap="round" />
</g>
<g transform="matrix(4.17 0 0 4.17 244.59 208.19)" id="surface1"  >
<path style="stroke: none; stroke-width: 1; stroke-dasharray: none; stroke-linecap: butt; stroke-dashoffset: 0; stroke-linejoin: miter; stroke-miterlimit: 4; fill: rgb(255,255,255); fill-rule: nonzero; opacity: 1;"  transform=" translate(-34.7, -25.97)" d="M 35.195313 25.964844 C 35.195313 26.238281 34.976563 26.460938 34.703125 26.460938 C 34.429688 26.460938 34.207031 26.238281 34.207031 25.964844 C 34.207031 25.691406 34.429688 25.472656 34.703125 25.472656 C 34.976563 25.472656 35.195313 25.691406 35.195313 25.964844 Z" stroke-linecap="round" />
</g>
<g transform="matrix(4.17 0 0 4.17 237.25 205.41)" id="surface1"  >
<path style="stroke: none; stroke-width: 1; stroke-dasharray: none; stroke-linecap: butt; stroke-dashoffset: 0; stroke-linejoin: miter; stroke-miterlimit: 4; fill: rgb(255,255,255); fill-rule: nonzero; opacity: 1;"  transform=" translate(-32.94, -25.3)" d="M 33.433594 25.296875 C 33.433594 25.570313 33.210938 25.792969 32.941406 25.792969 C 32.667969 25.792969 32.445313 25.570313 32.445313 25.296875 C 32.445313 25.023438 32.667969 24.804688 32.941406 24.804688 C 33.210938 24.804688 33.433594 25.023438 33.433594 25.296875 Z" stroke-linecap="round" />
</g>
<g transform="matrix(4.17 0 0 4.17 229.24 207.15)" id="surface1"  >
<path style="stroke: none; stroke-width: 1; stroke-dasharray: none; stroke-linecap: butt; stroke-dashoffset: 0; stroke-linejoin: miter; stroke-miterlimit: 4; fill: rgb(255,255,255); fill-rule: nonzero; opacity: 1;"  transform=" translate(-31.02, -25.72)" d="M 31.511719 25.714844 C 31.511719 25.988281 31.292969 26.210938 31.019531 26.210938 C 30.746094 26.210938 30.523438 25.988281 30.523438 25.714844 C 30.523438 25.441406 30.746094 25.222656 31.019531 25.222656 C 31.292969 25.222656 31.511719 25.441406 31.511719 25.714844 Z" stroke-linecap="round" />
</g>
<g transform="matrix(4.17 0 0 4.17 219.51 202.97)" id="surface1"  >
<path style="stroke: none; stroke-width: 1; stroke-dasharray: none; stroke-linecap: butt; stroke-dashoffset: 0; stroke-linejoin: miter; stroke-miterlimit: 4; fill: rgb(255,245,157); fill-rule: nonzero; opacity: 1;"  transform=" translate(-28.68, -24.71)" d="M 29.175781 24.714844 C 29.175781 24.988281 28.953125 25.207031 28.679688 25.207031 C 28.40625 25.207031 28.1875 24.988281 28.1875 24.714844 C 28.1875 24.441406 28.40625 24.21875 28.679688 24.21875 C 28.953125 24.21875 29.175781 24.441406 29.175781 24.714844 Z" stroke-linecap="round" />
</g>
<g transform="matrix(4.17 0 0 4.17 213.27 200.27)" id="surface1"  >
<path style="stroke: none; stroke-width: 1; stroke-dasharray: none; stroke-linecap: butt; stroke-dashoffset: 0; stroke-linejoin: miter; stroke-miterlimit: 4; fill: rgb(255,245,157); fill-rule: nonzero; opacity: 1;"  transform=" translate(-27.19, -24.06)" d="M 27.679688 24.0625 C 27.679688 24.335938 27.460938 24.558594 27.1875 24.558594 C 26.914063 24.558594 26.691406 24.335938 26.691406 24.0625 C 26.691406 23.789063 26.914063 23.570313 27.1875 23.570313 C 27.460938 23.570313 27.679688 23.789063 27.679688 24.0625 Z" stroke-linecap="round" />
</g>
<g transform="matrix(4.17 0 0 4.17 209.61 205.25)" id="surface1"  >
<path style="stroke: none; stroke-width: 1; stroke-dasharray: none; stroke-linecap: butt; stroke-dashoffset: 0; stroke-linejoin: miter; stroke-miterlimit: 4; fill: rgb(255,245,157); fill-rule: nonzero; opacity: 1;"  transform=" translate(-26.31, -25.26)" d="M 26.800781 25.257813 C 26.800781 25.53125 26.582031 25.753906 26.308594 25.753906 C 26.035156 25.753906 25.8125 25.53125 25.8125 25.257813 C 25.8125 24.984375 26.035156 24.765625 26.308594 24.765625 C 26.582031 24.765625 26.800781 24.984375 26.800781 25.257813 Z" stroke-linecap="round" />
</g>
<g transform="matrix(4.17 0 0 4.17 212.54 210.44)" id="surface1"  >
<path style="stroke: none; stroke-width: 1; stroke-dasharray: none; stroke-linecap: butt; stroke-dashoffset: 0; stroke-linejoin: miter; stroke-miterlimit: 4; fill: rgb(255,245,157); fill-rule: nonzero; opacity: 1;"  transform=" translate(-27.01, -26.51)" d="M 27.503906 26.507813 C 27.503906 26.78125 27.285156 27 27.011719 27 C 26.738281 27 26.515625 26.78125 26.515625 26.507813 C 26.515625 26.234375 26.738281 26.011719 27.011719 26.011719 C 27.285156 26.011719 27.503906 26.234375 27.503906 26.507813 Z" stroke-linecap="round" />
</g>
<g transform="matrix(4.17 0 0 4.17 218.99 209.42)" id="surface1"  >
<path style="stroke: none; stroke-width: 1; stroke-dasharray: none; stroke-linecap: butt; stroke-dashoffset: 0; stroke-linejoin: miter; stroke-miterlimit: 4; fill: rgb(255,245,157); fill-rule: nonzero; opacity: 1;"  transform=" translate(-28.56, -26.26)" d="M 29.050781 26.261719 C 29.050781 26.535156 28.832031 26.753906 28.558594 26.753906 C 28.285156 26.753906 28.0625 26.535156 28.0625 26.261719 C 28.0625 25.988281 28.285156 25.765625 28.558594 25.765625 C 28.832031 25.765625 29.050781 25.988281 29.050781 26.261719 Z" stroke-linecap="round" />
</g>
<g transform="matrix(4.17 0 0 4.17 225.71 213.55)" id="surface1"  >
<path style="stroke: none; stroke-width: 1; stroke-dasharray: none; stroke-linecap: butt; stroke-dashoffset: 0; stroke-linejoin: miter; stroke-miterlimit: 4; fill: rgb(255,255,255); fill-rule: nonzero; opacity: 1;"  transform=" translate(-30.17, -27.25)" d="M 30.664063 27.253906 C 30.664063 27.527344 30.441406 27.746094 30.171875 27.746094 C 29.898438 27.746094 29.675781 27.527344 29.675781 27.253906 C 29.675781 26.980469 29.898438 26.757813 30.171875 26.757813 C 30.441406 26.757813 30.664063 26.980469 30.664063 27.253906 Z" stroke-linecap="round" />
</g>
<g transform="matrix(4.17 0 0 4.17 219.48 193.88)" id="surface1"  >
<path style="stroke: none; stroke-width: 1; stroke-dasharray: none; stroke-linecap: butt; stroke-dashoffset: 0; stroke-linejoin: miter; stroke-miterlimit: 4; fill: rgb(255,255,255); fill-rule: nonzero; opacity: 1;"  transform=" translate(-28.68, -22.53)" d="M 29.023438 22.53125 C 29.023438 22.722656 28.867188 22.878906 28.675781 22.878906 C 28.484375 22.878906 28.328125 22.722656 28.328125 22.53125 C 28.328125 22.335938 28.484375 22.183594 28.675781 22.183594 C 28.867188 22.183594 29.023438 22.335938 29.023438 22.53125 Z" stroke-linecap="round" />
</g>
<g transform="matrix(4.17 0 0 4.17 202.59 217.05)" id="surface1"  >
<path style="stroke: none; stroke-width: 1; stroke-dasharray: none; stroke-linecap: butt; stroke-dashoffset: 0; stroke-linejoin: miter; stroke-miterlimit: 4; fill: rgb(255,255,255); fill-rule: nonzero; opacity: 1;"  transform=" translate(-24.62, -28.09)" d="M 24.96875 28.09375 C 24.96875 28.285156 24.8125 28.441406 24.621094 28.441406 C 24.429688 28.441406 24.273438 28.285156 24.273438 28.09375 C 24.273438 27.898438 24.429688 27.742188 24.621094 27.742188 C 24.8125 27.742188 24.96875 27.898438 24.96875 28.09375 Z" stroke-linecap="round" />
</g>
<g transform="matrix(4.17 0 0 4.17 207.45 216.72)" id="surface1"  >
<path style="stroke: none; stroke-width: 1; stroke-dasharray: none; stroke-linecap: butt; stroke-dashoffset: 0; stroke-linejoin: miter; stroke-miterlimit: 4; fill: rgb(255,255,255); fill-rule: nonzero; opacity: 1;"  transform=" translate(-25.79, -28.01)" d="M 26.136719 28.015625 C 26.136719 28.207031 25.980469 28.363281 25.785156 28.363281 C 25.59375 28.363281 25.4375 28.207031 25.4375 28.015625 C 25.4375 27.820313 25.59375 27.664063 25.785156 27.664063 C 25.980469 27.664063 26.136719 27.820313 26.136719 28.015625 Z" stroke-linecap="round" />
</g>
<g transform="matrix(4.17 0 0 4.17 211.98 218.41)" id="surface1"  >
<path style="stroke: none; stroke-width: 1; stroke-dasharray: none; stroke-linecap: butt; stroke-dashoffset: 0; stroke-linejoin: miter; stroke-miterlimit: 4; fill: rgb(255,255,255); fill-rule: nonzero; opacity: 1;"  transform=" translate(-26.88, -28.42)" d="M 27.222656 28.417969 C 27.222656 28.609375 27.066406 28.765625 26.875 28.765625 C 26.683594 28.765625 26.527344 28.609375 26.527344 28.417969 C 26.527344 28.226563 26.683594 28.070313 26.875 28.070313 C 27.066406 28.070313 27.222656 28.226563 27.222656 28.417969 Z" stroke-linecap="round" />
</g>
<g transform="matrix(4.17 0 0 4.17 214.65 222.54)" id="surface1"  >
<path style="stroke: none; stroke-width: 1; stroke-dasharray: none; stroke-linecap: butt; stroke-dashoffset: 0; stroke-linejoin: miter; stroke-miterlimit: 4; fill: rgb(255,255,255); fill-rule: nonzero; opacity: 1;"  transform=" translate(-27.52, -29.41)" d="M 27.863281 29.410156 C 27.863281 29.601563 27.707031 29.757813 27.515625 29.757813 C 27.324219 29.757813 27.167969 29.601563 27.167969 29.410156 C 27.167969 29.21875 27.324219 29.0625 27.515625 29.0625 C 27.707031 29.0625 27.863281 29.21875 27.863281 29.410156 Z" stroke-linecap="round" />
</g>
<g transform="matrix(4.17 0 0 4.17 215.87 227.73)" id="surface1"  >
<path style="stroke: none; stroke-width: 1; stroke-dasharray: none; stroke-linecap: butt; stroke-dashoffset: 0; stroke-linejoin: miter; stroke-miterlimit: 4; fill: rgb(255,255,255); fill-rule: nonzero; opacity: 1;"  transform=" translate(-27.81, -30.65)" d="M 27.925781 30.328125 C 27.746094 30.261719 27.546875 30.355469 27.480469 30.535156 C 27.417969 30.71875 27.511719 30.917969 27.691406 30.980469 C 27.871094 31.046875 28.070313 30.953125 28.136719 30.769531 C 28.203125 30.589844 28.109375 30.390625 27.925781 30.328125 Z" stroke-linecap="round" />
</g>
<g transform="matrix(4.17 0 0 4.17 214.64 232.91)" id="surface1"  >
<path style="stroke: none; stroke-width: 1; stroke-dasharray: none; stroke-linecap: butt; stroke-dashoffset: 0; stroke-linejoin: miter; stroke-miterlimit: 4; fill: rgb(255,255,255); fill-rule: nonzero; opacity: 1;"  transform=" translate(-27.51, -31.9)" d="M 27.628906 31.570313 C 27.449219 31.507813 27.25 31.601563 27.1875 31.78125 C 27.121094 31.960938 27.214844 32.160156 27.394531 32.226563 C 27.578125 32.292969 27.777344 32.199219 27.839844 32.015625 C 27.90625 31.835938 27.8125 31.636719 27.628906 31.570313 Z" stroke-linecap="round" />
</g>
<g transform="matrix(4.17 0 0 4.17 211.01 236.74)" id="surface1"  >
<path style="stroke: none; stroke-width: 1; stroke-dasharray: none; stroke-linecap: butt; stroke-dashoffset: 0; stroke-linejoin: miter; stroke-miterlimit: 4; fill: rgb(255,255,255); fill-rule: nonzero; opacity: 1;"  transform=" translate(-26.64, -32.82)" d="M 26.757813 32.488281 C 26.578125 32.425781 26.378906 32.519531 26.316406 32.699219 C 26.25 32.878906 26.34375 33.078125 26.523438 33.144531 C 26.707031 33.210938 26.90625 33.113281 26.96875 32.933594 C 27.035156 32.753906 26.941406 32.554688 26.757813 32.488281 Z" stroke-linecap="round" />
</g>
<g transform="matrix(4.17 0 0 4.17 214.34 205.9)" id="surface1"  >
<path style="stroke: none; stroke-width: 1; stroke-dasharray: none; stroke-linecap: butt; stroke-dashoffset: 0; stroke-linejoin: miter; stroke-miterlimit: 4; fill: rgb(255,245,157); fill-rule: nonzero; opacity: 1;"  transform=" translate(-27.44, -25.42)" d="M 27.558594 25.089844 C 27.378906 25.023438 27.179688 25.117188 27.113281 25.300781 C 27.050781 25.480469 27.144531 25.679688 27.324219 25.746094 C 27.507813 25.808594 27.707031 25.714844 27.769531 25.535156 C 27.835938 25.351563 27.742188 25.152344 27.558594 25.089844 Z" stroke-linecap="round" />
</g>
<g transform="matrix(4.17 0 0 4.17 219.02 242.33)" id="surface1"  >
<path style="stroke: none; stroke-width: 1; stroke-dasharray: none; stroke-linecap: butt; stroke-dashoffset: 0; stroke-linejoin: miter; stroke-miterlimit: 4; fill: rgb(255,245,157); fill-rule: nonzero; opacity: 1;"  transform=" translate(-28.56, -34.16)" d="M 28.855469 34.15625 C 28.855469 34.320313 28.726563 34.449219 28.566406 34.449219 C 28.40625 34.449219 28.273438 34.320313 28.273438 34.15625 C 28.273438 33.996094 28.40625 33.867188 28.566406 33.867188 C 28.726563 33.867188 28.855469 33.996094 28.855469 34.15625 Z" stroke-linecap="round" />
</g>
<g transform="matrix(4.17 0 0 4.17 215.36 240.73)" id="surface1"  >
<path style="stroke: none; stroke-width: 1; stroke-dasharray: none; stroke-linecap: butt; stroke-dashoffset: 0; stroke-linejoin: miter; stroke-miterlimit: 4; fill: rgb(255,245,157); fill-rule: nonzero; opacity: 1;"  transform=" translate(-27.69, -33.78)" d="M 27.976563 33.773438 C 27.976563 33.933594 27.84375 34.066406 27.683594 34.066406 C 27.523438 34.066406 27.394531 33.933594 27.394531 33.773438 C 27.394531 33.613281 27.523438 33.484375 27.683594 33.484375 C 27.84375 33.484375 27.976563 33.613281 27.976563 33.773438 Z" stroke-linecap="round" />
</g>
<g transform="matrix(4.17 0 0 4.17 213.19 243.66)" id="surface1"  >
<path style="stroke: none; stroke-width: 1; stroke-dasharray: none; stroke-linecap: butt; stroke-dashoffset: 0; stroke-linejoin: miter; stroke-miterlimit: 4; fill: rgb(255,245,157); fill-rule: nonzero; opacity: 1;"  transform=" translate(-27.17, -34.48)" d="M 27.457031 34.480469 C 27.457031 34.640625 27.328125 34.769531 27.164063 34.769531 C 27.003906 34.769531 26.875 34.640625 26.875 34.480469 C 26.875 34.316406 27.003906 34.1875 27.164063 34.1875 C 27.328125 34.1875 27.457031 34.316406 27.457031 34.480469 Z" stroke-linecap="round" />
</g>
<g transform="matrix(4.17 0 0 4.17 214.92 246.74)" id="surface1"  >
<path style="stroke: none; stroke-width: 1; stroke-dasharray: none; stroke-linecap: butt; stroke-dashoffset: 0; stroke-linejoin: miter; stroke-miterlimit: 4; fill: rgb(255,245,157); fill-rule: nonzero; opacity: 1;"  transform=" translate(-27.58, -35.22)" d="M 27.871094 35.214844 C 27.871094 35.375 27.742188 35.507813 27.578125 35.507813 C 27.417969 35.507813 27.289063 35.375 27.289063 35.214844 C 27.289063 35.054688 27.417969 34.925781 27.578125 34.925781 C 27.742188 34.925781 27.871094 35.054688 27.871094 35.214844 Z" stroke-linecap="round" />
</g>
<g transform="matrix(4.17 0 0 4.17 218.73 246.12)" id="surface1"  >
<path style="stroke: none; stroke-width: 1; stroke-dasharray: none; stroke-linecap: butt; stroke-dashoffset: 0; stroke-linejoin: miter; stroke-miterlimit: 4; fill: rgb(255,245,157); fill-rule: nonzero; opacity: 1;"  transform=" translate(-28.49, -35.07)" d="M 28.785156 35.070313 C 28.785156 35.230469 28.652344 35.359375 28.492188 35.359375 C 28.332031 35.359375 28.203125 35.230469 28.203125 35.070313 C 28.203125 34.910156 28.332031 34.777344 28.492188 34.777344 C 28.652344 34.777344 28.785156 34.910156 28.785156 35.070313 Z" stroke-linecap="round" />
</g>
<g transform="matrix(4.17 0 0 4.17 215.98 244.05)" id="surface1"  >
<path style="stroke: none; stroke-width: 1; stroke-dasharray: none; stroke-linecap: butt; stroke-dashoffset: 0; stroke-linejoin: miter; stroke-miterlimit: 4; fill: rgb(255,245,157); fill-rule: nonzero; opacity: 1;"  transform=" translate(-27.83, -34.57)" d="M 27.902344 34.378906 C 27.796875 34.339844 27.679688 34.398438 27.640625 34.503906 C 27.605469 34.609375 27.660156 34.726563 27.765625 34.765625 C 27.871094 34.804688 27.988281 34.75 28.027344 34.640625 C 28.066406 34.535156 28.011719 34.417969 27.902344 34.378906 Z" stroke-linecap="round" />
</g>
<g transform="matrix(4.17 0 0 4.17 205.63 238.23)" id="surface1"  >
<path style="stroke: none; stroke-width: 1; stroke-dasharray: none; stroke-linecap: butt; stroke-dashoffset: 0; stroke-linejoin: miter; stroke-miterlimit: 4; fill: rgb(255,255,255); fill-rule: nonzero; opacity: 1;"  transform=" translate(-25.35, -33.17)" d="M 25.46875 32.847656 C 25.285156 32.78125 25.085938 32.875 25.023438 33.058594 C 24.957031 33.238281 25.050781 33.4375 25.234375 33.503906 C 25.414063 33.566406 25.613281 33.472656 25.679688 33.292969 C 25.742188 33.113281 25.648438 32.914063 25.46875 32.847656 Z" stroke-linecap="round" />
</g>
<g transform="matrix(4.17 0 0 4.17 199.53 237.77)" id="surface1"  >
<path style="stroke: none; stroke-width: 1; stroke-dasharray: none; stroke-linecap: butt; stroke-dashoffset: 0; stroke-linejoin: miter; stroke-miterlimit: 4; fill: rgb(255,255,255); fill-rule: nonzero; opacity: 1;"  transform=" translate(-23.89, -33.07)" d="M 24.003906 32.738281 C 23.824219 32.671875 23.625 32.765625 23.558594 32.949219 C 23.496094 33.128906 23.589844 33.328125 23.769531 33.394531 C 23.953125 33.457031 24.152344 33.363281 24.214844 33.183594 C 24.28125 33 24.1875 32.800781 24.003906 32.738281 Z" stroke-linecap="round" />
</g>
<g transform="matrix(4.17 0 0 4.17 194.35 237.64)" id="surface1"  >
<path style="stroke: none; stroke-width: 1; stroke-dasharray: none; stroke-linecap: butt; stroke-dashoffset: 0; stroke-linejoin: miter; stroke-miterlimit: 4; fill: rgb(255,255,255); fill-rule: nonzero; opacity: 1;"  transform=" translate(-22.64, -33.03)" d="M 22.761719 32.707031 C 22.578125 32.640625 22.378906 32.734375 22.316406 32.917969 C 22.25 33.097656 22.34375 33.296875 22.527344 33.363281 C 22.707031 33.425781 22.90625 33.332031 22.972656 33.152344 C 23.035156 32.972656 22.941406 32.773438 22.761719 32.707031 Z" stroke-linecap="round" />
</g>
<g transform="matrix(4.17 0 0 4.17 188.97 237.58)" id="surface1"  >
<path style="stroke: none; stroke-width: 1; stroke-dasharray: none; stroke-linecap: butt; stroke-dashoffset: 0; stroke-linejoin: miter; stroke-miterlimit: 4; fill: rgb(255,255,255); fill-rule: nonzero; opacity: 1;"  transform=" translate(-21.35, -33.02)" d="M 21.46875 32.691406 C 21.289063 32.628906 21.089844 32.722656 21.023438 32.902344 C 20.960938 33.082031 21.054688 33.28125 21.234375 33.347656 C 21.414063 33.410156 21.613281 33.316406 21.679688 33.136719 C 21.746094 32.957031 21.652344 32.757813 21.46875 32.691406 Z" stroke-linecap="round" />
</g>
<g transform="matrix(4.17 0 0 4.17 188 232.52)" id="surface1"  >
<path style="stroke: none; stroke-width: 1; stroke-dasharray: none; stroke-linecap: butt; stroke-dashoffset: 0; stroke-linejoin: miter; stroke-miterlimit: 4; fill: rgb(255,255,255); fill-rule: nonzero; opacity: 1;"  transform=" translate(-21.12, -31.81)" d="M 21.234375 31.476563 C 21.054688 31.414063 20.855469 31.507813 20.792969 31.6875 C 20.726563 31.867188 20.820313 32.066406 21 32.132813 C 21.183594 32.199219 21.382813 32.105469 21.445313 31.921875 C 21.511719 31.742188 21.417969 31.542969 21.234375 31.476563 Z" stroke-linecap="round" />
</g>
<g transform="matrix(4.17 0 0 4.17 187.28 227.4)" id="surface1"  >
<path style="stroke: none; stroke-width: 1; stroke-dasharray: none; stroke-linecap: butt; stroke-dashoffset: 0; stroke-linejoin: miter; stroke-miterlimit: 4; fill: rgb(255,255,255); fill-rule: nonzero; opacity: 1;"  transform=" translate(-20.95, -30.58)" d="M 21.066406 30.25 C 20.882813 30.183594 20.683594 30.277344 20.621094 30.457031 C 20.554688 30.640625 20.648438 30.839844 20.832031 30.902344 C 21.011719 30.96875 21.210938 30.875 21.277344 30.691406 C 21.339844 30.511719 21.246094 30.3125 21.066406 30.25 Z" stroke-linecap="round" />
</g>
<g transform="matrix(4.17 0 0 4.17 186.7 220.98)" id="surface1"  >
<path style="stroke: none; stroke-width: 1; stroke-dasharray: none; stroke-linecap: butt; stroke-dashoffset: 0; stroke-linejoin: miter; stroke-miterlimit: 4; fill: rgb(255,255,255); fill-rule: nonzero; opacity: 1;"  transform=" translate(-20.81, -29.04)" d="M 20.925781 28.707031 C 20.742188 28.644531 20.542969 28.738281 20.480469 28.917969 C 20.414063 29.097656 20.507813 29.296875 20.691406 29.363281 C 20.871094 29.429688 21.070313 29.332031 21.136719 29.152344 C 21.199219 28.972656 21.105469 28.773438 20.925781 28.707031 Z" stroke-linecap="round" />
</g>
<g transform="matrix(4.17 0 0 4.17 189.87 216.96)" id="surface1"  >
<path style="stroke: none; stroke-width: 1; stroke-dasharray: none; stroke-linecap: butt; stroke-dashoffset: 0; stroke-linejoin: miter; stroke-miterlimit: 4; fill: rgb(255,255,255); fill-rule: nonzero; opacity: 1;"  transform=" translate(-21.57, -28.07)" d="M 21.6875 27.742188 C 21.507813 27.679688 21.308594 27.773438 21.242188 27.953125 C 21.175781 28.132813 21.269531 28.332031 21.453125 28.398438 C 21.632813 28.464844 21.832031 28.371094 21.898438 28.1875 C 21.960938 28.007813 21.867188 27.808594 21.6875 27.742188 Z" stroke-linecap="round" />
</g>
<g transform="matrix(4.17 0 0 4.17 195.84 215.28)" id="surface1"  >
<path style="stroke: none; stroke-width: 1; stroke-dasharray: none; stroke-linecap: butt; stroke-dashoffset: 0; stroke-linejoin: miter; stroke-miterlimit: 4; fill: rgb(255,255,255); fill-rule: nonzero; opacity: 1;"  transform=" translate(-23, -27.67)" d="M 23.117188 27.339844 C 22.9375 27.273438 22.738281 27.367188 22.675781 27.550781 C 22.609375 27.730469 22.703125 27.929688 22.882813 27.992188 C 23.066406 28.058594 23.265625 27.964844 23.328125 27.785156 C 23.394531 27.601563 23.300781 27.402344 23.117188 27.339844 Z" stroke-linecap="round" />
</g>
<g transform="matrix(4.17 0 0 4.17 216.93 189.34)" id="surface1"  >
<path style="stroke: none; stroke-width: 1; stroke-dasharray: none; stroke-linecap: butt; stroke-dashoffset: 0; stroke-linejoin: miter; stroke-miterlimit: 4; fill: rgb(255,255,255); fill-rule: nonzero; opacity: 1;"  transform=" translate(-28.06, -21.44)" d="M 28.410156 21.441406 C 28.410156 21.632813 28.253906 21.789063 28.0625 21.789063 C 27.871094 21.789063 27.714844 21.632813 27.714844 21.441406 C 27.714844 21.25 27.871094 21.09375 28.0625 21.09375 C 28.253906 21.09375 28.410156 21.25 28.410156 21.441406 Z" stroke-linecap="round" />
</g>
<g transform="matrix(4.17 0 0 4.17 216.49 184.38)" id="surface1"  >
<path style="stroke: none; stroke-width: 1; stroke-dasharray: none; stroke-linecap: butt; stroke-dashoffset: 0; stroke-linejoin: miter; stroke-miterlimit: 4; fill: rgb(255,255,255); fill-rule: nonzero; opacity: 1;"  transform=" translate(-27.96, -20.25)" d="M 28.304688 20.25 C 28.304688 20.441406 28.148438 20.597656 27.957031 20.597656 C 27.765625 20.597656 27.609375 20.441406 27.609375 20.25 C 27.609375 20.058594 27.765625 19.902344 27.957031 19.902344 C 28.148438 19.902344 28.304688 20.058594 28.304688 20.25 Z" stroke-linecap="round" />
</g>
<g transform="matrix(4.17 0 0 4.17 217.89 179.41)" id="surface1"  >
<path style="stroke: none; stroke-width: 1; stroke-dasharray: none; stroke-linecap: butt; stroke-dashoffset: 0; stroke-linejoin: miter; stroke-miterlimit: 4; fill: rgb(255,255,255); fill-rule: nonzero; opacity: 1;"  transform=" translate(-28.29, -19.06)" d="M 28.640625 19.058594 C 28.640625 19.253906 28.484375 19.40625 28.292969 19.40625 C 28.101563 19.40625 27.945313 19.253906 27.945313 19.058594 C 27.945313 18.867188 28.101563 18.710938 28.292969 18.710938 C 28.484375 18.710938 28.640625 18.867188 28.640625 19.058594 Z" stroke-linecap="round" />
</g>
<g transform="matrix(4.17 0 0 4.17 221.4 175.89)" id="surface1"  >
<path style="stroke: none; stroke-width: 1; stroke-dasharray: none; stroke-linecap: butt; stroke-dashoffset: 0; stroke-linejoin: miter; stroke-miterlimit: 4; fill: rgb(255,255,255); fill-rule: nonzero; opacity: 1;"  transform=" translate(-29.14, -18.21)" d="M 29.484375 18.214844 C 29.484375 18.40625 29.332031 18.5625 29.136719 18.5625 C 28.945313 18.5625 28.789063 18.40625 28.789063 18.214844 C 28.789063 18.019531 28.945313 17.863281 29.136719 17.863281 C 29.332031 17.863281 29.484375 18.019531 29.484375 18.214844 Z" stroke-linecap="round" />
</g>
<g transform="matrix(4.17 0 0 4.17 226.16 174.63)" id="surface1"  >
<path style="stroke: none; stroke-width: 1; stroke-dasharray: none; stroke-linecap: butt; stroke-dashoffset: 0; stroke-linejoin: miter; stroke-miterlimit: 4; fill: rgb(255,255,255); fill-rule: nonzero; opacity: 1;"  transform=" translate(-30.28, -17.91)" d="M 30.625 17.910156 C 30.625 18.101563 30.46875 18.257813 30.277344 18.257813 C 30.082031 18.257813 29.929688 18.101563 29.929688 17.910156 C 29.929688 17.71875 30.082031 17.5625 30.277344 17.5625 C 30.46875 17.5625 30.625 17.71875 30.625 17.910156 Z" stroke-linecap="round" />
</g>
<g transform="matrix(4.17 0 0 4.17 230.94 174.89)" id="surface1"  >
<path style="stroke: none; stroke-width: 1; stroke-dasharray: none; stroke-linecap: butt; stroke-dashoffset: 0; stroke-linejoin: miter; stroke-miterlimit: 4; fill: rgb(255,255,255); fill-rule: nonzero; opacity: 1;"  transform=" translate(-31.43, -17.97)" d="M 31.773438 17.972656 C 31.773438 18.164063 31.617188 18.320313 31.425781 18.320313 C 31.234375 18.320313 31.078125 18.164063 31.078125 17.972656 C 31.078125 17.78125 31.234375 17.625 31.425781 17.625 C 31.617188 17.625 31.773438 17.78125 31.773438 17.972656 Z" stroke-linecap="round" />
</g>
<g transform="matrix(4.17 0 0 4.17 235.64 175.85)" id="surface1"  >
<path style="stroke: none; stroke-width: 1; stroke-dasharray: none; stroke-linecap: butt; stroke-dashoffset: 0; stroke-linejoin: miter; stroke-miterlimit: 4; fill: rgb(255,255,255); fill-rule: nonzero; opacity: 1;"  transform=" translate(-32.55, -18.2)" d="M 32.902344 18.203125 C 32.902344 18.394531 32.746094 18.550781 32.554688 18.550781 C 32.363281 18.550781 32.207031 18.394531 32.207031 18.203125 C 32.207031 18.011719 32.363281 17.855469 32.554688 17.855469 C 32.746094 17.855469 32.902344 18.011719 32.902344 18.203125 Z" stroke-linecap="round" />
</g>
<g transform="matrix(4.17 0 0 4.17 239.76 177.08)" id="surface1"  >
<path style="stroke: none; stroke-width: 1; stroke-dasharray: none; stroke-linecap: butt; stroke-dashoffset: 0; stroke-linejoin: miter; stroke-miterlimit: 4; fill: rgb(255,255,255); fill-rule: nonzero; opacity: 1;"  transform=" translate(-33.54, -18.5)" d="M 33.890625 18.5 C 33.890625 18.691406 33.734375 18.847656 33.542969 18.847656 C 33.351563 18.847656 33.195313 18.691406 33.195313 18.5 C 33.195313 18.308594 33.351563 18.152344 33.542969 18.152344 C 33.734375 18.152344 33.890625 18.308594 33.890625 18.5 Z" stroke-linecap="round" />
</g>
<g transform="matrix(4.17 0 0 4.17 244.69 176.89)" id="surface1"  >
<path style="stroke: none; stroke-width: 1; stroke-dasharray: none; stroke-linecap: butt; stroke-dashoffset: 0; stroke-linejoin: miter; stroke-miterlimit: 4; fill: rgb(255,255,255); fill-rule: nonzero; opacity: 1;"  transform=" translate(-34.73, -18.45)" d="M 35.074219 18.453125 C 35.074219 18.644531 34.917969 18.800781 34.726563 18.800781 C 34.535156 18.800781 34.378906 18.644531 34.378906 18.453125 C 34.378906 18.261719 34.535156 18.105469 34.726563 18.105469 C 34.917969 18.105469 35.074219 18.261719 35.074219 18.453125 Z" stroke-linecap="round" />
</g>
<g transform="matrix(4.17 0 0 4.17 245.51 181.49)" id="surface1"  >
<path style="stroke: none; stroke-width: 1; stroke-dasharray: none; stroke-linecap: butt; stroke-dashoffset: 0; stroke-linejoin: miter; stroke-miterlimit: 4; fill: rgb(255,255,255); fill-rule: nonzero; opacity: 1;"  transform=" translate(-34.92, -19.56)" d="M 35.269531 19.558594 C 35.269531 19.753906 35.113281 19.90625 34.921875 19.90625 C 34.730469 19.90625 34.574219 19.753906 34.574219 19.558594 C 34.574219 19.367188 34.730469 19.210938 34.921875 19.210938 C 35.113281 19.210938 35.269531 19.367188 35.269531 19.558594 Z" stroke-linecap="round" />
</g>
<g transform="matrix(4.17 0 0 4.17 245.96 186.3)" id="surface1"  >
<path style="stroke: none; stroke-width: 1; stroke-dasharray: none; stroke-linecap: butt; stroke-dashoffset: 0; stroke-linejoin: miter; stroke-miterlimit: 4; fill: rgb(255,255,255); fill-rule: nonzero; opacity: 1;"  transform=" translate(-35.03, -20.71)" d="M 35.378906 20.714844 C 35.378906 20.90625 35.222656 21.0625 35.03125 21.0625 C 34.839844 21.0625 34.683594 20.90625 34.683594 20.714844 C 34.683594 20.519531 34.839844 20.363281 35.03125 20.363281 C 35.222656 20.363281 35.378906 20.519531 35.378906 20.714844 Z" stroke-linecap="round" />
</g>
<g transform="matrix(4.17 0 0 4.17 246.49 191.86)" id="surface1"  >
<path style="stroke: none; stroke-width: 1; stroke-dasharray: none; stroke-linecap: butt; stroke-dashoffset: 0; stroke-linejoin: miter; stroke-miterlimit: 4; fill: rgb(255,255,255); fill-rule: nonzero; opacity: 1;"  transform=" translate(-35.16, -22.05)" d="M 35.507813 22.046875 C 35.507813 22.238281 35.351563 22.394531 35.15625 22.394531 C 34.964844 22.394531 34.808594 22.238281 34.808594 22.046875 C 34.808594 21.855469 34.964844 21.699219 35.15625 21.699219 C 35.351563 21.699219 35.507813 21.855469 35.507813 22.046875 Z" stroke-linecap="round" />
</g>
<g transform="matrix(4.17 0 0 4.17 244.11 197.28)" id="surface1"  >
<path style="stroke: none; stroke-width: 1; stroke-dasharray: none; stroke-linecap: butt; stroke-dashoffset: 0; stroke-linejoin: miter; stroke-miterlimit: 4; fill: rgb(255,255,255); fill-rule: nonzero; opacity: 1;"  transform=" translate(-34.59, -23.35)" d="M 34.933594 23.347656 C 34.933594 23.539063 34.777344 23.695313 34.585938 23.695313 C 34.394531 23.695313 34.238281 23.539063 34.238281 23.347656 C 34.238281 23.15625 34.394531 23 34.585938 23 C 34.777344 23 34.933594 23.15625 34.933594 23.347656 Z" stroke-linecap="round" />
</g>
<g transform="matrix(4.17 0 0 4.17 238.68 199.08)" id="surface1"  >
<path style="stroke: none; stroke-width: 1; stroke-dasharray: none; stroke-linecap: butt; stroke-dashoffset: 0; stroke-linejoin: miter; stroke-miterlimit: 4; fill: rgb(255,255,255); fill-rule: nonzero; opacity: 1;"  transform=" translate(-33.28, -23.78)" d="M 33.632813 23.777344 C 33.632813 23.972656 33.476563 24.128906 33.28125 24.128906 C 33.089844 24.128906 32.933594 23.972656 32.933594 23.777344 C 32.933594 23.585938 33.089844 23.429688 33.28125 23.429688 C 33.476563 23.429688 33.632813 23.585938 33.632813 23.777344 Z" stroke-linecap="round" />
</g>
<g transform="matrix(4.17 0 0 4.17 233.87 198.49)" id="surface1"  >
<path style="stroke: none; stroke-width: 1; stroke-dasharray: none; stroke-linecap: butt; stroke-dashoffset: 0; stroke-linejoin: miter; stroke-miterlimit: 4; fill: rgb(255,255,255); fill-rule: nonzero; opacity: 1;"  transform=" translate(-32.13, -23.64)" d="M 32.476563 23.636719 C 32.476563 23.832031 32.320313 23.984375 32.128906 23.984375 C 31.9375 23.984375 31.78125 23.832031 31.78125 23.636719 C 31.78125 23.445313 31.9375 23.289063 32.128906 23.289063 C 32.320313 23.289063 32.476563 23.445313 32.476563 23.636719 Z" stroke-linecap="round" />
</g>
<g transform="matrix(4.17 0 0 4.17 230.41 195.3)" id="surface1"  >
<path style="stroke: none; stroke-width: 1; stroke-dasharray: none; stroke-linecap: butt; stroke-dashoffset: 0; stroke-linejoin: miter; stroke-miterlimit: 4; fill: rgb(255,255,255); fill-rule: nonzero; opacity: 1;"  transform=" translate(-31.3, -22.87)" d="M 31.648438 22.871094 C 31.648438 23.0625 31.492188 23.21875 31.300781 23.21875 C 31.105469 23.21875 30.949219 23.0625 30.949219 22.871094 C 30.949219 22.679688 31.105469 22.523438 31.300781 22.523438 C 31.492188 22.523438 31.648438 22.679688 31.648438 22.871094 Z" stroke-linecap="round" />
</g>
<g transform="matrix(4.17 0 0 4.17 224.89 195.88)" id="surface1"  >
<path style="stroke: none; stroke-width: 1; stroke-dasharray: none; stroke-linecap: butt; stroke-dashoffset: 0; stroke-linejoin: miter; stroke-miterlimit: 4; fill: rgb(255,255,255); fill-rule: nonzero; opacity: 1;"  transform=" translate(-29.97, -23.01)" d="M 30.320313 23.011719 C 30.320313 23.203125 30.164063 23.359375 29.972656 23.359375 C 29.78125 23.359375 29.625 23.203125 29.625 23.011719 C 29.625 22.820313 29.78125 22.664063 29.972656 22.664063 C 30.164063 22.664063 30.320313 22.820313 30.320313 23.011719 Z" stroke-linecap="round" />
</g>
<g transform="matrix(4.17 0 0 4.17 223.85 221.54)" id="surface1"  >
<path style="stroke: none; stroke-width: 1; stroke-dasharray: none; stroke-linecap: butt; stroke-dashoffset: 0; stroke-linejoin: miter; stroke-miterlimit: 4; fill: rgb(255,255,255); fill-rule: nonzero; opacity: 1;"  transform=" translate(-29.72, -29.17)" d="M 30.21875 29.171875 C 30.21875 29.441406 29.996094 29.664063 29.722656 29.664063 C 29.449219 29.664063 29.230469 29.441406 29.230469 29.171875 C 29.230469 28.898438 29.449219 28.675781 29.722656 28.675781 C 29.996094 28.675781 30.21875 28.898438 30.21875 29.171875 Z" stroke-linecap="round" />
</g>
<g transform="matrix(4.17 0 0 4.17 222.86 229.09)" id="surface1"  >
<path style="stroke: none; stroke-width: 1; stroke-dasharray: none; stroke-linecap: butt; stroke-dashoffset: 0; stroke-linejoin: miter; stroke-miterlimit: 4; fill: rgb(255,255,255); fill-rule: nonzero; opacity: 1;"  transform=" translate(-29.49, -30.98)" d="M 29.980469 30.980469 C 29.980469 31.253906 29.761719 31.476563 29.488281 31.476563 C 29.214844 31.476563 28.992188 31.253906 28.992188 30.980469 C 28.992188 30.710938 29.214844 30.488281 29.488281 30.488281 C 29.761719 30.488281 29.980469 30.710938 29.980469 30.980469 Z" stroke-linecap="round" />
</g>
<g transform="matrix(4.17 0 0 4.17 223.3 236.09)" id="surface1"  >
<path style="stroke: none; stroke-width: 1; stroke-dasharray: none; stroke-linecap: butt; stroke-dashoffset: 0; stroke-linejoin: miter; stroke-miterlimit: 4; fill: rgb(255,255,255); fill-rule: nonzero; opacity: 1;"  transform=" translate(-29.59, -32.66)" d="M 30.085938 32.664063 C 30.085938 32.9375 29.863281 33.15625 29.59375 33.15625 C 29.320313 33.15625 29.097656 32.9375 29.097656 32.664063 C 29.097656 32.390625 29.320313 32.167969 29.59375 32.167969 C 29.863281 32.167969 30.085938 32.390625 30.085938 32.664063 Z" stroke-linecap="round" />
</g>
<g transform="matrix(4.17 0 0 4.17 224.5 243.53)" id="surface1"  >
<path style="stroke: none; stroke-width: 1; stroke-dasharray: none; stroke-linecap: butt; stroke-dashoffset: 0; stroke-linejoin: miter; stroke-miterlimit: 4; fill: rgb(255,255,255); fill-rule: nonzero; opacity: 1;"  transform=" translate(-29.88, -34.45)" d="M 30.375 34.449219 C 30.375 34.722656 30.152344 34.941406 29.882813 34.941406 C 29.609375 34.941406 29.386719 34.722656 29.386719 34.449219 C 29.386719 34.175781 29.609375 33.953125 29.882813 33.953125 C 30.152344 33.953125 30.375 34.175781 30.375 34.449219 Z" stroke-linecap="round" />
</g>
<g transform="matrix(4.17 0 0 4.17 225.94 250.11)" id="surface1"  >
<path style="stroke: none; stroke-width: 1; stroke-dasharray: none; stroke-linecap: butt; stroke-dashoffset: 0; stroke-linejoin: miter; stroke-miterlimit: 4; fill: rgb(255,255,255); fill-rule: nonzero; opacity: 1;"  transform=" translate(-30.22, -36.03)" d="M 30.71875 36.023438 C 30.71875 36.296875 30.496094 36.519531 30.222656 36.519531 C 29.949219 36.519531 29.730469 36.296875 29.730469 36.023438 C 29.730469 35.75 29.949219 35.53125 30.222656 35.53125 C 30.496094 35.53125 30.71875 35.75 30.71875 36.023438 Z" stroke-linecap="round" />
</g>
<g transform="matrix(4.17 0 0 4.17 218.48 252.08)" id="surface1"  >
<path style="stroke: none; stroke-width: 1; stroke-dasharray: none; stroke-linecap: butt; stroke-dashoffset: 0; stroke-linejoin: miter; stroke-miterlimit: 4; fill: rgb(255,255,255); fill-rule: nonzero; opacity: 1;"  transform=" translate(-28.44, -36.5)" d="M 28.929688 36.496094 C 28.929688 36.769531 28.710938 36.992188 28.4375 36.992188 C 28.164063 36.992188 27.941406 36.769531 27.941406 36.496094 C 27.941406 36.222656 28.164063 36.003906 28.4375 36.003906 C 28.710938 36.003906 28.929688 36.222656 28.929688 36.496094 Z" stroke-linecap="round" />
</g>
<g transform="matrix(4.17 0 0 4.17 209.3 252.4)" id="surface1"  >
<path style="stroke: none; stroke-width: 1; stroke-dasharray: none; stroke-linecap: butt; stroke-dashoffset: 0; stroke-linejoin: miter; stroke-miterlimit: 4; fill: rgb(255,255,255); fill-rule: nonzero; opacity: 1;"  transform=" translate(-26.23, -36.58)" d="M 26.726563 36.574219 C 26.726563 36.847656 26.503906 37.070313 26.230469 37.070313 C 25.957031 37.070313 25.738281 36.847656 25.738281 36.574219 C 25.738281 36.300781 25.957031 36.082031 26.230469 36.082031 C 26.503906 36.082031 26.726563 36.300781 26.726563 36.574219 Z" stroke-linecap="round" />
</g>
<g transform="matrix(4.17 0 0 4.17 201.96 250.97)" id="surface1"  >
<path style="stroke: none; stroke-width: 1; stroke-dasharray: none; stroke-linecap: butt; stroke-dashoffset: 0; stroke-linejoin: miter; stroke-miterlimit: 4; fill: rgb(255,255,255); fill-rule: nonzero; opacity: 1;"  transform=" translate(-24.47, -36.23)" d="M 24.964844 36.234375 C 24.964844 36.507813 24.746094 36.726563 24.472656 36.726563 C 24.199219 36.726563 23.976563 36.507813 23.976563 36.234375 C 23.976563 35.960938 24.199219 35.738281 24.472656 35.738281 C 24.746094 35.738281 24.964844 35.960938 24.964844 36.234375 Z" stroke-linecap="round" />
</g>
<g transform="matrix(4.17 0 0 4.17 193.73 248.9)" id="surface1"  >
<path style="stroke: none; stroke-width: 1; stroke-dasharray: none; stroke-linecap: butt; stroke-dashoffset: 0; stroke-linejoin: miter; stroke-miterlimit: 4; fill: rgb(255,255,255); fill-rule: nonzero; opacity: 1;"  transform=" translate(-22.5, -35.74)" d="M 22.988281 35.734375 C 22.988281 36.007813 22.769531 36.230469 22.496094 36.230469 C 22.222656 36.230469 22.003906 36.007813 22.003906 35.734375 C 22.003906 35.464844 22.222656 35.242188 22.496094 35.242188 C 22.769531 35.242188 22.988281 35.464844 22.988281 35.734375 Z" stroke-linecap="round" />
</g>
<g transform="matrix(4.17 0 0 4.17 187.23 245.42)" id="surface1"  >
<path style="stroke: none; stroke-width: 1; stroke-dasharray: none; stroke-linecap: butt; stroke-dashoffset: 0; stroke-linejoin: miter; stroke-miterlimit: 4; fill: rgb(255,255,255); fill-rule: nonzero; opacity: 1;"  transform=" translate(-20.94, -34.9)" d="M 21.429688 34.898438 C 21.429688 35.171875 21.207031 35.394531 20.9375 35.394531 C 20.664063 35.394531 20.441406 35.171875 20.441406 34.898438 C 20.441406 34.625 20.664063 34.40625 20.9375 34.40625 C 21.207031 34.40625 21.429688 34.625 21.429688 34.898438 Z" stroke-linecap="round" />
</g>
<g transform="matrix(4.17 0 0 4.17 181.09 239.87)" id="surface1"  >
<path style="stroke: none; stroke-width: 1; stroke-dasharray: none; stroke-linecap: butt; stroke-dashoffset: 0; stroke-linejoin: miter; stroke-miterlimit: 4; fill: rgb(255,255,255); fill-rule: nonzero; opacity: 1;"  transform=" translate(-19.46, -33.57)" d="M 19.953125 33.570313 C 19.953125 33.84375 19.734375 34.0625 19.460938 34.0625 C 19.1875 34.0625 18.96875 33.84375 18.96875 33.570313 C 18.96875 33.296875 19.1875 33.074219 19.460938 33.074219 C 19.734375 33.074219 19.953125 33.296875 19.953125 33.570313 Z" stroke-linecap="round" />
</g>
<g transform="matrix(4.17 0 0 4.17 179.17 233.13)" id="surface1"  >
<path style="stroke: none; stroke-width: 1; stroke-dasharray: none; stroke-linecap: butt; stroke-dashoffset: 0; stroke-linejoin: miter; stroke-miterlimit: 4; fill: rgb(255,255,255); fill-rule: nonzero; opacity: 1;"  transform=" translate(-19, -31.95)" d="M 19.496094 31.953125 C 19.496094 32.226563 19.273438 32.445313 19 32.445313 C 18.726563 32.445313 18.507813 32.226563 18.507813 31.953125 C 18.507813 31.679688 18.726563 31.457031 19 31.457031 C 19.273438 31.457031 19.496094 31.679688 19.496094 31.953125 Z" stroke-linecap="round" />
</g>
<g transform="matrix(4.17 0 0 4.17 178.33 225.56)" id="surface1"  >
<path style="stroke: none; stroke-width: 1; stroke-dasharray: none; stroke-linecap: butt; stroke-dashoffset: 0; stroke-linejoin: miter; stroke-miterlimit: 4; fill: rgb(255,255,255); fill-rule: nonzero; opacity: 1;"  transform=" translate(-18.8, -30.13)" d="M 19.292969 30.132813 C 19.292969 30.40625 19.070313 30.628906 18.796875 30.628906 C 18.523438 30.628906 18.304688 30.40625 18.304688 30.132813 C 18.304688 29.859375 18.523438 29.640625 18.796875 29.640625 C 19.070313 29.640625 19.292969 29.859375 19.292969 30.132813 Z" stroke-linecap="round" />
</g>
<g transform="matrix(4.17 0 0 4.17 179.4 218.69)" id="surface1"  >
<path style="stroke: none; stroke-width: 1; stroke-dasharray: none; stroke-linecap: butt; stroke-dashoffset: 0; stroke-linejoin: miter; stroke-miterlimit: 4; fill: rgb(255,255,255); fill-rule: nonzero; opacity: 1;"  transform=" translate(-19.06, -28.49)" d="M 19.550781 28.484375 C 19.550781 28.757813 19.332031 28.980469 19.058594 28.980469 C 18.785156 28.980469 18.5625 28.757813 18.5625 28.484375 C 18.5625 28.214844 18.785156 27.992188 19.058594 27.992188 C 19.332031 27.992188 19.550781 28.214844 19.550781 28.484375 Z" stroke-linecap="round" />
</g>
<g transform="matrix(4.17 0 0 4.17 183.02 211.47)" id="surface1"  >
<path style="stroke: none; stroke-width: 1; stroke-dasharray: none; stroke-linecap: butt; stroke-dashoffset: 0; stroke-linejoin: miter; stroke-miterlimit: 4; fill: rgb(255,255,255); fill-rule: nonzero; opacity: 1;"  transform=" translate(-19.92, -26.75)" d="M 20.417969 26.753906 C 20.417969 27.027344 20.199219 27.246094 19.925781 27.246094 C 19.652344 27.246094 19.429688 27.027344 19.429688 26.753906 C 19.429688 26.480469 19.652344 26.257813 19.925781 26.257813 C 20.199219 26.257813 20.417969 26.480469 20.417969 26.753906 Z" stroke-linecap="round" />
</g>
<g transform="matrix(4.17 0 0 4.17 187.83 206.05)" id="surface1"  >
<path style="stroke: none; stroke-width: 1; stroke-dasharray: none; stroke-linecap: butt; stroke-dashoffset: 0; stroke-linejoin: miter; stroke-miterlimit: 4; fill: rgb(255,255,255); fill-rule: nonzero; opacity: 1;"  transform=" translate(-21.08, -25.45)" d="M 21.574219 25.453125 C 21.574219 25.726563 21.351563 25.945313 21.078125 25.945313 C 20.808594 25.945313 20.585938 25.726563 20.585938 25.453125 C 20.585938 25.179688 20.808594 24.960938 21.078125 24.960938 C 21.351563 24.960938 21.574219 25.179688 21.574219 25.453125 Z" stroke-linecap="round" />
</g>
<g transform="matrix(4.17 0 0 4.17 200.98 203.49)" id="surface1"  >
<path style="stroke: none; stroke-width: 1; stroke-dasharray: none; stroke-linecap: butt; stroke-dashoffset: 0; stroke-linejoin: miter; stroke-miterlimit: 4; fill: rgb(255,255,255); fill-rule: nonzero; opacity: 1;"  transform=" translate(-24.24, -24.84)" d="M 24.730469 24.835938 C 24.730469 25.109375 24.507813 25.332031 24.234375 25.332031 C 23.960938 25.332031 23.742188 25.109375 23.742188 24.835938 C 23.742188 24.5625 23.960938 24.34375 24.234375 24.34375 C 24.507813 24.34375 24.730469 24.5625 24.730469 24.835938 Z" stroke-linecap="round" />
</g>
<g transform="matrix(4.17 0 0 4.17 201.96 195.17)" id="surface1"  >
<path style="stroke: none; stroke-width: 1; stroke-dasharray: none; stroke-linecap: butt; stroke-dashoffset: 0; stroke-linejoin: miter; stroke-miterlimit: 4; fill: rgb(255,255,255); fill-rule: nonzero; opacity: 1;"  transform=" translate(-24.47, -22.84)" d="M 24.964844 22.839844 C 24.964844 23.113281 24.746094 23.335938 24.472656 23.335938 C 24.199219 23.335938 23.976563 23.113281 23.976563 22.839844 C 23.976563 22.566406 24.199219 22.347656 24.472656 22.347656 C 24.746094 22.347656 24.964844 22.566406 24.964844 22.839844 Z" stroke-linecap="round" />
</g>
<g transform="matrix(4.17 0 0 4.17 203.28 187.41)" id="surface1"  >
<path style="stroke: none; stroke-width: 1; stroke-dasharray: none; stroke-linecap: butt; stroke-dashoffset: 0; stroke-linejoin: miter; stroke-miterlimit: 4; fill: rgb(255,255,255); fill-rule: nonzero; opacity: 1;"  transform=" translate(-24.79, -20.98)" d="M 25.28125 20.976563 C 25.28125 21.25 25.058594 21.472656 24.785156 21.472656 C 24.515625 21.472656 24.292969 21.25 24.292969 20.976563 C 24.292969 20.703125 24.515625 20.484375 24.785156 20.484375 C 25.058594 20.484375 25.28125 20.703125 25.28125 20.976563 Z" stroke-linecap="round" />
</g>
<g transform="matrix(4.17 0 0 4.17 205.46 180.73)" id="surface1"  >
<path style="stroke: none; stroke-width: 1; stroke-dasharray: none; stroke-linecap: butt; stroke-dashoffset: 0; stroke-linejoin: miter; stroke-miterlimit: 4; fill: rgb(255,255,255); fill-rule: nonzero; opacity: 1;"  transform=" translate(-25.31, -19.38)" d="M 25.804688 19.375 C 25.804688 19.648438 25.585938 19.867188 25.3125 19.867188 C 25.039063 19.867188 24.816406 19.648438 24.816406 19.375 C 24.816406 19.101563 25.039063 18.882813 25.3125 18.882813 C 25.585938 18.882813 25.804688 19.101563 25.804688 19.375 Z" stroke-linecap="round" />
</g>
<g transform="matrix(4.17 0 0 4.17 208.31 174.82)" id="surface1"  >
<path style="stroke: none; stroke-width: 1; stroke-dasharray: none; stroke-linecap: butt; stroke-dashoffset: 0; stroke-linejoin: miter; stroke-miterlimit: 4; fill: rgb(255,255,255); fill-rule: nonzero; opacity: 1;"  transform=" translate(-25.99, -17.96)" d="M 26.488281 17.957031 C 26.488281 18.230469 26.269531 18.449219 25.996094 18.449219 C 25.722656 18.449219 25.5 18.230469 25.5 17.957031 C 25.5 17.683594 25.722656 17.464844 25.996094 17.464844 C 26.269531 17.464844 26.488281 17.683594 26.488281 17.957031 Z" stroke-linecap="round" />
</g>
<g transform="matrix(4.17 0 0 4.17 211.92 169.57)" id="surface1"  >
<path style="stroke: none; stroke-width: 1; stroke-dasharray: none; stroke-linecap: butt; stroke-dashoffset: 0; stroke-linejoin: miter; stroke-miterlimit: 4; fill: rgb(255,255,255); fill-rule: nonzero; opacity: 1;"  transform=" translate(-26.86, -16.7)" d="M 27.355469 16.695313 C 27.355469 16.96875 27.132813 17.191406 26.859375 17.191406 C 26.589844 17.191406 26.367188 16.96875 26.367188 16.695313 C 26.367188 16.425781 26.589844 16.203125 26.859375 16.203125 C 27.132813 16.203125 27.355469 16.425781 27.355469 16.695313 Z" stroke-linecap="round" />
</g>
<g transform="matrix(4.17 0 0 4.17 219.23 165.05)" id="surface1"  >
<path style="stroke: none; stroke-width: 1; stroke-dasharray: none; stroke-linecap: butt; stroke-dashoffset: 0; stroke-linejoin: miter; stroke-miterlimit: 4; fill: rgb(255,255,255); fill-rule: nonzero; opacity: 1;"  transform=" translate(-28.62, -15.61)" d="M 29.109375 15.613281 C 29.109375 15.886719 28.886719 16.105469 28.613281 16.105469 C 28.339844 16.105469 28.121094 15.886719 28.121094 15.613281 C 28.121094 15.339844 28.339844 15.117188 28.613281 15.117188 C 28.886719 15.117188 29.109375 15.339844 29.109375 15.613281 Z" stroke-linecap="round" />
</g>
</svg>