<?xml version="1.0" encoding="UTF-8" standalone="no" ?>
<!DOCTYPE svg PUBLIC "-//W3C//DTD SVG 1.1//EN" "http://www.w3.org/Graphics/SVG/1.1/DTD/svg11.dtd">
<svg xmlns="http://www.w3.org/2000/svg" xmlns:xlink="http://www.w3.org/1999/xlink" version="1.1" width="400" height="400" viewBox="0 0 400 400" xml:space="preserve">
<desc>Created with Fabric.js 3.6.2</desc>
<defs>
</defs>
<g transform="matrix(4.17 0 0 4.17 191.66 233.23)" id="Layer_1"  >
<path style="stroke: none; stroke-width: 1; stroke-dasharray: none; stroke-linecap: butt; stroke-dashoffset: 0; stroke-linejoin: miter; stroke-miterlimit: 4; fill: rgb(189,189,189); fill-rule: nonzero; opacity: 1;"  transform=" translate(-22, -31.98)" d="M 9.107 34.23 c -0.698 -3.406 1.918 -10.279 10.55 -10.279 c 6.197 0 8.628 3.738 15.342 1.869 c 0 0 -1.101 12.157 -13.498 14.017 C 16.672 40.562 10.064 38.902 9.107 34.23 z" stroke-linecap="round" />
</g>
<g transform="matrix(4.17 0 0 4.17 200 197.92)" id="Layer_1"  >
<path style="stroke: none; stroke-width: 1; stroke-dasharray: none; stroke-linecap: butt; stroke-dashoffset: 0; stroke-linejoin: miter; stroke-miterlimit: 4; fill: rgb(224,224,224); fill-rule: nonzero; opacity: 1;"  transform=" translate(-24, -23.5)" d="M 45 31.31 C 45 34.238 38.318 44 23.045 44 C 11.591 44 3 40.095 3 30.333 c 0 -4.393 3.863 -7.512 5.727 -9.762 C 15 13 12.555 9.843 12.545 9.833 c -0.067 0.098 -0.955 1.952 -3.818 1.952 c -2.463 0 -2.864 -2.929 -2.864 -3.905 C 5.864 4.952 8.727 3 11.591 3 C 15.409 3 17 6.119 17 11 c 0 7.087 -7.557 14.794 -3.28 19.119 c 0.43 0.43 0.983 0.83 1.69 1.191 l 17.182 -2.929 l 6.825 1.611 L 45 31.31 z" stroke-linecap="round" />
</g>
<g transform="matrix(4.17 0 0 4.17 212.59 245.18)" id="Layer_1"  >
<path style="stroke: none; stroke-width: 1; stroke-dasharray: none; stroke-linecap: butt; stroke-dashoffset: 0; stroke-linejoin: miter; stroke-miterlimit: 4; fill: rgb(189,189,189); fill-rule: nonzero; opacity: 1;"  transform=" translate(-27.02, -34.84)" d="M 40 30.248 c -1.302 3.75 -4.568 9.366 -12.612 10.588 c -4.798 0.729 -11.99 -0.786 -13.283 -8.466 c -0.105 -0.653 -0.077 -1.335 0.115 -1.998 c 0.431 0.417 0.986 0.805 1.695 1.155 l 17.238 -2.841 L 40 30.248 z" stroke-linecap="round" />
</g>
<g transform="matrix(4.17 0 0 4.17 133.51 135.91)" id="Layer_1"  >
<path style="stroke: none; stroke-width: 1; stroke-dasharray: none; stroke-linecap: butt; stroke-dashoffset: 0; stroke-linejoin: miter; stroke-miterlimit: 4; fill: rgb(33,33,33); fill-rule: nonzero; opacity: 1;"  transform=" translate(-8.04, -8.62)" d="M 10.497 6.762 c 0.186 -0.191 0.186 -0.5 0 -0.69 c -0.186 -0.191 -0.489 -0.191 -0.675 0 c -0.091 0.092 -0.129 0.086 -0.398 0.48 C 6.818 6.447 5.883 7.478 5.883 7.478 c -0.974 1.44 -0.059 2.355 0.336 2.355 c 1.906 0.542 3.463 1.476 3.463 1.476 C 9.119 8.302 9.801 7.472 9.975 7.195 C 10.224 7.002 10.433 6.827 10.497 6.762 z" stroke-linecap="round" />
</g>
<g transform="matrix(4.17 0 0 4.17 128.53 147.92)" id="Layer_1"  >
<path style="stroke: none; stroke-width: 1; stroke-dasharray: none; stroke-linecap: butt; stroke-dashoffset: 0; stroke-linejoin: miter; stroke-miterlimit: 4; fill: rgb(229,115,115); fill-rule: nonzero; opacity: 1;"  transform=" translate(-6.85, -11.5)" d="M 6.515 8 c 0 0 2.367 1.139 3.166 3.309 C 5.285 14.568 5.299 14.269 4.564 15 c 0 0 -1.123 -0.59 -0.16 -1.771 s 0.894 -1.747 2.052 -4.011 C 6.456 9.218 6.195 8.295 6.515 8 z" stroke-linecap="round" />
</g>
<g transform="matrix(4.17 0 0 4.17 212.5 227.08)" id="Layer_1"  >
<path style="stroke: none; stroke-width: 1; stroke-dasharray: none; stroke-linecap: butt; stroke-dashoffset: 0; stroke-linejoin: miter; stroke-miterlimit: 4; fill: rgb(224,224,224); fill-rule: nonzero; opacity: 1;"  transform=" translate(-27, -30.5)" d="M 14.107 32.888 C 13.41 29.281 16.025 22 24.658 22 c 6.197 0 8.628 3.959 15.342 1.98 c 0 0 -1.101 12.878 -13.498 14.848 C 21.672 39.595 15.064 37.837 14.107 32.888 z" stroke-linecap="round" />
</g>
<g transform="matrix(4.17 0 0 4.17 202.88 225.69)" id="Layer_1"  >
<path style="stroke: none; stroke-width: 1; stroke-dasharray: none; stroke-linecap: butt; stroke-dashoffset: 0; stroke-linejoin: miter; stroke-miterlimit: 4; fill: rgb(238,238,238); fill-rule: nonzero; opacity: 1;"  transform=" translate(-24.69, -30.16)" d="M 35.38 24.47 c -2.34 3.95 -4.16 8.86 -15.59 13.86 c -2.81 -0.87 -5.14 -2.64 -5.68 -5.44 C 13.41 29.28 16.03 22 24.66 22 C 29.2 22 31.72 24.12 35.38 24.47 z" stroke-linecap="round" />
</g>
</svg>