<?xml version="1.0" encoding="UTF-8" standalone="no" ?>
<!DOCTYPE svg PUBLIC "-//W3C//DTD SVG 1.1//EN" "http://www.w3.org/Graphics/SVG/1.1/DTD/svg11.dtd">
<svg xmlns="http://www.w3.org/2000/svg" xmlns:xlink="http://www.w3.org/1999/xlink" version="1.1" width="400" height="400" viewBox="0 0 400 400" xml:space="preserve">
<desc>Created with Fabric.js 3.6.2</desc>
<defs>
</defs>
<g transform="matrix(4.17 0 0 4.17 199.8 242.08)" id="surface1"  >
<path style="stroke: none; stroke-width: 1; stroke-dasharray: none; stroke-linecap: butt; stroke-dashoffset: 0; stroke-linejoin: miter; stroke-miterlimit: 4; fill: rgb(0,105,92); fill-rule: nonzero; opacity: 1;"  transform=" translate(-23.95, -34.1)" d="M 29.4 35.4 c -1.9 -2 -2.5 -3.4 -2.5 -3.4 s -1.8 -2.8 -0.2 -4.8 l -5.4 0 c 1.7 2 -0.2 4.8 -0.2 4.8 s -0.6 1.4 -2.6 3.5 c -0.1 -0.3 0.2 0.7 0.4 1.5 c 1 3 3 4 5 4 s 4 -1 5 -4 C 29.3 36.2 29.5 35.1 29.4 35.4 z" stroke-linecap="round" />
</g>
<g transform="matrix(4.17 0 0 4.17 244.36 212.55)" id="surface1"  >
<path style="stroke: none; stroke-width: 1; stroke-dasharray: none; stroke-linecap: butt; stroke-dashoffset: 0; stroke-linejoin: miter; stroke-miterlimit: 4; fill: rgb(69,90,100); fill-rule: nonzero; opacity: 1;"  transform=" translate(-34.65, -27.01)" d="M 41 33 c -0.3 0 -0.6 -0.2 -0.8 -0.4 l -3.8 -5.8 l -8.7 -3.9 c -0.5 -0.2 -0.7 -0.8 -0.5 -1.3 c 0.2 -0.5 0.8 -0.7 1.3 -0.5 l 9.3 4.1 l 4.2 6.2 c 0.3 0.5 0.2 1.1 -0.3 1.4 C 41.4 32.9 41.2 33 41 33 z" stroke-linecap="round" />
</g>
<g transform="matrix(4.17 0 0 4.17 231.28 143.72)" id="surface1"  >
<path style="stroke: none; stroke-width: 1; stroke-dasharray: none; stroke-linecap: butt; stroke-dashoffset: 0; stroke-linejoin: miter; stroke-miterlimit: 4; fill: rgb(69,90,100); fill-rule: nonzero; opacity: 1;"  transform=" translate(-31.51, -10.49)" d="M 29 17 c -0.3 0 -0.5 -0.1 -0.7 -0.3 c -0.4 -0.4 -0.4 -1 0 -1.4 l 3.8 -3.8 l 1 -6.7 c 0.1 -0.5 0.6 -0.9 1.1 -0.8 c 0.5 0.1 0.9 0.6 0.8 1.1 l -1 7.3 l -4.2 4.2 C 29.5 16.9 29.3 17 29 17 z" stroke-linecap="round" />
</g>
<g transform="matrix(4.17 0 0 4.17 245.8 162.5)" id="surface1"  >
<path style="stroke: none; stroke-width: 1; stroke-dasharray: none; stroke-linecap: butt; stroke-dashoffset: 0; stroke-linejoin: miter; stroke-miterlimit: 4; fill: rgb(69,90,100); fill-rule: nonzero; opacity: 1;"  transform=" translate(-34.99, -15)" d="M 28 22 c -0.5 0 -0.9 -0.4 -1 -0.9 c -0.1 -0.5 0.3 -1.1 0.8 -1.1 l 6.4 -0.9 l 1.9 -5.6 l 5.2 -5.2 c 0.4 -0.4 1 -0.4 1.4 0 s 0.4 1 0 1.4 l -4.8 4.8 l -2.1 6.4 L 28.1 22 C 28.1 22 28 22 28 22 z" stroke-linecap="round" />
</g>
<g transform="matrix(4.17 0 0 4.17 156.06 212.55)" id="surface1"  >
<path style="stroke: none; stroke-width: 1; stroke-dasharray: none; stroke-linecap: butt; stroke-dashoffset: 0; stroke-linejoin: miter; stroke-miterlimit: 4; fill: rgb(69,90,100); fill-rule: nonzero; opacity: 1;"  transform=" translate(-13.45, -27.01)" d="M 7 33 c -0.2 0 -0.4 -0.1 -0.6 -0.2 c -0.5 -0.3 -0.6 -0.9 -0.3 -1.4 l 4.2 -6.2 l 9.3 -4.1 c 0.5 -0.2 1.1 0 1.3 0.5 s 0 1.1 -0.5 1.3 l -8.7 3.9 l -3.8 5.8 C 7.6 32.8 7.3 33 7 33 z" stroke-linecap="round" />
</g>
<g transform="matrix(4.17 0 0 4.17 169.13 143.93)" id="surface1"  >
<path style="stroke: none; stroke-width: 1; stroke-dasharray: none; stroke-linecap: butt; stroke-dashoffset: 0; stroke-linejoin: miter; stroke-miterlimit: 4; fill: rgb(69,90,100); fill-rule: nonzero; opacity: 1;"  transform=" translate(-16.59, -10.54)" d="M 19 17 c -0.3 0 -0.5 -0.1 -0.7 -0.3 l -4.2 -4.2 l -1 -7.3 c -0.1 -0.5 0.3 -1.1 0.8 -1.1 c 0.5 -0.1 1.1 0.3 1.1 0.8 l 1 6.7 l 3.8 3.8 c 0.4 0.4 0.4 1 0 1.4 C 19.5 16.9 19.3 17 19 17 z" stroke-linecap="round" />
</g>
<g transform="matrix(4.17 0 0 4.17 154.2 162.5)" id="surface1"  >
<path style="stroke: none; stroke-width: 1; stroke-dasharray: none; stroke-linecap: butt; stroke-dashoffset: 0; stroke-linejoin: miter; stroke-miterlimit: 4; fill: rgb(69,90,100); fill-rule: nonzero; opacity: 1;"  transform=" translate(-13.01, -15)" d="M 20 22 c 0 0 -0.1 0 -0.1 0 l -7.6 -1.1 l -2.1 -6.4 L 5.3 9.7 c -0.4 -0.4 -0.4 -1 0 -1.4 s 1 -0.4 1.4 0 l 5.2 5.2 l 1.9 5.6 l 6.4 0.9 c 0.5 0.1 0.9 0.6 0.8 1.1 C 20.9 21.6 20.5 22 20 22 z" stroke-linecap="round" />
</g>
<g transform="matrix(4.17 0 0 4.17 200 222.33)" id="surface1"  >
<path style="stroke: none; stroke-width: 1; stroke-dasharray: none; stroke-linecap: butt; stroke-dashoffset: 0; stroke-linejoin: miter; stroke-miterlimit: 4; fill: rgb(144,202,249); fill-rule: nonzero; opacity: 1;"  transform=" translate(-24, -29.36)" d="M 29 16.7 c 0 0 9.1 11 11 16.8 c 2 6 1 10 -2 8 C 29 37 26.9 32 26.9 32 s -2 -3 0 -5 M 19 16.7 c 0 0 -9.1 11 -11 16.8 c -2 6 -1 10 2 8 C 19 37 21.1 32 21.1 32 s 2 -3 0 -5" stroke-linecap="round" />
</g>
<g transform="matrix(4.17 0 0 4.17 200 191.67)" id="surface1"  >
<path style="stroke: none; stroke-width: 1; stroke-dasharray: none; stroke-linecap: butt; stroke-dashoffset: 0; stroke-linejoin: miter; stroke-miterlimit: 4; fill: rgb(0,121,107); fill-rule: nonzero; opacity: 1;"  transform=" translate(-24, -22)" d="M 29 24 c -1 3 -3 6 -5 6 s -4 -3 -5 -6 s -1 -6 -1 -6 s 0.4 -4 5 -4 c 0.4 0 1.7 0 2 0 c 4.6 0 5 4 5 4 S 30 21 29 24 z" stroke-linecap="round" />
</g>
<g transform="matrix(4.17 0 0 4.17 200.42 247.29)" id="surface1"  >
<path style="stroke: none; stroke-width: 1; stroke-dasharray: none; stroke-linecap: butt; stroke-dashoffset: 0; stroke-linejoin: miter; stroke-miterlimit: 4; fill: rgb(0,77,64); fill-rule: nonzero; opacity: 1;"  transform=" translate(-24.1, -35.35)" d="M 18.3 34 c 0.1 0.7 0.3 1.4 0.5 2.1 c 1.7 0.4 3.4 0.6 5.3 0.6 c 1.8 0 3.6 -0.2 5.3 -0.6 c 0.2 -0.8 0.4 -1.5 0.5 -2.1 c -1.8 0.5 -3.7 0.7 -5.7 0.7 C 22 34.7 20 34.5 18.3 34 z" stroke-linecap="round" />
</g>
<g transform="matrix(4.17 0 0 4.17 200 200.83)" id="surface1"  >
<path style="stroke: none; stroke-width: 1; stroke-dasharray: none; stroke-linecap: butt; stroke-dashoffset: 0; stroke-linejoin: miter; stroke-miterlimit: 4; fill: rgb(0,77,64); fill-rule: nonzero; opacity: 1;"  transform=" translate(-24, -24.2)" d="M 18.9 23.5 c 0 0.1 0.1 0.3 0.1 0.5 c 0.2 0.5 0.4 1 0.6 1.4 C 21 25.2 22.5 25 24 25 c 1.6 0 3 0.2 4.4 0.4 c 0.2 -0.5 0.4 -1 0.6 -1.4 c 0.1 -0.2 0.1 -0.3 0.1 -0.5 C 27.5 23.2 25.8 23 24 23 S 20.5 23.2 18.9 23.5 z" stroke-linecap="round" />
</g>
<g transform="matrix(4.17 0 0 4.17 200 180.63)" id="surface1"  >
<path style="stroke: none; stroke-width: 1; stroke-dasharray: none; stroke-linecap: butt; stroke-dashoffset: 0; stroke-linejoin: miter; stroke-miterlimit: 4; fill: rgb(0,77,64); fill-rule: nonzero; opacity: 1;"  transform=" translate(-24, -19.35)" d="M 18 18.8 c 0 0.5 0.1 1.2 0.2 2 C 20 20.3 22 20 24 20 s 4 0.3 5.8 0.7 c 0.1 -0.8 0.2 -1.5 0.2 -2 c -1.9 -0.5 -3.9 -0.8 -6 -0.8 S 19.9 18.3 18 18.8 z" stroke-linecap="round" />
</g>
<g transform="matrix(4.17 0 0 4.17 199.38 227.08)" id="surface1"  >
<path style="stroke: none; stroke-width: 1; stroke-dasharray: none; stroke-linecap: butt; stroke-dashoffset: 0; stroke-linejoin: miter; stroke-miterlimit: 4; fill: rgb(0,77,64); fill-rule: nonzero; opacity: 1;"  transform=" translate(-23.85, -30.5)" d="M 26 29.1 C 26 29 26 29 26 29.1 c -0.6 0.6 -1.3 0.9 -2 0.9 s -1.4 -0.4 -2.1 -1 c 0 0 0 0 0 0 c 0 1.1 -0.4 2.1 -0.7 2.6 c 0.9 0.2 1.8 0.4 2.7 0.4 c 0.9 0 1.8 -0.1 2.6 -0.4 C 26.4 31 26 30.1 26 29.1 z" stroke-linecap="round" />
</g>
<g transform="matrix(4.17 0 0 4.17 200 147.92)" id="surface1"  >
<path style="stroke: none; stroke-width: 1; stroke-dasharray: none; stroke-linecap: butt; stroke-dashoffset: 0; stroke-linejoin: miter; stroke-miterlimit: 4; fill: rgb(0,77,64); fill-rule: nonzero; opacity: 1;"  transform=" translate(-24, -11.5)" d="M 29 12 c 0 1 -3 2 -5 2 s -5 -1 -5 -2 v 0 c 0 -1.7 1.3 -3 3 -3 h 4 C 27.7 9 29 10.3 29 12 L 29 12 z" stroke-linecap="round" />
</g>
<g transform="matrix(4.17 0 0 4.17 200 141.67)" id="surface1"  >
<path style="stroke: none; stroke-width: 1; stroke-dasharray: none; stroke-linecap: butt; stroke-dashoffset: 0; stroke-linejoin: miter; stroke-miterlimit: 4; fill: rgb(0,77,64); fill-rule: nonzero; opacity: 1;"  transform=" translate(-24, -10)" d="M 27 10 c 0 1.7 -1.3 3 -3 3 s -3 -1.3 -3 -3 s 1.3 -3 3 -3 S 27 8.3 27 10 z" stroke-linecap="round" />
</g>
<g transform="matrix(4.17 0 0 4.17 183.54 231.04)" id="surface1"  >
<path style="stroke: none; stroke-width: 1; stroke-dasharray: none; stroke-linecap: butt; stroke-dashoffset: 0; stroke-linejoin: miter; stroke-miterlimit: 4; fill: rgb(66,165,245); fill-rule: nonzero; opacity: 1;"  transform=" translate(-20.05, -31.45)" d="M 20.6 27.4 C 18.2 28.5 18 31 18 31 s 0 2 0.6 4.5 c 1.9 -2 2.6 -3.5 2.6 -3.5 s 0.9 -1.4 0.9 -2.9 C 21.5 28.6 21.1 28.1 20.6 27.4 z" stroke-linecap="round" />
</g>
<g transform="matrix(4.17 0 0 4.17 216.67 231.04)" id="surface1"  >
<path style="stroke: none; stroke-width: 1; stroke-dasharray: none; stroke-linecap: butt; stroke-dashoffset: 0; stroke-linejoin: miter; stroke-miterlimit: 4; fill: rgb(66,165,245); fill-rule: nonzero; opacity: 1;"  transform=" translate(-28, -31.45)" d="M 27.3 27.5 c -0.4 0.6 -0.9 1.2 -1.3 1.6 C 26 30.6 26.9 32 26.9 32 s 0.6 1.4 2.5 3.4 C 30 33 30 31 30 31 S 29.7 28.5 27.3 27.5 z" stroke-linecap="round" />
</g>
<g transform="matrix(4.17 0 0 4.17 212.5 146.88)" id="surface1"  >
<path style="stroke: none; stroke-width: 1; stroke-dasharray: none; stroke-linecap: butt; stroke-dashoffset: 0; stroke-linejoin: miter; stroke-miterlimit: 4; fill: rgb(244,67,54); fill-rule: nonzero; opacity: 1;"  transform=" translate(-27, -11.25)" d="M 29 11 c -0.2 -1.1 -0.9 -2 -2 -2 c 0 0 -0.1 0 -0.1 0 c -1 0.1 -1.9 0.9 -1.9 2 c 0 1 0.6 2.2 1.9 2.5 c 1.2 -0.4 2.1 -0.9 2.1 -1.5 h 0 C 29 11.7 29 11.4 29 11 z" stroke-linecap="round" />
</g>
<g transform="matrix(4.17 0 0 4.17 187.5 146.88)" id="surface1"  >
<path style="stroke: none; stroke-width: 1; stroke-dasharray: none; stroke-linecap: butt; stroke-dashoffset: 0; stroke-linejoin: miter; stroke-miterlimit: 4; fill: rgb(244,67,54); fill-rule: nonzero; opacity: 1;"  transform=" translate(-21, -11.25)" d="M 19 11 c 0.2 -1.1 0.9 -2 2 -2 c 0 0 0.1 0 0.1 0 c 1 0.1 1.9 0.9 1.9 2 c 0 1 -0.6 2.2 -1.9 2.5 C 19.9 13.1 19 12.6 19 12 h 0 C 19 11.7 19 11.4 19 11 z" stroke-linecap="round" />
</g>
</svg>