<?xml version="1.0" encoding="UTF-8" standalone="no" ?>
<!DOCTYPE svg PUBLIC "-//W3C//DTD SVG 1.1//EN" "http://www.w3.org/Graphics/SVG/1.1/DTD/svg11.dtd">
<svg xmlns="http://www.w3.org/2000/svg" xmlns:xlink="http://www.w3.org/1999/xlink" version="1.1" width="400" height="400" viewBox="0 0 400 400" xml:space="preserve">
<desc>Created with Fabric.js 3.6.2</desc>
<defs>
</defs>
<g transform="matrix(4.17 0 0 4.17 200 218.75)" id="surface1"  >
<path style="stroke: none; stroke-width: 1; stroke-dasharray: none; stroke-linecap: butt; stroke-dashoffset: 0; stroke-linejoin: miter; stroke-miterlimit: 4; fill: rgb(141,110,99); fill-rule: nonzero; opacity: 1;"  transform=" translate(-24, -28.5)" d="M 31 21 C 29.800781 18.199219 29.699219 17.800781 29 15.101563 C 28.898438 15.101563 28.800781 15 28.800781 15 C 27.398438 14.398438 25.898438 14 24 14 C 22.101563 14 20.601563 14.398438 19.199219 15 C 19.101563 15 19 15.101563 19 15.101563 C 18.199219 17.800781 18.199219 18.199219 17 21 C 10.398438 21 11 28.800781 11 31 C 11 36 20.699219 43 24 43 C 27.300781 43 37 36 37 31 C 37 28.800781 37.601563 21 31 21 Z" stroke-linecap="round" />
</g>
<g transform="matrix(4.17 0 0 4.17 200 212.5)" id="surface1"  >
<path style="stroke: none; stroke-width: 1; stroke-dasharray: none; stroke-linecap: butt; stroke-dashoffset: 0; stroke-linejoin: miter; stroke-miterlimit: 4; fill: rgb(33,33,33); fill-rule: nonzero; opacity: 1;"  transform=" translate(-24, -27)" d="M 30 25 C 31.101563 25 32 25.898438 32 27 C 32 28.101563 31.101563 29 30 29 C 28.898438 29 29 28.101563 29 27 C 29 25.898438 28.898438 25 30 25 Z M 16 27 C 16 28.101563 16.898438 29 18 29 C 19.101563 29 19 28.101563 19 27 C 19 25.898438 19.101563 25 18 25 C 16.898438 25 16 25.898438 16 27 Z" stroke-linecap="round" />
</g>
<g transform="matrix(4.17 0 0 4.17 200 239.58)" id="surface1"  >
<path style="stroke: none; stroke-width: 1; stroke-dasharray: none; stroke-linecap: butt; stroke-dashoffset: 0; stroke-linejoin: miter; stroke-miterlimit: 4; fill: rgb(33,33,33); fill-rule: nonzero; opacity: 1;"  transform=" translate(-24, -33.5)" d="M 24 30 L 31 33 C 31 33 26.398438 37 24 37 C 21.601563 37 17 33 17 33 Z" stroke-linecap="round" />
</g>
<g transform="matrix(4.17 0 0 4.17 200 233.33)" id="surface1"  >
<path style="stroke: none; stroke-width: 1; stroke-dasharray: none; stroke-linecap: butt; stroke-dashoffset: 0; stroke-linejoin: miter; stroke-miterlimit: 4; fill: rgb(255,255,255); fill-rule: nonzero; opacity: 1;"  transform=" translate(-24, -32)" d="M 26.5 30 L 21.5 30 L 23 34 L 24 31.300781 L 25 34 Z" stroke-linecap="round" />
</g>
<g transform="matrix(4.17 0 0 4.17 200 250)" id="surface1"  >
<path style="stroke: none; stroke-width: 1; stroke-dasharray: none; stroke-linecap: butt; stroke-dashoffset: 0; stroke-linejoin: miter; stroke-miterlimit: 4; fill: rgb(239,83,80); fill-rule: nonzero; opacity: 1;"  transform=" translate(-24, -36)" d="M 24 35 C 22.800781 35 22 35.601563 21.5 36.199219 C 22.300781 36.699219 23.101563 37 24 37 C 24.898438 37 25.699219 36.601563 26.5 36.199219 C 26 35.601563 25.199219 35 24 35 Z" stroke-linecap="round" />
</g>
<g transform="matrix(4.17 0 0 4.17 200 179.4)" id="surface1"  >
<path style="stroke: none; stroke-width: 1; stroke-dasharray: none; stroke-linecap: butt; stroke-dashoffset: 0; stroke-linejoin: miter; stroke-miterlimit: 4; fill: rgb(109,76,65); fill-rule: nonzero; opacity: 1;"  transform=" translate(-24, -19.06)" d="M 32 33 C 30 33.800781 24 30 24 30 C 24 30 18 33.800781 16 33 C 16 30.5 18 29 18 29 C 19.601563 28 18 25 18 25 C 18 25 20.398438 22 24 22 C 27.601563 22 30 25 30 25 C 30 25 28.398438 28 30 29 C 30 29 32 30.5 32 33 Z M 32 15 C 32.300781 11.199219 34.5 6.300781 37 5 C 30.699219 6.800781 29.101563 12.800781 29 15.101563 C 28.898438 17.5 31 21 31 21 C 32.601563 21 33.699219 21.5 34.601563 22.398438 C 33.699219 21 31.800781 17.898438 32 15 Z M 16 15 C 15.699219 11.199219 13.5 6.300781 11 5 C 17.300781 6.800781 18.898438 12.800781 19 15.101563 C 19.101563 17.5 17 21 17 21 C 15.398438 21 14.300781 21.5 13.398438 22.398438 C 14.300781 21 16.199219 17.898438 16 15 Z" stroke-linecap="round" />
</g>
<g transform="matrix(4.17 0 0 4.17 200 195.83)" id="surface1"  >
<path style="stroke: none; stroke-width: 1; stroke-dasharray: none; stroke-linecap: butt; stroke-dashoffset: 0; stroke-linejoin: miter; stroke-miterlimit: 4; fill: rgb(239,154,154); fill-rule: nonzero; opacity: 1;"  transform=" translate(-24, -23)" d="M 32 33 C 32 33 26.5 41 24 41 C 21.5 41 16 33 16 33 C 16.300781 33.101563 16.699219 33.101563 17.101563 33.101563 C 17.699219 33.601563 21.800781 37 24 37 C 26.199219 37 30.300781 33.601563 30.898438 33.101563 C 31.300781 33.101563 31.699219 33.101563 32 33 Z M 43 22 C 43.300781 16.300781 38.101563 9.398438 37 8 C 35.898438 6.601563 37 5 37 5 C 34.5 6.300781 32.199219 11.300781 32 15 C 31.800781 17.601563 33.300781 20.398438 34.300781 21.898438 C 37 23.699219 37.101563 27.898438 37 30.101563 C 37 30.398438 37.199219 31 38 31 C 40.398438 32.199219 42 28 42 28 C 42 28 40 25.199219 40 24 C 40 22.800781 42.699219 27.699219 43 22 Z M 13.699219 21.898438 C 14.601563 20.398438 16.101563 17.601563 16 15 C 15.699219 11.199219 13.5 6.300781 11 5 C 11 5 12.101563 6.601563 11 8 C 9.898438 9.398438 4.699219 16.300781 5 22 C 5.300781 27.699219 8 22.800781 8 24 C 8 25.199219 6 28 6 28 C 6 28 7.601563 32.199219 10 31 C 10.800781 31 11 30.398438 11 30.101563 C 11 27.898438 11.101563 23.800781 13.699219 21.898438 Z M 27 28 L 27 26 C 27 24.898438 26.101563 24 25 24 L 23 24 C 21.898438 24 21 24.898438 21 26 L 21 28 C 21 30.101563 22.101563 31 24 31 C 26 31 27 30.101563 27 28 Z" stroke-linecap="round" />
</g>
<g transform="matrix(4.17 0 0 4.17 200 214.58)" id="surface1"  >
<path style="stroke: none; stroke-width: 1; stroke-dasharray: none; stroke-linecap: butt; stroke-dashoffset: 0; stroke-linejoin: miter; stroke-miterlimit: 4; fill: rgb(93,64,55); fill-rule: nonzero; opacity: 1;"  transform=" translate(-24, -27.5)" d="M 27 27 C 27 29.101563 24 29 24 29 C 24 29 25.398438 26 27 26 C 27 26 27 26.398438 27 27 Z M 21 27 C 21 29 24 29 24 29 C 24 29 22.5 26 21 26 C 21 26 21 26.398438 21 27 Z" stroke-linecap="round" />
</g>
<g transform="matrix(4.17 0 0 4.17 200 184.79)" id="surface1"  >
<path style="stroke: none; stroke-width: 1; stroke-dasharray: none; stroke-linecap: butt; stroke-dashoffset: 0; stroke-linejoin: miter; stroke-miterlimit: 4; fill: rgb(193,86,86); fill-rule: nonzero; opacity: 1;"  transform=" translate(-24, -20.35)" d="M 34.199219 21.898438 C 33.699219 21.101563 33 20 33 19.5 C 33 18.699219 33.699219 18 34.5 18 C 35.300781 18 36 18.699219 36 19.5 C 36 20.199219 35.398438 21.898438 35.101563 22.699219 C 34.898438 22.398438 34.601563 22.101563 34.199219 21.898438 Z M 13.800781 21.898438 C 14.398438 21.101563 15 20 15 19.5 C 15 18.699219 14.300781 18 13.5 18 C 12.699219 18 12 18.699219 12 19.5 C 12 20.199219 12.601563 21.898438 12.898438 22.699219 C 13.101563 22.398438 13.398438 22.101563 13.800781 21.898438 Z" stroke-linecap="round" />
</g>
</svg>