<?xml version="1.0" encoding="UTF-8" standalone="no" ?>
<!DOCTYPE svg PUBLIC "-//W3C//DTD SVG 1.1//EN" "http://www.w3.org/Graphics/SVG/1.1/DTD/svg11.dtd">
<svg xmlns="http://www.w3.org/2000/svg" xmlns:xlink="http://www.w3.org/1999/xlink" version="1.1" width="400" height="400" viewBox="0 0 400 400" xml:space="preserve">
<desc>Created with Fabric.js 3.6.2</desc>
<defs>
</defs>
<g transform="matrix(4.17 0 0 4.17 187.5 220.83)" id="Layer_1"  >
<ellipse style="stroke: none; stroke-width: 1; stroke-dasharray: none; stroke-linecap: butt; stroke-dashoffset: 0; stroke-linejoin: miter; stroke-miterlimit: 4; fill: rgb(139,195,74); fill-rule: nonzero; opacity: 1;"  cx="0" cy="0" rx="2" ry="1" />
</g>
<g transform="matrix(4.17 0 0 4.17 177.08 214.58)" id="Layer_1"  >
<ellipse style="stroke: none; stroke-width: 1; stroke-dasharray: none; stroke-linecap: butt; stroke-dashoffset: 0; stroke-linejoin: miter; stroke-miterlimit: 4; fill: rgb(139,195,74); fill-rule: nonzero; opacity: 1;"  cx="0" cy="0" rx="3.5" ry="1.5" />
</g>
<g transform="matrix(4.17 0 0 4.17 216.67 166.67)" id="Layer_1"  >
<ellipse style="stroke: none; stroke-width: 1; stroke-dasharray: none; stroke-linecap: butt; stroke-dashoffset: 0; stroke-linejoin: miter; stroke-miterlimit: 4; fill: rgb(104,159,56); fill-rule: nonzero; opacity: 1;"  cx="0" cy="0" rx="6" ry="2" />
</g>
<g transform="matrix(4.17 0 0 4.17 272.92 172.92)" id="Layer_1"  >
<ellipse style="stroke: none; stroke-width: 1; stroke-dasharray: none; stroke-linecap: butt; stroke-dashoffset: 0; stroke-linejoin: miter; stroke-miterlimit: 4; fill: rgb(104,159,56); fill-rule: nonzero; opacity: 1;"  cx="0" cy="0" rx="4.5" ry="1.5" />
</g>
<g transform="matrix(4.17 0 0 4.17 168.75 166.67)" id="Layer_1"  >
<ellipse style="stroke: none; stroke-width: 1; stroke-dasharray: none; stroke-linecap: butt; stroke-dashoffset: 0; stroke-linejoin: miter; stroke-miterlimit: 4; fill: rgb(104,159,56); fill-rule: nonzero; opacity: 1;"  cx="0" cy="0" rx="9.5" ry="3" />
</g>
<g transform="matrix(4.17 0 0 4.17 275 187.5)" id="Layer_1"  >
<ellipse style="stroke: none; stroke-width: 1; stroke-dasharray: none; stroke-linecap: butt; stroke-dashoffset: 0; stroke-linejoin: miter; stroke-miterlimit: 4; fill: rgb(139,195,74); fill-rule: nonzero; opacity: 1;"  cx="0" cy="0" rx="2" ry="1" />
</g>
<g transform="matrix(4.17 0 0 4.17 200 252.08)" id="Layer_1"  >
<path style="stroke: none; stroke-width: 1; stroke-dasharray: none; stroke-linecap: butt; stroke-dashoffset: 0; stroke-linejoin: miter; stroke-miterlimit: 4; fill: rgb(191,54,12); fill-rule: nonzero; opacity: 1;"  transform=" translate(-24, -36.5)" d="M 26 41 V 30 h -4 v 11 c 0 1 -2 2 -2 2 h 8 C 28 43 26 42 26 41 z" stroke-linecap="round" />
</g>
<g transform="matrix(4.17 0 0 4.17 240.21 202.5)" id="Layer_1"  >
<path style="stroke: none; stroke-width: 1; stroke-dasharray: none; stroke-linecap: butt; stroke-dashoffset: 0; stroke-linejoin: miter; stroke-miterlimit: 4; fill: rgb(191,54,12); fill-rule: nonzero; opacity: 1;"  transform=" translate(-33.65, -24.6)" d="M 25.1 33.9 c -0.5 0 -1 -0.4 -1 -1 c 0 -1.4 0.4 -2.8 1.3 -3.8 c 0.3 -0.4 0.7 -0.8 1 -1.1 c 0.3 -0.3 0.7 -0.6 0.9 -1 c 0.2 -0.4 0.4 -0.8 0.7 -1.3 c 0.2 -0.4 0.4 -0.8 0.6 -1.3 c 0.6 -1 1.4 -1.8 2.3 -2.3 c 0.6 -0.3 1.2 -0.5 1.8 -0.6 l 4.9 -1.4 c 0.9 -0.3 1.9 -0.5 2.7 -1.1 c 0.5 -0.3 0.9 -1.6 0.9 -2.7 c 0 -0.6 0.4 -1 1 -1 s 1 0.4 1 1 c 0 1.2 -0.4 3.4 -1.7 4.3 c -1.1 0.7 -2.2 1.1 -3.3 1.4 l -4.9 1.4 c -0.5 0.1 -1 0.3 -1.4 0.5 c -0.6 0.3 -1.1 0.8 -1.5 1.5 c -0.2 0.3 -0.3 0.7 -0.5 1 c -0.2 0.5 -0.5 1.1 -0.8 1.6 c -0.4 0.5 -0.8 0.9 -1.2 1.3 c -0.3 0.3 -0.6 0.6 -0.8 0.9 c -0.5 0.7 -0.8 1.7 -0.8 2.6 C 26.1 33.5 25.6 33.9 25.1 33.9 C 25.1 33.9 25.1 33.9 25.1 33.9 z" stroke-linecap="round" />
</g>
<g transform="matrix(4.17 0 0 4.17 160.42 202.5)" id="Layer_1"  >
<path style="stroke: none; stroke-width: 1; stroke-dasharray: none; stroke-linecap: butt; stroke-dashoffset: 0; stroke-linejoin: miter; stroke-miterlimit: 4; fill: rgb(191,54,12); fill-rule: nonzero; opacity: 1;"  transform=" translate(-14.5, -24.6)" d="M 23 32.7 c -0.6 0 -1 -0.4 -1 -1 c 0 -4.2 -4.4 -7.7 -8 -7.7 c -5.7 0 -9 -2.4 -9 -6.5 c 0 -0.6 0.4 -1 1 -1 s 1 0.4 1 1 c 0 3.7 3.8 4.5 7 4.5 c 4.5 0 10 4.3 10 9.7 C 24 32.3 23.6 32.7 23 32.7 z" stroke-linecap="round" />
</g>
<g transform="matrix(4.17 0 0 4.17 222.84 196.88)" id="Layer_1"  >
<path style="stroke: none; stroke-width: 1; stroke-dasharray: none; stroke-linecap: butt; stroke-dashoffset: 0; stroke-linejoin: miter; stroke-miterlimit: 4; fill: rgb(191,54,12); fill-rule: nonzero; opacity: 1;"  transform=" translate(-29.48, -23.25)" d="M 24.2 33.3 c -0.5 0 -0.9 -0.4 -1 -0.9 c -0.3 -2.6 -0.1 -5.1 0.6 -7.3 c 0.8 -2.5 2.1 -4.6 3.8 -6 c 1.2 -1 2.6 -1.7 3.9 -2.2 c 0 0 2.4 -1 2.4 -2.8 c 0 -0.6 0.4 -1 1 -1 s 1 0.4 1 1 c 0 3.1 -3.3 4.5 -3.7 4.7 c -1.2 0.5 -2.4 1 -3.4 1.9 c -1.4 1.2 -2.5 3 -3.2 5.1 c -0.6 2 -0.8 4.2 -0.5 6.5 c 0.1 0.5 -0.3 1 -0.9 1.1 C 24.3 33.3 24.2 33.3 24.2 33.3 z" stroke-linecap="round" />
</g>
<g transform="matrix(4.17 0 0 4.17 183.13 198.96)" id="Layer_1"  >
<path style="stroke: none; stroke-width: 1; stroke-dasharray: none; stroke-linecap: butt; stroke-dashoffset: 0; stroke-linejoin: miter; stroke-miterlimit: 4; fill: rgb(191,54,12); fill-rule: nonzero; opacity: 1;"  transform=" translate(-19.95, -23.75)" d="M 23.9 34.5 c -0.5 0 -1 -0.4 -1 -0.9 c -0.1 -1.5 -0.2 -3 -0.3 -4.6 c -0.1 -1.4 -0.2 -2.7 -0.7 -3.8 c -0.8 -1.6 -1.7 -2.8 -2.5 -3.3 c -2.9 -2 -4.4 -3.8 -4.4 -7.9 c 0 -0.6 0.4 -1 1 -1 s 1 0.4 1 1 c 0 3 0.8 4.4 3.6 6.3 c 1.4 1 2.6 3 3.1 4.1 c 0.7 1.4 0.8 2.8 0.9 4.5 c 0.1 1.5 0.2 3.1 0.3 4.6 C 24.9 34 24.5 34.5 23.9 34.5 C 23.9 34.5 23.9 34.5 23.9 34.5 z" stroke-linecap="round" />
</g>
<g transform="matrix(4.17 0 0 4.17 195.83 174.17)" id="Layer_1"  >
<path style="stroke: none; stroke-width: 1; stroke-dasharray: none; stroke-linecap: butt; stroke-dashoffset: 0; stroke-linejoin: miter; stroke-miterlimit: 4; fill: rgb(191,54,12); fill-rule: nonzero; opacity: 1;"  transform=" translate(-23, -17.8)" d="M 21 22.6 c -0.6 0 -1 -0.4 -1 -1 c 0 -2.1 1.2 -3.3 2.2 -4.3 c 1 -1 1.8 -1.7 1.8 -3.3 c 0 -0.6 0.4 -1 1 -1 c 0.6 0 1 0.4 1 1 c 0 2.5 -1.3 3.8 -2.4 4.8 c -0.9 0.9 -1.6 1.5 -1.6 2.8 C 22 22.2 21.6 22.6 21 22.6 z" stroke-linecap="round" />
</g>
<g transform="matrix(4.17 0 0 4.17 195.83 129.17)" id="Layer_1"  >
<ellipse style="stroke: none; stroke-width: 1; stroke-dasharray: none; stroke-linecap: butt; stroke-dashoffset: 0; stroke-linejoin: miter; stroke-miterlimit: 4; fill: rgb(139,195,74); fill-rule: nonzero; opacity: 1;"  cx="0" cy="0" rx="3" ry="2" />
</g>
<g transform="matrix(4.17 0 0 4.17 181.25 135.42)" id="Layer_1"  >
<ellipse style="stroke: none; stroke-width: 1; stroke-dasharray: none; stroke-linecap: butt; stroke-dashoffset: 0; stroke-linejoin: miter; stroke-miterlimit: 4; fill: rgb(139,195,74); fill-rule: nonzero; opacity: 1;"  cx="0" cy="0" rx="3.5" ry="1.5" />
</g>
<g transform="matrix(4.17 0 0 4.17 181.25 150)" id="Layer_1"  >
<ellipse style="stroke: none; stroke-width: 1; stroke-dasharray: none; stroke-linecap: butt; stroke-dashoffset: 0; stroke-linejoin: miter; stroke-miterlimit: 4; fill: rgb(139,195,74); fill-rule: nonzero; opacity: 1;"  cx="0" cy="0" rx="13.5" ry="3" />
</g>
<g transform="matrix(4.17 0 0 4.17 208.33 139.58)" id="Layer_1"  >
<ellipse style="stroke: none; stroke-width: 1; stroke-dasharray: none; stroke-linecap: butt; stroke-dashoffset: 0; stroke-linejoin: miter; stroke-miterlimit: 4; fill: rgb(139,195,74); fill-rule: nonzero; opacity: 1;"  cx="0" cy="0" rx="4" ry="2.5" />
</g>
<g transform="matrix(4.17 0 0 4.17 127.5 172.92)" id="Layer_1"  >
<ellipse style="stroke: none; stroke-width: 1; stroke-dasharray: none; stroke-linecap: butt; stroke-dashoffset: 0; stroke-linejoin: miter; stroke-miterlimit: 4; fill: rgb(139,195,74); fill-rule: nonzero; opacity: 1;"  cx="0" cy="0" rx="5.6" ry="2.5" />
</g>
<g transform="matrix(4.17 0 0 4.17 112.5 181.25)" id="Layer_1"  >
<ellipse style="stroke: none; stroke-width: 1; stroke-dasharray: none; stroke-linecap: butt; stroke-dashoffset: 0; stroke-linejoin: miter; stroke-miterlimit: 4; fill: rgb(139,195,74); fill-rule: nonzero; opacity: 1;"  cx="0" cy="0" rx="3" ry="1.5" />
</g>
<g transform="matrix(4.17 0 0 4.17 254.17 158.33)" id="Layer_1"  >
<ellipse style="stroke: none; stroke-width: 1; stroke-dasharray: none; stroke-linecap: butt; stroke-dashoffset: 0; stroke-linejoin: miter; stroke-miterlimit: 4; fill: rgb(139,195,74); fill-rule: nonzero; opacity: 1;"  cx="0" cy="0" rx="8" ry="3" />
</g>
<g transform="matrix(4.17 0 0 4.17 285.42 168.75)" id="Layer_1"  >
<ellipse style="stroke: none; stroke-width: 1; stroke-dasharray: none; stroke-linecap: butt; stroke-dashoffset: 0; stroke-linejoin: miter; stroke-miterlimit: 4; fill: rgb(139,195,74); fill-rule: nonzero; opacity: 1;"  cx="0" cy="0" rx="3.5" ry="1.5" />
</g>
</svg>