<?xml version="1.0" encoding="UTF-8" standalone="no" ?>
<!DOCTYPE svg PUBLIC "-//W3C//DTD SVG 1.1//EN" "http://www.w3.org/Graphics/SVG/1.1/DTD/svg11.dtd">
<svg xmlns="http://www.w3.org/2000/svg" xmlns:xlink="http://www.w3.org/1999/xlink" version="1.1" width="400" height="400" viewBox="0 0 400 400" xml:space="preserve">
<desc>Created with Fabric.js 3.6.2</desc>
<defs>
</defs>
<g transform="matrix(4.17 0 0 4.17 239.58 225)" id="surface1"  >
<path style="stroke: none; stroke-width: 1; stroke-dasharray: none; stroke-linecap: butt; stroke-dashoffset: 0; stroke-linejoin: miter; stroke-miterlimit: 4; fill: rgb(84,110,122); fill-rule: nonzero; opacity: 1;"  transform=" translate(-33.5, -30)" d="M 34 20 C 34 25 34 33 34 33 L 37 40 L 35 40 L 32 34 L 31 29 L 30 27" stroke-linecap="round" />
</g>
<g transform="matrix(4.17 0 0 4.17 179.17 227.08)" id="surface1"  >
<path style="stroke: none; stroke-width: 1; stroke-dasharray: none; stroke-linecap: butt; stroke-dashoffset: 0; stroke-linejoin: miter; stroke-miterlimit: 4; fill: rgb(84,110,122); fill-rule: nonzero; opacity: 1;"  transform=" translate(-19, -30.5)" d="M 14 21 C 14 21 14 23 17 26 C 18.582031 27.582031 16 33 16 33 L 19 40 L 21 40 L 19 33 C 19 33 24 28 24 23" stroke-linecap="round" />
</g>
<g transform="matrix(4.17 0 0 4.17 263.16 137.56)" id="surface1"  >
<path style="stroke: none; stroke-width: 1; stroke-dasharray: none; stroke-linecap: butt; stroke-dashoffset: 0; stroke-linejoin: miter; stroke-miterlimit: 4; fill: rgb(84,110,122); fill-rule: nonzero; opacity: 1;"  transform=" translate(-39.16, -9.01)" d="M 39.875 9.824219 C 41.492188 8.277344 40.890625 7 40.890625 7 C 40.890625 7 40.550781 7.941406 39.273438 8.542969 C 37.992188 9.148438 37.65625 10.089844 37.65625 10.089844 L 37.316406 11.027344" stroke-linecap="round" />
</g>
<g transform="matrix(4.17 0 0 4.17 185.42 270.83)" id="surface1"  >
<path style="stroke: none; stroke-width: 1; stroke-dasharray: none; stroke-linecap: butt; stroke-dashoffset: 0; stroke-linejoin: miter; stroke-miterlimit: 4; fill: rgb(55,71,79); fill-rule: nonzero; opacity: 1;"  transform=" translate(-20.5, -41)" d="M 21 40 L 22 42 L 19 42 L 19 41 L 20 40 Z" stroke-linecap="round" />
</g>
<g transform="matrix(4.17 0 0 4.17 252.08 270.83)" id="surface1"  >
<path style="stroke: none; stroke-width: 1; stroke-dasharray: none; stroke-linecap: butt; stroke-dashoffset: 0; stroke-linejoin: miter; stroke-miterlimit: 4; fill: rgb(55,71,79); fill-rule: nonzero; opacity: 1;"  transform=" translate(-36.5, -41)" d="M 37 40 L 38 42 L 35 42 L 35 41 L 36 40 Z" stroke-linecap="round" />
</g>
<g transform="matrix(4.17 0 0 4.17 264.23 247.56)" id="surface1"  >
<path style="stroke: none; stroke-width: 1; stroke-dasharray: none; stroke-linecap: butt; stroke-dashoffset: 0; stroke-linejoin: miter; stroke-miterlimit: 4; fill: rgb(55,71,79); fill-rule: nonzero; opacity: 1;"  transform=" translate(-39.41, -35.41)" d="M 40.828125 34.707031 L 40.121094 36.828125 L 38 34.707031 L 39 34 L 40.121094 34 Z" stroke-linecap="round" />
</g>
<g transform="matrix(4.17 0 0 4.17 168.75 270.83)" id="surface1"  >
<path style="stroke: none; stroke-width: 1; stroke-dasharray: none; stroke-linecap: butt; stroke-dashoffset: 0; stroke-linejoin: miter; stroke-miterlimit: 4; fill: rgb(55,71,79); fill-rule: nonzero; opacity: 1;"  transform=" translate(-16.5, -41)" d="M 17 40 L 18 42 L 15 42 L 15 41 L 16 40 Z" stroke-linecap="round" />
</g>
<g transform="matrix(4.17 0 0 4.17 164.58 185.42)" id="surface1"  >
<path style="stroke: none; stroke-width: 1; stroke-dasharray: none; stroke-linecap: butt; stroke-dashoffset: 0; stroke-linejoin: miter; stroke-miterlimit: 4; fill: rgb(144,164,174); fill-rule: nonzero; opacity: 1;"  transform=" translate(-15.5, -20.5)" d="M 21 20.5 C 21 23.539063 18.539063 26 15.5 26 C 12.460938 26 10 23.539063 10 20.5 C 10 17.460938 12.460938 15 15.5 15 C 18.539063 15 21 17.460938 21 20.5 Z" stroke-linecap="round" />
</g>
<g transform="matrix(4.17 0 0 4.17 162.5 227.08)" id="surface1"  >
<path style="stroke: none; stroke-width: 1; stroke-dasharray: none; stroke-linecap: butt; stroke-dashoffset: 0; stroke-linejoin: miter; stroke-miterlimit: 4; fill: rgb(144,164,174); fill-rule: nonzero; opacity: 1;"  transform=" translate(-15, -30.5)" d="M 10 21 C 10 21 10 23 13 26 C 14.582031 27.582031 12 33 12 33 L 15 40 L 17 40 L 15 33 C 15 33 20 28 20 23" stroke-linecap="round" />
</g>
<g transform="matrix(4.17 0 0 4.17 220.11 179.17)" id="surface1"  >
<path style="stroke: none; stroke-width: 1; stroke-dasharray: none; stroke-linecap: butt; stroke-dashoffset: 0; stroke-linejoin: miter; stroke-miterlimit: 4; fill: rgb(144,164,174); fill-rule: nonzero; opacity: 1;"  transform=" translate(-28.83, -19)" d="M 42 11 C 41.367188 9.734375 40 9 38 9 C 32 9 31 15 29 16 C 24.527344 18.234375 18 15 16 15 C 7 15 19 25 19 25 C 19 25 22 29 27 29 C 27 29 31 29 34 27 C 34 27 38 25 37 18 C 37 18 37 16 37 15 C 37 15 38 17 39 17 C 40 17 42 19 42 19 C 42 19 42 20 43 20 C 44 20 45 19 45 18 C 45 17 42 12 42 12 Z" stroke-linecap="round" />
</g>
<g transform="matrix(4.17 0 0 4.17 250 220.83)" id="surface1"  >
<path style="stroke: none; stroke-width: 1; stroke-dasharray: none; stroke-linecap: butt; stroke-dashoffset: 0; stroke-linejoin: miter; stroke-miterlimit: 4; fill: rgb(144,164,174); fill-rule: nonzero; opacity: 1;"  transform=" translate(-36, -29)" d="M 34 24 C 39 25 42 26 42 26 C 42 26 41 32 41 34 L 39 34 L 39 28 C 39 28 34 28 32 28 C 30 28 30 26 30 26 Z" stroke-linecap="round" />
</g>
<g transform="matrix(4.17 0 0 4.17 260.42 135.42)" id="surface1"  >
<path style="stroke: none; stroke-width: 1; stroke-dasharray: none; stroke-linecap: butt; stroke-dashoffset: 0; stroke-linejoin: miter; stroke-miterlimit: 4; fill: rgb(144,164,174); fill-rule: nonzero; opacity: 1;"  transform=" translate(-38.5, -8.5)" d="M 37 11 L 37 10 C 37 10 37 9 38 8 C 39 7 39 6 39 6 C 39 6 40 7 39 9 C 39 9 39 10 40 11 Z" stroke-linecap="round" />
</g>
<g transform="matrix(4.17 0 0 4.17 226.55 209.81)" id="surface1"  >
<path style="stroke: none; stroke-width: 1; stroke-dasharray: none; stroke-linecap: butt; stroke-dashoffset: 0; stroke-linejoin: miter; stroke-miterlimit: 4; fill: rgb(120,144,156); fill-rule: nonzero; opacity: 1;"  transform=" translate(-30.37, -26.35)" d="M 32 28 C 29 27 29 24 29 24 C 29 24.070313 28 27 29.597656 28.707031 C 30.347656 28.558594 31.195313 28.335938 32.050781 28 C 32.035156 28 32.015625 28.003906 32 28 Z" stroke-linecap="round" />
</g>
<g transform="matrix(4.17 0 0 4.17 176.23 198.65)" id="surface1"  >
<path style="stroke: none; stroke-width: 1; stroke-dasharray: none; stroke-linecap: butt; stroke-dashoffset: 0; stroke-linejoin: miter; stroke-miterlimit: 4; fill: rgb(120,144,156); fill-rule: nonzero; opacity: 1;"  transform=" translate(-18.3, -23.68)" d="M 17 20 C 17 23.359375 18.449219 26.445313 18.917969 27.351563 C 19.171875 26.804688 19.394531 26.234375 19.574219 25.652344 C 19.828125 25.917969 17 22.589844 17 20 Z" stroke-linecap="round" />
</g>
<g transform="matrix(4.17 0 0 4.17 285.34 178.48)" id="surface1"  >
<path style="stroke: none; stroke-width: 1; stroke-dasharray: none; stroke-linecap: butt; stroke-dashoffset: 0; stroke-linejoin: miter; stroke-miterlimit: 4; fill: rgb(55,71,79); fill-rule: nonzero; opacity: 1;"  transform=" translate(-44.48, -18.84)" d="M 44.960938 18.3125 C 44.890625 18.128906 44.710938 18 44.5 18 C 44.222656 18 44 18.222656 44 18.5 C 44 18.6875 44 19.289063 44 19.671875 C 44.480469 19.359375 44.855469 18.855469 44.960938 18.3125 Z" stroke-linecap="round" />
</g>
<g transform="matrix(4.17 0 0 4.17 272.92 156.25)" id="surface1"  >
<path style="stroke: none; stroke-width: 1; stroke-dasharray: none; stroke-linecap: butt; stroke-dashoffset: 0; stroke-linejoin: miter; stroke-miterlimit: 4; fill: rgb(38,50,56); fill-rule: nonzero; opacity: 1;"  transform=" translate(-41.5, -13.5)" d="M 42 13.5 C 42 13.777344 41.777344 14 41.5 14 C 41.222656 14 41 13.777344 41 13.5 C 41 13.222656 41.222656 13 41.5 13 C 41.777344 13 42 13.222656 42 13.5 Z" stroke-linecap="round" />
</g>
<g transform="matrix(4.17 0 0 4.17 131.79 208.25)" id="surface1"  >
<path style="stroke: none; stroke-width: 1; stroke-dasharray: none; stroke-linecap: butt; stroke-dashoffset: 0; stroke-linejoin: miter; stroke-miterlimit: 4; fill: rgb(55,71,79); fill-rule: nonzero; opacity: 1;"  transform=" translate(-7.63, -25.98)" d="M 4 24 C 4 30 10 32 6 35 C 6 35 10 35 10 31 C 10 27.5 7.253906 18.761719 10.574219 18.066406 C 10.761719 17.683594 10.988281 17.324219 11.257813 17 L 11 17 C 11 17 4 16 4 24 Z" stroke-linecap="round" />
</g>
<g transform="matrix(4.17 0 0 4.17 270.83 141.72)" id="surface1"  >
<path style="stroke: none; stroke-width: 1; stroke-dasharray: none; stroke-linecap: butt; stroke-dashoffset: 0; stroke-linejoin: miter; stroke-miterlimit: 4; fill: rgb(55,71,79); fill-rule: nonzero; opacity: 1;"  transform=" translate(-41, -10.01)" d="M 39.347656 8.027344 C 39.277344 8.324219 39.179688 8.640625 39 9 C 39 9 39 9.246094 39.121094 9.613281 C 39.59375 9.902344 40.589844 10.589844 42 12 L 43 10 C 43 10 42.0625 8.183594 39.347656 8.027344 Z" stroke-linecap="round" />
</g>
<g transform="matrix(4.17 0 0 4.17 236.48 160.52)" id="surface1"  >
<path style="stroke: none; stroke-width: 1; stroke-dasharray: none; stroke-linecap: butt; stroke-dashoffset: 0; stroke-linejoin: miter; stroke-miterlimit: 4; fill: rgb(55,71,79); fill-rule: nonzero; opacity: 1;"  transform=" translate(-32.76, -14.53)" d="M 37 10 C 37 10 37.003906 9.03125 37.957031 8.050781 C 30.832031 8.554688 28.953125 14.109375 28 16.375 C 27 18.75 28 21 28 21 C 29 18 35 18 36 13 C 36.195313 12.011719 36.578125 11.164063 37 10.441406 Z" stroke-linecap="round" />
</g>
</svg>