<?xml version="1.0" encoding="UTF-8" standalone="no" ?>
<!DOCTYPE svg PUBLIC "-//W3C//DTD SVG 1.1//EN" "http://www.w3.org/Graphics/SVG/1.1/DTD/svg11.dtd">
<svg xmlns="http://www.w3.org/2000/svg" xmlns:xlink="http://www.w3.org/1999/xlink" version="1.1" width="400" height="400" viewBox="0 0 400 400" xml:space="preserve">
<desc>Created with Fabric.js 3.6.2</desc>
<defs>
</defs>
<g transform="matrix(4.17 0 0 4.17 210.23 208.54)" id="surface1"  >
<path style="stroke: none; stroke-width: 1; stroke-dasharray: none; stroke-linecap: butt; stroke-dashoffset: 0; stroke-linejoin: miter; stroke-miterlimit: 4; fill: rgb(109,76,65); fill-rule: nonzero; opacity: 1;"  transform=" translate(-26.46, -26.05)" d="M 36.3 14 l 0.3 -0.9 c 0 0 0.3 -0.9 1.6 -1.5 c 1.3 -0.6 1.6 -1.5 1.6 -1.5 s 0.6 1.3 -1 2.8 M 29 29 l 1 1 l 7 3 v 5 h 2 v -6 l -6 -5 L 29 29 z M 24 26 c 0 5 -5 10 -5 10 l 2 6 h -2 l -3 -6 c 0 0 1.6 -5.4 0 -7 c -3 -3 -3 -5 -3 -5" stroke-linecap="round" />
</g>
<g transform="matrix(4.17 0 0 4.17 203.75 270.83)" id="surface1"  >
<path style="stroke: none; stroke-width: 1; stroke-dasharray: none; stroke-linecap: butt; stroke-dashoffset: 0; stroke-linejoin: miter; stroke-miterlimit: 4; fill: rgb(55,71,79); fill-rule: nonzero; opacity: 1;"  transform=" translate(-24.9, -41)" d="M 21 42 l 1 2 h -3 v -1 l 1 -1 H 21 z M 35 42 l -1 1 v 1 h 3 l -1 -2 H 35 z M 38.1 38 H 37 l -1 0.7 l 2.1 2.1 l 0.7 -2.1 L 38.1 38 z M 12 42 l -1 1 v 1 h 3 l -1 -2 H 12 z" stroke-linecap="round" />
</g>
<g transform="matrix(4.17 0 0 4.17 200 129.17)" id="surface1"  >
<path style="stroke: none; stroke-width: 1; stroke-dasharray: none; stroke-linecap: butt; stroke-dashoffset: 0; stroke-linejoin: miter; stroke-miterlimit: 4; fill: rgb(255,183,77); fill-rule: nonzero; opacity: 1;"  transform=" translate(-24, -7)" d="M 24 4 c 1.7 0 3 1.3 3 3 s -1.3 3 -3 3 s -3 -1.3 -3 -3 S 22.3 4 24 4" stroke-linecap="round" />
</g>
<g transform="matrix(4.17 0 0 4.17 210.42 212.5)" id="surface1"  >
<path style="stroke: none; stroke-width: 1; stroke-dasharray: none; stroke-linecap: butt; stroke-dashoffset: 0; stroke-linejoin: miter; stroke-miterlimit: 4; fill: rgb(141,110,99); fill-rule: nonzero; opacity: 1;"  transform=" translate(-26.5, -27)" d="M 41 15 v -1 c -0.6 -1.3 -2 -2 -4 -2 c -6 0 -7 6 -9 7 c -4.5 2.2 -11 -1 -13 -1 c -0.1 0 -0.2 0 -0.3 0 c -0.1 0 -0.2 0 -0.2 0 c -3 0 -5.5 2.5 -5.5 5.5 c 0 0.2 0 0.3 0 0.5 c 0 0 0 0.3 0.2 0.8 c 0.2 0.9 0.7 1.8 1.3 2.4 c 0.4 0.5 0.9 1.1 1.5 1.8 c 1.6 1.6 -1 7 -1 7 v 6 h 2 l 1 -6 c 0 0 3.4 -3.4 4.6 -7.3 c 1.1 1.1 3.7 3.3 7.4 3.3 c 0 0 1.7 0 3.7 -0.6 L 30 32 l 1 5 l 3 5 h 2 l -3 -6 c 0 0 0 -2.7 0 -6 c 0 0 4 -2 3 -9 c 0 0 0 -2 0 -3 c 0 0 1 2 2 2 s 3 2 3 2 s 0 1 1 1 s 2 -1 2 -2 S 41 15 41 15 z" stroke-linecap="round" />
</g>
<g transform="matrix(4.17 0 0 4.17 195.83 202.08)" id="surface1"  >
<path style="stroke: none; stroke-width: 1; stroke-dasharray: none; stroke-linecap: butt; stroke-dashoffset: 0; stroke-linejoin: miter; stroke-miterlimit: 4; fill: rgb(78,52,46); fill-rule: nonzero; opacity: 1;"  transform=" translate(-23, -24.5)" d="M 10 34 c 0 4 -4 4 -4 4 c 4 -3 -2 -5 -2 -11 c 0 -6.4 4.5 -7 6.3 -7 c -0.3 0.3 -0.5 0.7 -0.7 1.1 C 6.3 21.8 10 30.5 10 34 z M 36 13 c 0 0 0 -1 1 -2 c -7.1 0.5 -9 6.1 -10 8.3 c -1 2.4 0 4.6 0 4.6 c 1 -3 7 -3 8 -8 c 0.2 -1 0.6 -1.8 1 -2.6 V 13 z M 38.3 11 c -0.1 0.3 -0.2 0.6 -0.3 1 c 0 0 0 0.2 0.1 0.6 c 0.5 0.3 1.5 1 2.9 2.4 l 1 -2 C 42 13 41.1 11.2 38.3 11 z" stroke-linecap="round" />
</g>
<g transform="matrix(4.17 0 0 4.17 200.92 178.21)" id="surface1"  >
<path style="stroke: none; stroke-width: 1; stroke-dasharray: none; stroke-linecap: butt; stroke-dashoffset: 0; stroke-linejoin: miter; stroke-miterlimit: 4; fill: rgb(33,150,243); fill-rule: nonzero; opacity: 1;"  transform=" translate(-24.22, -18.77)" d="M 28.5 14.6 L 26 13.8 l -1.2 -2.1 c -0.3 -0.8 -1 -1.5 -1.9 -1.7 c -1.3 -0.3 -2.7 0.6 -2.9 2 l -1 6 c -0.3 1.3 0.6 2.5 1.9 2.9 l 2.1 1.3 l -2.2 3 c -0.5 0.7 -0.4 1.6 0.3 2.1 c 0.3 0.2 0.6 0.3 0.9 0.3 c 0.5 0 0.9 -0.2 1.2 -0.6 l 3 -4 c 0.4 -0.6 0.4 -1.4 -0.1 -2 l -2.2 -1.5 C 24 19.4 24 19.2 24 19 l 0.4 -2.6 l 3.1 1 c 0.2 0.1 0.3 0.1 0.5 0.1 c 0.6 0 1.2 -0.4 1.4 -1 C 29.7 15.7 29.3 14.8 28.5 14.6 z" stroke-linecap="round" />
</g>
<g transform="matrix(4.17 0 0 4.17 196.67 166.88)" id="surface1"  >
<path style="stroke: none; stroke-width: 1; stroke-dasharray: none; stroke-linecap: butt; stroke-dashoffset: 0; stroke-linejoin: miter; stroke-miterlimit: 4; fill: rgb(25,118,210); fill-rule: nonzero; opacity: 1;"  transform=" translate(-23.2, -16.05)" d="M 23.8 19.5 c 0.1 -0.2 0.1 0.1 0.1 0.1 l 0.5 -3.3 L 22 12.6 c 0 0 0 0 0 -0.1 l 0.6 6.1 L 23.8 19.5 z" stroke-linecap="round" />
</g>
<g transform="matrix(4.17 0 0 4.17 281.25 191.04)" id="surface1"  >
<path style="stroke: none; stroke-width: 1; stroke-dasharray: none; stroke-linecap: butt; stroke-dashoffset: 0; stroke-linejoin: miter; stroke-miterlimit: 4; fill: rgb(55,71,79); fill-rule: nonzero; opacity: 1;"  transform=" translate(-43.5, -21.85)" d="M 44 21.3 c -0.1 -0.2 -0.3 -0.3 -0.5 -0.3 c -0.3 0 -0.5 0.2 -0.5 0.5 c 0 0.2 0 0.8 0 1.2 C 43.5 22.4 43.9 21.9 44 21.3 z" stroke-linecap="round" />
</g>
<g transform="matrix(4.17 0 0 4.17 268.75 168.75)" id="surface1"  >
<path style="stroke: none; stroke-width: 1; stroke-dasharray: none; stroke-linecap: butt; stroke-dashoffset: 0; stroke-linejoin: miter; stroke-miterlimit: 4; fill: rgb(38,50,56); fill-rule: nonzero; opacity: 1;"  transform=" translate(-40.5, -16.5)" d="M 41 16.5 c 0 0.3 -0.2 0.5 -0.5 0.5 S 40 16.8 40 16.5 s 0.2 -0.5 0.5 -0.5 S 41 16.2 41 16.5 z" stroke-linecap="round" />
</g>
<g transform="matrix(4.17 0 0 4.17 256.25 147.92)" id="surface1"  >
<path style="stroke: none; stroke-width: 1; stroke-dasharray: none; stroke-linecap: butt; stroke-dashoffset: 0; stroke-linejoin: miter; stroke-miterlimit: 4; fill: rgb(141,110,99); fill-rule: nonzero; opacity: 1;"  transform=" translate(-37.5, -11.5)" d="M 36 14 v -1 c 0 0 0 -1 1 -2 s 1 -2 1 -2 s 1 1 0 3 c 0 0 0 1 1 2 H 36 z" stroke-linecap="round" />
</g>
<g transform="matrix(4.17 0 0 4.17 206.71 158.17)" id="surface1"  >
<path style="stroke: none; stroke-width: 1; stroke-dasharray: none; stroke-linecap: butt; stroke-dashoffset: 0; stroke-linejoin: miter; stroke-miterlimit: 4; fill: rgb(33,150,243); fill-rule: nonzero; opacity: 1;"  transform=" translate(-25.61, -13.96)" d="M 28 17.5 c -0.2 0 -0.3 0 -0.5 -0.1 L 24 16.2 l -2 -3.6 c -0.4 -0.7 -0.1 -1.6 0.6 -2 c 0.7 -0.4 1.6 -0.1 2 0.6 l 1.4 2.6 l 2.4 0.8 c 0.8 0.3 1.2 1.1 0.9 1.9 C 29.2 17.1 28.6 17.5 28 17.5 z" stroke-linecap="round" />
</g>
</svg>