<?xml version="1.0" encoding="UTF-8" standalone="no" ?>
<!DOCTYPE svg PUBLIC "-//W3C//DTD SVG 1.1//EN" "http://www.w3.org/Graphics/SVG/1.1/DTD/svg11.dtd">
<svg xmlns="http://www.w3.org/2000/svg" xmlns:xlink="http://www.w3.org/1999/xlink" version="1.1" width="400" height="400" viewBox="0 0 400 400" xml:space="preserve">
<desc>Created with Fabric.js 3.6.2</desc>
<defs>
</defs>
<g transform="matrix(4.17 0 0 4.17 200 197.6)" id="Layer_1"  >
<path style="stroke: none; stroke-width: 1; stroke-dasharray: none; stroke-linecap: butt; stroke-dashoffset: 0; stroke-linejoin: miter; stroke-miterlimit: 4; fill: rgb(128,203,196); fill-rule: nonzero; opacity: 1;"  transform=" translate(-24, -23.42)" d="M 27.5 34.75 c 7.173 17.43 22.829 2.371 5.512 -4.849 c 17.317 7.22 17.317 -14.735 0 -7.515 c 17.317 -7.22 1.894 -22.744 -5.279 -5.314 c 7.173 -17.43 -14.639 -17.43 -7.466 0 c -7.173 -17.43 -22.596 -1.906 -5.279 5.314 c -17.317 -7.22 -17.317 14.735 0 7.515 c -17.317 7.22 -1.661 22.279 5.512 4.849" stroke-linecap="round" />
</g>
<g transform="matrix(4.17 0 0 4.17 200 139.58)" id="Layer_1"  >
<path style="stroke: none; stroke-width: 1; stroke-dasharray: none; stroke-linecap: butt; stroke-dashoffset: 0; stroke-linejoin: miter; stroke-miterlimit: 4; fill: rgb(255,204,128); fill-rule: nonzero; opacity: 1;"  transform=" translate(-24, -9.5)" d="M 26 9 c 0 1.105 -2 3 -2 3 s -2 -1.895 -2 -3 s 0.895 -2 2 -2 S 26 7.895 26 9 z" stroke-linecap="round" />
</g>
<g transform="matrix(4.17 0 0 4.17 248.69 159.64)" id="Layer_1"  >
<path style="stroke: none; stroke-width: 1; stroke-dasharray: none; stroke-linecap: butt; stroke-dashoffset: 0; stroke-linejoin: miter; stroke-miterlimit: 4; fill: rgb(255,204,128); fill-rule: nonzero; opacity: 1;"  transform=" translate(-35.69, -14.31)" d="M 37.162 15.666 c -0.781 0.781 -3.536 0.707 -3.536 0.707 s -0.074 -2.754 0.707 -3.536 s 2.047 -0.781 2.828 0 S 37.943 14.885 37.162 15.666 z" stroke-linecap="round" />
</g>
<g transform="matrix(4.17 0 0 4.17 151.3 159.64)" id="Layer_1"  >
<path style="stroke: none; stroke-width: 1; stroke-dasharray: none; stroke-linecap: butt; stroke-dashoffset: 0; stroke-linejoin: miter; stroke-miterlimit: 4; fill: rgb(255,204,128); fill-rule: nonzero; opacity: 1;"  transform=" translate(-12.31, -14.31)" d="M 13.666 12.838 c 0.781 0.781 0.707 3.536 0.707 3.536 s -2.754 0.074 -3.536 -0.707 c -0.781 -0.781 -0.781 -2.047 0 -2.828 S 12.885 12.057 13.666 12.838 z" stroke-linecap="round" />
</g>
<g transform="matrix(4.17 0 0 4.17 151.31 257.04)" id="Layer_1"  >
<path style="stroke: none; stroke-width: 1; stroke-dasharray: none; stroke-linecap: butt; stroke-dashoffset: 0; stroke-linejoin: miter; stroke-miterlimit: 4; fill: rgb(255,204,128); fill-rule: nonzero; opacity: 1;"  transform=" translate(-12.31, -37.69)" d="M 10.838 36.336 c 0.781 -0.781 3.536 -0.707 3.536 -0.707 s 0.074 2.754 -0.707 3.536 c -0.781 0.781 -2.047 0.781 -2.828 0 C 10.057 38.383 10.057 37.117 10.838 36.336 z" stroke-linecap="round" />
</g>
<g transform="matrix(4.17 0 0 4.17 248.7 257.02)" id="Layer_1"  >
<path style="stroke: none; stroke-width: 1; stroke-dasharray: none; stroke-linecap: butt; stroke-dashoffset: 0; stroke-linejoin: miter; stroke-miterlimit: 4; fill: rgb(255,204,128); fill-rule: nonzero; opacity: 1;"  transform=" translate(-35.69, -37.69)" d="M 34.334 39.162 c -0.781 -0.781 -0.707 -3.536 -0.707 -3.536 s 2.754 -0.074 3.536 0.707 s 0.781 2.047 0 2.828 S 35.115 39.943 34.334 39.162 z" stroke-linecap="round" />
</g>
<g transform="matrix(4.17 0 0 4.17 268.75 208.33)" id="Layer_1"  >
<path style="stroke: none; stroke-width: 1; stroke-dasharray: none; stroke-linecap: butt; stroke-dashoffset: 0; stroke-linejoin: miter; stroke-miterlimit: 4; fill: rgb(255,204,128); fill-rule: nonzero; opacity: 1;"  transform=" translate(-40.5, -26)" d="M 41 28 c -1.105 0 -3 -2 -3 -2 s 1.895 -2 3 -2 s 2 0.895 2 2 S 42.105 28 41 28 z" stroke-linecap="round" />
</g>
<g transform="matrix(4.17 0 0 4.17 131.25 208.33)" id="Layer_1"  >
<path style="stroke: none; stroke-width: 1; stroke-dasharray: none; stroke-linecap: butt; stroke-dashoffset: 0; stroke-linejoin: miter; stroke-miterlimit: 4; fill: rgb(255,204,128); fill-rule: nonzero; opacity: 1;"  transform=" translate(-7.5, -26)" d="M 7 28 c 1.105 0 3 -2 3 -2 s -1.895 -2 -3 -2 s -2 0.895 -2 2 C 5 27.105 5.896 28 7 28 z" stroke-linecap="round" />
</g>
<g transform="matrix(4.17 0 0 4.17 200 254.17)" id="Layer_1"  >
<path style="stroke: none; stroke-width: 1; stroke-dasharray: none; stroke-linecap: butt; stroke-dashoffset: 0; stroke-linejoin: miter; stroke-miterlimit: 4; fill: rgb(25,118,210); fill-rule: nonzero; opacity: 1;"  transform=" translate(-24, -37)" d="M 34 36 c 0 4.418 -4.477 7 -10 7 s -10 -2.582 -10 -7 s 4.477 -5 10 -5 S 34 31.582 34 36 z" stroke-linecap="round" />
</g>
<g transform="matrix(4.17 0 0 4.17 199.94 229.46)" id="Layer_1"  >
<path style="stroke: none; stroke-width: 1; stroke-dasharray: none; stroke-linecap: butt; stroke-dashoffset: 0; stroke-linejoin: miter; stroke-miterlimit: 4; fill: rgb(30,136,229); fill-rule: nonzero; opacity: 1;"  transform=" translate(-23.99, -31.07)" d="M 33.647 38.042 C 32.487 41.203 28.608 43 24 43 c -4.644 0 -8.548 -1.825 -9.674 -5.033 c 10.273 -7.668 5.1 -10.22 9.156 -18.059 C 23.64 19.603 25.02 18.618 25 19.5 C 24.915 23.159 23.456 29.144 33.647 38.042 z" stroke-linecap="round" />
</g>
<g transform="matrix(4.17 0 0 4.17 195.83 181.25)" id="Layer_1"  >
<path style="stroke: none; stroke-width: 1; stroke-dasharray: none; stroke-linecap: butt; stroke-dashoffset: 0; stroke-linejoin: miter; stroke-miterlimit: 4; fill: rgb(21,101,192); fill-rule: nonzero; opacity: 1;"  transform=" translate(-23, -19.5)" d="M 25 19.5 c 0 1.381 -1 2.5 -3 2.5 c -1.105 0 -1 -1.119 -1 -2.5 s 0.895 -2.5 2 -2.5 S 25 18.119 25 19.5 z" stroke-linecap="round" />
</g>
<g transform="matrix(4.17 0 0 4.17 191.06 191.28)" id="Layer_1"  >
<path style="stroke: none; stroke-width: 1; stroke-dasharray: none; stroke-linecap: butt; stroke-dashoffset: 0; stroke-linejoin: miter; stroke-miterlimit: 4; fill: rgb(141,110,99); fill-rule: nonzero; opacity: 1;"  transform=" translate(-21.85, -21.91)" d="M 20.471 22.612 c 0 0 2.73 -0.444 2.765 -1.412 l -2.174 0.189 L 20.471 22.612 z" stroke-linecap="round" />
</g>
<g transform="matrix(4.17 0 0 4.17 190.79 189.26)" id="Layer_1"  >
<path style="stroke: none; stroke-width: 1; stroke-dasharray: none; stroke-linecap: butt; stroke-dashoffset: 0; stroke-linejoin: miter; stroke-miterlimit: 4; fill: rgb(188,170,164); fill-rule: nonzero; opacity: 1;"  transform=" translate(-21.79, -21.42)" d="M 21.646 19.854 c 0 0 -0.12 1.348 1.59 1.346 c 0 0 -1.447 -0.235 -2.757 1.792 c 0 0 -0.537 -0.439 0.519 -2.419 L 21.646 19.854 z" stroke-linecap="round" />
</g>
<g transform="matrix(4.17 0 0 4.17 197.52 181.3)" id="Layer_1"  >
<path style="stroke: none; stroke-width: 1; stroke-dasharray: none; stroke-linecap: butt; stroke-dashoffset: 0; stroke-linejoin: miter; stroke-miterlimit: 4; fill: rgb(33,33,33); fill-rule: nonzero; opacity: 1;"  transform=" translate(-23.4, -19.51)" d="M 22.951 19.357 c 0.226 -0.238 0.806 -0.341 0.806 -0.341 c 0.277 0.154 0.324 0.475 0.104 0.716 c -0.22 0.241 -0.693 0.362 -0.97 0.208 C 22.891 19.941 22.674 19.649 22.951 19.357 z" stroke-linecap="round" />
</g>
<g transform="matrix(4.17 0 0 4.17 195.83 163.07)" id="Layer_1"  >
<path style="stroke: none; stroke-width: 1; stroke-dasharray: none; stroke-linecap: butt; stroke-dashoffset: 0; stroke-linejoin: miter; stroke-miterlimit: 4; fill: rgb(229,115,115); fill-rule: nonzero; opacity: 1;"  transform=" translate(-23, -15.14)" d="M 24 14 c 0 1 -0.907 3.273 -1.907 3.273 C 23.093 15.273 22 15 22 14 c 0 -0.552 0.448 -1 1 -1 S 24 13.448 24 14 z" stroke-linecap="round" />
</g>
</svg>