<?xml version="1.0" encoding="UTF-8" standalone="no" ?>
<!DOCTYPE svg PUBLIC "-//W3C//DTD SVG 1.1//EN" "http://www.w3.org/Graphics/SVG/1.1/DTD/svg11.dtd">
<svg xmlns="http://www.w3.org/2000/svg" xmlns:xlink="http://www.w3.org/1999/xlink" version="1.1" width="400" height="400" viewBox="0 0 400 400" xml:space="preserve">
<desc>Created with Fabric.js 3.6.2</desc>
<defs>
</defs>
<g transform="matrix(4.17 0 0 4.17 170.85 211.45)" id="Layer_1"  >
<path style="stroke: none; stroke-width: 1; stroke-dasharray: none; stroke-linecap: butt; stroke-dashoffset: 0; stroke-linejoin: miter; stroke-miterlimit: 4; fill: rgb(251,192,45); fill-rule: nonzero; opacity: 1;"  transform=" translate(-17, -26.75)" d="M 23.001 19 h -5.997 c 0 0 -5.997 1 -5.997 6 s 2.999 7 2.999 7 s 2.702 3.25 3.249 2.336 c 2.119 -3.555 5.746 -11.54 5.746 -12.336 C 23.001 22 23.001 19 23.001 19 z" stroke-linecap="round" />
</g>
<g transform="matrix(4.17 0 0 4.17 229.15 211.45)" id="Layer_1"  >
<path style="stroke: none; stroke-width: 1; stroke-dasharray: none; stroke-linecap: butt; stroke-dashoffset: 0; stroke-linejoin: miter; stroke-miterlimit: 4; fill: rgb(251,192,45); fill-rule: nonzero; opacity: 1;"  transform=" translate(-31, -26.75)" d="M 25 19 h 5.997 c 0 0 5.997 1 5.997 6 s -2.999 7 -2.999 7 s -2.702 3.25 -3.249 2.336 C 28.627 30.781 25 22.796 25 22 V 19 z" stroke-linecap="round" />
</g>
<g transform="matrix(4.17 0 0 4.17 157.04 209.11)" id="Layer_1"  >
<path style="stroke: none; stroke-width: 1; stroke-dasharray: none; stroke-linecap: butt; stroke-dashoffset: 0; stroke-linejoin: miter; stroke-miterlimit: 4; fill: rgb(13,71,161); fill-rule: nonzero; opacity: 1;"  transform=" translate(-13.69, -26.19)" d="M 15.889 21.528 c 1.079 -0.213 1.788 -1.271 1.574 -2.35 c -0.07 -0.353 -0.236 -0.677 -0.459 -0.929 c -0.227 0.656 -0.777 1.173 -1.503 1.316 s -1.431 -0.125 -1.891 -0.646 c -0.111 0.317 -0.141 0.68 -0.071 1.033 c 0.027 0.136 0.068 0.266 0.12 0.39 c -0.044 -0.044 -0.082 -0.092 -0.131 -0.133 c -0.277 -0.229 -0.803 0.971 -1.275 1.542 c -0.472 0.57 -1.188 0.809 -1.873 0.696 c 0.115 0.316 0.321 0.616 0.599 0.845 c 0.051 0.042 0.108 0.072 0.162 0.108 c -0.087 -0.012 -0.174 -0.027 -0.265 -0.027 c -0.36 0 -0.71 0.1 -1 0.27 c 0.6 0.35 1 0.99 1 1.73 s -0.4 1.38 -1 1.73 c 0.252 0.147 0.551 0.229 0.861 0.251 c -0.233 0.118 -0.448 0.265 -0.611 0.453 c 0.681 0.139 1.265 0.616 1.503 1.317 s 0.065 1.435 -0.391 1.96 c 0.329 0.068 0.693 0.05 1.034 -0.066 c 0.064 -0.022 0.121 -0.055 0.181 -0.083 c -0.154 0.194 -0.283 0.404 -0.353 0.628 c 0.679 -0.145 1.406 0.059 1.904 0.607 c 0.498 0.547 0.633 1.29 0.424 1.953 c 0.329 -0.069 0.655 -0.231 0.921 -0.473 c 0.814 -0.74 0.874 -2.012 0.134 -2.825 c -0.589 -0.647 -1.511 -0.809 -2.275 -0.479 c 0.395 -0.513 0.537 -1.208 0.315 -1.864 c -0.262 -0.772 -0.957 -1.278 -1.723 -1.346 c 0.635 -0.336 1.076 -0.997 1.076 -1.762 c 0 -0.68 -0.345 -1.282 -0.868 -1.644 c 0.655 0.079 1.337 -0.161 1.786 -0.704 c 0.49 -0.593 0.57 -1.387 0.29 -2.053 C 14.541 21.431 15.21 21.662 15.889 21.528 z" stroke-linecap="round" />
</g>
<g transform="matrix(4.17 0 0 4.17 242.97 209.11)" id="Layer_1"  >
<path style="stroke: none; stroke-width: 1; stroke-dasharray: none; stroke-linecap: butt; stroke-dashoffset: 0; stroke-linejoin: miter; stroke-miterlimit: 4; fill: rgb(13,71,161); fill-rule: nonzero; opacity: 1;"  transform=" translate(-34.31, -26.19)" d="M 32.112 21.528 c -1.079 -0.213 -1.788 -1.271 -1.574 -2.35 c 0.07 -0.353 0.236 -0.677 0.459 -0.929 c 0.227 0.656 0.777 1.173 1.503 1.316 c 0.726 0.143 1.431 -0.125 1.891 -0.646 c 0.111 0.317 0.141 0.68 0.071 1.033 c -0.027 0.136 -0.068 0.266 -0.12 0.39 c 0.044 -0.044 0.082 -0.092 0.131 -0.133 c 0.277 -0.229 0.803 0.971 1.275 1.542 c 0.472 0.57 1.188 0.809 1.873 0.696 c -0.115 0.316 -0.321 0.616 -0.599 0.845 c -0.051 0.042 -0.108 0.072 -0.162 0.108 c 0.087 -0.012 0.174 -0.027 0.265 -0.027 c 0.36 0 0.71 0.1 1 0.27 c -0.6 0.35 -1 0.99 -1 1.73 s 0.4 1.38 1 1.73 c -0.252 0.147 -0.551 0.229 -0.861 0.251 c 0.233 0.118 0.448 0.265 0.611 0.453 c -0.681 0.139 -1.265 0.616 -1.503 1.317 s -0.065 1.435 0.391 1.96 c -0.329 0.068 -0.693 0.05 -1.034 -0.066 c -0.064 -0.022 -0.121 -0.055 -0.181 -0.083 c 0.154 0.194 0.283 0.404 0.353 0.628 c -0.679 -0.145 -1.406 0.059 -1.904 0.607 c -0.498 0.547 -0.633 1.29 -0.424 1.953 c -0.329 -0.069 -0.655 -0.231 -0.921 -0.473 c -0.814 -0.74 -0.874 -2.012 -0.134 -2.825 c 0.589 -0.647 1.511 -0.809 2.275 -0.479 c -0.395 -0.513 -0.537 -1.208 -0.315 -1.864 c 0.262 -0.772 0.957 -1.278 1.723 -1.346 c -0.635 -0.336 -1.076 -0.997 -1.076 -1.762 c 0 -0.68 0.345 -1.282 0.868 -1.644 c -0.655 0.079 -1.337 -0.161 -1.786 -0.704 c -0.49 -0.593 -0.57 -1.387 -0.29 -2.053 C 33.46 21.431 32.791 21.662 32.112 21.528 z" stroke-linecap="round" />
</g>
<g transform="matrix(4.17 0 0 4.17 171.88 155.9)" id="Layer_1"  >
<path style="stroke: none; stroke-width: 1; stroke-dasharray: none; stroke-linecap: butt; stroke-dashoffset: 0; stroke-linejoin: miter; stroke-miterlimit: 4; fill: rgb(253,216,53); fill-rule: nonzero; opacity: 1;"  transform=" translate(-17.25, -13.41)" d="M 23 19 v 1 c 0 0 -6.55 0 -10.09 0 c 0.06 -0.16 0.09 -0.32 0.09 -0.5 c 0 -0.83 -0.67 -1.5 -1.5 -1.5 c 0.83 0 1.5 -0.67 1.5 -1.5 S 12.33 15 11.5 15 c 0.83 0 1.5 -0.67 1.5 -1.5 S 12.33 12 11.5 12 c 0.83 0 1.5 -0.67 1.5 -1.5 S 12.33 9 11.5 9 C 12.33 9 13 8.33 13 7.5 c 0 -0.24 -0.06 -0.47 -0.17 -0.67 C 18.83 9.4 23 17.33 23 19 z" stroke-linecap="round" />
</g>
<g transform="matrix(4.17 0 0 4.17 228.13 155.9)" id="Layer_1"  >
<path style="stroke: none; stroke-width: 1; stroke-dasharray: none; stroke-linecap: butt; stroke-dashoffset: 0; stroke-linejoin: miter; stroke-miterlimit: 4; fill: rgb(253,216,53); fill-rule: nonzero; opacity: 1;"  transform=" translate(-30.75, -13.41)" d="M 25.001 19 v 1 c 0 0 6.55 0 10.091 0 c -0.06 -0.16 -0.09 -0.32 -0.09 -0.5 c 0 -0.83 0.67 -1.5 1.5 -1.5 c -0.83 0 -1.5 -0.67 -1.5 -1.5 s 0.67 -1.5 1.5 -1.5 c -0.83 0 -1.5 -0.67 -1.5 -1.5 s 0.67 -1.5 1.5 -1.5 c -0.83 0 -1.5 -0.67 -1.5 -1.5 s 0.67 -1.5 1.5 -1.5 c -0.83 0 -1.5 -0.67 -1.5 -1.5 c 0 -0.24 0.06 -0.47 0.17 -0.67 C 29.171 9.4 25.001 17.33 25.001 19 z" stroke-linecap="round" />
</g>
<g transform="matrix(4.17 0 0 4.17 181.26 215.56)" id="Layer_1"  >
<path style="stroke: none; stroke-width: 1; stroke-dasharray: none; stroke-linecap: butt; stroke-dashoffset: 0; stroke-linejoin: miter; stroke-miterlimit: 4; fill: rgb(130,119,23); fill-rule: nonzero; opacity: 1;"  transform=" translate(-19.5, -27.73)" d="M 16.124 35.379 c -0.01 0.03 -0.01 0.06 -0.02 0.09 c 0.06 -0.02 1.11 -1.07 1.15 -1.13 C 19.373 30.779 23.001 22.8 23.001 22 v -2 h -2.999 l 1 3 c 0 0 -1 5 -4.998 6 C 16.357 29.129 18.003 31.038 16.124 35.379 z" stroke-linecap="round" />
</g>
<g transform="matrix(4.17 0 0 4.17 182.04 167.5)" id="Layer_1"  >
<path style="stroke: none; stroke-width: 1; stroke-dasharray: none; stroke-linecap: butt; stroke-dashoffset: 0; stroke-linejoin: miter; stroke-miterlimit: 4; fill: rgb(130,119,23); fill-rule: nonzero; opacity: 1;"  transform=" translate(-19.69, -16.2)" d="M 23 18.97 V 20 c 0 0 -3.42 0 -6.62 0 c 0.93 -0.32 1.61 -1.22 1.61 -2.31 c 0 -0.99 -0.57 -1.84 -1.38 -2.22 c 0.79 0.13 1.61 -0.11 2.22 -0.75 c 0.6 -0.63 0.83 -1.5 0.71 -2.32 c 2.01 2.6 3.26 5.25 3.44 6.36 C 22.99 18.84 23 18.91 23 18.97 z" stroke-linecap="round" />
</g>
<g transform="matrix(4.17 0 0 4.17 218.74 215.56)" id="Layer_1"  >
<path style="stroke: none; stroke-width: 1; stroke-dasharray: none; stroke-linecap: butt; stroke-dashoffset: 0; stroke-linejoin: miter; stroke-miterlimit: 4; fill: rgb(130,119,23); fill-rule: nonzero; opacity: 1;"  transform=" translate(-28.5, -27.73)" d="M 31.877 35.379 c 0.01 0.03 0.01 0.06 0.02 0.09 c -0.06 -0.02 -1.11 -1.07 -1.15 -1.13 C 28.628 30.779 25 22.8 25 22 v -2 h 2.999 l -1 3 c 0 0 1 5 4.998 6 C 31.644 29.129 29.997 31.038 31.877 35.379 z" stroke-linecap="round" />
</g>
<g transform="matrix(4.17 0 0 4.17 217.96 167.5)" id="Layer_1"  >
<path style="stroke: none; stroke-width: 1; stroke-dasharray: none; stroke-linecap: butt; stroke-dashoffset: 0; stroke-linejoin: miter; stroke-miterlimit: 4; fill: rgb(130,119,23); fill-rule: nonzero; opacity: 1;"  transform=" translate(-28.31, -16.2)" d="M 25.001 18.97 V 20 c 0 0 3.42 0 6.62 0 c -0.93 -0.32 -1.61 -1.22 -1.61 -2.31 c 0 -0.99 0.57 -1.84 1.38 -2.22 c -0.79 0.13 -1.61 -0.11 -2.22 -0.75 c -0.6 -0.63 -0.83 -1.5 -0.71 -2.32 c -2.01 2.6 -3.26 5.25 -3.44 6.36 C 25.011 18.84 25.001 18.91 25.001 18.97 z" stroke-linecap="round" />
</g>
<g transform="matrix(4.17 0 0 4.17 203.65 173.96)" id="Layer_1"  >
<path style="stroke: none; stroke-width: 1; stroke-dasharray: none; stroke-linecap: butt; stroke-dashoffset: 0; stroke-linejoin: miter; stroke-miterlimit: 4; fill: rgb(62,39,35); fill-rule: nonzero; opacity: 1;"  transform=" translate(-24.88, -17.75)" d="M 24.626 17.25 c 0.276 0 0.5 0.224 0.5 0.5 s -0.224 0.5 -0.5 0.5" stroke-linecap="round" />
</g>
<g transform="matrix(4.17 0 0 4.17 196.36 173.96)" id="Layer_1"  >
<path style="stroke: none; stroke-width: 1; stroke-dasharray: none; stroke-linecap: butt; stroke-dashoffset: 0; stroke-linejoin: miter; stroke-miterlimit: 4; fill: rgb(62,39,35); fill-rule: nonzero; opacity: 1;"  transform=" translate(-23.13, -17.75)" d="M 23.376 17.25 c -0.276 0 -0.5 0.224 -0.5 0.5 s 0.224 0.5 0.5 0.5" stroke-linecap="round" />
</g>
<g transform="matrix(4.17 0 0 4.17 200 187.43)" id="Layer_1"  >
<path style="stroke: none; stroke-width: 1; stroke-dasharray: none; stroke-linecap: butt; stroke-dashoffset: 0; stroke-linejoin: miter; stroke-miterlimit: 4; fill: rgb(251,140,0); fill-rule: nonzero; opacity: 1;"  transform=" translate(-24, -20.98)" d="M 26 20 c 0 1.657 0 5 -2 5 s -2 -3.343 -2 -5 c 0 -1.11 1.375 -0.75 1.375 -2.75 c 0.25 -0.375 1 -0.375 1.25 0 C 24.626 19.25 26 18.89 26 20 z" stroke-linecap="round" />
</g>
<g transform="matrix(4.17 0 0 4.17 200 197.91)" id="Layer_1"  >
<path style="stroke: none; stroke-width: 1; stroke-dasharray: none; stroke-linecap: butt; stroke-dashoffset: 0; stroke-linejoin: miter; stroke-miterlimit: 4; fill: rgb(62,39,35); fill-rule: nonzero; opacity: 1;"  transform=" translate(-24, -23.5)" d="M 25 28.999 c 0 0.555 -0.445 1 -1 1 s -1 -0.445 -1 -1 c 0 0 -1 -6 0 -9.75 C 24 18 24 17 24 17 s 0 1 1 2.25 C 26 23 25 28.999 25 28.999 z" stroke-linecap="round" />
</g>
<g transform="matrix(4.17 0 0 4.17 151.04 154.88)" id="Layer_1"  >
<path style="stroke: none; stroke-width: 1; stroke-dasharray: none; stroke-linecap: butt; stroke-dashoffset: 0; stroke-linejoin: miter; stroke-miterlimit: 4; fill: rgb(62,39,35); fill-rule: nonzero; opacity: 1;"  transform=" translate(-12.25, -13.17)" d="M 12.5 12 c 0.83 0 1.5 0.67 1.5 1.5 S 13.33 15 12.5 15 c 0.83 0 1.5 0.67 1.5 1.5 S 13.33 18 12.5 18 c 0.83 0 1.5 0.67 1.5 1.5 c 0 0.18 -0.03 0.34 -0.09 0.5 h -2 c 0.06 -0.16 0.09 -0.32 0.09 -0.5 c 0 -0.83 -0.67 -1.5 -1.5 -1.5 c 0.83 0 1.5 -0.67 1.5 -1.5 S 11.33 15 10.5 15 c 0.83 0 1.5 -0.67 1.5 -1.5 S 11.33 12 10.5 12 c 0.83 0 1.5 -0.67 1.5 -1.5 S 11.33 9 10.5 9 C 11.33 9 12 8.33 12 7.5 c 0 -0.47 -0.22 -0.89 -0.56 -1.16 c 0.19 0.05 0.37 0.11 0.56 0.17 c 0.28 0.09 0.56 0.2 0.83 0.32 C 13.22 7 13.61 7.19 13.99 7.4 C 14 7.43 14 7.47 14 7.5 C 14 8.33 13.33 9 12.5 9 c 0.83 0 1.5 0.67 1.5 1.5 S 13.33 12 12.5 12 z" stroke-linecap="round" />
</g>
<g transform="matrix(4.17 0 0 4.17 248.96 154.88)" id="Layer_1"  >
<path style="stroke: none; stroke-width: 1; stroke-dasharray: none; stroke-linecap: butt; stroke-dashoffset: 0; stroke-linejoin: miter; stroke-miterlimit: 4; fill: rgb(62,39,35); fill-rule: nonzero; opacity: 1;"  transform=" translate(-35.75, -13.17)" d="M 35.501 12 c -0.83 0 -1.5 0.67 -1.5 1.5 s 0.67 1.5 1.5 1.5 c -0.83 0 -1.5 0.67 -1.5 1.5 s 0.67 1.5 1.5 1.5 c -0.83 0 -1.5 0.67 -1.5 1.5 c 0 0.18 0.03 0.34 0.09 0.5 h 2 c -0.06 -0.16 -0.09 -0.32 -0.09 -0.5 c 0 -0.83 0.67 -1.5 1.5 -1.5 c -0.83 0 -1.5 -0.67 -1.5 -1.5 s 0.67 -1.5 1.5 -1.5 c -0.83 0 -1.5 -0.67 -1.5 -1.5 s 0.67 -1.5 1.5 -1.5 c -0.83 0 -1.5 -0.67 -1.5 -1.5 s 0.67 -1.5 1.5 -1.5 c -0.83 0 -1.5 -0.67 -1.5 -1.5 c 0 -0.47 0.22 -0.89 0.56 -1.16 c -0.19 0.05 -0.37 0.11 -0.56 0.17 c -0.28 0.09 -0.56 0.2 -0.83 0.32 c -0.39 0.17 -0.78 0.36 -1.16 0.57 c -0.01 0.03 -0.01 0.07 -0.01 0.1 c 0 0.83 0.67 1.5 1.5 1.5 c -0.83 0 -1.5 0.67 -1.5 1.5 S 34.671 12 35.501 12 z" stroke-linecap="round" />
</g>
<g transform="matrix(4.17 0 0 4.17 135.42 154.18)" id="Layer_1"  >
<path style="stroke: none; stroke-width: 1; stroke-dasharray: none; stroke-linecap: butt; stroke-dashoffset: 0; stroke-linejoin: miter; stroke-miterlimit: 4; fill: rgb(62,39,35); fill-rule: nonzero; opacity: 1;"  transform=" translate(-8.5, -13)" d="M 12 6.51 V 20 h -0.95 c -2.98 0 -2.98 -2 -2.98 -2 s -0.42 -4.7 -1.41 -6.7 C 5.5 8.97 5.08 8.01 5.08 8.01 S 4.12 6.06 8.92 6.02 c 0.71 -0.05 1.43 0.03 2.12 0.22 C 11.36 6.31 11.68 6.4 12 6.51 z" stroke-linecap="round" />
</g>
<g transform="matrix(4.17 0 0 4.17 264.58 154.18)" id="Layer_1"  >
<path style="stroke: none; stroke-width: 1; stroke-dasharray: none; stroke-linecap: butt; stroke-dashoffset: 0; stroke-linejoin: miter; stroke-miterlimit: 4; fill: rgb(62,39,35); fill-rule: nonzero; opacity: 1;"  transform=" translate(-39.5, -13)" d="M 36.001 6.51 V 20 h 0.95 c 2.98 0 2.98 -2 2.98 -2 s 0.42 -4.7 1.41 -6.7 c 1.16 -2.33 1.58 -3.29 1.58 -3.29 s 0.96 -1.95 -3.84 -1.99 c -0.71 -0.05 -1.43 0.03 -2.12 0.22 C 36.641 6.31 36.321 6.4 36.001 6.51 z" stroke-linecap="round" />
</g>
<g transform="matrix(4.17 0 0 4.17 148.44 227.08)" id="Layer_1"  >
<path style="stroke: none; stroke-width: 1; stroke-dasharray: none; stroke-linecap: butt; stroke-dashoffset: 0; stroke-linejoin: miter; stroke-miterlimit: 4; fill: rgb(62,39,35); fill-rule: nonzero; opacity: 1;"  transform=" translate(-11.63, -30.5)" d="M 17.251 34.34 C 16.696 35.23 14.006 32 14.006 32 s -2.999 -2 -2.999 -7 s 5.997 -5 5.997 -5 h -3.998 c 0 0 -3.998 0 -3.998 5 c 0 2.5 0.749 4.749 1.499 6.374 c 0.001 0.007 -0.002 0.008 -0.001 0.016 c 1.169 2.123 -1.84 5.847 -3.542 6.72 c -0.202 0.098 -0.387 0.204 -0.518 0.327 c -0.601 0.57 -0.586 1.535 0 2.121 s 1.542 0.594 2.12 0 c 0.187 -0.189 0.33 -0.53 0.441 -0.918 l 0 0 c 0.544 -1.912 3.373 -4.019 4.838 -3.593 c 0.982 0.823 2.193 1.299 3.16 0.703 C 17.25 36.598 16.708 35.25 17.251 34.34 z" stroke-linecap="round" />
</g>
<g transform="matrix(4.17 0 0 4.17 251.56 227.08)" id="Layer_1"  >
<path style="stroke: none; stroke-width: 1; stroke-dasharray: none; stroke-linecap: butt; stroke-dashoffset: 0; stroke-linejoin: miter; stroke-miterlimit: 4; fill: rgb(62,39,35); fill-rule: nonzero; opacity: 1;"  transform=" translate(-36.38, -30.5)" d="M 30.75 34.34 c 0.555 0.89 3.245 -2.34 3.245 -2.34 s 2.999 -2 2.999 -7 s -5.997 -5 -5.997 -5 h 3.998 c 0 0 3.998 0 3.998 5 c 0 2.5 -0.75 4.749 -1.499 6.374 c -0.001 0.007 0.002 0.008 0.001 0.016 c -1.169 2.123 1.84 5.847 3.542 6.72 c 0.202 0.098 0.387 0.204 0.518 0.327 c 0.601 0.57 0.586 1.535 0 2.121 s -1.542 0.594 -2.12 0 c -0.187 -0.189 -0.33 -0.53 -0.441 -0.918 l 0 0 c -0.544 -1.912 -3.373 -4.019 -4.838 -3.593 c -0.982 0.823 -2.193 1.299 -3.16 0.703 C 30.751 36.598 31.293 35.25 30.75 34.34 z" stroke-linecap="round" />
</g>
<g transform="matrix(4.17 0 0 4.17 162.5 245.83)" id="Layer_1"  >
<circle style="stroke: none; stroke-width: 1; stroke-dasharray: none; stroke-linecap: butt; stroke-dashoffset: 0; stroke-linejoin: miter; stroke-miterlimit: 4; fill: rgb(191,54,12); fill-rule: nonzero; opacity: 1;"  cx="0" cy="0" r="1" />
</g>
<g transform="matrix(4.17 0 0 4.17 237.5 245.83)" id="Layer_1"  >
<circle style="stroke: none; stroke-width: 1; stroke-dasharray: none; stroke-linecap: butt; stroke-dashoffset: 0; stroke-linejoin: miter; stroke-miterlimit: 4; fill: rgb(191,54,12); fill-rule: nonzero; opacity: 1;"  cx="0" cy="0" r="1" />
</g>
<g transform="matrix(4.17 0 0 4.17 146.88 154.21)" id="Layer_1"  >
<path style="stroke: none; stroke-width: 1; stroke-dasharray: none; stroke-linecap: butt; stroke-dashoffset: 0; stroke-linejoin: miter; stroke-miterlimit: 4; fill: rgb(251,140,0); fill-rule: nonzero; opacity: 1;"  transform=" translate(-11.25, -13.01)" d="M 11.5 12 c 0.83 0 1.5 0.67 1.5 1.5 S 12.33 15 11.5 15 c 0.83 0 1.5 0.67 1.5 1.5 S 12.33 18 11.5 18 c 0.83 0 1.5 0.67 1.5 1.5 c 0 0.18 -0.03 0.34 -0.09 0.5 h -1.86 c -0.05 0 -0.09 0 -0.14 -0.01 C 10.97 19.84 11 19.67 11 19.5 c 0 -0.83 -0.67 -1.5 -1.5 -1.5 c 0.83 0 1.5 -0.67 1.5 -1.5 S 10.33 15 9.5 15 c 0.83 0 1.5 -0.67 1.5 -1.5 S 10.33 12 9.5 12 c 0.83 0 1.5 -0.67 1.5 -1.5 S 10.33 9 9.5 9 C 10.33 9 11 8.33 11 7.5 c 0 -0.77 -0.57 -1.4 -1.32 -1.48 c 0.45 0.02 0.91 0.1 1.36 0.22 C 11.36 6.31 11.68 6.4 12 6.51 c 0.28 0.09 0.56 0.2 0.83 0.32 C 12.94 7.03 13 7.26 13 7.5 C 13 8.33 12.33 9 11.5 9 c 0.83 0 1.5 0.67 1.5 1.5 S 12.33 12 11.5 12 z" stroke-linecap="round" />
</g>
<g transform="matrix(4.17 0 0 4.17 253.13 154.21)" id="Layer_1"  >
<path style="stroke: none; stroke-width: 1; stroke-dasharray: none; stroke-linecap: butt; stroke-dashoffset: 0; stroke-linejoin: miter; stroke-miterlimit: 4; fill: rgb(251,140,0); fill-rule: nonzero; opacity: 1;"  transform=" translate(-36.75, -13.01)" d="M 36.501 12 c -0.83 0 -1.5 0.67 -1.5 1.5 s 0.67 1.5 1.5 1.5 c -0.83 0 -1.5 0.67 -1.5 1.5 s 0.67 1.5 1.5 1.5 c -0.83 0 -1.5 0.67 -1.5 1.5 c 0 0.18 0.03 0.34 0.09 0.5 h 1.86 c 0.05 0 0.09 0 0.14 -0.01 c -0.06 -0.15 -0.09 -0.32 -0.09 -0.49 c 0 -0.83 0.67 -1.5 1.5 -1.5 c -0.83 0 -1.5 -0.67 -1.5 -1.5 s 0.67 -1.5 1.5 -1.5 c -0.83 0 -1.5 -0.67 -1.5 -1.5 s 0.67 -1.5 1.5 -1.5 c -0.83 0 -1.5 -0.67 -1.5 -1.5 s 0.67 -1.5 1.5 -1.5 c -0.83 0 -1.5 -0.67 -1.5 -1.5 c 0 -0.77 0.57 -1.4 1.32 -1.48 c -0.45 0.02 -0.91 0.1 -1.36 0.22 c -0.32 0.07 -0.64 0.16 -0.96 0.27 c -0.28 0.09 -0.56 0.2 -0.83 0.32 c -0.11 0.2 -0.17 0.43 -0.17 0.67 c 0 0.83 0.67 1.5 1.5 1.5 c -0.83 0 -1.5 0.67 -1.5 1.5 S 35.671 12 36.501 12 z" stroke-linecap="round" />
</g>
</svg>