<?xml version="1.0" encoding="UTF-8" standalone="no" ?>
<!DOCTYPE svg PUBLIC "-//W3C//DTD SVG 1.1//EN" "http://www.w3.org/Graphics/SVG/1.1/DTD/svg11.dtd">
<svg xmlns="http://www.w3.org/2000/svg" xmlns:xlink="http://www.w3.org/1999/xlink" version="1.1" width="400" height="400" viewBox="0 0 400 400" xml:space="preserve">
<desc>Created with Fabric.js 3.6.2</desc>
<defs>
</defs>
<g transform="matrix(4.17 0 0 4.17 166.67 196.98)" id="Layer_1"  >
<path style="stroke: none; stroke-width: 1; stroke-dasharray: none; stroke-linecap: butt; stroke-dashoffset: 0; stroke-linejoin: miter; stroke-miterlimit: 4; fill: rgb(245,124,0); fill-rule: nonzero; opacity: 1;"  transform=" translate(-16, -23.27)" d="M 26 15 c 0 4.38 -2 7 -2 7 s 0 6.23 0 9 c 0 4.97 -4.03 9 -9 9 s -9 -4.03 -9 -9 c 0 -2.9 1.62 -5.35 3.75 -7 c 1.52 -1.18 4.25 -2 4.25 -5.5 c 0 -0.17 -0.01 -0.34 -0.03 -0.5 C 13.71 15.74 19.4 5.61 21 6.62 C 24 8.49 26 11.76 26 15 z" stroke-linecap="round" />
</g>
<g transform="matrix(4.17 0 0 4.17 216.67 237.5)" id="Layer_1"  >
<path style="stroke: none; stroke-width: 1; stroke-dasharray: none; stroke-linecap: butt; stroke-dashoffset: 0; stroke-linejoin: miter; stroke-miterlimit: 4; fill: rgb(255,204,128); fill-rule: nonzero; opacity: 1;"  transform=" translate(-28, -33)" d="M 36 33 c 0 4.418 -3.457 9 -7.875 9 S 20 37.418 20 33 s 3.707 -9 8.125 -9 S 36 28.582 36 33 z" stroke-linecap="round" />
</g>
<g transform="matrix(4.17 0 0 4.17 237.5 139.58)" id="Layer_1"  >
<path style="stroke: none; stroke-width: 1; stroke-dasharray: none; stroke-linecap: butt; stroke-dashoffset: 0; stroke-linejoin: miter; stroke-miterlimit: 4; fill: rgb(245,124,0); fill-rule: nonzero; opacity: 1;"  transform=" translate(-33, -9.5)" d="M 36 13 L 36 13 c 0 0.552 0 1 0 1 h -3 c 0 0 -2 0 -2 -2.5 c 0 -0.7 -0.07 -1.59 -0.28 -2.48 c 0 -0.01 0 -0.01 0 -0.02 C 30.34 7.34 30.65 5.65 30 5 C 30 5 36 7 36 13 z" stroke-linecap="round" />
</g>
<g transform="matrix(4.17 0 0 4.17 233.33 272.92)" id="Layer_1"  >
<path style="stroke: none; stroke-width: 1; stroke-dasharray: none; stroke-linecap: butt; stroke-dashoffset: 0; stroke-linejoin: miter; stroke-miterlimit: 4; fill: rgb(255,152,0); fill-rule: nonzero; opacity: 1;"  transform=" translate(-32, -41.5)" d="M 37 43 H 27 l 4 -3 h 3 C 35.657 40 37 41.343 37 43 z" stroke-linecap="round" />
</g>
<g transform="matrix(4.17 0 0 4.17 254.2 204.95)" id="Layer_1"  >
<path style="stroke: none; stroke-width: 1; stroke-dasharray: none; stroke-linecap: butt; stroke-dashoffset: 0; stroke-linejoin: miter; stroke-miterlimit: 4; fill: rgb(245,124,0); fill-rule: nonzero; opacity: 1;"  transform=" translate(-37.01, -25.19)" d="M 35.75 22.375 c -1.054 0.769 -1.297 1.216 -2.357 1.92 C 34.231 26.061 35.165 28 36.25 28 c 0.75 0 1.245 -0.417 1.625 -0.75 c 1 -0.875 1.628 -1.25 2.75 -1.25 v -3 c -2.375 0 -4.114 1.01 -4.125 1 L 35.75 22.375 z" stroke-linecap="round" />
</g>
<g transform="matrix(4.17 0 0 4.17 268.75 202.08)" id="Layer_1"  >
<circle style="stroke: none; stroke-width: 1; stroke-dasharray: none; stroke-linecap: butt; stroke-dashoffset: 0; stroke-linejoin: miter; stroke-miterlimit: 4; fill: rgb(245,124,0); fill-rule: nonzero; opacity: 1;"  cx="0" cy="0" r="1.5" />
</g>
<g transform="matrix(4.17 0 0 4.17 222.14 200)" id="Layer_1"  >
<path style="stroke: none; stroke-width: 1; stroke-dasharray: none; stroke-linecap: butt; stroke-dashoffset: 0; stroke-linejoin: miter; stroke-miterlimit: 4; fill: rgb(255,152,0); fill-rule: nonzero; opacity: 1;"  transform=" translate(-29.31, -24)" d="M 42.474 16.259 c 0 0 -1.474 -1.259 -1.974 -2.259 c -0.46 -0.92 -0.63 -1.43 -1.5 -2 c -0.77 -0.5 -2.07 -1 -4 -1 c -0.85 0 -1.573 0.107 -2.226 0.264 C 31.604 6.615 26 5 26 5 c 0.65 0.65 1.34 2.34 1.72 4 c 0 0.01 0 0.01 0 0.02 C 27.93 9.91 28 10.8 28 11.5 c 0 1.419 0.644 2.031 1.201 2.297 c -0.491 0.835 -0.772 1.747 -0.951 2.583 c 0 0 -2.62 1.5 -4.25 4.62 c -4 1 -8 5 -8 11 c 0 7 3.81 11 8.5 11 c 0.59 0 4.5 0 4.5 0 l 1.524 -0.788 c 1.462 -1.31 2.476 -4.127 2.476 -7.4 c 0 -2.865 -0.827 -5.35 -2.001 -6.813 c 0.499 -0.416 0.922 -1.183 1.001 -2 c 0.95 1.93 2.96 4 4.25 4 c 0.75 0 1.24 -0.42 1.63 -0.75 c 1 -0.87 1.62 -1.25 2.74 -1.25 v -3 c -2.36 0 -3.6 1 -3.62 1 l -1 -4.38 C 35.92 21.31 36.16 21 36.49 21 H 38 c 1.5 0 2 -0.5 2 -1 c 0 -0.29 0.65 -0.96 1.34 -1.59 c 0.04 -0.03 0.07 -0.07 0.11 -0.1 c 0.14 0.22 0.31 0.45 0.55 0.69 c 0 0 0.01 0 0.02 -0.01 c 0.14 -0.1 0.605 -0.73 0.605 -1.99 C 42.625 16.62 42.474 16.259 42.474 16.259 z" stroke-linecap="round" />
</g>
<g transform="matrix(4.17 0 0 4.17 254.17 162.5)" id="Layer_1"  >
<path style="stroke: none; stroke-width: 1; stroke-dasharray: none; stroke-linecap: butt; stroke-dashoffset: 0; stroke-linejoin: miter; stroke-miterlimit: 4; fill: rgb(62,39,35); fill-rule: nonzero; opacity: 1;"  transform=" translate(-37, -15)" d="M 38 15 c 0 0.182 0 1 0 1 s -0.63 0 -1 0 c -0.552 0 -1 -0.448 -1 -1 c 0 -0.316 0 -1 0 -1 s 0.763 0 1 0 C 37.552 14 38 14.448 38 15 z" stroke-linecap="round" />
</g>
<g transform="matrix(4.17 0 0 4.17 275 172.92)" id="Layer_1"  >
<path style="stroke: none; stroke-width: 1; stroke-dasharray: none; stroke-linecap: butt; stroke-dashoffset: 0; stroke-linejoin: miter; stroke-miterlimit: 4; fill: rgb(245,124,0); fill-rule: nonzero; opacity: 1;"  transform=" translate(-42, -17.5)" d="M 43 17 c 0 1.125 -0.84 1.89 -0.98 1.99 C 42.01 19 42 19 42 19 c -0.203 0 -1 -0.625 -1 -1.875 C 41 16.5 41.375 16 42 16 c 0.125 0 0.239 0.068 0.375 0.177 C 43 16.677 43 17 43 17 z" stroke-linecap="round" />
</g>
<g transform="matrix(4.17 0 0 4.17 268.75 210.42)" id="Layer_1"  >
<circle style="stroke: none; stroke-width: 1; stroke-dasharray: none; stroke-linecap: butt; stroke-dashoffset: 0; stroke-linejoin: miter; stroke-miterlimit: 4; fill: rgb(255,152,0); fill-rule: nonzero; opacity: 1;"  cx="0" cy="0" r="1.5" />
</g>
<g transform="matrix(4.17 0 0 4.17 221.63 145.3)" id="Layer_1"  >
<path style="stroke: none; stroke-width: 1; stroke-dasharray: none; stroke-linecap: butt; stroke-dashoffset: 0; stroke-linejoin: miter; stroke-miterlimit: 4; fill: rgb(255,204,128); fill-rule: nonzero; opacity: 1;"  transform=" translate(-29.19, -10.87)" d="M 27.383 7.743 C 27.509 8.152 27.623 8.577 27.72 9 c 0 0.01 0 0.01 0 0.02 C 27.93 9.91 28 10.8 28 11.5 c 0 2.5 2 2.5 2 2.5 h 1 v -1 C 31 10.28 28.979 8.626 27.383 7.743 z" stroke-linecap="round" />
</g>
<g transform="matrix(4.17 0 0 4.17 229.17 154.17)" id="Layer_1"  >
<path style="stroke: none; stroke-width: 1; stroke-dasharray: none; stroke-linecap: butt; stroke-dashoffset: 0; stroke-linejoin: miter; stroke-miterlimit: 4; fill: rgb(255,152,0); fill-rule: nonzero; opacity: 1;"  transform=" translate(-31, -13)" d="M 30 15 c 0 -3 -1 -4 -1 -4 c 2 0 4 2 4 2 v 2 H 30 z" stroke-linecap="round" />
</g>
<g transform="matrix(4.17 0 0 4.17 154.17 147.92)" id="Layer_1"  >
<path style="stroke: none; stroke-width: 1; stroke-dasharray: none; stroke-linecap: butt; stroke-dashoffset: 0; stroke-linejoin: miter; stroke-miterlimit: 4; fill: rgb(255,204,128); fill-rule: nonzero; opacity: 1;"  transform=" translate(-13, -11.5)" d="M 18 10 c 1.03 1.55 1 3 1 3 s -1.47 1 -3 1 c 0 3 -2.03 4 -2.03 4 c -0.26 -2.26 -2.28 -4 -4.59 -4 c -1.6 0 -3.05 0.77 -3.88 2 C 5.49 15.99 5 15.12 5 14 c 0 -5.5 4.7 -9 10.5 -9 c 2.02 0 3.9 0.61 5.5 1.62 C 21 6.83 20.9 10 18 10 z" stroke-linecap="round" />
</g>
<g transform="matrix(4.17 0 0 4.17 264.58 177.08)" id="Layer_1"  >
<path style="stroke: none; stroke-width: 1; stroke-dasharray: none; stroke-linecap: butt; stroke-dashoffset: 0; stroke-linejoin: miter; stroke-miterlimit: 4; fill: rgb(255,183,77); fill-rule: nonzero; opacity: 1;"  transform=" translate(-39.5, -18.5)" d="M 42 18.5 c 0 0.828 -0.672 1.5 -1.5 1.5 C 39 20 37 18.5 37 18.5 s 2 -1.5 3.5 -1.5 C 41.328 17 42 17.672 42 18.5 z" stroke-linecap="round" />
</g>
</svg>