<?xml version="1.0" encoding="UTF-8" standalone="no" ?>
<!DOCTYPE svg PUBLIC "-//W3C//DTD SVG 1.1//EN" "http://www.w3.org/Graphics/SVG/1.1/DTD/svg11.dtd">
<svg xmlns="http://www.w3.org/2000/svg" xmlns:xlink="http://www.w3.org/1999/xlink" version="1.1" width="400" height="400" viewBox="0 0 400 400" xml:space="preserve">
<desc>Created with Fabric.js 3.6.2</desc>
<defs>
</defs>
<g transform="matrix(4.17 0 0 4.17 200 202.08)" id="surface1"  >
<path style="stroke: none; stroke-width: 1; stroke-dasharray: none; stroke-linecap: butt; stroke-dashoffset: 0; stroke-linejoin: miter; stroke-miterlimit: 4; fill: rgb(255,183,77); fill-rule: nonzero; opacity: 1;"  transform=" translate(-24, -24.5)" d="M 26.3 43.2 C 25.8 43.7 25 44 24 44 s -1.8 -0.3 -2.4 -0.8 C 20 42.1 4.9 32 4 26 c 0 -0.3 0 -0.5 0.1 -0.8 l 6.8 -16.9 C 11.6 6.8 18.6 5 24 5 s 12.4 1.8 13.1 3.5 l 6.8 16.9 c 0.1 0.3 0.1 0.5 0.1 0.8 C 43.1 32 28 42.1 26.3 43.2 z" stroke-linecap="round" />
</g>
<g transform="matrix(4.17 0 0 4.17 200 214.58)" id="surface1"  >
<path style="stroke: none; stroke-width: 1; stroke-dasharray: none; stroke-linecap: butt; stroke-dashoffset: 0; stroke-linejoin: miter; stroke-miterlimit: 4; fill: rgb(121,85,72); fill-rule: nonzero; opacity: 1;"  transform=" translate(-24, -27.5)" d="M 25.6 40.5 C 25.2 40.8 24.7 41 24 41 s -1.2 -0.2 -1.7 -0.5 c -1.1 -0.8 -11.7 -7.8 -12.3 -11.9 c 0 -0.2 0 -0.4 0.1 -0.5 l 4.4 -11.7 C 15 15.2 20.2 14 24 14 s 9 1.2 9.5 2.4 l 4.4 11.7 c 0.1 0.2 0.1 0.3 0.1 0.5 C 37.4 32.7 26.8 39.7 25.6 40.5 z" stroke-linecap="round" />
</g>
<g transform="matrix(4.17 0 0 4.17 200.14 145.96)" id="surface1"  >
<path style="stroke: none; stroke-width: 1; stroke-dasharray: none; stroke-linecap: butt; stroke-dashoffset: 0; stroke-linejoin: miter; stroke-miterlimit: 4; fill: rgb(121,85,72); fill-rule: nonzero; opacity: 1;"  transform=" translate(-24.03, -11.03)" d="M 31 11.3 c 0.3 1 -2 1.8 -3.5 2.3 c -3.5 1.1 -11.2 0.2 -10.4 -2.3 C 18 8 20.7 8 24 8 S 30 8 31 11.3 z" stroke-linecap="round" />
</g>
<g transform="matrix(4.17 0 0 4.17 169.03 156.25)" id="surface1"  >
<path style="stroke: none; stroke-width: 1; stroke-dasharray: none; stroke-linecap: butt; stroke-dashoffset: 0; stroke-linejoin: miter; stroke-miterlimit: 4; fill: rgb(255,224,130); fill-rule: nonzero; opacity: 1;"  transform=" translate(-16.57, -13.5)" d="M 19 13 c -1 -2 -3 -3 -5 -3 c -1.6 0 -1 7 2 7 c 2 0 4 0 4 0 v -1 C 19.8 15.9 20 15 19 13 z" stroke-linecap="round" />
</g>
<g transform="matrix(4.17 0 0 4.17 168.96 156.25)" id="surface1"  >
<path style="stroke: none; stroke-width: 1; stroke-dasharray: none; stroke-linecap: butt; stroke-dashoffset: 0; stroke-linejoin: miter; stroke-miterlimit: 4; fill: rgb(62,39,35); fill-rule: nonzero; opacity: 1;"  transform=" translate(-16.55, -13.5)" d="M 21 18 h -5 c -1.3 0 -2.3 -0.8 -3.1 -2.3 c -0.5 -1.1 -0.8 -2.4 -0.8 -3.7 c 0 -2.8 1.4 -3 1.9 -3 c 2.5 0 4.8 1.4 5.9 3.6 c 0.7 1.4 0.9 2.3 1 2.8 l 0.1 0.1 V 18 z M 14.2 11 c -0.2 0.6 -0.2 2.4 0.5 3.9 C 15 15.4 15.4 16 16 16 h 2.9 c 0 -0.1 0 -0.1 0 -0.2 c -0.1 -0.4 -0.2 -1.1 -0.8 -2.4 C 17.4 12 15.9 11.1 14.2 11 z" stroke-linecap="round" />
</g>
<g transform="matrix(4.17 0 0 4.17 170.67 150.05)" id="surface1"  >
<path style="stroke: none; stroke-width: 1; stroke-dasharray: none; stroke-linecap: butt; stroke-dashoffset: 0; stroke-linejoin: miter; stroke-miterlimit: 4; fill: rgb(62,39,35); fill-rule: nonzero; opacity: 1;"  transform=" translate(-16.96, -12.01)" d="M 19.4 12.1 l -4 -2 c -0.3 -0.1 -0.6 -0.1 -0.9 0 c -0.3 0.1 -0.5 0.4 -0.5 0.7 c -0.1 0.3 -0.3 1.6 0.4 2.5 c 0.3 0.3 0.7 0.7 1.6 0.7 h 3 c 0.5 0 0.9 -0.3 1 -0.8 C 20.1 12.8 19.9 12.3 19.4 12.1 z" stroke-linecap="round" />
</g>
<g transform="matrix(4.17 0 0 4.17 231.38 156.25)" id="surface1"  >
<path style="stroke: none; stroke-width: 1; stroke-dasharray: none; stroke-linecap: butt; stroke-dashoffset: 0; stroke-linejoin: miter; stroke-miterlimit: 4; fill: rgb(255,224,130); fill-rule: nonzero; opacity: 1;"  transform=" translate(-31.53, -13.5)" d="M 29.1 13 c 1 -2 3 -3 5 -3 c 1.6 0 1 7 -2 7 c -2 0 -4 0 -4 0 v -1 C 28.3 15.9 28.1 15 29.1 13 z" stroke-linecap="round" />
</g>
<g transform="matrix(4.17 0 0 4.17 231.46 156.25)" id="surface1"  >
<path style="stroke: none; stroke-width: 1; stroke-dasharray: none; stroke-linecap: butt; stroke-dashoffset: 0; stroke-linejoin: miter; stroke-miterlimit: 4; fill: rgb(62,39,35); fill-rule: nonzero; opacity: 1;"  transform=" translate(-31.55, -13.5)" d="M 32.1 18 h -5 v -2.5 l 0.1 -0.1 c 0.1 -0.5 0.3 -1.4 1 -2.8 c 1.1 -2.2 3.4 -3.6 5.9 -3.6 c 0.4 0 1.9 0.2 1.9 3 c 0 1.3 -0.3 2.6 -0.8 3.7 C 34.5 17.2 33.4 18 32.1 18 z M 29.2 16 h 2.9 c 0.6 0 1 -0.6 1.2 -1.1 c 0.7 -1.5 0.7 -3.3 0.5 -3.9 c -1.7 0.1 -3.1 1 -3.9 2.4 c -0.6 1.2 -0.7 2 -0.8 2.4 C 29.2 15.9 29.2 15.9 29.2 16 z" stroke-linecap="round" />
</g>
<g transform="matrix(4.17 0 0 4.17 229.98 150.05)" id="surface1"  >
<path style="stroke: none; stroke-width: 1; stroke-dasharray: none; stroke-linecap: butt; stroke-dashoffset: 0; stroke-linejoin: miter; stroke-miterlimit: 4; fill: rgb(62,39,35); fill-rule: nonzero; opacity: 1;"  transform=" translate(-31.19, -12.01)" d="M 34.1 10.8 c -0.1 -0.3 -0.3 -0.6 -0.5 -0.7 s -0.6 -0.1 -0.9 0 l -4 2 c -0.4 0.2 -0.6 0.7 -0.5 1.1 c 0.1 0.4 0.5 0.8 1 0.8 h 3 c 0.8 0 1.3 -0.4 1.6 -0.7 C 34.4 12.4 34.2 11 34.1 10.8 z" stroke-linecap="round" />
</g>
<g transform="matrix(4.17 0 0 4.17 200 173.47)" id="surface1"  >
<path style="stroke: none; stroke-width: 1; stroke-dasharray: none; stroke-linecap: butt; stroke-dashoffset: 0; stroke-linejoin: miter; stroke-miterlimit: 4; fill: rgb(255,183,77); fill-rule: nonzero; opacity: 1;"  transform=" translate(-24, -17.63)" d="M 32 25 H 16 l 2.1 -13.3 c 0 -0.1 0 -0.2 0.1 -0.3 c 0.3 -1 1.6 -1.4 2.6 -0.9 C 21.2 10.7 23 11 24 11 c 1 0 2.8 -0.3 3.3 -0.5 c 1.1 -0.6 2.5 0 2.7 1.2 C 29.9 11.7 32 25 32 25 z" stroke-linecap="round" />
</g>
<g transform="matrix(4.17 0 0 4.17 199.94 226.98)" id="surface1"  >
<path style="stroke: none; stroke-width: 1; stroke-dasharray: none; stroke-linecap: butt; stroke-dashoffset: 0; stroke-linejoin: miter; stroke-miterlimit: 4; fill: rgb(255,224,130); fill-rule: nonzero; opacity: 1;"  transform=" translate(-23.98, -30.48)" d="M 31 24 c 0.8 0 1.5 0.4 1.8 1.1 c 0.2 0.6 0.3 1.3 0.1 1.9 c -1 2.7 -2.8 8.2 -4.2 9.2 c -1.6 1 -7.8 1 -9.4 0 c -1.3 -0.9 -3.2 -6.6 -4.2 -9.2 c -0.2 -0.6 -0.2 -1.3 0.1 -1.9 c 0.3 -0.7 1 -1.1 1.8 -1.1 H 31 z" stroke-linecap="round" />
</g>
<g transform="matrix(4.17 0 0 4.17 200 172.5)" id="surface1"  >
<path style="stroke: none; stroke-width: 1; stroke-dasharray: none; stroke-linecap: butt; stroke-dashoffset: 0; stroke-linejoin: miter; stroke-miterlimit: 4; fill: rgb(255,167,38); fill-rule: nonzero; opacity: 1;"  transform=" translate(-24, -17.4)" d="M 23 13 v 5.4 c 0 0.4 -0.1 0.8 -0.2 1.1 L 21 24 h 6 l -1.8 -4.5 c -0.1 -0.4 -0.2 -0.7 -0.2 -1.1 V 13 c 0 -1 0.5 -1.7 0.9 -2.2 C 25.3 10.9 24.5 11 24 11 c -0.5 0 -1.3 -0.1 -1.9 -0.2 C 22.5 11.3 23 12 23 13 z" stroke-linecap="round" />
</g>
<g transform="matrix(4.17 0 0 4.17 212.5 175)" id="surface1"  >
<path style="stroke: none; stroke-width: 1; stroke-dasharray: none; stroke-linecap: butt; stroke-dashoffset: 0; stroke-linejoin: miter; stroke-miterlimit: 4; fill: rgb(255,255,255); fill-rule: nonzero; opacity: 1;"  transform=" translate(-27, -18)" d="M 29 18 c 0 1.1 -0.9 2 -2 2 s -2 -0.9 -2 -2 s 0.9 -2 2 -2 S 29 16.9 29 18 z" stroke-linecap="round" />
</g>
<g transform="matrix(4.17 0 0 4.17 212.5 175)" id="surface1"  >
<path style="stroke: none; stroke-width: 1; stroke-dasharray: none; stroke-linecap: butt; stroke-dashoffset: 0; stroke-linejoin: miter; stroke-miterlimit: 4; fill: rgb(62,39,35); fill-rule: nonzero; opacity: 1;"  transform=" translate(-27, -18)" d="M 27 17 c 0.6 0 1 0.4 1 1 s -0.4 1 -1 1 s -1 -0.4 -1 -1 S 26.4 17 27 17" stroke-linecap="round" />
</g>
<g transform="matrix(4.17 0 0 4.17 187.5 175)" id="surface1"  >
<path style="stroke: none; stroke-width: 1; stroke-dasharray: none; stroke-linecap: butt; stroke-dashoffset: 0; stroke-linejoin: miter; stroke-miterlimit: 4; fill: rgb(255,255,255); fill-rule: nonzero; opacity: 1;"  transform=" translate(-21, -18)" d="M 23 18 c 0 1.1 -0.9 2 -2 2 s -2 -0.9 -2 -2 s 0.9 -2 2 -2 S 23 16.9 23 18 z" stroke-linecap="round" />
</g>
<g transform="matrix(4.17 0 0 4.17 187.5 175)" id="surface1"  >
<path style="stroke: none; stroke-width: 1; stroke-dasharray: none; stroke-linecap: butt; stroke-dashoffset: 0; stroke-linejoin: miter; stroke-miterlimit: 4; fill: rgb(62,39,35); fill-rule: nonzero; opacity: 1;"  transform=" translate(-21, -18)" d="M 21 17 c 0.6 0 1 0.4 1 1 s -0.4 1 -1 1 s -1 -0.4 -1 -1 S 20.4 17 21 17" stroke-linecap="round" />
</g>
<g transform="matrix(4.17 0 0 4.17 200 229.17)" id="surface1"  >
<path style="stroke: none; stroke-width: 1; stroke-dasharray: none; stroke-linecap: butt; stroke-dashoffset: 0; stroke-linejoin: miter; stroke-miterlimit: 4; fill: rgb(62,39,35); fill-rule: nonzero; opacity: 1;"  transform=" translate(-24, -31)" d="M 18 27 c 0 0 1 8 6 8 s 6 -8 6 -8 s -1 2 -6 2 S 18 27 18 27 z" stroke-linecap="round" />
</g>
<g transform="matrix(4.17 0 0 4.17 200 232.92)" id="surface1"  >
<path style="stroke: none; stroke-width: 1; stroke-dasharray: none; stroke-linecap: butt; stroke-dashoffset: 0; stroke-linejoin: miter; stroke-miterlimit: 4; fill: rgb(255,255,255); fill-rule: nonzero; opacity: 1;"  transform=" translate(-24, -31.9)" d="M 26.8 30.8 C 26.1 32 25.3 33 24 33 c -1.2 0 -2.1 -1 -2.8 -2.2 C 22 30.9 23 31 24 31 C 25.1 31 26 30.9 26.8 30.8" stroke-linecap="round" />
</g>
<g transform="matrix(4.17 0 0 4.17 200 206.04)" id="surface1"  >
<path style="stroke: none; stroke-width: 1; stroke-dasharray: none; stroke-linecap: butt; stroke-dashoffset: 0; stroke-linejoin: miter; stroke-miterlimit: 4; fill: rgb(62,39,35); fill-rule: nonzero; opacity: 1;"  transform=" translate(-24, -25.45)" d="M 24 26.4 c -0.9 -0.6 -2 -1.4 -2.2 -1.6 c -0.2 -0.1 -0.4 -0.3 -0.6 -0.3 c 0 0 0.1 0 0.1 0 h 5.4 c 0 0 0.1 0 0.1 0 c -0.2 0.1 -0.3 0.2 -0.5 0.3 C 26 25 24.9 25.8 24 26.4 z" stroke-linecap="round" />
</g>
<g transform="matrix(4.17 0 0 4.17 200.21 206.25)" id="surface1"  >
<path style="stroke: none; stroke-width: 1; stroke-dasharray: none; stroke-linecap: butt; stroke-dashoffset: 0; stroke-linejoin: miter; stroke-miterlimit: 4; fill: rgb(62,39,35); fill-rule: nonzero; opacity: 1;"  transform=" translate(-24.05, -25.5)" d="M 25.2 25 c -0.3 0.2 -0.7 0.5 -1.2 0.8 c -0.4 -0.3 -0.8 -0.6 -1.2 -0.8 H 25.2 M 26.7 24 h -5.4 c -0.7 0 -1.2 0.5 -1.2 1.2 c 0 -0.1 0.1 -0.1 0.1 -0.2 c 0.1 -0.1 0.3 -0.2 0.4 -0.2 c 0.3 0 0.6 0.1 0.9 0.3 C 21.8 25.5 24 27 24 27 s 2.2 -1.5 2.6 -1.8 c 0.3 -0.2 0.6 -0.3 0.9 -0.3 c 0.2 0 0.3 0 0.4 0.2 c 0.1 0.1 0.1 0.1 0.1 0.2 C 27.9 24.5 27.4 24 26.7 24 z" stroke-linecap="round" />
</g>
</svg>