<?xml version="1.0" encoding="UTF-8" standalone="no" ?>
<!DOCTYPE svg PUBLIC "-//W3C//DTD SVG 1.1//EN" "http://www.w3.org/Graphics/SVG/1.1/DTD/svg11.dtd">
<svg xmlns="http://www.w3.org/2000/svg" xmlns:xlink="http://www.w3.org/1999/xlink" version="1.1" width="400" height="400" viewBox="0 0 400 400" xml:space="preserve">
<desc>Created with Fabric.js 3.6.2</desc>
<defs>
</defs>
<g transform="matrix(4.17 0 0 4.17 165.17 149.21)" id="Слой_1"  >
<path style="stroke: none; stroke-width: 1; stroke-dasharray: none; stroke-linecap: butt; stroke-dashoffset: 0; stroke-linejoin: miter; stroke-miterlimit: 4; fill: rgb(57,73,171); fill-rule: nonzero; opacity: 1;"  transform=" translate(-15.64, -11.81)" d="M 19.02 9.258 c -0.489 -0.313 -1.161 -0.684 -2.036 -1.035 c -1.07 0.754 -2.074 1.586 -2.98 2.535 c -0.645 0.676 -1.211 1.387 -1.742 2.113 c 0.367 0.734 0.621 1.574 0.703 2.527 C 14.418 13.031 16.383 10.895 19.02 9.258 L 19.02 9.258 z" stroke-linecap="round" />
</g>
<g transform="matrix(4.17 0 0 4.17 230.6 152.08)" id="Слой_1"  >
<path style="stroke: none; stroke-width: 1; stroke-dasharray: none; stroke-linecap: butt; stroke-dashoffset: 0; stroke-linejoin: miter; stroke-miterlimit: 4; fill: rgb(40,53,147); fill-rule: nonzero; opacity: 1;"  transform=" translate(-31.34, -12.5)" d="M 42 13 c 0 3.863 -2.842 6 -11.367 6 c -5.489 0 -9.946 -2.137 -9.946 -6 c 0 -3.863 4.457 -7 9.946 -7 C 36.317 6 42 9.137 42 13 L 42 13 z" stroke-linecap="round" />
</g>
<g transform="matrix(4.17 0 0 4.17 185.15 193.26)" id="Слой_1"  >
<path style="stroke: none; stroke-width: 1; stroke-dasharray: none; stroke-linecap: butt; stroke-dashoffset: 0; stroke-linejoin: miter; stroke-miterlimit: 4; fill: rgb(40,53,147); fill-rule: nonzero; opacity: 1;"  transform=" translate(-20.44, -22.38)" d="M 31.783 18.966 c -1.917 -0.274 -15.974 -1.661 -18.779 16.005 c -0.003 0.019 -0.007 0.035 -0.016 0.052 c -0.131 0.262 -1.354 2.709 -1.815 3.629 c -0.073 0.145 -0.278 0.141 -0.35 -0.004 L 9.02 35.04 C 9.007 35.014 9 34.99 9 34.96 C 8.973 31.804 5.921 6.42 31.36 6.005 C 31.708 6 32 6.28 32 6.629 c 0 2.367 0 10.682 0 12.149 C 32 18.898 31.902 18.983 31.783 18.966 z" stroke-linecap="round" />
</g>
<g transform="matrix(4.17 0 0 4.17 237.5 156.25)" id="Слой_1"  >
<path style="stroke: none; stroke-width: 1; stroke-dasharray: none; stroke-linecap: butt; stroke-dashoffset: 0; stroke-linejoin: miter; stroke-miterlimit: 4; fill: rgb(40,53,147); fill-rule: nonzero; opacity: 1;"  transform=" translate(-33, -13.5)" d="M 23 15.333 C 23 17.359 27.477 19 33 19 c 5.523 0 10 0 10 -3.667 C 43 11.667 38.523 8 33 8 C 27.477 8 23 13.308 23 15.333 L 23 15.333 z" stroke-linecap="round" />
</g>
<g transform="matrix(4.17 0 0 4.17 207.68 213.96)" id="Слой_1"  >
<path style="stroke: none; stroke-width: 1; stroke-dasharray: none; stroke-linecap: butt; stroke-dashoffset: 0; stroke-linejoin: miter; stroke-miterlimit: 4; fill: rgb(159,168,218); fill-rule: nonzero; opacity: 1;"  transform=" translate(-25.84, -27.35)" d="M 23.06 17 c -6 2 -12 7 -14 18 l 2 4 l 2 -4 c 3 -17 18.504 -16.012 18.75 -16.02 c 0.035 0.004 0.91 0.013 1.25 0.02 c 5.99 0.125 8.669 -0.459 9.568 -2.103 C 42.627 16.897 31.65 14.137 23.06 17 L 23.06 17 z" stroke-linecap="round" />
</g>
<g transform="matrix(4.17 0 0 4.17 116.67 270.83)" id="Слой_1"  >
<path style="stroke: none; stroke-width: 1; stroke-dasharray: none; stroke-linecap: butt; stroke-dashoffset: 0; stroke-linejoin: miter; stroke-miterlimit: 4; fill: rgb(26,35,126); fill-rule: nonzero; opacity: 1;"  transform=" translate(-4, -41)" d="M 5 41 c 0 0.551 -0.449 1 -1 1 c -0.551 0 -1 -0.449 -1 -1 c 0 -0.551 0.449 -1 1 -1 C 4.551 40 5 40.449 5 41 L 5 41 z" stroke-linecap="round" />
</g>
<g transform="matrix(4.17 0 0 4.17 175 270.83)" id="Слой_1"  >
<path style="stroke: none; stroke-width: 1; stroke-dasharray: none; stroke-linecap: butt; stroke-dashoffset: 0; stroke-linejoin: miter; stroke-miterlimit: 4; fill: rgb(26,35,126); fill-rule: nonzero; opacity: 1;"  transform=" translate(-18, -41)" d="M 19 41 c 0 0.551 -0.449 1 -1 1 c -0.551 0 -1 -0.449 -1 -1 c 0 -0.551 0.449 -1 1 -1 C 18.551 40 19 40.449 19 41 L 19 41 z" stroke-linecap="round" />
</g>
<g transform="matrix(4.17 0 0 4.17 155.88 145.51)" id="Слой_1"  >
<path style="stroke: none; stroke-width: 1; stroke-dasharray: none; stroke-linecap: butt; stroke-dashoffset: 0; stroke-linejoin: miter; stroke-miterlimit: 4; fill: rgb(26,35,126); fill-rule: nonzero; opacity: 1;"  transform=" translate(-13.41, -10.92)" d="M 12.895 14.844 c 1.429 -2.192 3.343 -4.18 5.925 -5.707 C 17.363 8.25 14.52 7 10 7 C 9 7 8 7 8 8 C 8 8.918 12.207 10.687 12.895 14.844 L 12.895 14.844 z" stroke-linecap="round" />
</g>
<g transform="matrix(4.17 0 0 4.17 129.17 259.64)" id="Слой_1"  >
<path style="stroke: none; stroke-width: 1; stroke-dasharray: none; stroke-linecap: butt; stroke-dashoffset: 0; stroke-linejoin: miter; stroke-miterlimit: 4; fill: rgb(26,35,126); fill-rule: nonzero; opacity: 1;"  transform=" translate(-7, -38.31)" d="M 3 41 c 0 0 0.586 1.414 2 0 c 1 -1 6 0 6 -2 l -2 -4 C 9 35 3 37 3 41 L 3 41 z" stroke-linecap="round" />
</g>
<g transform="matrix(4.17 0 0 4.17 162.5 259.64)" id="Слой_1"  >
<path style="stroke: none; stroke-width: 1; stroke-dasharray: none; stroke-linecap: butt; stroke-dashoffset: 0; stroke-linejoin: miter; stroke-miterlimit: 4; fill: rgb(26,35,126); fill-rule: nonzero; opacity: 1;"  transform=" translate(-15, -38.31)" d="M 13 35 l -2 4 c 0 2 5 1 6 2 c 1.414 1.414 2 0 2 0 C 19 37 13 35 13 35 L 13 35 z" stroke-linecap="round" />
</g>
<g transform="matrix(4.17 0 0 4.17 178.65 181.6)" id="Слой_1"  >
<path style="stroke: none; stroke-width: 1; stroke-dasharray: none; stroke-linecap: butt; stroke-dashoffset: 0; stroke-linejoin: miter; stroke-miterlimit: 4; fill: rgb(159,168,218); fill-rule: nonzero; opacity: 1;"  transform=" translate(-18.88, -19.58)" d="M 24.611 17.726 c 0.464 1.433 -1.732 3.435 -4.891 4.459 c -3.159 1.024 -6.112 0.691 -6.577 -0.742 c -0.464 -1.433 1.732 -3.435 4.891 -4.459 C 21.194 15.96 24.147 16.293 24.611 17.726 L 24.611 17.726 z" stroke-linecap="round" />
</g>
<g transform="matrix(4.17 0 0 4.17 214.41 183.15)" id="Слой_1"  >
<path style="stroke: none; stroke-width: 1; stroke-dasharray: none; stroke-linecap: butt; stroke-dashoffset: 0; stroke-linejoin: miter; stroke-miterlimit: 4; fill: rgb(26,35,126); fill-rule: nonzero; opacity: 1;"  transform=" translate(-27.46, -19.96)" d="M 31.953 17.234 c 0 0 -0.953 4.11 -6.719 7.203 c -0.882 0.473 -1.828 0.817 -2.234 -0.093 c -0.359 -0.801 2.207 -2.496 1.059 -6.86 c -0.164 -0.621 -0.106 -1.031 0.894 -2.031 c 2.547 -1 6.031 -0.031 6.031 -0.031 L 31.953 17.234 z" stroke-linecap="round" />
</g>
<g transform="matrix(4.17 0 0 4.17 206.25 170.18)" id="Слой_1"  >
<path style="stroke: none; stroke-width: 1; stroke-dasharray: none; stroke-linecap: butt; stroke-dashoffset: 0; stroke-linejoin: miter; stroke-miterlimit: 4; fill: rgb(26,35,126); fill-rule: nonzero; opacity: 1;"  transform=" translate(-25.5, -16.84)" d="M 27 16.844 c 0 0.828 -0.672 1.5 -1.5 1.5 c -0.828 0 -1.5 -0.672 -1.5 -1.5 s 0.672 -1.5 1.5 -1.5 C 26.328 15.344 27 16.016 27 16.844 L 27 16.844 z" stroke-linecap="round" />
</g>
<g transform="matrix(4.17 0 0 4.17 227.08 170.18)" id="Слой_1"  >
<path style="stroke: none; stroke-width: 1; stroke-dasharray: none; stroke-linecap: butt; stroke-dashoffset: 0; stroke-linejoin: miter; stroke-miterlimit: 4; fill: rgb(26,35,126); fill-rule: nonzero; opacity: 1;"  transform=" translate(-30.5, -16.84)" d="M 32 16.844 c 0 0.828 -0.672 1.5 -1.5 1.5 c -0.828 0 -1.5 -0.672 -1.5 -1.5 s 0.672 -1.5 1.5 -1.5 C 31.328 15.344 32 16.016 32 16.844 L 32 16.844 z" stroke-linecap="round" />
</g>
<g transform="matrix(4.17 0 0 4.17 250 147.92)" id="Слой_1"  >
<path style="stroke: none; stroke-width: 1; stroke-dasharray: none; stroke-linecap: butt; stroke-dashoffset: 0; stroke-linejoin: miter; stroke-miterlimit: 4; fill: rgb(159,168,218); fill-rule: nonzero; opacity: 1;"  transform=" translate(-36, -11.5)" d="M 38.955 12.02 c -0.143 0.814 -1.587 1.244 -3.214 0.958 c -1.628 -0.286 -2.838 -1.183 -2.695 -1.997 c 0.143 -0.814 1.586 -1.244 3.215 -0.958 C 37.888 10.309 39.098 11.206 38.955 12.02 L 38.955 12.02 z" stroke-linecap="round" />
</g>
</svg>