<?xml version="1.0" encoding="UTF-8" standalone="no" ?>
<!DOCTYPE svg PUBLIC "-//W3C//DTD SVG 1.1//EN" "http://www.w3.org/Graphics/SVG/1.1/DTD/svg11.dtd">
<svg xmlns="http://www.w3.org/2000/svg" xmlns:xlink="http://www.w3.org/1999/xlink" version="1.1" width="400" height="400" viewBox="0 0 400 400" xml:space="preserve">
<desc>Created with Fabric.js 3.6.2</desc>
<defs>
</defs>
<g transform="matrix(4.17 0 0 4.17 200 216.67)" id="surface1"  >
<path style="stroke: none; stroke-width: 1; stroke-dasharray: none; stroke-linecap: butt; stroke-dashoffset: 0; stroke-linejoin: miter; stroke-miterlimit: 4; fill: rgb(84,110,122); fill-rule: nonzero; opacity: 1;"  transform=" translate(-24, -28)" d="M 30 45 H 18 c 0 0 -8 -9.9 -8 -22 c 0 -10.6 5.5 -11.9 5.8 -12 l 0.2 0 l 16.2 0 c 0.2 0.1 5.8 1.4 5.8 12 C 38 35.1 30 45 30 45 z" stroke-linecap="round" />
</g>
<g transform="matrix(4.17 0 0 4.17 200 278.54)" id="surface1"  >
<path style="stroke: none; stroke-width: 1; stroke-dasharray: none; stroke-linecap: butt; stroke-dashoffset: 0; stroke-linejoin: miter; stroke-miterlimit: 4; fill: rgb(255,193,7); fill-rule: nonzero; opacity: 1;"  transform=" translate(-24, -42.85)" d="M 28.3 46.7 L 27 45.4 l -1.3 1.3 l -1.4 -1.4 l 1.7 -1.7 V 39 h 2 v 4.6 l 1.7 1.7 L 28.3 46.7 z M 22.3 46.7 L 21 45.4 l -1.3 1.3 l -1.4 -1.4 l 1.7 -1.7 V 39 h 2 v 4.6 l 1.7 1.7 L 22.3 46.7 z" stroke-linecap="round" />
</g>
<g transform="matrix(4.17 0 0 4.17 200 222.92)" id="surface1"  >
<path style="stroke: none; stroke-width: 1; stroke-dasharray: none; stroke-linecap: butt; stroke-dashoffset: 0; stroke-linejoin: miter; stroke-miterlimit: 4; fill: rgb(207,216,220); fill-rule: nonzero; opacity: 1;"  transform=" translate(-24, -29.5)" d="M 35 25 c 0 -5.3 -2.4 -7.8 -3 -8 H 16 c -0.4 0.4 -3 3.2 -3 9 c 0 6.7 2.3 11.6 5 16 l 1 -1 l 5 -7 l 5 7 l 1 1 C 32.7 37.5 35 31.7 35 25 z" stroke-linecap="round" />
</g>
<g transform="matrix(4.17 0 0 4.17 200 193.75)" id="surface1"  >
<path style="stroke: none; stroke-width: 1; stroke-dasharray: none; stroke-linecap: butt; stroke-dashoffset: 0; stroke-linejoin: miter; stroke-miterlimit: 4; fill: rgb(120,144,156); fill-rule: nonzero; opacity: 1;"  transform=" translate(-24, -22.5)" d="M 16 17 c 0 0 -1 2.1 -1 7 c 0 6.1 4 17 4 17 l 2 -2 l 1 2 h 4 l 1 -2 l 2 2 c 0 0 4 -10.9 4 -17 c 0 -4.9 -1 -7 -1 -7 L 24 4 L 16 17 z" stroke-linecap="round" />
</g>
<g transform="matrix(4.17 0 0 4.17 200 214.58)" id="surface1"  >
<path style="stroke: none; stroke-width: 1; stroke-dasharray: none; stroke-linecap: butt; stroke-dashoffset: 0; stroke-linejoin: miter; stroke-miterlimit: 4; fill: rgb(55,71,79); fill-rule: nonzero; opacity: 1;"  transform=" translate(-24, -27.5)" d="M 26 22 l -2 3 l -2 -3 H 26 z M 17 22 l 2 3 l 2 -3 H 17 z M 27 22 l 2 3 l 2 -3 H 27 z M 19 26 l 2 3 l 2 -3 H 19 z M 25 26 l 2 3 l 2 -3 H 25 z M 22 30 l 2 3 l 2 -3 H 22 z" stroke-linecap="round" />
</g>
<g transform="matrix(4.17 0 0 4.17 200 147.29)" id="surface1"  >
<path style="stroke: none; stroke-width: 1; stroke-dasharray: none; stroke-linecap: butt; stroke-dashoffset: 0; stroke-linejoin: miter; stroke-miterlimit: 4; fill: rgb(96,125,139); fill-rule: nonzero; opacity: 1;"  transform=" translate(-24, -11.35)" d="M 24 20.7 l -0.8 -1.1 c -3.2 -4.4 -7.4 -5.4 -7.4 -5.4 L 15 14 v -2.8 C 15 6.7 17.4 2 24 2 s 9 4.7 9 9.2 V 14 l -0.8 0.2 c -0.1 0 -4.3 1 -7.4 5.4 L 24 20.7 z" stroke-linecap="round" />
</g>
<g transform="matrix(4.17 0 0 4.17 200 154.22)" id="surface1"  >
<path style="stroke: none; stroke-width: 1; stroke-dasharray: none; stroke-linecap: butt; stroke-dashoffset: 0; stroke-linejoin: miter; stroke-miterlimit: 4; fill: rgb(176,190,197); fill-rule: nonzero; opacity: 1;"  transform=" translate(-24, -13.01)" d="M 24 20.7 l -0.8 -1.1 c -3.2 -4.4 -7.4 -5.4 -7.4 -5.4 L 15 14 v -2.8 c 0 -1.8 0.4 -3.6 1.3 -5.2 c 1.3 -2.3 3.8 2 7.7 2 c 3.9 0 6.4 -4.3 7.7 -2 c 0.9 1.6 1.3 3.4 1.3 5.2 V 14 l -0.8 0.2 c -0.1 0 -4.3 1 -7.4 5.4 L 24 20.7 z" stroke-linecap="round" />
</g>
<g transform="matrix(4.17 0 0 4.17 199.8 133.54)" id="surface1"  >
<path style="stroke: none; stroke-width: 1; stroke-dasharray: none; stroke-linecap: butt; stroke-dashoffset: 0; stroke-linejoin: miter; stroke-miterlimit: 4; fill: rgb(55,71,79); fill-rule: nonzero; opacity: 1;"  transform=" translate(-23.95, -8.05)" d="M 32.9 3 c 0 0 -1.2 2 -3 2 h 0 c -3.3 0 -5 1.1 -5.9 2.3 C 23 6.1 21.3 5 18 5 c -1.8 0 -3 -2 -3 -2 c -0.4 1.2 0.2 2.5 1.2 3.3 c -0.5 1 -0.9 2.1 -1 3.3 c 0.5 2 2.2 3.5 4.4 3.5 c 1.9 0 3.6 -1.3 4.2 -3 l 0.6 0 c 0.6 1.7 2.3 3 4.2 3 c 2.1 0 3.9 -1.5 4.4 -3.5 c -0.2 -1.2 -0.5 -2.3 -1.1 -3.3 C 32.7 5.4 33.3 4.1 32.9 3 z" stroke-linecap="round" />
</g>
<g transform="matrix(4.17 0 0 4.17 200 143.75)" id="surface1"  >
<path style="stroke: none; stroke-width: 1; stroke-dasharray: none; stroke-linecap: butt; stroke-dashoffset: 0; stroke-linejoin: miter; stroke-miterlimit: 4; fill: rgb(255,193,7); fill-rule: nonzero; opacity: 1;"  transform=" translate(-24, -10.5)" d="M 24 8 c -0.5 0 -1 1.1 -1 2 s 1 3 1 3 s 1 -2.1 1 -3 S 24.5 8 24 8 z" stroke-linecap="round" />
</g>
<g transform="matrix(4.17 0 0 4.17 200 136.88)" id="surface1"  >
<path style="stroke: none; stroke-width: 1; stroke-dasharray: none; stroke-linecap: butt; stroke-dashoffset: 0; stroke-linejoin: miter; stroke-miterlimit: 4; fill: rgb(255,234,0); fill-rule: nonzero; opacity: 1;"  transform=" translate(-24, -8.85)" d="M 31 6.7 c 0 0.6 0 0.7 0 1.8 c 0 1.4 -1.1 2.5 -2.5 2.5 S 26 9.9 26 8.5 c 0 -0.2 0 -0.4 0.1 -0.5 c 0.7 -0.5 1.9 -1 3.8 -1 C 30.3 7 30.6 6.9 31 6.7 z M 17 6.7 c 0 0.6 0 0.7 0 1.8 c 0 1.4 1.1 2.5 2.5 2.5 S 22 9.9 22 8.5 c 0 -0.2 0 -0.4 -0.1 -0.5 c -0.7 -0.5 -1.9 -1 -3.8 -1 C 17.7 7 17.4 6.9 17 6.7 z" stroke-linecap="round" />
</g>
<g transform="matrix(4.17 0 0 4.17 200 133.54)" id="surface1"  >
<path style="stroke: none; stroke-width: 1; stroke-dasharray: none; stroke-linecap: butt; stroke-dashoffset: 0; stroke-linejoin: miter; stroke-miterlimit: 4; fill: rgb(33,33,33); fill-rule: nonzero; opacity: 1;"  transform=" translate(-24, -8.05)" d="M 28 9 c -0.6 0 -1 -0.4 -1 -1 c 0 -0.2 0.1 -0.4 0.2 -0.6 c 0.3 -0.1 0.7 -0.2 1.2 -0.3 C 28.8 7.3 29 7.6 29 8 C 29 8.6 28.6 9 28 9 z M 20 9 c 0.6 0 1 -0.4 1 -1 c 0 -0.2 -0.1 -0.4 -0.2 -0.6 c -0.3 -0.1 -0.7 -0.2 -1.2 -0.3 C 19.2 7.3 19 7.6 19 8 C 19 8.6 19.4 9 20 9 z" stroke-linecap="round" />
</g>
</svg>