<?xml version="1.0" encoding="UTF-8" standalone="no" ?>
<!DOCTYPE svg PUBLIC "-//W3C//DTD SVG 1.1//EN" "http://www.w3.org/Graphics/SVG/1.1/DTD/svg11.dtd">
<svg xmlns="http://www.w3.org/2000/svg" xmlns:xlink="http://www.w3.org/1999/xlink" version="1.1" width="400" height="400" viewBox="0 0 400 400" xml:space="preserve">
<desc>Created with Fabric.js 3.6.2</desc>
<defs>
</defs>
<g transform="matrix(4.17 0 0 4.17 154.17 160.74)" id="surface1"  >
<path style="stroke: none; stroke-width: 1; stroke-dasharray: none; stroke-linecap: butt; stroke-dashoffset: 0; stroke-linejoin: miter; stroke-miterlimit: 4; fill: rgb(66,165,245); fill-rule: nonzero; opacity: 1;"  transform=" translate(-13, -14.58)" d="M 9 13 L 23 13 L 23 15 L 7 15 C 7 15 4.769531 15.375 3.027344 16.117188 C 3.027344 16.132813 3.039063 16.140625 3.039063 16.15625 L 3.035156 16.15625 C 3.023438 16.105469 3 16.054688 3 16 C 3 14 9 13 9 13 Z" stroke-linecap="round" />
</g>
<g transform="matrix(4.17 0 0 4.17 162.19 188.85)" id="surface1"  >
<path style="stroke: none; stroke-width: 1; stroke-dasharray: none; stroke-linecap: butt; stroke-dashoffset: 0; stroke-linejoin: miter; stroke-miterlimit: 4; fill: rgb(66,165,245); fill-rule: nonzero; opacity: 1;"  transform=" translate(-14.93, -21.32)" d="M 10 22.429688 L 23 14.429688 L 23 16.429688 C 23 16.429688 22.097656 17.035156 21.117188 18.070313 L 9.160156 25.429688 C 9.160156 25.429688 7.863281 26.730469 6.929688 28.21875 C 6.277344 26.160156 10 22.429688 10 22.429688 Z" stroke-linecap="round" />
</g>
<g transform="matrix(4.17 0 0 4.17 245.83 160.74)" id="surface1"  >
<path style="stroke: none; stroke-width: 1; stroke-dasharray: none; stroke-linecap: butt; stroke-dashoffset: 0; stroke-linejoin: miter; stroke-miterlimit: 4; fill: rgb(66,165,245); fill-rule: nonzero; opacity: 1;"  transform=" translate(-35, -14.58)" d="M 39 13 L 25 13 L 25 15 L 41 15 C 41 15 43.230469 15.375 44.972656 16.117188 C 44.972656 16.132813 44.960938 16.140625 44.960938 16.15625 L 44.964844 16.15625 C 44.976563 16.105469 45 16.054688 45 16 C 45 14 39 13 39 13 Z" stroke-linecap="round" />
</g>
<g transform="matrix(4.17 0 0 4.17 237.81 188.85)" id="surface1"  >
<path style="stroke: none; stroke-width: 1; stroke-dasharray: none; stroke-linecap: butt; stroke-dashoffset: 0; stroke-linejoin: miter; stroke-miterlimit: 4; fill: rgb(66,165,245); fill-rule: nonzero; opacity: 1;"  transform=" translate(-33.07, -21.32)" d="M 38 22.429688 L 25 14.429688 L 25 16.429688 C 25 16.429688 25.902344 17.035156 26.882813 18.070313 L 38.839844 25.429688 C 38.839844 25.429688 40.136719 26.730469 41.070313 28.21875 C 41.722656 26.160156 38 22.429688 38 22.429688 Z" stroke-linecap="round" />
</g>
<g transform="matrix(4.17 0 0 4.17 152.14 168.75)" id="surface1"  >
<path style="stroke: none; stroke-width: 1; stroke-dasharray: none; stroke-linecap: butt; stroke-dashoffset: 0; stroke-linejoin: miter; stroke-miterlimit: 4; fill: rgb(144,202,249); fill-rule: nonzero; opacity: 1;"  transform=" translate(-12.51, -16.5)" d="M 3.027344 16.117188 C 4.769531 15.375 7 15 7 15 L 22 15 L 22 15.410156 C 21.984375 15.417969 15.707031 18 13 18 C 10.0625 18 3.3125 17.996094 3.027344 16.117188 Z" stroke-linecap="round" />
</g>
<g transform="matrix(4.17 0 0 4.17 158.43 198.06)" id="surface1"  >
<path style="stroke: none; stroke-width: 1; stroke-dasharray: none; stroke-linecap: butt; stroke-dashoffset: 0; stroke-linejoin: miter; stroke-miterlimit: 4; fill: rgb(144,202,249); fill-rule: nonzero; opacity: 1;"  transform=" translate(-14.02, -23.54)" d="M 21.117188 18.070313 C 19.917969 19.230469 19.105469 21.113281 19 21.429688 C 18 24.429688 8.265625 30.960938 7 28.429688 C 6.96875 28.363281 6.953125 28.289063 6.929688 28.214844 C 7.863281 26.730469 9.160156 25.429688 9.160156 25.429688 Z" stroke-linecap="round" />
</g>
<g transform="matrix(4.17 0 0 4.17 247.86 168.75)" id="surface1"  >
<path style="stroke: none; stroke-width: 1; stroke-dasharray: none; stroke-linecap: butt; stroke-dashoffset: 0; stroke-linejoin: miter; stroke-miterlimit: 4; fill: rgb(144,202,249); fill-rule: nonzero; opacity: 1;"  transform=" translate(-35.49, -16.5)" d="M 44.972656 16.117188 C 43.230469 15.375 41 15 41 15 L 26 15 L 26 15.410156 C 26.015625 15.417969 32.289063 18 35 18 C 37.9375 18 44.6875 17.996094 44.972656 16.117188 Z" stroke-linecap="round" />
</g>
<g transform="matrix(4.17 0 0 4.17 241.57 198.06)" id="surface1"  >
<path style="stroke: none; stroke-width: 1; stroke-dasharray: none; stroke-linecap: butt; stroke-dashoffset: 0; stroke-linejoin: miter; stroke-miterlimit: 4; fill: rgb(144,202,249); fill-rule: nonzero; opacity: 1;"  transform=" translate(-33.98, -23.54)" d="M 26.882813 18.070313 C 28.082031 19.230469 28.894531 21.113281 29 21.429688 C 30 24.429688 39.734375 30.960938 41 28.429688 C 41.03125 28.363281 41.046875 28.289063 41.070313 28.214844 C 40.136719 26.730469 38.839844 25.429688 38.839844 25.429688 Z" stroke-linecap="round" />
</g>
<g transform="matrix(4.17 0 0 4.17 200 229.17)" id="surface1"  >
<path style="stroke: none; stroke-width: 1; stroke-dasharray: none; stroke-linecap: butt; stroke-dashoffset: 0; stroke-linejoin: miter; stroke-miterlimit: 4; fill: rgb(159,168,218); fill-rule: nonzero; opacity: 1;"  transform=" translate(-24, -31)" d="M 25 41 C 25 42.105469 24 42 24 42 C 24 42 23 42.105469 23 41 L 22 22 C 22 20.894531 22.894531 20 24 20 C 25.105469 20 26 20.894531 26 22 Z" stroke-linecap="round" />
</g>
<g transform="matrix(4.17 0 0 4.17 200 137.5)" id="surface1"  >
<path style="stroke: none; stroke-width: 1; stroke-dasharray: none; stroke-linecap: butt; stroke-dashoffset: 0; stroke-linejoin: miter; stroke-miterlimit: 4; fill: rgb(0,77,64); fill-rule: nonzero; opacity: 1;"  transform=" translate(-24, -9)" d="M 26 8 C 26 9.105469 25.105469 12 24 12 C 22.894531 12 22 9.105469 22 8 C 22 6.894531 22.894531 6 24 6 C 25.105469 6 26 6.894531 26 8 Z" stroke-linecap="round" />
</g>
<g transform="matrix(4.17 0 0 4.17 191.67 139.58)" id="surface1"  >
<path style="stroke: none; stroke-width: 1; stroke-dasharray: none; stroke-linecap: butt; stroke-dashoffset: 0; stroke-linejoin: miter; stroke-miterlimit: 4; fill: rgb(76,175,80); fill-rule: nonzero; opacity: 1;"  transform=" translate(-22, -9.5)" d="M 24 7.511719 C 23.582031 7.195313 23.066406 7 22.5 7 C 21.117188 7 20 8.117188 20 9.5 C 20 10.882813 21.117188 12 22.5 12 C 23.066406 12 24 12 24 12 C 22.84375 10.34375 23.394531 7.96875 24 7.511719 Z" stroke-linecap="round" />
</g>
<g transform="matrix(4.17 0 0 4.17 208.33 139.58)" id="surface1"  >
<path style="stroke: none; stroke-width: 1; stroke-dasharray: none; stroke-linecap: butt; stroke-dashoffset: 0; stroke-linejoin: miter; stroke-miterlimit: 4; fill: rgb(76,175,80); fill-rule: nonzero; opacity: 1;"  transform=" translate(-26, -9.5)" d="M 25.5 7 C 24.933594 7 24.417969 7.195313 24 7.511719 C 24.605469 7.96875 25.15625 10.484375 24 12 C 24 12 24.933594 12 25.5 12 C 26.882813 12 28 10.882813 28 9.5 C 28 8.117188 26.882813 7 25.5 7 Z" stroke-linecap="round" />
</g>
<g transform="matrix(4.17 0 0 4.17 200 191.67)" id="surface1"  >
<path style="stroke: none; stroke-width: 1; stroke-dasharray: none; stroke-linecap: butt; stroke-dashoffset: 0; stroke-linejoin: miter; stroke-miterlimit: 4; fill: rgb(49,27,146); fill-rule: nonzero; opacity: 1;"  transform=" translate(-24, -22)" d="M 24 20 C 22.894531 20 22 20.894531 22 22 L 22.105469 24 L 25.894531 24 L 26 22 C 26 20.894531 25.105469 20 24 20 Z" stroke-linecap="round" />
</g>
<g transform="matrix(4.17 0 0 4.17 200 212.5)" id="surface1"  >
<path style="stroke: none; stroke-width: 1; stroke-dasharray: none; stroke-linecap: butt; stroke-dashoffset: 0; stroke-linejoin: miter; stroke-miterlimit: 4; fill: rgb(57,73,171); fill-rule: nonzero; opacity: 1;"  transform=" translate(-24, -27)" d="M 22.367188 29 L 25.632813 29 L 25.84375 25 L 22.15625 25 Z" stroke-linecap="round" />
</g>
<g transform="matrix(4.17 0 0 4.17 200 166.67)" id="surface1"  >
<path style="stroke: none; stroke-width: 1; stroke-dasharray: none; stroke-linecap: butt; stroke-dashoffset: 0; stroke-linejoin: miter; stroke-miterlimit: 4; fill: rgb(40,53,147); fill-rule: nonzero; opacity: 1;"  transform=" translate(-24, -16)" d="M 27 15 C 27 17 26 20 24 20 C 22 20 21 17 21 15 C 21 13.34375 21 12 24 12 C 27 12 27 13.34375 27 15 Z" stroke-linecap="round" />
</g>
<g transform="matrix(4.17 0 0 4.17 200 193.75)" id="surface1"  >
<path style="stroke: none; stroke-width: 1; stroke-dasharray: none; stroke-linecap: butt; stroke-dashoffset: 0; stroke-linejoin: miter; stroke-miterlimit: 4; fill: rgb(40,53,147); fill-rule: nonzero; opacity: 1;"  transform=" translate(-24, -22.5)" d="M 24 20 C 22.894531 20 22 20.894531 22 22 L 22.15625 25 L 25.84375 25 L 26 22 C 26 20.894531 25.105469 20 24 20 Z" stroke-linecap="round" />
</g>
<g transform="matrix(4.17 0 0 4.17 200 229.17)" id="surface1"  >
<path style="stroke: none; stroke-width: 1; stroke-dasharray: none; stroke-linecap: butt; stroke-dashoffset: 0; stroke-linejoin: miter; stroke-miterlimit: 4; fill: rgb(92,107,192); fill-rule: nonzero; opacity: 1;"  transform=" translate(-24, -31)" d="M 22.578125 33 L 25.421875 33 L 25.632813 29 L 22.367188 29 Z" stroke-linecap="round" />
</g>
<g transform="matrix(4.17 0 0 4.17 200 245.83)" id="surface1"  >
<path style="stroke: none; stroke-width: 1; stroke-dasharray: none; stroke-linecap: butt; stroke-dashoffset: 0; stroke-linejoin: miter; stroke-miterlimit: 4; fill: rgb(121,134,203); fill-rule: nonzero; opacity: 1;"  transform=" translate(-24, -35)" d="M 22.789063 37 L 25.210938 37 L 25.421875 33 L 22.578125 33 Z" stroke-linecap="round" />
</g>
</svg>