<?xml version="1.0" encoding="UTF-8" standalone="no" ?>
<!DOCTYPE svg PUBLIC "-//W3C//DTD SVG 1.1//EN" "http://www.w3.org/Graphics/SVG/1.1/DTD/svg11.dtd">
<svg xmlns="http://www.w3.org/2000/svg" xmlns:xlink="http://www.w3.org/1999/xlink" version="1.1" width="400" height="400" viewBox="0 0 400 400" xml:space="preserve">
<desc>Created with Fabric.js 3.6.2</desc>
<defs>
</defs>
<g transform="matrix(4.17 0 0 4.17 162.5 229.17)" id="Layer_1"  >
<path style="stroke: none; stroke-width: 1; stroke-dasharray: none; stroke-linecap: butt; stroke-dashoffset: 0; stroke-linejoin: miter; stroke-miterlimit: 4; fill: rgb(191,54,12); fill-rule: nonzero; opacity: 1;"  transform=" translate(-15, -31)" d="M 14.655 38 c -3.092 0 -3.655 -3 -6.618 -5 C 6.799 32.165 6 31.365 6 30 c 0 -3 3.875 -6 8.655 -6 c 1.601 0 5.477 0 9.345 0 C 24 26 22.291 38 14.655 38 z" stroke-linecap="round" />
</g>
<g transform="matrix(4.17 0 0 4.17 237.5 229.17)" id="Layer_1"  >
<path style="stroke: none; stroke-width: 1; stroke-dasharray: none; stroke-linecap: butt; stroke-dashoffset: 0; stroke-linejoin: miter; stroke-miterlimit: 4; fill: rgb(191,54,12); fill-rule: nonzero; opacity: 1;"  transform=" translate(-33, -31)" d="M 33.345 38 c 3.092 0 3.655 -3 6.618 -5 C 41.201 32.165 42 31.365 42 30 c 0 -3 -3.875 -6 -8.655 -6 c -1.601 0 -5.477 0 -9.345 0 C 24 26 25.709 38 33.345 38 z" stroke-linecap="round" />
</g>
<g transform="matrix(4.17 0 0 4.17 156.25 168.75)" id="Layer_1"  >
<path style="stroke: none; stroke-width: 1; stroke-dasharray: none; stroke-linecap: butt; stroke-dashoffset: 0; stroke-linejoin: miter; stroke-miterlimit: 4; fill: rgb(62,39,35); fill-rule: nonzero; opacity: 1;"  transform=" translate(-13.5, -16.5)" d="M 25 24.493 C 25 24.493 16.856 8 4.083 8 c -1.48 0 -4.098 1.381 0.556 6.792 c 1.826 2.122 1.278 1.015 2.036 6.792 c 0.509 3.881 7.444 3.509 9.539 3.295 c 1.918 -0.196 3.836 -0.386 5.764 -0.386 H 25 z" stroke-linecap="round" />
</g>
<g transform="matrix(4.17 0 0 4.17 168.75 241.67)" id="Layer_1"  >
<path style="stroke: none; stroke-width: 1; stroke-dasharray: none; stroke-linecap: butt; stroke-dashoffset: 0; stroke-linejoin: miter; stroke-miterlimit: 4; fill: rgb(62,39,35); fill-rule: nonzero; opacity: 1;"  transform=" translate(-16.5, -34)" d="M 18.957 33.723 C 19.39 32.9 16.43 32 15.565 32 S 14 32.771 14 33.723 s 0.643 2.766 1.304 2.154 C 16.174 35.071 17.915 35.702 18.957 33.723 z" stroke-linecap="round" />
</g>
<g transform="matrix(4.17 0 0 4.17 231.25 241.67)" id="Layer_1"  >
<path style="stroke: none; stroke-width: 1; stroke-dasharray: none; stroke-linecap: butt; stroke-dashoffset: 0; stroke-linejoin: miter; stroke-miterlimit: 4; fill: rgb(62,39,35); fill-rule: nonzero; opacity: 1;"  transform=" translate(-31.5, -34)" d="M 29.043 33.723 C 28.61 32.9 31.57 32 32.435 32 S 34 32.771 34 33.723 s -0.643 2.766 -1.304 2.154 C 31.826 35.071 30.085 35.702 29.043 33.723 z" stroke-linecap="round" />
</g>
<g transform="matrix(4.17 0 0 4.17 243.75 168.75)" id="Layer_1"  >
<path style="stroke: none; stroke-width: 1; stroke-dasharray: none; stroke-linecap: butt; stroke-dashoffset: 0; stroke-linejoin: miter; stroke-miterlimit: 4; fill: rgb(62,39,35); fill-rule: nonzero; opacity: 1;"  transform=" translate(-34.5, -16.5)" d="M 23 24.493 C 23 24.493 31.144 8 43.917 8 c 1.48 0 4.098 1.381 -0.556 6.792 c -1.826 2.122 -1.278 1.015 -2.036 6.792 c -0.509 3.881 -7.444 3.509 -9.539 3.295 c -1.918 -0.196 -3.836 -0.386 -5.764 -0.386 H 23 z" stroke-linecap="round" />
</g>
<g transform="matrix(4.17 0 0 4.17 166.75 170.83)" id="Layer_1"  >
<path style="stroke: none; stroke-width: 1; stroke-dasharray: none; stroke-linecap: butt; stroke-dashoffset: 0; stroke-linejoin: miter; stroke-miterlimit: 4; fill: rgb(255,249,196); fill-rule: nonzero; opacity: 1;"  transform=" translate(-16.02, -17)" d="M 14.375 13.5 c 0.659 0.691 7.306 6.83 6.625 7.5 c -5.231 -2.574 -8.808 -4.403 -9.489 -5.074 s -0.701 -1.777 0 -2.426 C 12.232 12.831 13.737 12.831 14.375 13.5 z" stroke-linecap="round" />
</g>
<g transform="matrix(4.17 0 0 4.17 139.61 168.76)" id="Layer_1"  >
<path style="stroke: none; stroke-width: 1; stroke-dasharray: none; stroke-linecap: butt; stroke-dashoffset: 0; stroke-linejoin: miter; stroke-miterlimit: 4; fill: rgb(255,249,196); fill-rule: nonzero; opacity: 1;"  transform=" translate(-9.51, -16.5)" d="M 7.125 15.875 c -0.607 -0.728 1.405 -1.105 2.26 -0.663 c 4.636 2.399 2.238 3.705 -0.51 1.986 C 8.286 16.829 7.681 16.542 7.125 15.875 z" stroke-linecap="round" />
</g>
<g transform="matrix(4.17 0 0 4.17 160.42 189.63)" id="Layer_1"  >
<path style="stroke: none; stroke-width: 1; stroke-dasharray: none; stroke-linecap: butt; stroke-dashoffset: 0; stroke-linejoin: miter; stroke-miterlimit: 4; fill: rgb(255,249,196); fill-rule: nonzero; opacity: 1;"  transform=" translate(-14.5, -21.51)" d="M 21 22.464 C 21 23.535 8 26 8 21 c 0 -1 0.817 -2 2 -2 c 0.472 0 2.47 0.776 3 0.199 C 14 18.11 21 21.82 21 22.464 z" stroke-linecap="round" />
</g>
<g transform="matrix(4.17 0 0 4.17 122.92 141.67)" id="Layer_1"  >
<path style="stroke: none; stroke-width: 1; stroke-dasharray: none; stroke-linecap: butt; stroke-dashoffset: 0; stroke-linejoin: miter; stroke-miterlimit: 4; fill: rgb(255,249,196); fill-rule: nonzero; opacity: 1;"  transform=" translate(-5.5, -10)" d="M 8 10.781 c 0 0.492 -2 0 -4 0 c -0.552 0 -1 -0.399 -1 -0.891 C 3 9.399 3.448 9 4 9 C 6 9 8 10.289 8 10.781 z" stroke-linecap="round" />
</g>
<g transform="matrix(4.17 0 0 4.17 127.08 156.25)" id="Layer_1"  >
<path style="stroke: none; stroke-width: 1; stroke-dasharray: none; stroke-linecap: butt; stroke-dashoffset: 0; stroke-linejoin: miter; stroke-miterlimit: 4; fill: rgb(255,249,196); fill-rule: nonzero; opacity: 1;"  transform=" translate(-6.5, -13.5)" d="M 8 13 c 0 0.552 -1.448 2 -2 2 s -1 -1.448 -1 -2 s 0.448 -1 1 -1 S 8 12.448 8 13 z" stroke-linecap="round" />
</g>
<g transform="matrix(4.17 0 0 4.17 141.67 152.11)" id="Layer_1"  >
<path style="stroke: none; stroke-width: 1; stroke-dasharray: none; stroke-linecap: butt; stroke-dashoffset: 0; stroke-linejoin: miter; stroke-miterlimit: 4; fill: rgb(255,249,196); fill-rule: nonzero; opacity: 1;"  transform=" translate(-10, -12.51)" d="M 10.648 11.301 C 11.713 12.076 10.026 14 9.984 14 c -0.163 0.019 -1.566 -0.83 -0.707 -1.293 c 0.38 -0.204 -0.728 -0.798 -0.043 -1.406 C 9.658 10.924 10.112 10.911 10.648 11.301 z" stroke-linecap="round" />
</g>
<g transform="matrix(4.17 0 0 4.17 147.92 214.58)" id="Layer_1"  >
<path style="stroke: none; stroke-width: 1; stroke-dasharray: none; stroke-linecap: butt; stroke-dashoffset: 0; stroke-linejoin: miter; stroke-miterlimit: 4; fill: rgb(255,249,196); fill-rule: nonzero; opacity: 1;"  transform=" translate(-11.5, -27.5)" d="M 15 26.221 c 0 0.556 -4.063 1.785 -5.353 2.721 C 9.217 29.059 8 29.041 8 28.485 s 1.177 -1.254 1.75 -1.509 C 10.945 26.444 15 25.592 15 26.221 z" stroke-linecap="round" />
</g>
<g transform="matrix(4.17 0 0 4.17 163.32 219.76)" id="Layer_1"  >
<path style="stroke: none; stroke-width: 1; stroke-dasharray: none; stroke-linecap: butt; stroke-dashoffset: 0; stroke-linejoin: miter; stroke-miterlimit: 4; fill: rgb(255,249,196); fill-rule: nonzero; opacity: 1;"  transform=" translate(-15.2, -28.74)" d="M 20.375 25.625 c -0.962 1.07 -3.602 3.055 -5.75 5.125 c -0.626 0.603 -3.89 1.709 -4.375 1 c -0.628 -0.918 0.141 -2.249 0.875 -2.625 C 13.506 27.905 19.75 24.875 20.375 25.625 z" stroke-linecap="round" />
</g>
<g transform="matrix(4.17 0 0 4.17 183.34 224.33)" id="Layer_1"  >
<path style="stroke: none; stroke-width: 1; stroke-dasharray: none; stroke-linecap: butt; stroke-dashoffset: 0; stroke-linejoin: miter; stroke-miterlimit: 4; fill: rgb(255,249,196); fill-rule: nonzero; opacity: 1;"  transform=" translate(-20, -29.84)" d="M 23.94 24.93 c -0.251 2.38 -1.323 7.68 -4.21 10.75 c -1.133 -0.57 -1.694 -1.85 -1.694 -2.68 c 0 -1.1 0.892 -2 1.985 -2 c 0.682 0 2.987 -3 1.995 -3 s -4 2.72 -4.12 2.85 c -0.2 0.2 -1.654 1.35 -1.844 1.15 c -0.2 -0.2 0.19 -1.875 1.183 -2.875 c 0 0 6.365 -5.125 6.756 -5.125 H 24 c -0.11 0.32 -0.261 0.65 -0.451 0.98 C 23.719 24.92 23.86 24.9 23.94 24.93 z" stroke-linecap="round" />
</g>
<g transform="matrix(4.17 0 0 4.17 233.25 170.83)" id="Layer_1"  >
<path style="stroke: none; stroke-width: 1; stroke-dasharray: none; stroke-linecap: butt; stroke-dashoffset: 0; stroke-linejoin: miter; stroke-miterlimit: 4; fill: rgb(255,249,196); fill-rule: nonzero; opacity: 1;"  transform=" translate(-31.98, -17)" d="M 33.625 13.5 C 32.966 14.191 26.319 20.33 27 21 c 5.231 -2.574 8.808 -4.403 9.489 -5.074 s 0.701 -1.777 0 -2.426 C 35.768 12.831 34.263 12.831 33.625 13.5 z" stroke-linecap="round" />
</g>
<g transform="matrix(4.17 0 0 4.17 260.39 168.76)" id="Layer_1"  >
<path style="stroke: none; stroke-width: 1; stroke-dasharray: none; stroke-linecap: butt; stroke-dashoffset: 0; stroke-linejoin: miter; stroke-miterlimit: 4; fill: rgb(255,249,196); fill-rule: nonzero; opacity: 1;"  transform=" translate(-38.49, -16.5)" d="M 40.875 15.875 c 0.607 -0.728 -1.405 -1.105 -2.26 -0.663 c -4.636 2.399 -2.238 3.705 0.51 1.986 C 39.714 16.829 40.319 16.542 40.875 15.875 z" stroke-linecap="round" />
</g>
<g transform="matrix(4.17 0 0 4.17 239.58 189.63)" id="Layer_1"  >
<path style="stroke: none; stroke-width: 1; stroke-dasharray: none; stroke-linecap: butt; stroke-dashoffset: 0; stroke-linejoin: miter; stroke-miterlimit: 4; fill: rgb(255,249,196); fill-rule: nonzero; opacity: 1;"  transform=" translate(-33.5, -21.51)" d="M 27 22.464 C 27 23.535 40 26 40 21 c 0 -1 -0.817 -2 -2 -2 c -0.472 0 -2.47 0.776 -3 0.199 C 34 18.11 27 21.82 27 22.464 z" stroke-linecap="round" />
</g>
<g transform="matrix(4.17 0 0 4.17 277.08 141.67)" id="Layer_1"  >
<path style="stroke: none; stroke-width: 1; stroke-dasharray: none; stroke-linecap: butt; stroke-dashoffset: 0; stroke-linejoin: miter; stroke-miterlimit: 4; fill: rgb(255,249,196); fill-rule: nonzero; opacity: 1;"  transform=" translate(-42.5, -10)" d="M 40 10.781 c 0 0.492 2 0 4 0 c 0.552 0 1 -0.399 1 -0.891 C 45 9.399 44.552 9 44 9 C 42 9 40 10.289 40 10.781 z" stroke-linecap="round" />
</g>
<g transform="matrix(4.17 0 0 4.17 272.92 156.25)" id="Layer_1"  >
<path style="stroke: none; stroke-width: 1; stroke-dasharray: none; stroke-linecap: butt; stroke-dashoffset: 0; stroke-linejoin: miter; stroke-miterlimit: 4; fill: rgb(255,249,196); fill-rule: nonzero; opacity: 1;"  transform=" translate(-41.5, -13.5)" d="M 40 13 c 0 0.552 1.448 2 2 2 s 1 -1.448 1 -2 s -0.448 -1 -1 -1 S 40 12.448 40 13 z" stroke-linecap="round" />
</g>
<g transform="matrix(4.17 0 0 4.17 258.33 152.11)" id="Layer_1"  >
<path style="stroke: none; stroke-width: 1; stroke-dasharray: none; stroke-linecap: butt; stroke-dashoffset: 0; stroke-linejoin: miter; stroke-miterlimit: 4; fill: rgb(255,249,196); fill-rule: nonzero; opacity: 1;"  transform=" translate(-38, -12.51)" d="M 37.352 11.301 C 36.287 12.076 37.974 14 38.016 14 c 0.163 0.019 1.566 -0.83 0.707 -1.293 c -0.38 -0.204 0.728 -0.798 0.043 -1.406 C 38.342 10.924 37.888 10.911 37.352 11.301 z" stroke-linecap="round" />
</g>
<g transform="matrix(4.17 0 0 4.17 216.66 224.33)" id="Layer_1"  >
<path style="stroke: none; stroke-width: 1; stroke-dasharray: none; stroke-linecap: butt; stroke-dashoffset: 0; stroke-linejoin: miter; stroke-miterlimit: 4; fill: rgb(255,249,196); fill-rule: nonzero; opacity: 1;"  transform=" translate(-28, -29.84)" d="M 24.06 24.93 c 0.251 2.38 1.323 7.68 4.21 10.75 c 1.133 -0.57 1.694 -1.85 1.694 -2.68 c 0 -1.1 -0.892 -2 -1.985 -2 c -0.682 0 -2.987 -3 -1.995 -3 s 4 2.72 4.12 2.85 c 0.2 0.2 1.654 1.35 1.844 1.15 c 0.2 -0.2 -0.19 -1.875 -1.183 -2.875 c 0 0 -6.365 -5.125 -6.756 -5.125 H 24 c 0.11 0.32 0.261 0.65 0.451 0.98 C 24.281 24.92 24.14 24.9 24.06 24.93 z" stroke-linecap="round" />
</g>
<g transform="matrix(4.17 0 0 4.17 252.08 214.58)" id="Layer_1"  >
<path style="stroke: none; stroke-width: 1; stroke-dasharray: none; stroke-linecap: butt; stroke-dashoffset: 0; stroke-linejoin: miter; stroke-miterlimit: 4; fill: rgb(255,249,196); fill-rule: nonzero; opacity: 1;"  transform=" translate(-36.5, -27.5)" d="M 33 26.221 c 0 0.556 4.063 1.785 5.353 2.721 C 38.783 29.059 40 29.041 40 28.485 s -1.177 -1.254 -1.75 -1.509 C 37.055 26.444 33 25.592 33 26.221 z" stroke-linecap="round" />
</g>
<g transform="matrix(4.17 0 0 4.17 236.68 219.76)" id="Layer_1"  >
<path style="stroke: none; stroke-width: 1; stroke-dasharray: none; stroke-linecap: butt; stroke-dashoffset: 0; stroke-linejoin: miter; stroke-miterlimit: 4; fill: rgb(255,249,196); fill-rule: nonzero; opacity: 1;"  transform=" translate(-32.8, -28.74)" d="M 27.625 25.625 c 0.962 1.07 3.602 3.055 5.75 5.125 c 0.626 0.603 3.89 1.709 4.375 1 c 0.628 -0.918 -0.141 -2.249 -0.875 -2.625 C 34.494 27.905 28.25 24.875 27.625 25.625 z" stroke-linecap="round" />
</g>
<g transform="matrix(4.17 0 0 4.17 160.73 217.27)" id="Layer_1"  >
<path style="stroke: none; stroke-width: 1; stroke-dasharray: none; stroke-linecap: butt; stroke-dashoffset: 0; stroke-linejoin: miter; stroke-miterlimit: 4; fill: rgb(62,39,35); fill-rule: nonzero; opacity: 1;"  transform=" translate(-14.58, -28.15)" d="M 22.87 25.19 c -0.11 0.01 -0.21 0.02 -0.32 0.04 c -0.78 0.11 -1.53 0.26 -2.27 0.42 c -6.45 1.45 -11.16 4.62 -13.42 6.4 c -0.24 -0.25 -0.44 -0.51 -0.58 -0.8 c 2.62 -2.06 8.25 -5.78 15.91 -6.98 c 0 0 0 0 0.01 0 c 0.06 -0.01 0.13 -0.02 0.19 -0.03 c 0.11 0.27 0.26 0.56 0.41 0.83 C 22.83 25.11 22.85 25.15 22.87 25.19 z" stroke-linecap="round" />
</g>
<g transform="matrix(4.17 0 0 4.17 230.29 225.96)" id="Layer_1"  >
<path style="stroke: none; stroke-width: 1; stroke-dasharray: none; stroke-linecap: butt; stroke-dashoffset: 0; stroke-linejoin: miter; stroke-miterlimit: 4; fill: rgb(62,39,35); fill-rule: nonzero; opacity: 1;"  transform=" translate(-31.27, -30.23)" d="M 25.2 25.07 c 0.08 0.05 0.17 0.1 0.25 0.16 c 4.16 2.81 8.39 7.55 11.22 11.06 c 0.22 -0.25 0.45 -0.51 0.67 -0.79 c -2.48 -3.06 -5.97 -7 -9.62 -9.85 c -0.63 -0.5 -1.27 -0.96 -1.91 -1.38 c 0 0 0 0 -0.01 0 c -0.05 -0.04 -0.1 -0.07 -0.15 -0.1 c -0.01 0.02 -0.02 0.05 -0.04 0.07 C 25.5 24.51 25.35 24.8 25.2 25.07 z" stroke-linecap="round" />
</g>
<g transform="matrix(4.17 0 0 4.17 239.27 217.27)" id="Layer_1"  >
<path style="stroke: none; stroke-width: 1; stroke-dasharray: none; stroke-linecap: butt; stroke-dashoffset: 0; stroke-linejoin: miter; stroke-miterlimit: 4; fill: rgb(62,39,35); fill-rule: nonzero; opacity: 1;"  transform=" translate(-33.42, -28.15)" d="M 25.13 25.19 c 0.11 0.01 0.21 0.02 0.32 0.04 c 0.78 0.11 1.53 0.26 2.27 0.42 c 6.45 1.45 11.16 4.62 13.42 6.4 c 0.24 -0.25 0.44 -0.51 0.58 -0.8 c -2.62 -2.06 -8.25 -5.78 -15.91 -6.98 c 0 0 0 0 -0.01 0 c -0.06 -0.01 -0.13 -0.02 -0.19 -0.03 c -0.11 0.27 -0.26 0.56 -0.41 0.83 C 25.17 25.11 25.15 25.15 25.13 25.19 z" stroke-linecap="round" />
</g>
<g transform="matrix(4.17 0 0 4.17 169.71 225.96)" id="Layer_1"  >
<path style="stroke: none; stroke-width: 1; stroke-dasharray: none; stroke-linecap: butt; stroke-dashoffset: 0; stroke-linejoin: miter; stroke-miterlimit: 4; fill: rgb(62,39,35); fill-rule: nonzero; opacity: 1;"  transform=" translate(-16.73, -30.23)" d="M 22.8 25.07 c -0.08 0.05 -0.17 0.1 -0.25 0.16 c -4.16 2.81 -8.39 7.55 -11.22 11.06 c -0.22 -0.25 -0.45 -0.51 -0.67 -0.79 c 2.48 -3.06 5.97 -7 9.62 -9.85 c 0.63 -0.5 1.27 -0.96 1.91 -1.38 c 0 0 0 0 0.01 0 c 0.05 -0.04 0.1 -0.07 0.15 -0.1 c 0.01 0.02 0.02 0.05 0.04 0.07 C 22.5 24.51 22.65 24.8 22.8 25.07 z" stroke-linecap="round" />
</g>
<g transform="matrix(4.17 0 0 4.17 200 212.5)" id="Layer_1"  >
<path style="stroke: none; stroke-width: 1; stroke-dasharray: none; stroke-linecap: butt; stroke-dashoffset: 0; stroke-linejoin: miter; stroke-miterlimit: 4; fill: rgb(33,33,33); fill-rule: nonzero; opacity: 1;"  transform=" translate(-24, -27)" d="M 26 23.5 c 0 -0.612 -0.614 -1.773 -1.161 -2.687 C 24.94 20.578 25 20.3 25 20 c 0 -0.828 -0.448 -1.5 -1 -1.5 s -1 0.672 -1 1.5 c 0 0.3 0.06 0.578 0.161 0.813 C 22.614 21.727 22 22.888 22 23.5 c 0 0.65 0.691 1.916 1.261 2.851 C 23.001 29.182 23 33.148 23 33.5 c 0 0.552 0.448 2 1 2 s 1 -1.448 1 -2 c 0 -0.352 -0.001 -4.318 -0.261 -7.149 C 25.309 25.416 26 24.15 26 23.5 z" stroke-linecap="round" />
</g>
</svg>