<?xml version="1.0" encoding="UTF-8" standalone="no" ?>
<!DOCTYPE svg PUBLIC "-//W3C//DTD SVG 1.1//EN" "http://www.w3.org/Graphics/SVG/1.1/DTD/svg11.dtd">
<svg xmlns="http://www.w3.org/2000/svg" xmlns:xlink="http://www.w3.org/1999/xlink" version="1.1" width="400" height="400" viewBox="0 0 400 400" xml:space="preserve">
<desc>Created with Fabric.js 3.6.2</desc>
<defs>
</defs>
<g transform="matrix(4.17 0 0 4.17 238.4 192.08)" id="surface1"  >
<path style="stroke: none; stroke-width: 1; stroke-dasharray: none; stroke-linecap: butt; stroke-dashoffset: 0; stroke-linejoin: miter; stroke-miterlimit: 4; fill: rgb(103,58,183); fill-rule: nonzero; opacity: 1;"  transform=" translate(-33.22, -22.1)" d="M 29.3 37.1 C 28.9 36 29 35 29 35 s 7.2 5.4 12.9 -1.9 c -0.1 0.3 -0.3 0.7 -0.5 1 c 0.6 -1 1 -2 1.1 -3 c 0.2 -1.3 0.1 -2.6 -0.1 -3.8 c -0.1 -0.6 -0.3 -1.2 -0.5 -1.7 c -0.1 -0.3 -0.2 -0.5 -0.3 -0.9 c -0.1 -0.2 -0.2 -0.6 -0.4 -0.8 c -0.6 -1.1 -1.2 -1.9 -1.7 -2.7 c -0.2 -0.4 -0.4 -0.8 -0.6 -1.2 c -0.1 -0.4 -0.2 -0.7 -0.2 -1.1 c 0 -0.8 0.4 -1.6 0.9 -2.5 c 0.3 -0.5 0.6 -0.9 0.8 -1.5 c 0.2 -0.5 0.4 -1 0.5 -1.6 c 0.2 -1.2 -0.3 -2.3 -0.7 -3.3 c -0.4 -1 -1 -1.9 -1.3 -2.9 c 0.2 1 0.6 2 0.9 3 c 0.3 1 0.5 2 0.2 2.9 c -0.1 0.4 -0.4 0.8 -0.7 1.3 c -0.2 0.4 -0.5 0.8 -0.9 1.2 c -0.7 0.8 -1.4 1.8 -1.7 3.1 c -0.1 0.6 -0.1 1.3 0 2 c 0.1 0.6 0.3 1.2 0.5 1.7 c 0.4 1.1 0.9 2 1.2 2.9 c 0.5 1.7 0.6 3.7 0.1 5.1 c -0.3 0.7 -0.6 1.3 -1.1 1.7 c -0.5 0.4 -1.1 0.8 -1.8 0.9 c -1.3 0.3 -2.6 -0.1 -3.5 -0.9 c -0.4 -0.4 -0.8 -0.9 -1 -1.4 C 31 29.9 31 29.5 31 28.8 c 0 -1.3 0.5 -3.1 1 -5.4 l 0 -0.1 c 0 -0.2 0.1 -0.5 0.1 -0.7 c 0 -2.2 -1.7 -4 -4 -4.1 s -4 1.7 -4.1 4 c 0 1.9 -0.4 4.2 0 7.1 c 0.2 1.4 0.8 3 1.6 4.2 c 0.9 1.3 2.4 2.2 3.3 3.1 C 29 37 29 36.9 29.3 37.1 z" stroke-linecap="round" />
</g>
<g transform="matrix(4.17 0 0 4.17 200 162.5)" id="surface1"  >
<path style="stroke: none; stroke-width: 1; stroke-dasharray: none; stroke-linecap: butt; stroke-dashoffset: 0; stroke-linejoin: miter; stroke-miterlimit: 4; fill: rgb(103,58,183); fill-rule: nonzero; opacity: 1;"  transform=" translate(-24, -15)" d="M 33 11 c 0 5 -4 17 -9 17 s -9 -12 -9 -17 s 4 -9 9 -9 S 33 6 33 11 z" stroke-linecap="round" />
</g>
<g transform="matrix(4.17 0 0 4.17 162.38 191.67)" id="surface1"  >
<path style="stroke: none; stroke-width: 1; stroke-dasharray: none; stroke-linecap: butt; stroke-dashoffset: 0; stroke-linejoin: miter; stroke-miterlimit: 4; fill: rgb(103,58,183); fill-rule: nonzero; opacity: 1;"  transform=" translate(-14.97, -22)" d="M 24.4 25.6 c -0.1 -1.1 -0.1 -2.1 -0.2 -3.1 c 0 -0.2 0 -0.4 -0.1 -0.5 c -0.4 -2.2 -2.5 -3.6 -4.7 -3.2 c -2.2 0.4 -3.6 2.5 -3.2 4.7 l 0 0.1 c 0.4 2.1 1 4.5 1 5.5 l 0 0.3 v 0 c 0 -0.1 0 0.1 0 -0.1 v 0 l 0 0.1 l 0 0.1 l 0 0.2 c 0 0.3 0 0.1 0 0.3 c 0 0.2 -0.1 0.5 -0.2 0.7 c -0.2 0.5 -0.6 1 -1.1 1.5 c -0.3 0.2 -0.5 0.4 -0.8 0.6 c -0.1 0.1 -0.4 0.2 -0.7 0.2 c -0.6 0.1 -1.4 0.1 -2.2 -0.1 L 12 32.6 l -0.1 0 l -0.1 0 l 0 0 c 0 0 -0.1 0 0.1 0 l -0.1 0 l -0.3 -0.1 c 0 0 -0.1 0 -0.1 0 c -0.3 -0.1 -0.5 -0.2 -0.7 -0.4 c -0.4 -0.4 -0.8 -1 -1.1 -1.8 c -0.6 -1.5 -0.4 -3.3 0.1 -5.2 l 0.1 -0.3 l 0.1 -0.3 c 0.1 -0.2 0.2 -0.4 0.3 -0.7 l 0.6 -1.5 c 0.4 -1 0.9 -2.3 0.6 -3.7 c -0.2 -1.3 -1 -2.3 -1.7 -3.1 c -0.3 -0.4 -0.6 -0.8 -0.9 -1.2 c -0.2 -0.4 -0.5 -0.9 -0.7 -1.3 c -0.3 -0.8 -0.2 -1.9 0.1 -2.9 C 8.4 9 8.8 8 9 7 C 8.6 8 8.1 8.9 7.7 9.9 c -0.4 1 -0.7 2.1 -0.5 3.3 c 0.1 0.6 0.3 1.1 0.5 1.6 c 0.2 0.5 0.5 1 0.8 1.5 c 0.6 0.9 0.9 1.7 0.9 2.5 c 0 0.7 -0.3 1.5 -0.9 2.3 l -0.8 1.3 c -0.2 0.2 -0.3 0.5 -0.4 0.8 l -0.2 0.4 L 6.9 24 c -0.5 1 -0.9 2.1 -1.2 3.3 c -0.1 0.6 -0.2 1.2 -0.2 1.9 c 0 0.3 0 0.7 0 1 l 0 0.4 l 0.1 0.5 c 0.1 0.7 0.3 1.4 0.7 2.2 c 0 -0.1 -0.1 -0.2 -0.1 -0.3 c 5.7 7.1 12.9 1.9 12.9 1.9 s 0.1 1 -0.3 2.1 c 0.2 -0.1 0.3 -0.2 0.5 -0.3 c 1.3 -0.7 2.4 -1.7 3.3 -3 c 0.5 -0.6 0.9 -1.4 1.1 -2.1 c 0.1 -0.3 0.3 -1 0.4 -1.3 l 0.1 -0.2 l 0 -0.1 l 0 0 l 0 0 l 0 -0.2 l 0.1 -0.5 c 0.1 -0.7 0.1 -1.5 0.1 -2.1 C 24.5 26.7 24.4 26.1 24.4 25.6 z" stroke-linecap="round" />
</g>
<g transform="matrix(4.17 0 0 4.17 228.13 242.59)" id="surface1"  >
<path style="stroke: none; stroke-width: 1; stroke-dasharray: none; stroke-linecap: butt; stroke-dashoffset: 0; stroke-linejoin: miter; stroke-miterlimit: 4; fill: rgb(103,58,183); fill-rule: nonzero; opacity: 1;"  transform=" translate(-30.75, -34.22)" d="M 30.4 29 c -0.1 0.2 -0.2 0.6 -0.3 0.6 c -0.1 0.1 -0.1 0.3 -0.2 0.5 c -0.1 0.4 -0.2 0.8 -0.3 1.2 c -0.2 0.8 -0.3 1.7 -0.4 2.7 c -0.1 0.9 -0.1 1.9 0 2.8 l 0 0.2 l 0 0 v 0 c 0 0 0 -0.1 0 -0.1 v 0 l 0 0.1 l 0 0.1 l 0 0.4 c 0 0.2 0 0.3 0.1 0.5 c 0.1 0.4 0.2 0.8 0.3 1.2 c 0.6 1.5 1.8 2.9 3.5 3.8 c 1.7 0.9 3.8 1.3 5.9 1.2 c -2 0.7 -4.2 1.1 -6.5 0.7 c -2.3 -0.4 -4.6 -1.6 -6.2 -3.6 c -0.4 -0.5 -0.8 -1 -1.1 -1.6 c -0.2 -0.3 -0.3 -0.6 -0.5 -0.9 l -0.2 -0.4 l 0 -0.1 l 0 0 l 0 0 l 0 -0.1 l 0 0 L 24.4 38 c -0.4 -1.1 -0.8 -2.2 -1.1 -3.3 c -0.3 -1.1 -0.5 -2.3 -0.7 -3.6 c -0.1 -0.6 -0.1 -1.3 -0.1 -1.9 c 0 -0.3 0 -0.7 0 -1.1 l 0.1 -0.9 l 0 -0.1 c 0.2 -2.2 2.1 -3.9 4.4 -3.7 c 2.2 0.2 3.9 2.1 3.7 4.4 C 30.7 28.2 30.6 28.6 30.4 29 z" stroke-linecap="round" />
</g>
<g transform="matrix(4.17 0 0 4.17 172.29 242.35)" id="surface1"  >
<path style="stroke: none; stroke-width: 1; stroke-dasharray: none; stroke-linecap: butt; stroke-dashoffset: 0; stroke-linejoin: miter; stroke-miterlimit: 4; fill: rgb(103,58,183); fill-rule: nonzero; opacity: 1;"  transform=" translate(-17.35, -34.16)" d="M 25.5 27.2 l 0.1 0.9 c 0 0.4 0 0.8 0 1.1 c 0 0.7 0 1.3 -0.1 1.9 c -0.1 1.2 -0.4 2.4 -0.7 3.6 s -0.7 2.2 -1.1 3.3 l -0.1 0.2 l 0 0 l 0 0.1 l 0 0 l 0 0 l 0 0.1 l -0.2 0.4 c -0.2 0.3 -0.3 0.6 -0.5 0.9 c -0.3 0.6 -0.7 1.1 -1.1 1.6 c -1.6 2 -4 3.2 -6.2 3.6 c -2.3 0.4 -4.5 0 -6.5 -0.7 c 2.1 0.1 4.2 -0.3 5.9 -1.2 c 1.7 -0.9 2.9 -2.3 3.5 -3.8 c 0.1 -0.4 0.3 -0.8 0.3 -1.2 c 0 -0.2 0.1 -0.4 0.1 -0.6 l 0.1 -0.4 l 0 -0.1 l 0 -0.1 l 0 0 c 0 -0.1 0 0.1 0 0.1 v 0 l 0 -0.2 c 0.1 -0.9 0.1 -1.9 0 -2.8 c -0.1 -0.9 -0.2 -1.8 -0.4 -2.7 c -0.1 -0.4 -0.2 -0.8 -0.3 -1.2 c -0.1 -0.2 -0.1 -0.4 -0.2 -0.5 c 0 -0.1 -0.2 -0.4 -0.3 -0.6 c -0.9 -2.1 0.1 -4.4 2.1 -5.3 c 2.1 -0.9 4.4 0.1 5.3 2.1 C 25.3 26.2 25.4 26.7 25.5 27.2 L 25.5 27.2 z" stroke-linecap="round" />
</g>
<g transform="matrix(4.17 0 0 4.17 200 191.67)" id="surface1"  >
<path style="stroke: none; stroke-width: 1; stroke-dasharray: none; stroke-linecap: butt; stroke-dashoffset: 0; stroke-linejoin: miter; stroke-miterlimit: 4; fill: rgb(103,58,183); fill-rule: nonzero; opacity: 1;"  transform=" translate(-24, -22)" d="M 33 18.5 c 0 3.5 -6.6 9.5 -8 9.5 h -2 c -1.4 0 -8 -6 -8 -9.5 c 0 -1.4 1.1 -2.5 2.5 -2.5 h 13 C 31.9 16 33 17.1 33 18.5 z" stroke-linecap="round" />
</g>
<g transform="matrix(4.17 0 0 4.17 204.17 125)" id="surface1"  >
<path style="stroke: none; stroke-width: 1; stroke-dasharray: none; stroke-linecap: butt; stroke-dashoffset: 0; stroke-linejoin: miter; stroke-miterlimit: 4; fill: rgb(126,87,194); fill-rule: nonzero; opacity: 1;"  transform=" translate(-25, -6)" d="M 27 6 c 0 1.1 -0.9 2 -2 2 s -2 -0.9 -2 -2 s 0.9 -2 2 -2 S 27 4.9 27 6 z" stroke-linecap="round" />
</g>
<g transform="matrix(4.17 0 0 4.17 187.5 125)" id="surface1"  >
<path style="stroke: none; stroke-width: 1; stroke-dasharray: none; stroke-linecap: butt; stroke-dashoffset: 0; stroke-linejoin: miter; stroke-miterlimit: 4; fill: rgb(126,87,194); fill-rule: nonzero; opacity: 1;"  transform=" translate(-21, -6)" d="M 22 6 c 0 0.6 -0.4 1 -1 1 s -1 -0.4 -1 -1 s 0.4 -1 1 -1 S 22 5.4 22 6 z" stroke-linecap="round" />
</g>
<g transform="matrix(4.17 0 0 4.17 222.92 135.42)" id="surface1"  >
<path style="stroke: none; stroke-width: 1; stroke-dasharray: none; stroke-linecap: butt; stroke-dashoffset: 0; stroke-linejoin: miter; stroke-miterlimit: 4; fill: rgb(126,87,194); fill-rule: nonzero; opacity: 1;"  transform=" translate(-29.5, -8.5)" d="M 31 8.5 c 0 0.8 -0.7 1.5 -1.5 1.5 S 28 9.3 28 8.5 S 28.7 7 29.5 7 S 31 7.7 31 8.5 z" stroke-linecap="round" />
</g>
<g transform="matrix(4.17 0 0 4.17 225 150)" id="surface1"  >
<path style="stroke: none; stroke-width: 1; stroke-dasharray: none; stroke-linecap: butt; stroke-dashoffset: 0; stroke-linejoin: miter; stroke-miterlimit: 4; fill: rgb(126,87,194); fill-rule: nonzero; opacity: 1;"  transform=" translate(-30, -12)" d="M 31 12 c 0 0.6 -0.4 1 -1 1 s -1 -0.4 -1 -1 s 0.4 -1 1 -1 S 31 11.4 31 12 z" stroke-linecap="round" />
</g>
<g transform="matrix(4.17 0 0 4.17 195.83 141.67)" id="surface1"  >
<path style="stroke: none; stroke-width: 1; stroke-dasharray: none; stroke-linecap: butt; stroke-dashoffset: 0; stroke-linejoin: miter; stroke-miterlimit: 4; fill: rgb(179,157,219); fill-rule: nonzero; opacity: 1;"  transform=" translate(-23, -10)" d="M 24 10 c 0 0.6 -0.4 1 -1 1 s -1 -0.4 -1 -1 s 0.4 -1 1 -1 S 24 9.4 24 10 z" stroke-linecap="round" />
</g>
<g transform="matrix(4.17 0 0 4.17 177.08 135.42)" id="surface1"  >
<path style="stroke: none; stroke-width: 1; stroke-dasharray: none; stroke-linecap: butt; stroke-dashoffset: 0; stroke-linejoin: miter; stroke-miterlimit: 4; fill: rgb(179,157,219); fill-rule: nonzero; opacity: 1;"  transform=" translate(-18.5, -8.5)" d="M 19 8.5 C 19 8.8 18.8 9 18.5 9 S 18 8.8 18 8.5 S 18.2 8 18.5 8 S 19 8.2 19 8.5 z" stroke-linecap="round" />
</g>
<g transform="matrix(4.17 0 0 4.17 210.42 143.75)" id="surface1"  >
<path style="stroke: none; stroke-width: 1; stroke-dasharray: none; stroke-linecap: butt; stroke-dashoffset: 0; stroke-linejoin: miter; stroke-miterlimit: 4; fill: rgb(179,157,219); fill-rule: nonzero; opacity: 1;"  transform=" translate(-26.5, -10.5)" d="M 27 10.5 c 0 0.3 -0.2 0.5 -0.5 0.5 S 26 10.8 26 10.5 s 0.2 -0.5 0.5 -0.5 S 27 10.2 27 10.5 z" stroke-linecap="round" />
</g>
<g transform="matrix(4.17 0 0 4.17 180.61 176.06)" id="surface1"  >
<path style="stroke: none; stroke-width: 1; stroke-dasharray: none; stroke-linecap: butt; stroke-dashoffset: 0; stroke-linejoin: miter; stroke-miterlimit: 4; fill: rgb(255,235,59); fill-rule: nonzero; opacity: 1;"  transform=" translate(-19.35, -18.25)" d="M 21 20.2 c 1 -1 -0.8 -0.8 -1.8 -1.8 c -1 -1 -0.8 -2.8 -1.8 -1.8" stroke-linecap="round" />
</g>
<g transform="matrix(4.17 0 0 4.17 180.65 176.01)" id="surface1"  >
<path style="stroke: none; stroke-width: 1; stroke-dasharray: none; stroke-linecap: butt; stroke-dashoffset: 0; stroke-linejoin: miter; stroke-miterlimit: 4; fill: rgb(49,27,146); fill-rule: nonzero; opacity: 1;"  transform=" translate(-19.36, -18.24)" d="M 21 21.2 c -0.3 0 -0.5 -0.1 -0.7 -0.3 c -0.2 -0.2 -0.3 -0.6 -0.3 -0.9 c -0.5 -0.2 -1 -0.5 -1.5 -0.9 c -0.5 -0.5 -0.8 -1.1 -0.9 -1.5 c -0.3 0.1 -0.6 0 -0.9 -0.3 c -0.4 -0.4 -0.4 -1 0 -1.4 c 0.2 -0.2 0.7 -0.7 1.4 -0.6 c 0.7 0.2 1 0.8 1.2 1.4 c 0.1 0.4 0.3 0.8 0.6 1 c 0.2 0.2 0.7 0.4 1 0.6 c 0.5 0.2 1.2 0.5 1.4 1.2 c 0.1 0.7 -0.4 1.3 -0.6 1.4 C 21.5 21.1 21.3 21.2 21 21.2 z" stroke-linecap="round" />
</g>
<g transform="matrix(4.17 0 0 4.17 217.31 176.06)" id="surface1"  >
<path style="stroke: none; stroke-width: 1; stroke-dasharray: none; stroke-linecap: butt; stroke-dashoffset: 0; stroke-linejoin: miter; stroke-miterlimit: 4; fill: rgb(255,235,59); fill-rule: nonzero; opacity: 1;"  transform=" translate(-28.15, -18.25)" d="M 26.5 20.2 c -1 -1 0.8 -0.8 1.8 -1.8 c 1 -1 0.8 -2.8 1.8 -1.8" stroke-linecap="round" />
</g>
<g transform="matrix(4.17 0 0 4.17 217.26 175.96)" id="surface1"  >
<path style="stroke: none; stroke-width: 1; stroke-dasharray: none; stroke-linecap: butt; stroke-dashoffset: 0; stroke-linejoin: miter; stroke-miterlimit: 4; fill: rgb(49,27,146); fill-rule: nonzero; opacity: 1;"  transform=" translate(-28.14, -18.23)" d="M 26.5 21.2 c -0.3 0 -0.5 -0.1 -0.7 -0.3 c -0.2 -0.2 -0.7 -0.7 -0.6 -1.4 c 0.2 -0.7 0.8 -1 1.4 -1.2 c 0.4 -0.1 0.8 -0.3 1 -0.6 c 0.3 -0.3 0.4 -0.7 0.6 -1 c 0.2 -0.5 0.5 -1.2 1.2 -1.4 c 0.7 -0.2 1.3 0.4 1.4 0.6 c 0.4 0.4 0.4 1 0 1.4 c -0.2 0.2 -0.6 0.3 -0.9 0.3 c -0.2 0.5 -0.5 1 -0.9 1.5 c -0.5 0.5 -1.1 0.7 -1.5 0.9 c 0.1 0.3 0 0.6 -0.3 0.9 C 27 21.1 26.8 21.2 26.5 21.2 z" stroke-linecap="round" />
</g>
<g transform="matrix(4.17 0 0 4.17 198.96 258.13)" id="surface1"  >
<path style="stroke: none; stroke-width: 1; stroke-dasharray: none; stroke-linecap: butt; stroke-dashoffset: 0; stroke-linejoin: miter; stroke-miterlimit: 4; fill: rgb(49,27,146); fill-rule: nonzero; opacity: 1;"  transform=" translate(-23.75, -37.95)" d="M 24 31 c 0 0 -1.8 12.8 -8.8 13.9 c 0.1 0 0.2 0 0.3 0 c 2.3 -0.4 4.6 -1.6 6.2 -3.6 c 0.4 -0.5 0.8 -1 1.1 -1.6 c 0.2 -0.3 0.3 -0.6 0.5 -0.9 l 0.2 -0.4 l 0 -0.1 l 0 0 l 0 0 l 0 -0.1 l 0 0 l 0.1 -0.2 c 0.1 -0.3 0.2 -0.6 0.3 -0.9 c 0.1 0.3 0.2 0.6 0.3 0.9 l 0.1 0.2 l 0 0 l 0 0.1 l 0 0 l 0 0 l 0 0.1 l 0.2 0.4 c 0.1 0.3 0.3 0.6 0.5 0.9 c 0.3 0.6 0.7 1.1 1.1 1.6 c 1.6 2 3.9 3.2 6.2 3.6 C 25.7 43.4 24 31 24 31 z" stroke-linecap="round" />
</g>
<g transform="matrix(4.17 0 0 4.17 176.55 180.54)" id="surface1"  >
<path style="stroke: none; stroke-width: 1; stroke-dasharray: none; stroke-linecap: butt; stroke-dashoffset: 0; stroke-linejoin: miter; stroke-miterlimit: 4; fill: rgb(255,235,59); fill-rule: nonzero; opacity: 1;"  transform=" translate(-18.37, -19.33)" d="M 20.4 20.9 c 1 -1 -0.8 -0.8 -1.8 -1.8 c -1 -1 -0.8 -2.8 -1.8 -1.8 c -1 1 -1 2.6 0 3.6 S 19.4 21.9 20.4 20.9 z" stroke-linecap="round" />
</g>
<g transform="matrix(4.17 0 0 4.17 221.78 180.12)" id="surface1"  >
<path style="stroke: none; stroke-width: 1; stroke-dasharray: none; stroke-linecap: butt; stroke-dashoffset: 0; stroke-linejoin: miter; stroke-miterlimit: 4; fill: rgb(255,235,59); fill-rule: nonzero; opacity: 1;"  transform=" translate(-29.23, -19.23)" d="M 27.1 20.9 C 26 19.9 27.9 20.1 29 19 s 0.9 -3 1.9 -1.9 s 1.1 2.8 0 3.8 S 28.1 22 27.1 20.9 z" stroke-linecap="round" />
</g>
<g transform="matrix(4.17 0 0 4.17 221.25 179.58)" id="surface1"  >
<path style="stroke: none; stroke-width: 1; stroke-dasharray: none; stroke-linecap: butt; stroke-dashoffset: 0; stroke-linejoin: miter; stroke-miterlimit: 4; fill: rgb(38,50,56); fill-rule: nonzero; opacity: 1;"  transform=" translate(-29.1, -19.1)" d="M 28.2 19.6 c 0.2 0.3 0.5 0.4 0.8 0.4 c 0.6 0 1 -0.4 1 -1 c 0 -0.3 -0.2 -0.6 -0.4 -0.8 c -0.1 0.3 -0.3 0.6 -0.6 0.8 C 28.8 19.2 28.5 19.4 28.2 19.6 z" stroke-linecap="round" />
</g>
<g transform="matrix(4.17 0 0 4.17 177.08 180.42)" id="surface1"  >
<path style="stroke: none; stroke-width: 1; stroke-dasharray: none; stroke-linecap: butt; stroke-dashoffset: 0; stroke-linejoin: miter; stroke-miterlimit: 4; fill: rgb(38,50,56); fill-rule: nonzero; opacity: 1;"  transform=" translate(-18.5, -19.3)" d="M 19.4 19.7 c -0.3 -0.1 -0.6 -0.3 -0.8 -0.5 c -0.2 -0.2 -0.4 -0.5 -0.5 -0.8 c -0.3 0.2 -0.5 0.5 -0.5 0.8 c 0 0.6 0.4 1 1 1 C 18.9 20.1 19.2 19.9 19.4 19.7 z" stroke-linecap="round" />
</g>
<g transform="matrix(4.17 0 0 4.17 221.67 253.75)" id="surface1"  >
<path style="stroke: none; stroke-width: 1; stroke-dasharray: none; stroke-linecap: butt; stroke-dashoffset: 0; stroke-linejoin: miter; stroke-miterlimit: 4; fill: rgb(255,128,171); fill-rule: nonzero; opacity: 1;"  transform=" translate(-29.2, -36.9)" d="M 29.2 36.9 C 29.2 36.9 29.2 36.9 29.2 36.9 C 29.2 36.9 29.2 36.9 29.2 36.9 z" stroke-linecap="round" />
</g>
<g transform="matrix(4.17 0 0 4.17 248.13 248.69)" id="surface1"  >
<path style="stroke: none; stroke-width: 1; stroke-dasharray: none; stroke-linecap: butt; stroke-dashoffset: 0; stroke-linejoin: miter; stroke-miterlimit: 4; fill: rgb(255,128,171); fill-rule: nonzero; opacity: 1;"  transform=" translate(-35.55, -35.69)" d="M 29.2 35.1 c 0 0.5 0 1.1 0 1.6 l 0 0.2 v 0 c 0 0.1 0 0.1 0.1 0.2 c 8.1 3.9 12.4 -3.1 12.6 -4 C 36.8 39.7 30.3 35.9 29.2 35.1 z" stroke-linecap="round" />
</g>
<g transform="matrix(4.17 0 0 4.17 151.88 248.64)" id="surface1"  >
<path style="stroke: none; stroke-width: 1; stroke-dasharray: none; stroke-linecap: butt; stroke-dashoffset: 0; stroke-linejoin: miter; stroke-miterlimit: 4; fill: rgb(255,128,171); fill-rule: nonzero; opacity: 1;"  transform=" translate(-12.45, -35.67)" d="M 18.8 37.1 C 18.8 37.1 18.8 37.1 18.8 37.1 C 18.8 37.1 18.8 37.1 18.8 37.1 l 0 -0.1 l 0 -0.1 l 0 0 v 0 c 0 -0.1 0 0.1 0 0.1 v 0 l 0 -0.2 c 0 -0.5 0 -1 0 -1.6 c -1.3 0.8 -7.6 4.3 -12.7 -2 C 9.1 39.5 16.2 38.5 18.8 37.1 z" stroke-linecap="round" />
</g>
</svg>