<?xml version="1.0" encoding="UTF-8" standalone="no" ?>
<!DOCTYPE svg PUBLIC "-//W3C//DTD SVG 1.1//EN" "http://www.w3.org/Graphics/SVG/1.1/DTD/svg11.dtd">
<svg xmlns="http://www.w3.org/2000/svg" xmlns:xlink="http://www.w3.org/1999/xlink" version="1.1" width="400" height="400" viewBox="0 0 400 400" xml:space="preserve">
<desc>Created with Fabric.js 3.6.2</desc>
<defs>
</defs>
<g transform="matrix(4.17 0 0 4.17 245.05 190.46)" id="surface1"  >
<path style="stroke: none; stroke-width: 1; stroke-dasharray: none; stroke-linecap: butt; stroke-dashoffset: 0; stroke-linejoin: miter; stroke-miterlimit: 4; fill: rgb(139,195,74); fill-rule: nonzero; opacity: 1;"  transform=" translate(-34.81, -21.71)" d="M 26.6 31.4 c -2.2 0 -4 -1.8 -4 -4 c 0 -2.2 1.8 -3.9 4 -4 C 33 23 37.3 22 38.7 15.6 c 0.9 -4.3 4.8 -3.7 6.9 -3.3 c 2.2 0.4 1.3 2.5 0.9 4.7 C 44.9 26.5 40 31 26.6 31.4 z" stroke-linecap="round" />
</g>
<g transform="matrix(4.17 0 0 4.17 117.92 221.04)" id="surface1"  >
<path style="stroke: none; stroke-width: 1; stroke-dasharray: none; stroke-linecap: butt; stroke-dashoffset: 0; stroke-linejoin: miter; stroke-miterlimit: 4; fill: rgb(139,195,74); fill-rule: nonzero; opacity: 1;"  transform=" translate(-4.3, -29.05)" d="M 7.5 27.3 c -0.3 0.8 -0.7 1.4 -1.1 2.1 c -0.4 0.6 -0.9 1.2 -1.5 1.8 C 3.8 32.2 2.4 32.9 1 33 c 1.3 -0.6 2.2 -1.6 2.7 -2.7 c 0.3 -0.6 0.5 -1.2 0.6 -1.8 c 0.1 -0.6 0.2 -1.3 0.2 -1.8 c 0 -0.9 0.6 -1.6 1.5 -1.6 c 0.8 0 1.6 0.6 1.6 1.5 c 0 0.2 0 0.4 -0.1 0.6 L 7.5 27.3 z" stroke-linecap="round" />
</g>
<g transform="matrix(4.17 0 0 4.17 183.96 231.25)" id="surface1"  >
<path style="stroke: none; stroke-width: 1; stroke-dasharray: none; stroke-linecap: butt; stroke-dashoffset: 0; stroke-linejoin: miter; stroke-miterlimit: 4; fill: rgb(192,202,51); fill-rule: nonzero; opacity: 1;"  transform=" translate(-20.15, -31.5)" d="M 6 30 c 0 1.7 1.3 3 3 3 h 22 c 1.7 0 3 -1.2 3.3 -3 H 6 z" stroke-linecap="round" />
</g>
<g transform="matrix(4.17 0 0 4.17 275 162.5)" id="surface1"  >
<path style="stroke: none; stroke-width: 1; stroke-dasharray: none; stroke-linecap: butt; stroke-dashoffset: 0; stroke-linejoin: miter; stroke-miterlimit: 4; fill: rgb(85,139,47); fill-rule: nonzero; opacity: 1;"  transform=" translate(-42, -15)" d="M 44 15 c 0 1.1 -0.9 2 -2 2 s -2 -0.9 -2 -2 s 0.9 -2 2 -2 S 44 13.9 44 15 z" stroke-linecap="round" />
</g>
<g transform="matrix(4.17 0 0 4.17 218.75 233.33)" id="surface1"  >
<path style="stroke: none; stroke-width: 1; stroke-dasharray: none; stroke-linecap: butt; stroke-dashoffset: 0; stroke-linejoin: miter; stroke-miterlimit: 4; fill: rgb(85,139,47); fill-rule: nonzero; opacity: 1;"  transform=" translate(-28.5, -32)" d="M 30 38 c -0.4 0 -0.8 -0.1 -1.2 -0.4 c -0.9 -0.7 -1.1 -1.9 -0.4 -2.8 c 0.8 -1 1.9 -2.9 2.4 -4.5 C 29.2 30.1 26.4 30 24 30 c -1.1 0 -2 -0.9 -2 -2 s 0.9 -2 2 -2 c 9.5 0 11 0.9 11 3 c 0 3.6 -3.1 7.7 -3.4 8.2 C 31.2 37.7 30.6 38 30 38 z M 31.9 30.5 L 31.9 30.5 L 31.9 30.5 z" stroke-linecap="round" />
</g>
<g transform="matrix(4.17 0 0 4.17 145.63 233.3)" id="surface1"  >
<path style="stroke: none; stroke-width: 1; stroke-dasharray: none; stroke-linecap: butt; stroke-dashoffset: 0; stroke-linejoin: miter; stroke-miterlimit: 4; fill: rgb(85,139,47); fill-rule: nonzero; opacity: 1;"  transform=" translate(-10.95, -31.99)" d="M 15 38 c -8.5 0 -9.9 -5.3 -9.9 -5.5 l -0.2 -0.7 l 2.3 -4.7 c 0.5 -1 1.7 -1.4 2.7 -0.9 c 1 0.5 1.4 1.7 0.9 2.7 L 9.2 32 c 0.5 0.7 2 2 5.8 2 c 1.1 0 2 0.9 2 2 S 16.1 38 15 38 z" stroke-linecap="round" />
</g>
<g transform="matrix(4.17 0 0 4.17 181.88 183.33)" id="surface1"  >
<path style="stroke: none; stroke-width: 1; stroke-dasharray: none; stroke-linecap: butt; stroke-dashoffset: 0; stroke-linejoin: miter; stroke-miterlimit: 4; fill: rgb(121,85,72); fill-rule: nonzero; opacity: 1;"  transform=" translate(-19.65, -20)" d="M 24 30 l 0.7 -0.2 c 4.4 -1.9 8.1 -4.8 10.6 -8.4 C 33.3 14.8 27.2 10 20 10 c -8.8 0 -16 7.2 -16 16 v 1 l 6 3 H 24 z" stroke-linecap="round" />
</g>
<g transform="matrix(4.17 0 0 4.17 178.54 172.92)" id="surface1"  >
<path style="stroke: none; stroke-width: 1; stroke-dasharray: none; stroke-linecap: butt; stroke-dashoffset: 0; stroke-linejoin: miter; stroke-miterlimit: 4; fill: rgb(141,110,99); fill-rule: nonzero; opacity: 1;"  transform=" translate(-18.85, -17.5)" d="M 20 10 c -7.4 0 -13.6 5 -15.4 11.8 L 9 24 l 6 1 h 6 l 5 -2 l 4 -3 l 3.1 -3.1 C 30.2 12.7 25.4 10 20 10 z" stroke-linecap="round" />
</g>
<g transform="matrix(4.17 0 0 4.17 179.38 176.25)" id="surface1"  >
<path style="stroke: none; stroke-width: 1; stroke-dasharray: none; stroke-linecap: butt; stroke-dashoffset: 0; stroke-linejoin: miter; stroke-miterlimit: 4; fill: rgb(93,64,55); fill-rule: nonzero; opacity: 1;"  transform=" translate(-19.05, -18.3)" d="M 32.5 16.1 l -2.5 2.5 l -4.9 -5.7 l 0.8 -1.7 c -0.6 -0.2 -1.3 -0.5 -1.9 -0.6 l -0.8 1.9 l -4.5 3.6 l -5.2 -0.9 l -2.4 -2.4 c -0.6 0.4 -1.1 0.8 -1.6 1.2 l 2.3 2.3 l -3.2 6.5 l -3.7 -1.8 c -0.2 0.6 -0.4 1.3 -0.5 2 l 4.2 2.1 c 0.1 0 0.1 0 0.1 0 S 8.8 25 8.8 25 l 6 1 c 0.1 0 0.1 0 0.2 0 h 6 c 0.1 0 0.3 0 0.4 -0.1 l 5 -2 c 0.1 0 0.2 -0.1 0.2 -0.1 l 4 -3 c 0 0 0 0 0 -0.1 c 0 0 0 0 0.1 0 l 3 -3 C 33.3 17.1 32.9 16.6 32.5 16.1 z M 15.1 24 l -4.6 -0.8 l 3.1 -6.1 l 4.6 0.8 l 1.5 6.1 H 15.1 z M 25.5 22.1 l -3.8 1.5 l -1.6 -6.3 l 3.7 -3 l 4.7 5.5 L 25.5 22.1 z" stroke-linecap="round" />
</g>
<g transform="matrix(4.17 0 0 4.17 178.96 196.04)" id="surface1"  >
<path style="stroke: none; stroke-width: 1; stroke-dasharray: none; stroke-linecap: butt; stroke-dashoffset: 0; stroke-linejoin: miter; stroke-miterlimit: 4; fill: rgb(78,52,46); fill-rule: nonzero; opacity: 1;"  transform=" translate(-18.95, -23.05)" d="M 28.3 25.8 l -1.1 -2.4 l 2.5 -1.9 l 2.4 3.6 c 0.5 -0.5 1 -1 1.4 -1.5 l -2.3 -3.4 l 2.4 -2.4 c -0.4 -0.6 -0.7 -1.1 -1.2 -1.7 l -3.2 3.2 l -3.8 2.9 L 20.8 24 h -5.7 l -5.8 -1 l -4.4 -2.2 c -0.2 0.6 -0.4 1.3 -0.6 2 l 3.5 1.8 l -1 3.9 l 2 1 l 0.9 -4.3 l 4.2 0.7 V 30 h 2 v -4 h 4.1 l 0.4 4 h 2 l -0.5 -4.4 l 3.4 -1.4 l 1.9 4.2 c 0.6 -0.3 1.2 -0.7 1.7 -1 L 28.3 25.8 z" stroke-linecap="round" />
</g>
<g transform="matrix(4.17 0 0 4.17 277.5 160)" id="surface1"  >
<path style="stroke: none; stroke-width: 1; stroke-dasharray: none; stroke-linecap: butt; stroke-dashoffset: 0; stroke-linejoin: miter; stroke-miterlimit: 4; fill: rgb(0,0,0); fill-rule: nonzero; opacity: 1;"  transform=" translate(-42.6, -14.4)" d="M 43.6 14.4 c 0 0.6 -0.4 1 -1 1 c -0.6 0 -1 -0.4 -1 -1 c 0 -0.6 0.4 -1 1 -1 C 43.2 13.4 43.6 13.8 43.6 14.4 z" stroke-linecap="round" />
</g>
</svg>