<?xml version="1.0" encoding="UTF-8" standalone="no" ?>
<!DOCTYPE svg PUBLIC "-//W3C//DTD SVG 1.1//EN" "http://www.w3.org/Graphics/SVG/1.1/DTD/svg11.dtd">
<svg xmlns="http://www.w3.org/2000/svg" xmlns:xlink="http://www.w3.org/1999/xlink" version="1.1" width="400" height="400" viewBox="0 0 400 400" xml:space="preserve">
<desc>Created with Fabric.js 3.6.2</desc>
<defs>
</defs>
<g transform="matrix(1.33 0 0 1.33 200 196.15)" id="ART"  >
<path style="stroke: rgb(0,0,0); stroke-width: 4; stroke-dasharray: none; stroke-linecap: round; stroke-dashoffset: 0; stroke-linejoin: miter; stroke-miterlimit: 10; fill: rgb(9,128,170); fill-rule: nonzero; opacity: 1;"  transform=" translate(-75, -72.11)" d="M 76.33 137.56 c -0.44 0 -0.89 0 -1.33 0 s -0.89 0 -1.33 0 c -37.34 0 -62.68 -23 -60.23 -51.56 c 3 -35 22 -79.33 60.23 -79.33 h 2.66 C 114.56 6.67 133.56 51 136.56 86 C 139 114.6 113.67 137.56 76.33 137.56 Z" stroke-linecap="round" />
</g>
<g transform="matrix(1.33 0 0 1.33 201.76 216.14)" id="ART"  >
<path style="stroke: none; stroke-width: 1; stroke-dasharray: none; stroke-linecap: butt; stroke-dashoffset: 0; stroke-linejoin: miter; stroke-miterlimit: 4; fill: rgb(8,58,71); fill-rule: nonzero; opacity: 1;"  transform=" translate(-76.32, -87.1)" d="M 106.32 97.27 c 2.73 28.35 -11.62 19.09 -30 19.09 s -32.72 9.27 -30 -19.09 c 2.31 -24 6.17 -40.87 30 -40.87 S 104 73.29 106.32 97.27 Z" stroke-linecap="round" />
</g>
<g transform="matrix(1.33 0 0 1.33 201.77 261.34)" id="ART"  >
<path style="stroke: rgb(0,0,0); stroke-width: 4; stroke-dasharray: none; stroke-linecap: round; stroke-dashoffset: 0; stroke-linejoin: miter; stroke-miterlimit: 10; fill: rgb(115,187,216); fill-rule: nonzero; opacity: 1;"  transform=" translate(-76.33, -121.01)" d="M 106.49 103.51 c 2.91 15 -11.58 39.83 -30.16 39.83 s -33.07 -24.85 -30.16 -39.83 c 2.44 -12.55 6.37 3.28 30.16 3.28 S 104.06 91 106.49 103.51 Z" stroke-linecap="round" />
</g>
<g transform="matrix(1.33 0 0 1.33 201.77 190.19)" id="ART"  >
<path style="stroke: rgb(0,0,0); stroke-width: 4; stroke-dasharray: none; stroke-linecap: round; stroke-dashoffset: 0; stroke-linejoin: miter; stroke-miterlimit: 10; fill: rgb(115,187,216); fill-rule: nonzero; opacity: 1;"  transform=" translate(-76.33, -67.65)" d="M 106.65 92.91 c 4 46 -13.93 -7.4 -30.32 -7.4 S 42 138.92 46 92.91 C 49.17 56.5 54.1 23.69 76.33 23.69 S 103.49 56.5 106.65 92.91 Z" stroke-linecap="round" />
</g>
<g transform="matrix(0.35 -1.29 1.29 0.35 154.05 159.19)" id="ART"  >
<ellipse style="stroke: rgb(0,0,0); stroke-width: 2; stroke-dasharray: none; stroke-linecap: round; stroke-dashoffset: 0; stroke-linejoin: miter; stroke-miterlimit: 10; fill: rgb(134,217,226); fill-rule: nonzero; opacity: 1;"  cx="0" cy="0" rx="15.79" ry="9.86" />
</g>
<g transform="matrix(0.35 -1.29 1.29 0.35 155.4 163.19)" id="ART"  >
<ellipse style="stroke: none; stroke-width: 1; stroke-dasharray: none; stroke-linecap: butt; stroke-dashoffset: 0; stroke-linejoin: miter; stroke-miterlimit: 4; fill: rgb(0,0,0); fill-rule: nonzero; opacity: 1;"  cx="0" cy="0" rx="11.05" ry="6.9" />
</g>
<g transform="matrix(1.29 -0.35 0.35 1.29 250.17 159.25)" id="ART"  >
<ellipse style="stroke: rgb(0,0,0); stroke-width: 2; stroke-dasharray: none; stroke-linecap: round; stroke-dashoffset: 0; stroke-linejoin: miter; stroke-miterlimit: 10; fill: rgb(134,217,226); fill-rule: nonzero; opacity: 1;"  cx="0" cy="0" rx="9.86" ry="15.79" />
</g>
<g transform="matrix(1.29 -0.35 0.35 1.29 248.16 163.19)" id="ART"  >
<ellipse style="stroke: none; stroke-width: 1; stroke-dasharray: none; stroke-linecap: butt; stroke-dashoffset: 0; stroke-linejoin: miter; stroke-miterlimit: 4; fill: rgb(0,0,0); fill-rule: nonzero; opacity: 1;"  cx="0" cy="0" rx="6.9" ry="11.05" />
</g>
<g transform="matrix(0.29 -1.3 1.3 0.29 258.69 242.5)" id="ART"  >
<ellipse style="stroke: none; stroke-width: 1; stroke-dasharray: none; stroke-linecap: butt; stroke-dashoffset: 0; stroke-linejoin: miter; stroke-miterlimit: 4; fill: rgb(13,95,117); fill-rule: nonzero; opacity: 1;"  cx="0" cy="0" rx="5.44" ry="2.69" />
</g>
<g transform="matrix(1.33 -0.03 0.03 1.33 269.35 225.83)" id="ART"  >
<ellipse style="stroke: none; stroke-width: 1; stroke-dasharray: none; stroke-linecap: butt; stroke-dashoffset: 0; stroke-linejoin: miter; stroke-miterlimit: 4; fill: rgb(13,95,117); fill-rule: nonzero; opacity: 1;"  cx="0" cy="0" rx="2.14" ry="4.34" />
</g>
<g transform="matrix(1.26 -0.44 0.44 1.26 255.53 221.34)" id="ART"  >
<ellipse style="stroke: none; stroke-width: 1; stroke-dasharray: none; stroke-linecap: butt; stroke-dashoffset: 0; stroke-linejoin: miter; stroke-miterlimit: 4; fill: rgb(13,95,117); fill-rule: nonzero; opacity: 1;"  cx="0" cy="0" rx="2.14" ry="3.48" />
</g>
<g transform="matrix(1.3 -0.29 0.29 1.3 141.25 242.52)" id="ART"  >
<ellipse style="stroke: none; stroke-width: 1; stroke-dasharray: none; stroke-linecap: butt; stroke-dashoffset: 0; stroke-linejoin: miter; stroke-miterlimit: 4; fill: rgb(13,95,117); fill-rule: nonzero; opacity: 1;"  cx="0" cy="0" rx="2.68" ry="5.42" />
</g>
<g transform="matrix(0.03 -1.33 1.33 0.03 130.62 225.91)" id="ART"  >
<ellipse style="stroke: none; stroke-width: 1; stroke-dasharray: none; stroke-linecap: butt; stroke-dashoffset: 0; stroke-linejoin: miter; stroke-miterlimit: 4; fill: rgb(13,95,117); fill-rule: nonzero; opacity: 1;"  cx="0" cy="0" rx="4.32" ry="2.14" />
</g>
<g transform="matrix(0.44 -1.26 1.26 0.44 144.46 221.33)" id="ART"  >
<ellipse style="stroke: none; stroke-width: 1; stroke-dasharray: none; stroke-linecap: butt; stroke-dashoffset: 0; stroke-linejoin: miter; stroke-miterlimit: 4; fill: rgb(13,95,117); fill-rule: nonzero; opacity: 1;"  cx="0" cy="0" rx="3.48" ry="2.14" />
</g>
<g transform="matrix(1.33 0 0 1.33 194.43 151.59)" id="ART"  >
<path style="stroke: none; stroke-width: 1; stroke-dasharray: none; stroke-linecap: butt; stroke-dashoffset: 0; stroke-linejoin: miter; stroke-miterlimit: 4; fill: rgb(0,0,0); fill-rule: nonzero; opacity: 1;"  transform=" translate(-70.82, -38.69)" d="M 75 39.3 c -0.65 3.68 -2.72 6.4 -4.62 6.07 s -4.47 -0.45 -3.82 -4.14 S 70.8 31.68 72.7 32 S 75.62 35.61 75 39.3 Z" stroke-linecap="round" />
</g>
<g transform="matrix(1.33 0 0 1.33 209.17 151.59)" id="ART"  >
<path style="stroke: none; stroke-width: 1; stroke-dasharray: none; stroke-linecap: butt; stroke-dashoffset: 0; stroke-linejoin: miter; stroke-miterlimit: 4; fill: rgb(0,0,0); fill-rule: nonzero; opacity: 1;"  transform=" translate(-81.88, -38.69)" d="M 77.7 39.3 c 0.65 3.68 2.72 6.4 4.62 6.07 s 4.47 -0.45 3.82 -4.14 S 81.87 31.68 80 32 S 77.05 35.61 77.7 39.3 Z" stroke-linecap="round" />
</g>
</svg>