<?xml version="1.0" encoding="UTF-8" standalone="no" ?>
<!DOCTYPE svg PUBLIC "-//W3C//DTD SVG 1.1//EN" "http://www.w3.org/Graphics/SVG/1.1/DTD/svg11.dtd">
<svg xmlns="http://www.w3.org/2000/svg" xmlns:xlink="http://www.w3.org/1999/xlink" version="1.1" width="400" height="400" viewBox="0 0 400 400" xml:space="preserve">
<desc>Created with Fabric.js 3.6.2</desc>
<defs>
</defs>
<g transform="matrix(1.33 0 0 1.33 241.13 141.63)" id="_Path_"  >
<path style="stroke: rgb(0,0,0); stroke-width: 4; stroke-dasharray: none; stroke-linecap: butt; stroke-dashoffset: 0; stroke-linejoin: miter; stroke-miterlimit: 10; fill: rgb(145,89,44); fill-rule: nonzero; opacity: 1;"  transform=" translate(-105.85, -31.22)" d="M 95.88 56.62 c -5.17 -19.28 0.43 -46.89 16.28 -50.8 C 126.95 30 108.8 45.68 95.88 56.62 Z" stroke-linecap="round" />
</g>
<g transform="matrix(1.33 0 0 1.33 247.08 135.91)" id="ART"  >
<path style="stroke: none; stroke-width: 1; stroke-dasharray: none; stroke-linecap: butt; stroke-dashoffset: 0; stroke-linejoin: miter; stroke-miterlimit: 4; fill: rgb(145,89,44); fill-rule: nonzero; opacity: 1;"  transform=" translate(-110.31, -26.93)" d="M 104.94 45.68 c 3.38 -10.35 6.65 -23.42 6.06 -37.4 l 0.24 -0.09 C 120.42 24.35 113.93 36.32 104.94 45.68 Z" stroke-linecap="round" />
</g>
<g transform="matrix(1.33 0 0 1.33 158.87 141.63)" id="_Path_2"  >
<path style="stroke: rgb(0,0,0); stroke-width: 4; stroke-dasharray: none; stroke-linecap: butt; stroke-dashoffset: 0; stroke-linejoin: miter; stroke-miterlimit: 10; fill: rgb(145,89,44); fill-rule: nonzero; opacity: 1;"  transform=" translate(-44.15, -31.22)" d="M 54.12 56.62 c 5.17 -19.28 -0.43 -46.89 -16.28 -50.8 C 23.05 30 41.2 45.68 54.12 56.62 Z" stroke-linecap="round" />
</g>
<g transform="matrix(1.33 0 0 1.33 152.91 135.91)" id="ART"  >
<path style="stroke: none; stroke-width: 1; stroke-dasharray: none; stroke-linecap: butt; stroke-dashoffset: 0; stroke-linejoin: miter; stroke-miterlimit: 4; fill: rgb(145,89,44); fill-rule: nonzero; opacity: 1;"  transform=" translate(-39.69, -26.93)" d="M 45.06 45.68 c -9 -9.36 -15.48 -21.33 -6.3 -37.49 l 0.24 0.09 C 38.41 22.26 41.68 35.33 45.06 45.68 Z" stroke-linecap="round" />
</g>
<g transform="matrix(1.33 0 0 1.33 152.91 135.91)" id="ART"  >
<path style="stroke: none; stroke-width: 1; stroke-dasharray: none; stroke-linecap: butt; stroke-dashoffset: 0; stroke-linejoin: miter; stroke-miterlimit: 4; fill: rgb(104,48,35); fill-rule: nonzero; opacity: 1;"  transform=" translate(-39.69, -26.93)" d="M 45.06 45.68 c -9 -9.36 -15.48 -21.33 -6.3 -37.49 l 0.24 0.09 C 38.41 22.26 41.68 35.33 45.06 45.68 Z" stroke-linecap="round" />
</g>
<g transform="matrix(1.33 0 0 1.33 247.08 135.91)" id="ART"  >
<path style="stroke: none; stroke-width: 1; stroke-dasharray: none; stroke-linecap: butt; stroke-dashoffset: 0; stroke-linejoin: miter; stroke-miterlimit: 4; fill: rgb(104,48,35); fill-rule: nonzero; opacity: 1;"  transform=" translate(-110.31, -26.93)" d="M 104.94 45.68 c 3.38 -10.35 6.65 -23.42 6.06 -37.4 l 0.24 -0.09 C 120.42 24.35 113.93 36.32 104.94 45.68 Z" stroke-linecap="round" />
</g>
<g transform="matrix(1.33 0 0 1.33 200 208.48)" id="_Path_3"  >
<path style="stroke: rgb(0,0,0); stroke-width: 4; stroke-dasharray: none; stroke-linecap: butt; stroke-dashoffset: 0; stroke-linejoin: miter; stroke-miterlimit: 10; fill: rgb(145,89,44); fill-rule: nonzero; opacity: 1;"  transform=" translate(-75, -81.36)" d="M 110.09 65.15 c 0 11.09 -7.61 29 -8.3 42.25 C 100.91 124.62 84.66 138 75 138 S 49.09 124.62 48.21 107.4 c -0.69 -13.26 -8.3 -31.16 -8.3 -42.25 C 39.91 46 55.62 24.72 75 24.72 S 110.09 46 110.09 65.15 Z" stroke-linecap="round" />
</g>
<g transform="matrix(1.33 0 0 1.33 200 266.18)" id="ART"  >
<path style="stroke: rgb(0,0,0); stroke-width: 2; stroke-dasharray: none; stroke-linecap: butt; stroke-dashoffset: 0; stroke-linejoin: miter; stroke-miterlimit: 10; fill: rgb(40,22,20); fill-rule: nonzero; opacity: 1;"  transform=" translate(-75, -124.63)" d="M 94.94 127.3 c 0 9.92 -9.58 18.17 -19.94 18.17 s -19.94 -8.26 -19.94 -18.17 s 9.58 -23.5 19.94 -23.5 S 94.94 117.38 94.94 127.3 Z" stroke-linecap="round" />
</g>
<g transform="matrix(1.33 0 0 1.33 200.21 147.98)" id="ART"  >
<path style="stroke: rgb(0,0,0); stroke-width: 2; stroke-dasharray: none; stroke-linecap: butt; stroke-dashoffset: 0; stroke-linejoin: miter; stroke-miterlimit: 20; fill: rgb(109,55,34); fill-rule: nonzero; opacity: 1;"  transform=" translate(-75.16, -35.99)" d="M 75 21.22 a 28.07 28.07 0 0 1 9.41 1.47 c 8.73 3.79 6.86 13.85 4.91 19.41 C 79.24 37 77.06 38.63 83 50.76 c -23.5 -3 -29.34 -22.93 -18.14 -27.73 C 67.42 21.93 69.75 21.22 75 21.22 Z" stroke-linecap="round" />
</g>
<g transform="matrix(1.33 0 0 1.33 231.63 230.43)" id="ART"  >
<path style="stroke: none; stroke-width: 1; stroke-dasharray: none; stroke-linecap: butt; stroke-dashoffset: 0; stroke-linejoin: miter; stroke-miterlimit: 4; fill: rgb(104,48,35); fill-rule: nonzero; opacity: 1;"  transform=" translate(-98.72, -97.82)" d="M 108 67.16 c -0.38 5.06 -2 11.37 -3.8 18 c -2 7.55 -4.06 15.36 -4.42 22.13 c -0.44 8.64 -5 16.06 -10.34 21.2 C 91.52 106.56 98.82 76.31 108 67.16 Z" stroke-linecap="round" />
</g>
<g transform="matrix(1.33 0 0 1.33 168.36 230.45)" id="ART"  >
<path style="stroke: none; stroke-width: 1; stroke-dasharray: none; stroke-linecap: butt; stroke-dashoffset: 0; stroke-linejoin: miter; stroke-miterlimit: 4; fill: rgb(104,48,35); fill-rule: nonzero; opacity: 1;"  transform=" translate(-51.27, -97.84)" d="M 60.55 128.5 c -5.37 -5.14 -9.9 -12.56 -10.34 -21.2 c -0.36 -6.77 -2.42 -14.58 -4.42 -22.12 c -1.75 -6.65 -3.42 -13 -3.8 -18 C 51.18 76.31 58.48 106.56 60.55 128.5 Z" stroke-linecap="round" />
</g>
<g transform="matrix(1.33 0 0 1.33 168.37 230.44)" id="ART"  >
<path style="stroke: none; stroke-width: 1; stroke-dasharray: none; stroke-linecap: butt; stroke-dashoffset: 0; stroke-linejoin: miter; stroke-miterlimit: 4; fill: rgb(104,48,35); fill-rule: nonzero; opacity: 1;"  transform=" translate(-51.28, -97.83)" d="M 42 67.16 c 9.19 9.15 16.49 39.4 18.56 61.34 c -5.37 -5.14 -9.9 -12.56 -10.34 -21.2 c -0.36 -6.77 -2.42 -14.58 -4.42 -22.12 C 44 78.53 42.37 72.22 42 67.16 Z" stroke-linecap="round" />
</g>
<g transform="matrix(1.33 0 0 1.33 231.63 230.43)" id="ART"  >
<path style="stroke: none; stroke-width: 1; stroke-dasharray: none; stroke-linecap: butt; stroke-dashoffset: 0; stroke-linejoin: miter; stroke-miterlimit: 4; fill: rgb(104,48,35); fill-rule: nonzero; opacity: 1;"  transform=" translate(-98.72, -97.82)" d="M 108 67.16 c -0.38 5.06 -2 11.37 -3.8 18 c -2 7.55 -4.06 15.36 -4.42 22.13 c -0.44 8.64 -5 16.06 -10.34 21.2 C 91.52 106.56 98.82 76.31 108 67.16 Z" stroke-linecap="round" />
</g>
<g transform="matrix(1.33 0 0 1.33 200 255.75)" id="ART"  >
<path style="stroke: rgb(0,0,0); stroke-width: 4; stroke-dasharray: none; stroke-linecap: butt; stroke-dashoffset: 0; stroke-linejoin: miter; stroke-miterlimit: 10; fill: rgb(94,55,48); fill-rule: nonzero; opacity: 1;"  transform=" translate(-75, -116.81)" d="M 97.26 115.9 c 0 10.77 -10.7 22.82 -22.26 22.82 s -22.26 -12 -22.26 -22.82 s 10.7 -21 22.26 -21 S 97.26 105.13 97.26 115.9 Z" stroke-linecap="round" />
</g>
<g transform="matrix(1.29 -0.35 0.35 1.29 187.57 247.06)" id="ART"  >
<ellipse style="stroke: none; stroke-width: 1; stroke-dasharray: none; stroke-linecap: butt; stroke-dashoffset: 0; stroke-linejoin: miter; stroke-miterlimit: 4; fill: rgb(0,0,0); fill-rule: nonzero; opacity: 1;"  cx="0" cy="0" rx="4.03" ry="5.8" />
</g>
<g transform="matrix(0.35 -1.29 1.29 0.35 212.43 247.06)" id="ART"  >
<ellipse style="stroke: none; stroke-width: 1; stroke-dasharray: none; stroke-linecap: butt; stroke-dashoffset: 0; stroke-linejoin: miter; stroke-miterlimit: 4; fill: rgb(0,0,0); fill-rule: nonzero; opacity: 1;"  cx="0" cy="0" rx="5.8" ry="4.03" />
</g>
<g transform="matrix(1.33 0 0 1.33 230.92 196.61)" id="ART"  >
<path style="stroke: rgb(0,0,0); stroke-width: 2; stroke-dasharray: none; stroke-linecap: butt; stroke-dashoffset: 0; stroke-linejoin: miter; stroke-miterlimit: 10; fill: rgb(255,255,255); fill-rule: nonzero; opacity: 1;"  transform=" translate(-98.19, -72.45)" d="M 106.11 68.48 c 1.25 4.65 -0.44 9.9 -5.23 11.18 S 91.39 81 90.14 76.32 s 1.94 -8.67 6.19 -10.61 S 104.86 63.82 106.11 68.48 Z" stroke-linecap="round" />
</g>
<g transform="matrix(1.33 0 0 1.33 229.66 198.06)" id="ART"  >
<path style="stroke: none; stroke-width: 1; stroke-dasharray: none; stroke-linecap: butt; stroke-dashoffset: 0; stroke-linejoin: miter; stroke-miterlimit: 4; fill: rgb(0,0,0); fill-rule: nonzero; opacity: 1;"  transform=" translate(-97.24, -73.54)" d="M 98.3 77.62 c -1.13 0.3 -4.89 1 -5.74 -2.12 c -0.68 -2.53 1.54 -4.73 4 -5.86 a 3.74 3.74 0 0 1 5.38 2.25 A 4.82 4.82 0 0 1 98.3 77.62 Z" stroke-linecap="round" />
</g>
<g transform="matrix(1.33 0 0 1.33 168.86 196.61)" id="ART"  >
<path style="stroke: rgb(0,0,0); stroke-width: 2; stroke-dasharray: none; stroke-linecap: butt; stroke-dashoffset: 0; stroke-linejoin: miter; stroke-miterlimit: 10; fill: rgb(255,255,255); fill-rule: nonzero; opacity: 1;"  transform=" translate(-51.64, -72.45)" d="M 43.72 68.48 c -1.25 4.65 0.44 9.9 5.23 11.18 S 58.44 81 59.69 76.32 s -1.94 -8.67 -6.19 -10.61 S 45 63.82 43.72 68.48 Z" stroke-linecap="round" />
</g>
<g transform="matrix(1.33 0 0 1.33 170.11 198.06)" id="ART"  >
<path style="stroke: none; stroke-width: 1; stroke-dasharray: none; stroke-linecap: butt; stroke-dashoffset: 0; stroke-linejoin: miter; stroke-miterlimit: 4; fill: rgb(0,0,0); fill-rule: nonzero; opacity: 1;"  transform=" translate(-52.59, -73.54)" d="M 51.53 77.62 c 1.13 0.3 4.89 1 5.74 -2.12 c 0.68 -2.53 -1.54 -4.73 -4 -5.86 a 3.74 3.74 0 0 0 -5.38 2.25 A 4.82 4.82 0 0 0 51.53 77.62 Z" stroke-linecap="round" />
</g>
</svg>