<?xml version="1.0" encoding="UTF-8" standalone="no" ?>
<!DOCTYPE svg PUBLIC "-//W3C//DTD SVG 1.1//EN" "http://www.w3.org/Graphics/SVG/1.1/DTD/svg11.dtd">
<svg xmlns="http://www.w3.org/2000/svg" xmlns:xlink="http://www.w3.org/1999/xlink" version="1.1" width="400" height="400" viewBox="0 0 400 400" xml:space="preserve">
<desc>Created with Fabric.js 3.6.2</desc>
<defs>
</defs>
<g transform="matrix(1.33 0 0 1.33 200.01 200)" id="_Path_"  >
<path style="stroke: rgb(0,0,0); stroke-width: 4; stroke-dasharray: none; stroke-linecap: butt; stroke-dashoffset: 0; stroke-linejoin: miter; stroke-miterlimit: 40; fill: rgb(237,179,64); fill-rule: nonzero; opacity: 1;"  transform=" translate(-75.01, -75)" d="M 137.43 81.5 s 5.31 23.07 1.13 32.59 l -3.32 -4.9 s -7.79 18.89 -18.75 19.18 l -0.29 -3.46 a 82.89 82.89 0 0 1 -82.4 0 l -0.29 3.46 c -11 -0.29 -18.75 -19.18 -18.75 -19.18 l -3.31 4.9 c -4.18 -9.52 1.13 -32.59 1.13 -32.59 s 0.31 -1.16 -4.74 0 A 97.52 97.52 0 0 1 21.67 47.29 C 17 36.83 14 17.29 16.5 14.77 c 2.28 -2.29 24.29 2 32.92 5.55 c 7.17 -4 13.65 -6.2 21 -6.2 c 0.87 0 3.81 3.57 4.63 3.57 s 3.76 -3.57 4.63 -3.57 c 7.3 0 13.78 2.22 21 6.2 c 8.64 -3.57 30.62 -7.84 32.91 -5.55 c 2.54 2.53 -0.48 22.06 -5.16 32.52 A 97.51 97.51 0 0 1 142.17 81.5 C 137.12 80.34 137.43 81.5 137.43 81.5 Z" stroke-linecap="round" />
</g>
<g transform="matrix(1.33 0 0 1.33 199.97 231.84)" id="ART"  >
<path style="stroke: none; stroke-width: 1; stroke-dasharray: none; stroke-linecap: butt; stroke-dashoffset: 0; stroke-linejoin: miter; stroke-miterlimit: 4; fill: rgb(211,211,211); fill-rule: nonzero; opacity: 1;"  transform=" translate(-74.98, -98.88)" d="M 138.7 79 c 0.27 0 0.58 0 0.9 0 c -0.21 -0.94 -0.44 -1.87 -0.69 -2.8 c -0.1 -0.41 -0.21 -0.81 -0.32 -1.22 c -0.18 -0.67 -0.37 -1.33 -0.57 -2 s -0.41 -1.33 -0.62 -2 c -0.16 -0.5 -0.33 -1 -0.5 -1.5 s -0.4 -1.16 -0.61 -1.74 l -0.07 -0.19 c -0.18 -0.51 -0.38 -1 -0.57 -1.52 c -0.06 -0.15 -0.11 -0.29 -0.17 -0.43 c -0.21 -0.55 -0.43 -1.09 -0.65 -1.63 l 0 -0.07 c -0.73 0.33 -1.67 0.71 -2.89 1.15 c -4.09 1.48 1.06 11.67 -3.47 26.43 l -0.3 0.94 a 17.57 17.57 0 0 1 -1.49 3.36 a 14.52 14.52 0 0 1 -6 5.74 a 16 16 0 0 1 -2.12 0.92 c -4.35 1.57 -9.35 1.53 -13.66 1.07 C 100.39 91.69 88.71 77.19 75 77.19 h 0 c -13.72 0 -25.4 14.5 -29.87 26.36 c -4.31 0.46 -9.3 0.5 -13.66 -1.07 a 16 16 0 0 1 -2.12 -0.92 a 14.65 14.65 0 0 1 -6 -5.74 a 18.22 18.22 0 0 1 -1.49 -3.36 l -0.3 -0.93 h 0 c -4.53 -14.76 0.62 -25 -3.47 -26.43 c -1.22 -0.44 -2.16 -0.82 -2.89 -1.15 c -0.44 1.08 -0.87 2.16 -1.27 3.25 c -0.18 0.48 -0.35 1 -0.52 1.45 s -0.3 0.86 -0.44 1.29 s -0.34 1 -0.49 1.48 s -0.4 1.26 -0.58 1.89 s -0.37 1.27 -0.54 1.9 c -0.35 1.27 -0.67 2.55 -1 3.83 c 0.33 0 0.63 0 0.91 0 a 3.45 3.45 0 0 1 2.8 1.09 A 2.22 2.22 0 0 1 14.53 82 s -0.06 0.24 -0.14 0.63 c 0 0.2 -0.09 0.44 -0.15 0.71 l -0.06 0.29 a 1.29 1.29 0 0 1 0 0.19 c -0.14 0.69 -0.3 1.55 -0.49 2.54 S 13.25 88.63 13 90 q -0.11 0.7 -0.21 1.44 a 2.34 2.34 0 0 0 0 0.26 c -0.07 0.48 -0.13 1 -0.19 1.46 s -0.11 0.86 -0.16 1.3 s -0.09 0.76 -0.13 1.15 a 56.64 56.64 0 0 0 -0.1 13.81 l 0 0 l 0.87 -1.28 L 15.19 105 l 1.42 3.44 l 0.19 0.45 c 0.13 0.31 0.28 0.64 0.44 1 l 0.29 0.6 c 0.35 0.73 0.76 1.52 1.22 2.36 a 0.47 0.47 0 0 0 0 0.1 s 0 0 0 0 l 0.31 0.53 c 0.24 0.44 0.51 0.89 0.79 1.34 c 0.4 0.68 0.84 1.36 1.31 2.05 c 0.15 0.23 0.3 0.46 0.47 0.68 l 0.87 1.2 a 29.66 29.66 0 0 0 3.69 4.1 l 0.42 0.37 c 0.18 0.15 0.35 0.3 0.54 0.44 s 0.25 0.21 0.38 0.3 a 5.58 5.58 0 0 0 0.49 0.36 a 11.75 11.75 0 0 0 1.19 0.75 l 0.46 0.25 l 0.64 0.31 h 0 a 6.59 6.59 0 0 0 0.62 0.24 q 0.33 0.12 0.66 0.21 l 0.11 -1.35 l 0.27 -3.33 l 2.81 1.82 S 36 124 38 125 l 0.48 0.25 l 0.6 0.3 c 0.15 0.06 0.3 0.14 0.45 0.21 h 0 c 0.92 0.44 2 0.92 3.12 1.42 l 0.25 0.11 l 1 0.39 l 1.27 0.51 l 1.18 0.45 c 1 0.36 2 0.72 3.08 1.08 l 2.09 0.66 l 1.09 0.32 c 0.74 0.21 1.49 0.41 2.27 0.61 l 1.17 0.29 c 0.79 0.19 1.6 0.37 2.43 0.55 l 1.25 0.25 c 0.42 0.09 0.84 0.17 1.27 0.24 l 1.3 0.22 l 0.88 0.14 l 1.08 0.15 c 0.69 0.1 1.38 0.18 2.09 0.26 l 1.13 0.11 l 0.49 0.05 l 1 0.08 q 2 0.16 4 0.21 c 0.67 0 1.35 0 2 0 s 1.36 0 2 0 a 78.82 78.82 0 0 0 8.38 -0.66 l 1.67 -0.24 c 1.38 -0.21 2.72 -0.45 4 -0.72 l 1.68 -0.36 l 1.84 -0.44 c 1.14 -0.28 2.24 -0.58 3.3 -0.89 c 2 -0.59 3.88 -1.22 5.58 -1.85 l 1.55 -0.59 l 0.23 -0.09 l 0.84 -0.34 q 1.23 -0.51 2.31 -1 l 0.08 0 l 1.92 -0.9 h 0 a 50.84 50.84 0 0 0 4.68 -2.51 l 2.79 -1.81 l 0.28 3.32 h 0 l 0.11 1.35 q 0.33 -0.09 0.66 -0.21 a 6.58 6.58 0 0 0 0.62 -0.24 h 0 l 0.58 -0.28 l 0.4 -0.21 l 0.43 -0.25 l 0.54 -0.34 l 0.39 -0.27 l 0.47 -0.35 c 0.25 -0.18 0.49 -0.38 0.73 -0.58 l 0.54 -0.47 l 0 0 l 0.56 -0.53 c 0.37 -0.36 0.74 -0.73 1.09 -1.12 A 35.22 35.22 0 0 0 128 118 c 0.22 -0.3 0.43 -0.61 0.64 -0.92 c 1 -1.41 1.83 -2.83 2.56 -4.16 c 0.62 -1.13 1.15 -2.18 1.58 -3.09 l 0.42 -0.95 l 0.19 -0.45 l 1.42 -3.44 l 2.09 3.08 l 0.9 1.32 c 1.61 -10.17 -2.27 -27.24 -2.3 -27.38 a 2.24 2.24 0 0 1 0.4 -1.94 A 3.45 3.45 0 0 1 138.7 79 Z" stroke-linecap="round" />
</g>
<g transform="matrix(1.33 0 0 1.33 131.88 235.18)" id="ART"  >
<path style="stroke: none; stroke-width: 1; stroke-dasharray: none; stroke-linecap: butt; stroke-dashoffset: 0; stroke-linejoin: miter; stroke-miterlimit: 4; fill: rgb(0,0,0); fill-rule: nonzero; opacity: 1;"  transform=" translate(-23.91, -101.38)" d="M 26.25 122.86 a 40.11 40.11 0 0 1 -7.44 -9.9 s 0 0 0 0 a 50.39 50.39 0 0 1 2.76 -21.41 h 0 c 1.92 -5.19 4.61 -9.38 7.64 -11.64 a 36.53 36.53 0 0 0 -5.85 15.94 A 59.14 59.14 0 0 0 26.25 122.86 Z" stroke-linecap="round" />
</g>
<g transform="matrix(1.33 0 0 1.33 145.87 244.81)" id="ART"  >
<path style="stroke: none; stroke-width: 1; stroke-dasharray: none; stroke-linecap: butt; stroke-dashoffset: 0; stroke-linejoin: miter; stroke-miterlimit: 4; fill: rgb(0,0,0); fill-rule: nonzero; opacity: 1;"  transform=" translate(-34.4, -108.61)" d="M 31.47 102.48 a 53.76 53.76 0 0 0 8.09 23.27 a 51.34 51.34 0 0 1 -4.67 -2.51 l -1.67 0.82 a 49 49 0 0 1 -3.87 -22.5 a 22.24 22.24 0 0 1 2.93 -10.09 A 33.06 33.06 0 0 0 31.47 102.48 Z" stroke-linecap="round" />
</g>
<g transform="matrix(1.33 0 0 1.33 268.13 235.19)" id="ART"  >
<path style="stroke: none; stroke-width: 1; stroke-dasharray: none; stroke-linecap: butt; stroke-dashoffset: 0; stroke-linejoin: miter; stroke-miterlimit: 4; fill: rgb(0,0,0); fill-rule: nonzero; opacity: 1;"  transform=" translate(-126.1, -101.39)" d="M 131.2 112.93 a 39.63 39.63 0 0 1 -7.45 9.93 a 59.14 59.14 0 0 0 2.9 -27 a 36.53 36.53 0 0 0 -5.85 -15.94 c 3 2.26 5.72 6.45 7.64 11.64 A 50.39 50.39 0 0 1 131.2 112.93 Z" stroke-linecap="round" />
</g>
<g transform="matrix(1.33 0 0 1.33 254.13 244.82)" id="ART"  >
<path style="stroke: none; stroke-width: 1; stroke-dasharray: none; stroke-linecap: butt; stroke-dashoffset: 0; stroke-linejoin: miter; stroke-miterlimit: 4; fill: rgb(0,0,0); fill-rule: nonzero; opacity: 1;"  transform=" translate(-115.6, -108.62)" d="M 116.79 124.06 l -1.67 -0.82 a 50.84 50.84 0 0 1 -4.68 2.51 a 53.76 53.76 0 0 0 8.09 -23.27 a 33.06 33.06 0 0 0 -0.81 -11 a 22.24 22.24 0 0 1 2.93 10.09 A 49.11 49.11 0 0 1 116.79 124.06 Z" stroke-linecap="round" />
</g>
<g transform="matrix(1.33 0 0 1.33 237.9 188.7)" id="ART"  >
<path style="stroke: rgb(0,0,0); stroke-width: 2; stroke-dasharray: none; stroke-linecap: butt; stroke-dashoffset: 0; stroke-linejoin: miter; stroke-miterlimit: 10; fill: rgb(255,231,189); fill-rule: nonzero; opacity: 1;"  transform=" translate(-103.43, -66.53)" d="M 98.61 63.18 c 7.24 -4.61 15 -6.6 15.58 -4.65 S 111.38 73.62 105.64 75 S 84 72.49 98.61 63.18 Z" stroke-linecap="round" />
</g>
<g transform="matrix(1.33 0 0 1.33 235.2 187.87)" id="ART"  >
<circle style="stroke: none; stroke-width: 1; stroke-dasharray: none; stroke-linecap: butt; stroke-dashoffset: 0; stroke-linejoin: miter; stroke-miterlimit: 4; fill: rgb(0,0,0); fill-rule: nonzero; opacity: 1;"  cx="0" cy="0" r="3.87" />
</g>
<g transform="matrix(1.33 0 0 1.33 162.1 188.7)" id="ART"  >
<path style="stroke: rgb(0,0,0); stroke-width: 2; stroke-dasharray: none; stroke-linecap: butt; stroke-dashoffset: 0; stroke-linejoin: miter; stroke-miterlimit: 10; fill: rgb(255,231,189); fill-rule: nonzero; opacity: 1;"  transform=" translate(-46.57, -66.53)" d="M 51.39 63.18 c -7.24 -4.61 -15 -6.6 -15.58 -4.65 S 38.62 73.62 44.36 75 S 66 72.49 51.39 63.18 Z" stroke-linecap="round" />
</g>
<g transform="matrix(1.33 0 0 1.33 164.8 187.87)" id="ART"  >
<circle style="stroke: none; stroke-width: 1; stroke-dasharray: none; stroke-linecap: butt; stroke-dashoffset: 0; stroke-linejoin: miter; stroke-miterlimit: 4; fill: rgb(0,0,0); fill-rule: nonzero; opacity: 1;"  cx="0" cy="0" r="3.87" />
</g>
<g transform="matrix(1.33 0 0 1.33 200 250.15)" id="ART"  >
<line style="stroke: rgb(0,0,0); stroke-width: 2; stroke-dasharray: none; stroke-linecap: round; stroke-dashoffset: 0; stroke-linejoin: round; stroke-miterlimit: 4; fill: rgb(2,1,0); fill-rule: nonzero; opacity: 1;"  x1="0" y1="4.090000000000003" x2="0" y2="-4.090000000000003" />
</g>
<g transform="matrix(1.33 0 0 1.33 200 261.81)" id="ART"  >
<path style="stroke: rgb(0,0,0); stroke-width: 2; stroke-dasharray: none; stroke-linecap: round; stroke-dashoffset: 0; stroke-linejoin: round; stroke-miterlimit: 4; fill: rgb(2,1,0); fill-rule: nonzero; opacity: 1;"  transform=" translate(-75, -121.35)" d="M 93.63 124.54 C 86.81 134.6 75 125.79 75 125.79 s -11.82 8.81 -18.63 -1.25 c 5.21 0.88 18.63 -2.21 18.63 -11.19 C 75 122.33 88.42 125.42 93.63 124.54 Z" stroke-linecap="round" />
</g>
<g transform="matrix(1.33 0 0 1.33 200 144.41)" id="ART"  >
<path style="stroke: none; stroke-width: 1; stroke-dasharray: none; stroke-linecap: butt; stroke-dashoffset: 0; stroke-linejoin: miter; stroke-miterlimit: 4; fill: rgb(2,1,0); fill-rule: nonzero; opacity: 1;"  transform=" translate(-75, -33.31)" d="M 103.43 39.73 c -7 -4.62 -17.13 -7.54 -28.43 -7.54 S 53.54 35.1 46.57 39.73 C 51.63 32.14 62.45 26.89 75 26.89 S 98.37 32.14 103.43 39.73 Z" stroke-linecap="round" />
</g>
<g transform="matrix(1.33 0 0 1.33 200 160.02)" id="ART"  >
<path style="stroke: none; stroke-width: 1; stroke-dasharray: none; stroke-linecap: butt; stroke-dashoffset: 0; stroke-linejoin: miter; stroke-miterlimit: 4; fill: rgb(2,1,0); fill-rule: nonzero; opacity: 1;"  transform=" translate(-75, -45.02)" d="M 94.28 49.37 C 89.56 46.23 82.66 44.25 75 44.25 s -14.55 2 -19.28 5.11 c 3.43 -5.15 10.77 -8.7 19.28 -8.7 S 90.85 44.22 94.28 49.37 Z" stroke-linecap="round" />
</g>
<g transform="matrix(1.33 0 0 1.33 256.66 140.71)" id="ART"  >
<path style="stroke: none; stroke-width: 1; stroke-dasharray: none; stroke-linecap: butt; stroke-dashoffset: 0; stroke-linejoin: miter; stroke-miterlimit: 4; fill: rgb(196,94,53); fill-rule: nonzero; opacity: 1;"  transform=" translate(-117.5, -30.53)" d="M 106.25 24.39 c 8.71 -3.25 21 -4.91 22.49 -4.79 c 0.13 1.75 -1.87 15.92 -4.46 21.87 C 118.45 33.83 106.25 24.39 106.25 24.39 Z" stroke-linecap="round" />
</g>
<g transform="matrix(1.33 0 0 1.33 143.34 140.71)" id="ART"  >
<path style="stroke: none; stroke-width: 1; stroke-dasharray: none; stroke-linecap: butt; stroke-dashoffset: 0; stroke-linejoin: miter; stroke-miterlimit: 4; fill: rgb(196,94,53); fill-rule: nonzero; opacity: 1;"  transform=" translate(-32.5, -30.53)" d="M 43.75 24.39 c -8.71 -3.25 -21 -4.91 -22.49 -4.79 c -0.12 1.75 1.87 15.92 4.46 21.87 C 31.55 33.83 43.75 24.39 43.75 24.39 Z" stroke-linecap="round" />
</g>
<g transform="matrix(1.33 0 0 1.33 200 209.17)" id="_Path_2"  >
<path style="stroke: rgb(0,0,0); stroke-width: 2; stroke-dasharray: none; stroke-linecap: butt; stroke-dashoffset: 0; stroke-linejoin: miter; stroke-miterlimit: 10; fill: rgb(221,142,47); fill-rule: nonzero; opacity: 1;"  transform=" translate(-75, -81.88)" d="M 91.67 89.1 c 0 15.67 -16.67 17.17 -16.67 19.67 c 0 -2.5 -16.67 -4 -16.67 -19.67 c 0 -9.48 4.64 -21 9.18 -28.67 c 3 -5 3.54 -5.44 7.49 -5.44 s 4.53 0.46 7.51 5.48 C 87.05 68.12 91.67 79.64 91.67 89.1 Z" stroke-linecap="round" />
</g>
<g transform="matrix(1.33 0 0 1.33 200 235.6)" id="ART"  >
<path style="stroke: none; stroke-width: 1; stroke-dasharray: none; stroke-linecap: butt; stroke-dashoffset: 0; stroke-linejoin: miter; stroke-miterlimit: 4; fill: rgb(214,81,45); fill-rule: nonzero; opacity: 1;"  transform=" translate(-75, -101.7)" d="M 87.34 99.09 c -2.76 3.4 -6.66 5.22 -9.46 6.52 A 19.18 19.18 0 0 0 75 107.13 a 19.18 19.18 0 0 0 -2.88 -1.52 c -2.8 -1.3 -6.7 -3.12 -9.46 -6.52 a 28.41 28.41 0 0 1 24.68 0 Z" stroke-linecap="round" />
</g>
</svg>