<?xml version="1.0" encoding="UTF-8" standalone="no" ?>
<!DOCTYPE svg PUBLIC "-//W3C//DTD SVG 1.1//EN" "http://www.w3.org/Graphics/SVG/1.1/DTD/svg11.dtd">
<svg xmlns="http://www.w3.org/2000/svg" xmlns:xlink="http://www.w3.org/1999/xlink" version="1.1" width="400" height="400" viewBox="0 0 400 400" xml:space="preserve">
<desc>Created with Fabric.js 3.6.2</desc>
<defs>
</defs>
<g transform="matrix(1.33 0 0 1.33 151.22 263.66)" id="ART"  >
<path style="stroke: rgb(0,0,0); stroke-width: 2; stroke-dasharray: none; stroke-linecap: round; stroke-dashoffset: 0; stroke-linejoin: round; stroke-miterlimit: 4; fill: rgb(167,182,196); fill-rule: nonzero; opacity: 1;"  transform=" translate(-38.42, -122.74)" d="M 44.63 111.82 c 5.93 -2.24 11.18 9.13 11.82 17 s -29.42 5.75 -36.08 -0.08 C 35 129.39 34.26 115.73 44.63 111.82 Z" stroke-linecap="round" />
</g>
<g transform="matrix(1.33 0 0 1.33 260.55 263.66)" id="ART"  >
<path style="stroke: rgb(0,0,0); stroke-width: 2; stroke-dasharray: none; stroke-linecap: round; stroke-dashoffset: 0; stroke-linejoin: round; stroke-miterlimit: 4; fill: rgb(167,182,196); fill-rule: nonzero; opacity: 1;"  transform=" translate(-120.41, -122.74)" d="M 114.2 111.82 c -5.93 -2.24 -11.18 9.13 -11.82 17 s 29.42 5.75 36.08 -0.08 C 123.8 129.39 124.57 115.73 114.2 111.82 Z" stroke-linecap="round" />
</g>
<g transform="matrix(1.33 0 0 1.33 212.47 132.34)" id="ART"  >
<path style="stroke: rgb(0,0,0); stroke-width: 2; stroke-dasharray: none; stroke-linecap: butt; stroke-dashoffset: 0; stroke-linejoin: miter; stroke-miterlimit: 10; fill: rgb(167,182,196); fill-rule: nonzero; opacity: 1;"  transform=" translate(-84.35, -24.26)" d="M 74.7 41.49 C 75.82 29.15 79.8 5.3 94 5.3 C 82.69 9.72 82.54 37.62 87.58 41.49 S 74.7 41.49 74.7 41.49 Z" stroke-linecap="round" />
</g>
<g transform="matrix(1.33 0 0 1.33 149.02 193.23)" id="ART"  >
<path style="stroke: rgb(0,0,0); stroke-width: 3; stroke-dasharray: none; stroke-linecap: butt; stroke-dashoffset: 0; stroke-linejoin: miter; stroke-miterlimit: 10; fill: rgb(167,182,196); fill-rule: nonzero; opacity: 1;"  transform=" translate(-36.77, -69.93)" d="M 53.84 75.29 l 1.62 19 c -15.58 5 -37.54 15.82 -43 28.78 c -2.69 -16.83 7.33 -39.73 22.11 -51 C 24.17 56.77 22 31.86 30 16.78 c 1 14 18.34 31.33 31.51 41 Z" stroke-linecap="round" />
</g>
<g transform="matrix(1.33 0 0 1.33 206.25 220.06)" id="_Path_"  >
<path style="stroke: rgb(0,0,0); stroke-width: 4; stroke-dasharray: none; stroke-linecap: butt; stroke-dashoffset: 0; stroke-linejoin: miter; stroke-miterlimit: 10; fill: rgb(109,131,155); fill-rule: nonzero; opacity: 1;"  transform=" translate(-79.69, -90.04)" d="M 113.77 100.19 c 0 29.63 -15.26 43.51 -34.08 43.51 s -34.08 -13.88 -34.08 -43.51 s 15.26 -63.8 34.08 -63.8 S 113.77 70.55 113.77 100.19 Z" stroke-linecap="round" />
</g>
<g transform="matrix(1.33 0 0 1.33 206.25 220.05)" id="ART"  >
<path style="stroke: rgb(0,0,0); stroke-width: 2; stroke-dasharray: none; stroke-linecap: butt; stroke-dashoffset: 0; stroke-linejoin: miter; stroke-miterlimit: 10; fill: rgb(68,55,46); fill-rule: nonzero; opacity: 1;"  transform=" translate(-79.69, -90.03)" d="M 89.59 95.07 a 16.7 16.7 0 0 0 -19.81 0 c 1.75 -6 5.53 -10.07 9.91 -10.07 S 87.84 89.12 89.59 95.07 Z" stroke-linecap="round" />
</g>
<g transform="matrix(1.33 0 0 1.33 242.97 206.65)" id="ART"  >
<path style="stroke: rgb(0,0,0); stroke-width: 2; stroke-dasharray: none; stroke-linecap: butt; stroke-dashoffset: 0; stroke-linejoin: miter; stroke-miterlimit: 10; fill: rgb(255,255,255); fill-rule: nonzero; opacity: 1;"  transform=" translate(-107.22, -79.99)" d="M 112 76.43 c 2.11 5.12 2.2 10.82 -1 12.09 s -6.71 1.19 -8.82 -3.93 s -1.41 -11 1.25 -13 S 109.85 71.3 112 76.43 Z" stroke-linecap="round" />
</g>
<g transform="matrix(1.33 0 0 1.33 242.29 208.21)" id="ART"  >
<path style="stroke: none; stroke-width: 1; stroke-dasharray: none; stroke-linecap: butt; stroke-dashoffset: 0; stroke-linejoin: miter; stroke-miterlimit: 4; fill: rgb(0,0,0); fill-rule: nonzero; opacity: 1;"  transform=" translate(-106.72, -81.15)" d="M 109 87 c -0.92 0.36 -4.08 1.2 -6 -3.38 c -1.51 -3.65 -0.27 -6.66 1.57 -8.13 s 4.47 0.61 5.68 3.54 C 111.78 82.57 111.2 86.15 109 87 Z" stroke-linecap="round" />
</g>
<g transform="matrix(1.33 0 0 1.33 169.58 206.65)" id="ART"  >
<path style="stroke: rgb(0,0,0); stroke-width: 2; stroke-dasharray: none; stroke-linecap: butt; stroke-dashoffset: 0; stroke-linejoin: miter; stroke-miterlimit: 10; fill: rgb(255,255,255); fill-rule: nonzero; opacity: 1;"  transform=" translate(-52.19, -79.99)" d="M 47.41 76.43 c -2.11 5.12 -2.2 10.82 1 12.09 s 6.71 1.19 8.82 -3.93 s 1.41 -11 -1.25 -13 S 49.52 71.3 47.41 76.43 Z" stroke-linecap="round" />
</g>
<g transform="matrix(1.33 0 0 1.33 170.18 208.21)" id="ART"  >
<path style="stroke: none; stroke-width: 1; stroke-dasharray: none; stroke-linecap: butt; stroke-dashoffset: 0; stroke-linejoin: miter; stroke-miterlimit: 4; fill: rgb(0,0,0); fill-rule: nonzero; opacity: 1;"  transform=" translate(-52.64, -81.15)" d="M 50.34 87 c 0.92 0.36 4.08 1.2 6 -3.38 c 1.51 -3.65 0.27 -6.66 -1.57 -8.13 s -4.47 0.61 -5.68 3.54 C 47.6 82.57 48.17 86.15 50.34 87 Z" stroke-linecap="round" />
</g>
<g transform="matrix(1.33 0 0 1.33 206.78 271.23)" id="ART"  >
<path style="stroke: none; stroke-width: 1; stroke-dasharray: none; stroke-linecap: butt; stroke-dashoffset: 0; stroke-linejoin: miter; stroke-miterlimit: 4; fill: rgb(56,72,86); fill-rule: nonzero; opacity: 1;"  transform=" translate(-80.09, -128.42)" d="M 107.48 123.18 c -5.2 11.77 -14.91 18.51 -27.79 18.51 c -12.22 0 -21.58 -6.06 -27 -16.73 c 6.93 -6 17.12 -9.81 28.49 -9.81 C 91.43 115.15 100.68 118.21 107.48 123.18 Z" stroke-linecap="round" />
</g>
</svg>