<?xml version="1.0" encoding="UTF-8" standalone="no" ?>
<!DOCTYPE svg PUBLIC "-//W3C//DTD SVG 1.1//EN" "http://www.w3.org/Graphics/SVG/1.1/DTD/svg11.dtd">
<svg xmlns="http://www.w3.org/2000/svg" xmlns:xlink="http://www.w3.org/1999/xlink" version="1.1" width="400" height="400" viewBox="0 0 400 400" xml:space="preserve">
<desc>Created with Fabric.js 3.6.2</desc>
<defs>
</defs>
<g transform="matrix(1.33 0 0 1.33 200 252.27)" id="ART"  >
<path style="stroke: rgb(0,0,0); stroke-width: 4; stroke-dasharray: none; stroke-linecap: butt; stroke-dashoffset: 0; stroke-linejoin: round; stroke-miterlimit: 4; fill: rgb(204,204,204); fill-rule: nonzero; opacity: 1;"  transform=" translate(-75, -114.2)" d="M 98.15 144.75 s -6 -50.51 -1.27 -61.09 H 53.12 c 4.77 10.58 -1.27 61.09 -1.27 61.09" stroke-linecap="round" />
</g>
<g transform="matrix(1.33 0 0 1.33 200 171.73)" id="ART"  >
<path style="stroke: rgb(0,0,0); stroke-width: 4; stroke-dasharray: none; stroke-linecap: butt; stroke-dashoffset: 0; stroke-linejoin: round; stroke-miterlimit: 4; fill: rgb(204,204,204); fill-rule: nonzero; opacity: 1;"  transform=" translate(-75, -53.8)" d="M 119.31 68.88 c 0 19.55 -19.84 31.71 -44.31 31.71 S 30.69 88.43 30.69 68.88 c 0 -15.09 8.17 -21.3 11.58 -30.53 C 45.91 28.48 55.42 7 75 7 s 29.09 21.47 32.73 31.34 C 111.13 47.58 119.31 53.79 119.31 68.88 Z" stroke-linecap="round" />
</g>
<g transform="matrix(1.33 0 0 1.33 200 211.32)" id="_Path_"  >
<path style="stroke: rgb(0,0,0); stroke-width: 3; stroke-dasharray: none; stroke-linecap: round; stroke-dashoffset: 0; stroke-linejoin: miter; stroke-miterlimit: 10; fill: rgb(191,125,71); fill-rule: nonzero; opacity: 1;"  transform=" translate(-75, -83.49)" d="M 75 50 c 3.81 0 8.15 -3.65 11.16 -1.38 c 1.47 1.11 1.41 14.19 4.57 24.55 C 94 84 96.93 93.5 96.77 96.4 c -0.33 5.66 -15.3 22.73 -21.77 22.73 S 53.56 102.06 53.23 96.4 c -0.17 -2.9 2.72 -12.39 6 -23.26 c 3.16 -10.36 3.1 -23.44 4.57 -24.55 C 66.85 46.32 71.19 50 75 50 Z" stroke-linecap="round" />
</g>
<g transform="matrix(1.33 0 0 1.33 228.25 156.92)" id="ART"  >
<path style="stroke: rgb(0,0,0); stroke-width: 1; stroke-dasharray: none; stroke-linecap: round; stroke-dashoffset: 0; stroke-linejoin: miter; stroke-miterlimit: 10; fill: rgb(237,219,174); fill-rule: nonzero; opacity: 1;"  transform=" translate(-96.19, -42.69)" d="M 101.38 44.66 c -1.47 3.83 -3.93 4.57 -7 4.25 c -2.85 -0.3 -5 -2 -3.5 -5.82 s 5.38 -7.53 8 -6.51 S 102.85 40.84 101.38 44.66 Z" stroke-linecap="round" />
</g>
<g transform="matrix(1.33 0 0 1.33 227.68 158.2)" id="ART"  >
<ellipse style="stroke: none; stroke-width: 1; stroke-dasharray: none; stroke-linecap: butt; stroke-dashoffset: 0; stroke-linejoin: miter; stroke-miterlimit: 4; fill: rgb(0,0,0); fill-rule: nonzero; opacity: 1;"  cx="0" cy="0" rx="2.33" ry="4" />
</g>
<g transform="matrix(1.33 0 0 1.33 171.75 156.92)" id="ART"  >
<path style="stroke: rgb(0,0,0); stroke-width: 1; stroke-dasharray: none; stroke-linecap: round; stroke-dashoffset: 0; stroke-linejoin: miter; stroke-miterlimit: 10; fill: rgb(237,219,174); fill-rule: nonzero; opacity: 1;"  transform=" translate(-53.81, -42.69)" d="M 48.62 44.66 c 1.47 3.83 3.93 4.57 7 4.25 c 2.85 -0.3 5 -2 3.5 -5.82 s -5.38 -7.53 -8 -6.51 S 47.15 40.84 48.62 44.66 Z" stroke-linecap="round" />
</g>
<g transform="matrix(1.33 0 0 1.33 172.32 158.2)" id="ART"  >
<ellipse style="stroke: none; stroke-width: 1; stroke-dasharray: none; stroke-linecap: butt; stroke-dashoffset: 0; stroke-linejoin: miter; stroke-miterlimit: 4; fill: rgb(0,0,0); fill-rule: nonzero; opacity: 1;"  cx="0" cy="0" rx="2.33" ry="4" />
</g>
<g transform="matrix(1.33 0 0 1.33 192.67 194.37)" id="ART"  >
<path style="stroke: none; stroke-width: 1; stroke-dasharray: none; stroke-linecap: butt; stroke-dashoffset: 0; stroke-linejoin: miter; stroke-miterlimit: 4; fill: rgb(0,0,0); fill-rule: nonzero; opacity: 1;"  transform=" translate(-69.5, -70.78)" d="M 68.25 70.51 c -0.62 2.19 -0.56 4.08 0.13 4.23 s 1.76 -1.5 2.38 -3.69 s 0.56 -4.08 -0.13 -4.23 S 68.87 68.32 68.25 70.51 Z" stroke-linecap="round" />
</g>
<g transform="matrix(1.33 0 0 1.33 207.33 194.37)" id="ART"  >
<path style="stroke: none; stroke-width: 1; stroke-dasharray: none; stroke-linecap: butt; stroke-dashoffset: 0; stroke-linejoin: miter; stroke-miterlimit: 4; fill: rgb(0,0,0); fill-rule: nonzero; opacity: 1;"  transform=" translate(-80.5, -70.78)" d="M 81.75 70.51 c 0.62 2.19 0.56 4.08 -0.13 4.23 s -1.76 -1.5 -2.38 -3.69 s -0.56 -4.08 0.13 -4.23 S 81.13 68.32 81.75 70.51 Z" stroke-linecap="round" />
</g>
<g transform="matrix(1.33 0 0 1.33 200 245.03)" id="ART"  >
<path style="stroke: none; stroke-width: 1; stroke-dasharray: none; stroke-linecap: butt; stroke-dashoffset: 0; stroke-linejoin: miter; stroke-miterlimit: 4; fill: rgb(226,163,80); fill-rule: nonzero; opacity: 1;"  transform=" translate(-75, -108.77)" d="M 89.42 106.19 C 84.65 111.9 78.23 117.63 75 117.63 s -9.65 -5.73 -14.42 -11.44 a 19.7 19.7 0 0 1 28.84 0 Z" stroke-linecap="round" />
</g>
</svg>