<?xml version="1.0" encoding="UTF-8" standalone="no" ?>
<!DOCTYPE svg PUBLIC "-//W3C//DTD SVG 1.1//EN" "http://www.w3.org/Graphics/SVG/1.1/DTD/svg11.dtd">
<svg xmlns="http://www.w3.org/2000/svg" xmlns:xlink="http://www.w3.org/1999/xlink" version="1.1" width="400" height="400" viewBox="0 0 400 400" xml:space="preserve">
<desc>Created with Fabric.js 3.6.2</desc>
<defs>
</defs>
<g transform="matrix(1.33 0 0 1.33 134.43 164.84)" id="_Path_"  >
<path style="stroke: rgb(0,0,0); stroke-width: 4; stroke-dasharray: none; stroke-linecap: butt; stroke-dashoffset: 0; stroke-linejoin: miter; stroke-miterlimit: 10; fill: rgb(158,169,172); fill-rule: nonzero; opacity: 1;"  transform=" translate(-25.82, -48.63)" d="M 44.56 24.15 C 37.08 15.9 18 7.82 6.81 30.86 C 1.89 40.94 7.8 52.53 14 63 C 21.9 76.5 32.05 87 39.19 78.32 C 51.89 62.85 44.56 24.15 44.56 24.15 Z" stroke-linecap="round" />
</g>
<g transform="matrix(1.33 0 0 1.33 265.57 164.84)" id="_Path_2"  >
<path style="stroke: rgb(0,0,0); stroke-width: 4; stroke-dasharray: none; stroke-linecap: butt; stroke-dashoffset: 0; stroke-linejoin: miter; stroke-miterlimit: 10; fill: rgb(158,169,172); fill-rule: nonzero; opacity: 1;"  transform=" translate(-124.18, -48.63)" d="M 105.44 24.15 c 7.49 -8.25 26.53 -16.34 37.76 6.71 c 4.91 10.08 -1 21.67 -7.16 32.16 c -7.93 13.48 -18.09 24 -25.23 15.31 C 98.11 62.85 105.44 24.15 105.44 24.15 Z" stroke-linecap="round" />
</g>
<g transform="matrix(1.33 0 0 1.33 154.59 167.92)" id="ART"  >
<path style="stroke: none; stroke-width: 1; stroke-dasharray: none; stroke-linecap: butt; stroke-dashoffset: 0; stroke-linejoin: miter; stroke-miterlimit: 4; fill: rgb(94,108,112); fill-rule: nonzero; opacity: 1;"  transform=" translate(-40.94, -50.94)" d="M 53.4 30.14 c -8.78 -10.67 -40.08 -11.87 -37 13.58 c 1.5 12.44 6.09 18.32 13.9 26.1 c 11.08 11 24.17 11.94 31.31 3.23 C 74.29 57.58 53.4 30.14 53.4 30.14 Z" stroke-linecap="round" />
</g>
<g transform="matrix(1.33 0 0 1.33 245.41 167.92)" id="ART"  >
<path style="stroke: none; stroke-width: 1; stroke-dasharray: none; stroke-linecap: butt; stroke-dashoffset: 0; stroke-linejoin: miter; stroke-miterlimit: 4; fill: rgb(94,108,112); fill-rule: nonzero; opacity: 1;"  transform=" translate(-109.06, -50.94)" d="M 96.6 30.14 c 8.78 -10.67 40.08 -11.87 37 13.58 c -1.5 12.44 -6.09 18.32 -13.9 26.1 c -11.08 11 -24.17 11.94 -31.31 3.23 C 75.71 57.58 96.6 30.14 96.6 30.14 Z" stroke-linecap="round" />
</g>
<g transform="matrix(1.33 0 0 1.33 200 181.91)" id="ART"  >
<path style="stroke: rgb(0,0,0); stroke-width: 4; stroke-dasharray: none; stroke-linecap: butt; stroke-dashoffset: 0; stroke-linejoin: miter; stroke-miterlimit: 10; fill: rgb(180,191,194); fill-rule: nonzero; opacity: 1;"  transform=" translate(-75, -61.43)" d="M 114.24 61.62 c -3.62 15.48 -0.66 24.42 -7.36 34.17 c -5.43 7.91 -19.77 17.76 -31.88 17.76 s -26.44 -9.85 -31.89 -17.76 c -6.7 -9.76 -3.73 -18.7 -7.36 -34.17 C 28.53 30.72 48.69 9.32 75 9.32 S 121.48 30.72 114.24 61.62 Z" stroke-linecap="round" />
</g>
<g transform="matrix(1.33 0 0 1.33 234.66 243.07)" id="ART"  >
<path style="stroke: rgb(0,0,0); stroke-width: 2; stroke-dasharray: none; stroke-linecap: butt; stroke-dashoffset: 0; stroke-linejoin: miter; stroke-miterlimit: 10; fill: rgb(252,238,187); fill-rule: nonzero; opacity: 1;"  transform=" translate(-101, -107.3)" d="M 95.92 96.4 c 5.14 -1.75 8.68 3.83 9.44 9.95 s 6.32 9.63 4.24 11.66 c -2.44 2.37 -11.62 -3.83 -15.6 -10.08 C 91.18 103.5 90.72 98.17 95.92 96.4 Z" stroke-linecap="round" />
</g>
<g transform="matrix(1.33 0 0 1.33 165.33 243.06)" id="ART"  >
<path style="stroke: rgb(0,0,0); stroke-width: 2; stroke-dasharray: none; stroke-linecap: butt; stroke-dashoffset: 0; stroke-linejoin: miter; stroke-miterlimit: 10; fill: rgb(252,238,187); fill-rule: nonzero; opacity: 1;"  transform=" translate(-49, -107.3)" d="M 54.08 96.4 c -5.14 -1.75 -8.68 3.83 -9.44 9.95 S 38.31 116 40.39 118 c 2.44 2.37 11.62 -3.83 15.6 -10.08 C 58.82 103.5 59.28 98.17 54.08 96.4 Z" stroke-linecap="round" />
</g>
<g transform="matrix(1.33 0 0 1.33 185.49 255.46)" id="ART"  >
<path style="stroke: rgb(0,0,0); stroke-width: 4; stroke-dasharray: none; stroke-linecap: round; stroke-dashoffset: 0; stroke-linejoin: round; stroke-miterlimit: 4; fill: rgb(180,191,194); fill-rule: nonzero; opacity: 1;"  transform=" translate(-64.12, -116.59)" d="M 57.69 92.72 c 3.19 9.09 4.26 34.87 -4.59 37 c -4.31 1 -8 -1.75 -8.09 -4.25 s -2.06 -7.22 -4.5 -3.37 c -3 -1.08 -4.67 2 -2.34 4.25 C 38 130.43 43.35 140.68 54 140.68 c 23.38 0 38.92 -17.19 37 -48.17" stroke-linecap="round" />
</g>
<g transform="matrix(1.33 0 0 1.33 227.37 185.89)" id="ART"  >
<path style="stroke: rgb(0,0,0); stroke-width: 1.89; stroke-dasharray: none; stroke-linecap: round; stroke-dashoffset: 0; stroke-linejoin: round; stroke-miterlimit: 4; fill: rgb(252,252,252); fill-rule: nonzero; opacity: 1;"  transform=" translate(-95.53, -64.42)" d="M 102.65 63.52 c 0 3.51 -3.19 7.25 -7.12 7.25 s -7.12 -2 -7.12 -5.46 s 3.19 -7.25 7.13 -7.25 S 102.65 60 102.65 63.52 Z" stroke-linecap="round" />
</g>
<g transform="matrix(1.33 0 0 1.33 227.36 185.88)" id="ART"  >
<ellipse style="stroke: none; stroke-width: 1; stroke-dasharray: none; stroke-linecap: butt; stroke-dashoffset: 0; stroke-linejoin: miter; stroke-miterlimit: 4; fill: rgb(0,0,0); fill-rule: nonzero; opacity: 1;"  cx="0" cy="0" rx="3.45" ry="3.08" />
</g>
<g transform="matrix(1.33 0 0 1.33 172.63 185.88)" id="ART"  >
<path style="stroke: rgb(0,0,0); stroke-width: 1.89; stroke-dasharray: none; stroke-linecap: round; stroke-dashoffset: 0; stroke-linejoin: round; stroke-miterlimit: 4; fill: rgb(252,252,252); fill-rule: nonzero; opacity: 1;"  transform=" translate(-54.48, -64.41)" d="M 61.6 65.3 c 0 3.51 -3.19 5.46 -7.12 5.46 S 47.35 67 47.35 63.52 s 3.19 -5.46 7.13 -5.46 S 61.6 61.79 61.6 65.3 Z" stroke-linecap="round" />
</g>
<g transform="matrix(1.33 0 0 1.33 172.64 185.88)" id="ART"  >
<ellipse style="stroke: none; stroke-width: 1; stroke-dasharray: none; stroke-linecap: butt; stroke-dashoffset: 0; stroke-linejoin: miter; stroke-miterlimit: 4; fill: rgb(0,0,0); fill-rule: nonzero; opacity: 1;"  cx="0" cy="0" rx="3.45" ry="3.08" />
</g>
<g transform="matrix(1.33 0 0 1.33 200.01 134.77)" id="ART"  >
<path style="stroke: none; stroke-width: 1; stroke-dasharray: none; stroke-linecap: butt; stroke-dashoffset: 0; stroke-linejoin: miter; stroke-miterlimit: 4; fill: rgb(94,108,112); fill-rule: nonzero; opacity: 1;"  transform=" translate(-75, -26.08)" d="M 94.5 29.15 C 89.72 26.93 82.75 25.53 75 25.53 s -14.71 1.4 -19.49 3.62 C 59 25.5 66.39 23 75 23 S 91 25.5 94.5 29.15 Z" stroke-linecap="round" />
</g>
<g transform="matrix(1.33 0 0 1.33 200 153.57)" id="ART"  >
<path style="stroke: none; stroke-width: 1; stroke-dasharray: none; stroke-linecap: butt; stroke-dashoffset: 0; stroke-linejoin: miter; stroke-miterlimit: 4; fill: rgb(94,108,112); fill-rule: nonzero; opacity: 1;"  transform=" translate(-75, -40.17)" d="M 84.77 41.72 A 24.15 24.15 0 0 0 75 39.9 a 24.13 24.13 0 0 0 -9.77 1.81 C 67 39.89 70.68 38.63 75 38.63 S 83 39.89 84.77 41.72 Z" stroke-linecap="round" />
</g>
<g transform="matrix(1.33 0 0 1.33 200 144.6)" id="ART"  >
<path style="stroke: none; stroke-width: 1; stroke-dasharray: none; stroke-linecap: butt; stroke-dashoffset: 0; stroke-linejoin: miter; stroke-miterlimit: 4; fill: rgb(94,108,112); fill-rule: nonzero; opacity: 1;"  transform=" translate(-75, -33.45)" d="M 91.13 36 c -4 -1.84 -9.72 -3 -16.13 -3 s -12.17 1.16 -16.13 3 c 2.87 -3 9 -5.1 16.13 -5.1 S 88.26 33 91.13 36 Z" stroke-linecap="round" />
</g>
</svg>