<?xml version="1.0" encoding="UTF-8" standalone="no" ?>
<!DOCTYPE svg PUBLIC "-//W3C//DTD SVG 1.1//EN" "http://www.w3.org/Graphics/SVG/1.1/DTD/svg11.dtd">
<svg xmlns="http://www.w3.org/2000/svg" xmlns:xlink="http://www.w3.org/1999/xlink" version="1.1" width="400" height="400" viewBox="0 0 400 400" xml:space="preserve">
<desc>Created with Fabric.js 3.6.2</desc>
<defs>
</defs>
<g transform="matrix(4.17 0 0 4.17 261.05 152.08)" id="surface1"  >
<path style="stroke: none; stroke-width: 1; stroke-dasharray: none; stroke-linecap: butt; stroke-dashoffset: 0; stroke-linejoin: miter; stroke-miterlimit: 4; fill: rgb(153,103,4); fill-rule: nonzero; opacity: 1;"  transform=" translate(-38.65, -12.5)" d="M 32.3 9 h 3 c 0 0 4.2 -5.1 8 -2 c 4.5 3.6 -1 12 -4 12 C 37.1 19 32.3 9 32.3 9 z" stroke-linecap="round" />
</g>
<g transform="matrix(4.17 0 0 4.17 138.95 152.08)" id="surface1"  >
<path style="stroke: none; stroke-width: 1; stroke-dasharray: none; stroke-linecap: butt; stroke-dashoffset: 0; stroke-linejoin: miter; stroke-miterlimit: 4; fill: rgb(153,103,4); fill-rule: nonzero; opacity: 1;"  transform=" translate(-9.35, -12.5)" d="M 15.7 9 h -3 c 0 0 -4.2 -5.1 -8 -2 c -4.5 3.6 1 12 4 12 C 10.9 19 15.7 9 15.7 9 z" stroke-linecap="round" />
</g>
<g transform="matrix(4.17 0 0 4.17 200 266.67)" id="surface1"  >
<path style="stroke: none; stroke-width: 1; stroke-dasharray: none; stroke-linecap: butt; stroke-dashoffset: 0; stroke-linejoin: miter; stroke-miterlimit: 4; fill: rgb(255,193,7); fill-rule: nonzero; opacity: 1;"  transform=" translate(-24, -40)" d="M 30 40 c 0 -2.2 -2.7 -4 -6 -4 s -6 1.8 -6 4 s 2.7 4 6 4 S 30 42.2 30 40 z" stroke-linecap="round" />
</g>
<g transform="matrix(4.17 0 0 4.17 200 196.04)" id="surface1"  >
<path style="stroke: none; stroke-width: 1; stroke-dasharray: none; stroke-linecap: butt; stroke-dashoffset: 0; stroke-linejoin: miter; stroke-miterlimit: 4; fill: rgb(255,193,7); fill-rule: nonzero; opacity: 1;"  transform=" translate(-24, -23.05)" d="M 41 27.3 c 0 5 -8 12.8 -13 12.8 c -3 0 -4 -2 -4 -2 s -1 2 -4 2 c -5 0 -13 -7.8 -13 -12.8 L 8 18 c 0 -5 5 -9 9 -11 c 0 0 2 -1 4 -1 s 4 0 6 0 s 4 1 4 1 c 3 1 9 6 9 11 L 41 27.3 z" stroke-linecap="round" />
</g>
<g transform="matrix(4.17 0 0 4.17 200 195.83)" id="surface1"  >
<path style="stroke: none; stroke-width: 1; stroke-dasharray: none; stroke-linecap: butt; stroke-dashoffset: 0; stroke-linejoin: miter; stroke-miterlimit: 4; fill: rgb(214,145,7); fill-rule: nonzero; opacity: 1;"  transform=" translate(-24, -23)" d="M 30 28 c -2 -2 -2 -4 -2 -4 s 0 -7 5 -7 c 6 0 7 0 7 0 c 0 -3 -6 -11 -13 -11 c -2 0 -3 0 -3 0 s -1 0 -3 0 C 14 6 8 14 8 17 c 0 0 1 0 7 0 c 5 0 5 7 5 7 s 0 2 -2 4 s -5 4 -5 6 s 1 6 7 6 c 3 0 4 -2 4 -2 s 1 2 4 2 c 6 0 7 -4 7 -6 S 32 30 30 28 z" stroke-linecap="round" />
</g>
<g transform="matrix(4.17 0 0 4.17 164.58 189.58)" id="surface1"  >
<path style="stroke: none; stroke-width: 1; stroke-dasharray: none; stroke-linecap: butt; stroke-dashoffset: 0; stroke-linejoin: miter; stroke-miterlimit: 4; fill: rgb(93,64,55); fill-rule: nonzero; opacity: 1;"  transform=" translate(-15.5, -21.5)" d="M 12 19 c 0 0 0 5 4.1 5 c 1.6 0 2.9 0 2.9 0 s 0 -5 -3.5 -5 C 13.9 19 12 19 12 19 z" stroke-linecap="round" />
</g>
<g transform="matrix(4.17 0 0 4.17 235.42 189.58)" id="surface1"  >
<path style="stroke: none; stroke-width: 1; stroke-dasharray: none; stroke-linecap: butt; stroke-dashoffset: 0; stroke-linejoin: miter; stroke-miterlimit: 4; fill: rgb(93,64,55); fill-rule: nonzero; opacity: 1;"  transform=" translate(-32.5, -21.5)" d="M 36 19 c 0 0 0 5 -4.1 5 c -1.6 0 -2.9 0 -2.9 0 s 0 -5 3.5 -5 C 34.1 19 36 19 36 19 z" stroke-linecap="round" />
</g>
<g transform="matrix(4.17 0 0 4.17 166.67 183.33)" id="surface1"  >
<path style="stroke: none; stroke-width: 1; stroke-dasharray: none; stroke-linecap: butt; stroke-dashoffset: 0; stroke-linejoin: miter; stroke-miterlimit: 4; fill: rgb(238,255,65); fill-rule: nonzero; opacity: 1;"  transform=" translate(-16, -20)" d="M 18 20 c 0 1.1 -0.9 2 -2 2 s -2 -0.9 -2 -2 s 0.9 -2 2 -2 S 18 18.9 18 20 z" stroke-linecap="round" />
</g>
<g transform="matrix(4.17 0 0 4.17 233.33 183.33)" id="surface1"  >
<path style="stroke: none; stroke-width: 1; stroke-dasharray: none; stroke-linecap: butt; stroke-dashoffset: 0; stroke-linejoin: miter; stroke-miterlimit: 4; fill: rgb(238,255,65); fill-rule: nonzero; opacity: 1;"  transform=" translate(-32, -20)" d="M 34 20 c 0 1.1 -0.9 2 -2 2 s -2 -0.9 -2 -2 s 0.9 -2 2 -2 S 34 18.9 34 20 z" stroke-linecap="round" />
</g>
<g transform="matrix(4.17 0 0 4.17 166.67 183.33)" id="surface1"  >
<path style="stroke: none; stroke-width: 1; stroke-dasharray: none; stroke-linecap: butt; stroke-dashoffset: 0; stroke-linejoin: miter; stroke-miterlimit: 4; fill: rgb(33,33,33); fill-rule: nonzero; opacity: 1;"  transform=" translate(-16, -20)" d="M 17 20 c 0 0.6 -0.4 1 -1 1 s -1 -0.4 -1 -1 s 0.4 -1 1 -1 S 17 19.4 17 20 z" stroke-linecap="round" />
</g>
<g transform="matrix(4.17 0 0 4.17 233.33 183.33)" id="surface1"  >
<path style="stroke: none; stroke-width: 1; stroke-dasharray: none; stroke-linecap: butt; stroke-dashoffset: 0; stroke-linejoin: miter; stroke-miterlimit: 4; fill: rgb(33,33,33); fill-rule: nonzero; opacity: 1;"  transform=" translate(-32, -20)" d="M 33 20 c 0 0.6 -0.4 1 -1 1 s -1 -0.4 -1 -1 s 0.4 -1 1 -1 S 33 19.4 33 20 z" stroke-linecap="round" />
</g>
<g transform="matrix(4.17 0 0 4.17 134.17 135)" id="surface1"  >
<path style="stroke: none; stroke-width: 1; stroke-dasharray: none; stroke-linecap: butt; stroke-dashoffset: 0; stroke-linejoin: miter; stroke-miterlimit: 4; fill: rgb(62,39,35); fill-rule: nonzero; opacity: 1;"  transform=" translate(-8.2, -8.4)" d="M 11.1 10.3 l 0.4 0.5 c 0.6 -0.6 1.2 -1.2 1.9 -1.8 h -0.8 c 0 0 -2.5 -3 -5.3 -3 C 6.5 6 5.6 6.3 4.7 7 c -1 0.8 -1.5 1.9 -1.7 3 h 0 c 2 -2 3.8 -2 4.3 -2 C 8.9 8 10.6 9.7 11.1 10.3 z" stroke-linecap="round" />
</g>
<g transform="matrix(4.17 0 0 4.17 265.63 134.79)" id="surface1"  >
<path style="stroke: none; stroke-width: 1; stroke-dasharray: none; stroke-linecap: butt; stroke-dashoffset: 0; stroke-linejoin: miter; stroke-miterlimit: 4; fill: rgb(62,39,35); fill-rule: nonzero; opacity: 1;"  transform=" translate(-39.75, -8.35)" d="M 43.3 7 c -0.9 -0.7 -1.8 -1 -2.7 -1 c -2.9 0 -5.3 3 -5.3 3 h -0.7 c 0.7 0.5 1.3 1.1 1.9 1.7 l 0.4 -0.5 C 37.3 9.7 39.1 8 40.6 8 c 0.5 0 2.3 0 4.3 2 c 0 0 0 0 0 0 C 44.8 8.9 44.3 7.8 43.3 7 z" stroke-linecap="round" />
</g>
<g transform="matrix(4.17 0 0 4.17 200 247.96)" id="surface1"  >
<path style="stroke: none; stroke-width: 1; stroke-dasharray: none; stroke-linecap: butt; stroke-dashoffset: 0; stroke-linejoin: miter; stroke-miterlimit: 4; fill: rgb(62,39,35); fill-rule: nonzero; opacity: 1;"  transform=" translate(-24, -35.51)" d="M 28 34 c 0 2.2 -4 2 -4 4 c 0 -2 -4 -1.8 -4 -4 s 1.8 0 4 0 S 28 31.8 28 34 z" stroke-linecap="round" />
</g>
<g transform="matrix(4.17 0 0 4.17 166.67 185.42)" id="surface1"  >
<path style="stroke: none; stroke-width: 1; stroke-dasharray: none; stroke-linecap: butt; stroke-dashoffset: 0; stroke-linejoin: miter; stroke-miterlimit: 4; fill: rgb(62,39,35); fill-rule: nonzero; opacity: 1;"  transform=" translate(-16, -20.5)" d="M 20 24 h -2 v -1.3 c 0 -0.1 0 -3.7 -2.5 -3.7 H 12 v -2 h 3.5 c 3.6 0 4.5 3.7 4.5 5.7 V 24 z" stroke-linecap="round" />
</g>
<g transform="matrix(4.17 0 0 4.17 233.33 185.42)" id="surface1"  >
<path style="stroke: none; stroke-width: 1; stroke-dasharray: none; stroke-linecap: butt; stroke-dashoffset: 0; stroke-linejoin: miter; stroke-miterlimit: 4; fill: rgb(62,39,35); fill-rule: nonzero; opacity: 1;"  transform=" translate(-32, -20.5)" d="M 30 24 h -2 v -1.3 c 0 -2 0.9 -5.7 4.5 -5.7 H 36 v 2 h -3.5 C 30 19 30 22.5 30 22.7 V 24 z" stroke-linecap="round" />
</g>
<g transform="matrix(4.17 0 0 4.17 177.08 252.08)" id="surface1"  >
<path style="stroke: none; stroke-width: 1; stroke-dasharray: none; stroke-linecap: butt; stroke-dashoffset: 0; stroke-linejoin: miter; stroke-miterlimit: 4; fill: rgb(62,39,35); fill-rule: nonzero; opacity: 1;"  transform=" translate(-18.5, -36.5)" d="M 19 36.5 c 0 0.3 -0.2 0.5 -0.5 0.5 S 18 36.8 18 36.5 s 0.2 -0.5 0.5 -0.5 S 19 36.2 19 36.5 z" stroke-linecap="round" />
</g>
<g transform="matrix(4.17 0 0 4.17 172.92 243.75)" id="surface1"  >
<path style="stroke: none; stroke-width: 1; stroke-dasharray: none; stroke-linecap: butt; stroke-dashoffset: 0; stroke-linejoin: miter; stroke-miterlimit: 4; fill: rgb(62,39,35); fill-rule: nonzero; opacity: 1;"  transform=" translate(-17.5, -34.5)" d="M 18 34.5 c 0 0.3 -0.2 0.5 -0.5 0.5 S 17 34.8 17 34.5 s 0.2 -0.5 0.5 -0.5 S 18 34.2 18 34.5 z" stroke-linecap="round" />
</g>
<g transform="matrix(4.17 0 0 4.17 177.08 260.42)" id="surface1"  >
<path style="stroke: none; stroke-width: 1; stroke-dasharray: none; stroke-linecap: butt; stroke-dashoffset: 0; stroke-linejoin: miter; stroke-miterlimit: 4; fill: rgb(62,39,35); fill-rule: nonzero; opacity: 1;"  transform=" translate(-18.5, -38.5)" d="M 19 38.5 c 0 0.3 -0.2 0.5 -0.5 0.5 S 18 38.8 18 38.5 s 0.2 -0.5 0.5 -0.5 S 19 38.2 19 38.5 z" stroke-linecap="round" />
</g>
<g transform="matrix(4.17 0 0 4.17 168.75 256.25)" id="surface1"  >
<path style="stroke: none; stroke-width: 1; stroke-dasharray: none; stroke-linecap: butt; stroke-dashoffset: 0; stroke-linejoin: miter; stroke-miterlimit: 4; fill: rgb(62,39,35); fill-rule: nonzero; opacity: 1;"  transform=" translate(-16.5, -37.5)" d="M 17 37.5 c 0 0.3 -0.2 0.5 -0.5 0.5 S 16 37.8 16 37.5 s 0.2 -0.5 0.5 -0.5 S 17 37.2 17 37.5 z" stroke-linecap="round" />
</g>
<g transform="matrix(4.17 0 0 4.17 164.58 247.92)" id="surface1"  >
<path style="stroke: none; stroke-width: 1; stroke-dasharray: none; stroke-linecap: butt; stroke-dashoffset: 0; stroke-linejoin: miter; stroke-miterlimit: 4; fill: rgb(62,39,35); fill-rule: nonzero; opacity: 1;"  transform=" translate(-15.5, -35.5)" d="M 16 35.5 c 0 0.3 -0.2 0.5 -0.5 0.5 S 15 35.8 15 35.5 s 0.2 -0.5 0.5 -0.5 S 16 35.2 16 35.5 z" stroke-linecap="round" />
</g>
<g transform="matrix(4.17 0 0 4.17 185.42 256.25)" id="surface1"  >
<path style="stroke: none; stroke-width: 1; stroke-dasharray: none; stroke-linecap: butt; stroke-dashoffset: 0; stroke-linejoin: miter; stroke-miterlimit: 4; fill: rgb(62,39,35); fill-rule: nonzero; opacity: 1;"  transform=" translate(-20.5, -37.5)" d="M 21 37.5 c 0 0.3 -0.2 0.5 -0.5 0.5 S 20 37.8 20 37.5 s 0.2 -0.5 0.5 -0.5 S 21 37.2 21 37.5 z" stroke-linecap="round" />
</g>
<g transform="matrix(4.17 0 0 4.17 222.92 252.08)" id="surface1"  >
<path style="stroke: none; stroke-width: 1; stroke-dasharray: none; stroke-linecap: butt; stroke-dashoffset: 0; stroke-linejoin: miter; stroke-miterlimit: 4; fill: rgb(62,39,35); fill-rule: nonzero; opacity: 1;"  transform=" translate(-29.5, -36.5)" d="M 30 36.5 c 0 0.3 -0.2 0.5 -0.5 0.5 S 29 36.8 29 36.5 s 0.2 -0.5 0.5 -0.5 S 30 36.2 30 36.5 z" stroke-linecap="round" />
</g>
<g transform="matrix(4.17 0 0 4.17 227.08 243.75)" id="surface1"  >
<path style="stroke: none; stroke-width: 1; stroke-dasharray: none; stroke-linecap: butt; stroke-dashoffset: 0; stroke-linejoin: miter; stroke-miterlimit: 4; fill: rgb(62,39,35); fill-rule: nonzero; opacity: 1;"  transform=" translate(-30.5, -34.5)" d="M 31 34.5 c 0 0.3 -0.2 0.5 -0.5 0.5 S 30 34.8 30 34.5 s 0.2 -0.5 0.5 -0.5 S 31 34.2 31 34.5 z" stroke-linecap="round" />
</g>
<g transform="matrix(4.17 0 0 4.17 222.92 260.42)" id="surface1"  >
<path style="stroke: none; stroke-width: 1; stroke-dasharray: none; stroke-linecap: butt; stroke-dashoffset: 0; stroke-linejoin: miter; stroke-miterlimit: 4; fill: rgb(62,39,35); fill-rule: nonzero; opacity: 1;"  transform=" translate(-29.5, -38.5)" d="M 30 38.5 c 0 0.3 -0.2 0.5 -0.5 0.5 S 29 38.8 29 38.5 s 0.2 -0.5 0.5 -0.5 S 30 38.2 30 38.5 z" stroke-linecap="round" />
</g>
<g transform="matrix(4.17 0 0 4.17 231.25 256.25)" id="surface1"  >
<path style="stroke: none; stroke-width: 1; stroke-dasharray: none; stroke-linecap: butt; stroke-dashoffset: 0; stroke-linejoin: miter; stroke-miterlimit: 4; fill: rgb(62,39,35); fill-rule: nonzero; opacity: 1;"  transform=" translate(-31.5, -37.5)" d="M 32 37.5 c 0 0.3 -0.2 0.5 -0.5 0.5 S 31 37.8 31 37.5 s 0.2 -0.5 0.5 -0.5 S 32 37.2 32 37.5 z" stroke-linecap="round" />
</g>
<g transform="matrix(4.17 0 0 4.17 235.42 247.92)" id="surface1"  >
<path style="stroke: none; stroke-width: 1; stroke-dasharray: none; stroke-linecap: butt; stroke-dashoffset: 0; stroke-linejoin: miter; stroke-miterlimit: 4; fill: rgb(62,39,35); fill-rule: nonzero; opacity: 1;"  transform=" translate(-32.5, -35.5)" d="M 33 35.5 c 0 0.3 -0.2 0.5 -0.5 0.5 S 32 35.8 32 35.5 s 0.2 -0.5 0.5 -0.5 S 33 35.2 33 35.5 z" stroke-linecap="round" />
</g>
<g transform="matrix(4.17 0 0 4.17 214.58 256.25)" id="surface1"  >
<path style="stroke: none; stroke-width: 1; stroke-dasharray: none; stroke-linecap: butt; stroke-dashoffset: 0; stroke-linejoin: miter; stroke-miterlimit: 4; fill: rgb(62,39,35); fill-rule: nonzero; opacity: 1;"  transform=" translate(-27.5, -37.5)" d="M 28 37.5 c 0 0.3 -0.2 0.5 -0.5 0.5 S 27 37.8 27 37.5 s 0.2 -0.5 0.5 -0.5 S 28 37.2 28 37.5 z" stroke-linecap="round" />
</g>
<g transform="matrix(4.17 0 0 4.17 200 158.33)" id="surface1"  >
<path style="stroke: none; stroke-width: 1; stroke-dasharray: none; stroke-linecap: butt; stroke-dashoffset: 0; stroke-linejoin: miter; stroke-miterlimit: 4; fill: rgb(62,39,35); fill-rule: nonzero; opacity: 1;"  transform=" translate(-24, -14)" d="M 26 14 c 0 1.1 -0.9 2 -2 2 s -2 -0.9 -2 -2 s 0.9 -2 2 -2 S 26 12.9 26 14 z" stroke-linecap="round" />
</g>
<g transform="matrix(4.17 0 0 4.17 200 179.17)" id="surface1"  >
<path style="stroke: none; stroke-width: 1; stroke-dasharray: none; stroke-linecap: butt; stroke-dashoffset: 0; stroke-linejoin: miter; stroke-miterlimit: 4; fill: rgb(62,39,35); fill-rule: nonzero; opacity: 1;"  transform=" translate(-24, -19)" d="M 25 19 c 0 0.6 -0.4 1 -1 1 s -1 -0.4 -1 -1 s 0.4 -1 1 -1 S 25 18.4 25 19 z" stroke-linecap="round" />
</g>
<g transform="matrix(4.17 0 0 4.17 200 133.33)" id="surface1"  >
<path style="stroke: none; stroke-width: 1; stroke-dasharray: none; stroke-linecap: butt; stroke-dashoffset: 0; stroke-linejoin: miter; stroke-miterlimit: 4; fill: rgb(62,39,35); fill-rule: nonzero; opacity: 1;"  transform=" translate(-24, -8)" d="M 21.2 6 C 21.1 6.3 21 6.6 21 7 c 0 1.7 1.3 3 3 3 s 3 -1.3 3 -3 c 0 -0.4 -0.1 -0.7 -0.2 -1 H 21.2 z" stroke-linecap="round" />
</g>
<g transform="matrix(4.17 0 0 4.17 229.17 141.67)" id="surface1"  >
<path style="stroke: none; stroke-width: 1; stroke-dasharray: none; stroke-linecap: butt; stroke-dashoffset: 0; stroke-linejoin: miter; stroke-miterlimit: 4; fill: rgb(62,39,35); fill-rule: nonzero; opacity: 1;"  transform=" translate(-31, -10)" d="M 33 10 c 0 1.1 -0.9 2 -2 2 s -2 -0.9 -2 -2 s 0.9 -2 2 -2 S 33 8.9 33 10 z" stroke-linecap="round" />
</g>
<g transform="matrix(4.17 0 0 4.17 170.83 141.67)" id="surface1"  >
<path style="stroke: none; stroke-width: 1; stroke-dasharray: none; stroke-linecap: butt; stroke-dashoffset: 0; stroke-linejoin: miter; stroke-miterlimit: 4; fill: rgb(62,39,35); fill-rule: nonzero; opacity: 1;"  transform=" translate(-17, -10)" d="M 19 10 c 0 1.1 -0.9 2 -2 2 s -2 -0.9 -2 -2 s 0.9 -2 2 -2 S 19 8.9 19 10 z" stroke-linecap="round" />
</g>
<g transform="matrix(4.17 0 0 4.17 266.46 202.08)" id="surface1"  >
<path style="stroke: none; stroke-width: 1; stroke-dasharray: none; stroke-linecap: butt; stroke-dashoffset: 0; stroke-linejoin: miter; stroke-miterlimit: 4; fill: rgb(163,107,7); fill-rule: nonzero; opacity: 1;"  transform=" translate(-39.95, -24.5)" d="M 39 24.5 c 0 0.8 0.7 1.5 1.5 1.5 c 0.1 0 0.2 0 0.4 -0.1 L 40.5 23 c 0 0 0 0 0 0 C 39.7 23 39 23.7 39 24.5 z" stroke-linecap="round" />
</g>
<g transform="matrix(4.17 0 0 4.17 260.42 225)" id="surface1"  >
<path style="stroke: none; stroke-width: 1; stroke-dasharray: none; stroke-linecap: butt; stroke-dashoffset: 0; stroke-linejoin: miter; stroke-miterlimit: 4; fill: rgb(163,107,7); fill-rule: nonzero; opacity: 1;"  transform=" translate(-38.5, -30)" d="M 39 27 c -1.7 0 -3 1.3 -3 3 c 0 1.5 1.1 2.8 2.6 3 c 1.3 -1.8 2.2 -3.6 2.4 -5.2 C 40.4 27.3 39.8 27 39 27 z" stroke-linecap="round" />
</g>
<g transform="matrix(4.17 0 0 4.17 133.75 202.08)" id="surface1"  >
<path style="stroke: none; stroke-width: 1; stroke-dasharray: none; stroke-linecap: butt; stroke-dashoffset: 0; stroke-linejoin: miter; stroke-miterlimit: 4; fill: rgb(163,107,7); fill-rule: nonzero; opacity: 1;"  transform=" translate(-8.1, -24.5)" d="M 7.5 26 C 8.3 26 9 25.3 9 24.5 S 8.3 23 7.5 23 c 0 0 0 0 0 0 l -0.3 2.9 C 7.3 26 7.4 26 7.5 26 z" stroke-linecap="round" />
</g>
<g transform="matrix(4.17 0 0 4.17 139.58 224.79)" id="surface1"  >
<path style="stroke: none; stroke-width: 1; stroke-dasharray: none; stroke-linecap: butt; stroke-dashoffset: 0; stroke-linejoin: miter; stroke-miterlimit: 4; fill: rgb(163,107,7); fill-rule: nonzero; opacity: 1;"  transform=" translate(-9.5, -29.95)" d="M 9 27 c -0.8 0 -1.4 0.3 -2 0.7 c 0.2 1.6 1.1 3.4 2.4 5.2 c 1.5 -0.2 2.6 -1.4 2.6 -3 C 12 28.3 10.7 27 9 27 z" stroke-linecap="round" />
</g>
<g transform="matrix(4.17 0 0 4.17 200 266.67)" id="surface1"  >
<path style="stroke: none; stroke-width: 1; stroke-dasharray: none; stroke-linecap: butt; stroke-dashoffset: 0; stroke-linejoin: miter; stroke-miterlimit: 4; fill: rgb(153,103,4); fill-rule: nonzero; opacity: 1;"  transform=" translate(-24, -40)" d="M 28 40 c -3 0 -4 -2 -4 -2 s -1 2 -4 2 c -2 0 -3.5 -0.5 -4.5 -1.1 c 1.2 1.4 2.8 3.1 3.2 3 c 0.4 0.1 0.9 0.1 1.3 0.1 c 1.7 0 3 -0.5 4 -1.2 c 1 0.7 2.3 1.2 4 1.2 c 0.4 0 0.9 -0.1 1.3 -0.1 c 0.4 0.1 2 -1.6 3.2 -3 C 31.5 39.5 30 40 28 40 z" stroke-linecap="round" />
</g>
</svg>