<?xml version="1.0" encoding="UTF-8" standalone="no" ?>
<!DOCTYPE svg PUBLIC "-//W3C//DTD SVG 1.1//EN" "http://www.w3.org/Graphics/SVG/1.1/DTD/svg11.dtd">
<svg xmlns="http://www.w3.org/2000/svg" xmlns:xlink="http://www.w3.org/1999/xlink" version="1.1" width="400" height="400" viewBox="0 0 400 400" xml:space="preserve">
<desc>Created with Fabric.js 3.6.2</desc>
<defs>
</defs>
<g transform="matrix(4.17 0 0 4.17 256.25 127.08)" id="surface1"  >
<path style="stroke: none; stroke-width: 1; stroke-dasharray: none; stroke-linecap: butt; stroke-dashoffset: 0; stroke-linejoin: miter; stroke-miterlimit: 4; fill: rgb(230,81,0); fill-rule: nonzero; opacity: 1;"  transform=" translate(-37.5, -6.5)" d="M 37 7 C 37.800781 7.398438 38.101563 8.5 37 9 C 38.398438 8.398438 38.699219 8.199219 40 8 C 39.800781 7.800781 39.800781 7.300781 39.300781 6.398438 C 38.5 4.898438 35.5 4 35 4 C 35.601563 5.601563 35.601563 6.300781 37 7 Z" stroke-linecap="round" />
</g>
<g transform="matrix(4.17 0 0 4.17 200.01 202.09)" id="surface1"  >
<path style="stroke: none; stroke-width: 1; stroke-dasharray: none; stroke-linecap: butt; stroke-dashoffset: 0; stroke-linejoin: miter; stroke-miterlimit: 4; fill: rgb(245,124,0); fill-rule: nonzero; opacity: 1;"  transform=" translate(-24, -24.5)" d="M 46.699219 13.898438 C 46.300781 13.300781 44.898438 11.898438 44.5 11.398438 C 44.300781 11.101563 43.800781 10.199219 43 9.5 C 41.898438 8.601563 41 8 40 8 C 40 8 39.800781 8 39.601563 8 C 37.199219 5.101563 33 5 33 5 C 33 5 33.800781 8.5 37.101563 8.898438 C 37.101563 9 37 9 37 9 C 35.5 9.699219 36 13 33 13 C 33 13 25.898438 8 22 8 C 12.199219 8 11.5 20.898438 11 24 C 10.5 27.101563 8.300781 35 5 35 C 2.5 35 1 32 1 32 C 1 32 2.898438 37 6 37 C 9.101563 37 13 33.199219 15 26 C 15.800781 23.199219 16 22 16 22 C 16 22 19.300781 25.300781 19 28 C 18.699219 30.699219 15 33.601563 15 35 C 15 36.398438 18 42 18 42 C 18 42 18.601563 43.898438 21 44 C 23.398438 44.101563 22 42 22 42 C 22 42 19 36.699219 19 36 C 19 35.300781 25 29 25 29 C 25 29 27.398438 27.199219 28.5 24.800781 C 29 24.898438 29.601563 25 30 25 C 30.699219 25 31.398438 24.898438 31.898438 24.800781 L 33 27.199219 C 33 27.398438 32.898438 27.601563 32.800781 27.800781 C 32.601563 27.898438 32.398438 28 32 28 C 31.398438 28 31 28.398438 31 29 C 31 29.601563 31.398438 30 32 30 C 33.199219 30 33.898438 29.5 34.300781 29.101563 C 35 28.300781 35 27.199219 35 27 L 35 23.300781 C 36.101563 22.601563 37.5 21.800781 38 21 C 38.898438 19.601563 39 17 39 17 C 39 17 39.199219 16.601563 39.601563 16.199219 C 40.800781 17.398438 42.800781 16.800781 43.398438 16.699219 L 45.5 17 C 45.898438 17.101563 46.300781 16.898438 46.5 16.5 C 46.699219 16.199219 47.398438 15.101563 46.699219 13.898438 Z" stroke-linecap="round" />
</g>
<g transform="matrix(4.17 0 0 4.17 181.04 212.45)" id="surface1"  >
<path style="stroke: none; stroke-width: 1; stroke-dasharray: none; stroke-linecap: butt; stroke-dashoffset: 0; stroke-linejoin: miter; stroke-miterlimit: 4; fill: rgb(255,167,38); fill-rule: nonzero; opacity: 1;"  transform=" translate(-19.45, -26.99)" d="M 31.898438 24.800781 C 31.398438 24.898438 30.800781 25 30 25 C 29.601563 25 29 24.898438 28.5 24.800781 C 29.5 22.5 29.300781 19.699219 25 17 C 25 17 26.898438 16.601563 29.601563 19.101563 C 31.101563 20.5 32.5 20.601563 32.898438 20.5 L 31.398438 21.601563 C 31 21.898438 30.898438 22.398438 31.101563 22.800781 Z M 15 26 C 15.800781 23.199219 16 22 16 22 C 16 22 19.300781 25.300781 19 28 C 18.898438 29.300781 17.898438 30.699219 17 31.898438 C 18.199219 30.300781 22 26.898438 20 22 C 18.699219 18.898438 14.300781 16.5 14 19 C 12.199219 35.898438 6 37 6 37 C 9.101563 37 13 33.199219 15 26 Z" stroke-linecap="round" />
</g>
<g transform="matrix(4.17 0 0 4.17 272.92 147.92)" id="surface1"  >
<path style="stroke: none; stroke-width: 1; stroke-dasharray: none; stroke-linecap: butt; stroke-dashoffset: 0; stroke-linejoin: miter; stroke-miterlimit: 4; fill: rgb(78,52,46); fill-rule: nonzero; opacity: 1;"  transform=" translate(-41.5, -11.5)" d="M 43 11 C 43 11.601563 42.300781 12 41.5 12 C 40.699219 12 40 11.601563 40 11 Z" stroke-linecap="round" />
</g>
<g transform="matrix(4.17 0 0 4.17 233.43 219.17)" id="surface1"  >
<path style="stroke: none; stroke-width: 1; stroke-dasharray: none; stroke-linecap: butt; stroke-dashoffset: 0; stroke-linejoin: miter; stroke-miterlimit: 4; fill: rgb(121,85,72); fill-rule: nonzero; opacity: 1;"  transform=" translate(-32.02, -28.6)" d="M 22 42 C 22 42 23.398438 44.101563 21 44 C 18.601563 43.898438 18 42 18 42 C 18 42 17.5 41.101563 17 40 L 20.898438 40 C 21.5 41.101563 22 42 22 42 Z M 32.898438 27 L 33 27.199219 C 33 27.398438 32.898438 27.601563 32.800781 27.800781 C 32.601563 27.898438 32.398438 28 32 28 C 31.398438 28 31 28.398438 31 29 C 31 29.601563 31.398438 30 32 30 C 33.199219 30 33.898438 29.601563 34.300781 29.199219 C 35.199219 28.199219 35 27.300781 35 27 Z M 45 15 C 45 15.800781 45.5 16.5 46.199219 16.800781 C 46.300781 16.699219 46.398438 16.601563 46.5 16.5 C 46.699219 16.199219 47.5 15.101563 46.699219 13.898438 C 46.601563 13.699219 46.398438 13.5 46.101563 13.199219 C 45.5 13.601563 45 14.199219 45 15 Z" stroke-linecap="round" />
</g>
</svg>