<?xml version="1.0" encoding="UTF-8" standalone="no" ?>
<!DOCTYPE svg PUBLIC "-//W3C//DTD SVG 1.1//EN" "http://www.w3.org/Graphics/SVG/1.1/DTD/svg11.dtd">
<svg xmlns="http://www.w3.org/2000/svg" xmlns:xlink="http://www.w3.org/1999/xlink" version="1.1" width="400" height="400" viewBox="0 0 400 400" xml:space="preserve">
<desc>Created with Fabric.js 3.6.2</desc>
<defs>
</defs>
<g transform="matrix(4.17 0 0 4.17 227.08 131.25)" id="Layer_1"  >
<circle style="stroke: none; stroke-width: 1; stroke-dasharray: none; stroke-linecap: butt; stroke-dashoffset: 0; stroke-linejoin: miter; stroke-miterlimit: 4; fill: rgb(97,97,97); fill-rule: nonzero; opacity: 1;"  cx="0" cy="0" r="3.5" />
</g>
<g transform="matrix(4.17 0 0 4.17 254.17 202.08)" id="Layer_1"  >
<path style="stroke: none; stroke-width: 1; stroke-dasharray: none; stroke-linecap: butt; stroke-dashoffset: 0; stroke-linejoin: miter; stroke-miterlimit: 4; fill: rgb(158,158,158); fill-rule: nonzero; opacity: 1;"  transform=" translate(-37, -24.5)" d="M 38.001 26 c -0.367 0 -0.72 -0.202 -0.896 -0.553 L 36.882 25 H 36 c -0.553 0 -1 -0.447 -1 -1 s 0.447 -1 1 -1 h 0.882 c 0.764 0 1.449 0.424 1.789 1.106 l 0.224 0.446 c 0.247 0.494 0.047 1.095 -0.447 1.342 C 38.304 25.966 38.151 26 38.001 26 z" stroke-linecap="round" />
</g>
<g transform="matrix(4.17 0 0 4.17 247.66 218.75)" id="Layer_1"  >
<path style="stroke: none; stroke-width: 1; stroke-dasharray: none; stroke-linecap: butt; stroke-dashoffset: 0; stroke-linejoin: miter; stroke-miterlimit: 4; fill: rgb(189,189,189); fill-rule: nonzero; opacity: 1;"  transform=" translate(-35.44, -28.5)" d="M 37.001 30 c -0.367 0 -0.72 -0.202 -0.896 -0.553 L 35.882 29 h -2.007 c -0.553 0 -1 -0.447 -1 -1 s 0.447 -1 1 -1 h 2.007 c 0.764 0 1.449 0.424 1.789 1.106 l 0.224 0.446 c 0.247 0.494 0.047 1.095 -0.447 1.342 C 37.304 29.966 37.151 30 37.001 30 z" stroke-linecap="round" />
</g>
<g transform="matrix(4.17 0 0 4.17 239.58 197.92)" id="Layer_1"  >
<path style="stroke: none; stroke-width: 1; stroke-dasharray: none; stroke-linecap: butt; stroke-dashoffset: 0; stroke-linejoin: miter; stroke-miterlimit: 4; fill: rgb(97,97,97); fill-rule: nonzero; opacity: 1;"  transform=" translate(-33.5, -23.5)" d="M 31 26 c 0 0 1.18 0 2.375 0 c 1 0 2.375 -0.75 2.625 -1 v -2 c -2.5 0 -4 -2 -4 -2 h -1 V 26 z" stroke-linecap="round" />
</g>
<g transform="matrix(4.17 0 0 4.17 206.25 195.83)" id="Layer_1"  >
<path style="stroke: none; stroke-width: 1; stroke-dasharray: none; stroke-linecap: butt; stroke-dashoffset: 0; stroke-linejoin: miter; stroke-miterlimit: 4; fill: rgb(117,117,117); fill-rule: nonzero; opacity: 1;"  transform=" translate(-25.5, -23)" d="M 43.969 7 H 33 c -3.755 0 -5.991 2.116 -6 3.989 c 0 0.007 -0.003 0.014 -0.008 0.019 c 0 0 -2.128 1.945 -8.545 3.527 c 0 0 -0.017 0.018 -0.022 0.024 C 11.845 16.351 7 22.352 7 29.5 c 0 1.25 0 1.986 0 2 c 0 4.142 3.358 7.5 7.5 7.5 c 0 0 12.5 -0.016 12.5 -0.034 c -0.018 -1.617 -1.315 -2.927 -2.927 -2.965 C 24.046 36 22.999 36.012 23.023 36 c 3.945 -1.949 4.863 -7.265 4.977 -9 c 0 0 1.5 2 6 2 c 0.012 0 1.008 -1.997 1 -2 c -1.5 -0.5 -3 -2.125 -3 -5 c 0 -3 0.832 -4.611 2.005 -5.002 C 40 15 44 10.999 44 9 V 7.031 C 44 7.014 43.986 7 43.969 7 z" stroke-linecap="round" />
</g>
<g transform="matrix(2.89 -3 3 2.89 252.6 141.15)" id="Layer_1"  >
<ellipse style="stroke: none; stroke-width: 1; stroke-dasharray: none; stroke-linecap: butt; stroke-dashoffset: 0; stroke-linejoin: miter; stroke-miterlimit: 4; fill: rgb(0,0,0); fill-rule: nonzero; opacity: 1;"  cx="0" cy="0" rx="1" ry="1" />
</g>
<g transform="matrix(4.17 0 0 4.17 210.35 135.42)" id="Layer_1"  >
<path style="stroke: none; stroke-width: 1; stroke-dasharray: none; stroke-linecap: butt; stroke-dashoffset: 0; stroke-linejoin: miter; stroke-miterlimit: 4; fill: rgb(158,158,158); fill-rule: nonzero; opacity: 1;"  transform=" translate(-26.48, -8.5)" d="M 29.68 5.32 c -1.76 -1.76 -4.6 -1.76 -6.36 0 c -1.76 1.76 -1.76 4.6 0 6.36 c 1.27 1.27 3.1 1.62 4.68 1.07 c 0 -0.8 0.17 -1.61 0.51 -2.35 c 0.18 -0.4 0.41 -0.77 0.69 -1.11 c 0.46 -0.55 1.05 -1 1.77 -1.28 C 30.87 7.03 30.43 6.07 29.68 5.32 z" stroke-linecap="round" />
</g>
<g transform="matrix(4.17 0 0 4.17 212.91 136.29)" id="Layer_1"  >
<path style="stroke: none; stroke-width: 1; stroke-dasharray: none; stroke-linecap: butt; stroke-dashoffset: 0; stroke-linejoin: miter; stroke-miterlimit: 4; fill: rgb(255,205,210); fill-rule: nonzero; opacity: 1;"  transform=" translate(-27.1, -8.71)" d="M 29.2 9.29 c -0.28 0.34 -0.51 0.71 -0.69 1.11 c -0.79 0.05 -1.85 0.01 -2.7 -0.47 c -0.76 -0.41 -1.03 -1.37 -0.62 -2.12 c 0.42 -0.76 1.37 -1.03 2.13 -0.61 C 28.2 7.69 28.82 8.59 29.2 9.29 z" stroke-linecap="round" />
</g>
<g transform="matrix(4.17 0 0 4.17 283.33 133.33)" id="Layer_1"  >
<circle style="stroke: none; stroke-width: 1; stroke-dasharray: none; stroke-linecap: butt; stroke-dashoffset: 0; stroke-linejoin: miter; stroke-miterlimit: 4; fill: rgb(255,205,210); fill-rule: nonzero; opacity: 1;"  cx="0" cy="0" r="1" />
</g>
<g transform="matrix(4.17 0 0 4.17 154.17 256.25)" id="Layer_1"  >
<path style="stroke: none; stroke-width: 1; stroke-dasharray: none; stroke-linecap: butt; stroke-dashoffset: 0; stroke-linejoin: miter; stroke-miterlimit: 4; fill: rgb(117,117,117); fill-rule: nonzero; opacity: 1;"  transform=" translate(-13, -37.5)" d="M 22.5 43 c -0.09 0 -3.5 0 -3.5 0 c -7 0 -13 -1.375 -13 -3.75 c 0 -1.75 3.125 -3.75 3.125 -3.75 L 10 35.25 V 31 H 7 c 0 2.25 -4 5 -4 8 c 0 2.25 0.5 5 15.5 5 c 0.236 0 3.91 0 4 0 c 0.276 0 0.5 -0.224 0.5 -0.5 C 23 43.224 22.776 43 22.5 43 z" stroke-linecap="round" />
</g>
</svg>