<?xml version="1.0" encoding="UTF-8" standalone="no" ?>
<!DOCTYPE svg PUBLIC "-//W3C//DTD SVG 1.1//EN" "http://www.w3.org/Graphics/SVG/1.1/DTD/svg11.dtd">
<svg xmlns="http://www.w3.org/2000/svg" xmlns:xlink="http://www.w3.org/1999/xlink" version="1.1" width="400" height="400" viewBox="0 0 400 400" xml:space="preserve">
<desc>Created with Fabric.js 3.6.2</desc>
<defs>
</defs>
<g transform="matrix(0.39 0 0 0.39 198.77 222.16)" id="Слой_1"  >
<path style="stroke: none; stroke-width: 1; stroke-dasharray: none; stroke-linecap: butt; stroke-dashoffset: 0; stroke-linejoin: miter; stroke-miterlimit: 4; fill: rgb(235,28,36); fill-rule: nonzero; opacity: 1;"  transform=" translate(-252.86, -312.74)" d="M 58.43 348.36 a 19.08 19.08 0 0 1 -15 -4 c -7.25 -5.75 -15.5 -16.25 -17 -22 a 37.84 37.84 0 0 1 -1.5 -8.25 l 2 -3.25 s 2.75 -12.5 3.75 -14.75 s 9 -16.25 11 -18.5 s 4 -3.5 11.75 -5 a 177.22 177.22 0 0 1 22.75 -3 c 7.75 -0.5 31.8 -0.69 65.5 2.25 c 36 3.15 51 5.75 88.49 6.38 c 79 1.33 125.51 1.87 133.51 0.87 s 44.5 2.25 51 4.75 s 33.5 6.75 42.5 12.25 s 18.75 11.5 21.5 18.5 a 27.47 27.47 0 0 1 1 18.25 c -1.5 5.17 -3.84 12 -8.25 14.75 a 21.68 21.68 0 0 1 -10.09 2.75 l -27.41 1.92 s 19.58 -60.5 -37.42 -61.5 s -35.33 65 -35.33 65 s -160.67 -1 -168.67 0 s -56.33 -0.34 -58.67 0 s -3.66 0.37 -3.66 0.37 s 19.29 -47.2 -9.67 -62 c -28.33 -14.53 -55.33 -4.33 -64 16 S 58.43 348.36 58.43 348.36 Z" stroke-linecap="round" />
</g>
<g transform="matrix(0.39 0 0 0.39 279.02 217.28)" id="Слой_1"  >
<path style="stroke: none; stroke-width: 1; stroke-dasharray: none; stroke-linecap: butt; stroke-dashoffset: 0; stroke-linejoin: miter; stroke-miterlimit: 4; fill: rgb(250,236,33); fill-rule: nonzero; opacity: 1;"  transform=" translate(-458.28, -300.24)" d="M 433.89 286.77 s 19.29 18.93 26.79 22.43 s 22 4.5 22 4.5 A 44.83 44.83 0 0 0 464.11 297 C 451.8 291.37 433.89 286.77 433.89 286.77 Z" stroke-linecap="round" />
</g>
<g transform="matrix(0.39 0 0 0.39 137.44 228.56)" id="Слой_1"  >
<circle style="stroke: none; stroke-width: 1; stroke-dasharray: none; stroke-linecap: butt; stroke-dashoffset: 0; stroke-linejoin: miter; stroke-miterlimit: 4; fill: rgb(102,102,102); fill-rule: nonzero; opacity: 1;"  cx="0" cy="0" r="19.7" />
</g>
<g transform="matrix(0.39 0 0 0.39 255.27 228.56)" id="Слой_1"  >
<circle style="stroke: none; stroke-width: 1; stroke-dasharray: none; stroke-linecap: butt; stroke-dashoffset: 0; stroke-linejoin: miter; stroke-miterlimit: 4; fill: rgb(102,102,102); fill-rule: nonzero; opacity: 1;"  cx="0" cy="0" r="19.7" />
</g>
<g transform="matrix(0.39 0 0 0.39 255.27 228.18)" id="Слой_1"  >
<path style="stroke: none; stroke-width: 1; stroke-dasharray: none; stroke-linecap: butt; stroke-dashoffset: 0; stroke-linejoin: miter; stroke-miterlimit: 4; fill: rgb(65,64,66); fill-rule: nonzero; opacity: 1;"  transform=" translate(-397.48, -328.13)" d="M 397.48 291.43 a 36.7 36.7 0 1 0 36.7 36.7 A 36.7 36.7 0 0 0 397.48 291.43 Z m 0 67.4 a 30.7 30.7 0 1 1 30.7 -30.7 A 30.7 30.7 0 0 1 397.48 358.83 Z" stroke-linecap="round" />
</g>
<g transform="matrix(0.39 0 0 0.39 137.44 228.18)" id="Слой_1"  >
<path style="stroke: none; stroke-width: 1; stroke-dasharray: none; stroke-linecap: butt; stroke-dashoffset: 0; stroke-linejoin: miter; stroke-miterlimit: 4; fill: rgb(65,64,66); fill-rule: nonzero; opacity: 1;"  transform=" translate(-95.84, -328.13)" d="M 95.84 291.43 a 36.7 36.7 0 1 0 36.7 36.7 A 36.7 36.7 0 0 0 95.84 291.43 Z m 0 67.4 a 30.7 30.7 0 1 1 30.7 -30.7 A 30.71 30.71 0 0 1 95.84 358.83 Z" stroke-linecap="round" />
</g>
<g transform="matrix(0.39 0 0 0.39 282.6 234.36)" id="Слой_1"  >
<path style="stroke: none; stroke-width: 1; stroke-dasharray: none; stroke-linecap: butt; stroke-dashoffset: 0; stroke-linejoin: miter; stroke-miterlimit: 4; fill: rgb(77,77,77); fill-rule: nonzero; opacity: 1;"  transform=" translate(-467.45, -343.96)" d="M 501.2 339.12 c -1.86 -5.55 -15.46 -7.33 -21 -7.83 c -0.14 0.71 -0.32 1.4 -0.51 2.08 c -1.5 5.17 -3.84 12 -8.25 14.75 a 21.68 21.68 0 0 1 -10.09 2.75 l -27.41 1.92 a 79.77 79.77 0 0 0 3 -15.69 l -0.24 0 l -3.47 19.53 h 63.33 S 503.54 346.12 501.2 339.12 Z" stroke-linecap="round" />
</g>
<g transform="matrix(0.39 0 0 0.39 282.57 234.37)" id="Слой_1"  >
<path style="stroke: none; stroke-width: 1; stroke-dasharray: none; stroke-linecap: butt; stroke-dashoffset: 0; stroke-linejoin: miter; stroke-miterlimit: 4; fill: rgb(102,102,102); fill-rule: nonzero; opacity: 1;"  transform=" translate(-467.38, -343.98)" d="M 496.77 357.17 H 432.58 l 0.68 -3.84 h 0 l 0.09 -0.27 l 2.92 -16.37 l 1.21 -0.18 l -0.06 0.63 a 82.59 82.59 0 0 1 -2.77 15.09 l 26.7 -1.87 a 21.26 21.26 0 0 0 9.85 -2.67 c 4.15 -2.59 6.47 -9.09 8 -14.47 c 0.19 -0.65 0.36 -1.34 0.51 -2 l 0.09 -0.43 l 0.44 0 c 7.2 0.64 19.56 2.56 21.43 8.16 h 0 c 2.4 7.15 -4.46 17.55 -4.75 18 Z m -63 -1 h 62.46 c 1 -1.55 6.55 -10.75 4.49 -16.89 h 0 c -1.75 -5.23 -15.31 -7 -20.13 -7.45 c -0.13 0.58 -0.28 1.14 -0.43 1.68 c -1.72 5.89 -4.06 12.29 -8.47 15 a 22 22 0 0 1 -10.35 2.82 l -27 1.89 Z" stroke-linecap="round" />
</g>
<g transform="matrix(0.39 0 0 0.39 115.02 234.37)" id="Слой_1"  >
<path style="stroke: none; stroke-width: 1; stroke-dasharray: none; stroke-linecap: butt; stroke-dashoffset: 0; stroke-linejoin: miter; stroke-miterlimit: 4; fill: rgb(77,77,77); fill-rule: nonzero; opacity: 1;"  transform=" translate(-38.46, -343.98)" d="M 29.42 331.29 S 17.68 340 16.68 346.48 s 0 10.19 0 10.19 h 44 l -2.25 -7.94 s -10.27 0.27 -15 -4 S 29.42 331.29 29.42 331.29 Z" stroke-linecap="round" />
</g>
<g transform="matrix(0.39 0 0 0.39 115.06 234.34)" id="Слой_1"  >
<path style="stroke: none; stroke-width: 1; stroke-dasharray: none; stroke-linecap: butt; stroke-dashoffset: 0; stroke-linejoin: miter; stroke-miterlimit: 4; fill: rgb(102,102,102); fill-rule: nonzero; opacity: 1;"  transform=" translate(-38.54, -343.91)" d="M 61.34 357.17 H 16.29 l -0.1 -0.37 c 0 -0.16 -1 -3.87 0 -10.4 s 12.46 -15.15 12.94 -15.51 l 0.35 -0.25 l 0.3 0.3 c 0.1 0.09 9.32 9.2 14 13.42 s 14.55 3.87 14.65 3.87 h 0.39 Z m -44.26 -1 H 60 l -2 -6.93 c -1.95 0 -10.61 -0.21 -15 -4.14 S 31 333.58 29.38 332 c -1.92 1.47 -11.35 9 -12.21 14.6 A 29 29 0 0 0 17.08 356.17 Z" stroke-linecap="round" />
</g>
<g transform="matrix(0.39 0 0 0.39 142.38 201.97)" id="Слой_1"  >
<path style="stroke: none; stroke-width: 1; stroke-dasharray: none; stroke-linecap: butt; stroke-dashoffset: 0; stroke-linejoin: miter; stroke-miterlimit: 4; fill: rgb(77,77,77); fill-rule: nonzero; opacity: 1;"  transform=" translate(-108.48, -261.04)" d="M 158.78 252.59 l -89.94 1.09 L 58.18 262 l 15.5 7.49 h 36.16 s 0 -1.79 24.59 -9.69 C 153.14 253.78 158.78 252.59 158.78 252.59 Z" stroke-linecap="round" />
</g>
<g transform="matrix(0.39 0 0 0.39 142.21 201.98)" id="Слой_1"  >
<path style="stroke: none; stroke-width: 1; stroke-dasharray: none; stroke-linecap: butt; stroke-dashoffset: 0; stroke-linejoin: miter; stroke-miterlimit: 4; fill: rgb(102,102,102); fill-rule: nonzero; opacity: 1;"  transform=" translate(-108.05, -261.07)" d="M 110.33 270 L 73.46 270 l -16.23 -7.83 l 11.44 -8.94 h 0.17 l 89.93 -1.09 l 0.11 1 s -5.85 1.26 -24.3 7.21 c -20.86 6.72 -23.84 8.95 -24.24 9.37 Z m -36.54 -1 h 35.83 c 2.12 -2.17 16.08 -6.9 24.65 -9.66 c 10.36 -3.34 16.75 -5.2 20.37 -6.2 l -85.62 1 l -9.9 7.73 Z" stroke-linecap="round" />
</g>
<g transform="matrix(0.39 0 0 0.39 120.51 198.54)" id="Слой_1"  >
<path style="stroke: none; stroke-width: 1; stroke-dasharray: none; stroke-linecap: butt; stroke-dashoffset: 0; stroke-linejoin: miter; stroke-miterlimit: 4; fill: rgb(77,77,77); fill-rule: nonzero; opacity: 1;"  transform=" translate(-52.51, -252.26)" d="M 36.18 242.56 v 19.37 l 22 0.08 l 10.66 -8.33 s -6.91 -9.25 -9.66 -10.37 S 36.18 242.56 36.18 242.56 Z" stroke-linecap="round" />
</g>
<g transform="matrix(0.39 0 0 0.39 120.55 198.54)" id="Слой_1"  >
<path style="stroke: none; stroke-width: 1; stroke-dasharray: none; stroke-linecap: butt; stroke-dashoffset: 0; stroke-linejoin: miter; stroke-miterlimit: 4; fill: rgb(102,102,102); fill-rule: nonzero; opacity: 1;"  transform=" translate(-52.61, -252.27)" d="M 58.35 262.52 l -22.67 -0.09 V 242.07 h 0.49 c 0.83 0 20.38 -0.37 23.2 0.78 S 69 253 69.24 253.38 l 0.3 0.39 Z m -21.67 -1.09 l 21.32 0.08 l 10.15 -7.92 c -2.12 -2.78 -7.12 -9 -9.16 -9.82 s -16.37 -0.82 -22.31 -0.72 Z" stroke-linecap="round" />
</g>
<g transform="matrix(0.39 0 0 0.39 193.23 201.05)" id="Слой_1"  >
<path style="stroke: none; stroke-width: 1; stroke-dasharray: none; stroke-linecap: butt; stroke-dashoffset: 0; stroke-linejoin: miter; stroke-miterlimit: 4; fill: rgb(128,128,128); fill-rule: nonzero; opacity: 1;"  transform=" translate(-238.67, -258.68)" d="M 103.84 267.82 s 52.67 -26 129 -28.32 S 373.5 277.2 373.5 277.2 s -57.66 1.71 -129.66 0 S 103.84 267.82 103.84 267.82 Z" stroke-linecap="round" />
</g>
<g transform="matrix(0.39 0 0 0.39 200.34 222.14)" id="Слой_1"  >
<path style="stroke: none; stroke-width: 1; stroke-dasharray: none; stroke-linecap: butt; stroke-dashoffset: 0; stroke-linejoin: miter; stroke-miterlimit: 4; fill: rgb(51,51,51); fill-rule: nonzero; opacity: 1;"  transform=" translate(-256.87, -312.68)" d="M 131.91 357.62 l 0.88 -2.14 c 0.18 -0.46 18.43 -46.1 -9 -60.15 c -13.94 -7.14 -28.46 -8.61 -40.88 -4.11 a 35.48 35.48 0 0 0 -21 19.37 c -8.27 19.41 1.73 36.72 1.83 36.9 l 1 1.77 l -2 0.45 a 20.47 20.47 0 0 1 -16.27 -4.29 c -7.77 -6.16 -16 -16.81 -17.52 -22.79 A 38.6 38.6 0 0 1 27.43 314 v -0.42 l 2.09 -3.4 c 0.46 -2.1 2.8 -12.58 3.78 -14.79 S 42.37 279 44.55 276.5 s 4.61 -3.93 12.59 -5.47 a 180.05 180.05 0 0 1 22.94 -3 c 7.93 -0.51 31.89 -0.7 65.73 2.26 c 9.69 0.84 18 1.66 25.35 2.39 c 20.71 2 35.68 3.52 63 4 c 76.34 1.29 125.27 1.88 133.29 0.88 c 7.78 -1 44.74 2.15 51.72 4.84 a 128.68 128.68 0 0 0 12.63 3.21 C 442.57 288 455.92 291 462 294.72 c 9 5.49 19.16 11.71 22.11 19.23 a 29.22 29.22 0 0 1 1.05 19.22 c -1.77 6.07 -4.2 12.68 -8.9 15.6 a 23 23 0 0 1 -10.82 3 l -29.58 2.07 l 0.68 -2.11 c 0.09 -0.29 8.95 -28.36 -3.45 -45.71 c -6.37 -8.91 -17.33 -13.57 -32.57 -13.83 c -14.42 -0.27 -24.82 3.87 -31 12.25 c -13.37 18.12 -3 50.46 -2.87 50.78 l 0.65 2 h -2.08 c -1.61 0 -160.66 -1 -168.47 0 c -5.19 0.64 -26.56 0.34 -42.16 0.11 c -8 -0.11 -15.63 -0.22 -16.49 -0.12 a 37.9 37.9 0 0 1 -3.82 0.39 Z m 8.56 -3.51 c 2.69 0 7.29 0.06 14.12 0.16 c 15.51 0.23 36.75 0.53 41.73 -0.09 c 7.61 -0.95 147.35 -0.14 166.83 0 c -2.14 -7.57 -8.54 -34.63 3.91 -51.51 c 6.79 -9.21 18.06 -13.75 33.48 -13.47 c 16.24 0.28 28 5.36 35 15.1 c 5.51 7.72 7.92 18.55 7 31.31 A 84.31 84.31 0 0 1 440 350.52 l 25.38 -1.77 a 20.25 20.25 0 0 0 9.29 -2.52 c 3.86 -2.41 6.09 -8.69 7.61 -13.9 a 26 26 0 0 0 -1 -17.28 c -2.59 -6.59 -12.31 -12.53 -20.89 -17.77 c -5.61 -3.43 -19.26 -6.53 -29.22 -8.79 a 127.77 127.77 0 0 1 -13 -3.34 c -6 -2.32 -42.21 -5.66 -50.28 -4.66 c -8.23 1 -55.26 0.46 -133.71 -0.86 c -27.49 -0.46 -43.29 -2 -63.29 -4 c -7.33 -0.72 -15.64 -1.54 -25.32 -2.39 c -33.65 -2.93 -57.41 -2.75 -65.27 -2.24 a 176 176 0 0 0 -22.56 3 c -7.76 1.51 -9.3 2.71 -10.91 4.53 c -1.86 2.08 -9.75 15.85 -10.75 18.11 c -0.69 1.55 -2.57 9.5 -3.66 14.46 l 0 0.25 l -1.89 3.07 a 42.86 42.86 0 0 0 1.43 7.48 c 1.37 5.27 9.38 15.58 16.48 21.21 A 17.89 17.89 0 0 0 60.09 347 c -2.54 -5.35 -8.22 -20.54 -1 -37.58 a 38.49 38.49 0 0 1 22.79 -21 c 13.21 -4.77 28.58 -3.26 43.27 4.28 c 12.43 6.37 18.14 19.53 16.51 38.05 a 99.86 99.86 0 0 1 -5.28 23.62 c 0.36 0 0.77 -0.09 1.21 -0.16 S 138.9 354.11 140.47 354.11 Z" stroke-linecap="round" />
</g>
<g transform="matrix(0.39 0 0 0.39 205.61 201.63)" id="Слой_1"  >
<path style="stroke: none; stroke-width: 1; stroke-dasharray: none; stroke-linecap: butt; stroke-dashoffset: 0; stroke-linejoin: miter; stroke-miterlimit: 4; fill: rgb(63,167,243); fill-rule: nonzero; opacity: 1;"  transform=" translate(-270.36, -260.18)" d="M 213.19 242.12 c -2 0.19 -32.51 5.68 -39 15.18 a 75.67 75.67 0 0 0 -9 17.15 s 99.5 5.11 143.51 4.81 s 66.82 -0.75 66.82 -0.75 s -45.65 -26.09 -88.24 -33.15 S 213.19 242.12 213.19 242.12 Z" stroke-linecap="round" />
</g>
<g transform="matrix(0.39 0 0 0.39 284.09 234.15)" id="Слой_1"  >
<path style="stroke: none; stroke-width: 1; stroke-dasharray: none; stroke-linecap: butt; stroke-dashoffset: 0; stroke-linejoin: miter; stroke-miterlimit: 4; fill: rgb(51,51,51); fill-rule: nonzero; opacity: 1;"  transform=" translate(-471.26, -343.43)" d="M 501.31 357.69 H 435.38 l 0.67 -3.75 l -0.23 0 l 0.52 -1.61 l 3 -17 l 3.18 -0.47 l -0.17 1.9 a 83.87 83.87 0 0 1 -2.42 13.9 l 25.38 -1.77 a 20.25 20.25 0 0 0 9.29 -2.52 c 3.86 -2.41 6.09 -8.69 7.61 -13.9 c 0.18 -0.63 0.35 -1.29 0.49 -2 l 0.27 -1.3 l 1.33 0.12 c 7.44 0.67 20.23 2.7 22.29 8.84 h 0 c 2.55 7.61 -4.56 18.4 -4.87 18.86 Z m -62.34 -3 h 60.71 c 1.42 -2.34 5.86 -10.29 4.1 -15.57 h 0 c -1 -3.08 -8 -5.61 -18.42 -6.69 l -0.24 0.88 c -1.77 6.07 -4.2 12.68 -8.9 15.6 a 23 23 0 0 1 -10.82 3 l -26.26 1.84 Z" stroke-linecap="round" />
</g>
<g transform="matrix(0.39 0 0 0.39 196.7 201.65)" id="Слой_1"  >
<path style="stroke: none; stroke-width: 1; stroke-dasharray: none; stroke-linecap: butt; stroke-dashoffset: 0; stroke-linejoin: miter; stroke-miterlimit: 4; fill: rgb(51,51,51); fill-rule: nonzero; opacity: 1;"  transform=" translate(-247.55, -260.22)" d="M 318.25 281 c -19.22 0 -41.58 -0.19 -65.44 -0.75 c -71.25 -1.69 -139.45 -9.32 -140.14 -9.4 l -5.08 -0.57 l 4.59 -2.26 c 0.53 -0.26 53.83 -26.16 129.62 -28.48 c 76 -2.31 140.84 37.53 141.49 37.93 l 4.22 2.63 l -5 0.14 C 382.16 280.22 356.4 281 318.25 281 Z M 118.52 268.42 c 17.62 1.83 74.94 7.38 134.36 8.79 c 58.69 1.38 108.33 0.49 124.24 0.13 c -16 -8.85 -71.78 -36.78 -135.23 -34.84 C 180 244.39 133.38 262.08 118.52 268.42 Z" stroke-linecap="round" />
</g>
<g transform="matrix(0.39 0 0 0.39 143.04 201.9)" id="Слой_1"  >
<path style="stroke: none; stroke-width: 1; stroke-dasharray: none; stroke-linecap: butt; stroke-dashoffset: 0; stroke-linejoin: miter; stroke-miterlimit: 4; fill: rgb(51,51,51); fill-rule: nonzero; opacity: 1;"  transform=" translate(-110.19, -260.87)" d="M 114.3 270.82 h -38 l -18 -8.69 l 13 -10.12 l 90.44 -1.1 l 0.33 3 c -0.05 0 -5.85 1.28 -24.2 7.19 c -18 5.8 -22.51 8.21 -23.57 8.92 Z m -37.28 -3 h 35.23 c 1.83 -1.44 7.45 -4.06 24.72 -9.62 c 5.49 -1.77 9.86 -3.12 13.3 -4.15 l -77.9 0.94 L 64 261.53 Z" stroke-linecap="round" />
</g>
<g transform="matrix(0.39 0 0 0.39 173.16 219.85)" id="Слой_1"  >
<path style="stroke: none; stroke-width: 1; stroke-dasharray: none; stroke-linecap: butt; stroke-dashoffset: 0; stroke-linejoin: miter; stroke-miterlimit: 4; fill: rgb(124,21,29); fill-rule: nonzero; opacity: 1;"  transform=" translate(-187.3, -306.82)" d="M 35.61 284.82 s 24.57 -10.88 59.07 -8.88 s 80.5 16 170 27 c 80.2 9.86 81.5 35 81.5 35 H 156.78 s 13.9 -29.5 -3.6 -41 s -42.52 -24.07 -84 -14.5 c -26 6 -40.76 17.2 -40.76 17.2 Z" stroke-linecap="round" />
</g>
<g transform="matrix(0.39 0 0 0.39 121.79 198.47)" id="Слой_1"  >
<path style="stroke: none; stroke-width: 1; stroke-dasharray: none; stroke-linecap: butt; stroke-dashoffset: 0; stroke-linejoin: miter; stroke-miterlimit: 4; fill: rgb(51,51,51); fill-rule: nonzero; opacity: 1;"  transform=" translate(-55.78, -252.08)" d="M 61.69 263.33 l -24 -0.09 V 240.9 l 1.47 0 c 3.43 -0.07 20.7 -0.33 23.59 0.86 S 71.85 251 73 252.6 l 0.88 1.18 Z m -21 -3.07 l 20 0.07 l 9.09 -7.1 c -2.78 -3.6 -6.68 -8.12 -8.14 -8.72 s -11.53 -0.8 -20.93 -0.66 Z" stroke-linecap="round" />
</g>
<g transform="matrix(0.39 0 0 0.39 174.63 220.07)" id="Слой_1"  >
<path style="stroke: none; stroke-width: 1; stroke-dasharray: none; stroke-linecap: butt; stroke-dashoffset: 0; stroke-linejoin: miter; stroke-miterlimit: 4; fill: rgb(51,51,51); fill-rule: nonzero; opacity: 1;"  transform=" translate(-191.04, -307.38)" d="M 352.75 340 H 159.42 l 1 -2.14 c 0.14 -0.28 13.14 -28.46 -3.07 -39.11 c -18.6 -12.22 -43 -23.48 -82.84 -14.29 c -25.34 5.85 -40 16.82 -40.18 16.93 l -5 3.77 L 39.5 284.22 L 40 284 c 0.25 -0.11 25.29 -11 59.76 -9 c 16.15 0.94 35.08 4.54 59 9.1 c 28.18 5.36 63.25 12 111.06 17.91 c 80.53 9.9 82.76 35.33 82.81 36.41 Z m -188.7 -3 H 349.24 c -2.1 -5.5 -14 -23.93 -79.75 -32 c -47.91 -5.89 -83 -12.57 -111.25 -17.94 c -11.13 -2.12 -21.17 -4 -30.33 -5.56 c 12.26 3.42 22.3 9 31.09 14.76 c 7.68 5 10.8 14.13 9 26.28 A 65.61 65.61 0 0 1 164.05 337 Z M 41.71 286.54 l -4.56 9.4 a 126.94 126.94 0 0 1 36.69 -14.4 a 127.52 127.52 0 0 1 27.2 -3.45 L 99.59 278 C 68.52 276.2 45.35 285.05 41.71 286.54 Z" stroke-linecap="round" />
</g>
<g transform="matrix(0.39 0 0 0.39 208.99 201.72)" id="Слой_1"  >
<path style="stroke: none; stroke-width: 1; stroke-dasharray: none; stroke-linecap: butt; stroke-dashoffset: 0; stroke-linejoin: miter; stroke-miterlimit: 4; fill: rgb(51,51,51); fill-rule: nonzero; opacity: 1;"  transform=" translate(-279.01, -260.41)" d="M 311.88 281 c -45.25 0 -138.82 -4.79 -139.79 -4.84 l -2 -0.1 l 0.61 -1.86 a 76.25 76.25 0 0 1 9.2 -17.53 C 187 246.3 218.69 241 220 240.83 h 0 c 0.32 0 32.19 -3.76 74.5 3.25 s 88.27 33.06 88.73 33.32 l 4.71 2.69 l -5.42 0.12 c -0.23 0 -23.33 0.46 -66.84 0.75 Z M 174.3 273.25 c 14.47 0.72 101.36 5 141.37 4.71 c 31.11 -0.21 51.78 -0.5 61.1 -0.65 c -12.95 -6.84 -49 -24.68 -82.75 -30.27 c -41.89 -6.94 -73.33 -3.27 -73.65 -3.24 h 0 c -2.42 0.22 -31.92 5.77 -37.92 14.54 A 80.63 80.63 0 0 0 174.3 273.25 Z" stroke-linecap="round" />
</g>
<g transform="matrix(0.39 0 0 0.39 278.55 217.37)" id="Слой_1"  >
<path style="stroke: none; stroke-width: 1; stroke-dasharray: none; stroke-linecap: butt; stroke-dashoffset: 0; stroke-linejoin: miter; stroke-miterlimit: 4; fill: rgb(51,51,51); fill-rule: nonzero; opacity: 1;"  transform=" translate(-457.1, -300.45)" d="M 485.36 316.19 l -2.79 -0.19 c -0.6 0 -14.86 -1.06 -22.53 -4.64 s -26.41 -21.94 -27.2 -22.72 l -4 -3.92 l 5.41 1.39 c 0.18 0.05 18.19 4.7 30.47 10.33 A 45.84 45.84 0 0 1 484 313.76 Z M 439.23 290.6 c 6.07 5.73 17 15.68 22.08 18 s 13.76 3.58 18.37 4.07 a 43.38 43.38 0 0 0 -16.2 -13.55 A 191.73 191.73 0 0 0 439.23 290.6 Z" stroke-linecap="round" />
</g>
<g transform="matrix(0.39 0 0 0.39 171.19 210.74)" id="Слой_1"  >
<path style="stroke: none; stroke-width: 1; stroke-dasharray: none; stroke-linecap: butt; stroke-dashoffset: 0; stroke-linejoin: miter; stroke-miterlimit: 4; fill: rgb(51,51,51); fill-rule: nonzero; opacity: 1;"  transform=" translate(-182.25, -283.49)" d="M 194.77 288 h -0.28 L 169.59 286 a 3.51 3.51 0 1 1 0.55 -7 L 195 281 a 3.51 3.51 0 0 1 -0.27 7 Z m -24.9 -6 a 0.54 0.54 0 0 0 -0.52 0.47 a 0.49 0.49 0 0 0 0.13 0.37 a 0.48 0.48 0 0 0 0.34 0.18 l 24.9 2 a 0.5 0.5 0 0 0 0.43 -0.84 a 0.52 0.52 0 0 0 -0.35 -0.18 L 169.91 282 Z" stroke-linecap="round" />
</g>
<g transform="matrix(0.39 0 0 0.39 138.61 228.68)" id="Слой_1"  >
<path style="stroke: none; stroke-width: 1; stroke-dasharray: none; stroke-linecap: butt; stroke-dashoffset: 0; stroke-linejoin: miter; stroke-miterlimit: 4; fill: rgb(51,51,51); fill-rule: nonzero; opacity: 1;"  transform=" translate(-98.84, -329.43)" d="M 98.84 350.63 a 21.2 21.2 0 1 1 21.2 -21.2 A 21.22 21.22 0 0 1 98.84 350.63 Z m 0 -39.39 A 18.2 18.2 0 1 0 117 329.43 A 18.22 18.22 0 0 0 98.84 311.24 Z" stroke-linecap="round" />
</g>
<g transform="matrix(0.39 0 0 0.39 256.44 228.68)" id="Слой_1"  >
<path style="stroke: none; stroke-width: 1; stroke-dasharray: none; stroke-linecap: butt; stroke-dashoffset: 0; stroke-linejoin: miter; stroke-miterlimit: 4; fill: rgb(51,51,51); fill-rule: nonzero; opacity: 1;"  transform=" translate(-400.48, -329.43)" d="M 400.48 350.63 a 21.2 21.2 0 1 1 21.2 -21.2 A 21.22 21.22 0 0 1 400.48 350.63 Z m 0 -39.39 a 18.2 18.2 0 1 0 18.2 18.19 A 18.21 18.21 0 0 0 400.48 311.24 Z" stroke-linecap="round" />
</g>
<g transform="matrix(0.39 0 0 0.39 116.68 234.09)" id="Слой_1"  >
<path style="stroke: none; stroke-width: 1; stroke-dasharray: none; stroke-linecap: butt; stroke-dashoffset: 0; stroke-linejoin: miter; stroke-miterlimit: 4; fill: rgb(51,51,51); fill-rule: nonzero; opacity: 1;"  transform=" translate(-42.7, -343.26)" d="M 66.66 357.69 H 19.53 l -0.3 -1.11 c -0.05 -0.16 -1.07 -4.07 0 -10.81 c 1.07 -6.91 12.09 -15.23 13.34 -16.16 l 1 -0.77 l 0.91 0.91 c 0.1 0.09 9.31 9.18 14 13.39 c 3.52 3.17 11.26 3.69 14 3.61 l 1.16 0 Z m -44.73 -3 H 62.69 l -1.4 -4.94 c -3 -0.07 -10.7 -0.62 -14.87 -4.39 c -3.82 -3.45 -10.64 -10.13 -13.12 -12.56 c -3.61 2.85 -10.47 9.06 -11.14 13.43 A 29.92 29.92 0 0 0 21.93 354.69 Z" stroke-linecap="round" />
</g>
<g transform="matrix(0.39 0 0 0.39 197.5 236.63)" id="Слой_1"  >
<path style="stroke: none; stroke-width: 1; stroke-dasharray: none; stroke-linecap: butt; stroke-dashoffset: 0; stroke-linejoin: miter; stroke-miterlimit: 4; fill: rgb(51,51,51); fill-rule: nonzero; opacity: 1;"  transform=" translate(-249.6, -349.77)" d="M 132.14 357.55 l 4.8 -15.55 H 363.55 l 3.51 15.16 Z m 7 -12.55 l -2.94 9.54 l 227.08 -0.37 L 361.16 345 Z" stroke-linecap="round" />
</g>
<g transform="matrix(0.39 0 0 0.39 256.44 228.68)" id="Слой_1"  >
<path style="stroke: none; stroke-width: 1; stroke-dasharray: none; stroke-linecap: butt; stroke-dashoffset: 0; stroke-linejoin: miter; stroke-miterlimit: 4; fill: rgb(51,51,51); fill-rule: nonzero; opacity: 1;"  transform=" translate(-400.48, -329.43)" d="M 400.48 367.63 a 38.2 38.2 0 1 1 38.2 -38.2 A 38.23 38.23 0 0 1 400.48 367.63 Z m 0 -73.39 a 35.2 35.2 0 1 0 35.2 35.19 A 35.24 35.24 0 0 0 400.48 294.24 Z m 0 67.39 a 32.2 32.2 0 1 1 32.2 -32.2 A 32.23 32.23 0 0 1 400.48 361.63 Z m 0 -61.39 a 29.2 29.2 0 1 0 29.2 29.19 A 29.23 29.23 0 0 0 400.48 300.24 Z" stroke-linecap="round" />
</g>
<g transform="matrix(0.39 0 0 0.39 138.61 228.68)" id="Слой_1"  >
<path style="stroke: none; stroke-width: 1; stroke-dasharray: none; stroke-linecap: butt; stroke-dashoffset: 0; stroke-linejoin: miter; stroke-miterlimit: 4; fill: rgb(51,51,51); fill-rule: nonzero; opacity: 1;"  transform=" translate(-98.84, -329.43)" d="M 98.84 367.63 a 38.2 38.2 0 1 1 38.2 -38.2 A 38.24 38.24 0 0 1 98.84 367.63 Z m 0 -73.39 A 35.2 35.2 0 1 0 134 329.43 A 35.24 35.24 0 0 0 98.84 294.24 Z m 0 67.39 a 32.2 32.2 0 1 1 32.2 -32.2 A 32.24 32.24 0 0 1 98.84 361.63 Z m 0 -61.39 A 29.2 29.2 0 1 0 128 329.43 A 29.23 29.23 0 0 0 98.84 300.24 Z" stroke-linecap="round" />
</g>
</svg>