<?xml version="1.0" encoding="UTF-8" standalone="no" ?>
<!DOCTYPE svg PUBLIC "-//W3C//DTD SVG 1.1//EN" "http://www.w3.org/Graphics/SVG/1.1/DTD/svg11.dtd">
<svg xmlns="http://www.w3.org/2000/svg" xmlns:xlink="http://www.w3.org/1999/xlink" version="1.1" width="400" height="400" viewBox="0 0 400 400" xml:space="preserve">
<desc>Created with Fabric.js 3.6.2</desc>
<defs>
</defs>
<g transform="matrix(0.39 0 0 0.39 152.23 226.04)" id="Слой_1"  >
<path style="stroke: none; stroke-width: 1; stroke-dasharray: none; stroke-linecap: butt; stroke-dashoffset: 0; stroke-linejoin: miter; stroke-miterlimit: 4; fill: rgb(128,128,128); fill-rule: nonzero; opacity: 1;"  transform=" translate(-133.72, -322.67)" d="M 133.72 311.58 a 11.09 11.09 0 1 0 11.09 11.09 A 11.09 11.09 0 0 0 133.72 311.58 Z" stroke-linecap="round" />
</g>
<g transform="matrix(0.39 0 0 0.39 271.93 226.04)" id="Слой_1"  >
<circle style="stroke: none; stroke-width: 1; stroke-dasharray: none; stroke-linecap: butt; stroke-dashoffset: 0; stroke-linejoin: miter; stroke-miterlimit: 4; fill: rgb(128,128,128); fill-rule: nonzero; opacity: 1;"  cx="0" cy="0" r="11.09" />
</g>
<g transform="matrix(0.39 0 0 0.39 152.22 226.15)" id="Слой_1"  >
<path style="stroke: none; stroke-width: 1; stroke-dasharray: none; stroke-linecap: butt; stroke-dashoffset: 0; stroke-linejoin: miter; stroke-miterlimit: 4; fill: rgb(51,51,51); fill-rule: nonzero; opacity: 1;"  transform=" translate(-133.69, -322.94)" d="M 133.72 280.63 A 42.31 42.31 0 1 0 176 322.94 A 42.31 42.31 0 0 0 133.72 280.63 Z m 0 70.61 A 28.3 28.3 0 1 1 162 322.94 A 28.3 28.3 0 0 1 133.72 351.24 Z" stroke-linecap="round" />
</g>
<g transform="matrix(0.39 0 0 0.39 271.93 226.15)" id="Слой_1"  >
<path style="stroke: none; stroke-width: 1; stroke-dasharray: none; stroke-linecap: butt; stroke-dashoffset: 0; stroke-linejoin: miter; stroke-miterlimit: 4; fill: rgb(51,51,51); fill-rule: nonzero; opacity: 1;"  transform=" translate(-440.13, -322.94)" d="M 440.13 280.63 a 42.31 42.31 0 1 0 42.31 42.31 A 42.31 42.31 0 0 0 440.13 280.63 Z m 0 70.61 a 28.3 28.3 0 1 1 28.31 -28.3 A 28.3 28.3 0 0 1 440.13 351.24 Z" stroke-linecap="round" />
</g>
<g transform="matrix(0.39 0 0 0.39 196.96 201.49)" id="Слой_1"  >
<path style="stroke: none; stroke-width: 1; stroke-dasharray: none; stroke-linecap: butt; stroke-dashoffset: 0; stroke-linejoin: miter; stroke-miterlimit: 4; fill: rgb(177,177,177); fill-rule: nonzero; opacity: 1;"  transform=" translate(-248.21, -259.83)" d="M 16.45 334.41 s -14.75 1.45 -17.64 0 s 3.42 -19.62 6.32 -23.31 s 13.7 -25.29 33.46 -39.78 s 36.1 -24 39 -25 s 4.74 -0.26 6.06 -3.42 S 96.3 215.77 124 202.18 s 45.32 -17.29 80.63 -19.92 s 66.66 5 72.19 7.38 s 7.91 3.68 10.54 7.11 s 24.77 29.77 24.77 29.77 s 55.11 2.11 84.73 5.8 s 45.69 5.8 63.61 16.07 s 36.1 27.14 37.68 45.32 a 44.87 44.87 0 0 1 -7.91 30 s -2.63 -57.7 -53 -55.33 s -45.84 52.19 -45.84 52.19 s 2.1 7.62 -5.27 8.94 S 334 329 330.53 329 s -3.95 -1.06 -8.69 -1.06 s -23.19 1.94 -32.41 3.74 s -50.33 1.27 -59.81 1.8 s -46.11 0.26 -46.11 0.26 s -6.46 -64.29 -50.79 -60.34 S 81.5 319 81.5 319 s 3.7 11.36 2.53 14 s -0.38 3.43 -7.76 4.61 s -38.2 -1.24 -38.2 -1.24 Z" stroke-linecap="round" />
</g>
<g transform="matrix(0.39 0 0 0.39 139.88 216.61)" id="Слой_1"  >
<path style="stroke: none; stroke-width: 1; stroke-dasharray: none; stroke-linecap: butt; stroke-dashoffset: 0; stroke-linejoin: miter; stroke-miterlimit: 4; fill: rgb(128,128,128); fill-rule: nonzero; opacity: 1;"  transform=" translate(-102.09, -298.53)" d="M 51.45 339.59 s -30.3 -1.32 -31.88 -1.85 s -8.7 -1.84 -8.7 -9.48 s 19.76 -27.67 49.54 -45.06 s 50.72 -25.29 73.31 -26.34 s 51.58 11.06 57.9 35.3 s -7.11 44.27 -7.11 44.27 s -1.58 -27.67 -11.86 -40.05 s -21 -20.82 -38.93 -20.29 S 101 284.87 93.87 295 s -12.38 26.18 -11.59 30.65 s 4.74 9 1.58 12.65 s -13.18 1.06 -18.18 1.32 S 51.45 339.59 51.45 339.59 Z" stroke-linecap="round" />
</g>
<g transform="matrix(0.39 0 0 0.39 259.57 213.74)" id="Слой_1"  >
<path style="stroke: none; stroke-width: 1; stroke-dasharray: none; stroke-linecap: butt; stroke-dashoffset: 0; stroke-linejoin: miter; stroke-miterlimit: 4; fill: rgb(128,128,128); fill-rule: nonzero; opacity: 1;"  transform=" translate(-408.51, -291.18)" d="M 325.79 330.05 s -6.15 -2.37 -6.85 -8.25 s 6.41 -16.52 23.45 -29.16 s 30 -22.75 57.26 -32.59 s 37.59 -9.83 45.32 -9.13 S 470.44 257 470.44 257 s 18.34 10 23 24 s 6 22.67 3.33 30 a 135.88 135.88 0 0 1 -6.58 14.75 S 490.12 271 439.45 271 s -48.05 51.61 -48.05 51.61 s 3.4 8.15 -5.27 8.93 S 325.79 330.05 325.79 330.05 Z" stroke-linecap="round" />
</g>
<g transform="matrix(0.39 0 0 0.39 214.52 184.8)" id="Слой_1"  >
<path style="stroke: none; stroke-width: 1; stroke-dasharray: none; stroke-linecap: butt; stroke-dashoffset: 0; stroke-linejoin: miter; stroke-miterlimit: 4; fill: rgb(41,169,224); fill-rule: nonzero; opacity: 1;"  transform=" translate(-293.17, -217.08)" d="M 285.34 197.7 s -11.06 -0.8 -11.46 0 s 6.72 8.82 9.88 13.17 s 22.66 25.95 22.66 25.95 s 0.66 -2.9 1.45 -5.27 c 0.67 -2 3.68 -2.87 4.6 -3.1 Z" stroke-linecap="round" />
</g>
<g transform="matrix(0.39 0 0 0.39 222.14 189.32)" id="Слой_1"  >
<path style="stroke: none; stroke-width: 1; stroke-dasharray: none; stroke-linecap: butt; stroke-dashoffset: 0; stroke-linejoin: miter; stroke-miterlimit: 4; fill: rgb(41,169,224); fill-rule: nonzero; opacity: 1;"  transform=" translate(-312.68, -228.65)" d="M 312.75 228.39 l -0.28 0.06 l 0.41 0.47 Z" stroke-linecap="round" />
</g>
<g transform="matrix(0.39 0 0 0.39 201.34 185.92)" id="Слой_1"  >
<path style="stroke: none; stroke-width: 1; stroke-dasharray: none; stroke-linecap: butt; stroke-dashoffset: 0; stroke-linejoin: miter; stroke-miterlimit: 4; fill: rgb(41,169,224); fill-rule: nonzero; opacity: 1;"  transform=" translate(-259.42, -219.96)" d="M 262.55 203.36 a 8.67 8.67 0 0 0 -5.4 -2.11 s -21.47 -1.84 -24 -1.18 s -2 5 -2 5 l 0.79 30.17 a 6.61 6.61 0 0 0 1.58 3.69 c 1.58 1.45 6.59 1 6.59 1 l 38.2 -0.79 s 6.46 0 8.83 -2.37 s -3 -8.3 -3 -8.3 S 266.69 206.71 262.55 203.36 Z" stroke-linecap="round" />
</g>
<g transform="matrix(0.39 0 0 0.39 173.87 186.51)" id="Слой_1"  >
<path style="stroke: none; stroke-width: 1; stroke-dasharray: none; stroke-linecap: butt; stroke-dashoffset: 0; stroke-linejoin: miter; stroke-miterlimit: 4; fill: rgb(41,169,224); fill-rule: nonzero; opacity: 1;"  transform=" translate(-189.1, -221.47)" d="M 218.42 207.58 a 11 11 0 0 0 -1.84 -6.46 c -2.11 -3 -12.39 0.53 -12.39 0.53 s -31.88 8 -35.57 10.93 s -3.69 5.8 -3.69 5.8 l -4.34 15.54 s -2.38 5.8 1 8.17 c 1.62 1.13 4.61 0.92 4.61 0.92 l 12 -0.26 s 33.72 -2.37 37.15 -3.69 s 3 -6.72 3 -6.72 Z" stroke-linecap="round" />
</g>
<g transform="matrix(0.39 0 0 0.39 153.8 226.02)" id="Слой_1"  >
<path style="stroke: none; stroke-width: 1; stroke-dasharray: none; stroke-linecap: butt; stroke-dashoffset: 0; stroke-linejoin: miter; stroke-miterlimit: 4; fill: rgb(26,26,26); fill-rule: nonzero; opacity: 1;"  transform=" translate(-137.72, -322.61)" d="M 137.72 366.42 a 43.81 43.81 0 1 1 43.81 -43.81 A 43.86 43.86 0 0 1 137.72 366.42 Z m 0 -84.62 a 40.81 40.81 0 1 0 40.81 40.81 A 40.85 40.85 0 0 0 137.72 281.8 Z m 0 70.61 a 29.81 29.81 0 1 1 29.81 -29.8 A 29.84 29.84 0 0 1 137.72 352.41 Z m 0 -56.61 a 26.81 26.81 0 1 0 26.81 26.81 A 26.84 26.84 0 0 0 137.72 295.8 Z" stroke-linecap="round" />
</g>
<g transform="matrix(0.39 0 0 0.39 153.8 226.02)" id="Слой_1"  >
<path style="stroke: none; stroke-width: 1; stroke-dasharray: none; stroke-linecap: butt; stroke-dashoffset: 0; stroke-linejoin: miter; stroke-miterlimit: 4; fill: rgb(26,26,26); fill-rule: nonzero; opacity: 1;"  transform=" translate(-137.72, -322.61)" d="M 137.72 335.2 a 12.59 12.59 0 1 1 12.59 -12.59 A 12.61 12.61 0 0 1 137.72 335.2 Z m 0 -22.18 a 9.59 9.59 0 1 0 9.59 9.59 A 9.6 9.6 0 0 0 137.72 313 Z" stroke-linecap="round" />
</g>
<g transform="matrix(0.39 0 0 0.39 273.49 226.02)" id="Слой_1"  >
<path style="stroke: none; stroke-width: 1; stroke-dasharray: none; stroke-linecap: butt; stroke-dashoffset: 0; stroke-linejoin: miter; stroke-miterlimit: 4; fill: rgb(26,26,26); fill-rule: nonzero; opacity: 1;"  transform=" translate(-444.13, -322.61)" d="M 444.13 366.42 a 43.81 43.81 0 1 1 43.81 -43.81 A 43.86 43.86 0 0 1 444.13 366.42 Z m 0 -84.62 a 40.81 40.81 0 1 0 40.81 40.81 A 40.85 40.85 0 0 0 444.13 281.8 Z m 0 70.61 a 29.81 29.81 0 1 1 29.81 -29.8 A 29.84 29.84 0 0 1 444.13 352.41 Z m 0 -56.61 a 26.81 26.81 0 1 0 26.81 26.81 A 26.84 26.84 0 0 0 444.13 295.8 Z" stroke-linecap="round" />
</g>
<g transform="matrix(0.39 0 0 0.39 273.49 226.02)" id="Слой_1"  >
<path style="stroke: none; stroke-width: 1; stroke-dasharray: none; stroke-linecap: butt; stroke-dashoffset: 0; stroke-linejoin: miter; stroke-miterlimit: 4; fill: rgb(26,26,26); fill-rule: nonzero; opacity: 1;"  transform=" translate(-444.13, -322.61)" d="M 444.13 335.2 a 12.59 12.59 0 1 1 12.59 -12.59 A 12.61 12.61 0 0 1 444.13 335.2 Z m 0 -22.18 a 9.59 9.59 0 1 0 9.59 9.59 A 9.6 9.6 0 0 0 444.13 313 Z" stroke-linecap="round" />
</g>
<g transform="matrix(0.39 0 0 0.39 141.45 216.35)" id="Слой_1"  >
<path style="stroke: none; stroke-width: 1; stroke-dasharray: none; stroke-linecap: butt; stroke-dashoffset: 0; stroke-linejoin: miter; stroke-miterlimit: 4; fill: rgb(26,26,26); fill-rule: nonzero; opacity: 1;"  transform=" translate(-106.1, -297.86)" d="M 81.09 341.09 c -2 0 -4 -0.19 -6 -0.38 a 41.55 41.55 0 0 0 -5.31 -0.29 c -5 0.26 -14 0 -14.35 0 h 0 C 46.21 340 24.7 339 23.09 338.5 l -0.48 -0.14 c -2.28 -0.66 -9.24 -2.67 -9.24 -10.77 c 0 -9.36 22.56 -30.16 50.28 -46.35 c 30.93 -18.06 51.68 -25.51 74 -26.55 c 24.25 -1.13 53.1 12.19 59.42 36.43 c 6.42 24.61 -6.75 44.64 -7.32 45.48 a 1.5 1.5 0 0 1 -2.74 -0.75 c 0 -0.28 -1.67 -27.32 -11.51 -39.18 c -10.14 -12.22 -20.42 -20.23 -37.73 -19.75 c -16 0.47 -31.2 7.63 -38.67 18.25 c -7.25 10.28 -12 25.9 -11.35 29.53 a 21.11 21.11 0 0 0 1.3 3.94 c 1.26 3.16 2.7 6.73 0 9.94 C 87.3 340.56 84.35 341.09 81.09 341.09 Z M 70.45 337.4 c 1.44 0 3.13 0.16 4.9 0.32 c 4.3 0.41 9.66 0.9 11.37 -1.09 c 1.49 -1.74 0.8 -3.75 -0.46 -6.87 a 23.8 23.8 0 0 1 -1.46 -4.54 c -0.9 -5.11 4.79 -21.76 11.84 -31.78 c 8.13 -11.53 23.85 -19 41 -19.52 c 18.53 -0.53 29.43 7.94 40.13 20.83 c 7.9 9.53 10.79 27.36 11.76 36 c 3.42 -7 9 -22 4.6 -38.89 c -4.66 -17.88 -27 -35.55 -56.38 -34.18 c -21.79 1 -42.15 8.34 -72.63 26.14 c -31.41 18.35 -48.79 37.52 -48.79 43.76 c 0 5.15 3.58 6.88 7.08 7.89 a 4.78 4.78 0 0 1 0.59 0.18 c 1.51 0.35 20.1 1.27 31.46 1.76 c 0.36 0 9.28 0.26 14.1 0 Z" stroke-linecap="round" />
</g>
<g transform="matrix(0.39 0 0 0.39 198.9 202.27)" id="Слой_1"  >
<path style="stroke: none; stroke-width: 1; stroke-dasharray: none; stroke-linecap: butt; stroke-dashoffset: 0; stroke-linejoin: miter; stroke-miterlimit: 4; fill: rgb(26,26,26); fill-rule: nonzero; opacity: 1;"  transform=" translate(-253.19, -261.82)" d="M 74.61 341.41 c -11.51 0 -30.65 -1.49 -31.66 -1.57 l -21.49 -1.92 c -2.84 0.27 -15.25 1.37 -18.32 -0.16 a 2.82 2.82 0 0 1 -1.43 -2 C 0.62 330.9 6.34 315.5 9 312.17 c 0.51 -0.64 1.37 -2 2.47 -3.81 c 4.9 -7.91 15.1 -24.38 31.29 -36.25 c 19.1 -14 36 -24 39.37 -25.24 a 15.25 15.25 0 0 1 2.46 -0.64 c 1.56 -0.32 2.09 -0.43 2.72 -1.95 c 0.46 -1.09 11.5 -26.93 41 -41.45 c 28.94 -14.22 47.64 -17.57 81.18 -20.07 c 35.88 -2.68 67.22 5.07 72.89 7.5 c 5.51 2.36 8.23 3.79 11.14 7.57 c 2.38 3.1 21.21 25.54 24.3 29.22 c 6.36 0.26 56.61 2.35 84.2 5.78 c 28.53 3.55 45.75 5.7 64.17 16.26 c 8.48 4.87 36.35 22.61 38.42 46.49 c 1.62 18.57 -7.82 30.6 -8.23 31.11 a 1.49 1.49 0 0 1 -1.63 0.48 a 1.5 1.5 0 0 1 -1 -1.35 a 79.6 79.6 0 0 0 -7.49 -28 c -8.94 -18.11 -23.69 -26.82 -43.9 -25.86 c -14.48 0.68 -25.68 5.45 -33.29 14.18 c -12.43 14.26 -11.26 34.6 -11.14 36.27 c 0.19 0.79 0.89 4.34 -0.92 7.21 a 7.86 7.86 0 0 1 -5.57 3.44 c -6 1.07 -35.05 0.14 -49 -0.31 c -3.57 -0.11 -6.15 -0.19 -6.85 -0.19 a 15.79 15.79 0 0 1 -3.91 -0.5 a 18.33 18.33 0 0 0 -4.78 -0.56 c -4.6 0 -22.9 1.91 -32.12 3.71 c -6.25 1.22 -26.14 1.39 -42.13 1.52 c -7.9 0.07 -14.72 0.13 -17.89 0.31 c -9.42 0.52 -44.71 0.27 -46.2 0.26 a 1.5 1.5 0 0 1 -1.48 -1.35 a 112.33 112.33 0 0 0 -8.67 -31.24 c -9.21 -20 -22.82 -29.33 -40.5 -27.75 c -17.86 1.59 -31.67 9.5 -41 23.51 a 60.41 60.41 0 0 0 -8.75 20.47 c 1 3.17 3.6 11.89 2.35 14.69 c -0.15 0.33 -0.26 0.63 -0.37 0.9 c -1 2.74 -2.15 3.56 -8.52 4.58 A 50.25 50.25 0 0 1 74.61 341.41 Z m -53.16 -6.5 h 0.13 l 21.62 1.93 c 0.29 0 30.72 2.4 37.83 1.26 c 5.52 -0.88 5.67 -1.3 6.2 -2.68 c 0.12 -0.32 0.26 -0.67 0.43 -1.06 c 0.56 -1.25 -0.89 -7.69 -2.58 -12.91 a 1.43 1.43 0 0 1 -0.06 -0.71 c 0.07 -0.42 7.6 -42.81 52.57 -46.82 c 18.81 -1.68 33.86 8.54 43.51 29.55 a 113.42 113.42 0 0 1 8.74 30.79 c 6.65 0 36.38 0.19 44.7 -0.27 c 3.23 -0.18 10.09 -0.24 18 -0.31 c 15 -0.12 35.6 -0.3 41.57 -1.47 c 9.36 -1.82 28 -3.76 32.7 -3.76 a 21.28 21.28 0 0 1 5.45 0.63 a 12.59 12.59 0 0 0 3.24 0.43 c 0.74 0 3.21 0.08 6.94 0.2 c 12.78 0.4 42.72 1.36 48.39 0.35 a 5 5 0 0 0 3.56 -2.09 c 1.29 -2.05 0.54 -4.94 0.53 -5 a 2.56 2.56 0 0 1 -0.05 -0.27 c -0.08 -0.92 -1.88 -22.85 11.86 -38.61 c 8.17 -9.37 20.08 -14.49 35.41 -15.21 c 14.07 -0.67 25.86 3.22 35 11.55 c 13.95 12.71 18 32.14 19.11 40.8 a 44.93 44.93 0 0 0 5.33 -25.43 c -1.55 -17.82 -20.09 -34.49 -36.93 -44.15 c -17.89 -10.26 -33.93 -12.26 -63 -15.88 S 317.58 230 317 230 a 1.49 1.49 0 0 1 -1.09 -0.53 c -0.9 -1.08 -22.18 -26.41 -24.81 -29.83 c -2.36 -3.07 -4.45 -4.29 -9.94 -6.65 c -5.3 -2.27 -36.64 -9.85 -71.49 -7.26 c -33.13 2.48 -51.58 5.77 -80.08 19.77 S 90.47 244.39 90 245.44 c -1.24 3 -3.1 3.36 -4.9 3.73 a 14.12 14.12 0 0 0 -2 0.52 c -2.82 1 -19.37 10.72 -38.62 24.84 C 28.76 286.05 18.77 302.19 14 309.94 c -1.19 1.92 -2.05 3.31 -2.66 4.09 c -2.86 3.64 -7.57 18.66 -6.67 21.11 c 1.93 0.7 9.85 0.45 16.66 -0.22 Z" stroke-linecap="round" />
</g>
<g transform="matrix(0.39 0 0 0.39 106.98 216.58)" id="Слой_1"  >
<path style="stroke: none; stroke-width: 1; stroke-dasharray: none; stroke-linecap: butt; stroke-dashoffset: 0; stroke-linejoin: miter; stroke-miterlimit: 4; fill: rgb(26,26,26); fill-rule: nonzero; opacity: 1;"  transform=" translate(-17.87, -298.43)" d="M 13.29 309.68 a 1.51 1.51 0 0 1 -0.74 -0.19 L 9.3 307.64 a 1.47 1.47 0 0 1 -0.7 -0.9 a 20.86 20.86 0 0 1 -0.28 -9.26 A 16.78 16.78 0 0 1 13 289.67 a 1.49 1.49 0 0 1 0.65 -0.33 l 8.6 -2.11 a 1.54 1.54 0 0 1 0.74 0 l 3.69 1 a 1.5 1.5 0 0 1 0.85 2.31 L 14.52 309 A 1.48 1.48 0 0 1 13.29 309.68 Z m -1.94 -4.32 l 1.5 0.85 l 11 -15.65 l -1.23 -0.33 l -7.85 1.92 a 13.62 13.62 0 0 0 -3.5 6 A 17.63 17.63 0 0 0 11.35 305.36 Z" stroke-linecap="round" />
</g>
<g transform="matrix(0.39 0 0 0.39 261.54 213.74)" id="Слой_1"  >
<path style="stroke: none; stroke-width: 1; stroke-dasharray: none; stroke-linecap: butt; stroke-dashoffset: 0; stroke-linejoin: miter; stroke-miterlimit: 4; fill: rgb(26,26,26); fill-rule: nonzero; opacity: 1;"  transform=" translate(-413.55, -291.19)" d="M 384.75 333.21 c -16.22 0 -52.24 -1.58 -54 -1.66 a 1.52 1.52 0 0 1 -0.47 -0.1 c -0.29 -0.11 -7 -2.77 -7.8 -9.48 c -0.87 -7.3 8.12 -18.71 24 -30.54 l 2.06 -1.52 c 16.35 -12.16 29.26 -21.75 55.59 -31.27 c 27.33 -9.87 38.06 -9.93 46 -9.21 s 25 5.89 25.76 6.11 a 1.48 1.48 0 0 1 0.29 0.12 c 0.77 0.42 18.92 10.47 23.71 24.87 c 5.09 15.25 6 23.65 3.32 31 a 137.4 137.4 0 0 1 -6.66 14.94 a 1.5 1.5 0 0 1 -2.83 -0.7 a 71.94 71.94 0 0 0 -6.27 -26.83 c -8.18 -17.53 -22.64 -26.42 -43 -26.42 c -14.34 0 -25.65 4.24 -33.61 12.61 c -13.18 13.87 -13 34.8 -12.95 37.2 c 0.36 1 1.42 4.55 -0.28 7.38 c -1.17 1.94 -3.31 3.07 -6.35 3.35 C 389.94 333.16 387.66 333.21 384.75 333.21 Z m -53.63 -4.64 c 4.05 0.17 51.71 2.22 59.87 1.48 c 2 -0.18 3.39 -0.82 4.05 -1.9 c 1 -1.62 0.31 -4.14 0 -5 a 1.65 1.65 0 0 1 -0.11 -0.5 c 0 -1 -1 -24.06 13.77 -39.63 c 8.54 -9 20.58 -13.55 35.78 -13.55 c 27 0 39.75 15.36 45.74 28.24 a 73.7 73.7 0 0 1 6.12 22.36 c 1.27 -2.69 2.81 -6.18 4.06 -9.61 c 2.41 -6.62 1.5 -14.48 -3.34 -29 c -4.22 -12.66 -20.54 -22.18 -22.18 -23.1 c -1.76 -0.53 -17.9 -5.31 -25 -6 c -7.59 -0.69 -17.92 -0.61 -44.68 9 c -25.91 9.37 -38.67 18.85 -54.82 30.86 l -2.06 1.52 c -17.74 13.17 -23.4 23.2 -22.85 27.78 C 326 326 330.15 328.12 331.12 328.57 Z" stroke-linecap="round" />
</g>
<g transform="matrix(0.39 0 0 0.39 294.25 209.56)" id="Слой_1"  >
<path style="stroke: none; stroke-width: 1; stroke-dasharray: none; stroke-linecap: butt; stroke-dashoffset: 0; stroke-linejoin: miter; stroke-miterlimit: 4; fill: rgb(26,26,26); fill-rule: nonzero; opacity: 1;"  transform=" translate(-497.29, -280.46)" d="M 502 290.82 a 1.5 1.5 0 0 1 -1.34 -0.82 c -2.61 -5.15 -6.64 -13.05 -7 -13.7 c -0.51 -0.88 -2.39 -3.87 -2.41 -3.9 a 1.51 1.51 0 0 1 1.76 -2.22 a 52.5 52.5 0 0 1 6.54 2.48 c 1 0.63 2.29 1.95 3 6.08 c 0.6 3.72 1 10.22 1 10.49 a 1.51 1.51 0 0 1 -1.11 1.54 A 1.74 1.74 0 0 1 502 290.82 Z m -6 -16.39 l 0.22 0.38 c 0.27 0.48 2 3.76 3.62 7 c -0.1 -0.94 -0.22 -1.85 -0.34 -2.61 c -0.2 -1.24 -0.68 -3.41 -1.66 -4.06 C 497.68 275.06 497 274.78 496 274.43 Z" stroke-linecap="round" />
</g>
<g transform="matrix(0.39 0 0 0.39 296.67 212.24)" id="Слой_1"  >
<path style="stroke: none; stroke-width: 1; stroke-dasharray: none; stroke-linecap: butt; stroke-dashoffset: 0; stroke-linejoin: miter; stroke-miterlimit: 4; fill: rgb(26,26,26); fill-rule: nonzero; opacity: 1;"  transform=" translate(-503.47, -287.34)" d="M 503.7 300.24 h -0.06 a 1.5 1.5 0 0 1 -1.41 -1.2 l -2.31 -11.33 c 0 -0.06 0 -0.11 0 -0.17 l -1 -11.46 a 1.51 1.51 0 0 1 1.52 -1.63 c 3.31 0.05 5.33 0.65 6 1.78 c 0.86 1.44 2 8.74 1.44 12.08 s -2.65 10.54 -2.74 10.85 A 1.51 1.51 0 0 1 503.7 300.24 Z m -0.82 -13 l 1 5.08 c 0.43 -1.67 0.82 -3.34 1 -4.45 c 0.45 -2.76 -0.53 -8.57 -1 -9.91 a 8.39 8.39 0 0 0 -1.87 -0.36 Z M 504 278 h 0 Z" stroke-linecap="round" />
</g>
<g transform="matrix(0.39 0 0 0.39 246.24 195.28)" id="Слой_1"  >
<path style="stroke: none; stroke-width: 1; stroke-dasharray: none; stroke-linecap: butt; stroke-dashoffset: 0; stroke-linejoin: miter; stroke-miterlimit: 4; fill: rgb(26,26,26); fill-rule: nonzero; opacity: 1;"  transform=" translate(-374.38, -243.92)" d="M 344.23 259.53 a 1.51 1.51 0 0 1 -1.44 -1.06 c 0 -0.15 -4.72 -15.46 -6.61 -19.11 s -7.27 -8.49 -7.32 -8.54 a 1.5 1.5 0 0 1 2 -2.22 c 0.24 0.21 5.89 5.36 8 9.38 c 1.73 3.33 5.36 14.87 6.49 18.52 l 73.42 -2.07 a 1.5 1.5 0 1 1 0.08 3 l -74.56 2.11 Z" stroke-linecap="round" />
</g>
<g transform="matrix(0.39 0 0 0.39 237.76 205.87)" id="Слой_1"  >
<path style="stroke: none; stroke-width: 1; stroke-dasharray: none; stroke-linecap: butt; stroke-dashoffset: 0; stroke-linejoin: miter; stroke-miterlimit: 4; fill: rgb(26,26,26); fill-rule: nonzero; opacity: 1;"  transform=" translate(-352.65, -271.04)" d="M 355.29 282.06 a 1.48 1.48 0 0 1 -1.44 -1.1 l -5.27 -19 a 1.5 1.5 0 1 1 2.89 -0.8 l 5.27 19 a 1.51 1.51 0 0 1 -1.05 1.85 A 1.83 1.83 0 0 1 355.29 282.06 Z" stroke-linecap="round" />
</g>
<g transform="matrix(0.39 0 0 0.39 239.38 205.27)" id="Слой_1"  >
<path style="stroke: none; stroke-width: 1; stroke-dasharray: none; stroke-linecap: butt; stroke-dashoffset: 0; stroke-linejoin: miter; stroke-miterlimit: 4; fill: rgb(26,26,26); fill-rule: nonzero; opacity: 1;"  transform=" translate(-356.82, -269.49)" d="M 359.11 279 a 1.51 1.51 0 0 1 -1.44 -1.08 l -4.61 -16.08 a 1.5 1.5 0 0 1 2.88 -0.83 l 4.62 16.08 a 1.51 1.51 0 0 1 -1 1.85 A 1.52 1.52 0 0 1 359.11 279 Z" stroke-linecap="round" />
</g>
<g transform="matrix(0.39 0 0 0.39 241.15 204.84)" id="Слой_1"  >
<path style="stroke: none; stroke-width: 1; stroke-dasharray: none; stroke-linecap: butt; stroke-dashoffset: 0; stroke-linejoin: miter; stroke-miterlimit: 4; fill: rgb(26,26,26); fill-rule: nonzero; opacity: 1;"  transform=" translate(-361.35, -268.38)" d="M 363.2 276.66 a 1.5 1.5 0 0 1 -1.45 -1.11 L 358.06 262 a 1.5 1.5 0 1 1 2.9 -0.78 l 3.69 13.57 a 1.51 1.51 0 0 1 -1.06 1.84 A 1.74 1.74 0 0 1 363.2 276.66 Z" stroke-linecap="round" />
</g>
<g transform="matrix(0.39 0 0 0.39 242.75 204.37)" id="Слой_1"  >
<path style="stroke: none; stroke-width: 1; stroke-dasharray: none; stroke-linecap: butt; stroke-dashoffset: 0; stroke-linejoin: miter; stroke-miterlimit: 4; fill: rgb(26,26,26); fill-rule: nonzero; opacity: 1;"  transform=" translate(-365.44, -267.19)" d="M 366.89 274.42 a 1.5 1.5 0 0 1 -1.46 -1.13 l -2.9 -11.46 a 1.52 1.52 0 0 1 1.09 -1.83 a 1.5 1.5 0 0 1 1.82 1.09 l 2.9 11.46 a 1.49 1.49 0 0 1 -1.09 1.82 A 1.12 1.12 0 0 1 366.89 274.42 Z" stroke-linecap="round" />
</g>
<g transform="matrix(0.39 0 0 0.39 244.36 204.05)" id="Слой_1"  >
<path style="stroke: none; stroke-width: 1; stroke-dasharray: none; stroke-linecap: butt; stroke-dashoffset: 0; stroke-linejoin: miter; stroke-miterlimit: 4; fill: rgb(26,26,26); fill-rule: nonzero; opacity: 1;"  transform=" translate(-369.57, -266.37)" d="M 370.71 272.71 a 1.5 1.5 0 0 1 -1.46 -1.16 L 367 261.93 a 1.5 1.5 0 1 1 2.92 -0.68 l 2.24 9.62 a 1.51 1.51 0 0 1 -1.12 1.8 A 2.09 2.09 0 0 1 370.71 272.71 Z" stroke-linecap="round" />
</g>
<g transform="matrix(0.39 0 0 0.39 246.02 203.62)" id="Слой_1"  >
<path style="stroke: none; stroke-width: 1; stroke-dasharray: none; stroke-linecap: butt; stroke-dashoffset: 0; stroke-linejoin: miter; stroke-miterlimit: 4; fill: rgb(26,26,26); fill-rule: nonzero; opacity: 1;"  transform=" translate(-373.8, -265.28)" d="M 374.66 270.6 a 1.49 1.49 0 0 1 -1.46 -1.17 l -1.72 -7.64 a 1.51 1.51 0 0 1 1.14 -1.8 a 1.5 1.5 0 0 1 1.79 1.14 l 1.71 7.64 a 1.49 1.49 0 0 1 -1.13 1.79 A 1.24 1.24 0 0 1 374.66 270.6 Z" stroke-linecap="round" />
</g>
<g transform="matrix(0.39 0 0 0.39 247.56 203.26)" id="Слой_1"  >
<path style="stroke: none; stroke-width: 1; stroke-dasharray: none; stroke-linecap: butt; stroke-dashoffset: 0; stroke-linejoin: miter; stroke-miterlimit: 4; fill: rgb(26,26,26); fill-rule: nonzero; opacity: 1;"  transform=" translate(-377.75, -264.36)" d="M 378.35 268.75 a 1.49 1.49 0 0 1 -1.47 -1.19 l -1.19 -5.8 a 1.5 1.5 0 0 1 2.94 -0.6 l 1.19 5.79 a 1.5 1.5 0 0 1 -1.17 1.77 A 1 1 0 0 1 378.35 268.75 Z" stroke-linecap="round" />
</g>
<g transform="matrix(0.39 0 0 0.39 236.16 206.7)" id="Слой_1"  >
<path style="stroke: none; stroke-width: 1; stroke-dasharray: none; stroke-linecap: butt; stroke-dashoffset: 0; stroke-linejoin: miter; stroke-miterlimit: 4; fill: rgb(26,26,26); fill-rule: nonzero; opacity: 1;"  transform=" translate(-348.57, -273.15)" d="M 352.92 289.83 a 1.49 1.49 0 0 1 -1.44 -1.08 l -8.69 -30.3 a 1.5 1.5 0 1 1 2.88 -0.83 l 8.69 30.3 a 1.47 1.47 0 0 1 -1.44 1.91 Z" stroke-linecap="round" />
</g>
<g transform="matrix(0.39 0 0 0.39 216.54 184.79)" id="Слой_1"  >
<path style="stroke: none; stroke-width: 1; stroke-dasharray: none; stroke-linecap: butt; stroke-dashoffset: 0; stroke-linejoin: miter; stroke-miterlimit: 4; fill: rgb(26,26,26); fill-rule: nonzero; opacity: 1;"  transform=" translate(-298.34, -217.07)" d="M 311.42 238.32 a 1.49 1.49 0 0 1 -1.11 -0.49 c -0.8 -0.89 -19.59 -21.72 -22.76 -26.08 c -1.15 -1.58 -2.86 -3.69 -4.51 -5.73 c -5.4 -6.67 -6.14 -7.72 -5.5 -9 c 0.45 -0.91 0.84 -1.69 12.91 -0.83 a 1.53 1.53 0 0 1 1 0.5 l 26.67 30.24 a 1.51 1.51 0 0 1 1.08 1.17 a 1.11 1.11 0 0 1 0 0.19 a 1.5 1.5 0 0 1 -2.23 1.84 c -1.1 0.37 -2.43 1 -2.71 1.89 c -0.76 2.27 -1.41 5.1 -1.41 5.12 a 1.51 1.51 0 0 1 -1.09 1.12 A 1.2 1.2 0 0 1 311.42 238.32 Z m -30.21 -39.47 c 1 1.42 2.78 3.57 4.16 5.28 c 1.68 2.07 3.41 4.22 4.61 5.86 c 2.5 3.44 15.72 18.22 20.68 23.74 c 0.23 -0.84 0.5 -1.78 0.79 -2.65 a 6 6 0 0 1 3.42 -3.31 l -25.24 -28.62 C 286.57 198.94 283.2 198.81 281.21 198.85 Z" stroke-linecap="round" />
</g>
<g transform="matrix(0.39 0 0 0.39 203.31 185.93)" id="Слой_1"  >
<path style="stroke: none; stroke-width: 1; stroke-dasharray: none; stroke-linecap: butt; stroke-dashoffset: 0; stroke-linejoin: miter; stroke-miterlimit: 4; fill: rgb(26,26,26); fill-rule: nonzero; opacity: 1;"  transform=" translate(-264.48, -219.99)" d="M 243.61 241.54 c -1.83 0 -4.66 -0.23 -6.05 -1.5 a 7.92 7.92 0 0 1 -2.06 -4.66 a 0.34 0.34 0 0 1 0 -0.1 l -0.79 -30.1 c -0.24 -2.11 0.15 -5.79 3.09 -6.56 c 2.61 -0.69 20.62 0.81 24.42 1.13 a 10.42 10.42 0 0 1 6.29 2.44 c 4.21 3.41 21.11 24.5 21.83 25.4 c 1 1.09 6.14 7.07 2.92 10.29 c -2.73 2.73 -9.16 2.81 -9.89 2.81 l -38.17 0.79 C 244.94 241.5 244.36 241.54 243.61 241.54 Z m -5.12 -6.4 a 5 5 0 0 0 1.09 2.68 c 0.65 0.6 3.4 0.83 5.46 0.67 l 38.29 -0.8 c 2.29 0 6.4 -0.53 7.8 -1.93 c 0.76 -0.76 -1 -4 -3.08 -6.23 c -6.07 -7.57 -18.27 -22.44 -21.44 -25 a 7.2 7.2 0 0 0 -4.4 -1.78 H 262 c -10.39 -0.9 -22 -1.6 -23.46 -1.23 c -0.87 0.23 -1 2.34 -0.87 3.37 c 0 0.05 0 0.1 0 0.14 Z" stroke-linecap="round" />
</g>
<g transform="matrix(0.39 0 0 0.39 175.82 186.51)" id="Слой_1"  >
<path style="stroke: none; stroke-width: 1; stroke-dasharray: none; stroke-linecap: butt; stroke-dashoffset: 0; stroke-linejoin: miter; stroke-miterlimit: 4; fill: rgb(26,26,26); fill-rule: nonzero; opacity: 1;"  transform=" translate(-194.1, -221.46)" d="M 170.66 244.53 a 9.16 9.16 0 0 1 -4.87 -1.2 c -4.15 -2.88 -2 -9 -1.63 -9.88 l 4.28 -15.32 c 0.07 -0.9 0.59 -3.85 4.26 -6.73 s 32.48 -10.29 36.06 -11.19 c 2.74 -0.94 11.51 -3.6 14.05 0 a 12.5 12.5 0 0 1 2.11 7.36 V 232.3 c 0 0.71 0.24 6.53 -4 8.16 c -3.53 1.36 -34.11 3.54 -37.59 3.79 l -12.06 0.26 A 6.14 6.14 0 0 1 170.66 244.53 Z m -3.69 -10 s -1.83 4.74 0.52 6.37 a 7.27 7.27 0 0 0 3.66 0.66 l 12 -0.27 c 12.89 -0.91 34.31 -2.69 36.65 -3.59 s 2.08 -5.16 2.07 -5.21 v -25 a 9.46 9.46 0 0 0 -1.58 -5.48 c -0.83 -1.2 -6.31 -0.42 -10.66 1.08 l -0.12 0 c -12.21 3.08 -32.51 8.69 -35 10.66 c -3 2.35 -3.11 4.55 -3.12 4.65 a 1.57 1.57 0 0 1 -0.05 0.37 L 167 234.33 a 1 1 0 0 1 -0.06 0.16 Z m -1.39 -0.57 h 0 Z" stroke-linecap="round" />
</g>
<g transform="matrix(0.39 0 0 0.39 194.18 200.36)" id="Слой_1"  >
<path style="stroke: none; stroke-width: 1; stroke-dasharray: none; stroke-linecap: butt; stroke-dashoffset: 0; stroke-linejoin: miter; stroke-miterlimit: 4; fill: rgb(26,26,26); fill-rule: nonzero; opacity: 1;"  transform=" translate(-241.1, -256.93)" d="M 236.41 322.31 a 4.49 4.49 0 0 1 -3.23 -1.16 c -1.56 -1.47 -2.23 -4.25 -2.17 -9 c 0.13 -10.26 -1.43 -90.18 -1.45 -91 l -0.13 -26.1 a 1.48 1.48 0 0 1 0 -0.21 c -41.93 1.89 -57 13 -58.57 14.28 c -3.63 2.91 -5.52 8.2 -7.38 15.79 c -2 8.06 -5.44 27 -5.37 28.79 a 11.87 11.87 0 0 0 1.17 3.64 a 1.5 1.5 0 1 1 -2.69 1.34 a 15.16 15.16 0 0 1 -1.47 -4.78 c -0.16 -2.18 3.58 -22.12 5.44 -29.71 c 2 -8.2 4.13 -14 8.42 -17.41 c 1.67 -1.33 17.49 -13.05 60.56 -15 c 36.77 -1.63 42.8 5.72 45.06 8.48 c 0.14 0.16 0.25 0.31 0.36 0.43 c 2 2.15 27.28 31.52 31 37.07 q 0.69 1 1.41 2.07 c 3.38 4.94 7.21 10.54 11.54 23.18 c 4.13 12.06 8.74 28.56 8.11 35.4 c -0.49 5.42 -1.29 9.71 -6.67 11.56 c -0.72 0.25 -1.64 0.61 -2.81 1.08 a 130.19 130.19 0 0 1 -31.32 8.47 c -18.69 2.73 -45.08 2.83 -48 2.65 a 8.24 8.24 0 0 0 -0.84 0 C 237.09 322.29 236.77 322.31 236.41 322.31 Z m -4 -127.57 a 1.63 1.63 0 0 1 0 0.31 l 0.13 26.09 c 0 0.78 1.58 80.75 1.45 91.06 c -0.06 4.82 0.74 6.31 1.23 6.77 s 0.91 0.38 1.94 0.31 a 8.12 8.12 0 0 1 1.21 0 c 1.63 0.09 28 0.2 47.39 -2.63 a 127.06 127.06 0 0 0 30.64 -8.29 c 1.21 -0.48 2.16 -0.86 2.95 -1.13 c 3.15 -1.08 4.11 -2.93 4.66 -9 c 0.46 -5.16 -2.73 -18.89 -8 -34.16 c -4.19 -12.25 -7.9 -17.67 -11.18 -22.45 c -0.48 -0.71 -1 -1.4 -1.42 -2.1 c -3.51 -5.26 -28.71 -34.58 -30.68 -36.7 c -0.15 -0.15 -0.31 -0.35 -0.49 -0.57 C 270.53 200.08 265.25 193.64 232.4 194.74 Z" stroke-linecap="round" />
</g>
<g transform="matrix(0.39 0 0 0.39 182.44 216.67)" id="Слой_1"  >
<path style="stroke: none; stroke-width: 1; stroke-dasharray: none; stroke-linecap: butt; stroke-dashoffset: 0; stroke-linejoin: miter; stroke-miterlimit: 4; fill: rgb(26,26,26); fill-rule: nonzero; opacity: 1;"  transform=" translate(-211.04, -298.67)" d="M 233.7 321.85 h 0 c -0.91 0 -22.5 -0.67 -25.82 -1.07 c -0.53 -0.06 -1.07 -0.1 -1.6 -0.15 c -2.73 -0.21 -6.46 -0.51 -7.08 -4.54 a 21.16 21.16 0 0 1 0 -4 a 38 38 0 0 0 -2.4 -17.14 A 64.33 64.33 0 0 0 187.24 278 a 1.5 1.5 0 1 1 2.28 -2 a 65.79 65.79 0 0 1 10 17.82 a 40.81 40.81 0 0 1 2.6 18.38 a 19.42 19.42 0 0 0 0 3.41 c 0.23 1.46 1.18 1.75 4.36 2 l 1.71 0.16 c 3.19 0.39 25.34 1 25.56 1.05 a 1.5 1.5 0 0 1 1.46 1.54 A 1.52 1.52 0 0 1 233.7 321.85 Z" stroke-linecap="round" />
</g>
<g transform="matrix(0.39 0 0 0.39 164.78 198.31)" id="Слой_1"  >
<path style="stroke: none; stroke-width: 1; stroke-dasharray: none; stroke-linecap: butt; stroke-dashoffset: 0; stroke-linejoin: miter; stroke-miterlimit: 4; fill: rgb(26,26,26); fill-rule: nonzero; opacity: 1;"  transform=" translate(-165.85, -251.67)" d="M 160.5 255.09 A 2.67 2.67 0 0 1 158 253.9 c -0.94 -1.63 0.65 -3.56 2.15 -4.89 a 1.47 1.47 0 0 1 1 -0.38 c 0.62 0 2.12 -0.08 3.72 -0.15 c 7.92 -0.4 8 -0.31 8.63 0.28 a 1.54 1.54 0 0 1 0.48 1.11 c 0 1.37 -0.66 1.58 -6.92 3.54 c -1.05 0.33 -2 0.61 -2.37 0.76 A 12.82 12.82 0 0 1 160.5 255.09 Z m 1.22 -3.47 l -0.34 0.36 a 13.73 13.73 0 0 0 1.62 -0.41 Z" stroke-linecap="round" />
</g>
<g transform="matrix(0.39 0 0 0.39 217.32 196.82)" id="Слой_1"  >
<path style="stroke: none; stroke-width: 1; stroke-dasharray: none; stroke-linecap: butt; stroke-dashoffset: 0; stroke-linejoin: miter; stroke-miterlimit: 4; fill: rgb(26,26,26); fill-rule: nonzero; opacity: 1;"  transform=" translate(-300.35, -247.86)" d="M 294.06 251.79 c -1.06 0 -1.38 -0.28 -1.69 -0.9 a 1.56 1.56 0 0 1 -0.06 -1.2 c 0.29 -0.8 0.33 -0.92 7.6 -4.09 c 1.47 -0.63 2.86 -1.24 3.41 -1.51 a 1.5 1.5 0 0 1 1.06 -0.1 c 1.93 0.52 4.21 1.55 4.1 3.43 c -0.1 1.71 -2.08 2.79 -5.87 3.21 c -0.45 0.05 -1.38 0.2 -2.47 0.37 A 51.9 51.9 0 0 1 294.06 251.79 Z m 10 -4.75 l -1.17 0.52 a 12.17 12.17 0 0 0 1.64 -0.35 Z" stroke-linecap="round" />
</g>
<g transform="matrix(0.39 0 0 0.39 139.06 195.67)" id="Слой_1"  >
<path style="stroke: none; stroke-width: 1; stroke-dasharray: none; stroke-linecap: butt; stroke-dashoffset: 0; stroke-linejoin: miter; stroke-miterlimit: 4; fill: rgb(26,26,26); fill-rule: nonzero; opacity: 1;"  transform=" translate(-100, -244.92)" d="M 100 250.71 a 5.79 5.79 0 1 1 5.79 -5.79 A 5.8 5.8 0 0 1 100 250.71 Z m 0 -8.57 a 2.79 2.79 0 1 0 2.79 2.78 A 2.79 2.79 0 0 0 100 242.14 Z" stroke-linecap="round" />
</g>
<g transform="matrix(0.39 0 0 0.39 159.64 188.37)" id="Слой_1"  >
<path style="stroke: none; stroke-width: 1; stroke-dasharray: none; stroke-linecap: butt; stroke-dashoffset: 0; stroke-linejoin: miter; stroke-miterlimit: 4; fill: rgb(26,26,26); fill-rule: nonzero; opacity: 1;"  transform=" translate(-152.67, -226.22)" d="M 150.35 239.94 a 2 2 0 0 1 -0.42 -0.05 l 0.23 -1.48 l -0.3 1.47 a 2.13 2.13 0 0 1 -1.66 -2.5 l 4.72 -23.18 a 2.09 2.09 0 0 1 0.91 -1.35 a 2.12 2.12 0 0 1 1.59 -0.31 a 2.15 2.15 0 0 1 1.73 2.52 l -4.72 23.17 a 2.14 2.14 0 0 1 -2.08 1.71 Z" stroke-linecap="round" />
</g>
</svg>