<?xml version="1.0" encoding="UTF-8" standalone="no" ?>
<!DOCTYPE svg PUBLIC "-//W3C//DTD SVG 1.1//EN" "http://www.w3.org/Graphics/SVG/1.1/DTD/svg11.dtd">
<svg xmlns="http://www.w3.org/2000/svg" xmlns:xlink="http://www.w3.org/1999/xlink" version="1.1" width="400" height="400" viewBox="0 0 400 400" xml:space="preserve">
<desc>Created with Fabric.js 3.6.2</desc>
<defs>
</defs>
<g transform="matrix(0.39 0 0 0.39 145.09 229.13)" id="Слой_1"  >
<circle style="stroke: none; stroke-width: 1; stroke-dasharray: none; stroke-linecap: butt; stroke-dashoffset: 0; stroke-linejoin: miter; stroke-miterlimit: 4; fill: rgb(145,147,150); fill-rule: nonzero; opacity: 1;"  cx="0" cy="0" r="11.5" />
</g>
<g transform="matrix(0.39 0 0 0.39 257.79 229.13)" id="Слой_1"  >
<circle style="stroke: none; stroke-width: 1; stroke-dasharray: none; stroke-linecap: butt; stroke-dashoffset: 0; stroke-linejoin: miter; stroke-miterlimit: 4; fill: rgb(145,147,150); fill-rule: nonzero; opacity: 1;"  cx="0" cy="0" r="11.5" />
</g>
<g transform="matrix(0.39 0 0 0.39 145.26 229.42)" id="Слой_1"  >
<path style="stroke: none; stroke-width: 1; stroke-dasharray: none; stroke-linecap: butt; stroke-dashoffset: 0; stroke-linejoin: miter; stroke-miterlimit: 4; fill: rgb(65,64,66); fill-rule: nonzero; opacity: 1;"  transform=" translate(-115.87, -331.31)" d="M 115.87 295.75 a 35.56 35.56 0 1 0 35.56 35.56 A 35.57 35.57 0 0 0 115.87 295.75 Z m 0 63.09 a 27.53 27.53 0 1 1 27.53 -27.53 A 27.53 27.53 0 0 1 115.87 358.84 Z" stroke-linecap="round" />
</g>
<g transform="matrix(0.39 0 0 0.39 257.77 229.42)" id="Слой_1"  >
<path style="stroke: none; stroke-width: 1; stroke-dasharray: none; stroke-linecap: butt; stroke-dashoffset: 0; stroke-linejoin: miter; stroke-miterlimit: 4; fill: rgb(65,64,66); fill-rule: nonzero; opacity: 1;"  transform=" translate(-403.9, -331.31)" d="M 403.9 295.75 a 35.56 35.56 0 1 0 35.56 35.56 A 35.57 35.57 0 0 0 403.9 295.75 Z m 0 63.09 a 27.53 27.53 0 1 1 27.52 -27.53 A 27.53 27.53 0 0 1 403.9 358.84 Z" stroke-linecap="round" />
</g>
<g transform="matrix(0.39 0 0 0.39 198.04 208.43)" id="Слой_1"  >
<path style="stroke: none; stroke-width: 1; stroke-dasharray: none; stroke-linecap: butt; stroke-dashoffset: 0; stroke-linejoin: miter; stroke-miterlimit: 4; fill: rgb(102,45,143); fill-rule: nonzero; opacity: 1;"  transform=" translate(-250.99, -277.59)" d="M 153.83 345.93 s 54.18 2.9 74.82 2.9 H 361.08 s -5.76 -58.11 40.55 -60.05 s 41.14 60.05 41.14 60.05 l 47.3 -2.9 l 1.93 -2.67 l -1.93 -4.6 a 74.37 74.37 0 0 0 0 -24.94 a 68 68 0 0 0 -14.41 -32 c -6.66 -8 -22 -12.11 -40 -16 s -73.06 -10.65 -73.06 -10.65 s -56.11 -36.32 -81.05 -41.89 s -70.94 -9.69 -116.52 -4.36 S 88.91 234.79 87 235 s -12.9 7 -22.15 8.72 s -38.69 5.57 -39.34 5.57 s -2.58 5.08 -2.36 6.29 s 1 4.84 0 6.05 a 12.67 12.67 0 0 0 -3 5.57 c -0.65 2.67 -1.51 12.35 -1.72 14 S 13.67 289 13 291.45 s -3.22 22 -3 24.45 s 0.65 9.69 2.58 13.08 S 33 339.63 43.76 342.54 s 31 2.18 31 2.18 S 66 288.78 114.64 290 S 153.83 345.93 153.83 345.93 Z" stroke-linecap="round" />
</g>
<g transform="matrix(0.39 0 0 0.39 117.58 205.33)" id="Слой_1"  >
<path style="stroke: none; stroke-width: 1; stroke-dasharray: none; stroke-linecap: butt; stroke-dashoffset: 0; stroke-linejoin: miter; stroke-miterlimit: 4; fill: rgb(235,28,36); fill-rule: nonzero; opacity: 1;"  transform=" translate(-45.01, -269.64)" d="M 43 281.59 v -7 l 30.06 -14.29 l -51 -2.86 l -0.25 4.8 s -3.26 6.34 -3.4 7.29 s -1.45 12.32 -1.45 12.32 Z" stroke-linecap="round" />
</g>
<g transform="matrix(0.39 0 0 0.39 145.23 188.32)" id="Слой_1"  >
<path style="stroke: none; stroke-width: 1; stroke-dasharray: none; stroke-linecap: butt; stroke-dashoffset: 0; stroke-linejoin: miter; stroke-miterlimit: 4; fill: rgb(63,167,243); fill-rule: nonzero; opacity: 1;"  transform=" translate(-115.78, -226.1)" d="M 68 242.07 s 47.53 0.26 55.53 -3.74 s 41 -22 40 -26 S 148 211 148 211 s -34.49 7.34 -49.49 16.34 C 92.8 230.75 68 242.07 68 242.07 Z" stroke-linecap="round" />
</g>
<g transform="matrix(0.39 0 0 0.39 279.64 213.34)" id="Слой_1"  >
<path style="stroke: none; stroke-width: 1; stroke-dasharray: none; stroke-linecap: butt; stroke-dashoffset: 0; stroke-linejoin: miter; stroke-miterlimit: 4; fill: rgb(250,236,33); fill-rule: nonzero; opacity: 1;"  transform=" translate(-459.87, -290.15)" d="M 432.19 275.73 s 11.78 1.93 20.5 3.87 s 14.62 2.66 16.74 2.66 a 37.52 37.52 0 0 0 5.66 -0.72 s 6 7.07 8.19 11.27 S 488 303.07 488 303.07 s -1.85 1.71 -5.62 1.47 s -25.92 -10.9 -29.93 -13.32 s -19.33 -8.23 -20.27 -10.89 A 6.28 6.28 0 0 1 432.19 275.73 Z" stroke-linecap="round" />
</g>
<g transform="matrix(0.39 0 0 0.39 199.97 208.38)" id="Слой_1"  >
<path style="stroke: none; stroke-width: 1; stroke-dasharray: none; stroke-linecap: butt; stroke-dashoffset: 0; stroke-linejoin: miter; stroke-miterlimit: 4; fill: rgb(35,31,32); fill-rule: nonzero; opacity: 1;"  transform=" translate(-255.93, -277.44)" d="M 446.1 350.21 l 0.14 -1.73 c 0 -0.32 2.49 -32.43 -13.28 -48.85 c -6.54 -6.81 -15.41 -10 -26.34 -9.57 c -11.43 0.48 -20.56 4.56 -27.14 12.12 c -14.72 16.95 -12 46 -12 46.28 l 0.16 1.65 H 233.47 c -20.46 0 -74.41 -2.88 -74.95 -2.91 l -1.68 -0.09 l 0.28 -1.66 c 0 -0.26 4.29 -26 -8.68 -41.78 c -6.5 -7.91 -16.29 -12.08 -29.1 -12.4 S 97 294.6 90.36 302.1 c -13.45 15.33 -9.49 41.89 -9.44 42.16 l 0.26 1.67 l -1.69 0.06 c -0.84 0 -20.58 0.7 -31.43 -2.23 c -9.61 -2.6 -29.66 -10 -32.1 -14.26 c -1.93 -3.38 -2.46 -9.83 -2.71 -12.93 l -0.06 -0.76 c -0.24 -2.66 2.41 -22.58 3 -25 a 28.28 28.28 0 0 1 3 -5.77 a 28.24 28.24 0 0 0 2.3 -4.2 c 0.05 -0.42 0.15 -1.33 0.27 -2.52 c 0.49 -4.85 1 -9.75 1.48 -11.68 a 14.19 14.19 0 0 1 3.33 -6.21 c 0.16 -0.24 0.36 -1.15 -0.25 -4.37 l -0.08 -0.43 c -0.29 -1.61 1.42 -6.14 2.41 -7.32 a 1.84 1.84 0 0 1 1.43 -0.74 c 1.32 -0.1 30.26 -3.93 39.1 -5.54 c 6 -1.1 12.74 -4.41 17.23 -6.61 a 24.64 24.64 0 0 1 4.9 -2.11 c 0.38 -0.14 1.64 -0.82 3 -1.55 c 9.18 -5 37.09 -20.16 75.25 -24.62 c 44.19 -5.16 90.66 -1.51 117.1 4.39 C 311 217 363.15 250.32 368 253.46 c 4.69 0.58 55.74 7 72.9 10.63 c 16.72 3.59 33.65 7.82 40.88 16.49 a 69.82 69.82 0 0 1 14.74 32.66 a 75.78 75.78 0 0 1 0.08 25 l 2.09 5 l -2.85 3.92 Z m -285.78 -5.92 c 9.21 0.48 54.78 2.82 73.15 2.82 h 130.9 a 92.48 92.48 0 0 1 0.57 -15.78 c 1.1 -9 4.12 -21.72 12.28 -31.11 c 7.13 -8.22 17 -12.65 29.28 -13.16 c 11.84 -0.49 21.47 3 28.63 10.5 c 8.77 9.14 12.13 22.59 13.41 32.27 a 101.5 101.5 0 0 1 0.79 17.18 l 44.94 -2.76 l 1 -1.41 l -1.79 -4.25 l 0.09 -0.45 a 73.16 73.16 0 0 0 0 -24.38 A 67.06 67.06 0 0 0 479.5 282.5 c -6.62 -7.94 -23 -12 -39.21 -15.48 c -17.77 -3.81 -72.43 -10.56 -73 -10.63 l -0.34 0 l -0.29 -0.19 c -0.56 -0.36 -56.21 -36.24 -80.62 -41.68 c -26.2 -5.85 -72.26 -9.46 -116.1 -4.34 c -37.59 4.39 -65.12 19.36 -74.16 24.28 c -2.68 1.45 -3.33 1.8 -3.92 1.87 a 37.27 37.27 0 0 0 -4.07 1.85 c -4.63 2.26 -11.63 5.69 -18 6.86 c -8 1.47 -34.29 5 -38.95 5.53 a 15.5 15.5 0 0 0 -1.57 4.64 l 0.06 0.35 c 0.49 2.55 0.89 5.39 -0.43 6.91 a 11.06 11.06 0 0 0 -2.67 4.93 c -0.46 1.9 -1.08 8 -1.42 11.29 c -0.12 1.21 -0.22 2.16 -0.27 2.59 c -0.14 1.11 -1.08 2.69 -2.72 5.38 a 29.71 29.71 0 0 0 -2.7 5 c -0.64 2.41 -3.16 21.8 -3 23.93 l 0.07 0.78 c 0.22 2.67 0.73 8.9 2.32 11.69 c 1.42 2.48 18.12 9.57 30.29 12.85 c 8.66 2.35 23.89 2.27 28.89 2.17 a 79.57 79.57 0 0 1 -0.18 -14.33 c 0.93 -11.9 4.58 -21.78 10.55 -28.58 c 7.2 -8.2 17.71 -12.2 31.31 -11.85 s 24.27 4.88 31.35 13.5 c 7.26 8.85 9.4 20.41 9.92 28.55 A 77.45 77.45 0 0 1 160.32 344.29 Z m -130 -93.71 h 0 Z m 61.16 -17.26 h 0 Z" stroke-linecap="round" />
</g>
<g transform="matrix(0.39 0 0 0.39 120.9 205)" id="Слой_1"  >
<path style="stroke: none; stroke-width: 1; stroke-dasharray: none; stroke-linecap: butt; stroke-dashoffset: 0; stroke-linejoin: miter; stroke-miterlimit: 4; fill: rgb(35,31,32); fill-rule: nonzero; opacity: 1;"  transform=" translate(-53.5, -268.81)" d="M 21.62 282.57 l 0.19 -1.69 c 0.05 -0.46 1.31 -11.42 1.45 -12.38 s 1.89 -4.52 3.4 -7.46 l 0.32 -6 l 58.4 3.27 l -34.5 16.41 v 7.56 Z m 8.2 -24.35 l -0.2 3.62 l -0.14 0.28 c -1.45 2.81 -3.1 6.24 -3.26 6.88 s -0.8 6.77 -1.24 10.54 l 22.9 -0.22 v -6.48 l 25.6 -12.17 Z" stroke-linecap="round" />
</g>
<g transform="matrix(0.39 0 0 0.39 281.27 213.31)" id="Слой_1"  >
<path style="stroke: none; stroke-width: 1; stroke-dasharray: none; stroke-linecap: butt; stroke-dashoffset: 0; stroke-linejoin: miter; stroke-miterlimit: 4; fill: rgb(35,31,32); fill-rule: nonzero; opacity: 1;"  transform=" translate(-464.06, -290.08)" d="M 487.13 306.06 l -0.83 0 c -4.37 -0.28 -27.08 -11.4 -30.62 -13.53 c -1.29 -0.78 -4 -2 -6.87 -3.32 c -9 -4.08 -13.28 -6.24 -14 -8.36 a 7.7 7.7 0 0 1 0.07 -5.76 l 0.49 -1 l 1.1 0.19 c 0.12 0 11.93 2 20.59 3.89 c 8.13 1.8 14.2 2.62 16.41 2.62 a 36.78 36.78 0 0 0 5.35 -0.69 l 0.87 -0.18 l 0.58 0.68 c 0.25 0.29 6.13 7.24 8.38 11.55 s 4.68 10.13 4.78 10.38 l 0.41 1 l -0.77 0.72 A 8.86 8.86 0 0 1 487.13 306.06 Z m -49.84 -28.63 a 5.55 5.55 0 0 0 0.31 2.4 c 0.76 1.31 8.37 4.77 12.45 6.63 c 3.08 1.4 5.74 2.61 7.18 3.48 c 4.43 2.67 26.09 12.9 29.26 13.1 a 7.5 7.5 0 0 0 3.64 -0.56 c -0.84 -2 -2.61 -6 -4.17 -9 c -1.71 -3.28 -5.94 -8.49 -7.46 -10.34 a 32.13 32.13 0 0 1 -5.07 0.59 c -2.44 0 -8.67 -0.83 -17.06 -2.7 C 449.51 279.54 440.63 278 437.29 277.43 Z" stroke-linecap="round" />
</g>
<g transform="matrix(0.39 0 0 0.39 146.66 229.13)" id="Слой_1"  >
<path style="stroke: none; stroke-width: 1; stroke-dasharray: none; stroke-linecap: butt; stroke-dashoffset: 0; stroke-linejoin: miter; stroke-miterlimit: 4; fill: rgb(35,31,32); fill-rule: nonzero; opacity: 1;"  transform=" translate(-119.44, -330.57)" d="M 119.43 367.63 a 37.06 37.06 0 1 1 37.07 -37.06 A 37.1 37.1 0 0 1 119.43 367.63 Z m 0 -71.12 a 34.06 34.06 0 1 0 34.07 34.06 A 34.1 34.1 0 0 0 119.43 296.51 Z m 0 63.09 a 29 29 0 1 1 29 -29 A 29.07 29.07 0 0 1 119.43 359.6 Z m 0 -55.06 a 26 26 0 1 0 26 26 A 26.06 26.06 0 0 0 119.43 304.54 Z" stroke-linecap="round" />
</g>
<g transform="matrix(0.39 0 0 0.39 226.52 191.72)" id="Слой_1"  >
<path style="stroke: none; stroke-width: 1; stroke-dasharray: none; stroke-linecap: butt; stroke-dashoffset: 0; stroke-linejoin: miter; stroke-miterlimit: 4; fill: rgb(63,167,243); fill-rule: nonzero; opacity: 1;"  transform=" translate(-323.89, -234.79)" d="M 286.29 214.69 s 0.67 8.33 5.19 13.5 s 37.45 23.89 37.45 23.89 l 32.56 2.82 s -31.1 -19.12 -41.36 -24.51 S 286.29 214.69 286.29 214.69 Z" stroke-linecap="round" />
</g>
<g transform="matrix(0.39 0 0 0.39 259.35 229.13)" id="Слой_1"  >
<path style="stroke: none; stroke-width: 1; stroke-dasharray: none; stroke-linecap: butt; stroke-dashoffset: 0; stroke-linejoin: miter; stroke-miterlimit: 4; fill: rgb(35,31,32); fill-rule: nonzero; opacity: 1;"  transform=" translate(-407.94, -330.57)" d="M 408 367.63 A 37.06 37.06 0 1 1 445 330.57 A 37.1 37.1 0 0 1 408 367.63 Z m 0 -71.12 A 34.06 34.06 0 1 0 442 330.57 A 34.1 34.1 0 0 0 408 296.51 Z m 0 63.09 a 29 29 0 1 1 29 -29 A 29.06 29.06 0 0 1 408 359.6 Z m 0 -55.06 a 26 26 0 1 0 26 26 A 26.06 26.06 0 0 0 408 304.54 Z" stroke-linecap="round" />
</g>
<g transform="matrix(0.39 0 0 0.39 229.74 191.65)" id="Слой_1"  >
<path style="stroke: none; stroke-width: 1; stroke-dasharray: none; stroke-linecap: butt; stroke-dashoffset: 0; stroke-linejoin: miter; stroke-miterlimit: 4; fill: rgb(35,31,32); fill-rule: nonzero; opacity: 1;"  transform=" translate(-332.13, -234.63)" d="M 373.68 256.94 l -39.21 -3.4 l -0.28 -0.16 c -1.35 -0.77 -33.21 -18.91 -37.84 -24.21 c -4.79 -5.47 -5.53 -14 -5.56 -14.36 l -0.2 -2.5 l 2.3 1 c 0.24 0.1 23.74 10.39 33.94 15.74 s 41.14 24.37 41.45 24.56 Z m -38.29 -6.33 l 25.89 2.25 c -9.39 -5.73 -28.34 -17.2 -35.85 -21.14 c -8.14 -4.28 -24.91 -11.76 -31.24 -14.56 c 0.54 2.73 1.78 7 4.42 10 C 302.14 231.24 326.08 245.31 335.39 250.61 Z" stroke-linecap="round" />
</g>
<g transform="matrix(0.39 0 0 0.39 146.65 229.13)" id="Слой_1"  >
<path style="stroke: none; stroke-width: 1; stroke-dasharray: none; stroke-linecap: butt; stroke-dashoffset: 0; stroke-linejoin: miter; stroke-miterlimit: 4; fill: rgb(35,31,32); fill-rule: nonzero; opacity: 1;"  transform=" translate(-119.42, -330.57)" d="M 119.43 343.57 a 13 13 0 1 1 9.19 -22.19 h 0 a 13 13 0 0 1 -9.19 22.19 Z m 0 -23 a 10 10 0 1 0 7.07 2.93 h 0 A 9.91 9.91 0 0 0 119.43 320.57 Z" stroke-linecap="round" />
</g>
<g transform="matrix(0.39 0 0 0.39 259.37 229.13)" id="Слой_1"  >
<path style="stroke: none; stroke-width: 1; stroke-dasharray: none; stroke-linecap: butt; stroke-dashoffset: 0; stroke-linejoin: miter; stroke-miterlimit: 4; fill: rgb(35,31,32); fill-rule: nonzero; opacity: 1;"  transform=" translate(-407.99, -330.57)" d="M 408 343.57 a 13 13 0 1 1 9.19 -22.19 h 0 A 13 13 0 0 1 408 343.57 Z m 0 -23 A 10 10 0 1 0 415 323.5 h 0 A 9.93 9.93 0 0 0 408 320.57 Z" stroke-linecap="round" />
</g>
<g transform="matrix(0.39 0 0 0.39 139.96 227.42)" id="Слой_1"  >
<path style="stroke: none; stroke-width: 1; stroke-dasharray: none; stroke-linecap: butt; stroke-dashoffset: 0; stroke-linejoin: miter; stroke-miterlimit: 4; fill: rgb(255,29,37); fill-rule: nonzero; opacity: 1;"  transform=" translate(-102.3, -326.2)" d="M 112 316.83 a 4.05 4.05 0 0 0 -2 -5 c -2 -1 -11.67 2.18 -15 8 c -4 7 -3 16 0 20 c 2.16 2.89 7 -2 7 -2 s -3 -8 -1 -13 S 112 316.83 112 316.83 Z" stroke-linecap="round" />
</g>
<g transform="matrix(0.39 0 0 0.39 252.85 227.42)" id="Слой_1"  >
<path style="stroke: none; stroke-width: 1; stroke-dasharray: none; stroke-linecap: butt; stroke-dashoffset: 0; stroke-linejoin: miter; stroke-miterlimit: 4; fill: rgb(255,29,37); fill-rule: nonzero; opacity: 1;"  transform=" translate(-391.3, -326.2)" d="M 401 316.83 a 4.05 4.05 0 0 0 -2 -5 c -2 -1 -11.67 2.18 -15 8 c -4 7 -3 16 0 20 c 2.16 2.89 7 -2 7 -2 s -3 -8 -1 -13 S 401 316.83 401 316.83 Z" stroke-linecap="round" />
</g>
<g transform="matrix(0.39 0 0 0.39 141.13 227.42)" id="Слой_1"  >
<path style="stroke: none; stroke-width: 1; stroke-dasharray: none; stroke-linecap: butt; stroke-dashoffset: 0; stroke-linejoin: miter; stroke-miterlimit: 4; fill: rgb(35,31,32); fill-rule: nonzero; opacity: 1;"  transform=" translate(-105.3, -326.2)" d="M 99.8 342.24 h -0.28 a 3.64 3.64 0 0 1 -2.72 -1.51 c -3.4 -4.54 -4.41 -14.1 -0.1 -21.64 c 2.18 -3.81 6.37 -6.14 8.68 -7.18 c 2.69 -1.22 6.48 -2.33 8.29 -1.42 a 5.46 5.46 0 0 1 2.74 6.85 l -0.25 0.69 l -0.68 0.23 c -2.33 0.77 -8.66 3.57 -10.09 7.13 c -1.76 4.4 1 11.84 1 11.92 l 0.33 0.9 l -0.67 0.68 C 105.5 339.46 102.6 342.24 99.8 342.24 Z m 12.09 -29.12 c -2.22 0 -9.78 2.55 -12.59 7.46 c -3.53 6.18 -2.89 14.63 -0.1 18.35 a 0.65 0.65 0 0 0 0.53 0.31 c 0.92 0.07 2.44 -0.92 3.54 -1.85 c -0.77 -2.39 -2.44 -8.67 -0.66 -13.11 c 1.87 -4.7 8.74 -7.67 11.11 -8.58 a 2.38 2.38 0 0 0 -1.39 -2.53 A 1.66 1.66 0 0 0 111.89 313.12 Z" stroke-linecap="round" />
</g>
<g transform="matrix(0.39 0 0 0.39 254.02 227.42)" id="Слой_1"  >
<path style="stroke: none; stroke-width: 1; stroke-dasharray: none; stroke-linecap: butt; stroke-dashoffset: 0; stroke-linejoin: miter; stroke-miterlimit: 4; fill: rgb(35,31,32); fill-rule: nonzero; opacity: 1;"  transform=" translate(-394.3, -326.2)" d="M 388.8 342.24 h -0.28 a 3.64 3.64 0 0 1 -2.72 -1.51 c -3.4 -4.54 -4.41 -14.1 -0.1 -21.64 c 2.18 -3.81 6.37 -6.14 8.68 -7.18 c 2.69 -1.22 6.48 -2.33 8.29 -1.42 a 5.46 5.46 0 0 1 2.74 6.85 l -0.25 0.69 l -0.68 0.23 c -2.33 0.77 -8.66 3.57 -10.09 7.13 c -1.76 4.4 1 11.84 1 11.92 l 0.33 0.9 l -0.67 0.68 C 394.5 339.46 391.6 342.24 388.8 342.24 Z m 12.09 -29.12 c -2.22 0 -9.78 2.55 -12.59 7.46 c -3.53 6.18 -2.89 14.63 -0.1 18.35 a 0.65 0.65 0 0 0 0.53 0.31 c 0.91 0.07 2.44 -0.92 3.54 -1.85 c -0.77 -2.39 -2.44 -8.67 -0.66 -13.11 c 1.87 -4.7 8.74 -7.67 11.11 -8.58 a 2.38 2.38 0 0 0 -1.39 -2.53 A 1.66 1.66 0 0 0 400.89 313.12 Z" stroke-linecap="round" />
</g>
<g transform="matrix(0.39 0 0 0.39 188.09 190.72)" id="Слой_1"  >
<path style="stroke: none; stroke-width: 1; stroke-dasharray: none; stroke-linecap: butt; stroke-dashoffset: 0; stroke-linejoin: miter; stroke-miterlimit: 4; fill: rgb(63,167,243); fill-rule: nonzero; opacity: 1;"  transform=" translate(-225.5, -232.25)" d="M 138 239.83 s 30 -26 34 -27 s 66 -2 81 0 s 22 5 24 7 s 36 33 36 33 s -117 -6 -128 -7 S 138 239.83 138 239.83 Z" stroke-linecap="round" />
</g>
<g transform="matrix(0.39 0 0 0.39 146.94 188.32)" id="Слой_1"  >
<path style="stroke: none; stroke-width: 1; stroke-dasharray: none; stroke-linecap: butt; stroke-dashoffset: 0; stroke-linejoin: miter; stroke-miterlimit: 4; fill: rgb(35,31,32); fill-rule: nonzero; opacity: 1;"  transform=" translate(-120.17, -226.1)" d="M 77.08 243.57 H 75 l -6.82 0 l 6.2 -2.83 c 0.25 -0.11 24.83 -11.32 30.39 -14.65 c 15 -9 48.53 -16.23 50 -16.53 c 4.82 -0.88 16.07 -2.39 17.28 2.45 c 0.34 1.37 0.91 3.66 -17.31 14.65 c -8.85 5.33 -19.06 10.84 -23.48 13 C 123.85 243.34 86.54 243.57 77.08 243.57 Z m 86.67 -31.95 a 48.32 48.32 0 0 0 -8.48 0.84 c -0.31 0.07 -34.39 7.39 -49 16.16 c -4 2.37 -16.65 8.34 -24.43 11.94 c 15.82 -0.12 42.59 -0.87 48 -3.57 c 4.1 -2.05 13.72 -7.23 22.26 -12.34 c 14.25 -8.51 16.53 -11.37 16.89 -12.09 C 168.58 212 166.67 211.62 163.75 211.62 Z" stroke-linecap="round" />
</g>
<g transform="matrix(0.39 0 0 0.39 190.55 190.77)" id="Слой_1"  >
<path style="stroke: none; stroke-width: 1; stroke-dasharray: none; stroke-linecap: butt; stroke-dashoffset: 0; stroke-linejoin: miter; stroke-miterlimit: 4; fill: rgb(35,31,32); fill-rule: nonzero; opacity: 1;"  transform=" translate(-231.81, -232.36)" d="M 323.1 254.55 l -4.18 -0.22 c -1.17 -0.06 -117.15 -6 -128.06 -7 s -46.71 -6 -47.07 -6 l -3.27 -0.46 l 2.5 -2.16 c 5 -4.38 30.48 -26.29 34.62 -27.32 c 4.77 -1.2 67 -2 81.56 0 c 12.6 1.68 21.89 4.45 24.86 7.42 c 1.95 2 35.61 32.65 35.95 32.95 Z M 147.49 238.8 c 9.14 1.25 34.76 4.73 43.65 5.54 c 9.66 0.88 102.77 5.7 123.76 6.78 c -8.48 -7.73 -31.3 -28.56 -33 -30.23 c -1.86 -1.85 -9 -4.69 -23.14 -6.57 c -15 -2 -76.76 -0.95 -80.44 0 C 176.09 214.88 161.23 227 147.49 238.8 Z" stroke-linecap="round" />
</g>
<g transform="matrix(0.39 0 0 0.39 165.44 200.51)" id="Слой_1"  >
<path style="stroke: none; stroke-width: 1; stroke-dasharray: none; stroke-linecap: butt; stroke-dashoffset: 0; stroke-linejoin: miter; stroke-miterlimit: 4; fill: rgb(35,31,32); fill-rule: nonzero; opacity: 1;"  transform=" translate(-167.51, -257.31)" d="M 184.15 263.36 l -0.33 0 l -33.36 -4 l -0.29 -0.2 c -0.61 -0.41 -3.67 -2.58 -3.67 -5.25 a 2.56 2.56 0 0 1 1 -2 c 1.42 -1.1 3.93 -0.64 4.8 -0.43 l 31.83 4 c 2.14 0 4.4 1.13 4.4 3.5 c 0 3 -3.61 4.29 -4 4.43 Z m -32.59 -7 l 32.25 3.91 c 0.78 -0.33 1.69 -1 1.69 -1.47 c 0 -0.26 -0.93 -0.49 -1.51 -0.5 h -0.18 l -32.17 -4 a 6.43 6.43 0 0 0 -2.09 -0.18 A 6.11 6.11 0 0 0 151.56 256.39 Z" stroke-linecap="round" />
</g>
<g transform="matrix(0.39 0 0 0.39 188.61 213.85)" id="Слой_1"  >
<path style="stroke: none; stroke-width: 1; stroke-dasharray: none; stroke-linecap: butt; stroke-dashoffset: 0; stroke-linejoin: miter; stroke-miterlimit: 4; fill: rgb(35,31,32); fill-rule: nonzero; opacity: 1;"  transform=" translate(-226.83, -291.44)" d="M 302.5 338.83 H 169.13 l -0.12 -1.36 c 0 -0.43 -4.13 -43.47 -19.41 -54.94 c -16.3 -12.22 -20.41 -36.91 -20.58 -38 l 3 -0.47 c 0 0.24 4.1 24.55 19.42 36 c 6.92 5.2 12.49 16.41 16.56 33.35 a 190.93 190.93 0 0 1 3.89 22.35 H 300.93 A 223 223 0 0 1 303 300.14 c 3 -23.17 18.68 -42 19.34 -42.77 l 2.3 1.93 c -0.16 0.19 -15.76 18.95 -18.66 41.23 c -2.95 22.55 -2 36.56 -2 36.7 l 0.11 1.6 Z" stroke-linecap="round" />
</g>
<g transform="matrix(0.39 0 0 0.39 141.8 204.62)" id="Слой_1"  >
<path style="stroke: none; stroke-width: 1; stroke-dasharray: none; stroke-linecap: butt; stroke-dashoffset: 0; stroke-linejoin: miter; stroke-miterlimit: 4; fill: rgb(35,31,32); fill-rule: nonzero; opacity: 1;"  transform=" translate(-107, -267.83)" d="M 107 278.83 a 11 11 0 1 1 11 -11 A 11 11 0 0 1 107 278.83 Z m 0 -19 a 8 8 0 1 0 8 8 A 8 8 0 0 0 107 259.83 Z" stroke-linecap="round" />
</g>
<g transform="matrix(0.39 0 0 0.39 211.12 207.55)" id="Слой_1"  >
<path style="stroke: none; stroke-width: 1; stroke-dasharray: none; stroke-linecap: butt; stroke-dashoffset: 0; stroke-linejoin: miter; stroke-miterlimit: 4; fill: rgb(35,31,32); fill-rule: nonzero; opacity: 1;"  transform=" translate(-284.47, -275.33)" d="M 232.19 282.9 c -39.47 0 -83.56 -10 -84 -10.11 l 0.66 -2.92 c 0.48 0.11 48.29 11 88.63 10 c 24.6 -0.6 52.87 -4.5 75.59 -7.65 c 15.32 -2.11 28.56 -3.94 37.38 -4.35 c 21.9 -1 68.32 5.73 70.29 6 l -0.44 3 c -0.47 -0.07 -48.12 -7 -69.71 -6 c -8.69 0.4 -21.86 2.22 -37.11 4.33 c -22.79 3.15 -51.16 7.07 -75.92 7.67 C 235.77 282.88 234 282.9 232.19 282.9 Z" stroke-linecap="round" />
</g>
</svg>