<?xml version="1.0" encoding="UTF-8" standalone="no" ?>
<!DOCTYPE svg PUBLIC "-//W3C//DTD SVG 1.1//EN" "http://www.w3.org/Graphics/SVG/1.1/DTD/svg11.dtd">
<svg xmlns="http://www.w3.org/2000/svg" xmlns:xlink="http://www.w3.org/1999/xlink" version="1.1" width="400" height="400" viewBox="0 0 400 400" xml:space="preserve">
<desc>Created with Fabric.js 3.6.2</desc>
<defs>
</defs>
<g transform="matrix(0.39 0 0 0.39 149.19 182.56)" id="Слой_1"  >
<path style="stroke: none; stroke-width: 1; stroke-dasharray: none; stroke-linecap: butt; stroke-dashoffset: 0; stroke-linejoin: miter; stroke-miterlimit: 4; fill: rgb(202,202,202); fill-rule: nonzero; opacity: 1;"  transform=" translate(-125.93, -211.35)" d="M 105.08 236.51 l -0.25 -13.25 L 131 194.94 s 6.1 -8.73 10.43 -8.73 a 5.8 5.8 0 0 1 5.59 3.31 L 112.2 225.06 L 114 235.61 Z" stroke-linecap="round" />
</g>
<g transform="matrix(0.39 0 0 0.39 159.92 182.66)" id="Слой_1"  >
<path style="stroke: none; stroke-width: 1; stroke-dasharray: none; stroke-linecap: butt; stroke-dashoffset: 0; stroke-linejoin: miter; stroke-miterlimit: 4; fill: rgb(202,202,202); fill-rule: nonzero; opacity: 1;"  transform=" translate(-153.41, -211.6)" d="M 144 235.61 s 1.78 -21.09 1.78 -23.8 s 1.27 -22.89 5.84 -24.1 s 11.19 5.42 11.19 5.42 l -0.76 8.14 s -4.83 -6 -6.1 -6 s -3.31 12 -3.31 13.26 s -2.54 19.27 -2.54 19.27 l 2.8 7.84 Z" stroke-linecap="round" />
</g>
<g transform="matrix(0.39 0 0 0.39 145.13 228.51)" id="Слой_1"  >
<circle style="stroke: none; stroke-width: 1; stroke-dasharray: none; stroke-linecap: butt; stroke-dashoffset: 0; stroke-linejoin: miter; stroke-miterlimit: 4; fill: rgb(145,147,150); fill-rule: nonzero; opacity: 1;"  cx="0" cy="0" r="12.31" />
</g>
<g transform="matrix(0.39 0 0 0.39 261.85 228.51)" id="Слой_1"  >
<circle style="stroke: none; stroke-width: 1; stroke-dasharray: none; stroke-linecap: butt; stroke-dashoffset: 0; stroke-linejoin: miter; stroke-miterlimit: 4; fill: rgb(145,147,150); fill-rule: nonzero; opacity: 1;"  cx="0" cy="0" r="12.31" />
</g>
<g transform="matrix(0.39 0 0 0.39 134.05 211.64)" id="Слой_1"  >
<path style="stroke: none; stroke-width: 1; stroke-dasharray: none; stroke-linecap: butt; stroke-dashoffset: 0; stroke-linejoin: miter; stroke-miterlimit: 4; fill: rgb(0,104,55); fill-rule: nonzero; opacity: 1;"  transform=" translate(-87.16, -285.8)" d="M 9.07 240 H 161.6 l 8.13 91.57 s -9.15 -1.21 -11.18 0 s 0 -51.81 -47.8 -51.81 S 71.1 331.58 71.1 331.58 h -3 l -12.21 -4.82 l -35.59 -6 s -3.05 1.21 -7.11 -8.43 a 75 75 0 0 1 -5.09 -18.08 a 54.21 54.21 0 0 1 -2 -6 C 5 284.59 6 275 6 272.54 s 1 -3.62 0 -4.82 s -2 -4.82 -1 -9.64 s 2 -6 2 -6 Z" stroke-linecap="round" />
</g>
<g transform="matrix(0.39 0 0 0.39 105.54 206.51)" id="Слой_1"  >
<path style="stroke: none; stroke-width: 1; stroke-dasharray: none; stroke-linecap: butt; stroke-dashoffset: 0; stroke-linejoin: miter; stroke-miterlimit: 4; fill: rgb(255,29,37); fill-rule: nonzero; opacity: 1;"  transform=" translate(-14.18, -272.67)" d="M 13.92 251.47 L 10.21 249 l -0.19 1.1 s -1 1.21 -2 6 s 0 8.43 1 9.64 s 0 2.41 0 4.82 S 8 282.6 9 286.21 a 56.08 56.08 0 0 0 2 6 s 0.19 1.57 0.73 4.14 l 4.86 -3.14 S 20 277.17 20.7 263.52 S 13.92 251.47 13.92 251.47 Z" stroke-linecap="round" />
</g>
<g transform="matrix(0.39 0 0 0.39 228.29 198.6)" id="Слой_1"  >
<path style="stroke: none; stroke-width: 1; stroke-dasharray: none; stroke-linecap: butt; stroke-dashoffset: 0; stroke-linejoin: miter; stroke-miterlimit: 4; fill: rgb(0,104,55); fill-rule: nonzero; opacity: 1;"  transform=" translate(-328.42, -252.41)" d="M 494.08 308.89 c -1 -2.41 0 -19.27 -1 -24.09 s 1 -12.05 -1 -14.46 S 489 252.26 487 249.85 s -3.05 -10.84 -43.73 -18.07 s -63 -4.82 -68.13 -7.23 s -45.76 -39.76 -71.18 -45.78 s -80.33 -4.82 -97.61 -3.62 s -29.49 0 -35.59 6 s -7.12 15.66 -8.14 26.5 s 9.15 122.9 9.15 122.9 l 86.43 -1.2 l 106.77 1.2 s 4.07 0 6.1 -6 s 3.06 -48.2 42.71 -49.4 s 41.69 32.53 42.71 37.35 s -1 19.28 3.05 18.07 s 14.24 -7.23 18.3 -7.23 s 8.14 1.21 11.19 -2.41 S 495.1 311.3 494.08 308.89 Z M 250.55 236 c -2 1.2 -51.86 -2.11 -51.86 -2.11 s -8.14 -0.9 -10.42 -5.12 c 0 0 -3.31 -1.81 -4.07 -11.15 s -1.78 -25.6 1 -28.61 a 8 8 0 0 1 6.1 -2.71 l 52.62 -2.41 s 4.32 -1.21 5.34 2.11 s 3.56 45.78 3.56 45.78 S 252.58 234.79 250.55 236 Z m 99.9 0.9 s -77.28 -0.3 -80.58 -0.6 a 3.3 3.3 0 0 1 -3.05 -3.61 l -6.1 -42.48 a 15.25 15.25 0 0 1 0.25 -4.51 c 0.51 -2.11 3 -1.81 3 -1.81 s 4.32 0.3 17.54 0.9 s 24.15 3 38.9 10.54 s 38.38 30.43 38.64 36.45 S 350.45 236.9 350.45 236.9 Z" stroke-linecap="round" />
</g>
<g transform="matrix(0.39 0 0 0.39 145.25 228.51)" id="Слой_1"  >
<path style="stroke: none; stroke-width: 1; stroke-dasharray: none; stroke-linecap: butt; stroke-dashoffset: 0; stroke-linejoin: miter; stroke-miterlimit: 4; fill: rgb(65,64,66); fill-rule: nonzero; opacity: 1;"  transform=" translate(-115.84, -328.98)" d="M 115.81 290.82 A 38.16 38.16 0 1 0 154 329 A 38.15 38.15 0 0 0 115.81 290.82 Z m -0.24 64.32 A 26.17 26.17 0 1 1 141.74 329 A 26.16 26.16 0 0 1 115.57 355.14 Z" stroke-linecap="round" />
</g>
<g transform="matrix(0.39 0 0 0.39 261.96 228.51)" id="Слой_1"  >
<path style="stroke: none; stroke-width: 1; stroke-dasharray: none; stroke-linecap: butt; stroke-dashoffset: 0; stroke-linejoin: miter; stroke-miterlimit: 4; fill: rgb(65,64,66); fill-rule: nonzero; opacity: 1;"  transform=" translate(-414.61, -328.98)" d="M 414.62 290.82 A 38.16 38.16 0 1 0 452.77 329 A 38.15 38.15 0 0 0 414.62 290.82 Z m -0.25 64.32 A 26.17 26.17 0 1 1 440.54 329 A 26.16 26.16 0 0 1 414.37 355.14 Z" stroke-linecap="round" />
</g>
<g transform="matrix(0.39 0 0 0.39 136.41 210.88)" id="Слой_1"  >
<path style="stroke: none; stroke-width: 1; stroke-dasharray: none; stroke-linecap: butt; stroke-dashoffset: 0; stroke-linejoin: miter; stroke-miterlimit: 4; fill: rgb(35,31,32); fill-rule: nonzero; opacity: 1;"  transform=" translate(-93.21, -283.87)" d="M 177.36 331.32 l -1.86 -0.25 c -4.67 -0.61 -9.35 -0.7 -10.22 -0.19 a 1.64 1.64 0 0 1 -1.52 0.07 c -1 -0.48 -1.17 -1.44 -1.73 -5 c -7.28 -46.66 -35.9 -46.66 -45.31 -46.66 c -12.87 0 -22.71 3.87 -29.25 11.51 c -12.49 14.59 -9 38.33 -8.92 38.56 l 0.27 1.73 H 73.73 l -12.32 -4.87 l -35.13 -6 c -1.46 0.24 -4.78 -0.43 -8.56 -9.38 a 76.47 76.47 0 0 1 -5.16 -18.27 a 57.93 57.93 0 0 1 -2 -6 c -0.82 -2.94 -0.45 -9.06 -0.2 -13.11 c 0.08 -1.28 0.15 -2.39 0.15 -3 a 13 13 0 0 1 0.3 -2.6 c 0.2 -1 0.18 -1.11 0.05 -1.26 c -1.4 -1.66 -2.42 -5.78 -1.34 -10.91 a 20.91 20.91 0 0 1 2.08 -6.28 l 2.19 -13 H 168.94 Z M 74.3 328.09 h 1.07 c -0.63 -6 -1.69 -25.79 9.81 -39.24 c 7.13 -8.34 17.75 -12.57 31.54 -12.57 c 40.6 0 46.38 37 48.28 49.2 c 0.13 0.82 0.26 1.66 0.37 2.29 a 37 37 0 0 1 8.67 0.11 l -7.85 -88.36 H 16.31 l -1.89 11.2 l -0.27 0.31 h 0 s -0.84 1.24 -1.71 5.37 c -0.95 4.51 0.08 7.63 0.69 8.36 a 4 4 0 0 1 0.6 3.78 a 9.89 9.89 0 0 0 -0.24 2 c 0 0.66 -0.07 1.76 -0.16 3.15 c -0.22 3.61 -0.59 9.66 0.1 12.1 a 56.71 56.71 0 0 0 2 5.85 l 0.08 0.2 l 0 0.2 a 74.24 74.24 0 0 0 5 17.68 c 2.89 6.85 5 7.5 5.34 7.56 l 0.23 -0.1 l 36.3 6.18 Z" stroke-linecap="round" />
</g>
<g transform="matrix(0.39 0 0 0.39 230.22 198.21)" id="Слой_1"  >
<path style="stroke: none; stroke-width: 1; stroke-dasharray: none; stroke-linecap: butt; stroke-dashoffset: 0; stroke-linejoin: miter; stroke-miterlimit: 4; fill: rgb(35,31,32); fill-rule: nonzero; opacity: 1;"  transform=" translate(-333.36, -251.41)" d="M 464 331.16 a 2.72 2.72 0 0 1 -1.62 -0.54 c -2 -1.49 -2.14 -5.53 -2.14 -12 a 43.25 43.25 0 0 0 -0.3 -6.79 c -0.08 -0.38 -0.17 -0.93 -0.28 -1.63 c -0.61 -3.87 -2 -12.94 -7.68 -20.72 c -7 -9.62 -18.18 -14.26 -33.24 -13.81 c -33 1 -38.18 31 -40.39 43.85 a 35.1 35.1 0 0 1 -0.94 4.53 c -2.35 7 -7.31 7 -7.52 7 l -106.77 -1.21 l -87.8 1.23 l -0.13 -1.39 c -0.41 -4.58 -10.17 -112.31 -9.15 -123.17 c 1 -10.28 2 -20.9 8.58 -27.44 c 5.12 -5.06 13.7 -5.41 25.58 -5.89 c 3.46 -0.14 7 -0.29 11 -0.56 c 16.37 -1.14 72.29 -2.46 98.06 3.65 c 19.3 4.58 47 26.69 61.86 38.58 c 4.55 3.63 8.49 6.78 9.62 7.31 c 1.7 0.81 6.55 1 13.26 1.33 a 389.29 389.29 0 0 1 54.49 5.78 c 37 6.57 41.77 14.15 44.06 17.78 a 7.51 7.51 0 0 0 0.55 0.8 c 1.22 1.45 1.88 5.11 2.87 11 c 0.58 3.44 1.46 8.63 2.21 9.53 c 1.54 1.81 1.37 4.89 1.19 8.45 a 28 28 0 0 0 0.15 6.66 c 0.54 2.56 0.54 8 0.54 13.26 c 0 4.05 0 9.59 0.39 10.57 c 1.4 3.31 -2.35 10.07 -5.32 13.6 s -6.66 3.23 -10 3 c -0.79 0 -1.59 -0.09 -2.37 -0.09 c -2.18 0 -7.09 2.33 -11 4.21 a 57 57 0 0 1 -6.84 2.95 A 3 3 0 0 1 464 331.16 Z m -43.18 -58.53 c 23.89 0 37.95 12.47 41.8 37.1 c 0.1 0.63 0.18 1.13 0.25 1.47 a 42.56 42.56 0 0 1 0.37 7.41 c 0 3 0 8.43 0.85 9.52 a 58.44 58.44 0 0 0 6.34 -2.77 c 4.66 -2.21 9.47 -4.5 12.33 -4.5 c 0.87 0 1.72 0.05 2.54 0.1 c 3.44 0.2 5.64 0.22 7.5 -2 c 3.27 -3.88 5.44 -9.1 4.85 -10.5 s -0.63 -5.19 -0.63 -11.73 c 0 -4.87 0 -10.38 -0.48 -12.64 a 30 30 0 0 1 -0.21 -7.43 c 0.14 -2.56 0.29 -5.46 -0.48 -6.37 c -1.22 -1.44 -1.89 -5.1 -2.88 -11 c -0.58 -3.43 -1.45 -8.63 -2.21 -9.52 a 10.76 10.76 0 0 1 -0.78 -1.14 c -1.91 -3 -6.37 -10.08 -42.06 -16.43 a 386.12 386.12 0 0 0 -54.1 -5.73 c -7.58 -0.34 -12.16 -0.55 -14.41 -1.62 c -1.38 -0.65 -4.29 -2.95 -10.2 -7.68 c -14.69 -11.74 -42 -33.58 -60.68 -38 c -25.44 -6 -80.91 -4.71 -97.17 -3.58 c -3.95 0.28 -7.72 0.43 -11 0.57 c -11.2 0.45 -19.3 0.78 -23.6 5 c -5.83 5.76 -6.74 15.39 -7.69 25.58 c -0.93 9.94 7.86 108.34 9 121.24 l 85.08 -1.19 l 106.76 1.21 c 0.08 0 3 -0.18 4.67 -5 a 36.32 36.32 0 0 0 0.82 -4.08 c 2.14 -12.38 7.81 -45.26 43.26 -46.34 Z" stroke-linecap="round" />
</g>
<g transform="matrix(0.39 0 0 0.39 146.8 228.12)" id="Слой_1"  >
<path style="stroke: none; stroke-width: 1; stroke-dasharray: none; stroke-linecap: butt; stroke-dashoffset: 0; stroke-linejoin: miter; stroke-miterlimit: 4; fill: rgb(35,31,32); fill-rule: nonzero; opacity: 1;"  transform=" translate(-119.8, -327.98)" d="M 119.79 367.63 A 39.65 39.65 0 1 1 159.45 328 A 39.7 39.7 0 0 1 119.79 367.63 Z m 0 -76.3 A 36.65 36.65 0 1 0 156.45 328 A 36.69 36.69 0 0 0 119.79 291.33 Z m -0.24 64.32 A 27.67 27.67 0 1 1 147.22 328 A 27.7 27.7 0 0 1 119.55 355.65 Z m 0 -52.34 A 24.67 24.67 0 1 0 144.22 328 A 24.7 24.7 0 0 0 119.55 303.31 Z" stroke-linecap="round" />
</g>
<g transform="matrix(0.39 0 0 0.39 146.34 213.51)" id="Слой_1"  >
<path style="stroke: none; stroke-width: 1; stroke-dasharray: none; stroke-linecap: butt; stroke-dashoffset: 0; stroke-linejoin: miter; stroke-miterlimit: 4; fill: rgb(35,31,32); fill-rule: nonzero; opacity: 1;"  transform=" translate(-118.63, -290.58)" d="M 61.08 323.59 a 89.41 89.41 0 0 1 6.43 -32.27 c 6.17 -14.94 19.62 -32.92 48.66 -33.72 s 43.82 16.66 51.12 31.45 a 93.4 93.4 0 0 1 8.89 32.31 l -3 0.18 a 92.11 92.11 0 0 0 -8.63 -31.24 C 154.51 270 138.27 260 116.25 260.6 s -37.44 11.3 -45.93 31.79 a 88 88 0 0 0 -6.24 31.15 Z" stroke-linecap="round" />
</g>
<g transform="matrix(0.39 0 0 0.39 151.2 182.59)" id="Слой_1"  >
<path style="stroke: none; stroke-width: 1; stroke-dasharray: none; stroke-linecap: butt; stroke-dashoffset: 0; stroke-linejoin: miter; stroke-miterlimit: 4; fill: rgb(35,31,32); fill-rule: nonzero; opacity: 1;"  transform=" translate(-131.08, -211.44)" d="M 108.64 238.17 l -0.29 -15.49 L 134.87 194 c 0.91 -1.29 6.76 -9.29 11.6 -9.29 a 7.28 7.28 0 0 1 7 4.27 l 0.34 0.9 l -35 35.69 l 1.92 11.37 Z m 2.73 -14.34 l 0.21 11 l 5.68 -0.57 l -1.64 -9.72 l 34.56 -35.27 a 4.54 4.54 0 0 0 -3.71 -1.58 c -2.44 0 -6.85 4.73 -9.2 8.09 l -0.13 0.16 Z" stroke-linecap="round" />
</g>
<g transform="matrix(0.39 0 0 0.39 161.88 182.65)" id="Слой_1"  >
<path style="stroke: none; stroke-width: 1; stroke-dasharray: none; stroke-linecap: butt; stroke-dashoffset: 0; stroke-linejoin: miter; stroke-miterlimit: 4; fill: rgb(35,31,32); fill-rule: nonzero; opacity: 1;"  transform=" translate(-158.4, -211.59)" d="M 160 237.11 H 147.38 l 0.13 -1.63 c 0.62 -7.27 1.78 -21.58 1.78 -23.67 c 0 -0.24 0.63 -23.88 7 -25.55 c 5.26 -1.38 11.89 5.07 12.63 5.82 l 0.5 0.49 L 168.2 205.1 l -2.31 -2.89 a 48.26 48.26 0 0 0 -4.47 -4.94 a 73 73 0 0 0 -2.27 11.23 c 0 1.2 -2 15.39 -2.5 19.12 Z m -9.39 -3 h 5.14 l -2.21 -6.18 l 0.05 -0.36 c 1 -6.86 2.51 -18.1 2.53 -19.08 a 65 65 0 0 1 1.21 -7.38 c 1.33 -6.3 2.18 -7.37 3.6 -7.37 c 0.49 0 1.54 0 4.94 3.82 l 0.36 -3.84 c -2 -1.81 -6.47 -5.29 -9.24 -4.56 c -0.08 0 -2 0.63 -3.54 10.27 a 100.87 100.87 0 0 0 -1.19 12.38 C 152.29 214.13 151.06 229.07 150.64 234.11 Z m 10 -37.42 Z" stroke-linecap="round" />
</g>
<g transform="matrix(0.39 0 0 0.39 187.14 181.62)" id="Слой_1"  >
<path style="stroke: none; stroke-width: 1; stroke-dasharray: none; stroke-linecap: butt; stroke-dashoffset: 0; stroke-linejoin: miter; stroke-miterlimit: 4; fill: rgb(35,31,32); fill-rule: nonzero; opacity: 1;"  transform=" translate(-223.07, -208.94)" d="M 250.55 236.71 c -9.69 0 -29.71 -1.17 -47 -2.32 c -0.95 -0.1 -8.69 -1.09 -11.45 -5.58 c -1.08 -0.85 -3.75 -3.77 -4.43 -12.06 c -1.88 -23 -0.23 -28 1.41 -29.76 a 9.57 9.57 0 0 1 7.21 -3.19 l 52.39 -2.4 c 2 -0.5 5.88 -0.46 7 3.16 c 1 3.39 3.36 41.77 3.62 46.14 v 0.21 c 0 0.39 -0.4 3.83 -3 5.38 C 255.79 236.59 253.73 236.71 250.55 236.71 Z M 196 186.79 a 6.63 6.63 0 0 0 -4.72 2.24 c -0.79 0.86 -2.44 5.24 -0.62 27.48 c 0.66 8.14 3.31 10 3.34 10 l 0.39 0.21 l 0.16 0.36 c 1.56 2.88 7.22 4.11 9.27 4.34 c 18.16 1.21 47.9 2.87 51 2.24 a 4.57 4.57 0 0 0 1.44 -2.9 c -1 -17 -2.79 -43 -3.49 -45.3 c -0.59 -1.89 -3.48 -1.11 -3.5 -1.1 l -0.34 0 l -52.72 2.42 H 196 Z m 59 46.83 Z" stroke-linecap="round" />
</g>
<g transform="matrix(0.39 0 0 0.39 176.23 197.62)" id="Слой_1"  >
<path style="stroke: none; stroke-width: 1; stroke-dasharray: none; stroke-linecap: butt; stroke-dashoffset: 0; stroke-linejoin: miter; stroke-miterlimit: 4; fill: rgb(35,31,32); fill-rule: nonzero; opacity: 1;"  transform=" translate(-195.15, -249.91)" d="M 195.15 258.19 c -4 0 -7.22 -3.71 -7.22 -8.28 s 3.24 -8.27 7.22 -8.27 s 7.22 3.71 7.22 8.27 S 199.13 258.19 195.15 258.19 Z m 0 -13.55 c -2.33 0 -4.22 2.36 -4.22 5.27 s 1.89 5.28 4.22 5.28 s 4.22 -2.37 4.22 -5.28 S 197.47 244.64 195.15 244.64 Z" stroke-linecap="round" />
</g>
<g transform="matrix(0.39 0 0 0.39 210.24 197.68)" id="Слой_1"  >
<path style="stroke: none; stroke-width: 1; stroke-dasharray: none; stroke-linecap: butt; stroke-dashoffset: 0; stroke-linejoin: miter; stroke-miterlimit: 4; fill: rgb(35,31,32); fill-rule: nonzero; opacity: 1;"  transform=" translate(-282.22, -250.06)" d="M 282.21 258.19 c -3.91 0 -7.09 -3.64 -7.09 -8.13 s 3.18 -8.12 7.09 -8.12 s 7.1 3.64 7.1 8.12 S 286.13 258.19 282.21 258.19 Z m 0 -13.25 c -2.25 0 -4.09 2.3 -4.09 5.12 s 1.84 5.13 4.09 5.13 s 4.1 -2.3 4.1 -5.13 S 284.47 244.94 282.21 244.94 Z" stroke-linecap="round" />
</g>
<g transform="matrix(0.39 0 0 0.39 222.99 181.82)" id="Слой_1"  >
<path style="stroke: none; stroke-width: 1; stroke-dasharray: none; stroke-linecap: butt; stroke-dashoffset: 0; stroke-linejoin: miter; stroke-miterlimit: 4; fill: rgb(35,31,32); fill-rule: nonzero; opacity: 1;"  transform=" translate(-314.86, -209.45)" d="M 356.68 237.46 c -0.63 0 -1.11 0 -1.33 -0.05 c -4 0 -77.33 -0.31 -80.64 -0.61 a 4.73 4.73 0 0 1 -4.42 -5 l -6.09 -42.38 a 16.75 16.75 0 0 1 0.29 -5 c 0.65 -2.69 3.34 -3.11 4.68 -2.95 h 0 s 4.48 0.31 17.44 0.9 c 12.22 0.55 23.62 2.59 39.5 10.7 c 13.67 7 39.15 30.32 39.46 37.72 a 5.66 5.66 0 0 1 -1.73 4.52 C 361.8 237.16 358.56 237.46 356.68 237.46 Z M 267.18 189 l 6.12 42.6 v 0.17 a 1.75 1.75 0 0 0 1.69 2 c 2.56 0.23 53.75 0.49 80.45 0.6 h 0.15 c 1.2 0.11 4.65 0.1 6.2 -1.37 a 2.66 2.66 0 0 0 0.79 -2.2 c -0.2 -4.83 -22.66 -27.43 -37.82 -35.17 c -15.41 -7.87 -26.45 -9.85 -38.28 -10.39 c -13.09 -0.59 -17.53 -0.9 -17.58 -0.9 s -1.3 -0.1 -1.49 0.66 A 14.16 14.16 0 0 0 267.18 189 Z" stroke-linecap="round" />
</g>
<g transform="matrix(0.39 0 0 0.39 175.83 197.45)" id="Слой_1"  >
<path style="stroke: none; stroke-width: 1; stroke-dasharray: none; stroke-linecap: butt; stroke-dashoffset: 0; stroke-linejoin: miter; stroke-miterlimit: 4; fill: rgb(35,31,32); fill-rule: nonzero; opacity: 1;"  transform=" translate(-194.13, -249.46)" d="M 203.94 252.77 H 184.32 a 3 3 0 0 1 -3 -3 v -0.62 a 3 3 0 0 1 3 -3 h 19.62 a 3 3 0 0 1 3 3 v 0.62 A 3 3 0 0 1 203.94 252.77 Z m 0 -3 v 0 Z m -19.62 -0.62 v 0.62 h 19.62 v -0.62 Z" stroke-linecap="round" />
</g>
<g transform="matrix(0.39 0 0 0.39 282.45 200.29)" id="Слой_1"  >
<path style="stroke: none; stroke-width: 1; stroke-dasharray: none; stroke-linecap: butt; stroke-dashoffset: 0; stroke-linejoin: miter; stroke-miterlimit: 4; fill: rgb(250,236,33); fill-rule: nonzero; opacity: 1;"  transform=" translate(-467.08, -256.73)" d="M 450.05 252.47 S 461 263 462.25 263.62 s 0.26 2.11 6.1 3 s 19.07 1.21 19.07 1.21 s -3.31 -14.46 -6.1 -16.57 s -1.27 -6.63 -15.76 -5.42 l -14.49 1.2 s -4.33 -0.3 -4.33 1.21 S 450.05 252.47 450.05 252.47 Z" stroke-linecap="round" />
</g>
<g transform="matrix(0.39 0 0 0.39 209.69 197.5)" id="Слой_1"  >
<path style="stroke: none; stroke-width: 1; stroke-dasharray: none; stroke-linecap: butt; stroke-dashoffset: 0; stroke-linejoin: miter; stroke-miterlimit: 4; fill: rgb(35,31,32); fill-rule: nonzero; opacity: 1;"  transform=" translate(-280.81, -249.61)" d="M 290.51 253.37 H 271.12 a 3.37 3.37 0 0 1 -3.37 -3.37 v -0.77 a 3.38 3.38 0 0 1 3.37 -3.38 h 19.39 a 3.38 3.38 0 0 1 3.37 3.38 V 250 A 3.37 3.37 0 0 1 290.51 253.37 Z m -19.39 -4.52 a 0.38 0.38 0 0 0 -0.37 0.38 V 250 a 0.38 0.38 0 0 0 0.37 0.37 h 19.39 a 0.38 0.38 0 0 0 0.37 -0.37 v -0.77 a 0.38 0.38 0 0 0 -0.37 -0.38 Z" stroke-linecap="round" />
</g>
<g transform="matrix(0.39 0 0 0.39 227.9 198.01)" id="Слой_1"  >
<path style="stroke: none; stroke-width: 1; stroke-dasharray: none; stroke-linecap: butt; stroke-dashoffset: 0; stroke-linejoin: miter; stroke-miterlimit: 4; fill: rgb(35,31,32); fill-rule: nonzero; opacity: 1;"  transform=" translate(-327.43, -250.9)" d="M 477.67 323.72 l -3 -0.32 c 0 -0.29 2.93 -28.9 -13 -48 c -8.54 -10.24 -21 -16 -36.94 -17.17 c -17.1 -1.24 -39.81 1.45 -50.84 21.3 A 45 45 0 0 0 368.37 299 c 0.29 1.49 2.12 12 -1.63 17.25 a 7.12 7.12 0 0 1 -5 3.05 c -8.84 1.19 -141.11 2.07 -148.28 2.12 a 63.92 63.92 0 0 1 -11.43 0.67 c -8.41 -0.32 -13.55 -2.69 -15.26 -7 c -3.54 -9 -8.21 -35.52 -9.25 -52.57 c -1 -16.9 -0.51 -58.67 -0.26 -64.62 l 0.06 -1.49 c 0.19 -5.42 0.36 -10.09 5.25 -13 c 5.2 -3.08 35 -5.33 46 -5.33 c 12.5 0 49.72 0.62 57.25 0.9 c 10.26 0.4 33.1 3.67 46.08 13.25 c 15 11.1 25.91 19.18 28.69 22.17 c 2.59 2.8 9.15 11.31 9.77 14.27 l 0 0.2 L 373.78 274 c 7.5 -10.56 22.26 -20.93 51.16 -18.84 c 16.82 1.21 30 7.36 39 18.26 C 480.75 293.59 477.8 322.5 477.67 323.72 Z M 228.58 181.08 c -12.66 0 -40.46 2.52 -44.49 4.91 c -3.33 2 -3.58 5 -3.78 10.52 l -0.06 1.51 c -0.24 5.72 -0.76 47.86 0.25 64.3 c 1 16.83 5.6 42.89 9.05 51.66 c 2.56 6.48 17.85 5.44 23.53 4.49 l 0.23 0 c 1.4 0 139.32 -0.92 148 -2.1 a 4.14 4.14 0 0 0 3 -1.81 c 2.67 -3.75 1.7 -12.15 1.11 -15.08 l 0 -0.29 A 47.16 47.16 0 0 1 371.25 278 q 0.4 -0.72 0.84 -1.44 l -1.13 0.08 l -3.55 -47.47 c -0.52 -2 -5.9 -9.41 -9 -12.77 c -2.8 -3 -16.33 -13 -28.27 -21.8 c -5.42 -4 -21.67 -11.79 -44.41 -12.66 C 278.2 181.69 241.05 181.08 228.58 181.08 Z" stroke-linecap="round" />
</g>
<g transform="matrix(0.39 0 0 0.39 202.81 197.51)" id="Слой_1"  >
<path style="stroke: none; stroke-width: 1; stroke-dasharray: none; stroke-linecap: butt; stroke-dashoffset: 0; stroke-linejoin: miter; stroke-miterlimit: 4; fill: rgb(35,31,32); fill-rule: nonzero; opacity: 1;"  transform=" translate(-263.19, -249.62)" d="M 265.4 318.92 l -3 -0.36 c 0.05 -0.36 4.28 -36.4 2 -70.2 s -6.06 -67.37 -6.1 -67.71 l 3 -0.34 c 0 0.34 3.85 33.87 6.11 67.85 S 265.45 318.56 265.4 318.92 Z" stroke-linecap="round" />
</g>
<g transform="matrix(0.39 0 0 0.39 284.49 200.32)" id="Слой_1"  >
<path style="stroke: none; stroke-width: 1; stroke-dasharray: none; stroke-linecap: butt; stroke-dashoffset: 0; stroke-linejoin: miter; stroke-miterlimit: 4; fill: rgb(35,31,32); fill-rule: nonzero; opacity: 1;"  transform=" translate(-472.3, -256.81)" d="M 494.34 269.38 l -1.92 0 c -0.55 0 -13.39 -0.32 -19.27 -1.23 c -4.42 -0.68 -5.53 -1.77 -6.34 -2.91 a 2.07 2.07 0 0 0 -0.18 -0.23 c -1.29 -0.61 -8.39 -7.37 -12.55 -11.38 c -1.18 -1 -3.81 -3.36 -3.81 -5.33 a 2.27 2.27 0 0 1 0.74 -1.66 c 1.23 -1.14 3.87 -1.12 5.07 -1 l 14.38 -1.2 c 11.12 -0.92 13.66 1.42 15.64 4.34 a 5.43 5.43 0 0 0 1.15 1.38 c 3 2.26 5.86 13.92 6.66 17.43 Z m -40.86 -20.71 a 14.81 14.81 0 0 0 2.55 2.64 l 0.09 0.08 c 5.12 4.94 10.95 10.37 11.85 10.9 a 3.2 3.2 0 0 1 1.28 1.16 c 0.32 0.46 0.82 1.15 4.36 1.7 c 4.36 0.67 13.05 1 16.93 1.13 c -1.55 -6.22 -3.77 -12.82 -5.1 -13.81 a 8.5 8.5 0 0 1 -1.83 -2.1 c -1.23 -1.82 -2.61 -3.88 -12.9 -3 l -14.6 1.22 H 456 A 10.89 10.89 0 0 0 453.48 248.67 Z" stroke-linecap="round" />
</g>
<g transform="matrix(0.39 0 0 0.39 267.48 192.19)" id="Слой_1"  >
<path style="stroke: none; stroke-width: 1; stroke-dasharray: none; stroke-linecap: butt; stroke-dashoffset: 0; stroke-linejoin: miter; stroke-miterlimit: 4; fill: rgb(35,31,32); fill-rule: nonzero; opacity: 1;"  transform=" translate(-428.76, -236.01)" d="M 469.11 245.47 c -0.25 -0.08 -25.42 -8.11 -37.1 -9.58 s -44.19 -6.28 -44.52 -6.33 l 0.44 -3 c 0.33 0 32.66 4.84 44.46 6.32 s 36.59 9.37 37.64 9.7 Z" stroke-linecap="round" />
</g>
<g transform="matrix(0.39 0 0 0.39 248.49 188.83)" id="Слой_1"  >
<path style="stroke: none; stroke-width: 1; stroke-dasharray: none; stroke-linecap: butt; stroke-dashoffset: 0; stroke-linejoin: miter; stroke-miterlimit: 4; fill: rgb(35,31,32); fill-rule: nonzero; opacity: 1;"  transform=" translate(-380.14, -227.4)" d="M 373 230.86 a 23 23 0 0 1 -4.39 -0.41 l 0.58 -2.94 a 25.34 25.34 0 0 0 10.77 -0.58 c 2.25 -0.6 10.82 -3 10.91 -3 l 0.8 2.89 c -0.35 0.1 -8.67 2.42 -10.95 3 A 31.39 31.39 0 0 1 373 230.86 Z" stroke-linecap="round" />
</g>
<g transform="matrix(0.39 0 0 0.39 205.6 230.57)" id="Слой_1"  >
<path style="stroke: none; stroke-width: 1; stroke-dasharray: none; stroke-linecap: butt; stroke-dashoffset: 0; stroke-linejoin: miter; stroke-miterlimit: 4; fill: rgb(35,31,32); fill-rule: nonzero; opacity: 1;"  transform=" translate(-270.33, -334.25)" d="M 170.73 340.44 l -0.4 -6.61 l 8 -4.24 l 192 -1.52 l -1.48 9.63 Z m 2.71 -4.86 l 0.11 1.82 l 192.79 -2.67 l 0.56 -3.63 l -187.77 1.49 Z" stroke-linecap="round" />
</g>
<g transform="matrix(0.39 0 0 0.39 290.3 218.67)" id="Слой_1"  >
<path style="stroke: none; stroke-width: 1; stroke-dasharray: none; stroke-linecap: butt; stroke-dashoffset: 0; stroke-linejoin: miter; stroke-miterlimit: 4; fill: rgb(35,31,32); fill-rule: nonzero; opacity: 1;"  transform=" translate(-487.18, -303.79)" d="M 463.9 338.66 L 466 328.5 l 1.1 -0.11 c 7.84 -0.74 29.16 -3.15 33.55 -5.27 c 2.68 -1.3 2.12 -4.6 1.19 -8.45 a 8.83 8.83 0 0 1 -0.47 -3.81 c 0.3 -1.64 -0.55 -18.26 -1.21 -29.35 l -3.75 0.32 l 0.67 -12.67 l 1.31 -0.11 a 44.29 44.29 0 0 1 6.89 0 c 3.2 0.34 4.27 3.61 4.39 5.3 c 0 0.36 0.51 28.16 0.76 35.6 c 0.26 7.65 -1.26 14.31 -4.53 19.79 c -2.94 4.94 -6.11 5.69 -9.77 6.56 c -0.57 0.14 -1.18 0.28 -1.81 0.45 c -4.69 1.24 -27.59 1.83 -28.57 1.86 Z m 4.62 -7.39 l -0.9 4.29 c 7.55 -0.22 22.67 -0.83 26 -1.7 l 1.89 -0.47 c 3.49 -0.82 5.59 -1.32 7.88 -5.17 c 3 -5 4.35 -11.09 4.11 -18.16 c -0.25 -7.45 -0.75 -35.24 -0.76 -35.57 h 0 s -0.23 -2.29 -1.71 -2.45 a 35.67 35.67 0 0 0 -5 -0.07 l -0.35 6.58 l 3.37 -0.29 l 0.1 1.53 c 0.42 6.91 1.75 29.61 1.23 31.77 a 13.43 13.43 0 0 0 0.46 2.4 c 0.85 3.52 2.28 9.4 -2.79 11.86 S 473.91 330.74 468.52 331.27 Z" stroke-linecap="round" />
</g>
<g transform="matrix(0.39 0 0 0.39 106.7 206.48)" id="Слой_1"  >
<path style="stroke: none; stroke-width: 1; stroke-dasharray: none; stroke-linecap: butt; stroke-dashoffset: 0; stroke-linejoin: miter; stroke-miterlimit: 4; fill: rgb(35,31,32); fill-rule: nonzero; opacity: 1;"  transform=" translate(-17.16, -272.59)" d="M 13.74 298.82 l -0.45 -2.13 c -0.45 -2.1 -0.66 -3.55 -0.73 -4.07 a 57.93 57.93 0 0 1 -2 -6 c -0.82 -2.94 -0.45 -9.06 -0.2 -13.11 c 0.08 -1.28 0.15 -2.39 0.15 -3 a 13 13 0 0 1 0.3 -2.6 c 0.2 -1 0.18 -1.11 0.05 -1.26 c -1.4 -1.66 -2.42 -5.78 -1.34 -10.91 a 20.91 20.91 0 0 1 2.08 -6.28 l 0.52 -3.09 l 5.18 3.51 a 6.54 6.54 0 0 1 4.53 1.54 c 2.53 2.15 3.66 6.23 3.37 12.13 c -0.68 13.62 -4.06 29.8 -4.1 30 l -0.13 0.61 Z M 14 251.31 a 21.26 21.26 0 0 0 -1.56 5.09 c -0.95 4.51 0.08 7.63 0.69 8.36 a 4 4 0 0 1 0.6 3.78 a 9.89 9.89 0 0 0 -0.24 2 c 0 0.66 -0.07 1.76 -0.16 3.15 c -0.22 3.61 -0.59 9.66 0.1 12.1 a 56.71 56.71 0 0 0 2 5.85 l 0.08 0.19 l 0 0.21 s 0.08 0.69 0.29 1.87 l 2.47 -1.6 a 221 221 0 0 0 3.91 -28.88 c 0.3 -6.07 -1.07 -8.6 -2.27 -9.66 a 3.45 3.45 0 0 0 -2.71 -0.84 l -0.61 0.11 l -0.53 -0.34 Z" stroke-linecap="round" />
</g>
<g transform="matrix(0.39 0 0 0.39 263.52 228.12)" id="Слой_1"  >
<path style="stroke: none; stroke-width: 1; stroke-dasharray: none; stroke-linecap: butt; stroke-dashoffset: 0; stroke-linejoin: miter; stroke-miterlimit: 4; fill: rgb(35,31,32); fill-rule: nonzero; opacity: 1;"  transform=" translate(-418.6, -327.98)" d="M 418.6 367.63 A 39.65 39.65 0 1 1 458.25 328 A 39.69 39.69 0 0 1 418.6 367.63 Z m 0 -76.3 A 36.65 36.65 0 1 0 455.25 328 A 36.69 36.69 0 0 0 418.6 291.33 Z m -0.25 64.32 A 27.67 27.67 0 1 1 446 328 A 27.7 27.7 0 0 1 418.35 355.65 Z m 0 -52.34 A 24.67 24.67 0 1 0 443 328 A 24.7 24.7 0 0 0 418.35 303.31 Z" stroke-linecap="round" />
</g>
<g transform="matrix(0.39 0 0 0.39 146.7 228.12)" id="Слой_1"  >
<path style="stroke: none; stroke-width: 1; stroke-dasharray: none; stroke-linecap: butt; stroke-dashoffset: 0; stroke-linejoin: miter; stroke-miterlimit: 4; fill: rgb(35,31,32); fill-rule: nonzero; opacity: 1;"  transform=" translate(-119.55, -327.98)" d="M 119.55 341.79 A 13.81 13.81 0 1 1 133.36 328 A 13.83 13.83 0 0 1 119.55 341.79 Z m 0 -24.62 A 10.81 10.81 0 1 0 130.36 328 A 10.82 10.82 0 0 0 119.55 317.17 Z" stroke-linecap="round" />
</g>
<g transform="matrix(0.39 0 0 0.39 263.42 228.12)" id="Слой_1"  >
<path style="stroke: none; stroke-width: 1; stroke-dasharray: none; stroke-linecap: butt; stroke-dashoffset: 0; stroke-linejoin: miter; stroke-miterlimit: 4; fill: rgb(35,31,32); fill-rule: nonzero; opacity: 1;"  transform=" translate(-418.36, -327.98)" d="M 418.35 341.79 A 13.81 13.81 0 1 1 432.17 328 A 13.83 13.83 0 0 1 418.35 341.79 Z m 0 -24.62 A 10.81 10.81 0 1 0 429.17 328 A 10.82 10.82 0 0 0 418.35 317.17 Z" stroke-linecap="round" />
</g>
<g transform="matrix(0.39 0 0 0.39 207.45 205.01)" id="Слой_1"  >
<path style="stroke: none; stroke-width: 1; stroke-dasharray: none; stroke-linecap: butt; stroke-dashoffset: 0; stroke-linejoin: miter; stroke-miterlimit: 4; fill: rgb(35,31,32); fill-rule: nonzero; opacity: 1;"  transform=" translate(-275.07, -268.84)" d="M 242 272.24 a 508.8 508.8 0 0 1 -59.55 -3.81 l 0.4 -3 c 0.37 0 37.1 4.93 72.37 3.53 c 35.43 -1.4 111.7 -2.12 112.47 -2.13 l 0 3 c -0.77 0 -77 0.72 -112.38 2.13 C 250.91 272.16 246.44 272.24 242 272.24 Z" stroke-linecap="round" />
</g>
</svg>