<?xml version="1.0" encoding="UTF-8" standalone="no" ?>
<!DOCTYPE svg PUBLIC "-//W3C//DTD SVG 1.1//EN" "http://www.w3.org/Graphics/SVG/1.1/DTD/svg11.dtd">
<svg xmlns="http://www.w3.org/2000/svg" xmlns:xlink="http://www.w3.org/1999/xlink" version="1.1" width="400" height="400" viewBox="0 0 400 400" xml:space="preserve">
<desc>Created with Fabric.js 3.6.2</desc>
<defs>
</defs>
<g transform="matrix(0.39 0 0 0.39 265.37 226.45)" id="Слой_1"  >
<path style="stroke: none; stroke-width: 1; stroke-dasharray: none; stroke-linecap: butt; stroke-dashoffset: 0; stroke-linejoin: miter; stroke-miterlimit: 4; fill: rgb(145,147,150); fill-rule: nonzero; opacity: 1;"  transform=" translate(-423.34, -323.7)" d="M 423.33 312.37 a 11.33 11.33 0 1 0 11.34 11.33 A 11.33 11.33 0 0 0 423.33 312.37 Z" stroke-linecap="round" />
</g>
<g transform="matrix(0.39 0 0 0.39 149.29 229)" id="Слой_1"  >
<circle style="stroke: none; stroke-width: 1; stroke-dasharray: none; stroke-linecap: butt; stroke-dashoffset: 0; stroke-linejoin: miter; stroke-miterlimit: 4; fill: rgb(145,147,150); fill-rule: nonzero; opacity: 1;"  cx="0" cy="0" r="11.33" />
</g>
<g transform="matrix(0.39 0 0 0.39 265.75 226.65)" id="Слой_1"  >
<path style="stroke: none; stroke-width: 1; stroke-dasharray: none; stroke-linecap: butt; stroke-dashoffset: 0; stroke-linejoin: miter; stroke-miterlimit: 4; fill: rgb(65,64,66); fill-rule: nonzero; opacity: 1;"  transform=" translate(-424.33, -324.22)" d="M 424.33 288.72 a 35.5 35.5 0 1 0 35.5 35.5 A 35.5 35.5 0 0 0 424.33 288.72 Z m 0 58 a 22.5 22.5 0 1 1 22.5 -22.5 A 22.51 22.51 0 0 1 424.33 346.72 Z" stroke-linecap="round" />
</g>
<g transform="matrix(0.39 0 0 0.39 149.68 229.2)" id="Слой_1"  >
<path style="stroke: none; stroke-width: 1; stroke-dasharray: none; stroke-linecap: butt; stroke-dashoffset: 0; stroke-linejoin: miter; stroke-miterlimit: 4; fill: rgb(65,64,66); fill-rule: nonzero; opacity: 1;"  transform=" translate(-127.18, -330.74)" d="M 127.18 295.24 a 35.5 35.5 0 1 0 35.5 35.5 A 35.51 35.51 0 0 0 127.18 295.24 Z m 0 58 a 22.5 22.5 0 1 1 22.5 -22.5 A 22.49 22.49 0 0 1 127.18 353.24 Z" stroke-linecap="round" />
</g>
<g transform="matrix(0.39 0 0 0.39 196.22 200.56)" id="Слой_1"  >
<path style="stroke: none; stroke-width: 1; stroke-dasharray: none; stroke-linecap: butt; stroke-dashoffset: 0; stroke-linejoin: miter; stroke-miterlimit: 4; fill: rgb(221,209,195); fill-rule: nonzero; opacity: 1;"  transform=" translate(-246.34, -257.44)" d="M 24.83 320.37 s 4.5 3.3 23.84 3 s 24.66 0 24.66 0 s 6.17 0.65 8.34 -2.19 S 89 302.51 93.83 297.51 s 10.84 -7 17 -7.67 s 16.67 -1.83 25.84 -0.67 S 150 293 154 298.84 s 7.17 19.83 9.67 22.5 s 2 6.67 12.5 6.67 s 193.66 0.33 193.66 0.33 s 4.67 0.67 6.17 -3.17 s 7.67 -29.16 16.83 -37.33 s 15.5 -8.33 28.5 -8.33 s 19 1.83 25.17 7.66 s 12.83 26 15 28.67 s 4.33 4.5 6.5 4.33 s 4.17 -1 2.67 -2.66 s -3.34 -4.34 -2.84 -7.34 s 5 -13.66 5 -13.66 s 7.17 -0.17 8.17 -1.34 s 6.67 -19.83 6.67 -27 s 0.83 -10.33 0.83 -10.33 v -1.67 s -7.17 -4.66 -36.67 -7.83 s -76.33 -5.5 -76.33 -5.5 s -4.67 1.33 -5.83 0.67 s -3.84 -4 -3.84 -4 L 324.5 196.67 s 0.17 -2.16 -1.17 -2.83 S 320.17 188.51 303 188 s -24.33 -1.34 -64.17 -1.5 s -81.5 3 -90.16 4.83 s -14.67 3.5 -16.34 5.5 s -1.16 5.33 -1.16 5.33 L 93.5 240.67 s -2.5 0.34 -2.83 1.5 s 0.5 2 -1.17 3.17 S 67.17 248 53.83 249.49 s -43.16 6.18 -44.5 7 s -5.16 6.66 -5.16 6.66 V 280 s 3.5 15.55 4.33 16.19 a 11.05 11.05 0 0 0 3.67 2.31 a 4.14 4.14 0 0 1 3 2.33 C 15.5 301.84 24.83 320.37 24.83 320.37 Z" stroke-linecap="round" />
</g>
<g transform="matrix(0.39 0 0 0.39 149.77 192.62)" id="Слой_1"  >
<path style="stroke: none; stroke-width: 1; stroke-dasharray: none; stroke-linecap: butt; stroke-dashoffset: 0; stroke-linejoin: miter; stroke-miterlimit: 4; fill: rgb(51,51,51); fill-rule: nonzero; opacity: 1;"  transform=" translate(-127.42, -237.11)" d="M 117.5 232.94 c -0.5 0.17 -5.33 8.33 -5.33 8.33 h 25.5 l 5 -8.33 Z" stroke-linecap="round" />
</g>
<g transform="matrix(0.39 0 0 0.39 108.04 220.32)" id="Слой_1"  >
<path style="stroke: none; stroke-width: 1; stroke-dasharray: none; stroke-linecap: butt; stroke-dashoffset: 0; stroke-linejoin: miter; stroke-miterlimit: 4; fill: rgb(65,64,66); fill-rule: nonzero; opacity: 1;"  transform=" translate(-20.59, -308.01)" d="M 35.67 298.16 L 3.83 299 a 39.08 39.08 0 0 0 -2.33 4.17 v 7.67 l 4.17 5.66 l 34 1.36 s -1.67 -7.5 -2.17 -9.43 S 35.67 298.16 35.67 298.16 Z" stroke-linecap="round" />
</g>
<g transform="matrix(0.39 0 0 0.39 289.68 217.56)" id="Слой_1"  >
<path style="stroke: none; stroke-width: 1; stroke-dasharray: none; stroke-linecap: butt; stroke-dashoffset: 0; stroke-linejoin: miter; stroke-miterlimit: 4; fill: rgb(65,64,66); fill-rule: nonzero; opacity: 1;"  transform=" translate(-485.58, -300.96)" d="M 498 297 l -2.33 -2.5 l -8.27 -4 l -2.4 2.17 L 476.83 294 l -5 13.67 s 0.8 4.43 1.84 3.67 s 20.5 -2 21.16 -1.67 s 4.5 1.67 4.5 1.67 V 297 Z" stroke-linecap="round" />
</g>
<g transform="matrix(0.39 0 0 0.39 266.93 226.61)" id="Слой_1"  >
<path style="stroke: none; stroke-width: 1; stroke-dasharray: none; stroke-linecap: butt; stroke-dashoffset: 0; stroke-linejoin: miter; stroke-miterlimit: 4; fill: rgb(26,26,26); fill-rule: nonzero; opacity: 1;"  transform=" translate(-427.33, -324.11)" d="M 427.33 361.11 a 37 37 0 1 1 37 -37 A 37 37 0 0 1 427.33 361.11 Z m 0 -71 a 34 34 0 1 0 34 34 A 34 34 0 0 0 427.33 290.11 Z" stroke-linecap="round" />
</g>
<g transform="matrix(0.39 0 0 0.39 266.93 226.61)" id="Слой_1"  >
<path style="stroke: none; stroke-width: 1; stroke-dasharray: none; stroke-linecap: butt; stroke-dashoffset: 0; stroke-linejoin: miter; stroke-miterlimit: 4; fill: rgb(26,26,26); fill-rule: nonzero; opacity: 1;"  transform=" translate(-427.33, -324.11)" d="M 427.33 348.11 a 24 24 0 1 1 24 -24 A 24 24 0 0 1 427.33 348.11 Z m 0 -45 a 21 21 0 1 0 21 21 A 21 21 0 0 0 427.33 303.11 Z" stroke-linecap="round" />
</g>
<g transform="matrix(0.39 0 0 0.39 266.93 226.61)" id="Слой_1"  >
<path style="stroke: none; stroke-width: 1; stroke-dasharray: none; stroke-linecap: butt; stroke-dashoffset: 0; stroke-linejoin: miter; stroke-miterlimit: 4; fill: rgb(26,26,26); fill-rule: nonzero; opacity: 1;"  transform=" translate(-427.34, -324.11)" d="M 427.33 336.94 a 12.83 12.83 0 1 1 12.84 -12.83 A 12.85 12.85 0 0 1 427.33 336.94 Z m 0 -22.66 a 9.83 9.83 0 1 0 9.84 9.83 A 9.84 9.84 0 0 0 427.33 314.28 Z" stroke-linecap="round" />
</g>
<g transform="matrix(0.39 0 0 0.39 150.85 229.15)" id="Слой_1"  >
<path style="stroke: none; stroke-width: 1; stroke-dasharray: none; stroke-linecap: butt; stroke-dashoffset: 0; stroke-linejoin: miter; stroke-miterlimit: 4; fill: rgb(26,26,26); fill-rule: nonzero; opacity: 1;"  transform=" translate(-130.18, -330.63)" d="M 130.18 367.63 a 37 37 0 1 1 37 -37 A 37 37 0 0 1 130.18 367.63 Z m 0 -71 a 34 34 0 1 0 34 34 A 34 34 0 0 0 130.18 296.63 Z" stroke-linecap="round" />
</g>
<g transform="matrix(0.39 0 0 0.39 150.85 229.15)" id="Слой_1"  >
<path style="stroke: none; stroke-width: 1; stroke-dasharray: none; stroke-linecap: butt; stroke-dashoffset: 0; stroke-linejoin: miter; stroke-miterlimit: 4; fill: rgb(26,26,26); fill-rule: nonzero; opacity: 1;"  transform=" translate(-130.18, -330.63)" d="M 130.18 354.63 a 24 24 0 1 1 24 -24 A 24 24 0 0 1 130.18 354.63 Z m 0 -45 a 21 21 0 1 0 21 21 A 21 21 0 0 0 130.18 309.63 Z" stroke-linecap="round" />
</g>
<g transform="matrix(0.39 0 0 0.39 150.84 229.15)" id="Слой_1"  >
<path style="stroke: none; stroke-width: 1; stroke-dasharray: none; stroke-linecap: butt; stroke-dashoffset: 0; stroke-linejoin: miter; stroke-miterlimit: 4; fill: rgb(26,26,26); fill-rule: nonzero; opacity: 1;"  transform=" translate(-130.16, -330.63)" d="M 130.18 343.47 A 12.84 12.84 0 1 1 143 330.63 A 12.85 12.85 0 0 1 130.18 343.47 Z m 0 -22.67 a 9.84 9.84 0 1 0 9.84 9.83 A 9.84 9.84 0 0 0 130.18 320.8 Z" stroke-linecap="round" />
</g>
<g transform="matrix(0.39 0 0 0.39 198.59 200.15)" id="Слой_1"  >
<path style="stroke: none; stroke-width: 1; stroke-dasharray: none; stroke-linecap: butt; stroke-dashoffset: 0; stroke-linejoin: miter; stroke-miterlimit: 4; fill: rgb(26,26,26); fill-rule: nonzero; opacity: 1;"  transform=" translate(-252.38, -256.38)" d="M 376.65 328.83 a 6.56 6.56 0 0 1 -0.92 -0.06 c -5.11 0 -183.28 -0.33 -193.56 -0.33 c -8.35 0 -10.49 -2.37 -12.41 -5.47 a 10.6 10.6 0 0 0 -1.19 -1.67 c -1.33 -1.42 -2.51 -4.66 -4.32 -9.84 c -1.64 -4.65 -3.49 -9.92 -5.49 -12.84 c -3.95 -5.77 -7.91 -8 -16.28 -9 c -8.86 -1.13 -19.09 0 -25.21 0.64 l -0.28 0 c -6.84 0.74 -12.1 3.1 -16.08 7.21 c -2.84 2.94 -6 10.41 -8.36 15.86 C 91 317 89.78 319.81 88.86 321 c -2.6 3.4 -9 2.85 -9.68 2.77 h 0 s -5.54 -0.34 -24.49 0 c -19.28 0.32 -24.24 -2.89 -24.75 -3.26 l -0.28 -0.21 l -0.17 -0.32 c -2.2 -4.37 -9.41 -18.71 -9.75 -19.73 c -0.18 -0.54 -0.91 -1 -2 -1.37 a 10.37 10.37 0 0 1 -3.69 -2.18 l -0.46 -0.38 c -0.48 -0.36 -1.27 -1 -4.89 -17.05 l 0 -0.33 V 261.66 l 0.24 -0.37 c 1.21 -1.84 4.17 -6.21 5.63 -7.12 c 2 -1.24 34.86 -6.07 45.12 -7.23 c 4.42 -0.51 9.65 -1 14.7 -1.48 c 8.46 -0.81 19 -1.81 20.36 -2.46 c 0.39 -0.28 0.39 -0.28 0.37 -0.8 a 4.41 4.41 0 0 1 0.13 -1.5 c 0.47 -1.64 2.44 -2.27 3.55 -2.49 l 36.84 -37.65 a 8.47 8.47 0 0 1 1.57 -5.75 c 1.75 -2.1 6.41 -3.73 17.18 -6 c 8.34 -1.77 50.1 -5 90.48 -4.87 c 29.09 0.12 40.55 0.59 51.64 1 c 4.08 0.17 7.93 0.33 12.56 0.46 c 15 0.44 18.89 4.08 20.57 5.64 c 0.15 0.14 0.35 0.32 0.42 0.37 a 4.07 4.07 0 0 1 2 3.55 l 41 42.5 a 25.24 25.24 0 0 0 3.36 3.61 a 15.82 15.82 0 0 0 4.73 -0.78 l 0.24 -0.07 l 0.24 0 c 0.47 0 47.22 2.37 76.42 5.5 c 29.52 3.17 37 7.87 37.33 8.07 l 0.68 0.44 l -0.05 2.87 a 45.59 45.59 0 0 0 -0.78 9.95 c 0 7.15 -5.57 26.27 -7 28 c -0.89 1 -3.68 1.66 -8.3 1.83 c -1.41 3.42 -4.17 10.33 -4.53 12.45 c -0.31 1.86 0.52 3.91 2.47 6.08 a 2.73 2.73 0 0 1 0.74 2.95 c -0.64 1.6 -2.75 2.09 -4.4 2.21 c -3.21 0.27 -6 -2.67 -7.78 -4.88 c -0.85 -1 -1.91 -3.49 -3.88 -8.09 c -2.86 -6.7 -7.18 -16.83 -11 -20.43 c -5.88 -5.56 -11.52 -7.26 -24.14 -7.26 c -13.21 0 -18.91 0.31 -27.5 7.95 c -7.17 6.39 -12.53 24.1 -15.11 32.6 c -0.59 2 -1 3.41 -1.32 4.17 C 382.09 328 378.84 328.83 376.65 328.83 Z M 134 286.11 a 70.38 70.38 0 0 1 8.86 0.51 c 9.15 1.16 14 3.86 18.38 10.31 c 2.22 3.24 4.14 8.71 5.84 13.54 c 1.33 3.81 2.72 7.75 3.68 8.78 a 12.67 12.67 0 0 1 1.55 2.14 c 1.35 2.17 2.51 4.05 9.86 4.05 c 10.38 0 191.83 0.33 193.67 0.33 l 0.2 0 c 0.14 0 3.52 0.43 4.56 -2.23 c 0.26 -0.65 0.7 -2.1 1.25 -3.94 c 2.66 -8.77 8.19 -27 16 -34 c 9.79 -8.71 16.79 -8.71 29.5 -8.71 c 13.37 0 19.74 2 26.2 8.08 c 4.26 4 8.56 14.09 11.69 21.43 a 59.74 59.74 0 0 0 3.44 7.38 c 2.13 2.61 3.86 3.88 5.23 3.78 a 6.27 6.27 0 0 0 1.55 -0.29 c -2.48 -2.8 -3.54 -5.72 -3.09 -8.46 c 0.52 -3.08 4.63 -12.89 5.1 -14 l 0.38 -0.9 l 1 0 c 3.05 -0.07 6.25 -0.46 7.07 -0.86 c 1.23 -2.33 6.3 -19.4 6.3 -26 A 50.39 50.39 0 0 1 493 256.6 V 256 c -2.38 -1.12 -11.49 -4.68 -35.33 -7.24 c -28 -3 -72.3 -5.3 -76 -5.48 c -2.37 0.66 -5.38 1.24 -6.75 0.45 s -3.5 -3.41 -4.21 -4.31 L 329 196.16 l 0.05 -0.67 c 0 -0.56 -0.13 -1.27 -0.34 -1.37 a 4.74 4.74 0 0 1 -1.09 -0.85 c -1.43 -1.32 -4.78 -4.43 -18.61 -4.83 c -4.66 -0.13 -8.51 -0.29 -12.6 -0.46 c -11.06 -0.45 -22.5 -0.92 -51.53 -1 c -40.21 -0.17 -81.61 3.06 -89.85 4.8 c -3.77 0.8 -13.76 2.91 -15.49 5 c -1 1.21 -0.94 3.45 -0.84 4.15 l 0.11 0.73 L 100.21 241 l -0.51 0.06 a 4.57 4.57 0 0 0 -1.61 0.53 a 3.3 3.3 0 0 0 0 0.47 a 3.5 3.5 0 0 1 -1.72 3.41 c -1.25 0.88 -6 1.45 -21.72 2.94 c -5 0.48 -10.25 1 -14.64 1.48 c -13.84 1.57 -41.4 6 -43.93 6.83 a 41 41 0 0 0 -4.4 5.81 v 16.21 c 1.49 6.62 3.33 14 3.95 15.34 l 0.34 0.28 A 7.61 7.61 0 0 0 18.6 296 c 2.65 0.8 3.63 2.24 4 3.3 c 0.34 0.89 5.85 11.91 9.38 18.92 c 1.23 0.61 6.84 2.82 22.67 2.55 c 19.18 -0.33 24.57 0 24.79 0 c 1.44 0.15 5.7 0.15 7 -1.6 a 54 54 0 0 0 3.31 -7 c 2.56 -6 5.74 -13.43 9 -16.76 c 4.49 -4.64 10.35 -7.3 17.92 -8.12 l 0.28 0 A 159.35 159.35 0 0 1 134 286.11 Z M 15.69 294.23 h 0 Z" stroke-linecap="round" />
</g>
<g transform="matrix(0.39 0 0 0.39 108.9 220.9)" id="Слой_1"  >
<path style="stroke: none; stroke-width: 1; stroke-dasharray: none; stroke-linecap: butt; stroke-dashoffset: 0; stroke-linejoin: miter; stroke-miterlimit: 4; fill: rgb(26,26,26); fill-rule: nonzero; opacity: 1;"  transform=" translate(-22.77, -309.5)" d="M 43.55 320.88 L 6.89 319.41 L 2 312.77 v -8.52 l 0.16 -0.31 a 25.78 25.78 0 0 1 2.61 -4.56 L 5.2 299 l 33.74 -0.89 l 0.21 1.3 c 0.46 2.86 1.42 8.65 1.8 10.13 c 0.5 1.93 2.11 9.17 2.18 9.48 Z m -35.1 -4.41 l 31.33 1.25 c -0.53 -2.35 -1.4 -6.19 -1.73 -7.47 c -0.4 -1.52 -1.26 -6.67 -1.65 -9.11 l -29.77 0.78 c -0.4 0.68 -1.06 1.91 -1.63 3 v 6.82 Z" stroke-linecap="round" />
</g>
<g transform="matrix(0.39 0 0 0.39 196.05 204.15)" id="Слой_1"  >
<rect style="stroke: none; stroke-width: 1; stroke-dasharray: none; stroke-linecap: butt; stroke-dashoffset: 0; stroke-linejoin: miter; stroke-miterlimit: 4; fill: rgb(26,26,26); fill-rule: nonzero; opacity: 1;"  x="-233.585" y="-1.5" rx="0" ry="0" width="467.17" height="3" />
</g>
<g transform="matrix(0.39 0 0 0.39 201.23 200.15)" id="Слой_1"  >
<path style="stroke: none; stroke-width: 1; stroke-dasharray: none; stroke-linecap: butt; stroke-dashoffset: 0; stroke-linejoin: miter; stroke-miterlimit: 4; fill: rgb(102,102,102); fill-rule: nonzero; opacity: 1;"  transform=" translate(-259.15, -256.38)" d="M 250.54 253.13 c -0.54 0.5 0 6.5 0 6.5 H 268 v -6.5 Z" stroke-linecap="round" />
</g>
<g transform="matrix(0.39 0 0 0.39 160.09 200.15)" id="Слой_1"  >
<path style="stroke: none; stroke-width: 1; stroke-dasharray: none; stroke-linecap: butt; stroke-dashoffset: 0; stroke-linejoin: miter; stroke-miterlimit: 4; fill: rgb(102,102,102); fill-rule: nonzero; opacity: 1;"  transform=" translate(-153.83, -256.38)" d="M 145.22 259.63 h 17.46 v -6.5 H 145.22 C 144.68 253.63 145.22 259.63 145.22 259.63 Z" stroke-linecap="round" />
</g>
<g transform="matrix(0.39 0 0 0.39 215.63 185.94)" id="Слой_1"  >
<path style="stroke: none; stroke-width: 1; stroke-dasharray: none; stroke-linecap: butt; stroke-dashoffset: 0; stroke-linejoin: miter; stroke-miterlimit: 4; fill: rgb(63,167,243); fill-rule: nonzero; opacity: 1;"  transform=" translate(-296, -220)" d="M 311.67 198.67 c -3 -0.84 -64.67 -1.67 -64.67 -1.67 l 2.54 46 H 345 l -26.5 -37 S 314.67 199.5 311.67 198.67 Z" stroke-linecap="round" />
</g>
<g transform="matrix(0.39 0 0 0.39 173.96 186.26)" id="Слой_1"  >
<path style="stroke: none; stroke-width: 1; stroke-dasharray: none; stroke-linecap: butt; stroke-dashoffset: 0; stroke-linejoin: miter; stroke-miterlimit: 4; fill: rgb(63,167,243); fill-rule: nonzero; opacity: 1;"  transform=" translate(-189.34, -220.83)" d="M 168.33 201.33 c -5 1.84 -8.16 8.34 -8.16 8.34 l -20 34.33 l 98.33 -1 V 197.67 l -48.75 1 S 173.33 199.5 168.33 201.33 Z" stroke-linecap="round" />
</g>
<g transform="matrix(0.39 0 0 0.39 144.42 186.31)" id="Слой_1"  >
<path style="stroke: none; stroke-width: 1; stroke-dasharray: none; stroke-linecap: butt; stroke-dashoffset: 0; stroke-linejoin: miter; stroke-miterlimit: 4; fill: rgb(63,167,243); fill-rule: nonzero; opacity: 1;"  transform=" translate(-113.73, -220.95)" d="M 133.1 197.67 L 92.67 238.5 l -0.09 0.85 s 5.59 4.15 7.59 4.65 s 2.5 0 2.5 0 l 30.83 -41 s 2 -4.17 1.17 -4.67 A 5.88 5.88 0 0 0 133.1 197.67 Z" stroke-linecap="round" />
</g>
<g transform="matrix(0.39 0 0 0.39 234.9 184.33)" id="Слой_1"  >
<path style="stroke: none; stroke-width: 1; stroke-dasharray: none; stroke-linecap: butt; stroke-dashoffset: 0; stroke-linejoin: miter; stroke-miterlimit: 4; fill: rgb(63,167,243); fill-rule: nonzero; opacity: 1;"  transform=" translate(-345.34, -215.88)" d="M 326.5 193 l -0.5 -2.24 s -4.33 2.24 -4.33 4.07 s 15.33 21.84 16 23.34 s 13.5 19 13.5 19 s 1.87 3.66 5.35 3.83 S 369 237.23 369 237.23 Z" stroke-linecap="round" />
</g>
<g transform="matrix(0.39 0 0 0.39 175.68 199.73)" id="Слой_1"  >
<path style="stroke: none; stroke-width: 1; stroke-dasharray: none; stroke-linecap: butt; stroke-dashoffset: 0; stroke-linejoin: miter; stroke-miterlimit: 4; fill: rgb(26,26,26); fill-rule: nonzero; opacity: 1;"  transform=" translate(-193.73, -255.31)" d="M 247.39 316.62 h -1.48 c -15.56 -0.08 -66.48 -0.39 -68.68 -1.07 c -2.82 -0.86 -3.41 -4.4 -3.76 -6.51 c 0 -0.22 -0.08 -0.43 -0.11 -0.62 c -0.28 -1.52 -4.3 -11.5 -10.39 -19.56 c -4.15 -5.5 -11.24 -7.26 -15.93 -8.43 a 14.51 14.51 0 0 1 -4.23 -1.41 c -2.6 -1.8 -2.78 -5.11 -2.79 -5.67 l -1.88 -25.23 l 0.2 -0.38 c 0.76 -1.45 18.63 -35.53 23.52 -41.26 c 4.13 -4.84 4.29 -5 8.92 -7.31 c 0.91 -0.46 2 -1 3.36 -1.72 c 8.1 -4.22 66.28 -3.44 72.88 -3.33 l 1.46 0 l 0.85 51.84 V 246 c 0 0.19 -1.16 19.17 -1.16 23.41 s -0.72 44 -0.75 45.7 Z m -106.2 -67.88 L 143 273.28 a 4.41 4.41 0 0 0 1.5 3.26 a 17.22 17.22 0 0 0 3.25 1 c 4.79 1.19 12.81 3.19 17.59 9.53 c 6.17 8.17 10.55 18.67 10.95 20.82 c 0 0.21 0.07 0.43 0.11 0.68 c 0.23 1.33 0.64 3.81 1.69 4.13 c 2.27 0.44 40.36 0.79 66.33 0.93 c 0.14 -7.43 0.73 -40.35 0.73 -44.16 c 0 -4.25 1.08 -22.16 1.16 -23.53 l -0.81 -48.82 c -18.74 -0.25 -63.87 -0.17 -70 3 c -1.37 0.71 -2.48 1.27 -3.4 1.73 c -4.17 2.1 -4.17 2.1 -8 6.56 C 159.74 213.58 143.2 244.92 141.19 248.74 Z" stroke-linecap="round" />
</g>
<g transform="matrix(0.39 0 0 0.39 218.82 199.86)" id="Слой_1"  >
<path style="stroke: none; stroke-width: 1; stroke-dasharray: none; stroke-linecap: butt; stroke-dashoffset: 0; stroke-linejoin: miter; stroke-miterlimit: 4; fill: rgb(26,26,26); fill-rule: nonzero; opacity: 1;"  transform=" translate(-304.19, -255.63)" d="M 351.17 317.27 l -104.86 -0.67 l 1.19 -70.52 L 247 194 h 1.51 c 2.38 0 58.57 0 65.65 1.47 s 11.25 8.8 11.8 9.85 l 29.86 41.31 l 4 4 l 1.56 15.66 c 0 0.26 0.5 26.9 0.67 33.65 c 0.1 4.16 -0.08 11.6 -2.47 14.77 C 357.68 317.15 352.24 317.27 351.17 317.27 Z m -101.81 -3.65 l 101.82 0.65 c 2.36 0 5.33 -0.56 5.95 -1.4 c 1 -1.36 2.05 -5.46 1.87 -12.89 c -0.16 -6.6 -0.64 -32.18 -0.67 -33.62 L 356.89 252 l -3.44 -3.47 l -30.12 -41.71 c 0 -0.07 -3.62 -7.05 -9.81 -8.37 c -5.22 -1.12 -42.13 -1.41 -62.8 -1.41 H 250 l 0.49 49.09 Z" stroke-linecap="round" />
</g>
<g transform="matrix(0.39 0 0 0.39 217.45 186.96)" id="Слой_1"  >
<path style="stroke: none; stroke-width: 1; stroke-dasharray: none; stroke-linecap: butt; stroke-dashoffset: 0; stroke-linejoin: miter; stroke-miterlimit: 4; fill: rgb(26,26,26); fill-rule: nonzero; opacity: 1;"  transform=" translate(-300.67, -222.61)" d="M 351.92 247.11 h -99.8 l -2.71 -49 l 1.61 0 c 10.33 0.14 62 0.88 65 1.72 c 3.36 0.93 6.92 6.66 7.69 8 Z m -97 -3 h 91.12 l -24.87 -34.74 c -1.47 -2.48 -4.28 -6.19 -5.94 -6.65 c -2.41 -0.57 -38.2 -1.25 -62.68 -1.59 Z" stroke-linecap="round" />
</g>
<g transform="matrix(0.39 0 0 0.39 202.4 200.14)" id="Слой_1"  >
<path style="stroke: none; stroke-width: 1; stroke-dasharray: none; stroke-linecap: butt; stroke-dashoffset: 0; stroke-linejoin: miter; stroke-miterlimit: 4; fill: rgb(26,26,26); fill-rule: nonzero; opacity: 1;"  transform=" translate(-262.14, -256.36)" d="M 272.5 261.11 H 252.16 l -0.12 -1.37 c -0.6 -6.73 0 -7.28 0.47 -7.73 l 0.44 -0.4 H 272.5 Z m -17.58 -3 H 269.5 v -3.5 H 254.8 C 254.78 255.47 254.83 256.79 254.92 258.11 Z m 0 -4.37 Z" stroke-linecap="round" />
</g>
<g transform="matrix(0.39 0 0 0.39 161.26 200.14)" id="Слой_1"  >
<path style="stroke: none; stroke-width: 1; stroke-dasharray: none; stroke-linecap: butt; stroke-dashoffset: 0; stroke-linejoin: miter; stroke-miterlimit: 4; fill: rgb(26,26,26); fill-rule: nonzero; opacity: 1;"  transform=" translate(-156.83, -256.36)" d="M 167.18 261.11 H 146.85 l -0.12 -1.37 c -0.61 -6.73 0 -7.28 0.47 -7.73 l 0.43 -0.4 h 19.55 Z m -17.57 -3 h 14.57 v -3.5 h -14.7 C 149.47 255.47 149.52 256.79 149.61 258.11 Z m -0.06 -4.37 Z" stroke-linecap="round" />
</g>
<g transform="matrix(0.39 0 0 0.39 175.3 187.29)" id="Слой_1"  >
<path style="stroke: none; stroke-width: 1; stroke-dasharray: none; stroke-linecap: butt; stroke-dashoffset: 0; stroke-linejoin: miter; stroke-miterlimit: 4; fill: rgb(26,26,26); fill-rule: nonzero; opacity: 1;"  transform=" translate(-192.78, -223.47)" d="M 141.54 248.13 l 21.3 -36.57 c 0.36 -0.7 3.67 -7.08 9 -9 c 5.15 -1.89 21.17 -2.72 21.85 -2.75 l 50.33 -1 v 48.35 Z M 241 201.81 l -47.22 1 c -0.12 0 -16.2 0.85 -20.93 2.58 c -4.36 1.6 -7.31 7.52 -7.34 7.58 l 0 0.1 l -18.67 32.05 l 94.21 -1 Z" stroke-linecap="round" />
</g>
<g transform="matrix(0.39 0 0 0.39 146.08 187.3)" id="Слой_1"  >
<path style="stroke: none; stroke-width: 1; stroke-dasharray: none; stroke-linecap: butt; stroke-dashoffset: 0; stroke-linejoin: miter; stroke-miterlimit: 4; fill: rgb(26,26,26); fill-rule: nonzero; opacity: 1;"  transform=" translate(-117.97, -223.48)" d="M 105.72 248.33 a 8.11 8.11 0 0 1 -1.92 -0.27 c -2.18 -0.54 -7.14 -4.18 -8.12 -4.9 l 1.3 -1.74 l -1.38 -1.37 l 41 -41.42 l 0.81 0.18 a 7.48 7.48 0 0 1 2 0.84 c 1 0.6 1.7 1.85 -0.59 6.61 l -0.15 0.25 l -31 41.16 A 2.7 2.7 0 0 1 105.72 248.33 Z m -7.28 -6.88 c 2.19 1.57 5.07 3.45 6.09 3.7 a 4.38 4.38 0 0 0 1.22 0.18 l 30.46 -40.5 a 19.89 19.89 0 0 0 1 -2.52 Z" stroke-linecap="round" />
</g>
<g transform="matrix(0.39 0 0 0.39 150.94 192.62)" id="Слой_1"  >
<path style="stroke: none; stroke-width: 1; stroke-dasharray: none; stroke-linecap: butt; stroke-dashoffset: 0; stroke-linejoin: miter; stroke-miterlimit: 4; fill: rgb(26,26,26); fill-rule: nonzero; opacity: 1;"  transform=" translate(-130.41, -237.1)" d="M 141.52 242.77 h -29 l 1.34 -2.26 c 5.11 -8.65 5.55 -8.79 6.15 -9 l 0.23 -0.08 h 28.06 Z m -23.71 -3 h 22 l 3.2 -5.33 H 121.18 C 120.55 235.33 119.21 237.47 117.81 239.77 Z m 3.66 -5.7 Z" stroke-linecap="round" />
</g>
<g transform="matrix(0.39 0 0 0.39 236.67 185.21)" id="Слой_1"  >
<path style="stroke: none; stroke-width: 1; stroke-dasharray: none; stroke-linecap: butt; stroke-dashoffset: 0; stroke-linejoin: miter; stroke-miterlimit: 4; fill: rgb(26,26,26); fill-rule: nonzero; opacity: 1;"  transform=" translate(-349.88, -218.13)" d="M 360.72 245.11 h -0.27 c -3.95 -0.19 -6.15 -3.8 -6.55 -4.53 c -3.11 -4.23 -12.93 -17.68 -13.6 -19.2 c -0.28 -0.53 -2.62 -3.74 -4.89 -6.85 c -9.69 -13.3 -11.24 -15.82 -11.24 -17.09 c 0 -2.48 3.6 -4.6 5.14 -5.4 l 1.73 -0.89 l 0.83 3.72 l 43.71 45.48 l -2 0.86 C 372.67 241.62 364.57 245.11 360.72 245.11 Z M 327.2 197.38 c 0.82 1.91 7.17 10.63 10.63 15.38 c 3.63 5 4.93 6.77 5.21 7.41 c 0.57 1.17 8.48 12.1 13.34 18.72 l 0.12 0.2 s 1.54 2.9 4.09 3 c 1.89 0.07 6.4 -1.45 9.81 -2.81 l -41.27 -43 l -0.14 -0.61 A 6.4 6.4 0 0 0 327.2 197.38 Z" stroke-linecap="round" />
</g>
<g transform="matrix(0.39 0 0 0.39 292.73 207.37)" id="Слой_1"  >
<path style="stroke: none; stroke-width: 1; stroke-dasharray: none; stroke-linecap: butt; stroke-dashoffset: 0; stroke-linejoin: miter; stroke-miterlimit: 4; fill: rgb(26,26,26); fill-rule: nonzero; opacity: 1;"  transform=" translate(-493.4, -274.86)" d="M 494.12 288.94 h -6.66 l 3.69 -14.34 l 1.29 -13.83 h 6.9 l -0.18 1.67 c -0.47 4.19 -1.16 10.8 -1.16 11.83 c 0 1.56 -2.49 10 -3.56 13.6 Z m -2.79 -3 h 0.55 c 1.56 -5.23 3.08 -10.79 3.12 -11.68 c 0 -1.2 0.66 -7.39 1 -10.49 h -0.81 l -1.1 11.46 Z" stroke-linecap="round" />
</g>
<g transform="matrix(0.39 0 0 0.39 290.45 218.17)" id="Слой_1"  >
<path style="stroke: none; stroke-width: 1; stroke-dasharray: none; stroke-linecap: butt; stroke-dashoffset: 0; stroke-linejoin: miter; stroke-miterlimit: 4; fill: rgb(26,26,26); fill-rule: nonzero; opacity: 1;"  transform=" translate(-487.55, -302.52)" d="M 502.83 314.89 l -2 -0.7 c -0.84 -0.29 -3.46 -1.21 -4.44 -1.63 c -2.25 -0.14 -18 0.92 -20 1.53 a 1.84 1.84 0 0 1 -1.66 0.14 c -0.45 -0.17 -1.62 -0.64 -2.38 -4.85 l -0.08 -0.41 l 5.45 -14.87 l 8.59 -1.4 l 2.82 -2.55 l 9.43 4.56 l 2.08 2.23 h 2.18 Z M 476.56 314 Z m 0 0 Z m 19.6 -1.53 h 0 Z m -20.89 -1.08 a 1 1 0 0 0 -0.49 0.2 A 1.75 1.75 0 0 1 475.27 311.37 Z m 0.12 -2.14 a 12.84 12.84 0 0 0 0.56 2 c 4.56 -0.94 20.25 -2.09 21.56 -1.44 c 0.23 0.11 1.18 0.47 2.32 0.88 V 299.94 h -0.48 l -2.59 -2.77 l -7.11 -3.44 l -2 1.79 l -7.74 1.26 Z" stroke-linecap="round" />
</g>
<g transform="matrix(0.39 0 0 0.39 103.56 208.55)" id="Слой_1"  >
<path style="stroke: none; stroke-width: 1; stroke-dasharray: none; stroke-linecap: butt; stroke-dashoffset: 0; stroke-linejoin: miter; stroke-miterlimit: 4; fill: rgb(26,26,26); fill-rule: nonzero; opacity: 1;"  transform=" translate(-9.12, -277.88)" d="M 8.13 288.7 L 5 278.67 v -9.86 l 0.76 -0.43 c 2.35 -1.31 3 -1.31 3.24 -1.31 h 1.32 l 1.33 10.24 l 1.58 8.37 Z M 8 278.21 l 1.87 6 l 0 0 l -1.21 -6.39 L 8 272.49 Z" stroke-linecap="round" />
</g>
<g transform="matrix(0.39 0 0 0.39 122.04 197.78)" id="Слой_1"  >
<path style="stroke: none; stroke-width: 1; stroke-dasharray: none; stroke-linecap: butt; stroke-dashoffset: 0; stroke-linejoin: miter; stroke-miterlimit: 4; fill: rgb(26,26,26); fill-rule: nonzero; opacity: 1;"  transform=" translate(-56.42, -250.32)" d="M 15.42 256.94 l -0.29 -3 L 91 243.71 l 6.71 8.37 Z m 74.26 -10 L 55 251.6 l 36.72 -2.17 Z" stroke-linecap="round" />
</g>
<g transform="matrix(0.39 0 0 0.39 269.65 198.05)" id="Слой_1"  >
<path style="stroke: none; stroke-width: 1; stroke-dasharray: none; stroke-linecap: butt; stroke-dashoffset: 0; stroke-linejoin: miter; stroke-miterlimit: 4; fill: rgb(26,26,26); fill-rule: nonzero; opacity: 1;"  transform=" translate(-434.31, -251.02)" d="M 493.14 261.06 c -9.65 -2.6 -24.84 -6.45 -27.14 -6.45 c -3.34 0 -85.26 -4.49 -88.75 -4.69 l -2.54 -0.14 l 5.52 -8.8 l 2.54 1.59 l -2.82 4.5 c 14.2 0.77 83.12 4.54 86.05 4.54 c 3.43 0 25.42 5.88 27.92 6.55 Z" stroke-linecap="round" />
</g>
</svg>