<?xml version="1.0" encoding="UTF-8" standalone="no" ?>
<!DOCTYPE svg PUBLIC "-//W3C//DTD SVG 1.1//EN" "http://www.w3.org/Graphics/SVG/1.1/DTD/svg11.dtd">
<svg xmlns="http://www.w3.org/2000/svg" xmlns:xlink="http://www.w3.org/1999/xlink" version="1.1" width="400" height="400" viewBox="0 0 400 400" xml:space="preserve">
<desc>Created with Fabric.js 3.6.2</desc>
<defs>
</defs>
<g transform="matrix(4.17 0 0 4.17 197.92 189.58)" id="surface1"  >
<path style="stroke: none; stroke-width: 1; stroke-dasharray: none; stroke-linecap: butt; stroke-dashoffset: 0; stroke-linejoin: miter; stroke-miterlimit: 4; fill: rgb(255,87,34); fill-rule: nonzero; opacity: 1;"  transform=" translate(-23.5, -21.5)" d="M 39 9.898438 C 38.300781 8.5 37 7 35.601563 7 L 6 7 C 4.300781 7 3 8.300781 3 10 L 3 34 C 3 34 3 36 5 36 C 7 36 40 36 42 36 C 44 36 44 34 44 34 C 44 34 44 37.898438 44 28.398438 C 44 19 39 9.898438 39 9.898438 Z" stroke-linecap="round" />
</g>
<g transform="matrix(4.17 0 0 4.17 197.96 178.96)" id="surface1"  >
<path style="stroke: none; stroke-width: 1; stroke-dasharray: none; stroke-linecap: butt; stroke-dashoffset: 0; stroke-linejoin: miter; stroke-miterlimit: 4; fill: rgb(69,90,100); fill-rule: nonzero; opacity: 1;"  transform=" translate(-23.51, -18.95)" d="M 15 10 L 22 10 L 22 17 L 15 17 Z M 31 10 L 24 10 L 24 17 L 31 17 Z M 13 10 L 6 10 C 5.5 10 5 10.5 5 11 L 5 16 C 5 16.5 5.5 17 6 17 L 13 17 Z M 31 21 L 24 21 L 24 28 L 31 28 Z M 15 28 L 22 28 L 22 21 L 15 21 Z M 42 26.699219 C 41.800781 24.800781 41.5 22.800781 41.398438 22 C 41.300781 21.300781 40.601563 21 39.898438 21 L 33 21 L 33 28 L 41.101563 28 C 41.800781 28 42.101563 27.398438 42 26.699219 Z M 13 21 L 6 21 C 5.5 21 5 21.5 5 22 L 5 27 C 5 27.5 5.5 28 6 28 L 13 28 Z M 33 10 L 33 17 L 38.800781 17 C 39.398438 17 39.898438 16.300781 39.699219 15.699219 C 38.699219 13.101563 37.601563 11.398438 37.300781 10.898438 C 36.699219 10 35.699219 9.898438 35.199219 9.898438 L 33 9.898438 Z" stroke-linecap="round" />
</g>
<g transform="matrix(4.17 0 0 4.17 116.67 233.33)" id="surface1"  >
<path style="stroke: none; stroke-width: 1; stroke-dasharray: none; stroke-linecap: butt; stroke-dashoffset: 0; stroke-linejoin: miter; stroke-miterlimit: 4; fill: rgb(255,193,7); fill-rule: nonzero; opacity: 1;"  transform=" translate(-4, -32)" d="M 3.5 30 L 3 30 L 3 34 L 3.5 34 C 4.300781 34 5 33.300781 5 32.5 L 5 31.5 C 5 30.699219 4.300781 30 3.5 30 Z" stroke-linecap="round" />
</g>
<g transform="matrix(4.17 0 0 4.17 197.92 250)" id="surface1"  >
<path style="stroke: none; stroke-width: 1; stroke-dasharray: none; stroke-linecap: butt; stroke-dashoffset: 0; stroke-linejoin: miter; stroke-miterlimit: 4; fill: rgb(69,90,100); fill-rule: nonzero; opacity: 1;"  transform=" translate(-23.5, -36)" d="M 39 36 C 39 38.800781 36.800781 41 34 41 C 31.199219 41 29 38.800781 29 36 C 29 33.199219 31.199219 31 34 31 C 36.800781 31 39 33.199219 39 36 M 18 36 C 18 33.199219 15.800781 31 13 31 C 10.199219 31 8 33.199219 8 36 C 8 38.800781 10.199219 41 13 41 C 15.800781 41 18 38.800781 18 36" stroke-linecap="round" />
</g>
<g transform="matrix(4.17 0 0 4.17 197.92 250)" id="surface1"  >
<path style="stroke: none; stroke-width: 1; stroke-dasharray: none; stroke-linecap: butt; stroke-dashoffset: 0; stroke-linejoin: miter; stroke-miterlimit: 4; fill: rgb(176,190,197); fill-rule: nonzero; opacity: 1;"  transform=" translate(-23.5, -36)" d="M 36 36 C 36 37.101563 35.101563 38 34 38 C 32.898438 38 32 37.101563 32 36 C 32 34.898438 32.898438 34 34 34 C 35.101563 34 36 34.898438 36 36 M 15 36 C 15 34.898438 14.101563 34 13 34 C 11.898438 34 11 34.898438 11 36 C 11 37.101563 11.898438 38 13 38 C 14.101563 38 15 37.101563 15 36" stroke-linecap="round" />
</g>
<g transform="matrix(4.17 0 0 4.17 281.25 233.33)" id="surface1"  >
<path style="stroke: none; stroke-width: 1; stroke-dasharray: none; stroke-linecap: butt; stroke-dashoffset: 0; stroke-linejoin: miter; stroke-miterlimit: 4; fill: rgb(255,193,7); fill-rule: nonzero; opacity: 1;"  transform=" translate(-43.5, -32)" d="M 45 31.5 C 45 30.699219 44.398438 30 43.699219 30 L 42.5 30 C 42.199219 30 42 30.300781 42 30.601563 L 42 33.398438 C 42 33.699219 42.199219 34 42.5 34 L 43.699219 34 C 44.398438 34 45 33.300781 45 32.5 Z" stroke-linecap="round" />
</g>
</svg>