<?xml version="1.0" encoding="UTF-8" standalone="no" ?>
<!DOCTYPE svg PUBLIC "-//W3C//DTD SVG 1.1//EN" "http://www.w3.org/Graphics/SVG/1.1/DTD/svg11.dtd">
<svg xmlns="http://www.w3.org/2000/svg" xmlns:xlink="http://www.w3.org/1999/xlink" version="1.1" width="400" height="400" viewBox="0 0 400 400" xml:space="preserve">
<desc>Created with Fabric.js 3.6.2</desc>
<defs>
</defs>
<g transform="matrix(4.17 0 0 4.17 195.83 233.33)" id="surface1"  >
<path style="stroke: none; stroke-width: 1; stroke-dasharray: none; stroke-linecap: butt; stroke-dashoffset: 0; stroke-linejoin: miter; stroke-miterlimit: 4; fill: rgb(255,61,0); fill-rule: nonzero; opacity: 1;"  transform=" translate(-23, -32)" d="M 3 27 h 40 v 10 H 3 V 27 z" stroke-linecap="round" />
</g>
<g transform="matrix(4.17 0 0 4.17 235.42 212.5)" id="surface1"  >
<path style="stroke: none; stroke-width: 1; stroke-dasharray: none; stroke-linecap: butt; stroke-dashoffset: 0; stroke-linejoin: miter; stroke-miterlimit: 4; fill: rgb(255,61,0); fill-rule: nonzero; opacity: 1;"  transform=" translate(-32.5, -27)" d="M 43 37 H 20 c 0 0 0 -16 0 -18 s 2 -2 2 -2 h 17.6 c 0.9 0 1.6 0.6 1.9 1.4 L 45 27 v 8 C 45 36.1 44.1 37 43 37" stroke-linecap="round" />
</g>
<g transform="matrix(4.17 0 0 4.17 256.25 195.83)" id="surface1"  >
<path style="stroke: none; stroke-width: 1; stroke-dasharray: none; stroke-linecap: butt; stroke-dashoffset: 0; stroke-linejoin: miter; stroke-miterlimit: 4; fill: rgb(122,26,4); fill-rule: nonzero; opacity: 1;"  transform=" translate(-37.5, -23)" d="M 41 27 h -7 c -0.6 0 -1 -0.4 -1 -1 v -6 c 0 -0.6 0.4 -1 1 -1 h 5 c 0.4 0 0.8 0.3 0.9 0.7 l 2 5 c 0 0.1 0.1 0.2 0.1 0.3 v 1 C 42 26.6 41.6 27 41 27" stroke-linecap="round" />
</g>
<g transform="matrix(4.17 0 0 4.17 212.5 195.83)" id="surface1"  >
<path style="stroke: none; stroke-width: 1; stroke-dasharray: none; stroke-linecap: butt; stroke-dashoffset: 0; stroke-linejoin: miter; stroke-miterlimit: 4; fill: rgb(122,26,4); fill-rule: nonzero; opacity: 1;"  transform=" translate(-27, -23)" d="M 23 26 c 0 0.6 0.4 1 1 1 h 6 c 0.6 0 1 -0.4 1 -1 v -6 c 0 -0.6 -0.4 -1 -1 -1 h -6 c -0.6 0 -1 0.4 -1 1 V 26 z" stroke-linecap="round" />
</g>
<g transform="matrix(4.17 0 0 4.17 141.67 200)" id="surface1"  >
<path style="stroke: none; stroke-width: 1; stroke-dasharray: none; stroke-linecap: butt; stroke-dashoffset: 0; stroke-linejoin: miter; stroke-miterlimit: 4; fill: rgb(221,44,0); fill-rule: nonzero; opacity: 1;"  transform=" translate(-10, -24)" d="M 15 27 H 5 v -6 h 4 l 6 4 V 27 z" stroke-linecap="round" />
</g>
<g transform="matrix(4.17 0 0 4.17 200 231.25)" id="surface1"  >
<path style="stroke: none; stroke-width: 1; stroke-dasharray: none; stroke-linecap: butt; stroke-dashoffset: 0; stroke-linejoin: miter; stroke-miterlimit: 4; fill: rgb(255,255,255); fill-rule: nonzero; opacity: 1;"  transform=" translate(-24, -31.5)" d="M 5 30 h 38 v 3 H 5 V 30 z" stroke-linecap="round" />
</g>
<g transform="matrix(4.17 0 0 4.17 133.33 200)" id="surface1"  >
<path style="stroke: none; stroke-width: 1; stroke-dasharray: none; stroke-linecap: butt; stroke-dashoffset: 0; stroke-linejoin: miter; stroke-miterlimit: 4; fill: rgb(255,255,255); fill-rule: nonzero; opacity: 1;"  transform=" translate(-8, -24)" d="M 9 24 c 0 0.6 -0.4 1 -1 1 s -1 -0.4 -1 -1 s 0.4 -1 1 -1 S 9 23.4 9 24 z" stroke-linecap="round" />
</g>
<g transform="matrix(4.17 0 0 4.17 197.99 156.17)" id="surface1"  >
<path style="stroke: none; stroke-width: 1; stroke-dasharray: none; stroke-linecap: butt; stroke-dashoffset: 0; stroke-linejoin: miter; stroke-miterlimit: 4; fill: rgb(176,190,197); fill-rule: nonzero; opacity: 1;"  transform=" translate(-23.52, -13.48)" d="M 6 21 c -0.3 0 -0.5 -0.1 -0.7 -0.3 C 5.1 20.5 5 20.1 5 19.8 l 1 -5 c 0.1 -0.4 0.4 -0.7 0.7 -0.8 l 30 -8 c 0.3 -0.1 0.7 0 1 0.3 l 4 4 c 0.3 0.3 0.4 0.6 0.3 1 s -0.4 0.6 -0.7 0.7 l -35 9 C 6.2 21 6.1 21 6 21 z M 7.9 15.8 l -0.6 2.8 l 31.8 -8.2 l -2.4 -2.4 L 7.9 15.8 z" stroke-linecap="round" />
</g>
<g transform="matrix(4.17 0 0 4.17 191.94 152.14)" id="surface1"  >
<path style="stroke: none; stroke-width: 1; stroke-dasharray: none; stroke-linecap: butt; stroke-dashoffset: 0; stroke-linejoin: miter; stroke-miterlimit: 4; fill: rgb(176,190,197); fill-rule: nonzero; opacity: 1;"  transform=" translate(-22.07, -12.51)" d="M 13 19 c -0.2 0 -0.3 0 -0.4 -0.1 l -6 -3 c -0.5 -0.2 -0.7 -0.8 -0.4 -1.3 s 0.8 -0.7 1.3 -0.4 l 5.3 2.6 l 3.5 -4.4 c 0.3 -0.3 0.7 -0.5 1.1 -0.3 l 5.3 1.8 l 3.6 -4.5 c 0.3 -0.3 0.7 -0.5 1.1 -0.3 l 5.3 1.8 l 3.6 -4.5 c 0.3 -0.4 1 -0.5 1.4 -0.2 c 0.4 0.3 0.5 1 0.2 1.4 l -4 5 c -0.3 0.3 -0.7 0.5 -1.1 0.3 l -5.3 -1.8 l -3.6 4.5 c -0.3 0.3 -0.7 0.5 -1.1 0.3 l -5.3 -1.8 l -3.6 4.5 C 13.6 18.9 13.3 19 13 19 z" stroke-linecap="round" />
</g>
<g transform="matrix(4.17 0 0 4.17 181.25 252.08)" id="surface1"  >
<path style="stroke: none; stroke-width: 1; stroke-dasharray: none; stroke-linecap: butt; stroke-dashoffset: 0; stroke-linejoin: miter; stroke-miterlimit: 4; fill: rgb(69,90,100); fill-rule: nonzero; opacity: 1;"  transform=" translate(-19.5, -36.5)" d="M 24 36.5 c 0 2.5 -2 4.5 -4.5 4.5 S 15 39 15 36.5 s 2 -4.5 4.5 -4.5 S 24 34 24 36.5" stroke-linecap="round" />
</g>
<g transform="matrix(4.17 0 0 4.17 252.08 252.08)" id="surface1"  >
<path style="stroke: none; stroke-width: 1; stroke-dasharray: none; stroke-linecap: butt; stroke-dashoffset: 0; stroke-linejoin: miter; stroke-miterlimit: 4; fill: rgb(69,90,100); fill-rule: nonzero; opacity: 1;"  transform=" translate(-36.5, -36.5)" d="M 41 36.5 c 0 2.5 -2 4.5 -4.5 4.5 S 32 39 32 36.5 s 2 -4.5 4.5 -4.5 S 41 34 41 36.5" stroke-linecap="round" />
</g>
<g transform="matrix(4.17 0 0 4.17 143.75 252.08)" id="surface1"  >
<path style="stroke: none; stroke-width: 1; stroke-dasharray: none; stroke-linecap: butt; stroke-dashoffset: 0; stroke-linejoin: miter; stroke-miterlimit: 4; fill: rgb(69,90,100); fill-rule: nonzero; opacity: 1;"  transform=" translate(-10.5, -36.5)" d="M 15 36.5 c 0 2.5 -2 4.5 -4.5 4.5 S 6 39 6 36.5 S 8 32 10.5 32 S 15 34 15 36.5" stroke-linecap="round" />
</g>
<g transform="matrix(4.17 0 0 4.17 181.25 252.08)" id="surface1"  >
<path style="stroke: none; stroke-width: 1; stroke-dasharray: none; stroke-linecap: butt; stroke-dashoffset: 0; stroke-linejoin: miter; stroke-miterlimit: 4; fill: rgb(207,216,220); fill-rule: nonzero; opacity: 1;"  transform=" translate(-19.5, -36.5)" d="M 21 36.5 c 0 0.8 -0.7 1.5 -1.5 1.5 S 18 37.3 18 36.5 s 0.7 -1.5 1.5 -1.5 S 21 35.7 21 36.5" stroke-linecap="round" />
</g>
<g transform="matrix(4.17 0 0 4.17 252.08 252.08)" id="surface1"  >
<path style="stroke: none; stroke-width: 1; stroke-dasharray: none; stroke-linecap: butt; stroke-dashoffset: 0; stroke-linejoin: miter; stroke-miterlimit: 4; fill: rgb(207,216,220); fill-rule: nonzero; opacity: 1;"  transform=" translate(-36.5, -36.5)" d="M 38 36.5 c 0 0.8 -0.7 1.5 -1.5 1.5 S 35 37.3 35 36.5 s 0.7 -1.5 1.5 -1.5 S 38 35.7 38 36.5" stroke-linecap="round" />
</g>
<g transform="matrix(4.17 0 0 4.17 143.75 252.08)" id="surface1"  >
<path style="stroke: none; stroke-width: 1; stroke-dasharray: none; stroke-linecap: butt; stroke-dashoffset: 0; stroke-linejoin: miter; stroke-miterlimit: 4; fill: rgb(207,216,220); fill-rule: nonzero; opacity: 1;"  transform=" translate(-10.5, -36.5)" d="M 12 36.5 c 0 0.8 -0.7 1.5 -1.5 1.5 S 9 37.3 9 36.5 S 9.7 35 10.5 35 S 12 35.7 12 36.5" stroke-linecap="round" />
</g>
</svg>