<?xml version="1.0" encoding="UTF-8" standalone="no" ?>
<!DOCTYPE svg PUBLIC "-//W3C//DTD SVG 1.1//EN" "http://www.w3.org/Graphics/SVG/1.1/DTD/svg11.dtd">
<svg xmlns="http://www.w3.org/2000/svg" xmlns:xlink="http://www.w3.org/1999/xlink" version="1.1" width="400" height="400" viewBox="0 0 400 400" xml:space="preserve">
<desc>Created with Fabric.js 3.6.2</desc>
<defs>
</defs>
<g transform="matrix(4.17 0 0 4.17 254.17 204.17)" id="surface1"  >
<path style="stroke: none; stroke-width: 1; stroke-dasharray: none; stroke-linecap: butt; stroke-dashoffset: 0; stroke-linejoin: miter; stroke-miterlimit: 4; fill: rgb(255,193,7); fill-rule: nonzero; opacity: 1;"  transform=" translate(-37, -25)" d="M 43 36 L 29 36 L 29 14 L 39.558594 14 C 40.417969 14 41.183594 14.550781 41.453125 15.367188 L 45 26 L 45 34 C 45 35.105469 44.105469 36 43 36 Z" stroke-linecap="round" />
</g>
<g transform="matrix(4.17 0 0 4.17 166.67 189.58)" id="surface1"  >
<path style="stroke: none; stroke-width: 1; stroke-dasharray: none; stroke-linecap: butt; stroke-dashoffset: 0; stroke-linejoin: miter; stroke-miterlimit: 4; fill: rgb(255,160,0); fill-rule: nonzero; opacity: 1;"  transform=" translate(-16, -21.5)" d="M 29 36 L 5 36 C 3.894531 36 3 35.105469 3 34 L 3 25 L 12.316406 8.660156 C 12.824219 7.640625 13.863281 7 15 7 L 27 7 C 28.105469 7 29 7.894531 29 9 Z" stroke-linecap="round" />
</g>
<g transform="matrix(4.17 0 0 4.17 256.25 185.42)" id="surface1"  >
<path style="stroke: none; stroke-width: 1; stroke-dasharray: none; stroke-linecap: butt; stroke-dashoffset: 0; stroke-linejoin: miter; stroke-miterlimit: 4; fill: rgb(55,71,79); fill-rule: nonzero; opacity: 1;"  transform=" translate(-37.5, -20.5)" d="M 41 25 L 34 25 C 33.449219 25 33 24.550781 33 24 L 33 17 C 33 16.449219 33.449219 16 34 16 L 39.277344 16 C 39.710938 16 40.09375 16.273438 40.226563 16.683594 L 41.949219 21.847656 C 41.984375 21.949219 42 22.054688 42 22.160156 L 42 24 C 42 24.550781 41.550781 25 41 25 Z" stroke-linecap="round" />
</g>
<g transform="matrix(4.17 0 0 4.17 195.83 172.92)" id="surface1"  >
<path style="stroke: none; stroke-width: 1; stroke-dasharray: none; stroke-linecap: butt; stroke-dashoffset: 0; stroke-linejoin: miter; stroke-miterlimit: 4; fill: rgb(255,193,7); fill-rule: nonzero; opacity: 1;"  transform=" translate(-23, -17.5)" d="M 21 6 L 25 6 L 25 29 L 21 29 Z" stroke-linecap="round" />
</g>
<g transform="matrix(4.17 0 0 4.17 162.5 172.92)" id="surface1"  >
<path style="stroke: none; stroke-width: 1; stroke-dasharray: none; stroke-linecap: butt; stroke-dashoffset: 0; stroke-linejoin: miter; stroke-miterlimit: 4; fill: rgb(255,193,7); fill-rule: nonzero; opacity: 1;"  transform=" translate(-15, -17.5)" d="M 13 6 L 17 6 L 17 29 L 13 29 Z" stroke-linecap="round" />
</g>
<g transform="matrix(4.17 0 0 4.17 175 235.42)" id="surface1"  >
<path style="stroke: none; stroke-width: 1; stroke-dasharray: none; stroke-linecap: butt; stroke-dashoffset: 0; stroke-linejoin: miter; stroke-miterlimit: 4; fill: rgb(120,144,156); fill-rule: nonzero; opacity: 1;"  transform=" translate(-18, -32.5)" d="M 7 36 L 29 36 L 29 29 L 12 29 Z" stroke-linecap="round" />
</g>
<g transform="matrix(4.17 0 0 4.17 254.17 250)" id="surface1"  >
<path style="stroke: none; stroke-width: 1; stroke-dasharray: none; stroke-linecap: butt; stroke-dashoffset: 0; stroke-linejoin: miter; stroke-miterlimit: 4; fill: rgb(55,71,79); fill-rule: nonzero; opacity: 1;"  transform=" translate(-37, -36)" d="M 42 36 C 42 38.761719 39.761719 41 37 41 C 34.238281 41 32 38.761719 32 36 C 32 33.238281 34.238281 31 37 31 C 39.761719 31 42 33.238281 42 36 Z" stroke-linecap="round" />
</g>
<g transform="matrix(4.17 0 0 4.17 154.17 250)" id="surface1"  >
<path style="stroke: none; stroke-width: 1; stroke-dasharray: none; stroke-linecap: butt; stroke-dashoffset: 0; stroke-linejoin: miter; stroke-miterlimit: 4; fill: rgb(55,71,79); fill-rule: nonzero; opacity: 1;"  transform=" translate(-13, -36)" d="M 18 36 C 18 38.761719 15.761719 41 13 41 C 10.238281 41 8 38.761719 8 36 C 8 33.238281 10.238281 31 13 31 C 15.761719 31 18 33.238281 18 36 Z" stroke-linecap="round" />
</g>
<g transform="matrix(4.17 0 0 4.17 254.17 250)" id="surface1"  >
<path style="stroke: none; stroke-width: 1; stroke-dasharray: none; stroke-linecap: butt; stroke-dashoffset: 0; stroke-linejoin: miter; stroke-miterlimit: 4; fill: rgb(120,144,156); fill-rule: nonzero; opacity: 1;"  transform=" translate(-37, -36)" d="M 39 36 C 39 37.105469 38.105469 38 37 38 C 35.894531 38 35 37.105469 35 36 C 35 34.894531 35.894531 34 37 34 C 38.105469 34 39 34.894531 39 36 Z" stroke-linecap="round" />
</g>
<g transform="matrix(4.17 0 0 4.17 154.17 250)" id="surface1"  >
<path style="stroke: none; stroke-width: 1; stroke-dasharray: none; stroke-linecap: butt; stroke-dashoffset: 0; stroke-linejoin: miter; stroke-miterlimit: 4; fill: rgb(120,144,156); fill-rule: nonzero; opacity: 1;"  transform=" translate(-13, -36)" d="M 15 36 C 15 37.105469 14.105469 38 13 38 C 11.894531 38 11 37.105469 11 36 C 11 34.894531 11.894531 34 13 34 C 14.105469 34 15 34.894531 15 36 Z" stroke-linecap="round" />
</g>
</svg>