<?xml version="1.0" encoding="UTF-8" standalone="no" ?>
<!DOCTYPE svg PUBLIC "-//W3C//DTD SVG 1.1//EN" "http://www.w3.org/Graphics/SVG/1.1/DTD/svg11.dtd">
<svg xmlns="http://www.w3.org/2000/svg" xmlns:xlink="http://www.w3.org/1999/xlink" version="1.1" width="400" height="400" viewBox="0 0 400 400" xml:space="preserve">
<desc>Created with Fabric.js 3.6.2</desc>
<defs>
</defs>
<g transform="matrix(4.17 0 0 4.17 200 175)" id="surface1"  >
<path style="stroke: none; stroke-width: 1; stroke-dasharray: none; stroke-linecap: butt; stroke-dashoffset: 0; stroke-linejoin: miter; stroke-miterlimit: 4; fill: rgb(144,164,174); fill-rule: nonzero; opacity: 1;"  transform=" translate(-24, -18)" d="M 10 21 L 8 21 C 7.398438 21 7 20.5 7 20 L 7 16 C 7 15.398438 7.398438 15 8 15 L 10 15 C 10.601563 15 11 15.398438 11 16 L 11 20 C 11 20.5 10.601563 21 10 21 Z M 41 20 L 41 16 C 41 15.398438 40.5 15 40 15 L 38 15 C 37.5 15 37 15.398438 37 16 L 37 20 C 37 20.5 37.5 21 38 21 L 40 21 C 40.5 21 41 20.5 41 20 Z" stroke-linecap="round" />
</g>
<g transform="matrix(4.17 0 0 4.17 200 183.33)" id="surface1"  >
<path style="stroke: none; stroke-width: 1; stroke-dasharray: none; stroke-linecap: butt; stroke-dashoffset: 0; stroke-linejoin: miter; stroke-miterlimit: 4; fill: rgb(69,90,100); fill-rule: nonzero; opacity: 1;"  transform=" translate(-24, -20)" d="M 39 21 L 9 21 C 8.5 21 8 20.601563 8 20 C 8 19.5 8.398438 19 9 19 L 39 19 C 39.5 19 40 19.5 40 20 C 40 20.5 39.5 21 39 21 Z" stroke-linecap="round" />
</g>
<g transform="matrix(4.17 0 0 4.17 200 137.5)" id="surface1"  >
<path style="stroke: none; stroke-width: 1; stroke-dasharray: none; stroke-linecap: butt; stroke-dashoffset: 0; stroke-linejoin: miter; stroke-miterlimit: 4; fill: rgb(255,61,0); fill-rule: nonzero; opacity: 1;"  transform=" translate(-24, -9)" d="M 21.699219 6.898438 L 20 12 L 28 12 L 26.300781 6.898438 C 26.101563 6.398438 25.601563 6 25 6 L 23 6 C 22.398438 6 21.898438 6.398438 21.699219 6.898438 Z" stroke-linecap="round" />
</g>
<g transform="matrix(4.17 0 0 4.17 207.71 135.42)" id="surface1"  >
<path style="stroke: none; stroke-width: 1; stroke-dasharray: none; stroke-linecap: butt; stroke-dashoffset: 0; stroke-linejoin: miter; stroke-miterlimit: 4; fill: rgb(255,112,67); fill-rule: nonzero; opacity: 1;"  transform=" translate(-25.85, -8.5)" d="M 26.300781 6.898438 C 26.101563 6.398438 25.601563 6 25 6 L 24 6 L 24 11 L 27.699219 11 Z" stroke-linecap="round" />
</g>
<g transform="matrix(4.17 0 0 4.17 199.59 191.67)" id="surface1"  >
<path style="stroke: none; stroke-width: 1; stroke-dasharray: none; stroke-linecap: butt; stroke-dashoffset: 0; stroke-linejoin: miter; stroke-miterlimit: 4; fill: rgb(255,193,7); fill-rule: nonzero; opacity: 1;"  transform=" translate(-23.9, -22)" d="M 37.800781 22.300781 L 36.300781 12.601563 C 36.199219 11.601563 35.398438 10.898438 34.398438 10.699219 C 32.300781 10.398438 28.398438 10 24 10 C 19.601563 10 15.699219 10.5 13.601563 10.699219 C 12.601563 10.800781 11.898438 11.601563 11.699219 12.601563 L 10.199219 22.300781 C 10.199219 22.300781 10.199219 22.300781 10.101563 22.300781 C 8.199219 22.699219 6.898438 24.300781 6.898438 26.199219 L 6.898438 34 L 40.898438 34 L 40.898438 26.199219 C 41 24.300781 39.699219 22.601563 37.800781 22.300781 Z" stroke-linecap="round" />
</g>
<g transform="matrix(4.17 0 0 4.17 200 170.62)" id="surface1"  >
<path style="stroke: none; stroke-width: 1; stroke-dasharray: none; stroke-linecap: butt; stroke-dashoffset: 0; stroke-linejoin: miter; stroke-miterlimit: 4; fill: rgb(93,64,55); fill-rule: nonzero; opacity: 1;"  transform=" translate(-24, -16.95)" d="M 24 21 C 28.601563 21 32.699219 21.398438 35.699219 21.898438 L 34.300781 12.898438 C 34.300781 12.800781 34.199219 12.699219 34.101563 12.699219 C 32.199219 12.5 28.300781 12 24 12 C 19.699219 12 15.800781 12.5 13.898438 12.699219 C 13.800781 12.699219 13.699219 12.800781 13.699219 12.898438 L 12.300781 21.898438 C 15.300781 21.398438 19.398438 21 24 21 Z" stroke-linecap="round" />
</g>
<g transform="matrix(4.17 0 0 4.17 200 220.83)" id="surface1"  >
<path style="stroke: none; stroke-width: 1; stroke-dasharray: none; stroke-linecap: butt; stroke-dashoffset: 0; stroke-linejoin: miter; stroke-miterlimit: 4; fill: rgb(255,160,0); fill-rule: nonzero; opacity: 1;"  transform=" translate(-24, -29)" d="M 7 28 L 41 28 L 41 30 L 7 30 Z" stroke-linecap="round" />
</g>
<g transform="matrix(4.17 0 0 4.17 200 225)" id="surface1"  >
<path style="stroke: none; stroke-width: 1; stroke-dasharray: none; stroke-linecap: butt; stroke-dashoffset: 0; stroke-linejoin: miter; stroke-miterlimit: 4; fill: rgb(255,253,231); fill-rule: nonzero; opacity: 1;"  transform=" translate(-24, -30)" d="M 16 33 L 12 33 C 11.398438 33 11 32.5 11 32 L 11 28 C 11 27.5 11.398438 27 12 27 L 16 27 C 16.5 27 17 27.5 17 28 L 17 32 C 17 32.5 16.5 33 16 33 Z M 37 32 L 37 28 C 37 27.5 36.5 27 36 27 L 32 27 C 31.5 27 31 27.5 31 28 L 31 32 C 31 32.5 31.5 33 32 33 L 36 33 C 36.5 33 37 32.5 37 32 Z" stroke-linecap="round" />
</g>
<g transform="matrix(4.17 0 0 4.17 200 250)" id="surface1"  >
<path style="stroke: none; stroke-width: 1; stroke-dasharray: none; stroke-linecap: butt; stroke-dashoffset: 0; stroke-linejoin: miter; stroke-miterlimit: 4; fill: rgb(84,110,122); fill-rule: nonzero; opacity: 1;"  transform=" translate(-24, -36)" d="M 43 30 L 5 30 C 5 41.101563 3 42 3 42 L 45 42 C 45 42 43 40.898438 43 30 Z" stroke-linecap="round" />
</g>
<g transform="matrix(4.17 0 0 4.17 200 250)" id="surface1"  >
<path style="stroke: none; stroke-width: 1; stroke-dasharray: none; stroke-linecap: butt; stroke-dashoffset: 0; stroke-linejoin: miter; stroke-miterlimit: 4; fill: rgb(55,71,79); fill-rule: nonzero; opacity: 1;"  transform=" translate(-24, -36)" d="M 45 42 L 3 42 C 3 42 3.699219 41.699219 4.300781 39 L 43.699219 39 C 44.300781 41.601563 45 42 45 42 Z M 5 30 C 5 31.101563 5 32.101563 4.898438 33 L 43 33 C 43 32.101563 42.898438 31.101563 42.898438 30 Z" stroke-linecap="round" />
</g>
</svg>