<?xml version="1.0" encoding="UTF-8" standalone="no" ?>
<!DOCTYPE svg PUBLIC "-//W3C//DTD SVG 1.1//EN" "http://www.w3.org/Graphics/SVG/1.1/DTD/svg11.dtd">
<svg xmlns="http://www.w3.org/2000/svg" xmlns:xlink="http://www.w3.org/1999/xlink" version="1.1" width="400" height="400" viewBox="0 0 400 400" xml:space="preserve">
<desc>Created with Fabric.js 3.6.2</desc>
<defs>
</defs>
<g transform="matrix(4.17 0 0 4.17 160.42 227.08)" id="surface1"  >
<path style="stroke: none; stroke-width: 1; stroke-dasharray: none; stroke-linecap: butt; stroke-dashoffset: 0; stroke-linejoin: miter; stroke-miterlimit: 4; fill: rgb(255,160,0); fill-rule: nonzero; opacity: 1;"  transform=" translate(-14.5, -30.5)" d="M 28 34 H 2.9 c 0 0 -1.9 0.1 -1.9 -2 s 0 -5 0 -5 h 27 V 34 z" stroke-linecap="round" />
</g>
<g transform="matrix(4.17 0 0 4.17 254.17 208.33)" id="surface1"  >
<path style="stroke: none; stroke-width: 1; stroke-dasharray: none; stroke-linecap: butt; stroke-dashoffset: 0; stroke-linejoin: miter; stroke-miterlimit: 4; fill: rgb(255,193,7); fill-rule: nonzero; opacity: 1;"  transform=" translate(-37, -26)" d="M 45 36 H 27 c 0 0 0 -16 0 -18 s 2 -2 2 -2 h 12.6 c 0.9 0 1.6 0.6 1.9 1.4 L 47 26 v 8 C 47 35.1 46.1 36 45 36" stroke-linecap="round" />
</g>
<g transform="matrix(4.17 0 0 4.17 264.58 191.67)" id="surface1"  >
<path style="stroke: none; stroke-width: 1; stroke-dasharray: none; stroke-linecap: butt; stroke-dashoffset: 0; stroke-linejoin: miter; stroke-miterlimit: 4; fill: rgb(122,26,4); fill-rule: nonzero; opacity: 1;"  transform=" translate(-39.5, -22)" d="M 43 26 h -7 c -0.6 0 -1 -0.4 -1 -1 v -6 c 0 -0.6 0.4 -1 1 -1 h 5 c 0.4 0 0.8 0.3 0.9 0.7 l 2 5 c 0 0.1 0.1 0.2 0.1 0.3 v 1 C 44 25.6 43.6 26 43 26" stroke-linecap="round" />
</g>
<g transform="matrix(4.17 0 0 4.17 125 166.67)" id="surface1"  >
<path style="stroke: none; stroke-width: 1; stroke-dasharray: none; stroke-linecap: butt; stroke-dashoffset: 0; stroke-linejoin: miter; stroke-miterlimit: 4; fill: rgb(96,125,139); fill-rule: nonzero; opacity: 1;"  transform=" translate(-6, -16)" d="M 7 17.2 V 9 H 5 v 9 c 0 0 0 1 1 1 c 0.6 0 1 0.4 1 1 s -0.4 1 -1 1 c -0.6 0 -1 -0.4 -1 -1 H 3 c 0 1.7 1.3 3 3 3 s 3 -1.3 3 -3 C 9 18.7 8.2 17.6 7 17.2 z" stroke-linecap="round" />
</g>
<g transform="matrix(4.17 0 0 4.17 162.57 170.83)" id="surface1"  >
<path style="stroke: none; stroke-width: 1; stroke-dasharray: none; stroke-linecap: butt; stroke-dashoffset: 0; stroke-linejoin: miter; stroke-miterlimit: 4; fill: rgb(176,190,197); fill-rule: nonzero; opacity: 1;"  transform=" translate(-15.02, -17)" d="M 22 27 c -0.3 0 -0.5 -0.1 -0.7 -0.3 l -16 -17 c -0.4 -0.4 -0.4 -1 0 -1.4 l 1 -1 c 0.4 -0.4 1 -0.4 1.4 0 l 17 15 c 0.4 0.3 0.4 0.9 0.2 1.3 l -2 3 C 22.7 26.8 22.4 27 22 27 C 22.1 27 22 27 22 27 z M 11.1 12.9 l 10.8 11.5 l 0.8 -1.2 L 11.1 12.9 z" stroke-linecap="round" />
</g>
<g transform="matrix(4.17 0 0 4.17 204.17 225)" id="surface1"  >
<path style="stroke: none; stroke-width: 1; stroke-dasharray: none; stroke-linecap: butt; stroke-dashoffset: 0; stroke-linejoin: miter; stroke-miterlimit: 4; fill: rgb(144,164,174); fill-rule: nonzero; opacity: 1;"  transform=" translate(-25, -30)" d="M 38 37 H 12 v -4 h 26 V 37 z M 18 27 h 7 v -4 h -7 V 27 z" stroke-linecap="round" />
</g>
<g transform="matrix(4.17 0 0 4.17 200 250)" id="surface1"  >
<path style="stroke: none; stroke-width: 1; stroke-dasharray: none; stroke-linecap: butt; stroke-dashoffset: 0; stroke-linejoin: miter; stroke-miterlimit: 4; fill: rgb(69,90,100); fill-rule: nonzero; opacity: 1;"  transform=" translate(-24, -36)" d="M 16 36 c 0 2.8 -2.2 5 -5 5 s -5 -2.2 -5 -5 s 2.2 -5 5 -5 S 16 33.2 16 36 M 42 36 c 0 -2.8 -2.2 -5 -5 -5 s -5 2.2 -5 5 s 2.2 5 5 5 S 42 38.8 42 36" stroke-linecap="round" />
</g>
<g transform="matrix(4.17 0 0 4.17 200 250)" id="surface1"  >
<path style="stroke: none; stroke-width: 1; stroke-dasharray: none; stroke-linecap: butt; stroke-dashoffset: 0; stroke-linejoin: miter; stroke-miterlimit: 4; fill: rgb(207,216,220); fill-rule: nonzero; opacity: 1;"  transform=" translate(-24, -36)" d="M 13 36 c 0 1.1 -0.9 2 -2 2 c -1.1 0 -2 -0.9 -2 -2 s 0.9 -2 2 -2 C 12.1 34 13 34.9 13 36 M 39 36 c 0 -1.1 -0.9 -2 -2 -2 s -2 0.9 -2 2 s 0.9 2 2 2 S 39 37.1 39 36" stroke-linecap="round" />
</g>
</svg>