<?xml version="1.0" encoding="UTF-8" standalone="no" ?>
<!DOCTYPE svg PUBLIC "-//W3C//DTD SVG 1.1//EN" "http://www.w3.org/Graphics/SVG/1.1/DTD/svg11.dtd">
<svg xmlns="http://www.w3.org/2000/svg" xmlns:xlink="http://www.w3.org/1999/xlink" version="1.1" width="400" height="400" viewBox="0 0 400 400" xml:space="preserve">
<desc>Created with Fabric.js 3.6.2</desc>
<defs>
</defs>
<g transform="matrix(4.17 0 0 4.17 200 200)" id="surface1"  >
<path style="stroke: none; stroke-width: 1; stroke-dasharray: none; stroke-linecap: butt; stroke-dashoffset: 0; stroke-linejoin: miter; stroke-miterlimit: 4; fill: rgb(96,125,139); fill-rule: nonzero; opacity: 1;"  transform=" translate(-24, -24)" d="M 6.152344 40.417969 L 40.421875 6.152344 L 41.847656 7.578125 L 7.578125 41.847656 Z" stroke-linecap="round" />
</g>
<g transform="matrix(4.17 0 0 4.17 179.17 220.83)" id="surface1"  >
<path style="stroke: none; stroke-width: 1; stroke-dasharray: none; stroke-linecap: butt; stroke-dashoffset: 0; stroke-linejoin: miter; stroke-miterlimit: 4; fill: rgb(144,164,174); fill-rule: nonzero; opacity: 1;"  transform=" translate(-19, -29)" d="M 16.144531 30.425781 L 20.429688 26.144531 L 21.859375 27.570313 L 17.574219 31.855469 Z" stroke-linecap="round" />
</g>
<g transform="matrix(4.17 0 0 4.17 220.82 179.17)" id="surface1"  >
<path style="stroke: none; stroke-width: 1; stroke-dasharray: none; stroke-linecap: butt; stroke-dashoffset: 0; stroke-linejoin: miter; stroke-miterlimit: 4; fill: rgb(144,164,174); fill-rule: nonzero; opacity: 1;"  transform=" translate(-29, -19)" d="M 26.140625 20.429688 L 30.425781 16.144531 L 31.851563 17.574219 L 27.570313 21.859375 Z" stroke-linecap="round" />
</g>
<g transform="matrix(4.17 0 0 4.17 241.64 158.36)" id="surface1"  >
<path style="stroke: none; stroke-width: 1; stroke-dasharray: none; stroke-linecap: butt; stroke-dashoffset: 0; stroke-linejoin: miter; stroke-miterlimit: 4; fill: rgb(95,110,196); fill-rule: nonzero; opacity: 1;"  transform=" translate(-33.99, -14.01)" d="M 26.855469 5.4375 L 25.425781 6.867188 C 25.03125 7.261719 25.03125 7.898438 25.425781 8.292969 L 39.707031 22.574219 C 40.101563 22.96875 40.738281 22.96875 41.132813 22.574219 L 42.5625 21.144531 C 42.957031 20.75 42.957031 20.109375 42.5625 19.71875 L 28.28125 5.4375 C 27.890625 5.042969 27.25 5.042969 26.855469 5.4375" stroke-linecap="round" />
</g>
<g transform="matrix(4.17 0 0 4.17 158.35 241.65)" id="surface1"  >
<path style="stroke: none; stroke-width: 1; stroke-dasharray: none; stroke-linecap: butt; stroke-dashoffset: 0; stroke-linejoin: miter; stroke-miterlimit: 4; fill: rgb(96,111,196); fill-rule: nonzero; opacity: 1;"  transform=" translate(-14, -34)" d="M 21.144531 42.5625 L 22.570313 41.136719 C 22.964844 40.738281 22.964844 40.101563 22.570313 39.707031 L 8.292969 25.429688 C 7.898438 25.035156 7.261719 25.035156 6.863281 25.429688 L 5.4375 26.855469 C 5.042969 27.25 5.042969 27.890625 5.4375 28.285156 L 19.714844 42.5625 C 20.109375 42.957031 20.75 42.957031 21.144531 42.5625" stroke-linecap="round" />
</g>
<g transform="matrix(4.17 0 0 4.17 253.54 146.46)" id="surface1"  >
<path style="stroke: none; stroke-width: 1; stroke-dasharray: none; stroke-linecap: butt; stroke-dashoffset: 0; stroke-linejoin: miter; stroke-miterlimit: 4; fill: rgb(255,183,77); fill-rule: nonzero; opacity: 1;"  transform=" translate(-36.85, -11.15)" d="M 30.425781 3.296875 L 28.996094 4.722656 C 28.601563 5.117188 28.601563 5.757813 28.996094 6.152344 L 41.847656 19.003906 C 42.242188 19.398438 42.882813 19.398438 43.277344 19.003906 L 44.703125 17.574219 C 45.097656 17.179688 45.097656 16.539063 44.703125 16.148438 L 31.855469 3.296875 C 31.460938 2.902344 30.820313 2.902344 30.425781 3.296875" stroke-linecap="round" />
</g>
<g transform="matrix(4.17 0 0 4.17 146.45 253.54)" id="surface1"  >
<path style="stroke: none; stroke-width: 1; stroke-dasharray: none; stroke-linecap: butt; stroke-dashoffset: 0; stroke-linejoin: miter; stroke-miterlimit: 4; fill: rgb(255,183,77); fill-rule: nonzero; opacity: 1;"  transform=" translate(-11.15, -36.85)" d="M 17.574219 44.703125 L 19.003906 43.277344 C 19.398438 42.882813 19.398438 42.242188 19.003906 41.847656 L 6.152344 28.996094 C 5.757813 28.601563 5.117188 28.601563 4.722656 28.996094 L 3.296875 30.425781 C 2.898438 30.820313 2.898438 31.460938 3.296875 31.855469 L 16.144531 44.703125 C 16.539063 45.097656 17.179688 45.097656 17.574219 44.703125" stroke-linecap="round" />
</g>
<g transform="matrix(4.17 0 0 4.17 262.47 137.53)" id="surface1"  >
<path style="stroke: none; stroke-width: 1; stroke-dasharray: none; stroke-linecap: butt; stroke-dashoffset: 0; stroke-linejoin: miter; stroke-miterlimit: 4; fill: rgb(94,192,143); fill-rule: nonzero; opacity: 1;"  transform=" translate(-38.99, -9.01)" d="M 33.28125 3.296875 C 32.886719 3.691406 32.886719 4.328125 33.28125 4.722656 L 43.277344 14.71875 C 43.667969 15.113281 44.308594 15.113281 44.703125 14.71875 C 45.097656 14.324219 45.097656 13.683594 44.703125 13.289063 L 34.710938 3.296875 C 34.316406 2.902344 33.675781 2.902344 33.28125 3.296875" stroke-linecap="round" />
</g>
<g transform="matrix(4.17 0 0 4.17 137.53 262.47)" id="surface1"  >
<path style="stroke: none; stroke-width: 1; stroke-dasharray: none; stroke-linecap: butt; stroke-dashoffset: 0; stroke-linejoin: miter; stroke-miterlimit: 4; fill: rgb(94,192,143); fill-rule: nonzero; opacity: 1;"  transform=" translate(-9.01, -38.99)" d="M 14.71875 44.703125 C 15.113281 44.308594 15.113281 43.671875 14.71875 43.277344 L 4.722656 33.28125 C 4.332031 32.886719 3.691406 32.886719 3.296875 33.28125 C 2.902344 33.675781 2.902344 34.316406 3.296875 34.707031 L 13.289063 44.703125 C 13.683594 45.097656 14.324219 45.097656 14.71875 44.703125" stroke-linecap="round" />
</g>
</svg>