<?xml version="1.0" encoding="UTF-8" standalone="no" ?>
<!DOCTYPE svg PUBLIC "-//W3C//DTD SVG 1.1//EN" "http://www.w3.org/Graphics/SVG/1.1/DTD/svg11.dtd">
<svg xmlns="http://www.w3.org/2000/svg" xmlns:xlink="http://www.w3.org/1999/xlink" version="1.1" width="400" height="400" viewBox="0 0 400 400" xml:space="preserve">
<desc>Created with Fabric.js 3.6.2</desc>
<defs>
</defs>
<g transform="matrix(4.17 0 0 4.17 250 137.5)" id="surface1"  >
<path style="stroke: none; stroke-width: 1; stroke-dasharray: none; stroke-linecap: butt; stroke-dashoffset: 0; stroke-linejoin: miter; stroke-miterlimit: 4; fill: rgb(144,164,174); fill-rule: nonzero; opacity: 1;"  transform=" translate(-36, -9)" d="M 41 4 C 41 4 41 4.300781 40.800781 4.699219 C 40.699219 4.898438 40.699219 5.199219 40.601563 5.5 C 40.601563 5.601563 40.5 5.800781 40.5 6 C 40.398438 6.199219 40.300781 6.199219 40.199219 6.300781 C 39.300781 7.199219 38 8.5 36.800781 9.699219 C 35.601563 10.898438 34.300781 12.199219 33.398438 13.101563 C 33.300781 13.199219 33.199219 13.398438 33.101563 13.398438 C 32.898438 13.5 32.800781 13.5 32.601563 13.5 C 32.300781 13.601563 32.101563 13.699219 31.800781 13.699219 C 31.300781 14 31 14 31 14 C 31 14 31 13.699219 31.199219 13.300781 C 31.300781 13.101563 31.300781 12.800781 31.398438 12.5 C 31.398438 12.398438 31.5 12.199219 31.5 12 C 31.5 11.800781 31.699219 11.800781 31.800781 11.699219 C 32.699219 10.800781 34 9.5 35.199219 8.300781 C 36.398438 7.101563 37.699219 5.800781 38.601563 4.898438 C 38.699219 4.800781 38.800781 4.601563 38.898438 4.601563 C 39.101563 4.5 39.199219 4.5 39.398438 4.5 C 39.699219 4.398438 39.898438 4.300781 40.199219 4.300781 C 40.699219 4 41 4 41 4 Z" stroke-linecap="round" />
</g>
<g transform="matrix(4.17 0 0 4.17 218.25 169.46)" id="surface1"  >
<path style="stroke: none; stroke-width: 1; stroke-dasharray: none; stroke-linecap: butt; stroke-dashoffset: 0; stroke-linejoin: miter; stroke-miterlimit: 4; fill: rgb(176,190,197); fill-rule: nonzero; opacity: 1;"  transform=" translate(-28.38, -16.67)" d="M 34.992188 6.523438 L 38.527344 10.058594 L 21.769531 26.816406 L 18.234375 23.28125 Z" stroke-linecap="round" />
</g>
<g transform="matrix(4.17 0 0 4.17 191.67 231.41)" id="surface1"  >
<path style="stroke: none; stroke-width: 1; stroke-dasharray: none; stroke-linecap: butt; stroke-dashoffset: 0; stroke-linejoin: miter; stroke-miterlimit: 4; fill: rgb(84,110,122); fill-rule: nonzero; opacity: 1;"  transform=" translate(-22, -31.54)" d="M 24 27 L 18 21 L 19.699219 19.300781 C 20 19 20.601563 19 20.898438 19.300781 L 25.699219 24.101563 C 26 24.398438 26 25 25.699219 25.300781 Z M 15.300781 40.398438 C 16.601563 39.199219 18 38 19 38 C 20 38 20.398438 38.5 21.101563 39.398438 C 22 40.5 23.101563 42 26 42 C 30.300781 42 37.601563 32.101563 39 30.199219 L 37.398438 29 C 34.398438 33.101563 28.601563 40 26 40 C 24.101563 40 23.5 39.199219 22.699219 38.199219 C 22 37.199219 21 36 19 36 C 17.199219 36 15.601563 37.398438 13.898438 39 C 12.300781 40.5 10.601563 42 8.800781 42 C 8.699219 42 7 42 7 41 C 7 39.699219 7.800781 38.300781 9.699219 36.800781 L 8.398438 35.300781 C 6.101563 37.199219 5 39 5 41 C 5 42.800781 6.601563 44 8.898438 44 C 11.398438 44 13.5 42.101563 15.300781 40.398438 Z" stroke-linecap="round" />
</g>
<g transform="matrix(4.17 0 0 4.17 166.42 220.86)" id="surface1"  >
<path style="stroke: none; stroke-width: 1; stroke-dasharray: none; stroke-linecap: butt; stroke-dashoffset: 0; stroke-linejoin: miter; stroke-miterlimit: 4; fill: rgb(255,109,0); fill-rule: nonzero; opacity: 1;"  transform=" translate(-15.94, -29.01)" d="M 24.699219 26.699219 L 18.300781 20.300781 C 17.898438 19.898438 17.300781 20 17 20.300781 C 16.601563 20.699219 16.101563 24 15 25 L 7.898438 32.101563 C 6.601563 33.398438 6.601563 35.398438 7.898438 36.601563 L 8.300781 37 C 9.601563 38.300781 11.601563 38.300781 12.800781 37 L 19.800781 30 C 19.800781 30 19.898438 30 19.898438 30 C 21 28.898438 24.199219 28.398438 24.601563 28 C 25 27.601563 25.101563 27.101563 24.699219 26.699219 Z" stroke-linecap="round" />
</g>
</svg>