<?xml version="1.0" encoding="UTF-8" standalone="no" ?>
<!DOCTYPE svg PUBLIC "-//W3C//DTD SVG 1.1//EN" "http://www.w3.org/Graphics/SVG/1.1/DTD/svg11.dtd">
<svg xmlns="http://www.w3.org/2000/svg" xmlns:xlink="http://www.w3.org/1999/xlink" version="1.1" width="400" height="400" viewBox="0 0 400 400" xml:space="preserve">
<desc>Created with Fabric.js 3.6.2</desc>
<defs>
</defs>
<g transform="matrix(4.17 0 0 4.17 145.83 260.42)" id="surface1"  >
<path style="stroke: none; stroke-width: 1; stroke-dasharray: none; stroke-linecap: butt; stroke-dashoffset: 0; stroke-linejoin: miter; stroke-miterlimit: 4; fill: rgb(255,152,0); fill-rule: nonzero; opacity: 1;"  transform=" translate(-11, -38.5)" d="M 12 42 L 8 42 L 10 35 L 14 35 Z" stroke-linecap="round" />
</g>
<g transform="matrix(4.17 0 0 4.17 254.17 260.42)" id="surface1"  >
<path style="stroke: none; stroke-width: 1; stroke-dasharray: none; stroke-linecap: butt; stroke-dashoffset: 0; stroke-linejoin: miter; stroke-miterlimit: 4; fill: rgb(255,152,0); fill-rule: nonzero; opacity: 1;"  transform=" translate(-37, -38.5)" d="M 36 42 L 40 42 L 38 35 L 34 35 Z" stroke-linecap="round" />
</g>
<g transform="matrix(4.17 0 0 4.17 200 210.42)" id="surface1"  >
<path style="stroke: none; stroke-width: 1; stroke-dasharray: none; stroke-linecap: butt; stroke-dashoffset: 0; stroke-linejoin: miter; stroke-miterlimit: 4; fill: rgb(206,147,216); fill-rule: nonzero; opacity: 1;"  transform=" translate(-24, -26.5)" d="M 6 17 L 42 17 L 42 36 L 6 36 Z" stroke-linecap="round" />
</g>
<g transform="matrix(4.17 0 0 4.17 200 175)" id="surface1"  >
<path style="stroke: none; stroke-width: 1; stroke-dasharray: none; stroke-linecap: butt; stroke-dashoffset: 0; stroke-linejoin: miter; stroke-miterlimit: 4; fill: rgb(156,39,176); fill-rule: nonzero; opacity: 1;"  transform=" translate(-24, -18)" d="M 37 27 C 37 28.65625 35.65625 30 34 30 L 14 30 C 12.34375 30 11 28.65625 11 27 L 11 9 C 11 7.34375 12.34375 6 14 6 L 34 6 C 35.65625 6 37 7.34375 37 9 Z" stroke-linecap="round" />
</g>
<g transform="matrix(4.17 0 0 4.17 200 210.42)" id="surface1"  >
<path style="stroke: none; stroke-width: 1; stroke-dasharray: none; stroke-linecap: butt; stroke-dashoffset: 0; stroke-linejoin: miter; stroke-miterlimit: 4; fill: rgb(225,190,231); fill-rule: nonzero; opacity: 1;"  transform=" translate(-24, -26.5)" d="M 37 30 L 11 30 L 11 25 C 11 23.894531 11.894531 23 13 23 L 35 23 C 36.105469 23 37 23.894531 37 25 Z" stroke-linecap="round" />
</g>
</svg>