<?xml version="1.0" encoding="UTF-8" standalone="no" ?>
<!DOCTYPE svg PUBLIC "-//W3C//DTD SVG 1.1//EN" "http://www.w3.org/Graphics/SVG/1.1/DTD/svg11.dtd">
<svg xmlns="http://www.w3.org/2000/svg" xmlns:xlink="http://www.w3.org/1999/xlink" version="1.1" width="400" height="400" viewBox="0 0 400 400" xml:space="preserve">
<desc>Created with Fabric.js 3.6.2</desc>
<defs>
</defs>
<g transform="matrix(2.67 0 0 2.67 199.99 212.65)" id="Layer_1"  >
<rect style="stroke: none; stroke-width: 1; stroke-dasharray: none; stroke-linecap: butt; stroke-dashoffset: 0; stroke-linejoin: miter; stroke-miterlimit: 4; fill: rgb(211,42,90); fill-rule: nonzero; opacity: 1;"  x="-28.722" y="-19.25" rx="0" ry="0" width="57.444" height="38.5" />
</g>
<g transform="matrix(2.67 0 0 2.67 174.46 199.81)" id="Layer_1"  >
<polyline style="stroke: none; stroke-width: 1; stroke-dasharray: none; stroke-linecap: butt; stroke-dashoffset: 0; stroke-linejoin: miter; stroke-miterlimit: 4; fill: rgb(170,31,77); fill-rule: nonzero; opacity: 1;"  points="-9.58,4.81 -9.58,-4.81 9.58,-4.81 " />
</g>
<g transform="matrix(2.67 0 0 2.67 225.53 199.81)" id="Layer_1"  >
<polyline style="stroke: none; stroke-width: 1; stroke-dasharray: none; stroke-linecap: butt; stroke-dashoffset: 0; stroke-linejoin: miter; stroke-miterlimit: 4; fill: rgb(232,56,98); fill-rule: nonzero; opacity: 1;"  points="-9.57,-4.81 9.57,-4.81 9.57,4.81 " />
</g>
<g transform="matrix(2.67 0 0 2.67 174.46 251.15)" id="Layer_1"  >
<polyline style="stroke: none; stroke-width: 1; stroke-dasharray: none; stroke-linecap: butt; stroke-dashoffset: 0; stroke-linejoin: miter; stroke-miterlimit: 4; fill: rgb(188,42,84); fill-rule: nonzero; opacity: 1;"  points="9.58,4.81 -9.58,4.81 -9.58,-4.81 " />
</g>
<g transform="matrix(2.67 0 0 2.67 225.53 251.15)" id="Layer_1"  >
<polyline style="stroke: none; stroke-width: 1; stroke-dasharray: none; stroke-linecap: butt; stroke-dashoffset: 0; stroke-linejoin: miter; stroke-miterlimit: 4; fill: rgb(232,56,98); fill-rule: nonzero; opacity: 1;"  points="9.57,-4.81 9.57,4.81 -9.57,4.81 " />
</g>
<g transform="matrix(2.67 0 0 2.67 199.99 225.48)" id="Layer_1"  >
<path style="stroke: none; stroke-width: 1; stroke-dasharray: none; stroke-linecap: butt; stroke-dashoffset: 0; stroke-linejoin: miter; stroke-miterlimit: 4; fill: rgb(132,67,23); fill-rule: nonzero; opacity: 1;"  transform=" translate(-37.5, -47.06)" d="M 42.232 32.617 h -9.471 c -5.345 2.381 -9.679 6.715 -9.679 12.059 v 16.818 H 51.91 V 44.676 C 51.91 39.332 47.577 34.998 42.232 32.617 z" stroke-linecap="round" />
</g>
<g transform="matrix(2.67 0 0 2.67 199.99 231.9)" id="Layer_1"  >
<path style="stroke: none; stroke-width: 1; stroke-dasharray: none; stroke-linecap: butt; stroke-dashoffset: 0; stroke-linejoin: miter; stroke-miterlimit: 4; fill: rgb(160,73,14); fill-rule: nonzero; opacity: 1;"  transform=" translate(-37.5, -49.46)" d="M 41.443 37.43 h -7.893 c -4.453 1.984 -8.065 5.596 -8.065 10.049 v 14.016 h 24.022 V 47.479 C 49.508 43.025 45.896 39.414 41.443 37.43 z" stroke-linecap="round" />
</g>
<g transform="matrix(2.67 0 0 2.67 200 234.81)" id="Layer_1"  >
<path style="stroke: none; stroke-width: 1; stroke-dasharray: none; stroke-linecap: butt; stroke-dashoffset: 0; stroke-linejoin: miter; stroke-miterlimit: 4; fill: rgb(234,184,24); fill-rule: nonzero; opacity: 1;"  transform=" translate(-37.5, -50.55)" d="M 31.247 52.207 c 0 5.135 2.461 6.395 6.259 9.287 c 3.785 -2.893 6.246 -4.152 6.246 -9.287 c 0 -5.139 -2.461 -9.699 -6.246 -12.592 C 33.708 42.508 31.247 47.068 31.247 52.207 z" stroke-linecap="round" />
</g>
<g transform="matrix(2.67 0 0 2.67 208.34 234.81)" id="Layer_1"  >
<path style="stroke: none; stroke-width: 1; stroke-dasharray: none; stroke-linecap: butt; stroke-dashoffset: 0; stroke-linejoin: miter; stroke-miterlimit: 4; fill: rgb(255,143,21); fill-rule: nonzero; opacity: 1;"  transform=" translate(-40.63, -50.55)" d="M 37.506 61.494 c 3.785 -2.893 6.246 -4.152 6.246 -9.287 c 0 -5.139 -2.461 -9.699 -6.246 -12.592" stroke-linecap="round" />
</g>
<g transform="matrix(2.67 0 0 2.67 200 246.45)" id="Layer_1"  >
<path style="stroke: none; stroke-width: 1; stroke-dasharray: none; stroke-linecap: butt; stroke-dashoffset: 0; stroke-linejoin: miter; stroke-miterlimit: 4; fill: rgb(242,102,6); fill-rule: nonzero; opacity: 1;"  transform=" translate(-37.5, -54.92)" d="M 33.745 55.908 c 0 3.094 1.478 3.846 3.761 5.586 c 2.271 -1.74 3.749 -2.492 3.749 -5.586 c 0 -3.084 -1.479 -5.822 -3.749 -7.566 C 35.223 50.086 33.745 52.824 33.745 55.908 z" stroke-linecap="round" />
</g>
<g transform="matrix(2.67 0 0 2.67 195 246.45)" id="Layer_1"  >
<path style="stroke: none; stroke-width: 1; stroke-dasharray: none; stroke-linecap: butt; stroke-dashoffset: 0; stroke-linejoin: miter; stroke-miterlimit: 4; fill: rgb(255,143,21); fill-rule: nonzero; opacity: 1;"  transform=" translate(-35.63, -54.92)" d="M 37.506 48.342 c -2.283 1.744 -3.761 4.482 -3.761 7.566 c 0 3.094 1.478 3.846 3.761 5.586" stroke-linecap="round" />
</g>
<g transform="matrix(2.67 0 0 2.67 148.93 174.15)" id="Layer_1"  >
<rect style="stroke: none; stroke-width: 1; stroke-dasharray: none; stroke-linecap: butt; stroke-dashoffset: 0; stroke-linejoin: miter; stroke-miterlimit: 4; fill: rgb(170,31,77); fill-rule: nonzero; opacity: 1;"  x="-9.572" y="-4.8115" rx="0" ry="0" width="19.144" height="9.623" />
</g>
<g transform="matrix(2.67 0 0 2.67 148.93 167.15)" id="Layer_1"  >
<rect style="stroke: none; stroke-width: 1; stroke-dasharray: none; stroke-linecap: butt; stroke-dashoffset: 0; stroke-linejoin: miter; stroke-miterlimit: 4; fill: rgb(137,26,69); fill-rule: nonzero; opacity: 1;"  x="-9.572" y="-2.1865" rx="0" ry="0" width="19.144" height="4.373" />
</g>
<g transform="matrix(2.67 0 0 2.67 199.99 174.15)" id="Layer_1"  >
<rect style="stroke: none; stroke-width: 1; stroke-dasharray: none; stroke-linecap: butt; stroke-dashoffset: 0; stroke-linejoin: miter; stroke-miterlimit: 4; fill: rgb(188,42,84); fill-rule: nonzero; opacity: 1;"  x="-9.5785" y="-4.8115" rx="0" ry="0" width="19.157" height="9.623" />
</g>
<g transform="matrix(2.67 0 0 2.67 251.06 174.15)" id="Layer_1"  >
<rect style="stroke: none; stroke-width: 1; stroke-dasharray: none; stroke-linecap: butt; stroke-dashoffset: 0; stroke-linejoin: miter; stroke-miterlimit: 4; fill: rgb(188,42,84); fill-rule: nonzero; opacity: 1;"  x="-9.572" y="-4.8115" rx="0" ry="0" width="19.144" height="9.623" />
</g>
<g transform="matrix(2.67 0 0 2.67 200 212.65)" id="Layer_1"  >
<path style="stroke: none; stroke-width: 1; stroke-dasharray: none; stroke-linecap: butt; stroke-dashoffset: 0; stroke-linejoin: miter; stroke-miterlimit: 4; fill: rgb(188,42,84); fill-rule: nonzero; opacity: 1;"  transform=" translate(-37.5, -42.24)" d="M 37.5 42.244" stroke-linecap="round" />
</g>
<g transform="matrix(2.67 0 0 2.67 200 212.65)" id="Layer_1"  >
<path style="stroke: none; stroke-width: 1; stroke-dasharray: none; stroke-linecap: butt; stroke-dashoffset: 0; stroke-linejoin: miter; stroke-miterlimit: 4; fill: rgb(188,42,84); fill-rule: nonzero; opacity: 1;"  transform=" translate(-37.5, -42.24)" d="M 37.5 42.244" stroke-linecap="round" />
</g>
<g transform="matrix(2.67 0 0 2.67 141.74 225.48)" id="Layer_1"  >
<polyline style="stroke: none; stroke-width: 1; stroke-dasharray: none; stroke-linecap: butt; stroke-dashoffset: 0; stroke-linejoin: miter; stroke-miterlimit: 4; fill: rgb(232,56,98); fill-rule: nonzero; opacity: 1;"  points="6.88,4.81 -6.88,4.81 -6.88,-4.81 6.88,-4.81 " />
</g>
<g transform="matrix(2.67 0 0 2.67 258.25 225.48)" id="Layer_1"  >
<polyline style="stroke: none; stroke-width: 1; stroke-dasharray: none; stroke-linecap: butt; stroke-dashoffset: 0; stroke-linejoin: miter; stroke-miterlimit: 4; fill: rgb(188,42,84); fill-rule: nonzero; opacity: 1;"  points="-6.88,-4.81 6.88,-4.81 6.88,4.81 -6.88,4.81 " />
</g>
<g transform="matrix(2.67 0 0 2.67 200 238.32)" id="Layer_1"  >
<path style="stroke: none; stroke-width: 1; stroke-dasharray: none; stroke-linecap: butt; stroke-dashoffset: 0; stroke-linejoin: miter; stroke-miterlimit: 4; fill: rgb(188,42,84); fill-rule: nonzero; opacity: 1;"  transform=" translate(-37.5, -51.87)" d="M 37.5 51.869" stroke-linecap="round" />
</g>
<g transform="matrix(2.67 0 0 2.67 222.37 167.15)" id="Layer_1"  >
<rect style="stroke: none; stroke-width: 1; stroke-dasharray: none; stroke-linecap: butt; stroke-dashoffset: 0; stroke-linejoin: miter; stroke-miterlimit: 4; fill: rgb(137,26,69); fill-rule: nonzero; opacity: 1;"  x="-17.9095" y="-2.1865" rx="0" ry="0" width="35.819" height="4.373" />
</g>
<g transform="matrix(2.67 0 0 2.67 199.99 212.65)" id="Layer_1"  >
<path style="stroke: none; stroke-width: 1; stroke-dasharray: none; stroke-linecap: butt; stroke-dashoffset: 0; stroke-linejoin: miter; stroke-miterlimit: 4; fill: rgb(9,50,96); fill-rule: nonzero; opacity: 1;"  transform=" translate(-37.5, -42.24)" d="M 66.22 62.244 H 8.775 c -0.414 0 -0.75 -0.336 -0.75 -0.75 v -38.5 c 0 -0.414 0.336 -0.75 0.75 -0.75 H 66.22 c 0.414 0 0.75 0.336 0.75 0.75 v 38.5 C 66.97 61.908 66.634 62.244 66.22 62.244 z M 9.525 60.744 H 65.47 v -37 H 9.525 V 60.744 z" stroke-linecap="round" />
</g>
<g transform="matrix(2.67 0 0 2.67 199.99 225.48)" id="Layer_1"  >
<path style="stroke: none; stroke-width: 1; stroke-dasharray: none; stroke-linecap: butt; stroke-dashoffset: 0; stroke-linejoin: miter; stroke-miterlimit: 4; fill: rgb(9,50,96); fill-rule: nonzero; opacity: 1;"  transform=" translate(-37.5, -47.06)" d="M 51.91 62.244 H 23.083 c -0.414 0 -0.75 -0.336 -0.75 -0.75 V 44.676 c 0 -5.156 3.785 -9.92 10.124 -12.744 c 0.096 -0.043 0.2 -0.065 0.305 -0.065 h 9.471 c 0.105 0 0.209 0.022 0.305 0.065 c 6.338 2.823 10.123 7.587 10.123 12.744 v 16.818 C 52.66 61.908 52.324 62.244 51.91 62.244 z M 23.833 60.744 H 51.16 V 44.676 c 0 -4.509 -3.394 -8.727 -9.088 -11.309 h -9.149 c -5.695 2.582 -9.089 6.801 -9.089 11.309 V 60.744 z" stroke-linecap="round" />
</g>
<g transform="matrix(2.67 0 0 2.67 200 234.81)" id="Layer_1"  >
<path style="stroke: none; stroke-width: 1; stroke-dasharray: none; stroke-linecap: butt; stroke-dashoffset: 0; stroke-linejoin: miter; stroke-miterlimit: 4; fill: rgb(9,50,96); fill-rule: nonzero; opacity: 1;"  transform=" translate(-37.5, -50.55)" d="M 37.506 62.244 c -0.16 0 -0.32 -0.051 -0.455 -0.153 c -0.379 -0.289 -0.745 -0.562 -1.096 -0.822 c -3.169 -2.36 -5.458 -4.065 -5.458 -9.062 c 0 -5.209 2.389 -10.016 6.554 -13.188 c 0.269 -0.206 0.641 -0.203 0.91 0.001 c 4.157 3.177 6.541 7.983 6.541 13.188 c 0 4.991 -2.282 6.695 -5.439 9.054 c -0.353 0.264 -0.72 0.538 -1.101 0.829 C 37.827 62.192 37.667 62.244 37.506 62.244 z M 37.505 40.572 c -3.508 2.883 -5.508 7.091 -5.508 11.635 c 0 4.242 1.724 5.526 4.854 7.858 c 0.212 0.158 0.431 0.32 0.654 0.488 c 0.225 -0.17 0.445 -0.334 0.66 -0.494 c 3.119 -2.33 4.837 -3.613 4.837 -7.853 C 43.002 47.667 41.006 43.459 37.505 40.572 z" stroke-linecap="round" />
</g>
<g transform="matrix(2.67 0 0 2.67 148.93 174.15)" id="Layer_1"  >
<path style="stroke: none; stroke-width: 1; stroke-dasharray: none; stroke-linecap: butt; stroke-dashoffset: 0; stroke-linejoin: miter; stroke-miterlimit: 4; fill: rgb(9,50,96); fill-rule: nonzero; opacity: 1;"  transform=" translate(-18.35, -27.81)" d="M 27.919 33.367 H 8.775 c -0.414 0 -0.75 -0.336 -0.75 -0.75 v -9.623 c 0 -0.414 0.336 -0.75 0.75 -0.75 h 19.144 c 0.414 0 0.75 0.336 0.75 0.75 v 9.623 C 28.669 33.031 28.333 33.367 27.919 33.367 z M 9.525 31.867 h 17.644 v -8.123 H 9.525 V 31.867 z" stroke-linecap="round" />
</g>
<g transform="matrix(2.67 0 0 2.67 199.99 174.15)" id="Layer_1"  >
<path style="stroke: none; stroke-width: 1; stroke-dasharray: none; stroke-linecap: butt; stroke-dashoffset: 0; stroke-linejoin: miter; stroke-miterlimit: 4; fill: rgb(9,50,96); fill-rule: nonzero; opacity: 1;"  transform=" translate(-37.5, -27.81)" d="M 47.076 33.367 H 27.919 c -0.414 0 -0.75 -0.336 -0.75 -0.75 v -9.623 c 0 -0.414 0.336 -0.75 0.75 -0.75 h 19.157 c 0.414 0 0.75 0.336 0.75 0.75 v 9.623 C 47.826 33.031 47.49 33.367 47.076 33.367 z M 28.669 31.867 h 17.657 v -8.123 H 28.669 V 31.867 z" stroke-linecap="round" />
</g>
<g transform="matrix(2.67 0 0 2.67 251.06 174.15)" id="Layer_1"  >
<path style="stroke: none; stroke-width: 1; stroke-dasharray: none; stroke-linecap: butt; stroke-dashoffset: 0; stroke-linejoin: miter; stroke-miterlimit: 4; fill: rgb(9,50,96); fill-rule: nonzero; opacity: 1;"  transform=" translate(-56.65, -27.81)" d="M 66.22 33.367 H 47.076 c -0.414 0 -0.75 -0.336 -0.75 -0.75 v -9.623 c 0 -0.414 0.336 -0.75 0.75 -0.75 H 66.22 c 0.414 0 0.75 0.336 0.75 0.75 v 9.623 C 66.97 33.031 66.634 33.367 66.22 33.367 z M 47.826 31.867 H 65.47 v -8.123 H 47.826 V 31.867 z" stroke-linecap="round" />
</g>
<g transform="matrix(2.67 0 0 2.67 200 212.65)" id="Layer_1"  >
<path style="stroke: rgb(9,50,96); stroke-width: 1.5; stroke-dasharray: none; stroke-linecap: round; stroke-dashoffset: 0; stroke-linejoin: round; stroke-miterlimit: 10; fill: none; fill-rule: nonzero; opacity: 1;"  transform=" translate(-37.5, -42.24)" d="M 37.5 42.244" stroke-linecap="round" />
</g>
<g transform="matrix(2.67 0 0 2.67 174.46 199.81)" id="Layer_1"  >
<path style="stroke: none; stroke-width: 1; stroke-dasharray: none; stroke-linecap: butt; stroke-dashoffset: 0; stroke-linejoin: miter; stroke-miterlimit: 4; fill: rgb(9,50,96); fill-rule: nonzero; opacity: 1;"  transform=" translate(-27.92, -37.43)" d="M 18.344 42.994 c -0.414 0 -0.75 -0.336 -0.75 -0.75 v -9.627 c 0 -0.414 0.336 -0.75 0.75 -0.75 H 37.5 c 0.414 0 0.75 0.336 0.75 0.75 s -0.336 0.75 -0.75 0.75 H 19.094 v 8.877 C 19.094 42.658 18.758 42.994 18.344 42.994 z" stroke-linecap="round" />
</g>
<g transform="matrix(2.67 0 0 2.67 225.53 199.81)" id="Layer_1"  >
<path style="stroke: none; stroke-width: 1; stroke-dasharray: none; stroke-linecap: butt; stroke-dashoffset: 0; stroke-linejoin: miter; stroke-miterlimit: 4; fill: rgb(9,50,96); fill-rule: nonzero; opacity: 1;"  transform=" translate(-47.07, -37.43)" d="M 56.648 42.994 c -0.414 0 -0.75 -0.336 -0.75 -0.75 v -8.877 H 37.5 c -0.414 0 -0.75 -0.336 -0.75 -0.75 s 0.336 -0.75 0.75 -0.75 h 19.148 c 0.414 0 0.75 0.336 0.75 0.75 v 9.627 C 57.398 42.658 57.062 42.994 56.648 42.994 z" stroke-linecap="round" />
</g>
<g transform="matrix(2.67 0 0 2.67 200 212.65)" id="Layer_1"  >
<path style="stroke: rgb(9,50,96); stroke-width: 1.5; stroke-dasharray: none; stroke-linecap: round; stroke-dashoffset: 0; stroke-linejoin: round; stroke-miterlimit: 10; fill: none; fill-rule: nonzero; opacity: 1;"  transform=" translate(-37.5, -42.24)" d="M 37.5 42.244" stroke-linecap="round" />
</g>
<g transform="matrix(2.67 0 0 2.67 141.74 225.48)" id="Layer_1"  >
<path style="stroke: none; stroke-width: 1; stroke-dasharray: none; stroke-linecap: butt; stroke-dashoffset: 0; stroke-linejoin: miter; stroke-miterlimit: 4; fill: rgb(9,50,96); fill-rule: nonzero; opacity: 1;"  transform=" translate(-15.65, -47.06)" d="M 22.532 52.619 H 8.775 c -0.414 0 -0.75 -0.336 -0.75 -0.75 v -9.625 c 0 -0.414 0.336 -0.75 0.75 -0.75 h 13.757 c 0.414 0 0.75 0.336 0.75 0.75 s -0.336 0.75 -0.75 0.75 H 9.525 v 8.125 h 13.007 c 0.414 0 0.75 0.336 0.75 0.75 S 22.946 52.619 22.532 52.619 z" stroke-linecap="round" />
</g>
<g transform="matrix(2.67 0 0 2.67 258.25 225.48)" id="Layer_1"  >
<path style="stroke: none; stroke-width: 1; stroke-dasharray: none; stroke-linecap: butt; stroke-dashoffset: 0; stroke-linejoin: miter; stroke-miterlimit: 4; fill: rgb(9,50,96); fill-rule: nonzero; opacity: 1;"  transform=" translate(-59.34, -47.06)" d="M 66.22 52.619 H 52.464 c -0.414 0 -0.75 -0.336 -0.75 -0.75 s 0.336 -0.75 0.75 -0.75 H 65.47 v -8.125 H 52.464 c -0.414 0 -0.75 -0.336 -0.75 -0.75 s 0.336 -0.75 0.75 -0.75 H 66.22 c 0.414 0 0.75 0.336 0.75 0.75 v 9.625 C 66.97 52.283 66.634 52.619 66.22 52.619 z" stroke-linecap="round" />
</g>
<g transform="matrix(2.67 0 0 2.67 200 238.32)" id="Layer_1"  >
<path style="stroke: rgb(9,50,96); stroke-width: 1.5; stroke-dasharray: none; stroke-linecap: round; stroke-dashoffset: 0; stroke-linejoin: round; stroke-miterlimit: 10; fill: none; fill-rule: nonzero; opacity: 1;"  transform=" translate(-37.5, -51.87)" d="M 37.5 51.869" stroke-linecap="round" />
</g>
<g transform="matrix(2.67 0 0 2.67 174.46 251.15)" id="Layer_1"  >
<path style="stroke: none; stroke-width: 1; stroke-dasharray: none; stroke-linecap: butt; stroke-dashoffset: 0; stroke-linejoin: miter; stroke-miterlimit: 4; fill: rgb(9,50,96); fill-rule: nonzero; opacity: 1;"  transform=" translate(-27.92, -56.68)" d="M 37.5 62.244 H 18.344 c -0.414 0 -0.75 -0.336 -0.75 -0.75 v -9.625 c 0 -0.414 0.336 -0.75 0.75 -0.75 s 0.75 0.336 0.75 0.75 v 8.875 H 37.5 c 0.414 0 0.75 0.336 0.75 0.75 S 37.914 62.244 37.5 62.244 z" stroke-linecap="round" />
</g>
<g transform="matrix(2.67 0 0 2.67 225.53 251.15)" id="Layer_1"  >
<path style="stroke: none; stroke-width: 1; stroke-dasharray: none; stroke-linecap: butt; stroke-dashoffset: 0; stroke-linejoin: miter; stroke-miterlimit: 4; fill: rgb(9,50,96); fill-rule: nonzero; opacity: 1;"  transform=" translate(-47.07, -56.68)" d="M 56.648 62.244 H 37.5 c -0.414 0 -0.75 -0.336 -0.75 -0.75 s 0.336 -0.75 0.75 -0.75 h 18.398 v -8.875 c 0 -0.414 0.336 -0.75 0.75 -0.75 s 0.75 0.336 0.75 0.75 v 9.625 C 57.398 61.908 57.062 62.244 56.648 62.244 z" stroke-linecap="round" />
</g>
<g transform="matrix(2.67 0 0 2.67 200.01 163.97)" id="Layer_1"  >
<path style="stroke: none; stroke-width: 1; stroke-dasharray: none; stroke-linecap: butt; stroke-dashoffset: 0; stroke-linejoin: miter; stroke-miterlimit: 4; fill: rgb(217,241,255); fill-rule: nonzero; opacity: 1;"  transform=" translate(-37.5, -23.99)" d="M 6.25 13.506 v 9.488 h 37.82 v 1.932 v 3.963 v 0.811 c 0 1.367 1.109 2.477 2.477 2.477 c 1.368 0 2.476 -1.109 2.476 -2.477 v -0.811 v -1.666 c 0 -1.367 1.109 -2.475 2.478 -2.475 c 1.156 0 2.12 0.797 2.393 1.869 v 0.605 v 1.666 v 3.107 c 0 1.367 1.108 2.477 2.476 2.477 c 0.016 0 0.027 -0.004 0.043 -0.004 c 0.014 0 0.027 0.004 0.041 0.004 c 1.367 0 2.477 -1.109 2.477 -2.477 v -3.107 v -1.666 v -0.605 c 0.271 -1.072 1.235 -1.869 2.392 -1.869 c 1.368 0 2.478 1.107 2.478 2.475 v 1.666 v 0.811 c 0 1.367 1.107 2.477 2.476 2.477 c 1.367 0 2.477 -1.109 2.477 -2.477 v -0.811 v -3.963 v -1.932 v -5.631 v -3.857 H 6.25 z" stroke-linecap="round" />
</g>
<g transform="matrix(2.67 0 0 2.67 200.01 160.66)" id="Layer_1"  >
<path style="stroke: none; stroke-width: 1; stroke-dasharray: none; stroke-linecap: butt; stroke-dashoffset: 0; stroke-linejoin: miter; stroke-miterlimit: 4; fill: rgb(174,220,255); fill-rule: nonzero; opacity: 1;"  transform=" translate(-37.5, -22.75)" d="M 6.25 20.51 h 37.82 v 1.932 v 0.553 v 1.932 v 1.479 v 0.811 c 0 1.367 1.109 2.475 2.477 2.475 c 1.368 0 2.476 -1.107 2.476 -2.475 v -0.811 v -1.666 c 0 -1.367 1.109 -2.477 2.478 -2.477 c 1.156 0 2.12 0.797 2.393 1.869 v 0.607 v 1.666 v 0.213 v 0.605 v 1.666 v 0.623 c 0 1.367 1.108 2.475 2.476 2.475 c 0.016 0 0.027 -0.004 0.043 -0.004 c 0.014 0 0.027 0.004 0.041 0.004 c 1.367 0 2.477 -1.107 2.477 -2.475 v -0.623 v -1.666 v -0.605 v -0.213 v -1.666 v -0.607 c 0.271 -1.072 1.235 -1.869 2.392 -1.869 c 1.368 0 2.478 1.109 2.478 2.477 v 1.666 v 0.811 c 0 1.367 1.107 2.475 2.476 2.475 c 1.367 0 2.477 -1.107 2.477 -2.475 v -0.811 v -1.479 v -1.932 v -0.553 V 20.51 v -3.146 v 1.516 v -5.373 H 6.25 V 20.51 z" stroke-linecap="round" />
</g>
<g transform="matrix(2.67 0 0 2.67 200 140.04)" id="Layer_1"  >
<rect style="stroke: none; stroke-width: 1; stroke-dasharray: none; stroke-linecap: butt; stroke-dashoffset: 0; stroke-linejoin: miter; stroke-miterlimit: 4; fill: rgb(151,215,255); fill-rule: nonzero; opacity: 1;"  x="-31.25" y="-1.508" rx="0" ry="0" width="62.5" height="3.016" />
</g>
<g transform="matrix(2.67 0 0 2.67 200 163.97)" id="Layer_1"  >
<path style="stroke: none; stroke-width: 1; stroke-dasharray: none; stroke-linecap: butt; stroke-dashoffset: 0; stroke-linejoin: miter; stroke-miterlimit: 4; fill: rgb(9,50,96); fill-rule: nonzero; opacity: 1;"  transform=" translate(-37.5, -23.99)" d="M 56.452 35.223 c -0.024 0 -0.06 0 -0.084 0 c -1.779 0 -3.226 -1.447 -3.226 -3.227 v -5.277 c -0.222 -0.723 -0.885 -1.221 -1.643 -1.221 c -0.953 0 -1.728 0.773 -1.728 1.725 v 2.477 c 0 1.779 -1.447 3.227 -3.226 3.227 c -1.779 0 -3.227 -1.447 -3.227 -3.227 v -5.955 H 6.25 c -0.414 0 -0.75 -0.336 -0.75 -0.75 v -9.488 c 0 -0.414 0.336 -0.75 0.75 -0.75 h 62.5 c 0.414 0 0.75 0.336 0.75 0.75 v 16.193 c 0 1.779 -1.447 3.227 -3.227 3.227 c -1.779 0 -3.226 -1.447 -3.226 -3.227 v -2.477 c 0 -0.951 -0.775 -1.725 -1.728 -1.725 c -0.757 0 -1.421 0.498 -1.642 1.221 v 5.277 C 59.679 33.775 58.231 35.223 56.452 35.223 z M 51.5 23.998 c 1.473 0 2.755 1.001 3.12 2.435 c 0.015 0.06 0.023 0.122 0.023 0.185 v 5.379 c 0 0.952 0.774 1.727 1.726 1.727 c 0.022 0 0.067 0 0.107 0.001 l -0.023 -0.001 c 0.952 0 1.727 -0.774 1.727 -1.727 v -5.379 c 0 -0.062 0.008 -0.124 0.023 -0.184 c 0.363 -1.434 1.646 -2.435 3.119 -2.435 c 1.78 0 3.228 1.447 3.228 3.225 v 2.477 c 0 0.952 0.774 1.727 1.726 1.727 c 0.952 0 1.727 -0.774 1.727 -1.727 V 14.256 H 7 v 7.988 h 37.07 c 0.414 0 0.75 0.336 0.75 0.75 v 6.705 c 0 0.952 0.774 1.727 1.727 1.727 c 0.952 0 1.726 -0.774 1.726 -1.727 v -2.477 C 48.272 25.445 49.72 23.998 51.5 23.998 z" stroke-linecap="round" />
</g>
</svg>